<svg viewBox="0 0 49 50" xmlns="http://www.w3.org/2000/svg"><path d="m41.8775175 0h-34.89793125c-3.85513151 0-6.97958625 3.12445474-6.97958625 6.97958625v34.89793125c0 3.8540399 3.12445474 6.9795863 6.97958625 6.9795863h34.89793125c3.8551315 0 6.9795862-3.1255464 6.9795862-6.9795863v-34.89793125c0-3.85513151-3.1299095-6.97958625-6.9795862-6.97958625zm-5.8344979 31.833456c0 .7059188-.4241197 1.3413879-1.077148 1.6118481-.6520464.2708961-1.402459.1205081-1.9019375-.3783148l-4.9347856-4.9347856-7.4070857 7.4070841c-1.3632004 1.3632004-3.5683136 1.3588372-4.9304241-.004483l-2.4679386-2.4679386c-1.360255-1.3642754-1.3711613-3.5672087-.0079609-5.0285589l7.4070857-7.4070857-4.9315123-4.839909c-.5016585-.5016551-.6543363-1.2541444-.3816962-1.8975744.2701324-.6525889.9061473-1.0769283 1.6118481-1.0769283h17.2744736c.9635092 0 1.6467468.7811677 1.6467468 1.6467468v17.3698993z" transform="translate(0 .6327)"/></svg>