<svg height="308" viewBox="0 0 270 308" width="270" xmlns="http://www.w3.org/2000/svg"><path d="m108.054856 0c23.459177.02253816 45.117279 3.95705624 64.974304 11.8035543 19.911896 7.8658164 37.041486 18.7646247 51.395223 32.6932051 14.350509 13.9318001 25.534611 30.2462053 33.552304 48.949655 8.017694 18.7002296 12.023313 38.8847586 12.023313 60.5535856s-4.005619 41.853356-12.023313 60.553586c-8.017693 18.703449-19.201795 35.017855-33.552304 48.946435-14.353737 13.9318-31.483327 24.830608-51.395223 32.696425-19.857025 7.846498-41.515127 11.781016-64.974304 11.803554h-108.054856v-308zm-.193664 73.516245c-11.1195471 0-21.6581017 1.9994564-31.6124362 5.9983693-9.9575622 3.9989128-18.6853574 9.6109136-26.1833856 16.8327827-7.4980283 7.221869-13.4467437 15.734853-17.8429187 25.535731-4.396175 9.804098-6.5942624 20.509722-6.5942624 32.116872s2.1980874 22.312774 6.5942624 32.113653c4.396175 9.804097 10.3448904 18.317081 17.8429187 25.53895 7.4980282 7.221869 16.2258234 12.83387 26.1833856 16.832783 9.66156 3.878172 19.8734795 5.875807 30.6328072 5.98996l1.173293.005189c11.048536-.022538 21.522536-2.021994 31.418771-5.995149 9.957563-3.998913 18.749913-9.610914 26.37705-16.832783 7.630366-7.221869 13.640408-15.734853 18.036583-25.53895 4.396175-9.800879 6.594262-20.506503 6.594262-32.113653s-2.198087-22.312774-6.594262-32.116872c-4.396175-9.800878-10.406217-18.313862-18.036583-25.535731-7.627137-7.2218691-16.419487-12.8338699-26.37705-16.8327827-9.605169-3.8562975-19.754617-5.8532889-30.445391-5.9880305z" fill-rule="evenodd"/></svg>