<svg height="308" viewBox="0 0 270 308" width="270" xmlns="http://www.w3.org/2000/svg"><path d="m270 0v308h-265.36658652v-54.626051c0-15.26799 2.84331169-28.46891 8.52993512-39.602759 5.6869461-11.133849 13.2337131-20.799499 22.6412693-28.993728 9.0130579-7.848798 18.8634782-14.703634 29.55184-20.558733l1.4089162-.765582c11.2328403-6.020908 22.4656806-11.520218 33.6985209-16.491491 11.23284-4.971273 21.552877-9.839515 30.960433-14.601505 9.407557-4.761991 16.954646-9.91035 22.64127-15.441857 5.686623-5.531507 8.529935-12.009617 8.529935-19.43433 0-9.1021952-3.159307-16.6331591-9.477598-22.5832322-6.318614-5.953293-15.09418-8.9315493-26.32702-8.9315493-11.092434 0-21.342429 3.361405-30.7499852 10.0842149-9.4075562 6.72281-15.7258473 18.4909472-18.9555188 35.2979716h-77.085411c0-21.0087807 4.66859579-39.9182935 14.0061101-56.7253184 9.3371916-16.8070249 23.4837082-30.1141961 42.4389043-39.918294 3.2216023-1.6678235 6.5887753-3.1907589 10.1024876-4.5752456 17.1599299-6.75500734 37.802909-10.132511 61.928291-10.132511z" fill-rule="evenodd"/></svg>