<?xml version="1.0" encoding="UTF-8"?>
<svg width="731px" height="" viewBox="0 0 731 703" version="1.1" xmlns="http://www.w3.org/2000/svg" xmlns:xlink="http://www.w3.org/1999/xlink" class="balloon-bundle">
    <title>Colorful Balloon Bundle</title>
    <g id="balloon-bundle-copy-2" stroke="none" stroke-width="1" fill="none" fill-rule="evenodd">
        <path d="M165.231092,399.169161 C297.339736,526.619637 364.096038,626.710229 365.5,699.440937" id="Path-15-Copy-10" stroke="#1F2937" stroke-width="5" stroke-linecap="round"></path>
        <path d="M528.011592,403.682491 C419.670531,524.782502 365.5,623.368651 365.5,699.440937" id="Path-15-Copy-11" stroke="#1F2937" stroke-width="5" stroke-linecap="round"></path>
        <path d="M420.465659,395.859292 C383.821886,532.417634 365.5,633.611516 365.5,699.440937" id="Path-15-Copy-12" stroke="#1F2937" stroke-width="5" stroke-linecap="round"></path>
        <path d="M288.10244,396.794908 C339.700813,527.764517 365.5,628.646527 365.5,699.440937" id="Path-15-Copy-13" stroke="#1F2937" stroke-width="5" stroke-linecap="round"></path>
        <path d="M159.557156,52.2697969 C187.171393,52.2697969 209.557156,74.6555594 209.557156,102.269797 C209.557156,127.878042 190.305617,148.98985 165.485781,151.921981 L169.407274,156.788332 C170.793132,158.508707 170.521952,161.026807 168.801576,162.412665 C168.090635,162.985368 167.20518,163.29765 166.292258,163.29765 L154.009524,163.29765 C151.800385,163.29765 150.009524,161.506789 150.009524,159.29765 C150.009524,158.384728 150.321806,157.499273 150.894508,156.788332 L154.720577,152.038876 C129.375682,149.606154 109.557156,128.252408 109.557156,102.269797 C109.557156,74.6555594 131.942918,52.2697969 159.557156,52.2697969 Z" id="Combined-Shape-Copy-68" fill="#FA0098" transform="translate(159.5572, 107.7837) rotate(-19) translate(-159.5572, -107.7837)"></path>
        <path d="M299.557156,0.269796869 C327.171393,0.269796869 349.557156,22.6555594 349.557156,50.2697969 C349.557156,75.8780425 330.305617,96.9898505 305.485781,99.9219808 L309.407274,104.788332 C310.793132,106.508707 310.521952,109.026807 308.801576,110.412665 C308.090635,110.985368 307.20518,111.29765 306.292258,111.29765 L294.009524,111.29765 C291.800385,111.29765 290.009524,109.506789 290.009524,107.29765 C290.009524,106.384728 290.321806,105.499273 290.894508,104.788332 L294.720577,100.038876 C269.375682,97.6061541 249.557156,76.2524079 249.557156,50.2697969 C249.557156,22.6555594 271.942918,0.269796869 299.557156,0.269796869 Z" id="Combined-Shape-Copy-69" fill="#F7B500" transform="translate(299.5572, 55.7837) rotate(5) translate(-299.5572, -55.7837)"></path>
        <path d="M447.557156,4.26979687 C475.171393,4.26979687 497.557156,26.6555594 497.557156,54.2697969 C497.557156,79.8780425 478.305617,100.98985 453.485781,103.921981 L457.407274,108.788332 C458.793132,110.508707 458.521952,113.026807 456.801576,114.412665 C456.090635,114.985368 455.20518,115.29765 454.292258,115.29765 L442.009524,115.29765 C439.800385,115.29765 438.009524,113.506789 438.009524,111.29765 C438.009524,110.384728 438.321806,109.499273 438.894508,108.788332 L442.720577,104.038876 C417.375682,101.606154 397.557156,80.2524079 397.557156,54.2697969 C397.557156,26.6555594 419.942918,4.26979687 447.557156,4.26979687 Z" id="Combined-Shape-Copy-70" fill="#B620E0" transform="translate(447.5572, 59.7837) rotate(5) translate(-447.5572, -59.7837)"></path>
        <path d="M241.877419,16.7128571 C279.432782,16.7128571 309.877419,47.1574941 309.877419,84.7128571 C309.877419,119.50635 283.746003,148.196525 250.038376,152.228175 L256.681642,160.403631 C258.074709,162.118174 257.8141,164.63739 256.099557,166.030457 C255.386554,166.609772 254.495869,166.926001 253.577186,166.926001 L231.38495,166.926001 C229.175811,166.926001 227.38495,165.13514 227.38495,162.926001 C227.38495,162.007318 227.701179,161.116634 228.280494,160.403631 L234.824721,152.351541 C200.583343,148.823128 173.877419,119.886744 173.877419,84.7128571 C173.877419,47.1574941 204.322056,16.7128571 241.877419,16.7128571 Z" id="Combined-Shape-Copy-71" fill="#0091FF" transform="translate(241.8774, 91.8194) rotate(-7) translate(-241.8774, -91.8194)"></path>
        <path d="M373.877419,3.71285709 C411.432782,3.71285709 441.877419,34.1574941 441.877419,71.7128571 C441.877419,106.50635 415.746003,135.196525 382.038376,139.228175 L388.681642,147.403631 C390.074709,149.118174 389.8141,151.63739 388.099557,153.030457 C387.386554,153.609772 386.495869,153.926001 385.577186,153.926001 L363.38495,153.926001 C361.175811,153.926001 359.38495,152.13514 359.38495,149.926001 C359.38495,149.007318 359.701179,148.116634 360.280494,147.403631 L366.824721,139.351541 C332.583343,135.823128 305.877419,106.886744 305.877419,71.7128571 C305.877419,34.1574941 336.322056,3.71285709 373.877419,3.71285709 Z" id="Combined-Shape-Copy-72" fill="#FA6400" transform="translate(373.8774, 78.8194) rotate(9) translate(-373.8774, -78.8194)"></path>
        <path d="M502.877419,35.7128571 C540.432782,35.7128571 570.877419,66.1574941 570.877419,103.712857 C570.877419,138.50635 544.746003,167.196525 511.038376,171.228175 L517.681642,179.403631 C519.074709,181.118174 518.8141,183.63739 517.099557,185.030457 C516.386554,185.609772 515.495869,185.926001 514.577186,185.926001 L492.38495,185.926001 C490.175811,185.926001 488.38495,184.13514 488.38495,181.926001 C488.38495,181.007318 488.701179,180.116634 489.280494,179.403631 L495.824721,171.351541 C461.583343,167.823128 434.877419,138.886744 434.877419,103.712857 C434.877419,66.1574941 465.322056,35.7128571 502.877419,35.7128571 Z" id="Combined-Shape-Copy-73" fill="#0091FF" transform="translate(502.8774, 110.8194) rotate(9) translate(-502.8774, -110.8194)"></path>
        <path d="M608.986541,123.878205 C640.466772,123.878205 665.986541,149.397974 665.986541,180.878205 C665.986541,210.137254 643.940971,234.247284 615.554195,237.50393 L620.21794,243.156416 C621.623798,244.860486 621.382049,247.381582 619.677979,248.787441 C618.961403,249.378615 618.061407,249.701947 617.132447,249.701947 L601.10356,249.701947 C598.894422,249.701947 597.10356,247.911086 597.10356,245.701947 C597.10356,244.772987 597.426893,243.872991 598.018067,243.156416 L602.659597,237.531028 C574.156835,234.383453 551.986541,210.219904 551.986541,180.878205 C551.986541,149.397974 577.50631,123.878205 608.986541,123.878205 Z" id="Combined-Shape-Copy-74" fill="#FA0098" transform="translate(608.9865, 186.7901) rotate(28) translate(-608.9865, -186.7901)"></path>
        <path d="M121.877419,111.712857 C159.432782,111.712857 189.877419,142.157494 189.877419,179.712857 C189.877419,214.50635 163.746003,243.196525 130.038376,247.228175 L136.681642,255.403631 C138.074709,257.118174 137.8141,259.63739 136.099557,261.030457 C135.386554,261.609772 134.495869,261.926001 133.577186,261.926001 L111.38495,261.926001 C109.175811,261.926001 107.38495,260.13514 107.38495,257.926001 C107.38495,257.007318 107.701179,256.116634 108.280494,255.403631 L114.824721,247.351541 C80.5833426,243.823128 53.8774191,214.886744 53.8774191,179.712857 C53.8774191,142.157494 84.3220562,111.712857 121.877419,111.712857 Z" id="Combined-Shape-Copy-75" fill="#F7B500" transform="translate(121.8774, 186.8194) rotate(-24) translate(-121.8774, -186.8194)"></path>
        <path d="M224.877419,95.7128571 C262.432782,95.7128571 292.877419,126.157494 292.877419,163.712857 C292.877419,198.50635 266.746003,227.196525 233.038376,231.228175 L239.681642,239.403631 C241.074709,241.118174 240.8141,243.63739 239.099557,245.030457 C238.386554,245.609772 237.495869,245.926001 236.577186,245.926001 L214.38495,245.926001 C212.175811,245.926001 210.38495,244.13514 210.38495,241.926001 C210.38495,241.007318 210.701179,240.116634 211.280494,239.403631 L217.824721,231.351541 C183.583343,227.823128 156.877419,198.886744 156.877419,163.712857 C156.877419,126.157494 187.322056,95.7128571 224.877419,95.7128571 Z" id="Combined-Shape-Copy-76" fill="#FA6400" transform="translate(224.8774, 170.8194) rotate(-7) translate(-224.8774, -170.8194)"></path>
        <g id="Group" transform="translate(83.6463, 248.1908) rotate(-20) translate(-83.6463, -248.1908)translate(3.6463, 159.8301)">
            <path d="M80,1.60298441e-11 C124.18278,1.60217279e-11 160,35.81722 160,80 C160,120.933419 129.257312,154.686498 89.6014249,159.42975 L98.3519259,170.198976 C99.7449926,171.913519 99.4843841,174.432735 97.7698404,175.825802 C97.0568375,176.405117 96.166153,176.721346 95.2474699,176.721346 L66.172881,176.721346 C63.963742,176.721346 62.172881,174.930485 62.172881,172.721346 C62.172881,171.802663 62.4891102,170.911978 63.068425,170.198976 L71.7005647,159.574702 C31.4176193,155.422641 2.64575279e-12,121.38031 2.64321898e-12,80 C2.63780815e-12,35.81722 35.81722,1.60352549e-11 80,1.60298441e-11 Z" id="Combined-Shape-Copy-78" fill="#B620E0"></path>
            <text id="Mentoring" font-family="Lato-Bold, Lato" font-size="24" font-weight="bold" line-spacing="41" fill="#FFFFFF">
                <tspan x="20" y="84">UX Writing</tspan>
            </text>
        </g>
        <path d="M453.246703,52.4383058 C490.802066,52.4383058 521.246703,82.8829428 521.246703,120.438306 C521.246703,155.231799 495.115287,183.921973 461.40766,187.953623 L468.050926,196.129079 C469.443992,197.843623 469.183384,200.362839 467.46884,201.755906 C466.755837,202.335221 465.865153,202.65145 464.94647,202.65145 L442.754234,202.65145 C440.545095,202.65145 438.754234,200.860589 438.754234,198.65145 C438.754234,197.732767 439.070463,196.842082 439.649778,196.129079 L446.194004,188.07699 C411.952626,184.548577 385.246703,155.612193 385.246703,120.438306 C385.246703,82.8829428 415.69134,52.4383058 453.246703,52.4383058 Z" id="Combined-Shape-Copy-79" fill="#6236FF" transform="translate(453.2467, 127.5449) rotate(-7) translate(-453.2467, -127.5449)"></path>
        <path d="M332.393342,52.0382531 C369.948705,52.0382531 400.393342,82.4828901 400.393342,120.038253 C400.393342,154.831746 374.261926,183.521921 340.554299,187.553571 L347.197565,195.729027 C348.590632,197.44357 348.330024,199.962786 346.61548,201.355853 C345.902477,201.935168 345.011793,202.251397 344.093109,202.251397 L321.900874,202.251397 C319.691735,202.251397 317.900874,200.460536 317.900874,198.251397 C317.900874,197.332714 318.217103,196.44203 318.796418,195.729027 L325.340644,187.676937 C291.099266,184.148524 264.393342,155.21214 264.393342,120.038253 C264.393342,82.4828901 294.837979,52.0382531 332.393342,52.0382531 Z" id="Combined-Shape-Copy-80" fill="#6DD400" transform="translate(332.3933, 127.1448) rotate(-7) translate(-332.3933, -127.1448)"></path>
        <g id="Group-4-Copy-11" transform="translate(141.9852, 337.1519) rotate(-19) translate(-141.9852, -337.1519)translate(61.9852, 248.6519)">
            <path d="M80,-4.44799753e-12 C124.18278,-4.45611377e-12 160,35.81722 160,80 C160,121.114665 128.984463,154.985263 89.0741346,159.491048 L98.0465099,170.468671 C99.4445243,172.179183 99.1911952,174.699141 97.4806834,176.097156 C96.7662856,176.681038 95.8720043,177 94.9493542,177 L66.0506458,177 C63.8415068,177 62.0506458,175.209139 62.0506458,173 C62.0506458,172.07735 62.3696074,171.183069 62.9534901,170.468671 L71.845753,159.589533 C31.4931352,155.504406 -5.69601588e-12,121.430011 -5.69855274e-12,80 C-5.70396357e-12,35.81722 35.81722,-4.4425867e-12 80,-4.44799753e-12 Z" id="Combined-Shape" fill="#E02020"></path>
            <text id="Mentoring" font-family="Lato-Bold, Lato" font-size="24" font-weight="bold" line-spacing="41" fill="#FFFFFF">
                <tspan x="19.5" y="83.8043478">UX Writing</tspan>
            </text>
        </g>
        <path d="M340.640901,162.434429 C378.196264,162.434429 408.640901,192.879066 408.640901,230.434429 C408.640901,265.227923 382.509485,293.918097 348.801858,297.949747 L355.445124,306.125203 C356.838191,307.839747 356.577582,310.358963 354.863039,311.752029 C354.150036,312.331344 353.259351,312.647573 352.340668,312.647573 L330.148432,312.647573 C327.939293,312.647573 326.148432,310.856712 326.148432,308.647573 C326.148432,307.72889 326.464661,306.838206 327.043976,306.125203 L333.588202,298.073113 C299.346824,294.544701 272.640901,265.608316 272.640901,230.434429 C272.640901,192.879066 303.085538,162.434429 340.640901,162.434429 Z" id="Combined-Shape-Copy-81" fill="#1DB0D8" transform="translate(340.6409, 237.541) rotate(-7) translate(-340.6409, -237.541)"></path>
        <g id="Group-4-Copy-12" transform="translate(228.7081, 218.4408) rotate(-17) translate(-228.7081, -218.4408)translate(148.7081, 129.9408)">
            <path d="M80,1.84599003e-11 C124.18278,1.8451784e-11 160,35.81722 160,80 C160,121.114665 128.984463,154.985263 89.0741346,159.491048 L98.0465099,170.468671 C99.4445243,172.179183 99.1911952,174.699141 97.4806834,176.097156 C96.7662856,176.681038 95.8720043,177 94.9493542,177 L66.0506458,177 C63.8415068,177 62.0506458,175.209139 62.0506458,173 C62.0506458,172.07735 62.3696074,171.183069 62.9534901,170.468671 L71.845753,159.589533 C31.4931352,155.504406 -5.93760041e-12,121.430011 -5.94013727e-12,80 C-5.9455481e-12,35.81722 35.81722,1.84653111e-11 80,1.84599003e-11 Z" id="Combined-Shape" fill="#6236FF"></path>
            <text id="Mentoring" font-family="Lato-Bold, Lato" font-size="24" font-weight="bold" line-spacing="41" fill="#FFFFFF">
                <tspan x="19.5" y="83.8043478">UX Writing</tspan>
            </text>
        </g>
        <g id="Group-4-Copy-17" transform="translate(280.9852, 326.1519) rotate(-5) translate(-280.9852, -326.1519)translate(200.9852, 237.6519)">
            <path d="M80,-8.24229573e-13 C124.18278,-8.32345818e-13 160,35.81722 160,80 C160,121.114665 128.984463,154.985263 89.0741346,159.491048 L98.0465099,170.468671 C99.4445243,172.179183 99.1911952,174.699141 97.4806834,176.097156 C96.7662856,176.681038 95.8720043,177 94.9493542,177 L66.0506458,177 C63.8415068,177 62.0506458,175.209139 62.0506458,173 C62.0506458,172.07735 62.3696074,171.183069 62.9534901,170.468671 L71.845753,159.589533 C31.4931352,155.504406 -3.93899524e-11,121.430011 -3.93924893e-11,80 C-3.93979001e-11,35.81722 35.81722,-8.18818743e-13 80,-8.24229573e-13 Z" id="Combined-Shape" fill="#FA6400"></path>
            <text id="Mentoring" font-family="Lato-Bold, Lato" font-size="24" font-weight="bold" line-spacing="41" fill="#FFFFFF">
                <tspan x="19.5" y="83.8043478">UX Writing</tspan>
            </text>
        </g>
        <path d="M553.45244,89.6720156 C591.007803,89.6720156 621.45244,120.116653 621.45244,157.672016 C621.45244,192.465509 595.321024,221.155683 561.613397,225.187333 L568.256663,233.362789 C569.64973,235.077333 569.389121,237.596549 567.674578,238.989616 C566.961575,239.568931 566.07089,239.88516 565.152207,239.88516 L542.959971,239.88516 C540.750832,239.88516 538.959971,238.094299 538.959971,235.88516 C538.959971,234.966477 539.2762,234.075792 539.855515,233.362789 L546.399741,225.3107 C512.158363,221.782287 485.45244,192.845903 485.45244,157.672016 C485.45244,120.116653 515.897077,89.6720156 553.45244,89.6720156 Z" id="Combined-Shape-Copy-82" fill="#6DD400" transform="translate(553.4524, 164.7786) rotate(20) translate(-553.4524, -164.7786)"></path>
        <path d="M425.305534,104.793224 C449.053778,104.793224 468.305534,124.04498 468.305534,147.793224 C468.305534,169.481558 452.248706,187.41962 431.374142,190.368318 L433.304367,192.682078 C434.718623,194.379186 434.489327,196.901444 432.792219,198.315701 C432.073359,198.914751 431.167228,199.242816 430.231482,199.242816 L422.311814,199.242816 C420.102675,199.242816 418.311814,197.451955 418.311814,195.242816 C418.311814,194.30707 418.639879,193.400938 419.238929,192.682078 L420.991408,190.579505 C399.268892,188.415549 382.305534,170.085389 382.305534,147.793224 C382.305534,124.04498 401.557289,104.793224 425.305534,104.793224 Z" id="Combined-Shape-Copy-83" fill="#E02020" transform="translate(425.3055, 152.018) rotate(7) translate(-425.3055, -152.018)"></path>
        <path d="M500.393342,179.038253 C537.948705,179.038253 568.393342,209.48289 568.393342,247.038253 C568.393342,281.831746 542.261926,310.521921 508.554299,314.553571 L515.197565,322.729027 C516.590632,324.44357 516.330024,326.962786 514.61548,328.355853 C513.902477,328.935168 513.011793,329.251397 512.093109,329.251397 L489.900874,329.251397 C487.691735,329.251397 485.900874,327.460536 485.900874,325.251397 C485.900874,324.332714 486.217103,323.44203 486.796418,322.729027 L493.340644,314.676937 C459.099266,311.148524 432.393342,282.21214 432.393342,247.038253 C432.393342,209.48289 462.837979,179.038253 500.393342,179.038253 Z" id="Combined-Shape-Copy-84" fill="#FFD600" transform="translate(500.3933, 254.1448) rotate(24) translate(-500.3933, -254.1448)"></path>
        <g id="Group-12-Copy-19" transform="translate(644.9916, 272.7349) rotate(31) translate(-644.9916, -272.7349)translate(564.4916, 184.2349)">
            <path d="M81,-5.25801624e-13 C125.18278,-5.33917869e-13 161,35.81722 161,80 C161,121.430011 129.506865,155.504406 89.154247,159.589533 L98.0465099,170.468671 C99.4445243,172.179183 99.1911952,174.699141 97.4806834,176.097156 C96.7662856,176.681038 95.8720043,177 94.9493542,177 L66.0506458,177 C63.8415068,177 62.0506458,175.209139 62.0506458,173 C62.0506458,172.07735 62.3696074,171.183069 62.9534901,170.468671 L71.845753,159.589533 C31.4931352,155.504406 7.3637596e-12,121.430011 7.36122274e-12,80 C7.35581191e-12,35.81722 35.81722,-5.20390794e-13 80,-5.25801624e-13 L81,-5.25801624e-13 Z" id="Combined-Shape" fill="#44D7B6"></path>
            <text id="Mentoring" font-family="Lato-Bold, Lato" font-size="24" font-weight="bold" line-spacing="41" fill="#FFFFFF">
                <tspan x="24.316" y="83.8043478">Mentoring</tspan>
            </text>
        </g>
        <g id="Group-12-Copy-20" transform="translate(514.5584, 220.8164) rotate(11) translate(-514.5584, -220.8164)translate(434.0584, 132.3164)">
            <path d="M81,7.2475359e-13 C125.18278,7.16637345e-13 161,35.81722 161,80 C161,121.430011 129.506865,155.504406 89.154247,159.589533 L98.0465099,170.468671 C99.4445243,172.179183 99.1911952,174.699141 97.4806834,176.097156 C96.7662856,176.681038 95.8720043,177 94.9493542,177 L66.0506458,177 C63.8415068,177 62.0506458,175.209139 62.0506458,173 C62.0506458,172.07735 62.3696074,171.183069 62.9534901,170.468671 L71.845753,159.589533 C31.4931352,155.504406 1.19396548e-11,121.430011 1.1937118e-11,80 C1.19317071e-11,35.81722 35.81722,7.3016442e-13 80,7.2475359e-13 L81,7.2475359e-13 Z" id="Combined-Shape" fill="#32C5FF"></path>
            <text id="Mentoring" font-family="Lato-Bold, Lato" font-size="24" font-weight="bold" line-spacing="41" fill="#FFFFFF">
                <tspan x="24.316" y="83.8043478">Mentoring</tspan>
            </text>
        </g>
        <g id="Group-12-Copy-21" transform="translate(372.5584, 212.8164) rotate(-2) translate(-372.5584, -212.8164)translate(292.0584, 124.3164)">
            <path d="M81,2.89901436e-12 C125.18278,2.89089812e-12 161,35.81722 161,80 C161,121.430011 129.506865,155.504406 89.154247,159.589533 L98.0465099,170.468671 C99.4445243,172.179183 99.1911952,174.699141 97.4806834,176.097156 C96.7662856,176.681038 95.8720043,177 94.9493542,177 L66.0506458,177 C63.8415068,177 62.0506458,175.209139 62.0506458,173 C62.0506458,172.07735 62.3696074,171.183069 62.9534901,170.468671 L71.845753,159.589533 C31.4931352,155.504406 -1.67520609e-11,121.430011 -1.67545977e-11,80 C-1.67600085e-11,35.81722 35.81722,2.90442519e-12 80,2.89901436e-12 L81,2.89901436e-12 Z" id="Combined-Shape" fill="#0091FF"></path>
            <text id="Mentoring" font-family="Lato-Bold, Lato" font-size="24" font-weight="bold" line-spacing="41" fill="#FFFFFF">
                <tspan x="24.316" y="83.8043478">Mentoring</tspan>
            </text>
        </g>
        <g id="Group-13-Copy-17" transform="translate(555.3647, 347.5498) rotate(24) translate(-555.3647, -347.5498)translate(474.8647, 259.0498)">
            <path d="M81,-2.84217094e-14 C125.18278,-3.65379544e-14 161,35.81722 161,80 C161,121.430011 129.506865,155.504406 89.154247,159.589533 L98.0465099,170.468671 C99.4445243,172.179183 99.1911952,174.699141 97.4806834,176.097156 C96.7662856,176.681038 95.8720043,177 94.9493542,177 L66.0506458,177 C63.8415068,177 62.0506458,175.209139 62.0506458,173 C62.0506458,172.07735 62.3696074,171.183069 62.9534901,170.468671 L71.845753,159.589533 C31.4931352,155.504406 6.0443282e-10,121.430011 6.04430284e-10,80 C6.04424873e-10,35.81722 35.81722,-2.30108794e-14 80,-2.84217094e-14 L81,-2.84217094e-14 Z" id="Combined-Shape" fill="#6DD400"></path>
            <text id="Product-Management" font-family="Lato-Bold, Lato" font-size="24" font-weight="bold" fill="#FFFFFF">
                <tspan x="38.146" y="74.8043478">Product </tspan>
                <tspan x="10.126" y="103.804348">Management</tspan>
            </text>
        </g>
        <g id="Group-13-Copy-18" transform="translate(424.3647, 326.5498) rotate(3) translate(-424.3647, -326.5498)translate(343.8647, 238.0498)">
            <path d="M81,-9.52127266e-13 C125.18278,-9.60243511e-13 161,35.81722 161,80 C161,121.430011 129.506865,155.504406 89.154247,159.589533 L98.0465099,170.468671 C99.4445243,172.179183 99.1911952,174.699141 97.4806834,176.097156 C96.7662856,176.681038 95.8720043,177 94.9493542,177 L66.0506458,177 C63.8415068,177 62.0506458,175.209139 62.0506458,173 C62.0506458,172.07735 62.3696074,171.183069 62.9534901,170.468671 L71.845753,159.589533 C31.4931352,155.504406 9.13831549e-10,121.430011 9.13829012e-10,80 C9.13823602e-10,35.81722 35.81722,-9.46716436e-13 80,-9.52127266e-13 L81,-9.52127266e-13 Z" id="Combined-Shape" fill="#F7B500"></path>
            <text id="Product-Management" font-family="Lato-Bold, Lato" font-size="24" font-weight="bold" fill="#FFFFFF">
                <tspan x="38.146" y="74.8043478">Product </tspan>
                <tspan x="10.126" y="103.804348">Management</tspan>
            </text>
        </g>
    </g>
</svg>