<svg xmlns="http://www.w3.org/2000/svg" xmlns:xlink="http://www.w3.org/1999/xlink" width="376" height="242" viewBox="0 0 376 242"><title>Cloud</title><linearGradient id="a" x1="100.304%" x2="-.037%" y1="58.271%" y2="57.382%"><stop offset="0" stop-color="#ecf3ff"/><stop offset="1" stop-color="#eefaff"/></linearGradient><path fill="url(#a)" d="m1107.7648 126.856223c-36.77087.074318-70.64063 19.982844-88.59202 52.074122-7.58886-3.695534-15.91707-5.621706-24.357899-5.633565-27.322923.071823-50.577132 19.913318-54.948452 46.884393-28.573885 11.964352-47.173934 39.913032-47.173934 70.890647.041055 42.433399 34.462534 76.804943 76.895949 76.784403 3.224798-.029132 6.444567-.261191 9.640212-.69481h213.661234c1.12204.080946 2.24583.135289 3.37043.162984 1.07166-.030141 2.14251-.084483 3.21174-.162984h5.11677v-.380295c36.00727-4.258493 63.15088-34.908291 63.17615-71.336708v-.137937c-.08343-34.478883-24.52142-64.041629-58.2388-70.45174-2.01736-54.729947-46.99428-98.043725-101.76138-97.99851z" transform="translate(-892.5 -126)"/></svg>