<svg height="169" viewBox="0 0 296 169" width="296" xmlns="http://www.w3.org/2000/svg" xmlns:xlink="http://www.w3.org/1999/xlink">
    <linearGradient id="{{location}}" x1="100.303622%" x2="-.036931%" y1="56.508866%" y2="55.809081%">
        <stop offset="0" stop-color="#ecf3ff"/>
        <stop offset="1" stop-color="#eefaff"/>
    </linearGradient>
    <path d="m107.439641 48.3562234c27.269923-.0225139 49.665071 21.5445124 50.669565 48.7959383 16.788739 3.1917573 28.957033 17.9117963 28.998574 35.0797043v.068683c-.012582 18.13863-13.528076 33.399941-31.457003 35.520352v.189359h-2.547769c-.532398.039087-1.065602.066145-1.59921.081153-.559965-.013789-1.119528-.040848-1.678222-.081153h-106.3873354c-1.5911925.215909-3.1943967.331458-4.8001053.345963-21.1286712.010227-38.26799687-17.104234-38.28843919-38.232898 0-15.424538 9.26143478-29.340894 23.48909549-35.298247 2.1765909-13.4295808 13.7554501-23.3091636 27.3602253-23.344926 4.2029031.0059048 8.3497278.9649945 12.1284127 2.8050948 8.9384535-15.9790596 25.8030623-25.8920186 44.1122114-25.9290234zm131.886729-48c19.088946-.01575972 34.76555 15.0811587 35.468696 34.1571568 11.752117 2.2342298 20.269923 12.5382573 20.299002 24.5557931v.048078c-.008808 12.6970414-9.469653 23.3799587-22.019903 24.8642465v.132551h-1.783438c-.372678.0273614-.745922.0463021-1.119447.0568076-.391975-.0096529-.783669-.028594-1.174755-.0568076h-74.471135c-1.113835.1511368-2.236078.2320205-3.360074.2421746-14.79007.0071589-26.787598-11.9729641-26.801907-26.7630287 0-10.797177 6.483004-20.5386256 16.442367-24.7087731 1.523613-9.4007065 9.628815-16.3164145 19.152157-16.3414481 2.942032.0041333 5.84481.6754961 8.489889 1.9635663 6.256918-11.18534177 18.062144-18.12441306 30.878548-18.1503164z" fill="url(#{{location}})"/>
</svg>