<svg class="mickey-{{location}}" viewBox="0 0 935 855" version="1.1" xmlns="http://www.w3.org/2000/svg" xmlns:xlink="http://www.w3.org/1999/xlink">
    <g stroke="none" stroke-width="1" fill-rule="evenodd">
        <path d="M741.954144,-0.00273163358 C848.268959,-0.00273163358 934.454144,86.8540269 934.454144,193.997268 C934.454144,301.14051 848.268959,387.997268 741.954144,387.997268 C738.376164,387.997268 734.820983,387.898892 731.291119,387.704676 L731.297261,387.695266 C759.159794,434.068831 775.195113,488.447818 775.195113,546.596574 C775.195113,716.424134 638.418104,854.096574 469.695113,854.096574 C300.972122,854.096574 164.195113,716.424134 164.195113,546.596574 C164.195113,488.679592 180.102858,434.502386 207.76036,388.250165 C202.8199,388.640227 197.822116,388.835664 192.779038,388.835664 C86.4642238,388.835664 0.279038138,301.978906 0.279038138,194.835664 C0.279038138,87.692423 86.4642238,0.835664482 192.779038,0.835664482 C299.093852,0.835664482 385.279038,87.692423 385.279038,194.835664 C385.279038,215.380132 382.110253,235.178722 376.238375,253.762115 L376.232274,253.753398 C405.689955,244.235862 437.096265,239.096574 469.695113,239.096574 C500.501731,239.096574 530.243333,243.686297 558.281805,252.223451 C552.54461,233.847808 549.454144,214.286259 549.454144,193.997268 C549.454144,86.8540269 635.63933,-0.00273163358 741.954144,-0.00273163358 Z"></path>
    </g>
</svg>