<svg height="161" viewBox="0 0 166 161" width="166" xmlns="http://www.w3.org/2000/svg" id="popcorn-{{name}}" class="popcorn"><path d="m1.42446488 59.2385672c-3.43811077 10.5648266-.53856276 22.1650042 7.46671775 29.8668024l4.93427977 4.7481119c6.9791834 6.7159745 10.1442699 16.4735485 8.4354421 26.0089185l-1.2081701 6.739671c-1.959563 10.935784 2.5009404 22.029592 11.4842213 28.563214 8.9843606 6.535108 20.9114394 7.360187 30.7102786 2.12713l6.0394072-3.225741c8.5434894-4.563863 18.8015514-4.559454 27.3406739.012584l6.0358876 3.231261c9.793947 5.242934 21.722982 4.428286 30.712766-2.098167 8.990864-6.524966 13.461691-17.615384 11.513041-28.552032l-1.200784-6.741123c-1.6997-9.536001 1.474799-19.291655 8.461814-26.0011667l4.938349-4.7429357c8.012395-7.695264 10.923508-19.2918073 7.496284-29.8602835-3.427427-10.5671932-12.590773-18.247242-23.594169-19.7730032l-6.782763-.9401352c-9.593098-1.3300107-17.888815-7.3641231-22.110235-16.0816642l-2.984743-6.1635434c-4.841817-9.99815379-14.9701411-16.35145669-26.0789506-16.3564651-11.1088096-.00500249-21.243998 6.33872105-26.0947886 16.3325923l-2.9903427 6.1601707c-4.2298749 8.7139004-12.5316027 14.7404-22.1276947 16.0613285l-6.7824037.9340607c-11.0051653 1.5159821-20.17621026 9.1868714-23.61411782 19.750415z" fill-rule="evenodd"/></svg>