<svg clip-rule="evenodd" fill-rule="evenodd" stroke-linejoin="round" stroke-miterlimit="2" viewBox="0 0 304 484" xmlns="http://www.w3.org/2000/svg" xmlns:xlink="http://www.w3.org/1999/xlink"><title>Illustrative stamp for Zurich</title><clipPath id="a"><path clip-rule="evenodd" d="m.071.178h302.976v483.048h-302.976z"/></clipPath><path d="m.071.178h302.976v483.048h-302.976z" fill="none"/>
<g><path d="m296.055 403.277v-179.501c0-.019 0-.038 0-.058.509-30.363-11.087-65.171-32.824-91.644-21.736-26.473-53.621-44.623-83.503-50.034-1.886-.341-3.14-2.15-2.798-4.036.341-1.886 2.15-3.14 4.036-2.799 31.352 5.678 64.827 24.685 87.634 52.461 22.798 27.767 34.926 64.286 34.401 96.137v229.818c0 1.918-1.555 3.473-3.473 3.473h-295.967c-1.918 0-3.473-1.555-3.473-3.473v-229.818c-.525-31.851 11.603-68.37 34.401-96.137 22.806-27.776 56.281-46.783 87.634-52.461 1.886-.341 3.695.913 4.036 2.799.342 1.886-.912 3.695-2.799 4.036-29.881 5.411-61.766 23.561-83.503 50.034-21.736 26.474-33.332 61.281-32.824 91.644.001.02.001.039.001.058v179.501h97.373v-160.196l-4.718-45.988c-.101-.977.218-1.952.877-2.681.658-.73 1.595-1.146 2.578-1.146h10.265l34.719-190.238c.301-1.651 1.739-2.85 3.417-2.85 1.677 0 3.115 1.199 3.416 2.85l34.719 190.238h10.265c.983 0 1.92.416 2.578 1.146.659.729.977 1.704.877 2.681l-4.718 45.988v160.196zm-148.397-358.988-27.928 153.029c-.005.032-.011.063-.017.095l-6.051 33.153c3.057-3.064 5.792-5.127 8.259-6.541 6.94-3.979 11.864-2.893 16.349-3.684 5.866-1.036 9.801-6.946 9.801-21.36h6.947c0 14.414 3.935 20.324 9.8 21.36 4.486.791 9.41-.295 16.35 3.684 2.466 1.414 5.202 3.478 8.259 6.542l-6.047-33.134c-.009-.045-.017-.09-.025-.135l-30.413-166.645-7.696 135.198c-.07 1.239-1.134 2.189-2.374 2.118-1.24-.07-2.189-1.134-2.118-2.374zm-69.167 399.112-5.498-8.992c-.272-.413-.58-.771-.923-1.073-.342-.301-.709-.552-1.099-.753.839-.32 1.581-.727 2.226-1.224.644-.497 1.185-1.061 1.622-1.694.438-.632.769-1.321.994-2.066.224-.745.337-1.537.337-2.376 0-1.1-.19-2.117-.568-3.051s-.984-1.744-1.818-2.429c-.833-.686-1.909-1.221-3.228-1.606-1.318-.384-2.911-.576-4.779-.576h-8.407v25.84h5.995v-9.559h1.525c.461 0 .816.074 1.064.222.248.147.473.381.674.7l4.292 7.502c.437.757 1.159 1.135 2.164 1.135zm-12.734-13.691h-2.412v-7.662h2.412c1.549 0 2.693.319 3.432.958.738.638 1.108 1.525 1.108 2.66 0 .568-.083 1.097-.248 1.587-.166.491-.432.92-.798 1.286-.367.367-.837.653-1.41.86-.574.207-1.268.311-2.084.311zm45.596-26.433h80.383v-159.239c-5.629-7.628-10.154-11.769-14.023-13.988-3.28-1.88-6.003-2.264-8.416-2.417-2.035-.129-3.898-.136-5.686-.452-4.652-.821-9.124-3.523-12.067-9.482-2.942 5.959-7.415 8.661-12.066 9.482-1.789.316-3.651.323-5.687.452-2.413.153-5.135.537-8.415 2.417-3.869 2.219-8.394 6.36-14.023 13.988zm21.05-50.026v-.017c-.3-3.428.976-8.003 3.365-12.484 3.464-6.496 9.179-12.767 14.367-15.07.898-.399 1.922-.399 2.819 0 5.188 2.303 10.902 8.574 14.366 15.07 2.393 4.486 3.669 9.068 3.366 12.484v31.021c0 1.918-1.555 3.473-3.473 3.473h-31.337c-1.919 0-3.473-1.555-3.473-3.473zm6.946-.183v27.714h24.391v-27.714c0-.124.007-.247.02-.37.255-2.379-.888-5.527-2.569-8.68-2.401-4.502-6.027-9.011-9.648-11.24-3.619 2.229-7.245 6.738-9.645 11.24-1.682 3.153-2.824 6.301-2.569 8.68.013.123.02.246.02.37zm-20.755-81.291v-.023c-.68-8.105 3.374-16.765 9.775-23.167 6.406-6.406 15.074-10.461 23.16-9.774 8.112-.69 16.783 3.366 23.19 9.774 6.406 6.406 10.462 15.073 9.774 23.16.69 8.112-3.366 16.782-9.774 23.19-6.406 6.406-15.073 10.461-23.159 9.774-8.112.69-16.783-3.366-23.191-9.774-6.399-6.4-10.452-15.056-9.775-23.16zm6.943.335c-.638 6.291 2.765 12.935 7.744 17.913 4.979 4.979 11.623 8.382 17.913 7.744.233-.023.468-.023.701 0 6.29.638 12.934-2.765 17.913-7.744 4.978-4.978 8.381-11.622 7.744-17.913-.024-.233-.024-.467 0-.7.637-6.291-2.766-12.935-7.744-17.913-4.979-4.979-11.623-8.382-17.913-7.744-.233.023-.468.023-.701 0-6.29-.638-12.934 2.765-17.913 7.744-4.979 4.978-8.382 11.622-7.744 17.913.024.233.024.467 0 .7zm22.534-20.888c0-1.917 1.557-3.473 3.474-3.473 1.916 0 3.473 1.556 3.473 3.473v17.065h17.064c1.917 0 3.473 1.556 3.473 3.473s-1.556 3.473-3.473 3.473h-20.537c-1.919 0-3.474-1.555-3.474-3.473zm-35.93-51.012h-5.15l1.853 18.063zm82.103 18.063 1.853-18.063h-5.149zm-56.731 199.286h-6.03v10.801h-10.499v-10.801h-6.03v25.84h6.03v-10.925h10.499v10.925h6.03zm-28.394 19.154c-.177 0-.349.038-.514.115-.166.077-.32.175-.461.293-.355.319-.704.582-1.047.789s-.709.373-1.099.497-.81.213-1.26.266c-.449.053-.945.08-1.489.08-.946 0-1.833-.184-2.661-.55-.827-.367-1.551-.902-2.172-1.605-.621-.704-1.111-1.57-1.472-2.598-.361-1.029-.541-2.206-.541-3.53 0-1.312.163-2.48.488-3.502.325-1.023.786-1.886 1.383-2.59.597-.703 1.307-1.238 2.128-1.605.822-.366 1.729-.55 2.723-.55.626 0 1.173.048 1.64.142.467.095.875.21 1.224.346s.65.284.904.444c.254.159.488.307.701.443s.414.251.603.346c.189.094.39.142.603.142.319 0 .567-.068.745-.204.177-.136.331-.287.461-.453l2.022-2.713c-.485-.497-1.041-.958-1.667-1.383-.627-.426-1.313-.79-2.058-1.091-.745-.302-1.546-.538-2.403-.709-.857-.172-1.77-.258-2.74-.258-1.904 0-3.647.325-5.232.976-1.584.65-2.944 1.56-4.079 2.731-1.135 1.17-2.016 2.563-2.642 4.177-.627 1.613-.94 3.384-.94 5.311 0 1.892.289 3.645.869 5.259.579 1.614 1.41 3.009 2.491 4.185 1.082 1.177 2.401 2.099 3.955 2.767 1.555.668 3.314 1.002 5.277 1.002 2.14 0 3.993-.346 5.56-1.038 1.566-.691 2.87-1.717 3.91-3.077l-2.376-2.5c-.13-.13-.266-.222-.408-.275s-.284-.08-.426-.08zm-22.417 6.686v-25.84h-6.03v25.84zm-45.136-4.735c-.804 0-1.522-.133-2.155-.399-.632-.266-1.167-.65-1.605-1.153-.437-.502-.771-1.111-1.002-1.827-.23-.715-.346-1.528-.346-2.438v-15.288h-5.994v15.305c0 1.585.254 3.039.763 4.363.508 1.325 1.241 2.465 2.199 3.423.957.958 2.122 1.703 3.494 2.235 1.371.532 2.92.798 4.646.798 1.715 0 3.257-.266 4.629-.798s2.536-1.277 3.494-2.235 1.694-2.098 2.208-3.423c.514-1.324.771-2.778.771-4.363v-15.305h-5.994v15.305c0 .911-.115 1.724-.346 2.439s-.565 1.321-1.002 1.818c-.437.496-.972.878-1.605 1.144s-1.351.399-2.155.399zm154.739 4.735-10.003-25.84h-6.136l-10.003 25.84h4.683c.496 0 .913-.133 1.25-.399s.57-.564.7-.896l1.526-4.504h9.825l1.525 4.504c.166.379.408.689.727.932.319.242.739.363 1.259.363zm-9.524-9.878h-7.076l2.376-7.041c.178-.449.367-.981.568-1.596s.39-1.283.567-2.004c.201.709.402 1.368.603 1.977s.391 1.138.568 1.587zm49.871-3.512v3.299c0 .307.107.561.319.762.213.201.509.302.887.302h2.554v3.919c-.556.237-1.126.426-1.711.568-.586.142-1.239.213-1.96.213-1.171 0-2.238-.192-3.201-.577-.964-.384-1.791-.943-2.483-1.676s-1.227-1.631-1.605-2.695c-.379-1.064-.568-2.282-.568-3.654 0-1.241.172-2.367.515-3.378.342-1.011.83-1.877 1.463-2.598.632-.722 1.398-1.28 2.296-1.676.899-.397 1.91-.595 3.033-.595.603 0 1.147.03 1.632.089s.946.154 1.383.284c.438.13.866.298 1.286.505s.866.453 1.339.736c.496.308.961.414 1.392.32.432-.095.783-.349 1.055-.763l1.738-2.643c-.52-.496-1.111-.957-1.773-1.383s-1.392-.792-2.19-1.099c-.798-.308-1.67-.55-2.616-.728-.946-.177-1.957-.266-3.033-.266-2.081 0-3.964.325-5.649.976-1.684.65-3.121 1.56-4.309 2.731-1.189 1.17-2.102 2.563-2.74 4.177-.639 1.613-.958 3.384-.958 5.311 0 1.892.337 3.645 1.011 5.259s1.631 3.009 2.873 4.185c1.241 1.177 2.734 2.099 4.478 2.767s3.68 1.002 5.808 1.002c1.632 0 3.196-.219 4.691-.656 1.496-.438 2.906-1.141 4.23-2.111v-10.907zm-28.199 8.655c-.803 0-1.522-.133-2.154-.399-.633-.266-1.168-.65-1.605-1.153-.438-.502-.772-1.111-1.002-1.827-.231-.715-.346-1.528-.346-2.438v-15.288h-5.995v15.305c0 1.585.255 3.039.763 4.363.508 1.325 1.241 2.465 2.199 3.423s2.122 1.703 3.494 2.235c1.371.532 2.92.798 4.646.798 1.715 0 3.258-.266 4.629-.798 1.372-.532 2.536-1.277 3.494-2.235s1.694-2.098 2.208-3.423c.514-1.324.772-2.778.772-4.363v-15.305h-5.995v15.305c0 .911-.115 1.724-.346 2.439-.23.715-.564 1.321-1.002 1.818-.437.496-.972.878-1.605 1.144-.632.266-1.351.399-2.155.399zm69.238-13.727 2.909.514c.745.118 1.318.071 1.72-.142.402-.212.727-.644.976-1.294.212-.639.6-1.174 1.161-1.605.562-.432 1.25-.648 2.066-.648 1.005 0 1.753.275 2.244.825.49.55.736 1.333.736 2.35 0 .496-.059.952-.178 1.365-.118.414-.357.766-.718 1.056-.36.289-.872.517-1.534.683-.662.165-1.531.248-2.607.248v3.795c1.277 0 2.273.086 2.988.257.716.172 1.251.417 1.605.736.355.32.571.701.648 1.144.077.444.115.943.115 1.499 0 .425-.077.845-.231 1.259-.153.414-.381.783-.682 1.108-.302.326-.68.592-1.135.799-.456.206-.991.31-1.605.31-.804 0-1.505-.222-2.102-.665-.597-.444-1.162-1.156-1.694-2.137-.236-.426-.626-.698-1.17-.816s-1.135-.053-1.774.195l-2.447.993c.414 1.206.901 2.247 1.463 3.122.562.874 1.215 1.593 1.96 2.154.745.562 1.596.976 2.554 1.242.957.266 2.051.399 3.281.399 1.194 0 2.341-.169 3.44-.506 1.1-.337 2.066-.842 2.9-1.516.833-.674 1.498-1.519 1.995-2.536s.745-2.211.745-3.583c0-2.896-1.431-4.847-4.292-5.852.615-.213 1.162-.476 1.64-.789.479-.314.881-.698 1.206-1.153.326-.455.571-.993.736-1.614.166-.621.249-1.339.249-2.155 0-.898-.178-1.753-.532-2.563-.355-.809-.875-1.522-1.561-2.137-.686-.614-1.525-1.102-2.518-1.463-.994-.36-2.129-.541-3.405-.541-1.183 0-2.288.157-3.317.47-1.029.314-1.942.79-2.74 1.428s-1.466 1.437-2.004 2.394c-.538.958-.902 2.081-1.091 3.37zm-250.189-5.214v-2.164h-19.331v4.611h11.705l-12.166 17.381c-.166.224-.296.47-.39.736-.095.266-.142.535-.142.807v2.305h19.934v-4.611h-12.308l12.131-17.327c.177-.26.316-.538.416-.834.101-.295.151-.597.151-.904zm245.365 18.71h-4.824c-.544 0-1.135.053-1.773.16-.639.106-1.283.26-1.933.461l5.054-5.179c.686-.697 1.333-1.386 1.942-2.066s1.144-1.383 1.605-2.11.825-1.493 1.091-2.297.399-1.679.399-2.625c0-1.099-.192-2.107-.576-3.024-.385-.916-.937-1.705-1.659-2.367-.721-.662-1.593-1.18-2.616-1.552-1.022-.372-2.172-.559-3.449-.559-1.182 0-2.288.157-3.317.47-1.028.314-1.941.79-2.74 1.428-.798.638-1.466 1.437-2.004 2.394-.538.958-.901 2.081-1.09 3.37l2.908.514c.745.118 1.319.071 1.721-.142.402-.212.727-.644.975-1.294.213-.639.6-1.174 1.162-1.605.561-.432 1.25-.648 2.066-.648 1.005 0 1.753.275 2.243.825.491.55.736 1.339.736 2.368 0 .626-.077 1.22-.23 1.782-.154.562-.385 1.123-.692 1.685-.307.561-.698 1.132-1.171 1.711-.472.58-1.028 1.189-1.667 1.827l-7.448 7.502c-.355.319-.603.674-.745 1.064s-.213.757-.213 1.1v1.773h18.161v-3.192c0-.532-.172-.961-.515-1.286s-.81-.488-1.401-.488zm-254.691 30.403c-.096.168-.198.29-.306.366s-.242.114-.402.114c-.168 0-.35-.062-.546-.186s-.43-.262-.702-.414-.59-.29-.954-.414-.794-.186-1.29-.186c-.448 0-.84.054-1.176.162s-.618.258-.846.45-.398.422-.51.69-.168.562-.168.882c0 .408.114.748.342 1.02s.53.504.906.696.804.364 1.284.516.972.314 1.476.486.996.372 1.476.6.908.516 1.284.864.678.774.906 1.278.342 1.116.342 1.836c0 .784-.134 1.518-.402 2.202s-.66 1.28-1.176 1.788-1.146.908-1.89 1.2-1.596.438-2.556.438c-.552 0-1.096-.054-1.632-.162s-1.05-.262-1.542-.462-.954-.44-1.386-.72-.816-.592-1.152-.936l.948-1.548c.08-.112.184-.206.312-.282s.264-.114.408-.114c.2 0 .416.082.648.246s.508.346.828.546.694.382 1.122.546.942.246 1.542.246c.92 0 1.632-.218 2.136-.654s.756-1.062.756-1.878c0-.456-.114-.828-.342-1.116s-.53-.53-.906-.726-.804-.362-1.284-.498-.968-.284-1.464-.444-.984-.352-1.464-.576-.908-.516-1.284-.876-.678-.81-.906-1.35-.342-1.206-.342-1.998c0-.632.126-1.248.378-1.848s.618-1.132 1.098-1.596 1.072-.836 1.776-1.116 1.512-.42 2.424-.42c1.024 0 1.968.16 2.832.48s1.6.768 2.208 1.344zm38.904-3.156-5.388 17.352h-2.916l-3.792-11.856c-.104-.288-.2-.64-.288-1.056-.048.2-.096.388-.144.564s-.1.34-.156.492l-3.828 11.856h-2.928l-5.376-17.352h2.7c.28 0 .514.066.702.198s.314.31.378.534l2.952 10.38c.064.256.126.534.186.834s.122.614.186.942c.064-.336.134-.652.21-.948s.158-.572.246-.828l3.408-10.38c.064-.184.19-.352.378-.504s.418-.228.69-.228h.948c.28 0 .508.068.684.204s.308.312.396.528l3.396 10.38c.168.496.32 1.068.456 1.716.104-.632.22-1.204.348-1.716l2.952-10.38c.048-.2.17-.372.366-.516s.43-.216.702-.216zm17.376 17.352h-3.24v-17.352h3.24zm27.996-14.7h-5.232v14.7h-3.228v-14.7h-5.232v-2.652h13.692zm26.232-1.464c0 .368-.104.704-.312 1.008l-8.904 12.576h9.012v2.58h-13.2v-1.272c0-.16.028-.314.084-.462s.128-.286.216-.414l8.928-12.636h-8.664v-2.568h12.84zm17.82 1.38v4.812h6.072v2.484h-6.072v4.908h7.704v2.58h-10.944v-17.352h10.944v2.568zm36.108 14.784h-2.916c-.552 0-.952-.216-1.2-.648l-3.648-5.556c-.136-.208-.286-.356-.45-.444s-.406-.132-.726-.132h-1.38v6.78h-3.228v-17.352h5.292c1.176 0 2.186.122 3.03.366s1.536.586 2.076 1.026.938.966 1.194 1.578.384 1.286.384 2.022c0 .584-.086 1.136-.258 1.656s-.42.992-.744 1.416-.724.796-1.2 1.116-1.018.572-1.626.756c.208.12.4.262.576.426s.336.358.48.582zm-8.304-9.096c.608 0 1.138-.076 1.59-.228s.824-.362 1.116-.63.51-.586.654-.954.216-.772.216-1.212c0-.88-.29-1.556-.87-2.028s-1.466-.708-2.658-.708h-2.064v5.76zm32.352 6.432v2.664h-10.164v-17.352h3.228v14.688zm29.172 2.664h-2.496c-.28 0-.508-.07-.684-.21s-.308-.314-.396-.522l-1.296-3.54h-7.188l-1.296 3.54c-.064.184-.188.352-.372.504s-.412.228-.684.228h-2.52l6.828-17.352h3.288zm-5.7-6.552-2.112-5.772c-.104-.256-.212-.56-.324-.912s-.224-.732-.336-1.14c-.104.408-.212.79-.324 1.146s-.22.666-.324.93l-2.1 5.748zm34.128-10.8v17.352h-1.656c-.256 0-.47-.042-.642-.126s-.338-.226-.498-.426l-9.06-11.568c.048.528.072 1.016.072 1.464v10.656h-2.844v-17.352h1.692c.136 0 .254.006.354.018s.188.036.264.072.15.088.222.156.152.158.24.27l9.096 11.616c-.024-.28-.044-.556-.06-.828s-.024-.524-.024-.756v-10.548zm31.272 8.676c0 1.272-.212 2.44-.636 3.504s-1.02 1.98-1.788 2.748-1.692 1.364-2.772 1.788-2.28.636-3.6.636h-6.612v-17.352h6.612c1.32 0 2.52.214 3.6.642s2.004 1.024 2.772 1.788 1.364 1.678 1.788 2.742.636 2.232.636 3.504zm-3.312 0c0-.952-.126-1.806-.378-2.562s-.616-1.396-1.092-1.92-1.052-.926-1.728-1.206-1.438-.42-2.286-.42h-3.372v12.216h3.372c.848 0 1.61-.14 2.286-.42s1.252-.682 1.728-1.206.84-1.164 1.092-1.92.378-1.61.378-2.562z" fill="#ff7a00"/></g></svg>