<svg clip-rule="evenodd" fill-rule="evenodd" stroke-linejoin="round" stroke-miterlimit="2" viewBox="0 0 426 441" xmlns="http://www.w3.org/2000/svg" xmlns:xlink="http://www.w3.org/1999/xlink"><title>Illustrative stamp for Schwangau with Neuschwanstein castle</title><clipPath id="a"><path clip-rule="evenodd" d="m.012.178h425.664v439.776h-425.664z"/></clipPath><path d="m.012.178h425.664v439.776h-425.664z" fill="none"/><g><path d="m236.146 76.164h-4.192c-.469 0-.848-.109-1.136-.328-.288-.218-.507-.498-.656-.84l-1.376-4.064h-8.864l-1.376 4.064c-.117.299-.328.568-.632.808s-.68.36-1.128.36h-4.224l9.024-23.312h5.536zm-8.592-8.912-2.16-6.384c-.16-.405-.331-.882-.512-1.432-.181-.549-.363-1.144-.544-1.784-.16.651-.331 1.254-.512 1.808-.181.555-.352 1.035-.512 1.44l-2.144 6.352zm19.552 4.64c.725 0 1.373-.12 1.944-.36s1.053-.584 1.448-1.032.696-.994.904-1.64c.208-.645.312-1.378.312-2.2v-13.808h5.408v13.808c0 1.43-.232 2.742-.696 3.936-.464 1.195-1.128 2.224-1.992 3.088s-1.915 1.536-3.152 2.016-2.629.72-4.176.72c-1.557 0-2.955-.24-4.192-.72s-2.288-1.152-3.152-2.016-1.525-1.893-1.984-3.088c-.459-1.194-.688-2.506-.688-3.936v-13.808h5.408v13.792c0 .822.104 1.555.312 2.2.208.646.509 1.195.904 1.648.395.454.877.8 1.448 1.04s1.219.36 1.944.36zm25.44-7.808h8.288v9.84c-1.195.875-2.467 1.51-3.816 1.904-1.349.395-2.76.592-4.232.592-1.92 0-3.667-.301-5.24-.904-1.573-.602-2.92-1.434-4.04-2.496-1.12-1.061-1.984-2.32-2.592-3.776s-.912-3.037-.912-4.744c0-1.738.288-3.336.864-4.792s1.4-2.712 2.472-3.768 2.368-1.877 3.888-2.464c1.52-.586 3.219-.88 5.096-.88.971 0 1.883.08 2.736.24s1.64.379 2.36.656c.72.278 1.379.608 1.976.992s1.131.8 1.6 1.248l-1.568 2.384c-.245.374-.563.603-.952.688-.389.086-.808-.01-1.256-.288-.427-.256-.829-.477-1.208-.664-.379-.186-.765-.338-1.16-.456-.395-.117-.811-.202-1.248-.256-.437-.053-.928-.08-1.472-.08-1.013 0-1.925.179-2.736.536-.811.358-1.501.862-2.072 1.512-.571.651-1.011 1.432-1.32 2.344s-.464 1.928-.464 3.048c0 1.238.171 2.336.512 3.296s.824 1.771 1.448 2.432c.624.662 1.371 1.166 2.24 1.512.869.347 1.832.52 2.888.52.651 0 1.24-.064 1.768-.192s1.043-.298 1.544-.512v-3.536h-2.304c-.341 0-.608-.09-.8-.272-.192-.181-.288-.41-.288-.688zm-6.49 35.585c.533 0 .955.147 1.264.44.309.294.464.68.464 1.16v2.88h-16.384v-1.6c0-.309.064-.64.192-.992s.352-.672.672-.96l6.72-6.768c.576-.576 1.077-1.125 1.504-1.648.427-.522.779-1.037 1.056-1.544.277-.506.485-1.013.624-1.52.139-.506.208-1.042.208-1.608 0-.928-.221-1.64-.664-2.136s-1.117-.744-2.024-.744c-.736 0-1.357.195-1.864.584-.507.39-.856.872-1.048 1.448-.224.587-.517.976-.88 1.168s-.88.235-1.552.128l-2.624-.464c.171-1.162.499-2.176.984-3.04s1.088-1.584 1.808-2.16 1.544-1.005 2.472-1.288c.928-.282 1.925-.424 2.992-.424 1.152 0 2.189.168 3.112.504s1.709.803 2.36 1.4c.651.598 1.149 1.31 1.496 2.136.347.827.52 1.736.52 2.728 0 .854-.12 1.643-.36 2.368-.24.726-.568 1.416-.984 2.072s-.899 1.291-1.448 1.904c-.549.614-1.133 1.235-1.752 1.864l-4.56 4.672c.587-.181 1.168-.32 1.744-.416s1.109-.144 1.6-.144zm20.864-7.184c0 2.038-.219 3.803-.656 5.296-.437 1.494-1.043 2.731-1.816 3.712-.773.982-1.691 1.712-2.752 2.192s-2.211.72-3.448.72-2.381-.24-3.432-.72-1.96-1.21-2.728-2.192c-.768-.981-1.368-2.218-1.8-3.712-.432-1.493-.648-3.258-.648-5.296 0-2.037.216-3.802.648-5.296.432-1.493 1.032-2.73 1.8-3.712.768-.981 1.677-1.709 2.728-2.184 1.051-.474 2.195-.712 3.432-.712s2.387.238 3.448.712c1.061.475 1.979 1.203 2.752 2.184.773.982 1.379 2.219 1.816 3.712.437 1.494.656 3.259.656 5.296zm-5.12 0c0-1.61-.101-2.93-.304-3.96-.203-1.029-.472-1.837-.808-2.424-.336-.586-.717-.989-1.144-1.208-.427-.218-.859-.328-1.296-.328s-.867.11-1.288.328c-.421.219-.795.622-1.12 1.208-.325.587-.587 1.395-.784 2.424-.197 1.03-.296 2.35-.296 3.96 0 1.622.099 2.944.296 3.968s.459 1.832.784 2.424.699.998 1.12 1.216c.421.219.851.328 1.288.328s.869-.109 1.296-.328c.427-.218.808-.624 1.144-1.216s.605-1.4.808-2.424.304-2.346.304-3.968zm21.376 7.184c.533 0 .955.147 1.264.44.309.294.464.68.464 1.16v2.88h-16.384v-1.6c0-.309.064-.64.192-.992s.352-.672.672-.96l6.72-6.768c.576-.576 1.077-1.125 1.504-1.648.427-.522.779-1.037 1.056-1.544.277-.506.485-1.013.624-1.52.139-.506.208-1.042.208-1.608 0-.928-.221-1.64-.664-2.136s-1.117-.744-2.024-.744c-.736 0-1.357.195-1.864.584-.507.39-.856.872-1.048 1.448-.224.587-.517.976-.88 1.168s-.88.235-1.552.128l-2.624-.464c.171-1.162.499-2.176.984-3.04s1.088-1.584 1.808-2.16 1.544-1.005 2.472-1.288c.928-.282 1.925-.424 2.992-.424 1.152 0 2.189.168 3.112.504s1.709.803 2.36 1.4c.651.598 1.149 1.31 1.496 2.136.347.827.52 1.736.52 2.728 0 .854-.12 1.643-.36 2.368-.24.726-.568 1.416-.984 2.072s-.899 1.291-1.448 1.904c-.549.614-1.133 1.235-1.752 1.864l-4.56 4.672c.587-.181 1.168-.32 1.744-.416s1.109-.144 1.6-.144zm4.352-12.176c.171-1.162.499-2.176.984-3.04s1.088-1.584 1.808-2.16 1.544-1.005 2.472-1.288c.928-.282 1.925-.424 2.992-.424 1.152 0 2.176.163 3.072.488.896.326 1.653.766 2.272 1.32.619.555 1.088 1.198 1.408 1.928.32.731.48 1.502.48 2.312 0 .736-.075 1.384-.224 1.944s-.371 1.046-.664 1.456c-.293.411-.656.758-1.088 1.04-.432.283-.925.52-1.48.712 2.581.907 3.872 2.667 3.872 5.28 0 1.238-.224 2.315-.672 3.232-.448.918-1.048 1.68-1.8 2.288s-1.624 1.064-2.616 1.368-2.027.456-3.104.456c-1.109 0-2.096-.12-2.96-.36s-1.632-.613-2.304-1.12c-.672-.506-1.261-1.154-1.768-1.944-.507-.789-.947-1.728-1.32-2.816l2.208-.896c.576-.224 1.109-.282 1.6-.176.491.107.843.352 1.056.736.48.886.989 1.528 1.528 1.928s1.171.6 1.896.6c.555 0 1.037-.093 1.448-.28.411-.186.752-.426 1.024-.72.272-.293.477-.626.616-1 .139-.373.208-.752.208-1.136 0-.501-.035-.952-.104-1.352s-.264-.744-.584-1.032-.803-.509-1.448-.664c-.645-.154-1.544-.232-2.696-.232v-3.424c.971 0 1.755-.074 2.352-.224.597-.149 1.059-.354 1.384-.616.325-.261.541-.578.648-.952.107-.373.16-.784.16-1.232 0-.917-.221-1.624-.664-2.12s-1.117-.744-2.024-.744c-.736 0-1.357.195-1.864.584-.507.39-.856.872-1.048 1.448-.224.587-.517.976-.88 1.168s-.88.235-1.552.128zm-201.97 266.484c-.19.304-.389.532-.598.684s-.479.228-.808.228c-.291 0-.605-.092-.94-.275-.336-.184-.716-.39-1.14-.618-.425-.228-.909-.434-1.454-.617-.545-.184-1.165-.276-1.862-.276-1.203 0-2.099.257-2.688.77s-.884 1.206-.884 2.08c0 .558.177 1.02.532 1.387.355.368.82.684 1.397.95.576.266 1.235.51 1.976.732.741.221 1.497.468 2.27.741.773.272 1.53.592 2.271.959.741.368 1.399.836 1.976 1.406.576.57 1.041 1.264 1.396 2.081s.532 1.802.532 2.954c0 1.28-.222 2.477-.665 3.591-.443 1.115-1.086 2.087-1.928 2.917-.843.829-1.881 1.482-3.116 1.957s-2.638.712-4.209.712c-.861 0-1.738-.088-2.631-.266-.893-.177-1.758-.427-2.594-.75s-1.621-.706-2.356-1.15c-.735-.443-1.374-.937-1.919-1.482l1.9-3.002c.152-.215.352-.396.599-.541.247-.146.516-.219.807-.219.38 0 .763.121 1.15.361.386.241.823.507 1.311.798.487.292 1.048.558 1.681.798.633.241 1.381.361 2.242.361 1.165 0 2.071-.256 2.717-.769s.969-1.327.969-2.442c0-.646-.177-1.171-.532-1.577-.355-.405-.82-.741-1.396-1.007-.577-.266-1.232-.5-1.967-.703-.735-.202-1.488-.427-2.261-.674s-1.526-.551-2.261-.912-1.39-.836-1.966-1.425c-.577-.589-1.042-1.324-1.397-2.204-.355-.881-.532-1.967-.532-3.259 0-1.038.209-2.052.627-3.04s1.032-1.868 1.843-2.641c.811-.772 1.805-1.39 2.983-1.852 1.178-.463 2.527-.694 4.047-.694.849 0 1.675.067 2.48.2.804.133 1.567.329 2.289.589.722.259 1.397.57 2.024.931s1.187.769 1.681 1.225zm24.415 14.896c.152 0 .304.029.456.086s.298.155.437.294l2.546 2.679c-1.115 1.457-2.511 2.556-4.189 3.297-1.679.741-3.664 1.111-5.957 1.111-2.103 0-3.987-.358-5.652-1.073-1.666-.716-3.078-1.704-4.237-2.964-1.159-1.261-2.049-2.755-2.67-4.484s-.931-3.607-.931-5.634c0-2.064.336-3.961 1.007-5.69s1.615-3.221 2.831-4.475 2.673-2.229 4.37-2.926c1.697-.696 3.566-1.045 5.605-1.045 1.039 0 2.017.092 2.936.276.918.183 1.776.437 2.574.76s1.533.712 2.204 1.168 1.267.95 1.786 1.482l-2.166 2.907c-.139.178-.304.339-.494.485-.19.145-.456.218-.798.218-.228 0-.443-.05-.646-.152-.203-.101-.418-.225-.646-.37-.228-.146-.478-.304-.75-.475-.273-.171-.596-.33-.969-.475-.374-.146-.811-.269-1.311-.371-.501-.101-1.087-.152-1.758-.152-1.064 0-2.036.197-2.916.589-.881.393-1.641.966-2.28 1.72-.64.753-1.134 1.678-1.482 2.774-.349 1.095-.523 2.346-.523 3.752 0 1.419.193 2.679.58 3.781.386 1.102.912 2.03 1.577 2.784.665.753 1.44 1.327 2.327 1.719.887.393 1.837.589 2.85.589.583 0 1.115-.028 1.596-.085s.931-.152 1.349-.285.811-.311 1.178-.532c.367-.222.741-.504 1.121-.846.152-.126.317-.231.494-.313.177-.083.361-.124.551-.124zm30.419-20.52v27.683h-6.46v-11.704h-11.248v11.704h-6.46v-27.683h6.46v11.571h11.248v-11.571zm43.073 0-8.55 27.683h-5.814l-5.206-17.157c-.101-.266-.196-.56-.285-.883s-.177-.662-.266-1.017c-.089.355-.177.694-.266 1.017s-.184.617-.285.883l-5.282 17.157h-5.814l-8.55-27.683h5.396c.557 0 1.023.127 1.397.38.373.254.617.589.731 1.007l3.8 14.44c.114.456.228.953.342 1.492.114.538.228 1.099.342 1.681.228-1.19.507-2.248.836-3.173l4.484-14.44c.114-.354.358-.674.732-.959.373-.285.826-.428 1.358-.428h1.9c.557 0 1.007.13 1.349.39.342.259.602.592.779.997l4.446 14.44c.329.887.608 1.894.836 3.021.101-.57.206-1.105.314-1.605.107-.501.218-.972.332-1.416l3.8-14.44c.101-.367.342-.69.722-.969.38-.278.836-.418 1.368-.418zm25.612 27.683h-4.978c-.557 0-1.007-.13-1.349-.389-.342-.26-.602-.592-.779-.998l-1.634-4.826h-10.526l-1.634 4.826c-.139.355-.389.675-.75.96s-.808.427-1.34.427h-5.016l10.716-27.683h6.574zm-10.203-10.583-2.565-7.581c-.19-.481-.393-1.048-.608-1.7-.215-.653-.431-1.359-.646-2.119-.19.773-.393 1.489-.608 2.147-.215.659-.418 1.229-.608 1.71l-2.546 7.543zm36.556-17.1v27.683h-3.344c-.494 0-.909-.079-1.244-.237-.336-.159-.669-.434-.998-.827l-13.053-16.511c.051.494.086.972.105 1.435.019.462.028.896.028 1.301v14.839h-5.662v-27.683h3.382c.279 0 .513.013.703.038.19.026.361.073.513.143.152.069.298.168.437.294.139.127.298.298.475.513l13.167 16.625c-.063-.532-.108-1.048-.133-1.548-.025-.501-.038-.972-.038-1.416v-14.649zm18.658 13.338h9.842v11.685c-1.419 1.039-2.929 1.793-4.531 2.261-1.603.469-3.278.703-5.026.703-2.28 0-4.354-.358-6.222-1.073-1.869-.716-3.468-1.704-4.798-2.964-1.33-1.261-2.356-2.755-3.078-4.484s-1.083-3.607-1.083-5.634c0-2.064.342-3.961 1.026-5.69s1.663-3.221 2.936-4.475 2.812-2.229 4.617-2.926c1.805-.696 3.822-1.045 6.051-1.045 1.153 0 2.236.095 3.249.285s1.948.45 2.803.779c.855.33 1.637.722 2.346 1.178s1.343.95 1.9 1.482l-1.862 2.831c-.291.444-.668.716-1.13.817-.463.102-.96-.012-1.492-.342-.507-.304-.985-.567-1.434-.788-.45-.222-.909-.402-1.378-.542-.469-.139-.963-.24-1.482-.304-.519-.063-1.102-.095-1.748-.095-1.203 0-2.286.212-3.249.637-.963.424-1.783 1.023-2.46 1.795-.678.773-1.201 1.701-1.568 2.784s-.551 2.289-.551 3.619c0 1.47.203 2.774.608 3.914s.979 2.103 1.72 2.888c.741.786 1.627 1.384 2.66 1.796 1.032.411 2.175.617 3.429.617.773 0 1.473-.076 2.1-.228s1.238-.354 1.833-.608v-4.199h-2.736c-.405 0-.722-.107-.95-.323-.228-.215-.342-.487-.342-.817zm38.57 14.345h-4.978c-.557 0-1.007-.13-1.349-.389-.342-.26-.602-.592-.779-.998l-1.634-4.826h-10.526l-1.634 4.826c-.139.355-.389.675-.75.96s-.808.427-1.34.427h-5.016l10.716-27.683h6.574zm-10.203-10.583-2.565-7.581c-.19-.481-.393-1.048-.608-1.7-.215-.653-.431-1.359-.646-2.119-.19.773-.393 1.489-.608 2.147-.215.659-.418 1.229-.608 1.71l-2.546 7.543zm23.218 5.51c.861 0 1.631-.142 2.309-.427.677-.285 1.25-.694 1.719-1.226s.827-1.181 1.074-1.947c.247-.767.37-1.637.37-2.613v-16.397h6.422v16.397c0 1.698-.275 3.256-.826 4.674-.551 1.419-1.34 2.641-2.366 3.667s-2.274 1.824-3.743 2.394-3.122.855-4.959.855c-1.849 0-3.509-.285-4.978-.855s-2.717-1.368-3.743-2.394-1.811-2.248-2.356-3.667c-.545-1.418-.817-2.976-.817-4.674v-16.397h6.422v16.378c0 .976.124 1.846.371 2.613.247.766.604 1.418 1.073 1.957.469.538 1.042.95 1.72 1.235.677.285 1.447.427 2.308.427zm-166.703 21.117h5.698v6.765c-.821.601-1.696 1.038-2.623 1.309-.928.271-1.898.407-2.91.407-1.32 0-2.521-.207-3.602-.622-1.082-.414-2.008-.986-2.778-1.716-.77-.729-1.364-1.595-1.782-2.596s-.627-2.088-.627-3.261c0-1.195.198-2.294.594-3.295s.963-1.864 1.7-2.59 1.628-1.291 2.673-1.694 2.212-.605 3.503-.605c.667 0 1.294.055 1.881.165s1.128.26 1.623.451.947.418 1.358.682.777.55 1.1.858l-1.078 1.639c-.169.257-.387.414-.654.473-.268.059-.556-.007-.864-.198-.293-.176-.57-.328-.83-.457-.261-.128-.527-.232-.798-.313s-.557-.139-.858-.176-.638-.055-1.012-.055c-.697 0-1.324.123-1.881.368-.557.246-1.032.593-1.424 1.04-.393.447-.695.984-.908 1.611s-.319 1.326-.319 2.096c0 .851.117 1.606.352 2.266s.567 1.217.996 1.672.942.801 1.54 1.039c.597.239 1.259.358 1.985.358.447 0 .853-.044 1.216-.132s.716-.205 1.061-.352v-2.431h-1.584c-.235 0-.418-.062-.55-.187s-.198-.282-.198-.473zm14.135-4.862v3.74h5.038v2.75h-5.038v3.817h6.578v2.86h-10.318v-16.027h10.318v2.86zm24.178 13.167h-3.366c-.623 0-1.071-.235-1.342-.704l-2.662-4.653c-.125-.198-.264-.343-.418-.435-.154-.091-.374-.137-.66-.137h-.946v5.929h-3.718v-16.027h5.214c1.159 0 2.147.119 2.965.357.817.239 1.485.571 2.002.996s.892.928 1.127 1.507.352 1.21.352 1.892c0 .521-.07 1.012-.209 1.474s-.345.889-.616 1.281c-.271.393-.607.743-1.006 1.051-.4.308-.86.561-1.381.759.242.125.469.28.682.467s.403.409.572.666zm-7.898-8.492c.506 0 .937-.064 1.293-.193.355-.128.647-.306.874-.533s.392-.493.495-.798c.103-.304.154-.632.154-.984 0-.704-.229-1.254-.687-1.65-.459-.396-1.168-.594-2.129-.594h-1.496v4.752zm29.469-7.535v16.027h-3.278v-9.218c0-.213.006-.444.017-.693s.031-.502.06-.759l-4.257 8.239c-.132.257-.31.451-.533.583-.224.132-.479.198-.765.198h-.506c-.286 0-.541-.066-.764-.198-.224-.132-.402-.326-.534-.583l-4.257-8.261c.022.264.04.522.055.775s.022.486.022.699v9.218h-3.278v-16.027h2.838c.161 0 .303.004.424.011s.229.029.324.066.182.093.259.17.152.186.225.325l4.125 8.129c.147.279.288.568.424.869.135.301.265.609.39.924.125-.323.255-.638.391-.946.135-.308.28-.601.434-.88l4.114-8.096c.073-.139.149-.248.226-.325s.163-.133.258-.17.204-.059.325-.066.262-.011.423-.011zm19.679 16.027h-2.882c-.323 0-.583-.075-.781-.226-.198-.15-.348-.342-.451-.577l-.946-2.794h-6.094l-.946 2.794c-.081.205-.225.39-.434.555s-.468.248-.776.248h-2.904l6.204-16.027h3.806zm-5.907-6.127-1.485-4.389c-.11-.279-.227-.607-.352-.985-.125-.377-.249-.786-.374-1.226-.11.447-.227.862-.352 1.243s-.242.711-.352.99l-1.474 4.367zm23.364-9.9v16.027h-1.936c-.286 0-.526-.046-.72-.138-.195-.091-.387-.251-.578-.478l-7.557-9.559c.029.286.05.563.061.83.011.268.016.519.016.754v8.591h-3.278v-16.027h1.958c.161 0 .297.007.407.022s.209.042.297.082c.088.041.172.098.253.171s.172.172.275.297l7.623 9.625c-.037-.308-.062-.607-.077-.897-.015-.289-.022-.562-.022-.819v-8.481zm12.98 9.933v6.094h-3.718v-6.094l-5.808-9.933h3.278c.323 0 .578.075.765.225.187.151.342.343.467.578l2.266 4.664c.191.367.363.709.517 1.028s.29.633.407.941c.11-.315.237-.633.38-.952s.309-.658.5-1.017l2.244-4.664c.051-.095.114-.191.187-.286s.16-.182.259-.259.212-.139.341-.187c.128-.047.269-.071.423-.071h3.3zm-187.354-334.69c1.286-1.003 3.144-.774 4.148.512 1.003 1.286.773 3.144-.512 4.147-6.558 5.117-12.828 10.64-18.725 16.536-20.164 20.164-35.96 44.696-46.078 70.152-10.118 25.452-14.558 51.828-14.527 76.162v.004c-.027 21.006 3.28 43.536 10.694 65.679.518 1.547-.318 3.223-1.864 3.74-1.547.518-3.223-.317-3.74-1.863-7.626-22.777-11.027-45.95-11-67.556-.032-25.031 4.537-52.165 14.945-78.349 10.407-26.18 26.653-51.41 47.391-72.148 6.068-6.068 12.52-11.751 19.268-17.016zm-47.373 283.147c-.886-1.369-.494-3.2.875-4.086s3.2-.494 4.086.875c7.85 12.13 17.016 23.58 27.323 33.888 20.164 20.164 44.697 35.959 70.152 46.078 25.452 10.118 51.83 14.558 76.164 14.527 24.331.031 50.709-4.409 76.161-14.527 25.455-10.119 49.988-25.914 70.152-46.078 11.524-11.524 21.62-24.476 30.046-38.21.853-1.39 2.674-1.826 4.064-.973 1.39.852 1.827 2.673.974 4.064-8.667 14.126-19.053 27.445-30.905 39.297-20.738 20.738-45.968 36.985-72.148 47.392-26.183 10.408-53.316 14.976-78.345 14.945-25.03.031-52.163-4.537-78.346-14.945-26.18-10.407-51.41-26.654-72.148-47.392-10.602-10.602-20.031-22.378-28.105-34.855zm383.804-59.154c-.433 1.572-2.06 2.498-3.633 2.066-1.572-.433-2.498-2.06-2.066-3.633 5.124-18.635 7.436-37.295 7.413-54.917v-.003c.031-24.331-4.409-50.707-14.527-76.159-10.118-25.456-25.914-49.988-46.078-70.152s-44.697-35.96-70.152-46.079c-25.452-10.117-51.83-14.557-76.164-14.526-13.928-.018-28.528 1.43-43.238 4.568-1.595.341-3.167-.678-3.507-2.273s.678-3.166 2.273-3.506c15.132-3.229 30.147-4.717 44.473-4.699 25.03-.032 52.163 4.537 78.346 14.945 26.18 10.406 51.409 26.653 72.148 47.391 20.738 20.738 36.985 45.968 47.391 72.148 10.408 26.183 14.977 53.317 14.945 78.347.023 18.121-2.354 37.315-7.624 56.482zm-45.71-27.804c1.772-2.95 3.032-6.152 3.777-9.606.077-.421.326-.836.688-1.128.355-.287.802-.443 1.222-.437.019.001.039.001.058.001.405.006.832.161 1.172.436.364.294.615.712.69 1.136l.006.028c2.018 9.307 7.776 16.773 17.228 22.435.364.204.671.562.834.985.162.421.175.89.048 1.272-.114.396-.385.773-.751 1.028-.374.262-.833.387-1.247.351-4.126-.225-7.597-.903-10.416-2.012 4.554 6.078 10.285 11.421 17.189 16.035.362.227.656.61.795 1.053.136.434.117.907-.042 1.295-.007.017-.014.035-.021.052-.154.375-.453.716-.833.932-.406.232-.887.312-1.301.23-5.418-.877-10.028-2.119-13.835-3.714 6.837 7.229 15.431 13.769 25.775 19.627.387.202.715.576.883 1.022.165.438.169.925.021 1.329-.134.409-.439.79-.84 1.032-.412.247-.904.338-1.316.257-8.83-1.36-16.134-3.392-21.917-6.079 8.461 10.849 18.505 19.986 30.13 27.415.55.351.711 1.083.36 1.632-.352.55-1.083.711-1.633.36-12.344-7.888-22.94-17.668-31.786-29.338-.267-.33-.419-.785-.408-1.246.012-.451.179-.888.45-1.203.012-.014.024-.028.036-.043.263-.304.65-.532 1.076-.619.453-.092.93-.021 1.323.196 5.357 2.726 12.203 4.799 20.532 6.232-10.407-6.106-19-12.924-25.786-20.447-.301-.312-.493-.766-.514-1.239-.021-.463.124-.924.386-1.26.013-.017.026-.034.039-.05.252-.322.635-.569 1.064-.673.462-.112.954-.053 1.354.158 3.545 1.711 7.933 3.042 13.159 4.003-6.913-4.847-12.627-10.442-17.143-16.78-.252-.332-.391-.782-.372-1.233.019-.448.191-.881.458-1.181.259-.317.654-.555 1.088-.647.443-.094.909-.032 1.294.17 2.453 1.182 5.539 1.928 9.253 2.258-8.717-5.589-14.217-12.76-16.536-21.487-2.318 8.727-7.819 15.898-16.536 21.487 3.725-.331 6.818-1.08 9.275-2.269.368-.191.832-.252 1.273-.159.439.093.837.335 1.088.648.27.308.439.737.457 1.18.019.453-.12.904-.371 1.233-4.439 6.229-10.033 11.74-16.786 16.529 1.441 1.72 2.983 3.354 4.624 4.902.352.312.604.778.685 1.282.08.5-.012 1.019-.238 1.412-.215.411-.596.766-1.054.97-.469.208-1.001.249-1.452.124-2.691-.657-5.081-1.504-7.171-2.533 5.055 7.157 11.462 13.58 19.216 19.275.598.439.727 1.282.288 1.88-.44.598-1.282.727-1.881.288-8.58-6.301-15.555-13.473-20.933-21.51-.281-.393-.423-.921-.379-1.444.043-.512.262-.998.592-1.337.015-.015.03-.03.045-.046.319-.329.775-.561 1.265-.63.522-.073 1.059.04 1.49.313 1.838 1.078 3.976 1.969 6.411 2.678-4.275-4.272-7.858-9.14-10.749-14.606-.439-.794-.248-2.025.398-2.636.639-.641 1.868-.807 2.65-.355l.042.023c1.179.636 2.55 1.089 4.11 1.367-5.078-4.68-8.502-10.482-10.266-17.412-1.764 6.93-5.188 12.732-10.266 17.412 1.583-.282 2.972-.744 4.163-1.396.783-.445 2.003-.278 2.639.36.018.018.035.036.053.054.607.644.77 1.826.345 2.583-2.891 5.466-6.474 10.334-10.749 14.606 2.448-.713 4.596-1.609 6.441-2.695.407-.257.941-.369 1.46-.296.508.072.981.318 1.301.667.015.016.029.031.043.047.31.337.516.806.558 1.299.044.525-.1 1.056-.365 1.422-3.718 5.562-8.203 10.71-13.454 15.443.682.724 1.387 1.429 2.114 2.114.309.275.53.684.601 1.126.071.439-.011.895-.209 1.241-.189.361-.524.673-.927.852-.412.183-.879.219-1.275.109-2.365-.578-4.464-1.321-6.301-2.225 4.441 6.288 10.071 11.933 16.885 16.936.525.386.639 1.127.253 1.652-.386.526-1.127.64-1.653.253-7.539-5.536-13.669-11.838-18.394-18.901-.246-.345-.371-.809-.333-1.268.038-.45.231-.877.521-1.176.013-.013.026-.026.039-.04.281-.288.682-.492 1.112-.553.458-.065.93.035 1.309.275 1.615.948 3.493 1.73 5.633 2.353-3.756-3.754-6.904-8.031-9.445-12.833-.386-.698-.218-1.782.35-2.318.561-.563 1.641-.709 2.328-.311l.037.02c1.036.559 2.241.956 3.612 1.201-4.462-4.112-7.471-9.211-9.021-15.3-1.551 6.09-4.56 11.189-9.022 15.301 1.379-.244 2.591-.639 3.629-1.192.691-.4 1.778-.256 2.327.301.578.553.743 1.639.356 2.326-2.538 4.792-5.682 9.06-9.431 12.808 2.109-.61 3.972-1.365 5.585-2.27.353-.225.813-.327 1.263-.272.453.056.876.27 1.164.577l.039.042c.277.295.462.709.501 1.145.041.467-.086.939-.323 1.263-3.512 5.234-7.797 10.049-12.856 14.445 2.854 2.88 6.017 5.593 9.485 8.14.526.387.64 1.127.253 1.653-.386.526-1.126.639-1.652.253-7.539-5.537-13.669-11.839-18.394-18.901-.247-.346-.372-.809-.333-1.269.038-.45.231-.877.521-1.175.012-.013.025-.026.038-.04.281-.289.682-.493 1.112-.553.459-.065.931.035 1.309.275 1.616.947 3.494 1.73 5.633 2.353-3.755-3.754-6.904-8.032-9.444-12.834-.384-.693-.221-1.766.349-2.318.016-.015.033-.03.049-.046.573-.524 1.612-.652 2.279-.265l.038.02c1.036.559 2.241.957 3.611 1.202-4.462-4.113-7.471-9.212-9.021-15.301-1.55 6.089-4.558 11.188-9.02 15.301 1.391-.249 2.611-.655 3.658-1.228.687-.39 1.759-.244 2.318.317.016.016.031.032.047.048.534.565.677 1.604.303 2.27-2.54 4.802-5.689 9.08-9.445 12.834 2.151-.627 4.038-1.415 5.66-2.369.358-.226.827-.324 1.282-.259.447.063.862.279 1.144.585.012.014.025.027.037.041.273.296.454.708.491 1.142.039.462-.088.928-.32 1.249-2.626 3.928-5.686 7.62-9.181 11.076 2.282 2.451 4.697 4.815 7.243 7.092.541.485.588 1.318.103 1.86-.484.542-1.318.588-1.859.104-9.665-8.643-17.473-18.511-23.427-29.603-.214-.371-.324-.87-.283-1.36.042-.504.241-.979.504-1.286.665-.85 2.032-.986 2.826-.32l.03.022c2.426 1.87 5.365 3.351 8.811 4.454-5.31-6.175-9.692-13.327-13.141-21.457-.171-.376-.238-.855-.172-1.314.068-.476.278-.915.552-1.215.008-.01.017-.019.025-.028.678-.753 1.938-.856 2.703-.244l.028.02c1.647 1.217 3.668 2 6.054 2.373-6.236-6.531-10.358-14.814-12.342-24.861-1.984 10.047-6.106 18.33-12.341 24.861 2.406-.377 4.44-1.17 6.095-2.403.777-.609 2.051-.492 2.717.284.015.018.03.035.045.053.25.297.44.712.505 1.16.066.46-.001.941-.172 1.314-3.449 8.13-7.831 15.282-13.142 21.457 3.466-1.109 6.418-2.6 8.849-4.483.801-.662 2.174-.518 2.819.327.269.323.463.79.504 1.286.041.493-.071.995-.283 1.36-5.954 11.092-13.763 20.96-23.427 29.603-.542.484-1.375.438-1.86-.104-.484-.542-.438-1.375.104-1.86 8.958-8.011 16.283-17.1 21.975-27.267-2.675 1.734-5.829 3.111-9.466 4.121-.864.255-2.035-.264-2.432-1.223-.008-.019-.016-.038-.024-.058-.15-.365-.207-.813-.145-1.245.07-.492.29-.943.593-1.264 2.024-2.275 3.914-4.692 5.668-7.251-4.137-3.281-7.183-6.527-9.039-9.79-.517-.909-.205-1.775-.205-1.775l.87-1.351.878-.407.633-.148 2.251-.016c-4.67-4.154-8.056-9.425-10.145-15.82-2.494 7.631-6.83 13.661-12.995 18.102-.511.368-1.201.368-1.713 0-6.164-4.441-10.501-10.471-12.994-18.102-2.493 7.631-6.83 13.661-12.994 18.102-.425.306-.982.362-1.459.147-7.352-3.316-12.352-7.841-14.741-13.637-.365-.885.023-1.739.023-1.739l.982-1.216.887-.318.702-.084 5.484.685c-7.195-5.446-12.252-11.393-15.204-17.813-2.952 6.42-8.01 12.367-15.204 17.813l5.483-.685c1.011-.119 1.547.235 1.547.235.523.187.977 1.034 1.025 1.383l.127.934c.045.329-.009.597-.118.813l.013-.008c-2.498 5.75-7.389 10.321-14.74 13.637-.383.172-.822.172-1.205 0-4.863-2.194-8.449-5.062-9.995-8.904-.208-.517-.14-.811-.14-.811l.094-.95.958-1.261.891-.341.749-.094 1.567.214c-4.007-3.247-6.949-6.744-8.844-10.475-1.895 3.731-4.836 7.228-8.844 10.475l1.567-.214c1.186-.155 1.741.279 1.741.279.536.205.823 1.06.858 1.417l.093.95c.033.336-.033.604-.152.818l.013-.007c-1.82 3.72-5.132 6.71-9.995 8.904-.383.172-.822.172-1.205 0-7.352-3.316-12.615-7.739-14.741-13.637-.142-.395-.105-.805-.105-.805l.128-.934.982-1.216.887-.318.703-.084 5.483.685c-7.195-5.446-12.252-11.393-15.204-17.813-2.952 6.42-8.009 12.367-15.204 17.813l5.483-.685c1.666-.162 2.524 1.269 2.572 1.618l.127.934c.045.329-.009.597-.118.813l.013-.008c-2.288 5.267-6.584 9.544-12.939 12.774 2.035 1.861 4.243 3.613 6.624 5.258.402.26.726.696.875 1.196.145.49.117 1.02-.068 1.453-.008.02-.017.04-.025.06-.178.418-.519.795-.949 1.033-.46.254-1.001.338-1.443.243-3.489-.614-6.563-1.417-9.224-2.401 5.295 5.371 11.773 10.276 19.431 14.721.433.233.797.657.981 1.161.183.501.179 1.058.009 1.494-.155.459-.503.883-.957 1.15-.466.274-1.021.37-1.497.272-6.281-1.043-11.61-2.506-15.988-4.379 6.892 8.615 15.004 15.908 24.335 21.881.617.395.798 1.217.402 1.835-.395.618-1.217.798-1.835.403-10.112-6.474-18.829-14.458-26.15-23.953-.3-.366-.476-.872-.47-1.387.006-.512.19-1.01.485-1.357.288-.368.733-.647 1.226-.759.504-.113 1.039-.046 1.487.188 3.931 1.882 8.76 3.368 14.485 4.468-7.669-4.672-14.116-9.824-19.346-15.452-.34-.344-.563-.846-.598-1.372-.033-.515.115-1.031.397-1.414.013-.018.027-.036.04-.054.272-.369.692-.659 1.169-.79.51-.141 1.061-.093 1.524.13 2.409 1.058 5.241 1.924 8.495 2.603-5.023-3.7-9.256-7.894-12.701-12.579-.553-.723-.531-1.986.036-2.674.556-.72 1.776-1.027 2.63-.641 1.583.665 3.451 1.133 5.602 1.412-6.355-4.376-10.522-9.831-12.531-16.342-2.009 6.509-6.174 11.962-12.526 16.338 2.166-.281 4.046-.753 5.636-1.425.833-.37 2.055-.055 2.591.657.569.709.585 1.967.035 2.674-3.444 4.686-7.677 8.88-12.701 12.58 3.269-.682 6.113-1.554 8.529-2.618.436-.209.983-.255 1.49-.115.498.137.937.447 1.206.84.013.018.025.036.038.054.258.378.394.871.362 1.364-.035.53-.26 1.034-.586 1.358-5.231 5.634-11.683 10.791-19.358 15.466 5.742-1.103 10.582-2.594 14.519-4.485.42-.218.952-.284 1.453-.171.491.111.934.389 1.221.754l.039.048c.278.354.445.828.451 1.314.006.517-.171 1.026-.47 1.387-7.321 9.495-16.038 17.479-26.15 23.953-.617.395-1.44.215-1.835-.403s-.215-1.44.403-1.835c9.33-5.973 17.443-13.266 24.335-21.881-4.379 1.873-9.707 3.336-15.989 4.379-.482.097-1.034.001-1.498-.272-.459-.271-.81-.703-.955-1.149-.171-.452-.173-1 .008-1.495.185-.507.553-.934 1.005-1.175 7.647-4.441 14.118-9.341 19.407-14.707-2.656.982-5.722 1.783-9.201 2.397-.471.098-1.009.014-1.466-.239-.448-.247-.799-.646-.971-1.085-.008-.02-.015-.04-.023-.059-.166-.424-.187-.931-.048-1.402.15-.503.477-.942.909-1.219 5.04-3.486 9.304-7.455 12.79-11.911-1.947.637-4.214 1.059-6.806 1.256-.468.05-.985-.079-1.41-.364-.422-.281-.738-.704-.868-1.138-.152-.438-.147-.959.023-1.432.175-.482.515-.894.923-1.131l.034-.022c7.1-4.467 11.554-10.228 13.318-17.316.1-.458.383-.905.784-1.219.399-.313.899-.481 1.351-.47.463-.007.957.16 1.352.47.403.315.687.766.786 1.227l.011.042c1.776 7.082 6.242 12.836 13.353 17.296.405.238.742.648.916 1.127.172.477.176 1.005.024 1.431-.137.443-.45.86-.867 1.139-.427.287-.947.416-1.385.367-2.605-.198-4.884-.622-6.839-1.261 1.224 1.563 2.543 3.067 3.957 4.51 5.814-2.765 9.868-6.398 12.111-10.954l-6.686.835c-.024.003-.048.005-.072.007-.99.074-2.121-.704-2.428-1.654-.008-.026-.016-.051-.024-.077-.269-.919.147-2.136.934-2.671l.032-.024c3.465-2.486 6.452-5.081 8.956-7.785v-144.341h46.742v-44.319-.007c.019-1.593-.648-3.285-1.754-4.441 0 0-2.998-3.209-2.989-3.2-1.51-1.582-2.426-3.905-2.4-6.079v-17.63h-2.034c-.498.013-1.044-.286-1.3-.713-.28-.412-.322-1.034-.099-1.48l19.3-41.584c.215-.518.839-.916 1.4-.894.56-.022 1.184.376 1.399.894l19.3 41.584c.223.446.181 1.068-.098 1.48-.257.427-.803.726-1.301.713h-2.034s0 17.52 0 17.506c.024 2.163-.867 4.455-2.337 6.023l-3.097 3.383-.004.005c-1.075 1.148-1.723 2.816-1.705 4.396v44.363h18.767v-5.873h-3.402c-.482.012-1.009-.265-1.272-.669-.283-.391-.353-.983-.168-1.428l16.134-41.915c.187-.561.85-1.016 1.441-.989.591-.027 1.253.428 1.44.989l16.134 41.915c.185.445.115 1.037-.168 1.428-.262.404-.789.681-1.272.669h-3.401v5.873h54.203v80.174h21.116v-6.989h-4.86c-.482.012-1.009-.265-1.272-.669-.283-.391-.352-.983-.168-1.428l16.135-41.915c.186-.561.849-1.016 1.44-.989.591-.027 1.254.428 1.44.989l16.135 41.915c.184.445.114 1.037-.168 1.428-.263.404-.79.681-1.273.669h-4.859v6.989h52.175v-10.87-.007c.019-1.591-.646-3.279-1.748-4.435 0 0-3.741-4.016-3.732-4.006-1.508-1.582-2.422-3.902-2.397-6.075v-11.099h12.453v-17.167h-3.323c-.498.014-1.045-.286-1.301-.713-.279-.412-.321-1.034-.099-1.48l19.3-41.584c.216-.517.84-.916 1.4-.893.56-.023 1.184.376 1.4.893l19.3 41.584c.222.446.18 1.068-.099 1.48-.256.427-.803.727-1.301.713h-3.323v17.167h12.453s0 11.094 0 11.08c.025 2.185-.887 4.504-2.385 6.076l-3.719 3.998-.005.005c-1.094 1.147-1.757 2.826-1.744 4.416l-.014 66.007zm-300.018 6.309c2.062-2.63 3.691-5.361 4.883-8.194.34-.845 1.34-1.509 2.238-1.495.908-.008 1.903.656 2.248 1.52 2.884 6.836 8.311 13.074 16.235 18.753.807.557 1.221 1.834.899 2.741-.306.95-1.437 1.728-2.428 1.654-.023-.002-.047-.004-.071-.007l-6.687-.835c2.264 4.597 6.371 8.254 12.272 11.029 3.447-1.655 5.959-3.766 7.5-6.376l-2.563.349-.009.002c-1.004.13-2.2-.622-2.528-1.561-.355-.926.035-2.231.842-2.804l.033-.024c4.669-3.496 8.037-7.263 9.844-11.433.47-1.084 2.332-1.613 3.848-.638.327.21.561.638.561.638 1.888 4.149 5.195 7.96 9.886 11.464.806.581 1.191 1.892.833 2.796-.345.95-1.531 1.691-2.528 1.562l-.009-.002-2.563-.349c1.54 2.61 4.053 4.721 7.503 6.376 5.897-2.775 10.005-6.432 12.268-11.029l-6.686.835c-.024.003-.048.005-.072.007-.99.074-2.122-.704-2.428-1.654-.008-.026-.016-.051-.024-.077-.269-.919.147-2.136.934-2.671l.032-.024c7.911-5.677 13.327-11.913 16.203-18.747.339-.845 1.34-1.509 2.237-1.495.228-.002.462.038.689.113v-27.449h-83.392zm40.682-21.31c.009.705-.302 1.457-.807 1.948-.492.506-1.244.817-1.949.807-.705.01-1.457-.301-1.948-.807-.506-.491-.817-1.243-.808-1.948v-5.459c-.137-1.355 1.4-2.893 2.756-2.755 1.356-.138 2.893 1.4 2.756 2.755zm25.079 0c.009.705-.302 1.457-.807 1.948-.492.506-1.244.817-1.949.807-.705.01-1.456-.301-1.948-.807-.505-.491-.817-1.243-.807-1.948v-5.459c-.138-1.355 1.399-2.893 2.755-2.755 1.356-.138 2.894 1.4 2.756 2.755zm-32.672 0c.01.705-.302 1.457-.807 1.948-.491.506-1.243.817-1.948.807-.705.01-1.457-.301-1.949-.807-.505-.491-.816-1.243-.807-1.948v-5.459c-.138-1.355 1.4-2.893 2.756-2.755 1.356-.138 2.893 1.4 2.755 2.755zm25.08 0c.009.705-.302 1.457-.808 1.948-.491.506-1.243.817-1.948.807-.705.01-1.457-.301-1.949-.807-.505-.491-.816-1.243-.807-1.948v-5.459c-.137-1.355 1.4-2.893 2.756-2.755 1.356-.138 2.893 1.4 2.756 2.755zm148.558 49.861c.691-1.73 1.233-3.561 1.626-5.494.073-.425.321-.846.684-1.143.357-.291.809-.45 1.233-.443.021 0 .042.001.062.001.407.007.835.164 1.175.442.366.299.615.724.686 1.151l.006.029c1.384 6.765 4.594 12.289 9.64 16.567.608.498.858 1.54.543 2.262-.009.02-.018.039-.027.059-.328.7-1.23 1.214-1.984 1.118-1.779-.183-3.351-.564-4.717-1.135 2.565 4.587 5.73 8.656 9.497 12.206.308.275.53.684.601 1.126.07.44-.011.896-.21 1.241-.188.362-.523.674-.926.852-.412.183-.88.219-1.275.109-2.365-.577-4.465-1.321-6.302-2.225 1.739 2.461 3.659 4.824 5.761 7.088 4.496-3.894 8.364-8.128 11.602-12.703-1.834.875-3.921 1.6-6.263 2.172-.4.11-.865.073-1.276-.109-.407-.18-.744-.496-.926-.852-.201-.355-.28-.806-.21-1.241.072-.444.295-.855.622-1.145 3.754-3.542 6.909-7.6 9.468-12.173-1.367.562-2.935.938-4.709 1.12-.782.096-1.709-.449-2.011-1.176-.008-.021-.016-.041-.024-.061-.277-.721-.022-1.726.575-2.208l.03-.026c5.033-4.281 8.233-9.807 9.61-16.571.072-.425.32-.846.684-1.143.357-.292.808-.451 1.232-.444.02.001.04.001.06.001.407.007.836.164 1.178.443.365.299.614.724.691 1.18 1.384 6.764 4.595 12.288 9.641 16.566.608.498.857 1.541.543 2.262-.009.02-.018.039-.027.059-.327.701-1.23 1.215-1.984 1.118-1.78-.182-3.351-.564-4.718-1.135 1.623 2.903 3.487 5.598 5.591 8.086 4.575-4.123 8.55-8.572 11.922-13.347-2.09 1.029-4.48 1.876-7.171 2.533-.454.125-.984.083-1.451-.124-.464-.206-.848-.566-1.055-.97-.227-.404-.317-.917-.238-1.412.081-.506.336-.974.69-1.287l.027-.025c4.272-4.034 7.863-8.654 10.775-13.861-1.555.649-3.344 1.084-5.369 1.292-.889.108-1.945-.512-2.288-1.34-.01-.023-.019-.046-.028-.069-.315-.82-.025-1.964.655-2.513l.034-.029c.074-.063.147-.126.22-.189v-37.421h-52.175zm-123.335-111.992h-83.392v44.052h83.392zm-50.303 28.337v5.458c.138 1.356-1.399 2.893-2.755 2.756-1.356.137-2.894-1.4-2.756-2.756v-5.458c-.009-.705.302-1.457.807-1.949.492-.505 1.244-.816 1.949-.807.705-.009 1.457.302 1.948.807.505.492.817 1.244.807 1.949zm32.672 0v5.458c.138 1.356-1.4 2.893-2.756 2.756-1.356.137-2.893-1.4-2.755-2.756v-5.458c-.01-.705.302-1.457.807-1.949.492-.505 1.243-.816 1.948-.807.705-.009 1.457.302 1.949.807.505.492.816 1.244.807 1.949zm-7.592 0v5.458c.137 1.356-1.4 2.893-2.756 2.756-1.356.137-2.893-1.4-2.756-2.756v-5.458c-.009-.705.302-1.457.807-1.949.492-.505 1.244-.816 1.949-.807.705-.009 1.457.302 1.948.807.506.492.817 1.244.808 1.949zm-17.487 0v5.458c.137 1.356-1.4 2.893-2.756 2.756-1.356.137-2.893-1.4-2.756-2.756v-5.458c-.009-.705.302-1.457.808-1.949.491-.505 1.243-.816 1.948-.807.705-.009 1.457.302 1.949.807.505.492.816 1.244.807 1.949zm68.176 15.715h11.127v-28.497h31.621v28.497h9.092v-44.052h-51.84zm54.203 60.186c5.116-6.398 8.366-14.335 9.774-23.798.068-.587.408-1.158.855-1.505.368-.287.797-.425 1.202-.42.022.001.043.001.065.001.392.006.802.143 1.156.419.447.348.788.921.857 1.525 1.158 7.764 3.556 14.499 7.207 20.2v-41.599h-21.116zm-77.305-27.209c3.035 6.152 8.191 11.807 15.431 16.996.806.557 1.22 1.834.899 2.741-.306.95-1.438 1.728-2.428 1.654-.024-.002-.047-.004-.071-.007l-6.687-.835c2.242 4.553 6.292 8.184 12.101 10.949.512-.389 1.01-.791 1.493-1.206v-152.934c-.913-.128-1.921.096-2.641.623-.016.011-.032.022-.048.033-.922.608-1.562 1.793-1.58 2.904 0 .04 0 .079.001.119v.029 4.872h-2.364v-4.861-.011l-.001-.016c0-.036 0-.072 0-.109-.019-.914-.431-1.872-1.083-2.507-.007-.007-.015-.015-.022-.022-.66-.678-1.669-1.096-2.615-1.083-.011 0-.022 0-.032 0-.947-.013-1.956.405-2.616 1.083-.007.008-.015.015-.022.022-.652.635-1.063 1.593-1.083 2.507v.109.016l-.001.011v4.861h-2.364l.001-4.856-.001-.016c0-.01 0-.019 0-.029.001-.037.001-.073.001-.11-.014-1.113-.655-2.303-1.58-2.913-.016-.011-.032-.022-.048-.033-.719-.527-1.727-.751-2.64-.623zm13.124-88.047v5.458c.138 1.356-1.4 2.893-2.755 2.756-1.356.137-2.893-1.4-2.756-2.756v-5.458c-.01-.705.302-1.457.807-1.948.492-.506 1.244-.817 1.949-.808.704-.009 1.456.302 1.948.808.505.491.817 1.243.807 1.948zm0 31.668v5.458c.138 1.356-1.4 2.893-2.755 2.756-1.356.137-2.893-1.4-2.756-2.756v-5.458c-.01-.705.302-1.457.807-1.948.492-.506 1.244-.817 1.949-.808.704-.009 1.456.302 1.948.808.505.491.817 1.243.807 1.948zm0 32.367v5.458c.138 1.356-1.4 2.893-2.755 2.756-1.356.137-2.893-1.4-2.756-2.756v-5.458c-.01-.705.302-1.457.807-1.948.492-.506 1.244-.817 1.949-.808.704-.009 1.456.302 1.948.808.505.491.817 1.243.807 1.948zm166.962-67.467h27.226v-17.167h-27.226zm16.369-11.53v5.458c.137 1.356-1.4 2.893-2.756 2.756-1.356.137-2.893-1.4-2.756-2.756v-5.458c-.009-.705.303-1.457.807-1.949.492-.505 1.244-.816 1.949-.807.705-.009 1.457.302 1.949.807.505.492.816 1.244.807 1.949zm-151.869 132.205c.8.762 1.644 1.485 2.533 2.17 1.924-1.483 3.641-3.147 5.15-4.991-1.18-2.134-2.172-4.432-2.976-6.893-1.171 3.584-2.74 6.821-4.707 9.714zm-68.081-164.357v-44.343c-.025-2.162.866-4.454 2.334-6.022l3.097-3.383.005-.005c1.076-1.148 1.725-2.817 1.707-4.397v-17.526h-29.805v17.637.007c-.019 1.592.647 3.281 1.751 4.437 0 0 2.997 3.209 2.988 3.199 1.513 1.583 2.43 3.908 2.404 6.084v44.312zm-5.004-68.11v5.458c.138 1.356-1.399 2.893-2.755 2.756-1.357.137-2.894-1.4-2.756-2.756v-5.458c-.01-.705.302-1.457.807-1.949.492-.505 1.244-.816 1.949-.807.704-.009 1.456.302 1.948.807.505.492.817 1.244.807 1.949zm129.284 230.228c1.017 1.292 2.108 2.522 3.276 3.69.545.537.817 1.652.551 2.419-.297.954-1.347 1.59-2.166 1.489-2.773-.265-5.161-.976-7.17-2.115 3.43 7.751 7.755 14.56 12.979 20.425.283.302.501.75.57 1.238.066.467-.005.954-.171 1.307-.401.963-1.583 1.481-2.43 1.218-3.637-1.009-6.791-2.386-9.466-4.12 3.692 6.596 8.072 12.738 13.139 18.426 2.936-2.91 5.553-5.993 7.852-9.248-1.836.904-3.936 1.648-6.301 2.225-.399.11-.865.073-1.275-.109-.407-.18-.745-.497-.927-.852-.2-.354-.279-.805-.209-1.241.071-.444.295-.855.622-1.145 3.757-3.546 6.916-7.609 9.476-12.187-1.367.571-2.938.952-4.718 1.135-.787.095-1.72-.456-2.01-1.177-.316-.725-.063-1.773.55-2.269l.031-.026c2.234-1.9 4.106-4.045 5.619-6.435v-101.581h-17.822zm11.667-37.217v5.458c.137 1.356-1.4 2.893-2.756 2.756-1.356.137-2.893-1.4-2.756-2.756v-5.458c-.009-.705.302-1.457.807-1.949.492-.505 1.244-.817 1.949-.807.705-.01 1.457.302 1.948.807.505.492.817 1.244.808 1.949zm0-25.642v5.459c.137 1.356-1.4 2.893-2.756 2.755-1.356.138-2.893-1.399-2.756-2.755v-5.459c-.009-.705.302-1.457.807-1.948.492-.506 1.244-.817 1.949-.807.705-.01 1.457.301 1.948.807.505.491.817 1.243.808 1.948zm-89.35 63.943c3.626-3.835 6.235-8.554 7.833-14.151.257-.964 1.357-1.793 2.333-1.772.996-.009 2.088.822 2.337 1.785l.011.036c1.453 5.067 3.735 9.412 6.853 13.032 1.912-2.935 3.392-6.246 4.444-9.929.262-.984 1.385-1.829 2.379-1.808 1.017-.009 2.131.838 2.385 1.821l.012.041c.674 2.35 1.524 4.548 2.548 6.594 1.895-2.895 3.361-6.162 4.399-9.8.258-.964 1.358-1.793 2.333-1.772.996-.009 2.088.822 2.347 1.818 1.998 6.966 5.561 12.57 10.711 16.799.024.02.048.041.071.063.05-.065.104-.125.16-.179.231-.231.459-.465.684-.701v-60.531h-9.092v28.497h-31.621v-28.497h-11.127zm13.491-87.151v54.63h26.893v-54.63zm19.998 44.212c.009.705-.302 1.457-.807 1.948-.492.506-1.244.817-1.949.807-.705.01-1.456-.301-1.948-.807-.505-.491-.817-1.243-.807-1.948v-5.459c-.138-1.355 1.399-2.893 2.755-2.755 1.356-.138 2.894 1.4 2.756 2.755zm-7.592 0c.009.705-.302 1.457-.807 1.948-.492.506-1.244.817-1.949.807-.705.01-1.457-.301-1.949-.807-.505-.491-.816-1.243-.807-1.948v-5.459c-.137-1.355 1.4-2.893 2.756-2.755 1.356-.138 2.893 1.4 2.756 2.755zm7.592-33.794v5.458c.138 1.356-1.4 2.893-2.756 2.756-1.356.137-2.893-1.4-2.755-2.756v-5.458c-.01-.705.302-1.457.807-1.949.492-.505 1.243-.816 1.948-.807.705-.009 1.457.302 1.949.807.505.492.816 1.244.807 1.949zm-7.592 0v5.458c.137 1.356-1.4 2.893-2.756 2.756-1.356.137-2.893-1.4-2.756-2.756v-5.458c-.009-.705.302-1.457.807-1.949.492-.505 1.244-.816 1.949-.807.705-.009 1.457.302 1.949.807.505.492.816 1.244.807 1.949zm25.325 82.713-.762.642c-.501.421-.95.361-.963.36l-2.914.019c1.78 2.653 4.345 5.33 7.687 8.043 2.093-3.326 3.974-6.874 5.642-10.645-2.008 1.139-4.396 1.85-7.169 2.115-.503.054-1.079-.153-1.521-.534zm101.186-16.821c4.254-4.474 7.036-9.948 8.352-16.416.083-.484.365-.963.779-1.301.406-.332.92-.513 1.403-.505.484-.009 1 .172 1.407.505.416.34.7.823.78 1.309l.007.034c1.576 7.698 5.229 13.984 10.972 18.853.691.567.975 1.753.617 2.574-.01.023-.02.045-.03.068-.373.797-1.401 1.381-2.258 1.272-2.025-.208-3.814-.643-5.368-1.292 1.407 2.518 2.974 4.898 4.7 7.142 6.139-4.338 11.295-9.287 15.464-14.851-2.819 1.109-6.289 1.787-10.416 2.012-.417.035-.874-.09-1.247-.35-.37-.259-.642-.641-.751-1.029-.127-.392-.112-.855.048-1.272.164-.425.474-.785.858-.999 4.548-2.727 8.24-5.874 11.07-9.442l.015-69.401c-.018-2.178.894-4.486 2.387-6.052l3.719-3.997.005-.005c1.097-1.152 1.76-2.839 1.742-4.435v-8.737h-52.132v8.742.007c-.018 1.591.646 3.279 1.749 4.435 0 0 3.741 4.016 3.732 4.006 1.508 1.582 2.422 3.902 2.396 6.075zm20.945-45.996v5.459c.137 1.355-1.4 2.893-2.756 2.755-1.356.138-2.893-1.4-2.756-2.755v-5.459c-.009-.705.303-1.457.807-1.948.492-.506 1.244-.817 1.949-.807.705-.01 1.457.301 1.949.807.505.491.816 1.243.807 1.948zm0-25.166v5.458c.137 1.356-1.4 2.893-2.756 2.755-1.356.138-2.893-1.399-2.756-2.755v-5.458c-.009-.705.303-1.457.807-1.949.492-.505 1.244-.817 1.949-.807.705-.01 1.457.302 1.949.807.505.492.816 1.244.807 1.949zm-175.717-87.072h-20.738v16.025c1.411-.108 2.91.268 4.01 1.063.546.364 1.033.85 1.434 1.408.186-.255.39-.494.61-.71 1.093-1.115 2.754-1.803 4.315-1.787 1.56-.017 3.222.672 4.314 1.787.22.216.424.454.61.71.399-.556.883-1.04 1.427-1.403 1.103-.799 2.605-1.175 4.018-1.068zm-7.614 5.341v5.458c.138 1.357-1.4 2.894-2.755 2.756-1.356.138-2.893-1.399-2.756-2.756v-5.458c-.01-.705.302-1.457.807-1.949.492-.504 1.244-.816 1.949-.807.704-.009 1.456.303 1.948.807.505.492.817 1.244.807 1.949z" fill="#8c0eff"/></g></svg>