<svg clip-rule="evenodd" fill-rule="evenodd" stroke-linejoin="round" stroke-miterlimit="2" viewBox="0 0 386 357" xmlns="http://www.w3.org/2000/svg" xmlns:xlink="http://www.w3.org/1999/xlink"><title>Illustrative stamp of the Capitol building in Washington DC</title><clipPath id="a"><path clip-rule="evenodd" d="m0 .178h385.2v356.616h-385.2z"/></clipPath><path d="m0 .178h385.2v356.616h-385.2z" fill="none"/><g clip-path="url(#a)"><path d="m82.841 300.553-4.665-2.693-78.176-45.136v-103.832l135.928-78.478h42.425v-2.73l-10.255-10.254c-.469-.469-.733-1.105-.733-1.768v-2.884c0-1.38 1.12-2.5 2.5-2.5h8.488v-35.703c-.308-3.542 1.418-7.348 4.216-10.146 2.767-2.767 6.519-4.485 10.019-4.225 3.508-.26 7.261 1.458 10.028 4.225 2.798 2.799 4.524 6.605 4.216 10.14v35.709h8.487c1.381 0 2.5 1.12 2.5 2.5v2.884c0 .663-.263 1.299-.732 1.768l-10.255 10.254v2.73h42.424l135.929 78.478v103.832l-78.176 45.136-4.665 2.693c-.213-.368-.335-.795-.335-1.25v-72.472c-6.874-.577-13.749-1.099-20.623-1.566-.025-.002-.049-.004-.074-.005-59.148-4.021-118.296-4.021-177.444 0-.022.002-.044.003-.065.004-6.876.468-13.752.99-20.627 1.567v9.449c46.101-3.892 92.203-5.325 138.305-4.297 1.379.031 2.474 1.175 2.443 2.555-.03 1.379-1.175 2.474-2.555 2.444-46.064-1.027-92.129.411-138.193 4.316v58.005c0 .455-.122.882-.335 1.25zm-13.505-99.765c0-4.186-.727-8.06-2.18-11.62s-3.5-6.633-6.14-9.22c-2.64-2.586-5.82-4.613-9.54-6.08-3.72-1.466-7.847-2.2-12.38-2.2h-22.64v58.28h22.64c4.533 0 8.66-.726 12.38-2.18 3.72-1.453 6.9-3.48 9.54-6.08s4.687-5.68 6.14-9.24 2.18-7.446 2.18-11.66zm-13.84 0c0 2.907-.373 5.52-1.12 7.84s-1.82 4.287-3.22 5.9c-1.4 1.614-3.113 2.854-5.14 3.72-2.027.867-4.333 1.3-6.92 1.3h-9.04v-37.48h9.04c2.587 0 4.893.434 6.92 1.3 2.027.867 3.74 2.107 5.14 3.72 1.4 1.614 2.473 3.58 3.22 5.9s1.12 4.92 1.12 7.8zm307.433 14.08c-.4 0-.787.087-1.16.26-.374.174-.72.394-1.04.66-.8.72-1.587 1.314-2.36 1.78-.774.467-1.6.84-2.48 1.12s-1.827.48-2.84.6c-1.014.12-2.134.18-3.36.18-2.134 0-4.134-.413-6-1.24-1.867-.826-3.5-2.033-4.9-3.62-1.4-1.586-2.507-3.54-3.32-5.86-.814-2.32-1.22-4.973-1.22-7.96 0-2.96.366-5.593 1.1-7.9.733-2.306 1.773-4.253 3.12-5.84 1.346-1.586 2.946-2.793 4.8-3.62 1.853-.826 3.9-1.24 6.14-1.24 1.413 0 2.646.107 3.7.32 1.053.214 1.973.474 2.76.78.786.307 1.466.64 2.04 1 .573.36 1.1.694 1.58 1 .48.307.933.567 1.36.78.426.214.88.32 1.36.32.72 0 1.28-.153 1.68-.46.4-.306.746-.646 1.04-1.02l4.56-6.12c-1.094-1.12-2.347-2.16-3.76-3.12-1.414-.96-2.96-1.78-4.64-2.46s-3.487-1.213-5.42-1.6c-1.934-.386-3.994-.58-6.18-.58-4.294 0-8.227.734-11.8 2.2-3.574 1.467-6.64 3.52-9.2 6.16s-4.547 5.78-5.96 9.42c-1.414 3.64-2.12 7.634-2.12 11.98 0 4.267.653 8.22 1.96 11.86 1.306 3.64 3.18 6.787 5.62 9.44 2.44 2.654 5.413 4.734 8.92 6.24 3.506 1.507 7.473 2.26 11.9 2.26 4.826 0 9.006-.78 12.54-2.34 3.533-1.56 6.473-3.873 8.82-6.94l-5.36-5.64c-.294-.293-.6-.5-.92-.62s-.64-.18-.96-.18zm-161.097-148.219c0-.663.263-1.299.732-1.768l9.603-9.603h-7.835c-1.381 0-2.5-1.119-2.5-2.5v-29.628c-2.31 2.47-5.596 4.014-9.24 4.014s-6.93-1.545-9.239-4.014v29.628c0 1.381-1.12 2.5-2.5 2.5h-7.835l9.603 9.603c.468.469.732 1.105.732 1.768v36.658c0 1.368-1.099 2.482-2.467 2.5l-8.961.119v15.974c0 1.075-.688 2.03-1.708 2.371-20.123 6.725-37.511 27.055-41.068 47.982-.01.063-.021.126-.031.189-.003.018-.007.036-.01.053-.235 1.065-1.154 1.889-2.296 1.955l-20.649 1.203v44.442c57.62-3.801 115.239-3.801 172.858 0v-44.461c-6.861-.446-13.722-.84-20.583-1.18-.03-.001-.061-.003-.091-.005-31.511-1.561-63.022-2-94.533-1.316-1.38.029-2.524-1.066-2.554-2.446-.03-1.379 1.066-2.523 2.445-2.553 30.579-.663 61.157-.273 91.736 1.169-4.602-19.86-21.297-38.621-40.474-45.032-1.019-.341-1.707-1.296-1.707-2.371v-15.974l-8.962-.119c-1.367-.018-2.466-1.132-2.466-2.5zm28.75 136.84-8.733-.221c-.271-.007-.487-.229-.487-.5v-10.348c-.015-1.246.534-2.573 1.425-3.443.87-.891 2.197-1.44 3.441-1.426 1.245-.014 2.571.535 3.441 1.426.891.87 1.441 2.197 1.426 3.443v10.57c0 .134-.055.263-.151.358-.097.094-.227.145-.362.141zm-110.128.892v-10.668c-.015-1.246.534-2.573 1.425-3.443.87-.891 2.196-1.44 3.441-1.426 1.245-.014 2.571.535 3.441 1.426.891.87 1.441 2.197 1.425 3.443v10.225c0 .266-.208.486-.474.499l-8.733.444c-.137.006-.27-.043-.37-.137-.099-.095-.155-.226-.155-.363zm33.636-1.391v-10.57c-.015-1.246.534-2.573 1.425-3.443.87-.891 2.197-1.44 3.441-1.426 1.245-.014 2.571.535 3.441 1.426.891.87 1.441 2.197 1.425 3.443v10.348c0 .271-.216.493-.487.5l-8.732.221c-.135.004-.266-.047-.362-.141-.097-.095-.151-.224-.151-.358zm110.631-8.975v10.366c0 .137-.056.268-.155.362s-.233.144-.37.137l-8.723-.443c-.266-.013-.475-.233-.475-.499v-10.225c-.017-1.27.558-2.627 1.482-3.499.901-.895 2.275-1.425 3.543-1.367 1.27.025 2.606.644 3.447 1.595.861.927 1.346 2.311 1.251 3.573zm-67.762 8.937h-8.733c-.276 0-.5-.224-.5-.5v-10.463c-.015-1.246.534-2.573 1.425-3.443.87-.891 2.196-1.44 3.441-1.426 1.245-.014 2.572.535 3.441 1.426.891.87 1.441 2.197 1.426 3.443v10.463c0 .276-.224.5-.5.5zm-21.886-73.084c-7.617 6.12-13.784 14.201-17.104 22.951-.49 1.29-1.935 1.94-3.225 1.45-1.29-.489-1.939-1.934-1.45-3.224 6.239-16.442 21.679-30.723 38.556-35.664 1.133-.332 2.348.177 2.906 1.218.082.152.147.313.196.479.332 1.133-.178 2.348-1.218 2.906-11.771 6.31-21.063 19.208-23.321 32.371-.234 1.359-1.527 2.274-2.887 2.041-1.36-.234-2.275-1.527-2.041-2.887 1.308-7.627 4.744-15.173 9.588-21.641zm96.886 188.227-19.213 11.093c0-29.349 0-71.49.001-71.488-.192-2.4.947-4.985 2.84-6.879 1.866-1.866 4.402-2.998 6.763-2.849 2.369-.148 4.903.984 6.768 2.849 1.895 1.896 3.034 4.484 2.841 6.875zm-34.88 13.108h-19.213c0-29.367 0-74.932 0-74.93-.191-2.4.947-4.985 2.841-6.879 1.866-1.865 4.402-2.998 6.763-2.849 2.368-.148 4.903.985 6.768 2.849 1.895 1.896 3.034 4.484 2.841 6.876zm-34.88 0h-19.213c0-29.348 0-75.408 0-75.405-.191-2.401.947-4.986 2.841-6.879 1.866-1.866 4.402-2.998 6.763-2.849 2.368-.148 4.903.984 6.767 2.849 1.896 1.895 3.035 4.483 2.842 6.875zm-34.881 0h-19.212c0-29.396 0-75.033 0-75.033-.026-2.46 1.057-5.08 2.803-6.793 1.722-1.76 4.341-2.847 6.789-2.824 2.461-.027 5.082 1.057 6.797 2.804 1.762 1.724 2.85 4.348 2.823 6.813zm-34.88-2.015-19.213-11.093c0-27.817 0-60.397.001-60.395-.192-2.4.947-4.985 2.841-6.879 1.865-1.866 4.402-2.998 6.762-2.849 2.369-.148 4.904.984 6.768 2.849 1.896 1.896 3.034 4.484 2.841 6.875zm12.191 20.539c0 1.057-.132 2.019-.397 2.886-.264.866-.663 1.609-1.196 2.229s-1.202 1.101-2.008 1.443-1.755.514-2.847.514c-.494 0-.982-.026-1.463-.078s-.981-.139-1.501-.26l.234-2.561c.026-.226.117-.408.273-.546.156-.139.377-.208.663-.208.147 0 .329.023.546.071.216.048.476.072.78.072.424 0 .795-.059 1.111-.176.317-.117.579-.312.787-.585s.364-.63.468-1.072.156-.988.156-1.638v-12.168h4.394zm20.163 6.864h-3.406c-.382 0-.689-.089-.923-.267s-.412-.405-.533-.682l-1.118-3.302h-7.202l-1.118 3.302c-.096.242-.267.461-.514.656s-.552.293-.916.293h-3.432l7.332-18.941h4.498zm-6.981-7.241-1.755-5.187c-.13-.33-.269-.718-.416-1.164-.148-.446-.295-.929-.442-1.449-.13.528-.269 1.018-.416 1.469-.148.45-.286.84-.416 1.17l-1.742 5.161zm25.012-11.7v18.941h-2.288c-.338 0-.622-.055-.852-.163-.229-.108-.457-.297-.682-.565l-8.931-11.297c.034.338.058.665.071.981s.02.613.02.891v10.153h-3.874v-18.941h2.314c.19 0 .351.008.481.026.13.017.247.049.351.097s.203.115.299.202c.095.086.203.203.325.351l9.009 11.375c-.044-.364-.074-.718-.091-1.06-.018-.342-.026-.665-.026-.968v-10.023zm20.527 15.301c.433 0 .775.119 1.027.357.251.238.377.553.377.943v2.34h-13.312v-1.3c0-.252.052-.52.156-.806s.286-.546.546-.78l5.46-5.499c.468-.468.875-.915 1.222-1.339.346-.425.632-.843.858-1.255.225-.412.394-.823.507-1.235.112-.412.169-.847.169-1.306 0-.754-.18-1.333-.54-1.736-.359-.403-.908-.604-1.644-.604-.598 0-1.103.158-1.515.474-.411.316-.695.709-.851 1.177-.182.476-.421.793-.715.949-.295.156-.715.19-1.261.104l-2.132-.377c.138-.945.405-1.768.799-2.47.395-.702.884-1.287 1.469-1.755s1.255-.817 2.009-1.047 1.564-.344 2.431-.344c.936 0 1.779.136 2.528.409.75.273 1.389.652 1.918 1.138.528.485.934 1.063 1.215 1.735.282.672.423 1.411.423 2.217 0 .693-.098 1.334-.293 1.924-.195.589-.461 1.15-.799 1.683s-.73 1.049-1.177 1.547c-.446.498-.921 1.003-1.423 1.515l-3.705 3.796c.476-.148.949-.26 1.417-.338s.901-.117 1.3-.117zm16.952-5.837c0 1.655-.178 3.089-.533 4.303-.356 1.213-.847 2.218-1.476 3.016-.628.797-1.373 1.391-2.236 1.781-.862.39-1.796.585-2.801.585-1.006 0-1.935-.195-2.789-.585-.853-.39-1.592-.984-2.216-1.781-.624-.798-1.112-1.803-1.463-3.016-.351-1.214-.526-2.648-.526-4.303 0-1.656.175-3.09.526-4.303.351-1.214.839-2.219 1.463-3.016.624-.798 1.363-1.389 2.216-1.775.854-.386 1.783-.578 2.789-.578 1.005 0 1.939.192 2.801.578.863.386 1.608.977 2.236 1.775.629.797 1.12 1.802 1.476 3.016.355 1.213.533 2.647.533 4.303zm-4.16 0c0-1.309-.083-2.382-.247-3.218-.165-.836-.384-1.493-.657-1.969-.273-.477-.583-.804-.929-.982-.347-.178-.698-.266-1.053-.266-.356 0-.704.088-1.047.266-.342.178-.645.505-.91.982-.264.476-.476 1.133-.637 1.969-.16.836-.24 1.909-.24 3.218 0 1.317.08 2.392.24 3.224.161.832.373 1.488.637 1.969.265.481.568.81.91.988.343.178.691.267 1.047.267.355 0 .706-.089 1.053-.267.346-.178.656-.507.929-.988s.492-1.137.657-1.969c.164-.832.247-1.907.247-3.224zm17.368 5.837c.433 0 .775.119 1.027.357.251.238.377.553.377.943v2.34h-13.312v-1.3c0-.252.052-.52.156-.806s.286-.546.546-.78l5.46-5.499c.468-.468.875-.915 1.222-1.339.346-.425.632-.843.858-1.255.225-.412.394-.823.507-1.235.112-.412.169-.847.169-1.306 0-.754-.18-1.333-.54-1.736-.359-.403-.908-.604-1.644-.604-.598 0-1.103.158-1.515.474-.411.316-.695.709-.851 1.177-.182.476-.421.793-.715.949-.295.156-.715.19-1.261.104l-2.132-.377c.138-.945.405-1.768.799-2.47.395-.702.884-1.287 1.469-1.755s1.255-.817 2.009-1.047 1.564-.344 2.431-.344c.936 0 1.779.136 2.528.409.75.273 1.389.652 1.918 1.138.528.485.934 1.063 1.215 1.735.282.672.423 1.411.423 2.217 0 .693-.098 1.334-.293 1.924-.195.589-.461 1.15-.799 1.683s-.73 1.049-1.177 1.547c-.446.498-.921 1.003-1.423 1.515l-3.705 3.796c.476-.148.949-.26 1.417-.338s.901-.117 1.3-.117zm3.536-9.893c.138-.945.405-1.768.799-2.47.395-.702.884-1.287 1.469-1.755s1.255-.817 2.009-1.047 1.564-.344 2.431-.344c.936 0 1.768.132 2.496.396s1.343.622 1.846 1.073c.502.45.884.972 1.144 1.566s.39 1.22.39 1.879c0 .598-.061 1.124-.182 1.579-.122.455-.301.849-.54 1.183-.238.334-.533.615-.884.845s-.752.423-1.202.579c2.097.736 3.146 2.166 3.146 4.29 0 1.005-.182 1.88-.546 2.626-.364.745-.852 1.365-1.463 1.859s-1.319.864-2.125 1.111-1.647.371-2.522.371c-.902 0-1.703-.098-2.405-.293s-1.326-.498-1.872-.91-1.025-.938-1.437-1.579c-.411-.642-.769-1.404-1.072-2.288l1.794-.728c.468-.182.901-.23 1.3-.143.398.086.684.286.858.598.39.719.804 1.241 1.241 1.566.438.325.951.488 1.541.488.45 0 .843-.076 1.176-.228.334-.152.611-.347.832-.585s.388-.509.501-.812c.112-.304.169-.611.169-.923 0-.408-.028-.774-.085-1.099-.056-.325-.214-.604-.474-.838s-.652-.414-1.177-.54c-.524-.126-1.254-.188-2.19-.188v-2.782c.788 0 1.425-.061 1.911-.182.485-.122.86-.289 1.124-.501.265-.212.44-.47.527-.773.086-.304.13-.637.13-1.001 0-.746-.18-1.32-.54-1.723-.359-.403-.908-.604-1.644-.604-.598 0-1.103.158-1.515.474-.411.316-.695.709-.851 1.177-.182.476-.421.793-.715.949-.295.156-.715.19-1.261.104z" fill="#1f65d8"/></g></svg>