<svg clip-rule="evenodd" fill-rule="evenodd" stroke-linejoin="round" stroke-miterlimit="2" viewBox="0 0 717 199" xmlns="http://www.w3.org/2000/svg" xmlns:xlink="http://www.w3.org/1999/xlink"><title>Illustrative stamp for Colmar with a stork</title><clipPath id="a"><path clip-rule="evenodd" d="m.021.178h715.968v198.648h-715.968z"/></clipPath><path d="m.021.178h715.968v198.648h-715.968z" fill="none"/><g clip-path="url(#a)"><path d="m169.885 138.376 23.698-54.195c1.769-5.76.691-12.827-2.715-17.797-3.228-5.088-9.3-8.861-15.291-9.502-5.965-.853-12.779 1.31-17.16 5.447-4.524 3.979-7.308 10.564-7.01 16.582l21.502-.682-41.254 94.344-8.564 19.584c-36.446-12.193-65.764-55.695-63.386-94.053h21.355c-.987 24.014 12.082 50.447 31.763 64.242l30.892-70.647h-139.622c-1.997.202-4.262-2.062-4.059-4.059-.203-1.997 2.062-4.261 4.059-4.059l125.973-3.993c-.607-12.119 5.083-25.397 14.275-33.316 8.896-8.251 22.726-12.422 34.7-10.467 12.038 1.516 24.121 9.433 30.317 19.865 6.573 10.198 8.269 24.544 4.256 35.994l-24.422 55.85c-2.756 6.099-2.079 14.32 1.64 19.885 3.44 5.741 10.581 9.87 17.273 9.986h413.89c17.584-.841 37.794-9.795 51.653-24.667 13.859-14.871 21.369-35.661 20.97-53.26.399-17.601-7.111-38.39-20.97-53.261-13.859-14.872-34.069-23.826-51.653-24.667h-468.324c-29.313.77-60.472 24.89-68.564 53.074l-22.437.711c7.572-39.198 50.372-74.814 90.294-75.137h469.738c22.491.886 48.469 12.198 66.293 31.171 17.825 18.973 27.494 45.606 26.975 68.109.519 22.502-9.15 49.136-26.975 68.109-17.824 18.972-43.802 30.284-66.293 31.17h-412.42c-13.918.808-29.473-7.204-36.897-19.005-1.747-2.457-3.186-5.199-4.306-8.114-2.022-5.184-3.001-10.948-2.903-16.65.087-5.842 1.303-11.602 3.709-16.592zm115.676-44.861c.32 0 .64.06.96.18s.626.327.92.62l5.36 5.64c-2.347 3.067-5.287 5.38-8.82 6.94-3.534 1.56-7.714 2.34-12.54 2.34-4.427 0-8.394-.753-11.9-2.26-3.507-1.507-6.48-3.587-8.92-6.24s-4.314-5.8-5.62-9.44c-1.307-3.64-1.96-7.593-1.96-11.86 0-4.347.706-8.34 2.12-11.98 1.413-3.64 3.4-6.78 5.96-9.42s5.626-4.693 9.2-6.16c3.573-1.467 7.506-2.2 11.8-2.2 2.186 0 4.246.193 6.18.58 1.933.387 3.74.92 5.42 1.6s3.226 1.5 4.64 2.46c1.413.96 2.666 2 3.76 3.12l-4.56 6.12c-.294.373-.64.713-1.04 1.02s-.96.46-1.68.46c-.48 0-.934-.107-1.36-.32-.427-.213-.88-.473-1.36-.78s-1.007-.64-1.58-1c-.574-.36-1.254-.693-2.04-1-.787-.307-1.707-.567-2.76-.78-1.054-.213-2.287-.32-3.7-.32-2.24 0-4.287.413-6.14 1.24-1.854.827-3.454 2.033-4.8 3.62-1.347 1.587-2.387 3.533-3.12 5.84-.734 2.307-1.1 4.94-1.1 7.9 0 2.987.406 5.64 1.22 7.96.813 2.32 1.92 4.273 3.32 5.86s3.033 2.793 4.9 3.62c1.866.827 3.866 1.24 6 1.24 1.226 0 2.346-.06 3.36-.18 1.013-.12 1.96-.32 2.84-.6s1.706-.653 2.48-1.12c.773-.467 1.56-1.06 2.36-1.78.32-.267.666-.487 1.04-.66.373-.173.76-.26 1.16-.26zm81-14.08c0 4.213-.727 8.133-2.18 11.76-1.454 3.627-3.5 6.78-6.14 9.46s-5.82 4.78-9.54 6.3-7.847 2.28-12.38 2.28c-4.534 0-8.667-.76-12.4-2.28-3.734-1.52-6.927-3.62-9.58-6.3-2.654-2.68-4.707-5.833-6.16-9.46-1.454-3.627-2.18-7.547-2.18-11.76s.726-8.133 2.18-11.76c1.453-3.627 3.506-6.773 6.16-9.44 2.653-2.667 5.846-4.76 9.58-6.28 3.733-1.52 7.866-2.28 12.4-2.28 4.533 0 8.66.767 12.38 2.3s6.9 3.633 9.54 6.3 4.686 5.813 6.14 9.44c1.453 3.627 2.18 7.533 2.18 11.72zm-13.84 0c0-2.88-.374-5.473-1.12-7.78-.747-2.307-1.82-4.26-3.22-5.86s-3.114-2.827-5.14-3.68c-2.027-.853-4.334-1.28-6.92-1.28-2.614 0-4.94.427-6.98 1.28s-3.76 2.08-5.16 3.68-2.474 3.553-3.22 5.86c-.747 2.307-1.12 4.9-1.12 7.78 0 2.907.373 5.513 1.12 7.82.746 2.307 1.82 4.26 3.22 5.86s3.12 2.82 5.16 3.66 4.366 1.26 6.98 1.26c2.586 0 4.893-.42 6.92-1.26 2.026-.84 3.74-2.06 5.14-3.66s2.473-3.553 3.22-5.86c.746-2.307 1.12-4.913 1.12-7.82zm68.92 18.36v10.8h-35.12v-58.28h13.52v47.48zm84.4-47.48v58.28h-11.92v-33.52c0-.773.02-1.613.06-2.52s.113-1.827.22-2.76l-15.48 29.96c-.48.933-1.127 1.64-1.94 2.12-.814.48-1.74.72-2.78.72h-1.84c-1.04 0-1.967-.24-2.78-.72-.814-.48-1.46-1.187-1.94-2.12l-15.48-30.04c.08.96.146 1.9.2 2.82.053.92.08 1.767.08 2.54v33.52h-11.92v-58.28h10.32c.586 0 1.1.013 1.54.04s.833.107 1.18.24c.346.133.66.34.94.62s.553.673.82 1.18l15 29.56c.533 1.013 1.046 2.067 1.54 3.16.493 1.093.966 2.213 1.42 3.36.453-1.173.926-2.32 1.42-3.44.493-1.12 1.02-2.187 1.58-3.2l14.96-29.44c.266-.507.54-.9.82-1.18s.593-.487.94-.62c.346-.133.74-.213 1.18-.24s.953-.04 1.54-.04zm75.56 58.28h-10.48c-1.174 0-2.12-.273-2.84-.82s-1.267-1.247-1.64-2.1l-3.44-10.16h-22.16l-3.44 10.16c-.294.747-.82 1.42-1.58 2.02s-1.7.9-2.82.9h-10.56l22.56-58.28h13.84zm-21.48-22.28-5.4-15.96c-.4-1.013-.827-2.207-1.28-3.58-.454-1.373-.907-2.86-1.36-4.46-.4 1.627-.827 3.133-1.28 4.52-.454 1.387-.88 2.587-1.28 3.6l-5.36 15.88zm85.76 22.28h-12.24c-2.267 0-3.894-.853-4.88-2.56l-9.68-16.92c-.454-.72-.96-1.247-1.52-1.58s-1.36-.5-2.4-.5h-3.44v21.56h-13.52v-58.28h18.96c4.213 0 7.806.433 10.78 1.3 2.973.867 5.4 2.073 7.28 3.62s3.246 3.373 4.1 5.48c.853 2.107 1.28 4.4 1.28 6.88 0 1.893-.254 3.68-.76 5.36-.507 1.68-1.254 3.233-2.24 4.66-.987 1.427-2.207 2.7-3.66 3.82-1.454 1.12-3.127 2.04-5.02 2.76.88.453 1.706 1.02 2.48 1.7.773.68 1.466 1.487 2.08 2.42zm-28.72-30.88c1.84 0 3.406-.233 4.7-.7 1.293-.467 2.353-1.113 3.18-1.94.826-.827 1.426-1.793 1.8-2.9.373-1.107.56-2.3.56-3.58 0-2.56-.834-4.56-2.5-6-1.667-1.44-4.247-2.16-7.74-2.16h-5.44v17.28zm-344.64 71.261h-5.24c-.587 0-1.06-.137-1.42-.41s-.634-.623-.82-1.05l-1.72-5.08h-11.08l-1.72 5.08c-.147.373-.41.71-.79 1.01s-.85.45-1.41.45h-5.28l11.28-29.14h6.92zm-10.74-11.14-2.7-7.98c-.2-.507-.414-1.103-.64-1.79-.227-.687-.454-1.43-.68-2.23-.2.813-.414 1.567-.64 2.26-.227.693-.44 1.293-.64 1.8l-2.68 7.94zm24.44 5.8c.906 0 1.716-.15 2.43-.45.713-.3 1.316-.73 1.81-1.29.493-.56.87-1.243 1.13-2.05s.39-1.723.39-2.75v-17.26h6.76v17.26c0 1.787-.29 3.427-.87 4.92s-1.41 2.78-2.49 3.86-2.394 1.92-3.94 2.52c-1.547.6-3.287.9-5.22.9-1.947 0-3.694-.3-5.24-.9-1.547-.6-2.86-1.44-3.94-2.52s-1.907-2.367-2.48-3.86c-.574-1.493-.86-3.133-.86-4.92v-17.26h6.76v17.24c0 1.027.13 1.943.39 2.75s.636 1.493 1.13 2.06c.493.567 1.096 1 1.81 1.3.713.3 1.523.45 2.43.45zm31.8-9.76h10.36v12.3c-1.494 1.093-3.084 1.887-4.77 2.38-1.687.493-3.45.74-5.29.74-2.4 0-4.584-.377-6.55-1.13-1.967-.753-3.65-1.793-5.05-3.12s-2.48-2.9-3.24-4.72-1.14-3.797-1.14-5.93c0-2.173.36-4.17 1.08-5.99s1.75-3.39 3.09-4.71 2.96-2.347 4.86-3.08 4.023-1.1 6.37-1.1c1.213 0 2.353.1 3.42.3 1.066.2 2.05.473 2.95.82s1.723.76 2.47 1.24c.746.48 1.413 1 2 1.56l-1.96 2.98c-.307.467-.704.753-1.19.86-.487.107-1.01-.013-1.57-.36-.534-.32-1.037-.597-1.51-.83-.474-.233-.957-.423-1.45-.57-.494-.147-1.014-.253-1.56-.32-.547-.067-1.16-.1-1.84-.1-1.267 0-2.407.223-3.42.67-1.014.447-1.877 1.077-2.59 1.89-.714.813-1.264 1.79-1.65 2.93-.387 1.14-.58 2.41-.58 3.81 0 1.547.213 2.92.64 4.12.426 1.2 1.03 2.213 1.81 3.04s1.713 1.457 2.8 1.89c1.086.433 2.29.65 3.61.65.813 0 1.55-.08 2.21-.24s1.303-.373 1.93-.64v-4.42h-2.88c-.427 0-.76-.113-1-.34s-.36-.513-.36-.86zm40.84 9.5c.666 0 1.193.183 1.58.55.386.367.58.85.58 1.45v3.6h-20.48v-2c0-.387.08-.8.24-1.24s.44-.84.84-1.2l8.4-8.46c.72-.72 1.346-1.407 1.88-2.06.533-.653.973-1.297 1.32-1.93.346-.633.606-1.267.78-1.9.173-.633.26-1.303.26-2.01 0-1.16-.277-2.05-.83-2.67-.554-.62-1.397-.93-2.53-.93-.92 0-1.697.243-2.33.73-.634.487-1.07 1.09-1.31 1.81-.28.733-.647 1.22-1.1 1.46-.454.24-1.1.293-1.94.16l-3.28-.58c.213-1.453.623-2.72 1.23-3.8.606-1.08 1.36-1.98 2.26-2.7s1.93-1.257 3.09-1.61 2.406-.53 3.74-.53c1.44 0 2.736.21 3.89.63 1.153.42 2.136 1.003 2.95 1.75.813.747 1.436 1.637 1.87 2.67.433 1.033.65 2.17.65 3.41 0 1.067-.15 2.053-.45 2.96s-.71 1.77-1.23 2.59-1.124 1.613-1.81 2.38c-.687.767-1.417 1.543-2.19 2.33l-5.7 5.84c.733-.227 1.46-.4 2.18-.52s1.386-.18 2-.18zm26.08-8.98c0 2.547-.274 4.753-.82 6.62-.547 1.867-1.304 3.413-2.27 4.64-.967 1.227-2.114 2.14-3.44 2.74-1.327.6-2.764.9-4.31.9-1.547 0-2.977-.3-4.29-.9-1.314-.6-2.45-1.513-3.41-2.74s-1.71-2.773-2.25-4.64-.81-4.073-.81-6.62.27-4.753.81-6.62 1.29-3.413 2.25-4.64 2.096-2.137 3.41-2.73c1.313-.593 2.743-.89 4.29-.89 1.546 0 2.983.297 4.31.89 1.326.593 2.473 1.503 3.44 2.73.966 1.227 1.723 2.773 2.27 4.64.546 1.867.82 4.073.82 6.62zm-6.4 0c0-2.013-.127-3.663-.38-4.95-.254-1.287-.59-2.297-1.01-3.03s-.897-1.237-1.43-1.51c-.534-.273-1.074-.41-1.62-.41-.547 0-1.084.137-1.61.41-.527.273-.994.777-1.4 1.51-.407.733-.734 1.743-.98 3.03-.247 1.287-.37 2.937-.37 4.95 0 2.027.123 3.68.37 4.96.246 1.28.573 2.29.98 3.03.406.74.873 1.247 1.4 1.52.526.273 1.063.41 1.61.41.546 0 1.086-.137 1.62-.41.533-.273 1.01-.78 1.43-1.52s.756-1.75 1.01-3.03c.253-1.28.38-2.933.38-4.96zm26.72 8.98c.666 0 1.193.183 1.58.55.386.367.58.85.58 1.45v3.6h-20.48v-2c0-.387.08-.8.24-1.24s.44-.84.84-1.2l8.4-8.46c.72-.72 1.346-1.407 1.88-2.06.533-.653.973-1.297 1.32-1.93.346-.633.606-1.267.78-1.9.173-.633.26-1.303.26-2.01 0-1.16-.277-2.05-.83-2.67-.554-.62-1.397-.93-2.53-.93-.92 0-1.697.243-2.33.73-.634.487-1.07 1.09-1.31 1.81-.28.733-.647 1.22-1.1 1.46-.454.24-1.1.293-1.94.16l-3.28-.58c.213-1.453.623-2.72 1.23-3.8.606-1.08 1.36-1.98 2.26-2.7s1.93-1.257 3.09-1.61 2.406-.53 3.74-.53c1.44 0 2.736.21 3.89.63 1.153.42 2.136 1.003 2.95 1.75.813.747 1.436 1.637 1.87 2.67.433 1.033.65 2.17.65 3.41 0 1.067-.15 2.053-.45 2.96s-.71 1.77-1.23 2.59-1.124 1.613-1.81 2.38c-.687.767-1.417 1.543-2.19 2.33l-5.7 5.84c.733-.227 1.46-.4 2.18-.52s1.386-.18 2-.18zm5.44-15.22c.213-1.453.623-2.72 1.23-3.8.606-1.08 1.36-1.98 2.26-2.7s1.93-1.257 3.09-1.61 2.406-.53 3.74-.53c1.44 0 2.72.203 3.84.61s2.066.957 2.84 1.65c.773.693 1.36 1.497 1.76 2.41s.6 1.877.6 2.89c0 .92-.094 1.73-.28 2.43-.187.7-.464 1.307-.83 1.82-.367.513-.82.947-1.36 1.3s-1.157.65-1.85.89c3.226 1.133 4.84 3.333 4.84 6.6 0 1.547-.28 2.893-.84 4.04s-1.31 2.1-2.25 2.86-2.03 1.33-3.27 1.71-2.534.57-3.88.57c-1.387 0-2.62-.15-3.7-.45s-2.04-.767-2.88-1.4-1.577-1.443-2.21-2.43c-.634-.987-1.184-2.16-1.65-3.52l2.76-1.12c.72-.28 1.386-.353 2-.22.613.133 1.053.44 1.32.92.6 1.107 1.236 1.91 1.91 2.41.673.5 1.463.75 2.37.75.693 0 1.296-.117 1.81-.35.513-.233.94-.533 1.28-.9s.596-.783.77-1.25c.173-.467.26-.94.26-1.42 0-.627-.044-1.19-.13-1.69-.087-.5-.33-.93-.73-1.29s-1.004-.637-1.81-.83c-.807-.193-1.93-.29-3.37-.29v-4.28c1.213 0 2.193-.093 2.94-.28.746-.187 1.323-.443 1.73-.77.406-.327.676-.723.81-1.19.133-.467.2-.98.2-1.54 0-1.147-.277-2.03-.83-2.65-.554-.62-1.397-.93-2.53-.93-.92 0-1.697.243-2.33.73-.634.487-1.07 1.09-1.31 1.81-.28.733-.647 1.22-1.1 1.46-.454.24-1.1.293-1.94.16zm50.857-3.442c5.349 0 9.692 4.343 9.692 9.692s-4.343 9.692-9.692 9.692-9.692-4.343-9.692-9.692 4.343-9.692 9.692-9.692zm81.763 24.262h-10.52c-1.134 0-1.947-.427-2.44-1.28l-4.84-8.46c-.227-.36-.48-.623-.76-.79s-.68-.25-1.2-.25h-1.72v10.78h-6.76v-29.14h9.48c2.106 0 3.903.217 5.39.65 1.486.433 2.7 1.037 3.64 1.81s1.623 1.687 2.05 2.74c.426 1.053.64 2.2.64 3.44 0 .947-.127 1.84-.38 2.68-.254.84-.627 1.617-1.12 2.33-.494.713-1.104 1.35-1.83 1.91-.727.56-1.564 1.02-2.51 1.38.44.227.853.51 1.24.85.386.34.733.743 1.04 1.21l5.661 9.259 10.939-28.259h6.92l11.28 29.14h-5.24c-.587 0-1.06-.137-1.42-.41s-.634-.623-.82-1.05l-1.72-5.08h-11.08l-1.72 5.08c-.147.373-.41.71-.79 1.01s-.85.45-1.41.45zm13.46-11.14-2.7-7.98c-.2-.507-.414-1.103-.64-1.79-.227-.687-.454-1.43-.68-2.23-.2.813-.414 1.567-.64 2.26-.227.693-.44 1.293-.64 1.8l-2.68 7.94zm-32.22-4.3c.92 0 1.703-.117 2.35-.35.646-.233 1.176-.557 1.59-.97.413-.413.713-.897.9-1.45.186-.553.28-1.15.28-1.79 0-1.28-.417-2.28-1.25-3-.834-.72-2.124-1.08-3.87-1.08h-2.72v8.64zm-25.34-8.5v7.38h9.96v5.22h-9.96v11.34h-6.8v-29.14h18.76v5.2zm96.04-5.2v29.14h-3.52c-.52 0-.957-.083-1.31-.25-.354-.167-.704-.457-1.05-.87l-13.74-17.38c.053.52.09 1.023.11 1.51s.03.943.03 1.37v15.62h-5.96v-29.14h3.56c.293 0 .54.013.74.04s.38.077.54.15.313.177.46.31c.146.133.313.313.5.54l13.86 17.5c-.067-.56-.114-1.103-.14-1.63-.027-.527-.04-1.023-.04-1.49v-15.42zm25.28 21.6c.16 0 .32.03.48.09s.313.163.46.31l2.68 2.82c-1.174 1.533-2.644 2.69-4.41 3.47-1.767.78-3.857 1.17-6.27 1.17-2.214 0-4.197-.377-5.95-1.13-1.754-.753-3.24-1.793-4.46-3.12s-2.157-2.9-2.81-4.72c-.654-1.82-.98-3.797-.98-5.93 0-2.173.353-4.17 1.06-5.99.706-1.82 1.7-3.39 2.98-4.71s2.813-2.347 4.6-3.08c1.786-.733 3.753-1.1 5.9-1.1 1.093 0 2.123.097 3.09.29.966.193 1.87.46 2.71.8s1.613.75 2.32 1.23c.706.48 1.333 1 1.88 1.56l-2.28 3.06c-.147.187-.32.357-.52.51s-.48.23-.84.23c-.24 0-.467-.053-.68-.16-.214-.107-.44-.237-.68-.39s-.504-.32-.79-.5c-.287-.18-.627-.347-1.02-.5-.394-.153-.854-.283-1.38-.39-.527-.107-1.144-.16-1.85-.16-1.12 0-2.144.207-3.07.62-.927.413-1.727 1.017-2.4 1.81-.674.793-1.194 1.767-1.56 2.92-.367 1.153-.55 2.47-.55 3.95 0 1.493.203 2.82.61 3.98.406 1.16.96 2.137 1.66 2.93s1.516 1.397 2.45 1.81c.933.413 1.933.62 3 .62.613 0 1.173-.03 1.68-.09.506-.06.98-.16 1.42-.3s.853-.327 1.24-.56c.386-.233.78-.53 1.18-.89.16-.133.333-.243.52-.33.186-.087.38-.13.58-.13zm13.38-16.4v6.8h9.16v5h-9.16v6.94h11.96v5.2h-18.76v-29.14h18.76v5.2z" fill="#dd00cb"/></g></svg>