<svg xmlns="http://www.w3.org/2000/svg" xmlns:xlink="http://www.w3.org/1999/xlink" fill-rule="evenodd" stroke-linejoin="round" stroke-miterlimit="2" clip-rule="evenodd" viewBox="0 0 1926 1821"><title>Illustrative stamp for Los Angeles with palm trees</title><clipPath id="a"><path d="m16869.2 15843h1867.23v2203.52h-1867.23z" clip-rule="evenodd"/></clipPath><g><path fill="#1bb1ff" d="m578.162 413.862c.65-.183 1.301-.359 1.952-.53.336-.078.675-.491.871-1.059.204-.557.292-1.349.227-2.034l-1.024-11.723c.181-3.46.4-6.981.656-10.562.053.149.111.291.175.425.312.66.729 1.079 1.139 1.187.392.129.857-.042 1.251-.513.395-.473.698-1.225.847-2.039.369-1.904.571-3.814.606-5.73 1.231 2.033 2.126 5.288 2.741 9.663.103.83.365 1.645.732 2.204.356.542.795.817 1.205.793.361.001.761-.26 1.096-.748l3.236 37.021c.133 1.401-.057 3.029-.486 4.15-.411 1.148-1.122 1.955-1.812 2.056-22.393 3.958-44.792 17.091-64.85 38.022-.72.799-1.738.738-2.434-.146l-10.108-12.073c-.758-.841-1.306-2.8-1.279-4.576v-111.729c-.043-1.997.687-4.234 1.6-4.9 6.596-5.519 13.319-10.43 20.129-14.704.809-.564 1.864-.069 2.475 1.16l9.47 17.915c.258.473.42 1.237.415 1.95v19.266c-.011.25.117.533.239.528.12.039.265-.206.271-.456l1.373-20.772c1.249-.641 2.17-.906 3.003-.954-1.183 2.673-2.156 5.883-2.915 9.638-.185.83-.217 1.912-.058 2.897.156.959.484 1.765.875 2.222.357.459.864.664 1.35.475.267-.104.518-.322.735-.621l-4.199 63.503c-.065.829.112 1.807.424 2.344.299.571.791.806 1.181.565 2.287-1.284 4.583-2.494 6.889-3.629-.368-40.412.771-65.17 3.417-74.273-1.251 1.546-2.528 4.622-3.833 9.228-.1.422-.418.654-.625.454-.218-.134-.381-.745-.319-1.197.374-3.825 1.169-7.239 2.383-10.241-1.663 1.493-3.319 4.147-4.968 7.961-.349.807-.721 1.658-1.046 2.577-.139.395-.471.531-.661.257-.209-.209-.31-.889-.214-1.317.695-3.099 1.412-5.818 2.357-8.115.832-2.022 1.787-3.727 2.866-5.117-.964-.229-1.738-.453-2.49-.562-1.159-.168-2.267-.063-3.941.717-.34.159-.704.345-1.097.563-.201.139-.481-.099-.576-.491-.117-.366-.078-.985.081-1.277.567-1.042 1.179-1.991 1.856-2.783 1.135-1.33 2.453-2.218 4.049-2.361 1.332-.119 2.856.281 4.63 1.376-.183-3.053-.914-5.989-2.191-8.808-.154-.301-.184-.92-.062-1.278.1-.385.381-.607.581-.459 2.964 1.803 4.675 5.491 5.133 11.063 1.674-2.273 3.413-2.359 5.219-.26.185.188.303.729.25 1.14-.032.421-.246.816-.452.834-1.228.245-2.131.855-2.708 1.832 4.602 4.718 6.174 10.802 4.718 18.25-.064.369-.272.667-.461.661-.189.028-.405-.246-.478-.607-1.144-5.019-2.874-8.369-5.192-10.05 1.026 3.361-.316 7.853-.729 8.705-.146.302-.375.58-.571.44-.202-.095-.378-.571-.37-.999-.031-3.713.092-4.93-.6-7.651-1.879 6.587-2.348 30.108-1.406 70.564.3-.14.6-.279.901-.417.505-.173.977-1.279.997-2.336l.656-14.591c.019-1.067.501-2.183 1.013-2.343l4.13-1.703c.323-.137.695.025.964.418.274.378.481 1.038.535 1.709l1.076 12.308c.05 1.297.869 2.482 1.476 2.137 1.687-.597 3.377-1.154 5.07-1.671.685-11.532 1.71-22.939 3.077-34.222.199-1.642.405-3.282.618-4.919-.292.418-.598.918-.917 1.5-.616 1.125-1.28 2.558-1.993 4.299-.138.404-.504.5-.687.18-.207-.25-.284-.994-.146-1.398.486-1.746 1.133-3.539 1.941-5.38-2.287.246-4.834 1.871-7.64 4.876-.187.233-.496.108-.626-.253-.152-.323-.162-.974-.021-1.317 1.844-5.119 4.651-8.316 8.422-9.591-.881-2.748-2.714-5.139-5.497-7.175-.225-.124-.397-.758-.33-1.219.031-.478.314-.91.544-.832 1.587.274 3.172 1.335 4.755 3.183 1.109 1.295 2.218 2.978 3.325 5.047 2.214-4.591 4.772-5.945 7.673-4.065.357.232.719.512 1.087.841.201.151.348.706.301 1.138-.021.441-.245.873-.46.885-.226.042-.447.091-.664.146-2.368.604-4.211 1.999-5.53 4.185 3.256 1.681 5.457 4.37 6.601 8.067.82 2.651 1.097 5.82.831 9.508-.048.657-.123 1.329-.194 2.019-.045.432-.275.824-.487.806-.212.035-.45-.336-.503-.764-.983-7.935-3.092-12.573-5.96-13.961.53 3.263.427 6.493-.15 9.722-.074.42-.333.739-.544.652-.214-.032-.422-.486-.44-.929-.149-3.763-.744-6.842-1.615-9.246-.37 4.155-.695 8.235-.973 12.24-.609 8.759-.997 17.16-1.164 25.204zm-43.535-18.279c-.369.285-.847.144-1.163-.342-.326-.456-.548-1.342-.539-2.155l-.002-53.723c.011-.807-.204-1.689-.525-2.15-.311-.491-.784-.646-1.153-.378-4.578 3.084-9.113 6.461-13.59 10.123-.461.327-.832 1.453-.809 2.458v96.313c-.011.843.23 1.766.577 2.21.336.481.842.571 1.212.216 7.799-6.979 15.801-13.06 23.93-18.184.451-.243.851-1.213.895-2.17l2.359-35.669c.066-.838-.116-1.829-.436-2.364-.304-.571-.807-.792-1.198-.528-3.208 1.969-6.395 4.084-9.558 6.343zm14.964-60.492 1.045-15.816c.044-1.018.501-2.046.988-2.221 7.462-3.465 15.014-6.188 22.603-8.15.792-.246 1.718.473 2.234 1.737l8.256 19.203c.308.71.525 1.632.605 2.571l2.417 27.644c-2.736-1.389-5.204-.256-7.408 3.368-1.206-2.016-2.417-3.606-3.629-4.781l-3.405-38.951c-.052-1.269-.834-2.44-1.435-2.149-5.619 1.597-11.215 3.619-16.764 6.057-.493.164-.959 1.201-1.002 2.228l-.495 7.494c-1.54.052-2.855.71-4.01 1.766zm12.86 49.689c-.076.036-.167-.014-.223-.123-.059-.104-.093-.285-.085-.443l1.26-28.022c.002-.24.128-.488.244-.48.115-.029.251.196.263.435l2.32 26.542c.035.25-.078.59-.204.613zm6.101 91.465c.012-4.368.022-8.737.031-13.106-.678 3.511-1.348 7.029-2.012 10.552-.433.019-.867.038-1.301.058-.59-3.057-1.198-6.098-1.826-9.123-.004 3.873-.009 7.746-.014 11.619h-2.471v-24.624c.751-.371 1.497-.729 2.25-1.078.964 4.235 1.887 8.507 2.773 12.813.965-5.1 1.945-10.186 2.939-15.261.893-.353 1.781-.69 2.676-1.019-.034 9.724-.077 19.447-.132 29.169zm11.831-5.859c-1.385.077-2.77.157-4.154.242-.251 1.872-.5 3.744-.748 5.617h-3.483c1.506-10.336 3.082-20.628 4.669-30.913 1.199-.388 2.386-.757 3.587-1.12 1.718 10.64 3.344 21.341 4.984 32.033h-4.119c-.243-1.954-.489-3.907-.736-5.859zm-.996-7.811c-.336-2.572-.677-5.143-1.022-7.71-.366 2.664-.731 5.329-1.095 7.995.706-.098 1.411-.192 2.117-.285zm11.736 4.463c-.381.029-.763.057-1.144.086.057 3.041.119 6.081.185 9.121h-4.262c-.064-11.216-.104-22.434-.136-33.651 1.819-.527 3.638-1.056 5.453-1.636.914-.291 1.878-.167 2.714.701.836.869 1.467 2.396 1.903 4.082.559 2.164.842 4.604.973 7.028.126 2.308.119 4.695-.199 6.94-.268 1.885-.773 3.634-1.508 4.895 1.141 3.944 2.329 7.829 3.571 11.641h-5.035c-.858-3.047-1.694-6.117-2.515-9.207zm1.712-13.409c-.029-1.028-.138-2.139-.481-2.929-.308-.707-.779-.892-1.219-.793-.477.107-.953.212-1.43.315.037 2.669.077 5.337.119 8.005.493-.072.985-.145 1.478-.22.467-.07.937-.45 1.21-1.271.3-.901.353-2.044.323-3.107zm-49.347 16.619c.226-.638.447-1.289.624-1.992.105-.419.186-.883.185-1.361 0-.332-.04-.688-.164-.918-.116-.212-.277-.222-.418-.129-.442.294-.688 1.275-.879 2.071-.29-.222-.582-.421-.878-.597.208-.816.45-1.6.752-2.283.287-.651.652-1.149 1.047-1.474.365-.3.791-.344 1.128.127.398.557.49 1.637.491 2.563.001.693-.069 1.383-.192 2.026-.179.929-.443 1.777-.717 2.596-.29.865-.586 1.722-.889 2.566.652-.11 1.304-.218 1.957-.324l.003 2.843c-1.165.01-2.33.021-3.495.032l-.001-1.904c.503-1.246.984-2.53 1.446-3.842zm4.88 5.88c-.685 0-1.239-.938-1.54-2.155-.404-1.635-.514-3.498-.515-5.312-.002-1.893.13-3.806.511-5.542.311-1.413.844-2.664 1.563-3.204.629-.473 1.248-.043 1.563 1.197.467 1.838.505 4.005.498 6.034-.008 2.207-.106 4.472-.534 6.518-.277 1.322-.806 2.464-1.546 2.464zm-.726-11.546c-.189 1.182-.237 2.436-.237 3.674 0 1.198.037 2.423.234 3.561.115.662.353 1.366.732 1.317.407-.053.626-.888.736-1.603.199-1.285.241-2.647.244-3.988.003-1.261-.017-2.564-.228-3.763-.118-.665-.377-1.23-.74-1.009-.397.242-.619 1.049-.741 1.811zm5.087 2.526c.237-.944.468-1.898.647-2.896.118-.653.197-1.343.202-2.042.003-.515-.025-1.06-.156-1.51-.089-.307-.243-.508-.419-.413-.562.301-.754 1.972-.911 2.915-.291-.491-.588-.966-.891-1.427.205-1.182.445-2.353.79-3.394.262-.792.632-1.451 1.079-1.75.44-.294.864.139 1.13.88.423 1.177.47 2.75.461 4.161-.006 1.007-.077 2.013-.213 2.981-.181 1.289-.455 2.513-.744 3.712-.301 1.249-.607 2.493-.917 3.733.653-.084 1.307-.166 1.96-.244-.008 1.359-.016 2.719-.024 4.078-1.165.007-2.331.015-3.496.024.004-1.012.008-2.023.012-3.035.508-1.912 1.005-3.835 1.49-5.773zm3.004-7.84c.007-1.312.015-2.625.022-3.937.985-.602 1.944-1.169 2.932-1.742l-.002 3.475c-.315 1.858-.642 3.688-.985 5.524.459.182.735 1.076.89 1.916.24 1.293.316 2.69.316 4.066 0 1.886-.084 3.866-.526 5.554-.276 1.056-.739 2.004-1.354 2.004-.726 0-1.266-1.342-1.652-2.446.159-1.237.317-2.474.474-3.711.281.796.687 1.998 1.238 1.943.24-.024.429-.363.548-.77.183-.624.218-1.383.22-2.096s-.037-1.48-.238-2.085c-.152-.461-.407-.682-.674-.614-.251.063-.463.427-.656.729l.018-3.405c.33-1.711.647-3.413.956-5.141-.51.242-1.019.487-1.527.736z" transform="matrix(1.03147 0 0 .82627 -17400.1337 -13090.547) matrix(21.77 0 0 13.1637 5703.34 11777.3)"/></g></svg>