<svg clip-rule="evenodd" fill-rule="evenodd" stroke-linejoin="round" stroke-miterlimit="2" viewBox="0 0 356 524" xmlns="http://www.w3.org/2000/svg" xmlns:xlink="http://www.w3.org/1999/xlink"><title>Illustrative stamp for Chicago with the Bean, Hancock Tower and Willis Tower</title><clipPath id="a"><path clip-rule="evenodd" d="m.133.178h355.608v522.936h-355.608z"/></clipPath><path d="m.133.178h355.608v522.936h-355.608z" fill="none"/><g clip-path="url(#a)"><path d="m334.304 369.795c-1.436 2.682-4.778 3.693-7.459 2.257-2.681-1.435-3.693-4.778-2.257-7.459 13.663-25.519 20.755-53.727 20.092-78.689l-.004-.146.004-.146c.947-35.654-13.882-77.927-41.19-109.525-1.989-2.301-1.735-5.784.566-7.772 2.301-1.989 5.784-1.736 7.773.566 29.129 33.706 44.84 78.83 43.87 116.827.689 26.673-6.8 56.827-21.395 84.087zm-277.288-214.317c2.235-2.062 5.724-1.921 7.786.315s1.921 5.725-.314 7.787c-1.513 1.395-2.998 2.82-4.453 4.275-32.186 32.187-49.872 78.905-48.839 117.757l.004.146-.004.147c-.665 25.026 6.465 53.316 20.198 78.887 1.439 2.679.432 6.023-2.247 7.462s-6.023.432-7.462-2.248c-14.661-27.298-22.19-57.517-21.507-84.14-1.091-41.497 17.691-91.43 52.064-125.804 1.56-1.56 3.152-3.088 4.774-4.584zm56.108 319.93c-16.447 17.809-51.113 21.152-70.661 6.817-21.2-11.755-32.669-44.64-23.377-67.029 18.217-63.705 92.681-116.904 158.852-113.489 66.171-3.415 140.634 49.784 158.852 113.489 9.292 22.389-2.177 55.274-23.378 67.029-19.547 14.335-54.213 10.992-70.66-6.817-30.001-34.857-102.855-33.707-131.741 2.08zm12.941-133.472c-.834 9.27 30.09 18.988 55.437 17.422 25.703.301 52.65-10.852 48.309-19.992.834-9.269-30.09-18.987-55.437-17.422-25.703-.3-52.651 10.851-48.309 19.992zm62.743-54.982 8.993-76.359c.008-.081.018-.161.029-.242 3.066-26.031 5.762-48.93 7.459-63.337 1.181-10.027 1.877-15.941 1.877-15.936.111-1.897 1.142-3.841 2.739-5.2 1.244-1.059 2.783-1.721 4.284-1.872.069-1.584.135-3.087.135-3.077-.04-1.989.935-4.096 2.562-5.588 1.631-1.494 3.821-2.282 5.77-2.067l6.958.304 2.458-56.315c.088-2.025 1.805-3.598 3.83-3.51 2.026.089 3.599 1.805 3.51 3.831l-2.458 56.314 13.33.582 13.329.582 2.459-56.314c.089-2.026 1.805-3.599 3.831-3.51 2.025.088 3.598 1.804 3.51 3.83l-2.46 56.315c3.984.174 6.944.303 6.937.303 1.989-.04 4.096.935 5.588 2.562 1.494 1.631 2.281 3.821 2.067 5.77l-.135 3.1c1.49.283 2.961 1.076 4.105 2.236 1.471 1.491 2.328 3.516 2.275 5.387l.483 16.102c.001.038.002.077.003.115l5.443 181.557c-2.459-2.104-4.972-4.151-7.535-6.139l-.606-20.235-14.953 9.286c-2.319-1.475-4.666-2.902-7.038-4.278l13.434-8.343-32.586-1.423c-7.499-3.315-15.155-6.119-22.883-8.353l58.004 2.533-39.507-38.283-38.512 31.295c-5.586-.868-11.173-1.416-16.729-1.623zm28.733-155.502-2.536-.111c-.034-.002-.069-.004-.103-.006l-.412.353c-.003.034-.007.067-.011.1l-1.443 12.252 71.776 3.134-.37-12.331c-.001-.034-.001-.069-.001-.103l-.383-.386c-.033-.001-.067-.002-.1-.003l-2.536-.11-31.94-1.395zm-5.755 23.204-5.727 48.631 35.296-24.257zm21.177-33.575-10.764-.47c-.034-.002-.068-.004-.102-.006l-.423.386c-.001.034-.002.069-.003.104l-.139 3.176 28.27 1.235s18.417.804 28.27 1.234l.139-3.177c.001-.034.003-.069.006-.104l-.388-.421c-.035-.001-.069-.002-.103-.003l-10.763-.47-17-.743zm-21.998 93.914 33.512 32.472 36.215-29.428zm75.635-8.192-1.468-48.944-31.58 21.703zm-39.347-22.912-34.66 23.821 67.112 2.93zm-43.011 34.82-8.003 67.955 42.496-34.533zm84.873 72.009-2.05-68.393-37.274 30.289zm-69.38-139.034 27.919 23.014 29.819-20.493zm-171.473 189.89-.956-21.905c-.33-7.557-.66-15.125-.984-22.552-.337-7.726-.668-15.3-.985-22.551-.348-7.984-.68-15.577-.984-22.552-.375-8.599-.71-16.259-.984-22.552-.494-11.322-.792-18.222-.792-18.218-.213-1.978.574-4.163 2.065-5.79 1.495-1.631 3.608-2.606 5.568-2.562l27.089-1.183-1.809-41.433-.985-22.551c-.384-8.8-.719-16.457-.985-22.551-.427-9.79-.678-15.549-.677-15.546-.214-1.977.573-4.162 2.065-5.79 1.494-1.631 3.608-2.606 5.568-2.562l3.125-.137-3.697-84.706c-.089-2.026 1.484-3.742 3.509-3.831 2.026-.088 3.742 1.485 3.831 3.51l3.698 84.707c13.023-.569 35.13-1.534 48.144-2.102l-3.699-84.707c-.088-2.025 1.485-3.742 3.51-3.83 2.026-.089 3.742 1.484 3.831 3.51l3.698 84.707c1.976-.086 3.108-.135 3.106-.135 1.978-.214 4.162.573 5.79 2.065 1.631 1.494 2.606 3.607 2.562 5.567l1.664 38.117.985 22.553 2.954 67.654.985 22.552 1.755 40.215c-2.439.105-4.884.275-7.332.509l-.619-14.182-70.363 3.072.664 15.211 59.03-2.577c-10.536 1.83-21.055 4.788-31.348 8.723l-27.361 1.195.505 11.565c-6.286 3.595-12.4 7.544-18.286 11.805l-16.309.712.522 11.961c-2.414 2.145-4.771 4.345-7.068 6.595zm32.759-223.051.664 15.211 70.363-3.072-.664-15.211zm.984 22.552.665 15.211 70.362-3.072-.664-15.212zm-4.386 67.974-27.225 1.189c-.034.002-.069.003-.104.003l-.386.423c.002.035.004.069.006.103l.641 14.705 27.732-1.211zm79.352 34.371-.664-15.211-70.363 3.072.664 15.211zm-69.379-145.1-6.932.302c-.035.002-.069.003-.103.003l-.388.422c.002.035.004.069.006.104l.525 12.032 70.363-3.073-.525-12.032c-.002-.034-.003-.069-.003-.103l-.423-.387c-.034.003-.069.005-.103.006l-6.932.303zm68.394 122.548-.664-15.211-70.363 3.072.665 15.211zm-72.011-34.69.664 15.211 70.363-3.072-.665-15.211zm73.98 79.794-.664-15.211-70.362 3.071.664 15.212zm-74.965-102.346.664 15.211 70.363-3.072-.664-15.211zm-31.134 91.738.663 15.211 27.734-1.211-.665-15.211zm-.984-22.552.663 15.211 27.733-1.211-.664-15.211zm3.616 82.866 27.734-1.211-.664-15.211-27.734 1.211zm-1.648-37.762.664 15.211 27.733-1.211-.664-15.211zm97.385 191.907v21.69h-3.555v-14.01c0-.56.03-1.165.09-1.815l-6.555 12.315c-.31.59-.785.885-1.425.885h-.57c-.64 0-1.115-.295-1.425-.885l-6.63-12.36c.03.33.055.655.075.975s.03.615.03.885v14.01h-3.555v-21.69h3.045c.18 0 .335.005.465.015s.248.035.353.075.2.105.285.195.167.21.247.36l6.495 12.045c.17.32.328.65.473.99s.287.69.427 1.05c.14-.37.285-.728.435-1.073s.31-.677.48-.997l6.405-12.015c.08-.15.165-.27.255-.36s.188-.155.293-.195.222-.065.352-.075.285-.015.465-.015zm21.645 21.69h-3.12c-.35 0-.635-.088-.855-.263s-.385-.392-.495-.652l-1.62-4.425h-8.985l-1.62 4.425c-.08.23-.235.44-.465.63s-.515.285-.855.285h-3.15l8.535-21.69h4.11zm-7.125-8.19-2.64-7.215c-.13-.32-.265-.7-.405-1.14s-.28-.915-.42-1.425c-.13.51-.265.987-.405 1.432s-.275.833-.405 1.163l-2.625 7.185zm24.54 8.19h-3.645c-.69 0-1.19-.27-1.5-.81l-4.56-6.945c-.17-.26-.357-.445-.562-.555s-.508-.165-.908-.165h-1.725v8.475h-4.035v-21.69h6.615c1.47 0 2.733.152 3.788.457s1.92.733 2.595 1.283 1.172 1.207 1.492 1.972.48 1.608.48 2.528c0 .73-.107 1.42-.322 2.07s-.525 1.24-.93 1.77-.905.995-1.5 1.395-1.273.715-2.033.945c.26.15.5.327.72.532s.42.448.6.728zm-10.38-11.37c.76 0 1.423-.095 1.988-.285s1.03-.453 1.395-.788.637-.732.817-1.192.27-.965.27-1.515c0-1.1-.362-1.945-1.087-2.535s-1.833-.885-3.323-.885h-2.58v7.2zm18.855-10.32v4.32l-.33 2.34c-.08.44-.21.777-.39 1.012s-.48.353-.9.353c-.37 0-.655-.118-.855-.353s-.34-.572-.42-1.012l-.33-2.34v-4.32zm14.505 18.24c.4 0 .718.112.953.337s.352.523.352.893v2.22h-14.88v-1.23c0-.25.053-.513.158-.788s.272-.522.502-.742l6.585-6.6c.55-.56 1.043-1.095 1.478-1.605s.797-1.015 1.087-1.515.513-1.008.668-1.523.232-1.057.232-1.627c0-.52-.075-.978-.225-1.373s-.362-.727-.637-.997-.605-.473-.99-.608-.818-.202-1.298-.202c-.44 0-.847.062-1.222.187s-.708.3-.998.525-.535.488-.735.788-.35.63-.45.99c-.17.46-.39.765-.66.915s-.66.185-1.17.105l-1.95-.345c.15-1.04.44-1.953.87-2.738s.968-1.44 1.613-1.965 1.385-.92 2.22-1.185 1.732-.397 2.692-.397c1 0 1.915.147 2.745.442s1.54.713 2.13 1.253 1.05 1.19 1.38 1.95.495 1.605.495 2.535c0 .8-.117 1.54-.352 2.22s-.55 1.33-.945 1.95-.858 1.22-1.388 1.8-1.085 1.17-1.665 1.77l-4.89 4.995c.47-.14.938-.248 1.403-.323s.907-.112 1.327-.112zm2.535-12.195c.15-1.04.44-1.953.87-2.738s.968-1.44 1.613-1.965 1.385-.92 2.22-1.185 1.732-.397 2.692-.397c1 0 1.903.142 2.708.427s1.492.68 2.062 1.185 1.008 1.098 1.313 1.778.457 1.415.457 2.205c0 .69-.077 1.297-.232 1.822s-.378.983-.668 1.373-.65.72-1.08.99-.915.495-1.455.675c1.3.41 2.27 1.035 2.91 1.875s.96 1.895.96 3.165c0 1.08-.2 2.035-.6 2.865s-.94 1.527-1.62 2.092-1.467.993-2.362 1.283-1.843.435-2.843.435c-1.09 0-2.04-.125-2.85-.375s-1.515-.62-2.115-1.11-1.11-1.09-1.53-1.8-.78-1.53-1.08-2.46l1.635-.675c.43-.18.833-.228 1.208-.143s.647.288.817.608c.18.35.378.695.593 1.035s.472.642.772.907.653.48 1.058.645.887.248 1.447.248c.63 0 1.18-.103 1.65-.308s.863-.472 1.178-.802.55-.698.705-1.103.232-.812.232-1.222c0-.52-.055-.993-.165-1.418s-.34-.787-.69-1.087-.852-.535-1.507-.705-1.533-.255-2.633-.255v-2.64c.91-.01 1.665-.095 2.265-.255s1.078-.383 1.433-.668.602-.627.742-1.027.21-.84.21-1.32c0-1.02-.285-1.795-.855-2.325s-1.33-.795-2.28-.795c-.44 0-.845.062-1.215.187s-.702.3-.997.525-.543.488-.743.788-.35.63-.45.99c-.17.46-.392.765-.667.915s-.663.185-1.163.105zm-105.433 40.196c.144 0 .288.027.432.081s.282.147.414.279l2.412 2.538c-1.056 1.38-2.379 2.421-3.969 3.123s-3.471 1.053-5.643 1.053c-1.992 0-3.777-.339-5.355-1.017s-2.916-1.614-4.014-2.808-1.941-2.61-2.529-4.248-.882-3.417-.882-5.337c0-1.956.318-3.753.954-5.391s1.53-3.051 2.682-4.239 2.532-2.112 4.14-2.772 3.378-.99 5.31-.99c.984 0 1.911.087 2.781.261s1.683.414 2.439.72 1.452.675 2.088 1.107 1.2.9 1.692 1.404l-2.052 2.754c-.132.168-.288.321-.468.459s-.432.207-.756.207c-.216 0-.42-.048-.612-.144s-.396-.213-.612-.351-.453-.288-.711-.45-.564-.312-.918-.45-.768-.255-1.242-.351-1.029-.144-1.665-.144c-1.008 0-1.929.186-2.763.558s-1.554.915-2.16 1.629-1.074 1.59-1.404 2.628-.495 2.223-.495 3.555c0 1.344.183 2.538.549 3.582s.864 1.923 1.494 2.637 1.365 1.257 2.205 1.629 1.74.558 2.7.558c.552 0 1.056-.027 1.512-.081s.882-.144 1.278-.27.768-.294 1.116-.504.702-.477 1.062-.801c.144-.12.3-.219.468-.297s.342-.117.522-.117zm28.818-19.44v26.226h-6.12v-11.088h-10.656v11.088h-6.12v-26.226h6.12v10.962h10.656v-10.962zm11.196 26.226h-6.12v-26.226h6.12zm23.922-21.402h-7.38v21.402h-6.084v-21.402h-7.38v-4.824h20.844zm28.206 8.28c0 1.896-.327 3.66-.981 5.292s-1.575 3.051-2.763 4.257-2.619 2.151-4.293 2.835-3.531 1.026-5.571 1.026-3.9-.342-5.58-1.026-3.117-1.629-4.311-2.835-2.118-2.625-2.772-4.257-.981-3.396-.981-5.292.327-3.66.981-5.292 1.578-3.048 2.772-4.248 2.631-2.142 4.311-2.826 3.54-1.026 5.58-1.026 3.897.345 5.571 1.035 3.105 1.635 4.293 2.835 2.109 2.616 2.763 4.248.981 3.39.981 5.274zm-6.228 0c0-1.296-.168-2.463-.504-3.501s-.819-1.917-1.449-2.637-1.401-1.272-2.313-1.656-1.95-.576-3.114-.576c-1.176 0-2.223.192-3.141.576s-1.692.936-2.322 1.656-1.113 1.599-1.449 2.637-.504 2.205-.504 3.501c0 1.308.168 2.481.504 3.519s.819 1.917 1.449 2.637 1.404 1.269 2.322 1.647 1.965.567 3.141.567c1.164 0 2.202-.189 3.114-.567s1.683-.927 2.313-1.647 1.113-1.599 1.449-2.637.504-2.211.504-3.519zm44.856-13.104-8.1 26.226h-5.508l-4.932-16.254c-.096-.252-.186-.531-.27-.837s-.168-.627-.252-.963c-.084.336-.168.657-.252.963s-.174.585-.27.837l-5.004 16.254h-5.508l-8.1-26.226h5.112c.528 0 .969.12 1.323.36s.585.558.693.954l3.6 13.68c.108.432.216.903.324 1.413s.216 1.041.324 1.593c.216-1.128.48-2.13.792-3.006l4.248-13.68c.108-.336.339-.639.693-.909s.783-.405 1.287-.405h1.8c.528 0 .954.123 1.278.369s.57.561.738.945l4.212 13.68c.312.84.576 1.794.792 2.862.096-.54.195-1.047.297-1.521s.207-.921.315-1.341l3.6-13.68c.096-.348.324-.654.684-.918s.792-.396 1.296-.396zm25.506 0v26.226h-3.168c-.468 0-.861-.075-1.179-.225s-.633-.411-.945-.783l-12.366-15.642c.048.468.081.921.099 1.359s.027.849.027 1.233v14.058h-5.364v-26.226h3.204c.264 0 .486.012.666.036s.342.069.486.135.282.159.414.279.282.282.45.486l12.474 15.75c-.06-.504-.102-.993-.126-1.467s-.036-.921-.036-1.341v-13.878z" fill="#47c800"/></g></svg>