<svg clip-rule="evenodd" fill-rule="evenodd" stroke-linejoin="round" stroke-miterlimit="2" viewBox="0 0 383 470" xmlns="http://www.w3.org/2000/svg"><title>Illustrative stamp for New York City with the Statue of Liberty</title><path d="m.189.178h382.536v469.152h-382.536z" fill="none"/><path d="m93.442 469.306h-57.299c-8.385.222-18.471-3.583-25.417-10.528-6.945-6.946-10.751-17.033-10.528-25.417v-310.616c-.223-8.384 3.583-18.471 10.528-25.416 6.946-6.946 17.032-10.751 25.417-10.528h19.519c.321 1.072.692 2.126 1.113 3.155l10.415 25.6h-22.557c-8.654 0-15.679 6.901-15.679 15.4v246.47c0 8.499 7.025 15.399 15.679 15.399h56.598zm-19.564-35.793 7.392-12.642h-4.2c-.196 0-.375.03-.539.091-.163.061-.308.14-.434.238s-.235.208-.329.329c-.093.121-.172.243-.238.364l-2.856 5.936c-.242.457-.455.889-.637 1.295s-.343.81-.483 1.211c-.149-.392-.322-.791-.518-1.197s-.415-.842-.658-1.309l-2.884-5.936c-.158-.299-.357-.544-.595-.735s-.562-.287-.973-.287h-4.172l7.392 12.642v7.756h4.732zm-9.156 7.756-7.896-20.398h-4.844l-7.896 20.398h3.696c.392 0 .721-.105.987-.315s.451-.446.553-.707l1.204-3.556h7.756l1.204 3.556c.131.299.322.544.574.735s.584.287.994.287zm-7.518-7.798h-5.586l1.876-5.558c.14-.355.29-.775.448-1.26.159-.485.308-1.013.448-1.582.159.56.318 1.08.476 1.561.159.481.308.898.448 1.253zm-14.728-12.6h-3.612c-.205 0-.385.005-.539.014s-.291.037-.413.084c-.121.047-.231.119-.329.217s-.193.236-.287.413l-5.236 10.304c-.196.355-.38.728-.553 1.12-.172.392-.338.793-.497 1.204-.158-.401-.324-.793-.497-1.176-.172-.383-.352-.751-.539-1.106l-5.25-10.346c-.093-.177-.189-.315-.287-.413s-.207-.17-.329-.217c-.121-.047-.259-.075-.413-.084s-.333-.014-.539-.014h-3.612v20.398h4.172v-11.732c0-.271-.009-.567-.028-.889-.018-.322-.042-.651-.07-.987l5.418 10.514c.168.327.395.574.679.742.285.168.609.252.973.252h.644c.364 0 .689-.084.973-.252.285-.168.511-.415.679-.742l5.418-10.486c-.037.327-.063.649-.077.966s-.021.611-.021.882v11.732h4.172zm228.489-334.07h75.794c8.384-.223 18.47 3.582 25.416 10.528 6.946 6.945 10.751 17.032 10.528 25.416v310.616c.223 8.384-3.582 18.471-10.528 25.417-6.946 6.945-17.032 10.75-25.416 10.528h-57.313l-7.818-76.481h56.641c8.653 0 15.679-6.9 15.679-15.399v-246.47c0-8.499-7.026-15.4-15.679-15.4h-79.685l2.435-1.243c3.816-1.876 7.589-5.467 9.712-10.012 1.974-4.224 2.445-9.015 1.579-13.265-.011-.055-.022-.109-.034-.163-.009-.041-.017-.082-.026-.122-.005-.024-.01-.048-.015-.072-.288-1.307-.714-2.611-1.27-3.878zm43.515 350.548h-3.808c-.429 0-.896.042-1.4.126s-1.012.205-1.526.364l3.99-4.088c.542-.551 1.053-1.094 1.533-1.631.481-.537.903-1.092 1.267-1.666s.651-1.178.861-1.813.315-1.325.315-2.072c0-.868-.151-1.664-.455-2.387-.303-.723-.739-1.346-1.309-1.869-.569-.523-1.257-.931-2.065-1.225-.807-.294-1.715-.441-2.723-.441-.933 0-1.806.124-2.618.371s-1.533.623-2.163 1.127-1.157 1.134-1.582 1.89c-.424.756-.711 1.643-.861 2.66l2.296.406c.588.093 1.041.056 1.358-.112.318-.168.574-.509.77-1.022.168-.504.474-.926.917-1.267.444-.341.987-.511 1.631-.511.794 0 1.384.217 1.771.651.388.434.581 1.057.581 1.869 0 .495-.06.964-.182 1.407-.121.443-.303.887-.546 1.33-.242.443-.55.894-.924 1.351-.373.457-.812.938-1.316 1.442l-5.88 5.922c-.28.252-.476.532-.588.84s-.168.597-.168.868v1.4h14.336v-2.52c0-.42-.135-.758-.406-1.015-.27-.257-.639-.385-1.106-.385zm36.288-10.654 2.296.406c.588.093 1.041.056 1.358-.112.318-.168.574-.509.77-1.022.168-.504.474-.926.917-1.267.444-.341.987-.511 1.631-.511.794 0 1.384.217 1.771.651.388.434.581 1.052.581 1.855 0 .392-.046.751-.14 1.078-.093.327-.282.604-.567.833-.284.229-.688.408-1.211.539-.522.131-1.208.196-2.058.196v2.996c1.008 0 1.795.068 2.359.203.565.135.987.329 1.267.581s.451.553.511.903c.061.35.091.744.091 1.183 0 .336-.06.667-.182.994-.121.327-.301.618-.539.875s-.536.467-.896.63c-.359.163-.781.245-1.267.245-.634 0-1.187-.175-1.659-.525-.471-.35-.917-.912-1.337-1.687-.186-.336-.494-.551-.924-.644-.429-.093-.896-.042-1.4.154l-1.932.784c.327.952.712 1.773 1.155 2.464.444.691.959 1.258 1.547 1.701s1.26.77 2.016.98 1.62.315 2.59.315c.943 0 1.848-.133 2.716-.399s1.631-.665 2.289-1.197 1.183-1.199 1.575-2.002.588-1.745.588-2.828c0-2.287-1.129-3.827-3.388-4.62.486-.168.917-.376 1.295-.623s.696-.551.952-.91c.257-.359.451-.784.581-1.274.131-.49.196-1.057.196-1.701 0-.709-.14-1.384-.42-2.023s-.69-1.202-1.232-1.687c-.541-.485-1.204-.87-1.988-1.155s-1.68-.427-2.688-.427c-.933 0-1.806.124-2.618.371s-1.533.623-2.163 1.127-1.157 1.134-1.582 1.89c-.424.756-.711 1.643-.861 2.66zm-3.808 10.654h-3.808c-.429 0-.896.042-1.4.126s-1.012.205-1.526.364l3.99-4.088c.542-.551 1.053-1.094 1.533-1.631.481-.537.903-1.092 1.267-1.666s.651-1.178.861-1.813.315-1.325.315-2.072c0-.868-.151-1.664-.455-2.387-.303-.723-.739-1.346-1.309-1.869-.569-.523-1.257-.931-2.065-1.225-.807-.294-1.715-.441-2.723-.441-.933 0-1.806.124-2.618.371s-1.533.623-2.163 1.127-1.157 1.134-1.582 1.89c-.424.756-.711 1.643-.861 2.66l2.296.406c.588.093 1.041.056 1.358-.112.318-.168.574-.509.77-1.022.168-.504.474-.926.917-1.267.444-.341.987-.511 1.631-.511.794 0 1.384.217 1.771.651.388.434.581 1.057.581 1.869 0 .495-.06.964-.182 1.407-.121.443-.303.887-.546 1.33-.242.443-.55.894-.924 1.351-.373.457-.812.938-1.316 1.442l-5.88 5.922c-.28.252-.476.532-.588.84s-.168.597-.168.868v1.4h14.336v-2.52c0-.42-.135-.758-.406-1.015-.27-.257-.639-.385-1.106-.385zm-14.224-6.286c0-1.783-.191-3.327-.574-4.634-.382-1.307-.912-2.389-1.589-3.248-.676-.859-1.479-1.496-2.408-1.911-.928-.415-1.934-.623-3.017-.623-1.082 0-2.083.208-3.003.623-.919.415-1.715 1.052-2.387 1.911s-1.197 1.941-1.575 3.248-.567 2.851-.567 4.634.189 3.327.567 4.634.903 2.389 1.575 3.248 1.468 1.498 2.387 1.918c.92.42 1.921.63 3.003.63 1.083 0 2.089-.21 3.017-.63.929-.42 1.732-1.059 2.408-1.918.677-.859 1.207-1.941 1.589-3.248.383-1.307.574-2.851.574-4.634zm-4.48 0c0 1.419-.088 2.576-.266 3.472-.177.896-.413 1.603-.707 2.121s-.627.873-1.001 1.064c-.373.191-.751.287-1.134.287-.382 0-.758-.096-1.127-.287-.368-.191-.695-.546-.98-1.064-.284-.518-.513-1.225-.686-2.121-.172-.896-.259-2.053-.259-3.472 0-1.409.087-2.564.259-3.465.173-.901.402-1.608.686-2.121.285-.513.612-.866.98-1.057.369-.191.745-.287 1.127-.287.383 0 .761.096 1.134.287.374.191.707.544 1.001 1.057s.53 1.22.707 2.121c.178.901.266 2.056.266 3.465zm-216.313 38.207-.007.001 14.501-142.406c-.639-.07-1.255-.292-1.723-.648-.998-.713-1.624-2.118-1.484-3.334 0 0 7.997-78.536 7.997-78.529.107-1.295 1.122-2.624 2.334-3.066.555-.214 1.107-.43 1.657-.647l1.014-9.96c-13.856-6.706-24.304-14.758-31.385-24.106-.641-.727-1.247-1.569-1.806-2.52-.092-.136-.184-.273-.276-.411l.03-.019c-1.227-2.218-2.199-4.983-2.754-8.216-1.321-7.703-.27-18.189 2.239-26.533 1.17-4.262 2.967-8.843 5.147-13.124-3.951-11.539-8.209-25.158-12.769-40.859l-.556 1.369c-.501 1.301-2.042 2.332-3.383 2.295-1.383.012-2.898-1.017-3.383-2.296l-13.534-33.265c-.804-1.967-1.227-4.13-1.223-6.251v-7.573c-1.722-1.388-4.39-3.538-4.39-3.538-3.784-2.943-6.263-8.119-6.187-12.868-.037-.916.356-1.902 1.073-2.619.73-.73 1.74-1.125 2.638-1.072l9.973.002c-9.028-8.767-8.441-18.327-5.196-24.464 1.391-2.632 3.318-4.655 5.409-7.032 2.786-3.166 5.857-7.071 7.968-14.678.182-.756.669-1.487 1.345-1.993.67-.502 1.501-.762 2.229-.729.765-.002 1.575.285 2.222.802.66.529 1.123 1.278 1.282 2.051.98 4.048 1.939 6.919 2.897 8.77.29.56.731 1.123.989 1.432.236-.283.62-.772.857-1.218.257-.482.507-1.035.752-1.651.423-1.095 1.539-2.022 2.694-2.238 1.149-.23 2.528.209 3.33 1.064 5.305 5.532 9.618 12.368 10.265 20.18.496 5.995-1.128 12.621-6.264 19.708h9.771l2.277.95.914 2.256.007.409c.087 4.801-2.395 9.989-6.186 12.938l-2.784 2.244c4.112 2.707 6.468 6.034 7.132 10.488.606 4.062-.344 9.196-.914 12.973-.505 3.343-.586 5.483 1.479 12.705 2.157 7.539 6.587 20.34 17.551 34.777 4.28 2.83 9.307 9.242 15.345 15.105 2.291 2.225 4.735 4.376 7.364 6.166 1.817-3.234 3.215-5.741 4.272-7.673-.355.153-.714.294-1.076.422-1.889.665-3.837.921-5.561.476-2.255-.581-4.206-2.364-5.298-4.629-1.079-2.239-1.299-4.9-.333-7.15.722-1.681 2.141-3.161 3.849-4.383 1.873-1.34 4.085-2.383 5.702-3.166-.342-.223-.721-.462-1.113-.693-1.671-.983-3.931-2.281-5.477-3.826-1.402-1.4-2.245-3.021-2.226-4.739.013-1.195.42-2.485 1.508-3.821 1.082-1.329 2.974-2.8 6.038-4.32.309-1.188.712-2.361 1.2-3.513-6.965-3.557-29.72-15.179-29.697-15.168-.573-.269-1.082-.771-1.373-1.394-.281-.601-.345-1.287-.204-1.886.007-.026.013-.053.02-.079.145-.573.491-1.13.982-1.531.532-.435 1.207-.666 1.812-.661l24.334-.569c-6.361-8.371-14.72-19.37-14.707-19.354-.4-.492-.642-1.166-.634-1.854.008-.664.248-1.31.635-1.788.38-.483.956-.861 1.602-1.016.667-.161 1.375-.077 1.919.191l22.171 10.045c-2.016-9.891-4.858-23.838-4.852-23.814-.149-.618-.074-1.332.232-1.949.296-.595.792-1.073 1.348-1.335.025-.012.05-.023.075-.035.538-.244 1.188-.321 1.809-.187.671.145 1.273.529 1.646 1.005l15.617 18.67c2.337-9.24 5.967-23.586 5.962-23.563.134-.621.511-1.23 1.054-1.653.525-.408 1.179-.623 1.793-.618.028 0 .055 0 .082.001.591.014 1.211.227 1.712.617.541.421.917 1.028 1.047 1.619l5.97 23.597c6.066-7.252 15.61-18.662 15.597-18.645.39-.499.993-.885 1.666-1.03.649-.14 1.332-.05 1.884.222.025.012.049.024.073.036.526.269.992.73 1.274 1.299.305.614.38 1.324.241 1.912l-4.86 23.851c9.022-4.088 22.161-10.04 22.141-10.031.569-.281 1.28-.366 1.949-.205.645.155 1.222.533 1.601 1.016.387.478.627 1.124.635 1.788.008.686-.232 1.359-.613 1.828l-14.727 19.38c10.357.242 24.322.569 24.301.569.634-.006 1.311.225 1.844.661.515.42.87 1.01 1.002 1.611.006.026.011.053.017.079.118.579.048 1.231-.221 1.806-.29.622-.798 1.124-1.345 1.381l-29.725 15.181c.488 1.152.891 2.325 1.201 3.513 3.064 1.52 4.955 2.991 6.038 4.32 1.087 1.336 1.494 2.626 1.507 3.821.019 1.718-.824 3.339-2.225 4.739-1.547 1.545-3.806 2.843-5.478 3.826-.392.231-.771.47-1.113.693 1.617.783 3.83 1.826 5.702 3.166 1.708 1.222 3.128 2.702 3.85 4.383.965 2.25.746 4.911-.334 7.15-1.091 2.265-3.043 4.048-5.298 4.629-1.724.445-3.672.189-5.561-.476-.361-.128-.721-.269-1.075-.421 1.014 1.854 2.344 4.24 4.057 7.289l2.542.066.052.004c3.664.271 7.266 1.222 10.678 2.598 3.322 1.34 6.463 3.079 9.412 5.11 1.034.691 1.702 2.112 1.575 3.349-.065.735-.131 1.466-.199 2.193 4.923 3.993 9.287 8.837 13.053 13.881 2.326 3.115 4.428 6.3 6.87 10.991.782-1.777 1.219-2.768 1.218-2.766.328-.867 1.093-1.626 2.049-1.998.951-.369 2.021-.329 2.846.082l.004.002c.006.003.014.007.025.012 1.149.505 35.511 15.626 35.497 15.621.866.328 1.625 1.093 1.997 2.049.374.962.328 2.046-.082 2.846 0 0-39.805 90.448-39.799 90.434-.329.866-1.093 1.625-2.049 1.997-.963.374-2.046.328-2.847-.082 0 0-6.212-2.734-13.441-5.915l17.265 168.899-.005.001.029.232h-159.019l.006-.045zm105.907-300.503c-3.029.96-6.104 2.628-9.185 5.187-5.348 5.05-13.766 7.608-20.982 6.392-6.913-.907-13.831-5.373-17.627-11.285-8.609-.674-15.891-5.977-22.068-11.974-2.266-2.202-4.374-4.495-6.345-6.632.054.272.105.547.153.826 1.322 7.703.27 18.189-2.239 26.533-2.299 8.373-7.015 17.979-12.311 24.12-3.361 3.898-6.977 6.435-10.207 7.607-1.069.388-2.105.63-3.091.735 6.341 6.278 14.555 11.818 24.612 16.638 1.325.581 2.288 2.29 2.106 3.709l-.829 8.136c37.921-15.94 63.952-39.243 78.013-69.992zm-54.25-53.096c-.074.201-.144.403-.212.606 1.463.119 2.957.103 4.458-.038l-.001-.036 1.946-.265c.703-.095 1.406-.222 2.106-.378 2.741-.658 5.428-1.706 7.91-3.079 3.919-2.217 7.373-5.308 9.782-8.913l.028-.042 1.834-2.899 1.833 2.899.028.042c2.41 3.606 5.865 6.698 9.786 8.915 2.478 1.37 5.161 2.417 7.898 3.075.703.157 1.408.284 2.114.38l1.946.265v.036c1.5.141 2.994.157 4.457.038-.067-.203-.138-.406-.212-.607l-1.822-3.573c-.649-1.271-1.428-2.494-2.316-3.657-2.238-2.812-5.036-5.293-8.128-7.238-4.734-2.901-10.234-4.58-15.453-4.421l-.059.002-.072.004-.073-.004-.059-.002c-5.22-.159-10.721 1.521-15.456 4.423-3.088 1.943-5.884 4.421-8.12 7.23-.891 1.165-1.671 2.39-2.32 3.663zm42.04-20.157c4.316 2.015 8.288 4.897 11.418 8.354-.929-5.793-3.651-11.42-7.262-15.781-3.277-3.959-7.291-6.893-11.422-7.813l-.122-.027-.117-.041c-5.703-1.965-13.322-1.108-19.383 2.832-6.181 4.019-10.76 11.229-12.212 17.982l-.006.026c-.205.852-.38 1.731-.521 2.633 3.112-3.384 7.034-6.206 11.284-8.185 4.549-2.193 9.444-3.37 14.138-3.117 4.715-.257 9.636.928 14.205 3.137zm-35.504 314.181h-8.94v23.13c0 .7.02 1.445.06 2.235s.11 1.605.21 2.445l-20.79-26.25c-.28-.34-.53-.61-.75-.81s-.45-.355-.69-.465-.51-.185-.81-.225-.67-.06-1.11-.06h-5.34v43.71h8.94v-23.43c0-.64-.015-1.325-.045-2.055s-.085-1.485-.165-2.265l20.61 26.07c.52.62 1.045 1.055 1.575 1.305s1.185.375 1.965.375h5.28zm-103.716-356.215c.172 3.281 1.917 6.697 4.505 8.701l4.633 3.735h15.161 15.16l4.633-3.735.017-.013c2.571-1.992 4.315-5.403 4.488-8.682h-24.298zm144.763 26.777 4.333-21.262-13.922 16.645.278 1.099c2.528.958 4.999 2.478 7.291 4.433zm-11.647 356.528 15.84-27.09h-9c-.42 0-.805.065-1.155.195s-.66.3-.93.51-.505.445-.705.705-.37.52-.51.78l-6.12 12.72c-.52.98-.975 1.905-1.365 2.775s-.735 1.735-1.035 2.595c-.32-.84-.69-1.695-1.11-2.565s-.89-1.805-1.41-2.805l-6.18-12.72c-.34-.64-.765-1.165-1.275-1.575s-1.205-.615-2.085-.615h-8.94l15.84 27.09v16.62h10.14zm21.23-336.632c.72 2.824 1.091 5.721 1.035 8.588l23.724-12.116-21.693-.507zm13.214 186.553 34.266 15.08 39.245-89.175-34.267-15.08zm-37.747-211.522.539-.645-5.321-21.037-5.322 21.037.602.719c3.255-.589 6.513-.604 9.502-.074zm49.263 366.911c-.3 0-.59.065-.87.195s-.54.295-.78.495c-.6.54-1.19.985-1.77 1.335s-1.2.63-1.86.84-1.37.36-2.13.45-1.6.135-2.52.135c-1.6 0-3.1-.31-4.5-.93s-2.625-1.525-3.675-2.715-1.88-2.655-2.49-4.395-.915-3.73-.915-5.97c0-2.22.275-4.195.825-5.925s1.33-3.19 2.34-4.38 2.21-2.095 3.6-2.715 2.925-.93 4.605-.93c1.06 0 1.985.08 2.775.24s1.48.355 2.07.585 1.1.48 1.53.75.825.52 1.185.75.7.425 1.02.585.66.24 1.02.24c.54 0 .96-.115 1.26-.345s.56-.485.78-.765l3.42-4.59c-.82-.84-1.76-1.62-2.82-2.34s-2.22-1.335-3.48-1.845-2.615-.91-4.065-1.2-2.995-.435-4.635-.435c-3.22 0-6.17.55-8.85 1.65s-4.98 2.64-6.9 4.62-3.41 4.335-4.47 7.065-1.59 5.725-1.59 8.985c0 3.2.49 6.165 1.47 8.895s2.385 5.09 4.215 7.08 4.06 3.55 6.69 4.68 5.605 1.695 8.925 1.695c3.62 0 6.755-.585 9.405-1.755s4.855-2.905 6.615-5.205l-4.02-4.23c-.22-.22-.45-.375-.69-.465s-.48-.135-.72-.135zm-117.752-120.066c44.802-20.125 72.077-37.016 89.04-59.314 17.006-22.353 23.579-50.107 27.316-91.84-2.581-1.745-5.319-3.247-8.209-4.412-2.976-1.2-6.112-2.045-9.306-2.287l-1.98-.051c-14.346 36.534-43.978 63.605-89.04 81.111zm-2.381-124.77c-4.518-6.7-9.812-18.557-15.867-35.577-1.217 2.818-2.235 5.685-2.982 8.412l-.008.026c-2.324 7.716-3.346 17.417-2.123 24.544.474 2.763 1.283 5.118 2.333 6.963.491.723 1.002 1.437 1.533 2.144.953 1.047 2.001 1.746 3.117 1.941l.122.022.119.035c1.126.331 2.471.16 3.93-.369 2.666-.967 5.599-3.127 8.373-6.343.49-.569.975-1.169 1.453-1.798zm-28.028-88.944c12.542 43.933 22.753 72.276 30.713 85.001 3.144-5.111 5.763-11.2 7.276-16.72l.008-.026c2.324-7.716 3.345-17.416 2.122-24.544-.679-3.961-2.048-7.084-3.827-9.064-.342-.381-.697-.717-1.063-1l.003-.017c.014-.092.031-.182.049-.273l-.171.13c-11.597-15.168-16.257-28.638-18.519-36.547-2.368-8.278-2.178-10.741-1.6-14.573.513-3.399 1.458-8.011.913-11.666-.43-2.886-1.922-5.063-4.38-6.888v4.613c.003 2.125-.42 4.288-1.222 6.252zm83.947 65.298c2.208 1.223 4.612 2.056 7.022 2.372l.042.007c4.365.744 9.248-.183 13.277-2.362l-3.279-16.237c-2.352 1.338-4.716 1.977-6.879 1.903-2.174.076-4.548-.563-6.907-1.905zm39.34-11.398c-3.242-5.77-5.165-9.253-6.196-11.285-.843-1.663-1.15-2.604-1.205-3.037-.113-.889.182-1.446.443-1.797.272-.367.62-.627 1.043-.785.349-.132.788-.206 1.315-.102.337.067.93.329 1.596.75 1.196.753 3.116 2.018 5.129 2.727 1.022.359 2.065.606 2.998.366 1.067-.275 1.913-1.205 2.43-2.277.529-1.097.727-2.396.254-3.499-.43-1-1.35-1.812-2.366-2.539-1.94-1.389-4.298-2.399-5.772-3.133-1.02-.508-1.727-.97-2.127-1.381-.442-.453-.682-.93-.795-1.398-.181-.749-.107-1.577.565-2.47.493-.658 1.694-1.575 3.871-2.856 1.189-.699 2.742-1.561 3.989-2.595.781-.648 1.552-1.28 1.542-2.125-.005-.502-.359-.98-.95-1.555-.921-.896-2.35-1.821-4.401-2.813-2.291.368-4.672.427-7.068.211-.546 9.259-3.07 19.356-6.972 26.41-1.684 3.047-3.635 5.534-5.694 7.454l3.302 16.348.117-.111.051-.048.055-.046c4.81-4.012 9.607-6.171 14.277-6.982.192-.475.382-.953.569-1.432zm-58.405.113c2.845 1.409 5.895 2.307 9.179 2.394l1.248.033.613 1.088c1.036 1.842 2.443 3.535 4.091 4.994l3.302-16.352c-2.059-1.919-4.01-4.407-5.694-7.453-3.901-7.054-6.426-17.151-6.972-26.41-2.396.216-4.776.157-7.068-.211-2.051.992-3.479 1.917-4.4 2.813-.592.575-.946 1.053-.951 1.555-.009.845.761 1.477 1.543 2.125 1.246 1.034 2.8 1.896 3.989 2.595 2.177 1.281 3.377 2.198 3.871 2.856.671.893.746 1.721.565 2.47-.114.468-.354.945-.795 1.398-.401.411-1.108.873-2.128 1.381-1.474.734-3.832 1.744-5.772 3.133-1.016.727-1.936 1.539-2.366 2.539-.473 1.103-.275 2.402.254 3.5.517 1.071 1.363 2.001 2.43 2.276.933.24 1.976-.007 2.998-.366 2.013-.709 3.933-1.974 5.129-2.727.955-.602 1.833-.817 2.226-.794.82.049 1.406.428 1.809 1.046.223.343.466.871.363 1.682-.055.433-.363 1.374-1.206 3.037-1.037 2.045-2.979 5.56-6.258 11.398zm-.019-62.092-3.128-4.118-21.693.507 23.819 12.165c.014-3.003.379-5.894 1.002-8.554zm52.852-16.895-.697 3.419c1.119 1.501 2.142 3.112 3.05 4.802l4.283.1 13.129-17.277zm-26.027 27.772c-1.306 1.248-2.739 2.397-4.266 3.434-3.758 2.615-8.042 4.516-12.398 5.418.453 8.708 2.773 18.283 6.452 24.935 3.585 6.484 8.369 10.173 12.544 9.992l.096-.005.095.005c4.175.181 8.959-3.508 12.545-9.992 3.679-6.652 5.999-16.227 6.452-24.935-4.352-.901-8.632-2.799-12.387-5.41-2.548-1.728-4.833-3.769-6.705-6.057-.739.902-1.541 1.765-2.398 2.586.121.23.238.451.351.665-.123-.205-.251-.417-.381-.636zm-106.435-62.034 8.131.002h10.151c5.929-7.013 7.954-13.482 7.469-19.344-.53-6.4-3.996-11.99-8.269-16.657-.681 1.483-1.408 2.605-2.128 3.334-.97.983-2.014 1.41-3.028 1.432-1.106.024-2.316-.422-3.465-1.718-1.307-1.474-2.737-4.505-4.12-9.487-2.301 6.861-5.339 10.686-8.123 13.85-1.848 2.1-3.593 3.855-4.822 6.181-3.002 5.678-2.602 14.607 8.204 22.407zm98.393 27.85.326-1.289-13.922-16.645 4.333 21.262 2.097.95c.816-.67 1.662-1.294 2.536-1.862 1.477-.96 3.032-1.764 4.63-2.416zm77.772 315.896-9.638-94.645c-8.807-3.876-17.539-7.719-17.532-7.717-.866-.328-1.625-1.093-1.997-2.049-.374-.962-.328-2.046.082-2.846l14.75-33.516-3.298-32.381c-4.478 18.055-10.976 32.758-20.83 45.711-17.12 22.504-44.437 39.757-89.274 60.005l-6.868 67.438zm-154.299-316.142v-6.362h-27.47v6.426c-.003 1.557.307 3.142.897 4.584l12.837 31.557 9.673-23.776zm143.354 101.685c-1.017 9.968-2.239 19.123-3.773 27.593l3.895 38.109c6.831-15.521 13.921-31.631 18.021-40.947-3.006-6.209-5.39-9.946-8.102-13.577-2.965-3.971-6.315-7.825-10.041-11.178zm-79.268-91.647-.689-3.38-19.765-8.956 13.13 17.277 4.209-.099c.9-1.677 1.945-3.307 3.115-4.842z" fill="#139f16"/></svg>