<svg clip-rule="evenodd" fill-rule="evenodd" stroke-linejoin="round" stroke-miterlimit="2" viewBox="0 0 1915 1761" xmlns="http://www.w3.org/2000/svg" xmlns:xlink="http://www.w3.org/1999/xlink">
  <title>Illustrative stamp for Istanbul with the Blue Mosque</title>
  <clipPath id="a">
    <path clip-rule="evenodd" d="m21521.7 19658.6h1975.32v1906.56h-1975.32z"/>
  </clipPath>
  <g transform="matrix(.969109 0 0 .923337 -20856.871 -18151.5)">
      <g clip-path="url(#a)">
        <path d="m325.972 471.656c1.128-.672 2.244-1.374 3.345-2.107v-38.327l-2.09-2.536c-.147-.179-.228-.404-.228-.636v-4.963c0-.552.448-1 1-1h1.318v-8.663l-2.09-2.537c-.147-.179-.228-.404-.228-.636v-4.963c0-.552.448-1 1-1h1.318v-7.476c0-.067.007-.134.02-.2l3.628-17.725c.131-.641.7-1.105 1.355-1.105.654 0 1.224.464 1.355 1.105l3.628 17.725c.013.066.02.133.02.2v7.476h1.318c.552 0 1 .448.999 1v4.963c.001.232-.08.457-.228.636l-2.089 2.537v8.663h2.635v-7.476c0-.067.007-.134.02-.2l3.628-17.725c.131-.641.701-1.105 1.355-1.105.655 0 1.224.464 1.355 1.105l3.628 17.725c.013.066.02.133.02.2v7.476h1.318c.552 0 1 .448 1 1v4.963c0 .232-.081.457-.228.636l-2.09 2.536v15.424c19.119-29.455 16.607-68.47-6.495-95.238-.217-.252-.336-.573-.336-.904 0-.759.624-1.384 1.383-1.384.328 0 .645.117.895.329 21.504 18.24 33.921 45.054 33.921 73.252 0 52.695-43.361 96.055-96.055 96.055s-96.055-43.36-96.055-96.055c0-28.198 12.417-55.012 33.921-73.252.25-.212.567-.329.895-.329.758 0 1.383.625 1.383 1.384 0 .331-.12.652-.336.903-23.102 26.77-25.614 65.784-6.495 95.238v-15.423l-2.09-2.536c-.147-.179-.228-.404-.228-.636v-4.963c0-.552.448-1 1-1h1.318v-7.476c0-.067.006-.134.02-.2l3.628-17.725c.131-.641.7-1.106 1.355-1.106.654 0 1.224.465 1.355 1.106l3.628 17.725c.013.066.02.133.02.2v7.476h2.635v-8.663l-2.09-2.537c-.147-.179-.228-.404-.228-.636v-4.963c0-.552.448-1 1-1h1.318v-7.476c0-.067.007-.134.02-.2l3.628-17.724c.131-.641.7-1.106 1.355-1.106s1.224.464 1.355 1.106l3.628 17.724c.013.066.02.133.02.2v7.476h1.318c.552 0 1 .448 1 1v4.963c0 .232-.081.457-.229.636l-2.089 2.537v8.663h1.318c.552 0 1 .448 1 1v4.963c0 .232-.081.457-.229.636l-2.089 2.536v38.328c1.101.732 2.217 1.434 3.345 2.106v-18.849c-.26-2.242.795-4.621 2.673-6.609 2.481-2.627 6.378-4.562 10.132-4.607.449-2.635 2.578-4.729 5.231-5.124.356-1.761 1.702-3.182 3.423-3.647.092-1.966 1.074-4.063 2.694-5.967 2.53-2.973 6.599-5.486 10.816-6.268.407-1.399 1.315-2.608 2.556-3.386 1.091-2.979 1.696-6.114 1.791-9.287.001-.034.003-.069.008-.103.092-.683.681-1.199 1.371-1.199s1.279.516 1.371 1.199c.004.034.007.069.008.103.095 3.171.699 6.305 1.789 9.283 1.254.772 2.169 1.989 2.566 3.398 4.626.893 8.602 3.42 11 6.369 1.523 1.874 2.409 3.925 2.498 5.857 1.721.463 3.069 1.883 3.426 3.644 2.655.394 4.786 2.49 5.233 5.128 3.754.045 7.65 1.98 10.131 4.607 1.878 1.988 2.933 4.367 2.673 6.609zm-23.169-5.615c2.252-3.479 6.168-5.802 10.585-5.802 4.416 0 8.332 2.323 10.584 5.802v-12.295h-11.718-9.451zm23.169 6.217v1.136c0 .016 0 .032-.001.048.01-.201.015-.403.015-.605 0-.194-.005-.387-.014-.579zm-25.169-21.714v-6.922h-31.052v6.922c9.022-7.197 22.03-7.197 31.052 0zm-31.052 30.766c10.244 2.03 20.808 2.03 31.052 0v-6.916h-6.863c-.552 0-1-.448-1-1v-2.685h-7.663-7.664v2.685c0 .552-.447 1-1 1h-6.862zm-23.169-15.269c2.252-3.48 6.168-5.802 10.584-5.802s8.333 2.322 10.585 5.802v-12.295h-9.452-11.717zm95.376-6.932v-27.887l-1.318-1.599-1.317 1.599v30.445c.898-.832 1.776-1.685 2.635-2.558zm-41.155 13.285v-18.648h-31.052v18.648h5.862v-2.685c0-.552.448-1 1-1h17.327c.553 0 1 .448 1 1v2.685zm-33.052-28.772h-8.452v8.124h8.452zm35.052 0v8.124h8.451v-8.124zm-74.207 15.487c.859.873 1.737 1.726 2.635 2.558v-30.445s-1.318-1.599-1.318-1.599l-1.317 1.599zm69.954-17.487h2.334c.423-2.571 2.443-4.633 4.994-5.118-.374-1.07-1.397-1.846-2.587-1.846h-36.028c-1.192 0-2.216.778-2.588 1.85 2.549.484 4.57 2.544 4.994 5.114h2.288v-3.221-.004c0-1.122.923-2.045 2.045-2.045s2.045.923 2.045 2.045v.004 3.221h3.435v-3.221-.004c0-1.122.923-2.045 2.045-2.045s2.045.923 2.045 2.045v.004 3.221h3.392v-3.221-.004c0-1.122.924-2.045 2.045-2.045 1.122 0 2.045.923 2.045 2.045v.004 3.221h3.406v-3.221-.004c0-1.122.923-2.045 2.045-2.045s2.045.923 2.045 2.045v.004zm-59.361-84.128h-3.554v-15.232h3.554zm11.364-12.137c-.104.167-.214.293-.329.376-.115.084-.263.126-.444.126-.161 0-.333-.051-.518-.152s-.394-.214-.627-.34c-.234-.125-.5-.238-.8-.339s-.641-.152-1.024-.152c-.663 0-1.156.141-1.48.423-.324.283-.486.664-.486 1.145 0 .307.098.561.293.763s.451.377.768.523.68.281 1.088.403c.407.121.824.257 1.249.407s.841.326 1.249.528.77.46 1.087.774c.317.313.574.695.769 1.145.195.449.292.991.292 1.625 0 .704-.122 1.363-.365 1.976-.244.613-.598 1.148-1.062 1.605-.463.456-1.035.815-1.714 1.077-.68.261-1.451.392-2.316.392-.474 0-.956-.049-1.448-.147-.491-.097-.967-.235-1.427-.413-.46-.177-.892-.388-1.296-.632s-.756-.516-1.056-.816l1.046-1.651c.083-.119.193-.218.329-.298.136-.081.284-.121.444-.121.209 0 .42.067.633.199.212.132.453.279.721.439s.577.307.925.439c.349.133.76.199 1.234.199.641 0 1.139-.141 1.495-.424.355-.282.533-.73.533-1.343 0-.355-.098-.645-.293-.868s-.451-.407-.768-.554c-.317-.146-.678-.275-1.082-.387-.404-.111-.819-.235-1.244-.371s-.84-.303-1.244-.501c-.404-.199-.765-.46-1.082-.785-.317-.324-.574-.728-.769-1.212-.195-.485-.292-1.082-.292-1.793 0-.572.115-1.129.345-1.673.23-.543.568-1.028 1.014-1.453s.993-.765 1.641-1.019c.648-.255 1.39-.382 2.227-.382.467 0 .921.037 1.364.11s.862.181 1.26.324c.397.143.768.314 1.113.512.345.199.654.424.925.675zm14.113-.293h-4.286v12.43h-3.533v-12.43h-4.287v-2.802h12.106zm13.967 12.43h-2.739c-.306 0-.554-.071-.742-.214s-.331-.326-.429-.549l-.899-2.655h-5.791l-.899 2.655c-.077.195-.215.371-.413.528-.199.157-.445.235-.737.235h-2.76l5.896-15.232h3.617zm-5.614-5.823-1.411-4.171c-.105-.265-.216-.577-.335-.936-.118-.359-.236-.747-.355-1.165-.105.425-.216.819-.335 1.181-.118.362-.229.676-.334.941l-1.401 4.15zm20.114-9.409v15.232h-1.84c-.271 0-.5-.043-.684-.13-.185-.088-.368-.239-.549-.455l-7.182-9.085c.028.272.047.535.057.789.011.255.016.494.016.717v8.164h-3.116v-15.232h1.861c.154 0 .283.007.387.021.105.014.199.04.282.079.084.038.164.092.241.162s.164.164.261.282l7.245 9.148c-.035-.293-.059-.577-.073-.852-.014-.276-.021-.535-.021-.779v-8.061zm8.552 0c1.052 0 1.948.098 2.687.293.738.195 1.341.471 1.808.826.467.356.807.788 1.019 1.296.213.509.319 1.077.319 1.704 0 .342-.048.671-.146.988s-.251.614-.46.889-.477.528-.805.758-.721.429-1.181.596c1.003.244 1.746.638 2.226 1.181.481.544.722 1.248.722 2.112 0 .648-.126 1.251-.377 1.808-.25.558-.618 1.044-1.103 1.459-.484.415-1.082.739-1.792.972-.711.234-1.523.35-2.436.35h-6.085v-15.232zm.418 12.566c.467 0 .849-.059 1.145-.177.296-.119.528-.272.695-.46s.282-.401.345-.638.094-.477.094-.721c0-.279-.037-.53-.11-.753s-.198-.411-.376-.565c-.178-.153-.413-.271-.706-.355-.292-.084-.662-.125-1.108-.125h-2.467v3.794zm-2.488-9.921v3.764h1.84c.39 0 .742-.028 1.056-.084.313-.055.58-.153.799-.292.22-.14.387-.331.502-.575s.173-.551.173-.92c0-.363-.046-.664-.136-.905-.091-.24-.23-.434-.418-.58s-.427-.251-.716-.314c-.29-.062-.633-.094-1.03-.094zm16.821 9.796c.474 0 .897-.078 1.27-.235s.688-.382.946-.675c.258-.292.455-.649.591-1.071s.204-.901.204-1.438v-9.022h3.533v9.022c0 .934-.151 1.792-.455 2.572-.303.781-.737 1.453-1.301 2.018-.565.564-1.251 1.003-2.06 1.317-.808.314-1.718.471-2.728.471-1.018 0-1.931-.157-2.739-.471-.809-.314-1.495-.753-2.06-1.317-.564-.565-.996-1.237-1.296-2.018-.3-.78-.45-1.638-.45-2.572v-9.022h3.534v9.012c0 .537.068 1.016.204 1.437.136.422.333.781.59 1.077.258.296.574.523.947.68.372.157.796.235 1.27.235zm18.483-.031v2.822h-9.179v-15.232h3.534v12.41zm-63.141 12.336c0 .661-.114 1.27-.341 1.829-.228.558-.549 1.041-.963 1.449-.414.407-.913.725-1.496.953-.584.228-1.231.342-1.942.342h-3.55v-9.139h3.55c.711 0 1.358.115 1.942.345.583.23 1.082.548 1.496.953.414.406.735.888.963 1.446.227.558.341 1.166.341 1.822zm-2.17 0c0-.451-.058-.859-.176-1.223-.117-.364-.285-.672-.504-.925-.22-.253-.489-.448-.806-.583-.318-.136-.68-.204-1.086-.204h-1.417v5.877h1.417c.406 0 .768-.068 1.086-.204.317-.136.586-.33.806-.583.219-.253.387-.562.504-.925.118-.364.176-.774.176-1.23zm5.558-2.935v2.132h2.872v1.568h-2.872v2.177h3.751v1.631h-5.884v-9.139h5.884v1.631zm11.027 5.143c.05 0 .1.01.15.028.05.019.099.052.145.098l.84.884c-.368.481-.829.844-1.383 1.088-.554.245-1.21.367-1.966.367-.695 0-1.317-.118-1.867-.354-.549-.236-1.016-.563-1.398-.979-.383-.416-.677-.909-.882-1.48s-.307-1.191-.307-1.86c0-.681.111-1.308.332-1.878.222-.571.534-1.064.935-1.478s.882-.736 1.443-.966c.56-.23 1.177-.345 1.85-.345.343 0 .666.031.969.091.303.061.587.145.85.251.264.107.506.236.728.386.221.151.418.314.589.489l-.715.96c-.046.059-.1.112-.163.16-.062.048-.15.072-.263.072-.075 0-.147-.017-.213-.05-.067-.034-.138-.074-.214-.122-.075-.048-.158-.101-.247-.157-.09-.057-.197-.109-.32-.157-.124-.048-.268-.089-.433-.122-.165-.034-.359-.051-.58-.051-.352 0-.673.065-.963.195-.291.13-.542.319-.753.568-.211.248-.374.554-.489.915-.115.362-.173.775-.173 1.239 0 .469.064.885.192 1.248.127.364.301.671.52.919.22.249.476.438.769.568.292.13.606.195.941.195.192 0 .367-.01.526-.029s.308-.05.446-.094.267-.102.389-.175c.121-.074.244-.167.37-.28.05-.041.104-.076.163-.103.058-.027.119-.041.182-.041zm6.291-6.774v1.794l-.176.991c-.037.226-.104.398-.2.517s-.255.179-.477.179c-.188 0-.335-.06-.439-.179-.105-.119-.18-.291-.226-.517l-.176-.991v-1.794zm6.643 7.383c.209 0 .374.057.495.172s.182.267.182.455v1.129h-6.423v-.627c0-.122.025-.251.075-.389.051-.138.138-.264.264-.377l2.634-2.653c.226-.226.423-.441.59-.646s.305-.407.414-.605c.109-.199.19-.398.244-.596.055-.199.082-.409.082-.631 0-.363-.087-.642-.26-.837-.174-.194-.438-.292-.794-.292-.288 0-.532.077-.731.229-.198.153-.335.342-.41.568-.088.23-.203.383-.345.458-.143.075-.345.092-.609.05l-1.028-.182c.066-.456.195-.853.385-1.192.191-.338.427-.621.709-.846.282-.226.605-.395.969-.505.364-.111.755-.167 1.173-.167.452 0 .858.066 1.22.198s.67.315.925.549.451.513.587.837.204.681.204 1.07c0 .334-.047.644-.141.928-.095.284-.223.555-.386.812-.163.258-.353.506-.568.747-.215.24-.444.484-.687.731l-1.787 1.831c.23-.071.458-.125.683-.163.226-.038.435-.056.628-.056zm1.706-4.774c.067-.456.195-.853.386-1.192.19-.338.426-.621.708-.846.283-.226.606-.395.969-.505.364-.111.755-.167 1.173-.167.452 0 .854.064 1.205.192.351.127.648.3.89.517.243.218.427.47.552.756.126.287.189.589.189.906 0 .289-.03.543-.088.763-.059.219-.145.409-.26.57s-.258.297-.427.408-.363.204-.58.279c1.012.356 1.518 1.046 1.518 2.07 0 .485-.088.908-.264 1.267-.175.36-.411.659-.705.897-.295.239-.637.417-1.026.537-.389.119-.794.178-1.217.178-.435 0-.822-.047-1.16-.141-.339-.094-.64-.24-.903-.439-.264-.199-.495-.453-.694-.762-.198-.309-.371-.677-.517-1.104l.866-.351c.225-.088.434-.111.627-.069.192.042.33.138.414.288.188.347.388.599.599.756s.459.235.743.235c.218 0 .407-.036.568-.109.161-.074.295-.168.401-.283.107-.115.187-.245.242-.392.054-.146.081-.295.081-.445 0-.197-.013-.373-.041-.53-.027-.157-.103-.292-.228-.405-.126-.113-.315-.199-.568-.26s-.605-.091-1.057-.091v-1.342c.38 0 .688-.03.922-.088.234-.059.415-.139.543-.242.127-.102.212-.226.254-.373.041-.146.062-.307.062-.483 0-.359-.086-.636-.26-.831-.174-.194-.438-.292-.793-.292-.289 0-.533.077-.731.229-.199.153-.336.342-.411.568-.088.23-.203.383-.345.458s-.345.092-.608.05z" fill="#4c989f" transform="matrix(10.2822 0 0 10.7914 19576 15966.9)"/>
      </g>
    </g>
</svg>