<svg clip-rule="evenodd" fill-rule="evenodd" stroke-linejoin="round" stroke-miterlimit="2" viewBox="0 0 496 426" xmlns="http://www.w3.org/2000/svg" xmlns:xlink="http://www.w3.org/1999/xlink"><title>Illustrative stamp for Doha with an Onyx</title><clipPath id="a"><path clip-rule="evenodd" d="m.07.178h495.504v424.872h-495.504z"/></clipPath><path d="m.07.178h495.504v424.872h-495.504z" fill="none"/><g><path d="m93.037 222.831c.1-2.338.591-4.646 1.473-6.691.843-1.954 2.042-3.667 3.598-4.936l95.354-95.354c-45.987-22.59-108.54-47.57-187.627-75.001-1.932-.613-3.736-2.072-4.776-4.035-1.04-1.962-1.235-4.271-.703-6.06.497-1.929 1.807-3.782 3.655-4.938 1.899-1.188 4.213-1.543 6.123-1.107 58.985 11.394 116.891 29.393 173.718 54.002-35.343-21.049-73.584-41.927-114.717-62.637-1.83-.86-3.424-2.539-4.197-4.617-.773-2.075-.668-4.384.087-6.084.739-1.846 2.272-3.513 4.247-4.422 2.015-.929 4.33-.995 6.181-.333 55.127 17.633 108.809 42.892 158.973 74.268l47.364-47.364c5.538-6.787 19.509-6.787 25.046 0l183.682 183.682c6.787 5.537 6.787 19.508 0 25.046l-183.682 183.681c-5.537 6.787-19.508 6.787-25.046 0l-42.723-42.723c24.65-20.251 36.026-36.406 44.699-50.508 11.089-18.03 17.759-32.705 26.306-39.125 7.32-5.499 16.017-4.942 25.619-2.678-14.443-17.106-24.57-32.849-30.407-47.209-7.608-18.718-7.986-35.17-1.329-49.349.366-.78 1.154-1.274 2.016-1.264.861.011 1.637.523 1.985 1.312 0 0 8.566 19.439 8.566 19.436.138-10.614 1.426-19.149 3.821-25.608 2.263-6.104 5.529-10.431 9.691-13.06 1.026-.648 2.384-.341 3.032.684.648 1.026.341 2.384-.684 3.032-4.356 2.751-7.366 7.838-9.238 15.134-2 7.795-2.651 18.019-1.998 30.67.055 1.059-.655 2.006-1.686 2.252-1.032.245-2.092-.282-2.519-1.252 0 0-10.906-24.747-10.905-24.749-4.069 12.06-2.918 25.761 3.32 41.107 6.243 15.358 17.54 32.304 33.856 50.861 10.818 3.103 22.384 7.188 32.061 10.311 2.884.931 5.6 1.776 8.146 2.523-19.24-24.313-32.76-50.431-40.57-78.346-.327-1.168.356-2.382 1.524-2.709s2.382.356 2.709 1.524c8.161 29.171 22.694 56.332 43.584 81.491 3.538.857 6.63 1.424 9.266 1.645 4.095.345 7.09-.142 19.367-13.09 1.577-1.389 1.596-4.648.035-6.055-4.342-4.687-6.942-8.489-7.8-11.405 5.064 2.269 10.59 3.885 16.829 4.642 1.373.202 2.974-.41 3.862-1.476l1.156-1.32c1.333-1.338 1.455-4.066.248-5.517-53.49-74.64-124.293-139.832-203.983-189.446-49.367-30.734-102.143-55.49-156.328-72.809-.767-.329-1.938.211-2.187 1.007-.386.741.064 1.95.84 2.258 53.43 26.896 101.991 54.075 145.683 81.536 20.442 12.85 39.819 25.761 58.13 38.734.368.213.494.864.233 1.199-.195.378-.84.536-1.187.29-21.119-12.15-42.395-23.341-63.828-33.571-65.924-31.467-133.333-53.85-202.225-67.148-.804-.231-1.901.455-2.046 1.28-.288.785.318 1.929 1.13 2.132 80.54 27.932 144.04 53.39 190.501 76.376 26.861 13.289 48.026 25.752 63.496 37.388.555.379.85 1.241.644 1.881-.148.657-.84 1.249-1.511 1.294-18.766 2.111-40.133 3.228-64.101 3.351-.682-.029-1.446.505-1.652 1.157-.267.629-.035 1.531.502 1.953 11.413 9.88 26.892 16.232 46.437 19.055.683.065 1.369.705 1.479 1.382.176.664-.187 1.528-.784 1.867-39.164 24.807-89.109 38.992-149.835 42.553zm205.946 163.929c-1.036-1.036-2.175-1.815-3.415-2.336-1.241-.522-2.508-.776-3.802-.762-1.293.013-2.582.298-3.865.856-1.284.558-2.487 1.397-3.609 2.519l-5.603 5.603 14.424 14.424 5.603-5.603c1.122-1.122 1.963-2.323 2.524-3.604.561-1.28.847-2.569.856-3.865.01-1.297-.245-2.566-.767-3.807-.521-1.24-1.303-2.382-2.346-3.425zm-3.425 3.425c.719.72 1.274 1.459 1.663 2.218s.61 1.511.663 2.257-.064 1.477-.351 2.193-.751 1.394-1.391 2.034l-2.237 2.237-9.276-9.276 2.237-2.237c.64-.64 1.318-1.104 2.034-1.391s1.447-.404 2.193-.351 1.498.274 2.257.663 1.495.941 2.208 1.653zm29.659-22.689c-.099.099-.174.216-.223.351-.05.135-.081.276-.094.421-.02.376-.068.718-.144 1.024-.076.307-.188.604-.336.891-.149.287-.333.571-.555.852-.221.28-.483.572-.787.876-.528.528-1.125.92-1.791 1.178-.667.257-1.37.363-2.109.317-.739-.047-1.496-.256-2.272-.629-.775-.373-1.533-.929-2.272-1.668-.732-.733-1.293-1.475-1.683-2.227-.389-.753-.614-1.492-.673-2.218s.038-1.42.292-2.084c.254-.663.658-1.272 1.213-1.826.35-.35.681-.629.995-.837.313-.208.605-.371.876-.49.27-.119.521-.204.752-.257s.444-.101.639-.144c.194-.043.371-.09.529-.143.159-.053.297-.139.416-.258.178-.178.279-.354.302-.529s.025-.345.005-.51l-.386-2.643c-.548-.007-1.115.046-1.703.158-.587.112-1.173.292-1.757.54-.584.247-1.163.562-1.737.945-.575.383-1.132.845-1.673 1.386-1.063 1.063-1.855 2.218-2.376 3.465-.522 1.247-.772 2.514-.753 3.801.02 1.287.306 2.556.857 3.807.551 1.25 1.364 2.413 2.44 3.489 1.056 1.056 2.196 1.873 3.42 2.45 1.224.578 2.467.893 3.727.946 1.261.053 2.512-.169 3.752-.664 1.241-.495 2.409-1.29 3.505-2.385 1.194-1.195 2.036-2.422 2.524-3.683.488-1.26.644-2.561.465-3.9l-2.722-.07c-.145 0-.272.025-.381.075-.109.049-.203.113-.282.193zm21.373-19.453-2.693 2.693c-.304.303-.604.663-.901 1.079s-.571.861-.821 1.336l-.07-5.712c-.006-.772-.029-1.518-.069-2.237s-.134-1.411-.282-2.074c-.149-.663-.373-1.293-.673-1.891-.301-.597-.715-1.16-1.243-1.688-.614-.613-1.283-1.069-2.009-1.366s-1.475-.429-2.248-.396c-.772.033-1.547.231-2.326.594s-1.524.901-2.237 1.614c-.66.66-1.19 1.364-1.589 2.113s-.644 1.525-.733 2.327-.016 1.62.218 2.455.658 1.665 1.272 2.49l1.911-1.337c.482-.35.775-.696.881-1.039.105-.343.046-.766-.178-1.267-.238-.476-.32-.99-.248-1.545.073-.554.337-1.059.792-1.514.561-.561 1.132-.825 1.713-.792s1.158.336 1.732.91c.35.35.639.725.866 1.124.228.399.413.841.555 1.327.142.485.242 1.021.302 1.608.059.588.089 1.238.089 1.95l.03 8.346c-.02.376.039.712.178 1.009.138.297.303.542.495.733l.99.99 10.137-10.137-1.782-1.782c-.297-.297-.632-.441-1.005-.431s-.724.18-1.054.51zm98.63-101.461 15.155-34.297-5.872-5.872-34.297 15.155 4.48 4.48c.475.475 1.001.746 1.578.814s1.086.006 1.528-.186l5.77-2.851 9.401 9.401-2.851 5.77c-.203.521-.268 1.05-.195 1.587.074.537.359 1.055.857 1.553zm.34-18.566-6.771-6.771 9.011-4.463c.6-.26 1.29-.588 2.07-.984.781-.396 1.601-.855 2.461-1.375-.486.871-.925 1.694-1.315 2.469s-.716 1.462-.976 2.062zm-103.811 109.801 1.91-1.336c.482-.35.776-.697.882-1.04.105-.343.046-.765-.179-1.267-.237-.475-.32-.99-.247-1.544.072-.555.336-1.06.792-1.515.561-.561 1.132-.825 1.712-.792.581.033 1.155.333 1.723.901.277.277.498.564.663.861s.228.627.188.99c-.039.363-.198.776-.475 1.238s-.716.993-1.317 1.593l2.119 2.119c.713-.713 1.317-1.221 1.812-1.525.495-.303.93-.465 1.306-.485s.71.073 1 .277c.291.205.591.462.901.773.238.237.429.514.574.831s.225.65.238 1-.05.709-.188 1.079c-.139.37-.38.726-.723 1.069-.449.449-.964.716-1.544.802-.581.086-1.294.003-2.139-.247-.369-.106-.739-.04-1.108.198-.37.237-.664.603-.881 1.098l-.812 1.921c.904.442 1.757.751 2.559.926.802.174 1.567.211 2.297.108.729-.102 1.435-.346 2.118-.732s1.368-.922 2.054-1.609c.667-.666 1.213-1.401 1.639-2.202.425-.802.683-1.624.772-2.465.089-.842-.012-1.685-.302-2.53-.291-.845-.819-1.65-1.584-2.415-1.617-1.617-3.505-1.908-5.663-.871.225-.462.383-.914.476-1.357.092-.442.102-.881.029-1.316-.072-.436-.236-.873-.49-1.312s-.609-.886-1.064-1.341c-.502-.502-1.077-.88-1.727-1.134-.651-.254-1.339-.361-2.065-.322-.725.04-1.466.236-2.222.589-.756.354-1.49.886-2.203 1.599-.66.66-1.189 1.365-1.588 2.114-.4.749-.644 1.524-.733 2.326s-.017 1.62.218 2.455c.234.835.658 1.665 1.272 2.49zm-17.295 9.058-2.672 2.673 2.831 2.831 1.841 1.287c.429.284.82.437 1.173.46s.678-.113.975-.41c.35-.35.507-.695.471-1.035-.037-.34-.203-.718-.5-1.133l-1.287-1.842zm-24.758 29.906 5.92-5.92-2.574-2.573-9.286 9.285 14.424 14.424 9.285-9.286-2.573-2.574-5.92 5.92-3.435-3.435 4.533-4.534-2.474-2.475-4.534 4.534zm58.448-242.018c1.777-1.776 3.126-3.742 4.048-5.897s1.389-4.359 1.4-6.61c.011-2.252-.447-4.492-1.375-6.721-.927-2.228-2.353-4.304-4.276-6.228-1.924-1.923-4-3.354-6.228-4.293-2.229-.939-4.472-1.406-6.729-1.4-2.257.005-4.463.469-6.619 1.391-2.155.922-4.126 2.277-5.914 4.065-1.788 1.787-3.142 3.759-4.064 5.914s-1.389 4.364-1.4 6.627c-.012 2.263.452 4.508 1.391 6.737s2.37 4.305 4.294 6.228c1.923 1.924 3.996 3.352 6.219 4.285 2.224.934 4.464 1.392 6.721 1.375s4.463-.486 6.618-1.408c2.155-.923 4.127-2.277 5.914-4.065zm-5.871-5.872c-1.234 1.233-2.498 2.181-3.793 2.843-1.296.662-2.58 1.035-3.853 1.12-1.272.085-2.517-.125-3.733-.628s-2.373-1.304-3.471-2.401c-1.108-1.109-1.917-2.274-2.426-3.496-.51-1.222-.722-2.469-.637-3.742s.458-2.557 1.12-3.853c.662-1.295 1.61-2.559 2.843-3.793 1.222-1.221 2.48-2.163 3.776-2.825 1.295-.662 2.579-1.035 3.852-1.12s2.523.124 3.751.628c1.227.503 2.395 1.309 3.504 2.418 1.097 1.097 1.895 2.257 2.393 3.479s.704 2.469.619 3.742-.458 2.557-1.12 3.852c-.662 1.296-1.603 2.554-2.825 3.776zm-45.549-45.549c1.776-1.776 3.111-3.728 4.005-5.855.893-2.127 1.329-4.299 1.306-6.516-.022-2.218-.512-4.427-1.468-6.627-.956-2.201-2.395-4.263-4.319-6.186l-9.605-9.605-24.726 24.726 9.605 9.605c1.924 1.923 3.983 3.366 6.178 4.328 2.195.961 4.404 1.451 6.627 1.468s4.398-.422 6.525-1.316c2.127-.893 4.084-2.234 5.872-4.022zm-5.872-5.872c-1.233 1.234-2.5 2.184-3.802 2.852-1.301.667-2.59 1.046-3.869 1.137-1.278.09-2.531-.111-3.759-.603-1.227-.492-2.39-1.287-3.487-2.384l-3.836-3.836 15.902-15.901 3.835 3.835c1.098 1.098 1.892 2.26 2.384 3.488.493 1.227.693 2.48.603 3.759-.091 1.278-.47 2.568-1.137 3.869-.668 1.301-1.612 2.563-2.834 3.784zm118.37 93.661-5.77-5.77-10.336 10.335-10.046-10.046 10.335-10.336-5.77-5.77-24.726 24.727 5.77 5.77 10.454-10.454 10.046 10.046-10.454 10.454 5.77 5.77zm-65.657 38.784c-2.459 3.505-11.75.618-16.657-5.176-5.512-5.196-8.031-14.767-4.516-17.158 2.458-3.504 11.749-.617 16.656 5.176 5.512 5.196 8.031 14.767 4.517 17.158z" fill="#940024"/></g></svg>