<svg clip-rule="evenodd" fill-rule="evenodd" stroke-linejoin="round" stroke-miterlimit="2" viewBox="0 0 1699 2026"xmlns="http://www.w3.org/2000/svg" xmlns:xlink="http://www.w3.org/1999/xlink">
  <title>Illustrative stamp for Abu Dhabi with Sheikh Zayed Grand Mosque</title>
  <clipPath id="a">
    <path clip-rule="evenodd" d="m16869.2 15843h1867.23v2203.52h-1867.23z" />
  </clipPath>
  <g transform="matrix(.909529 0 0 .919257 -15342.98 -14563.79)">
    <g clip-path="url(#a)">
      <path
        d="m4551.05 1387.2c2.64 4.59 4.61 9.39 5.93 14.38 3.21 12.19 2.59 25.63-1.99 40.29h32.2v90.16h-9.12v-85.65h-3.12v85.65h-8.95l3.65 5.14h9.89v-2.75h4.39v9.52h-102.34v-9.52h4.39v2.75h9.89l3.65-5.14h-8.96v-85.65h-3.11v85.65h-9.13v-90.16h32.21c-4.58-14.66-5.21-28.1-1.99-40.29 1.32-4.99 3.29-9.79 5.93-14.38h4.01c-3.32 5.07-5.74 10.42-7.23 16.09-3.16 11.95-2.12 25.2 2.96 39.76l1.16 3.33h-15.69v85.41l18.27-25.75h-1.9v-39.16h2.99v37.63l2.71-3.82v-34.94h4.25s.6-3.24.6-3.24c-2.05-5.21-2.57-9.96-1.64-14.23.94-4.32 3.41-8.2 7.45-11.54l.35-.28.34.28c4.05 3.34 6.51 7.22 7.45 11.54.93 4.27.42 9.02-1.63 14.23l.59 3.24h4.25v34.94l2.72 3.82v-37.63h2.98v39.16h-1.9l18.27 25.75v-85.41h-15.68l1.16-3.33c5.08-14.56 6.11-27.81 2.96-39.76-1.5-5.67-3.91-11.02-7.24-16.09zm16.43 149.97-32.22-45.4v-15.29l.12-.28c1.07-2.63 1.42-5.01.94-7.15-.45-2.09-1.65-3.91-3.53-5.54-1.88 1.63-3.08 3.45-3.54 5.54-.47 2.14-.12 4.52.95 7.15l.12.28v15.2l-32.28 45.49zm-44.26-38.54 5.63-7.95v-13.56c-1.26-3.22-1.56-6.16-.98-8.8.58-2.65 2.08-5.05 4.57-7.09l.35-.28.34.28c2.49 2.04 4 4.44 4.58 7.09.58 2.64.28 5.58-.98 8.8v13.65l5.57 7.86v-30.62h-3.89l-1.08-5.85.18-.42c1.9-4.68 2.49-8.92 1.66-12.74-.82-3.76-2.98-7.05-6.41-9.98-3.44 2.93-5.59 6.22-6.41 9.98-.83 3.82-.25 8.06 1.66 12.74l.17.42-1.07 5.85h-3.89zm30.94 7.41h-2.99v-39.16h2.99zm-34.58-50.38c.49.66.85 1.55 1 2.58l.17 1.38h-.27l.17 1.37h-.39l.17 1.38h-.57l.17 1.37h-.62c-.19.6-.33 1.12-.37 1.55h-2.99c-.03-.43-.18-.95-.37-1.55h-.96c-.19.6-.34 1.12-.37 1.55h-2.99c-.04-.43-.19-.95-.38-1.55h-.61l.17-1.37h-.57l.17-1.38h-.39l.16-1.37h-.26l.17-1.38c.33-2.23 1.63-3.83 3.11-3.83.85 0 1.67.53 2.27 1.45.6-.92 1.41-1.45 2.26-1.45.23 0 .45.04.66.11.12-2.11.85-4.07 2.02-5.28.22-1.8.92-3.37 1.92-4.33-3.46-8.92-4.34-17.05-2.74-24.37 1.66-7.54 6-14.27 13.09-20.09l.35-.29.34.29c7.09 5.82 11.43 12.55 13.09 20.09 1.61 7.32.73 15.45-2.73 24.37.99.96 1.69 2.53 1.91 4.33 1.17 1.21 1.91 3.17 2.03 5.28.21-.07.43-.11.65-.11.85 0 1.67.53 2.27 1.45.6-.92 1.41-1.45 2.26-1.45 1.49 0 2.79 1.6 3.12 3.83l.16 1.38h-.26l.17 1.37h-.39l.17 1.38h-.57l.16 1.37h-.61c-.19.6-.34 1.12-.37 1.55h-2.99c-.04-.43-.19-.95-.37-1.55h-.96c-.19.6-.34 1.12-.38 1.55h-2.98c-.04-.43-.19-.95-.38-1.55h-.61l.16-1.37h-.56l.16-1.38h-.38l.16-1.37h-.26l.16-1.38c.16-1.03.52-1.92 1-2.58.14-1.91-.48-3.8-1.59-4.75l-.33-.29-.04-.59c-.11-1.63-.81-3.04-1.81-3.6l-.84-.48.48-1.18c3.52-8.64 4.55-16.47 3.01-23.5-1.54-6.98-5.58-13.13-12.05-18.55-6.48 5.42-10.51 11.57-12.05 18.55-1.55 7.03-.51 14.86 3.01 23.5l.48 1.18-.85.48c-1 .56-1.7 1.97-1.8 3.6l-.04.59-.33.29c-1.11.95-1.73 2.84-1.6 4.75zm-8.22 50.38v-39.16h2.99v39.16zm-22.77-72.38c-.53 1.48-.91 3.07-1.14 4.72h-9.13c-.23-1.65-.61-3.24-1.14-4.72h-1.87l.5-4.2h-1.72l.5-4.2h-1.18l.5-4.2h-.8l.5-4.19c-.34-5.93 4.47-11.46 9.28-11.46 2.2 0 4.41 1.17 6.11 3 1.71-1.83 3.92-3 6.12-3 4.81 0 9.62 5.53 9.28 11.46l.5 4.19h-.8l.5 4.2h-1.18l.5 4.2h-1.72l.5 4.2h-1.87c-.53 1.48-.92 3.07-1.15 4.72h-9.12c-.23-1.65-.62-3.24-1.15-4.72zm87.51 0c-.53 1.48-.91 3.07-1.15 4.72h-9.12c-.23-1.65-.61-3.24-1.14-4.72h-1.87l.5-4.2h-1.73l.51-4.2h-1.19l.51-4.2h-.8l.5-4.19c-.34-5.93 4.47-11.46 9.28-11.46 2.2 0 4.4 1.17 6.11 3 1.71-1.83 3.92-3 6.12-3 4.81 0 9.61 5.53 9.27 11.46l.51 4.19h-.8l.5 4.2h-1.18l.5 4.2h-1.73l.51 4.2h-1.87c-.53 1.48-.92 3.07-1.15 4.72h-9.12c-.23-1.65-.62-3.24-1.15-4.72zm-93.3-30.64c4.89-39.46 21.32-65.6 49.34-78.33l.62-.28.62.28c28.01 12.73 44.44 38.87 49.34 78.33-.03 0-.06 0-.09 0-1.45 0-2.9.44-4.24 1.21-4.6-36.52-19.82-60.75-45.63-72.76-25.81 12.01-41.04 36.24-45.63 72.76-1.35-.77-2.79-1.21-4.24-1.21-.03 0-.06 0-.09 0zm26.2-18.35h-1.53c-.18 0-.32-.06-.42-.18-.11-.12-.19-.28-.24-.47l-.5-2.3h-3.25l-.5 2.3c-.04.16-.12.32-.23.45-.11.14-.25.2-.41.2h-1.55l3.3-13.15h2.03zm-3.14-5.03-.79-3.6c-.06-.23-.13-.5-.19-.81-.07-.31-.13-.64-.2-1-.06.36-.12.7-.19 1.02-.06.31-.13.58-.18.81l-.79 3.58zm6.95-8.12c.59 0 1.09.08 1.51.25.41.17.75.4 1.01.71s.45.68.57 1.12.18.93.18 1.47c0 .3-.03.58-.09.86-.05.27-.14.53-.25.76-.12.24-.27.46-.45.66-.19.2-.41.37-.67.51.57.22.98.55 1.25 1.02.27.48.41 1.08.41 1.83 0 .56-.07 1.08-.21 1.56s-.35.9-.62 1.26-.61.64-1.01.84c-.39.2-.85.3-1.36.3h-3.41v-13.15zm.24 10.85c.26 0 .47-.05.64-.15.16-.1.29-.24.38-.4.1-.16.16-.35.2-.55.03-.2.05-.41.05-.62 0-.25-.02-.46-.06-.65-.04-.2-.11-.36-.21-.49s-.23-.24-.4-.31c-.16-.07-.37-.11-.62-.11h-1.38v3.28zm-1.4-8.57v3.25h1.03c.22 0 .42-.02.59-.07.18-.05.33-.13.45-.25s.22-.29.28-.5c.07-.21.1-.48.1-.8 0-.31-.03-.57-.08-.78-.05-.2-.13-.37-.23-.5-.11-.12-.24-.21-.4-.27-.16-.05-.36-.08-.58-.08zm9.42 8.46c.27 0 .5-.07.71-.2.21-.14.39-.33.53-.58.15-.26.26-.56.33-.93.08-.36.12-.78.12-1.24v-7.79h1.97v7.79c0 .81-.08 1.55-.25 2.22-.17.68-.41 1.26-.73 1.74-.31.49-.7.87-1.15 1.14s-.96.41-1.53.41-1.08-.14-1.53-.41c-.46-.27-.84-.65-1.16-1.14-.31-.48-.56-1.06-.72-1.74-.17-.67-.25-1.41-.25-2.22v-7.79h1.97v7.78c0 .46.04.88.12 1.24.07.37.19.68.33.93.14.26.32.45.53.59.21.13.45.2.71.2zm15.65-4.17c0 .95-.1 1.83-.32 2.63-.21.81-.51 1.5-.89 2.09-.39.59-.86 1.04-1.4 1.37s-1.15.49-1.81.49h-3.32v-13.15h3.32c.66 0 1.27.16 1.81.49s1.01.79 1.4 1.37c.38.59.68 1.28.89 2.09.22.8.32 1.67.32 2.62zm-2.02 0c0-.65-.06-1.24-.17-1.76-.1-.52-.26-.97-.47-1.33-.2-.37-.45-.65-.75-.84-.29-.2-.63-.3-1.01-.3h-1.32v8.47h1.32c.38 0 .72-.1 1.01-.3.3-.19.55-.47.75-.84.21-.36.37-.81.47-1.33.11-.52.17-1.11.17-1.77zm10.64-6.57v13.15h-1.99v-5.56h-3.46v5.56h-1.99v-13.15h1.99v5.5h3.46v-5.5zm9.3 13.15h-1.53c-.17 0-.31-.06-.42-.18-.1-.12-.18-.28-.24-.47l-.5-2.3h-3.24l-.51 2.3c-.04.16-.12.32-.23.45-.11.14-.25.2-.41.2h-1.55l3.31-13.15h2.02zm-3.14-5.03-.79-3.6c-.06-.23-.12-.5-.19-.81-.06-.31-.13-.64-.2-1-.06.36-.12.7-.18 1.02-.07.31-.13.58-.19.81l-.79 3.58zm6.95-8.12c.59 0 1.1.08 1.51.25s.75.4 1.01.71.45.68.57 1.12.18.93.18 1.47c0 .3-.03.58-.08.86-.06.27-.14.53-.26.76-.12.24-.27.46-.45.66s-.4.37-.66.51c.56.22.98.55 1.25 1.02.26.48.4 1.08.4 1.83 0 .56-.07 1.08-.21 1.56s-.35.9-.62 1.26-.61.64-1 .84c-.4.2-.86.3-1.37.3h-3.4v-13.15zm-1.15 2.28v3.25h1.02c.22 0 .42-.02.6-.07.17-.05.32-.13.44-.25.13-.12.22-.29.29-.5.06-.21.09-.48.09-.8 0-.31-.02-.57-.07-.78-.06-.2-.13-.37-.24-.5-.1-.12-.24-.21-.4-.27-.16-.05-.35-.08-.58-.08zm1.39 8.57c.26 0 .47-.05.64-.15.16-.1.29-.24.39-.4.09-.16.16-.35.19-.55.04-.2.05-.41.05-.62 0-.25-.02-.46-.06-.65-.04-.2-.11-.36-.21-.49s-.23-.24-.39-.31c-.17-.07-.37-.11-.62-.11h-1.38v3.28zm6.46 2.3h-2v-13.15h2zm-40.27-23.51c0 .59-.06 1.14-.19 1.64-.14.51-.33.94-.57 1.31s-.53.65-.87.86c-.34.2-.72.3-1.13.3h-2.07v-8.22h2.07c.41 0 .79.1 1.13.31s.63.49.87.86c.24.36.43.8.57 1.3.13.5.19 1.05.19 1.64zm-1.26 0c0-.41-.04-.78-.1-1.1-.07-.33-.17-.61-.3-.83-.13-.23-.28-.41-.47-.53-.18-.12-.39-.18-.63-.18h-.83v5.29h.83c.24 0 .45-.06.63-.19.19-.12.34-.29.47-.52s.23-.51.3-.83c.06-.33.1-.7.1-1.11zm3.24-2.64v1.92h1.68v1.41h-1.68v1.96h2.19v1.46h-3.43v-8.22h3.43v1.47zm6.43 4.63c.03 0 .06 0 .09.02s.06.05.08.09l.49.79c-.21.44-.48.76-.8.98-.33.22-.71.33-1.15.33-.4 0-.77-.1-1.09-.31-.32-.22-.59-.51-.81-.89-.23-.37-.4-.81-.52-1.33-.12-.51-.18-1.07-.18-1.67 0-.61.07-1.18.2-1.69.13-.52.31-.96.54-1.33.24-.37.52-.66.84-.87.33-.21.69-.31 1.08-.31.2 0 .39.03.57.08.18.06.34.13.49.23.16.09.3.21.43.34.13.14.24.29.34.44l-.41.87c-.03.05-.06.1-.1.14-.04.05-.09.07-.15.07-.05 0-.09-.02-.13-.05s-.08-.06-.12-.11c-.05-.04-.09-.09-.15-.14-.05-.05-.11-.1-.18-.14-.08-.04-.16-.08-.26-.11-.09-.03-.2-.05-.33-.05-.21 0-.4.06-.57.18s-.31.29-.43.51c-.13.22-.22.5-.29.82-.07.33-.1.7-.1 1.12s.04.79.11 1.12c.08.33.18.6.3.83.13.22.28.39.45.51s.36.18.55.18c.11 0 .22-.01.31-.03s.18-.05.26-.09.15-.09.23-.15c.07-.07.14-.15.21-.25.03-.04.06-.07.1-.1.03-.02.07-.03.1-.03zm3.67-6.1v1.61l-.1.9c-.02.2-.06.35-.12.46-.05.11-.15.16-.28.16-.1 0-.19-.05-.25-.16s-.11-.26-.13-.46l-.11-.9v-1.61zm3.88 6.64c.12 0 .22.06.29.16s.1.24.1.41v1.01h-3.75v-.56c0-.11.02-.23.05-.35s.08-.24.15-.34l1.54-2.39c.13-.2.25-.39.34-.58.1-.18.18-.37.25-.54.06-.18.11-.36.14-.54s.04-.37.04-.57c0-.32-.05-.57-.15-.75-.1-.17-.25-.26-.46-.26-.17 0-.31.07-.43.2-.11.14-.19.31-.24.51-.05.21-.11.35-.2.42-.08.06-.2.08-.35.04l-.6-.16c.04-.41.11-.77.22-1.07.11-.31.25-.56.42-.77.16-.2.35-.35.56-.45s.44-.15.69-.15c.26 0 .5.06.71.18s.39.28.54.49.26.46.34.75c.08.3.12.62.12.97 0 .3-.03.58-.08.83-.06.26-.13.5-.23.73-.09.23-.2.46-.33.68-.13.21-.26.43-.4.65l-1.04 1.65c.13-.06.26-.11.4-.15.13-.03.25-.05.36-.05zm.99-4.29c.04-.41.12-.77.23-1.07.11-.31.25-.56.41-.77.17-.2.35-.35.56-.45.22-.1.45-.15.69-.15.26 0 .5.06.7.17.21.12.38.27.52.47.14.19.25.42.32.68.08.26.11.53.11.81 0 .26-.01.49-.05.69-.03.2-.08.37-.15.51-.07.15-.15.27-.25.37s-.21.18-.34.25c.59.32.89.94.89 1.86 0 .44-.05.82-.15 1.14-.11.33-.25.6-.42.81s-.37.38-.59.48c-.23.11-.47.16-.71.16-.26 0-.48-.04-.68-.12-.2-.09-.37-.22-.53-.4-.15-.18-.29-.41-.4-.68-.12-.28-.22-.61-.3-1l.5-.31c.13-.08.25-.1.37-.07.11.04.19.13.24.26.11.32.22.54.35.68.12.15.26.22.43.22.13 0 .24-.04.33-.1.1-.07.17-.15.24-.26.06-.1.11-.22.14-.35s.04-.27.04-.4c0-.18 0-.34-.02-.48-.01-.14-.06-.26-.13-.36-.08-.1-.19-.18-.33-.24-.15-.05-.36-.08-.62-.08v-1.21c.22 0 .4-.02.54-.08.13-.05.24-.12.31-.21.08-.09.13-.21.15-.34.03-.13.04-.27.04-.43 0-.33-.05-.57-.15-.75-.1-.17-.26-.26-.47-.26-.17 0-.31.07-.42.2-.12.14-.2.31-.24.51-.05.21-.12.35-.2.42-.09.06-.2.08-.36.04z"
        fill="#d9ad41" transform="matrix(15.6512 0 0 10.0375 -53140.5 2549.32)" />
    </g>
  </g>
</svg>