<svg clip-rule="evenodd" fill-rule="evenodd" stroke-linejoin="round" stroke-miterlimit="2" viewBox="0 0 439 396" xmlns="http://www.w3.org/2000/svg" xmlns:xlink="http://www.w3.org/1999/xlink">
<title>Illustrative stamp for Pittsburgh with a bridge</title>
<clipPath id="a">
  <path clip-rule="evenodd" d="m.233.178h437.976v394.848h-437.976z"/>
</clipPath>
<path d="m.233.178h437.976v394.848h-437.976z" fill="none"/>
<g>
<path d="m370.505 56.65c-1.526.147-3.049.152-4.556 0 1.507-.153 3.03-.148 4.556 0zm31.577-31.577c-.148-1.526-.152-3.05 0-4.557.153 1.507.148 3.031 0 4.557zm31.577 31.577c1.526-.148 3.05-.153 4.556 0-1.506.152-3.03.147-4.556 0zm-31.577 31.576c.148 1.526.153 3.05 0 4.557-.152-1.507-.148-3.031 0-4.557zm-31.577-31.576c14.956-1.449 30.128-16.621 31.577-31.577 1.449 14.956 16.621 30.128 31.577 31.577-14.956 1.448-30.128 16.62-31.577 31.576-1.449-14.956-16.621-30.128-31.577-31.576zm-22.222-36.257c-.854.083-1.706.085-2.549 0 .843-.085 1.695-.083 2.549 0zm17.666-17.666c-.083-.853-.086-1.706 0-2.549.085.843.083 1.696 0 2.549zm17.666 17.666c.853-.083 1.706-.085 2.549 0-.843.085-1.696.083-2.549 0zm-17.666 17.666c.083.853.085 1.706 0 2.549-.086-.843-.083-1.696 0-2.549zm-17.666-17.666c8.367-.81 16.855-9.299 17.666-17.666.81 8.367 9.299 16.856 17.666 17.666-8.367.81-16.856 9.299-17.666 17.666-.811-8.367-9.299-16.856-17.666-17.666zm-130.855 179.232c-.192-1.427-.357-2.861-.495-4.3h11.228c11.295 43.004 41.105 76.706 89.428 101.107l-36.261 98.605h-194.426l-36.261-98.605c48.324-24.401 78.134-58.103 89.429-101.107h11.227c-.138 1.439-.303 2.872-.495 4.3zm-97.038 150.078h5.858v-92.844c-1.852 2.429-3.805 4.837-5.858 7.223zm-9.571-20.978 5.859 15.931v-76.404c-1.878 2.042-3.831 4.066-5.859 6.075zm127.452-76.957c-3.454-4.962-6.499-10.011-9.135-15.15l.001 113.085h9.134zm-76.274-20.943v-15.348h-8.848v23.491c2.509-3.151 5.504-5.937 8.848-8.143zm-32.037 118.878h9.135v-113.085c-2.636 5.138-5.681 10.188-9.135 15.149zm49.732-124.788 4.423-.196 4.424.196v-9.438h-8.847zm35.389 14.053v-23.491h-8.847v15.348c3.344 2.206 6.339 4.992 8.847 8.143zm-107.974 38.938c-3.565 3.348-7.342 6.65-11.333 9.906l11.333 30.818zm85.856-52.373 8.847 2.816v-12.872h-8.847zm-40.638 124.17h63.581v-66.01c0-32.09-10.597-48.135-31.791-48.135-21.193 0-31.79 16.045-31.79 48.135zm99.228-5.047 5.859-15.932v-54.397c-2.028-2.008-3.981-4.033-5.859-6.074zm9.571-26.026 11.333-30.818c-3.991-3.256-7.769-6.558-11.333-9.905zm-19.141 31.073h5.858v-85.621c-2.053-2.386-4.006-4.793-5.858-7.223zm-66.715-124.17v-10.056h-8.848v12.872zm-90.81 31.506c-10.867 9.403-23.775 17.997-38.84 25.732l-45.385-123.416h48.301l-26.507-72.08h324.176l-26.506 72.08h48.301l-45.385 123.416c-15.065-7.735-27.973-16.329-38.84-25.732l26.077-70.91h-251.469zm5.545-124.396v-26.226h-6.12v26.226zm27.522-21.402v-4.824h-20.844v4.824h7.38v21.402h6.084v-21.402zm117.021 51.101h-5.565c-.42 0-.863.037-1.328.112s-.932.183-1.402.323l4.89-4.995c.58-.6 1.135-1.19 1.665-1.77s.992-1.18 1.387-1.8.71-1.27.945-1.95.353-1.42.353-2.22c0-.93-.165-1.775-.495-2.535s-.79-1.41-1.38-1.95-1.3-.958-2.13-1.253-1.745-.442-2.745-.442c-.96 0-1.858.132-2.693.397s-1.575.66-2.22 1.185-1.182 1.18-1.612 1.965-.72 1.698-.87 2.738l1.95.345c.51.08.9.045 1.17-.105s.49-.455.66-.915c.1-.36.25-.69.45-.99s.445-.563.735-.788.622-.4.997-.525.783-.187 1.223-.187c.48 0 .912.067 1.297.202s.715.338.99.608.488.602.638.997.225.853.225 1.373c0 .57-.078 1.112-.233 1.627s-.377 1.023-.667 1.523-.653 1.005-1.088 1.515-.927 1.045-1.477 1.605l-6.585 6.6c-.23.22-.398.467-.503.742s-.157.538-.157.788v1.23h14.88v-2.22c0-.37-.118-.668-.353-.893s-.552-.337-.952-.337zm4.305-12.195 1.95.345c.5.08.887.045 1.162-.105s.498-.455.668-.915c.1-.36.25-.69.45-.99s.447-.563.742-.788.628-.4.998-.525.775-.187 1.215-.187c.95 0 1.71.265 2.28.795s.855 1.305.855 2.325c0 .48-.07.92-.21 1.32s-.388.742-.743 1.027-.832.508-1.432.668-1.355.245-2.265.255v2.64c1.1 0 1.977.085 2.632.255s1.158.405 1.508.705.58.662.69 1.087.165.898.165 1.418c0 .41-.078.817-.233 1.222s-.39.773-.705 1.103-.707.597-1.177.802-1.02.308-1.65.308c-.56 0-1.043-.083-1.448-.248s-.757-.38-1.057-.645-.558-.567-.773-.907-.412-.685-.592-1.035c-.17-.32-.443-.523-.818-.608s-.777-.037-1.207.143l-1.635.675c.3.93.66 1.75 1.08 2.46s.93 1.31 1.53 1.8 1.305.86 2.115 1.11 1.76.375 2.85.375c1 0 1.947-.145 2.842-.435s1.683-.718 2.363-1.283 1.22-1.262 1.62-2.092.6-1.785.6-2.865c0-1.27-.32-2.325-.96-3.165s-1.61-1.465-2.91-1.875c.54-.18 1.025-.405 1.455-.675s.79-.6 1.08-.99.512-.848.667-1.373.233-1.132.233-1.822c0-.79-.153-1.525-.458-2.205s-.742-1.273-1.312-1.778-1.258-.9-2.063-1.185-1.707-.427-2.707-.427c-.96 0-1.858.132-2.693.397s-1.575.66-2.22 1.185-1.182 1.18-1.612 1.965-.72 1.698-.87 2.738zm-67.59 7.245 7.905-13.29h-3.57c-.34 0-.62.095-.84.285s-.385.395-.495.615l-3.945 7.245c-.22.43-.415.835-.585 1.215s-.32.76-.45 1.14c-.14-.38-.298-.76-.473-1.14s-.377-.785-.607-1.215l-3.96-7.245c-.14-.26-.313-.475-.518-.645s-.482-.255-.832-.255h-3.555l7.905 13.29v8.4h4.02zm28.485 4.95h-5.565c-.42 0-.863.037-1.328.112s-.932.183-1.402.323l4.89-4.995c.58-.6 1.135-1.19 1.665-1.77s.992-1.18 1.387-1.8.71-1.27.945-1.95.353-1.42.353-2.22c0-.93-.165-1.775-.495-2.535s-.79-1.41-1.38-1.95-1.3-.958-2.13-1.253-1.745-.442-2.745-.442c-.96 0-1.858.132-2.693.397s-1.575.66-2.22 1.185-1.182 1.18-1.612 1.965-.72 1.698-.87 2.738l1.95.345c.51.08.9.045 1.17-.105s.49-.455.66-.915c.1-.36.25-.69.45-.99s.445-.563.735-.788.622-.4.997-.525.783-.187 1.223-.187c.48 0 .912.067 1.297.202s.715.338.99.608.488.602.638.997.225.853.225 1.373c0 .57-.078 1.112-.233 1.627s-.377 1.023-.667 1.523-.653 1.005-1.088 1.515-.927 1.045-1.477 1.605l-6.585 6.6c-.23.22-.398.467-.503.742s-.157.538-.157.788v1.23h14.88v-2.22c0-.37-.118-.668-.353-.893s-.552-.337-.952-.337zm19.335-7.395c0-1.9-.203-3.545-.608-4.935s-.965-2.54-1.68-3.45-1.56-1.588-2.535-2.033-2.027-.667-3.157-.667-2.178.222-3.143.667-1.802 1.123-2.512 2.033-1.265 2.06-1.665 3.45-.6 3.035-.6 4.935c0 1.89.2 3.532.6 4.927s.955 2.548 1.665 3.458 1.547 1.587 2.512 2.032 2.013.668 3.143.668 2.182-.223 3.157-.668 1.82-1.122 2.535-2.032 1.275-2.063 1.68-3.458.608-3.037.608-4.927zm-3.825 0c0 1.57-.115 2.87-.345 3.9s-.538 1.85-.923 2.46-.827 1.037-1.327 1.282-1.02.368-1.56.368c-.53 0-1.043-.123-1.538-.368s-.932-.672-1.312-1.282-.683-1.43-.908-2.46-.337-2.33-.337-3.9.112-2.87.337-3.9.528-1.85.908-2.46.817-1.038 1.312-1.283 1.008-.367 1.538-.367c.54 0 1.06.122 1.56.367s.942.673 1.327 1.283.693 1.43.923 2.46.345 2.33.345 3.9zm-32.337-48.53h-9.648v26.226h10.476c1.572 0 2.97-.201 4.194-.603s2.253-.96 3.087-1.674 1.467-1.551 1.899-2.511.648-1.998.648-3.114c0-1.488-.414-2.7-1.242-3.636s-2.106-1.614-3.834-2.034c.792-.288 1.47-.63 2.034-1.026s1.026-.831 1.386-1.305.624-.984.792-1.53.252-1.113.252-1.701c0-1.08-.183-2.058-.549-2.934s-.951-1.62-1.755-2.232-1.842-1.086-3.114-1.422-2.814-.504-4.626-.504zm.72 21.636h-4.284v-6.534h4.248c.768 0 1.404.072 1.908.216s.909.348 1.215.612.522.588.648.972.189.816.189 1.296c0 .42-.054.834-.162 1.242s-.306.774-.594 1.098-.687.588-1.197.792-1.167.306-1.971.306zm-4.284-17.082h3.564c.684 0 1.275.054 1.773.162s.909.288 1.233.54.564.585.72.999.234.933.234 1.557c0 .636-.099 1.164-.297 1.584s-.486.75-.864.99-.837.408-1.377.504-1.146.144-1.818.144h-3.168zm32.562 16.866c-.816 0-1.545-.135-2.187-.405s-1.185-.66-1.629-1.17-.783-1.128-1.017-1.854-.351-1.551-.351-2.475v-15.516h-6.084v15.534c0 1.608.258 3.084.774 4.428s1.26 2.502 2.232 3.474 2.154 1.728 3.546 2.268 2.964.81 4.716.81c1.74 0 3.306-.27 4.698-.81s2.574-1.296 3.546-2.268 1.719-2.13 2.241-3.474.783-2.82.783-4.428v-15.534h-6.084v15.534c0 .924-.117 1.749-.351 2.475s-.573 1.341-1.017 1.845-.987.891-1.629 1.161-1.371.405-2.187.405zm41.076 4.806-5.58-9.126c-.276-.42-.588-.783-.936-1.089s-.72-.561-1.116-.765c.852-.324 1.605-.738 2.259-1.242s1.203-1.077 1.647-1.719.78-1.341 1.008-2.097.342-1.56.342-2.412c0-1.116-.192-2.148-.576-3.096s-.999-1.77-1.845-2.466-1.938-1.239-3.276-1.629-2.955-.585-4.851-.585h-8.532v26.226h6.084v-9.702h1.548c.468 0 .828.075 1.08.225s.48.387.684.711l4.356 7.614c.444.768 1.176 1.152 2.196 1.152zm-12.924-13.896h-2.448v-7.776h2.448c1.572 0 2.733.324 3.483.972s1.125 1.548 1.125 2.7c0 .576-.084 1.113-.252 1.611s-.438.933-.81 1.305-.849.663-1.431.873-1.287.315-2.115.315zm30.87.306v3.348c0 .312.108.57.324.774s.516.306.9.306h2.592v3.978c-.564.24-1.143.432-1.737.576s-1.257.216-1.989.216c-1.188 0-2.271-.195-3.249-.585s-1.818-.957-2.52-1.701-1.245-1.656-1.629-2.736-.576-2.316-.576-3.708c0-1.26.174-2.403.522-3.429s.843-1.905 1.485-2.637 1.419-1.299 2.331-1.701 1.938-.603 3.078-.603c.612 0 1.164.03 1.656.09s.96.156 1.404.288.879.303 1.305.513.879.459 1.359.747c.504.312.975.42 1.413.324s.795-.354 1.071-.774l1.764-2.682c-.528-.504-1.128-.972-1.8-1.404s-1.413-.804-2.223-1.116-1.695-.558-2.655-.738-1.986-.27-3.078-.27c-2.112 0-4.023.33-5.733.99s-3.168 1.584-4.374 2.772-2.133 2.601-2.781 4.239-.972 3.435-.972 5.391c0 1.92.342 3.699 1.026 5.337s1.656 3.054 2.916 4.248 2.775 2.13 4.545 2.808 3.735 1.017 5.895 1.017c1.656 0 3.243-.222 4.761-.666s2.949-1.158 4.293-2.142v-11.07zm39.906-12.636h-6.12v10.962h-10.656v-10.962h-6.12v26.226h6.12v-11.088h10.656v11.088h6.12zm-172.314 37.685h-3.045c-.18 0-.335.005-.465.015s-.248.035-.353.075-.202.105-.292.195-.175.21-.255.36l-6.405 12.015c-.17.32-.33.652-.48.997s-.295.703-.435 1.073c-.14-.36-.283-.71-.428-1.05s-.302-.67-.472-.99l-6.495-12.045c-.08-.15-.163-.27-.248-.36s-.18-.155-.285-.195-.222-.065-.352-.075-.285-.015-.465-.015h-3.045v21.69h3.555v-14.01c0-.27-.01-.565-.03-.885s-.045-.645-.075-.975l6.63 12.36c.31.59.785.885 1.425.885h.57c.64 0 1.115-.295 1.425-.885l6.555-12.315c-.06.65-.09 1.255-.09 1.815v14.01h3.555zm23.415 21.69-8.52-21.69h-4.11l-8.535 21.69h3.15c.34 0 .625-.095.855-.285s.385-.4.465-.63l1.62-4.425h8.985l1.62 4.425c.11.26.275.477.495.652s.505.263.855.263zm-7.125-8.19h-6.9l2.625-7.185c.13-.33.265-.718.405-1.163s.275-.922.405-1.432c.14.51.28.985.42 1.425s.275.82.405 1.14zm-11.772-46.361v-4.824h-20.844v4.824h7.38v21.402h6.084v-21.402zm21.168.504 1.512-2.826c-.468-.432-.999-.819-1.593-1.161s-1.233-.636-1.917-.882-1.407-.432-2.169-.558-1.545-.189-2.349-.189c-1.44 0-2.718.219-3.834.657s-2.058 1.023-2.826 1.755-1.35 1.566-1.746 2.502-.594 1.896-.594 2.88c0 1.224.168 2.253.504 3.087s.777 1.53 1.323 2.088 1.167 1.008 1.863 1.35 1.41.63 2.142.864 1.446.447 2.142.639 1.317.414 1.863.666.987.57 1.323.954.504.882.504 1.494c0 1.056-.306 1.827-.918 2.313s-1.47.729-2.574.729c-.816 0-1.524-.114-2.124-.342s-1.131-.48-1.593-.756-.876-.528-1.242-.756-.729-.342-1.089-.342c-.276 0-.531.069-.765.207s-.423.309-.567.513l-1.8 2.844c.516.516 1.122.984 1.818 1.404s1.44.783 2.232 1.089 1.611.543 2.457.711 1.677.252 2.493.252c1.488 0 2.817-.225 3.987-.675s2.154-1.068 2.952-1.854 1.407-1.707 1.827-2.763.63-2.19.63-3.402c0-1.092-.168-2.025-.504-2.799s-.777-1.431-1.323-1.971-1.17-.984-1.872-1.332-1.419-.651-2.151-.909-1.449-.492-2.151-.702-1.326-.441-1.872-.693-.987-.552-1.323-.9-.504-.786-.504-1.314c0-.828.279-1.485.837-1.971s1.407-.729 2.547-.729c.66 0 1.248.087 1.764.261s.975.369 1.377.585.762.411 1.08.585.615.261.891.261c.312 0 .567-.072.765-.216s.387-.36.567-.648zm-56.413 43.202c0-.804-.652-1.456-1.455-1.456h-42.369c-.804 0-1.456.652-1.456 1.456 0 .803.652 1.456 1.456 1.456h42.369c.803 0 1.455-.653 1.455-1.456zm197.882 0c0-.804-.652-1.456-1.456-1.456h-42.369c-.803 0-1.456.652-1.456 1.456 0 .803.653 1.456 1.456 1.456h42.369c.804 0 1.456-.653 1.456-1.456zm-239.047-48.53h-9.252v26.226h6.084v-8.766h3.168c1.812 0 3.381-.219 4.707-.657s2.421-1.047 3.285-1.827 1.506-1.716 1.926-2.808.63-2.292.63-3.6c0-1.212-.204-2.34-.612-3.384s-1.041-1.95-1.899-2.718-1.95-1.371-3.276-1.809-2.913-.657-4.761-.657zm0 12.87h-3.168v-8.316h3.168c.768 0 1.431.096 1.989.288s1.02.465 1.386.819.639.777.819 1.269.27 1.038.27 1.638c0 1.356-.348 2.412-1.044 3.168s-1.836 1.134-3.42 1.134z" fill="#ffc100"/></g></svg>