<svg clip-rule="evenodd" fill-rule="evenodd" stroke-linejoin="round" stroke-miterlimit="2" viewBox="0 0 328 293" xmlns="http://www.w3.org/2000/svg" xmlns:xlink="http://www.w3.org/1999/xlink"><title>Illustrative stamp for Montreux with Lake Geneva</title><clipPath id="a"><path clip-rule="evenodd" d="m.169.178h327.384v292.104h-327.384z"/></clipPath><path d="m.169.178h327.384v292.104h-327.384z" fill="none"/>
<g><path d="m18.852 189.385c1.818.675 3.893.603 5.726-.335l3.372-1.724c-1.004.513.014-.011.783-.399.919-.464 1.738-1.127 2.391-1.957l2.82-3.587 1.491-1.892c.015-.019.03-.038.044-.057l.541-.695c.365-.467.675-.983.919-1.542l.707-1.621 2.694-6.159c.308-.704.5-1.454.569-2.22l.666-7.44.202-.432 1.305-1.33 2.999-1.362c1.259-.571 2.324-1.497 3.066-2.664l1.251-1.968 6.884-10.83c.221-.348.412-.715.569-1.097l1.829-4.417 1.545-1.568c.914-.724 1.765-1.807 2.285-3.407l.278-.857.01-.032 1.634-4.892 4.782-6.665c.353-.492.641-1.026.859-1.591l1.63-4.23 3.891-3.513 5.026-2.477 4.53-.479 2.326 6.264c.555 1.494 1.594 2.759 2.953 3.592l4.091 2.511 1.299.814c.957.599 2.039.961 3.158 1.06l1.008.589c-.11 0-.219-.003-.329-.008l4.692.216c2.29.106 4.491-.897 5.914-2.694l2.506-3.166.342-.099c1.945-.561 3.56-1.922 4.441-3.744l.23-.476 1.907-.264c.4-.056.795-.145 1.18-.267l6.776-2.155c.474-.151.931-.351 1.364-.597l7.6-4.323c.483-.274.932-.604 1.338-.983l2.556-2.385c.973-.908 1.673-2.07 2.019-3.355l.238-.883c.674.36 1.413.615 2.193.744 2.766.457 5.543-.75 7.095-3.085l1.754-2.64.131.056c.863.366 1.79.558 2.728.565l7.601.057c.458.003.916-.038 1.367-.122l21.747-4.081 3.997-.309 10.325 1.013c.437.042.876.045 1.313.007l3.984-.347.012-.001 11.222-.996 8.905 2.258c.55.14 1.114.213 1.681.218l4.397.044 10.581 4.231c1.124.449 2.343.604 3.543.452l2.583-.328.644-.078 7.777 2.933c1.018.384 2.111.53 3.195.426l4.169-.401 1.58.328c.269.055.54.095.813.12l1.656.244s2.796.414 5.309-2.374l.345-.383 1.737-.327 13.775-.806c.971-.056 1.907-.31 2.758-.734v200.036h-294.498c-.276-33.593 6.087-69.132 18.674-102.928zm254.352 9.717 1.64.29c.42.067.744.04.97-.08.227-.12.41-.363.55-.73.12-.36.339-.661.655-.905.317-.243.705-.365 1.165-.365.567 0 .989.155 1.265.465.277.31.415.752.415 1.325 0 .28-.033.537-.1.77-.066.234-.201.432-.405.595-.203.164-.491.292-.865.385-.373.094-.863.14-1.47.14v2.14c.72 0 1.282.049 1.685.145.404.097.705.235.905.415s.322.395.365.645c.044.25.065.532.065.845 0 .24-.043.477-.13.71-.086.234-.215.442-.385.625-.17.184-.383.334-.64.45-.256.117-.558.175-.905.175-.453 0-.848-.125-1.185-.375-.336-.25-.655-.651-.955-1.205-.133-.24-.353-.393-.66-.46-.306-.066-.64-.03-1 .11l-1.38.56c.234.68.509 1.267.825 1.76.317.494.685.899 1.105 1.215.42.317.9.55 1.44.7s1.157.225 1.85.225c.674 0 1.32-.095 1.94-.285s1.165-.475 1.635-.855.845-.856 1.125-1.43c.28-.573.42-1.246.42-2.02 0-1.633-.806-2.733-2.42-3.3.347-.12.655-.268.925-.445.27-.176.497-.393.68-.65.184-.256.322-.56.415-.91.094-.35.14-.755.14-1.215 0-.506-.1-.988-.3-1.445-.2-.456-.493-.858-.88-1.205-.386-.346-.86-.621-1.42-.825-.56-.203-1.2-.305-1.92-.305-.666 0-1.29.089-1.87.265-.58.177-1.095.445-1.545.805s-.826.81-1.13 1.35c-.303.54-.508 1.174-.615 1.9zm-69.597 75.179h-9.72v-21.366h-6.084v26.226h15.804zm80.46-8.262c0-1.884-.327-3.627-.981-5.229s-1.575-2.985-2.763-4.149-2.619-2.076-4.293-2.736-3.531-.99-5.571-.99h-10.188v26.226h10.188c2.04 0 3.897-.327 5.571-.981s3.105-1.566 4.293-2.736 2.109-2.556 2.763-4.158.981-3.351.981-5.247zm-6.228 0c0 1.308-.168 2.484-.504 3.528s-.819 1.929-1.449 2.655-1.401 1.284-2.313 1.674-1.95.585-3.114.585h-4.068v-16.866h4.068c1.164 0 2.202.195 3.114.585s1.683.948 2.313 1.674 1.113 1.611 1.449 2.655.504 2.214.504 3.51zm-191.988-13.104h-4.788c-.504 0-.936.132-1.296.396s-.588.57-.684.918l-3.6 13.68c-.108.42-.213.867-.315 1.341s-.201.981-.297 1.521c-.216-1.068-.48-2.022-.792-2.862l-4.212-13.68c-.168-.384-.414-.699-.738-.945s-.75-.369-1.278-.369h-1.8c-.504 0-.933.135-1.287.405s-.585.573-.693.909l-4.248 13.68c-.312.876-.576 1.878-.792 3.006-.108-.552-.216-1.083-.324-1.593s-.216-.981-.324-1.413l-3.6-13.68c-.108-.396-.339-.714-.693-.954s-.795-.36-1.323-.36h-5.112l8.1 26.226h5.508l5.004-16.254c.096-.252.186-.531.27-.837s.168-.627.252-.963c.084.336.168.657.252.963s.174.585.27.837l4.932 16.254h5.508zm101.431-30.054v-4.824h-20.844v4.824h7.38v21.402h6.084v-21.402zm-142.399 35.382 1.512-2.826c-.468-.432-.999-.819-1.593-1.161s-1.233-.636-1.917-.882-1.407-.432-2.169-.558-1.545-.189-2.349-.189c-1.44 0-2.718.219-3.834.657s-2.058 1.023-2.826 1.755-1.35 1.566-1.746 2.502-.594 1.896-.594 2.88c0 1.224.168 2.253.504 3.087s.777 1.53 1.323 2.088 1.167 1.008 1.863 1.35 1.41.63 2.142.864 1.446.447 2.142.639 1.317.414 1.863.666.987.57 1.323.954.504.882.504 1.494c0 1.056-.306 1.827-.918 2.313s-1.47.729-2.574.729c-.816 0-1.524-.114-2.124-.342s-1.131-.48-1.593-.756-.876-.528-1.242-.756-.729-.342-1.089-.342c-.276 0-.531.069-.765.207s-.423.309-.567.513l-1.8 2.844c.516.516 1.122.984 1.818 1.404s1.44.783 2.232 1.089 1.611.543 2.457.711 1.677.252 2.493.252c1.488 0 2.817-.225 3.987-.675s2.154-1.068 2.952-1.854 1.407-1.707 1.827-2.763.63-2.19.63-3.402c0-1.092-.168-2.025-.504-2.799s-.777-1.431-1.323-1.971-1.17-.984-1.872-1.332-1.419-.651-2.151-.909-1.449-.492-2.151-.702-1.326-.441-1.872-.693-.987-.552-1.323-.9-.504-.786-.504-1.314c0-.828.279-1.485.837-1.971s1.407-.729 2.547-.729c.66 0 1.248.087 1.764.261s.975.369 1.377.585.762.411 1.08.585.615.261.891.261c.312 0 .567-.072.765-.216s.387-.36.567-.648zm215.441-56.021c0-1.273-.136-2.376-.41-3.31-.273-.933-.651-1.706-1.135-2.32-.483-.613-1.056-1.068-1.72-1.365-.663-.296-1.381-.445-2.155-.445-.773 0-1.488.149-2.145.445-.656.297-1.225.752-1.705 1.365-.48.614-.855 1.387-1.125 2.32-.27.934-.405 2.037-.405 3.31 0 1.274.135 2.377.405 3.31.27.934.645 1.707 1.125 2.32.48.614 1.049 1.07 1.705 1.37.657.3 1.372.45 2.145.45.774 0 1.492-.15 2.155-.45.664-.3 1.237-.756 1.72-1.37.484-.613.862-1.386 1.135-2.32.274-.933.41-2.036.41-3.31zm-3.2 0c0 1.014-.063 1.84-.19 2.48-.126.64-.295 1.145-.505 1.515s-.448.624-.715.76c-.266.137-.536.205-.81.205-.273 0-.541-.068-.805-.205-.263-.136-.496-.39-.7-.76-.203-.37-.366-.875-.49-1.515-.123-.64-.185-1.466-.185-2.48 0-1.006.062-1.831.185-2.475.124-.643.287-1.148.49-1.515.204-.366.437-.618.7-.755.264-.136.532-.205.805-.205.274 0 .544.069.81.205.267.137.505.389.715.755.21.367.379.872.505 1.515.127.644.19 1.469.19 2.475zm-30.26-.26v1.86c0 .174.06.317.18.43.12.114.287.17.5.17h1.44v2.21c-.313.134-.635.24-.965.32s-.698.12-1.105.12c-.66 0-1.261-.108-1.805-.325-.543-.216-1.01-.531-1.4-.945-.39-.413-.691-.92-.905-1.52-.213-.6-.32-1.286-.32-2.06 0-.7.097-1.335.29-1.905.194-.57.469-1.058.825-1.465.357-.406.789-.721 1.295-.945.507-.223 1.077-.335 1.71-.335.34 0 .647.017.92.05.274.034.534.087.78.16.247.074.489.169.725.285.237.117.489.255.755.415.28.174.542.234.785.18.244-.053.442-.196.595-.43l.98-1.49c-.293-.28-.626-.54-1-.78-.373-.24-.785-.446-1.235-.62-.45-.173-.941-.31-1.475-.41-.533-.1-1.103-.15-1.71-.15-1.173 0-2.235.184-3.185.55-.95.367-1.76.88-2.43 1.54s-1.185 1.445-1.545 2.355-.54 1.909-.54 2.995c0 1.067.19 2.055.57 2.965s.92 1.697 1.62 2.36c.7.664 1.542 1.184 2.525 1.56.984.377 2.075.565 3.275.565.92 0 1.802-.123 2.645-.37.844-.246 1.639-.643 2.385-1.19v-6.15zm20.42 4.75h-2.72c-.306 0-.64.03-1 .09s-.723.147-1.09.26l2.85-2.92c.387-.393.752-.781 1.095-1.165.344-.383.645-.78.905-1.19s.465-.841.615-1.295c.15-.453.225-.946.225-1.48 0-.62-.108-1.188-.325-1.705-.216-.516-.528-.961-.935-1.335-.406-.373-.898-.665-1.475-.875-.576-.21-1.225-.315-1.945-.315-.666 0-1.29.089-1.87.265-.58.177-1.095.445-1.545.805s-.826.81-1.13 1.35c-.303.54-.508 1.174-.615 1.9l1.64.29c.42.067.744.04.97-.08.227-.12.41-.363.55-.73.12-.36.339-.661.655-.905.317-.243.705-.365 1.165-.365.567 0 .989.155 1.265.465.277.31.415.755.415 1.335 0 .354-.043.689-.13 1.005-.086.317-.216.634-.39.95-.173.317-.393.639-.66.965-.266.327-.58.67-.94 1.03l-4.2 4.23c-.2.18-.34.38-.42.6s-.12.427-.12.62v1h10.24v-1.8c0-.3-.096-.541-.29-.725-.193-.183-.456-.275-.79-.275zm23.2 0h-2.72c-.306 0-.64.03-1 .09s-.723.147-1.09.26l2.85-2.92c.387-.393.752-.781 1.095-1.165.344-.383.645-.78.905-1.19s.465-.841.615-1.295c.15-.453.225-.946.225-1.48 0-.62-.108-1.188-.325-1.705-.216-.516-.528-.961-.935-1.335-.406-.373-.898-.665-1.475-.875-.576-.21-1.225-.315-1.945-.315-.666 0-1.29.089-1.87.265-.58.177-1.095.445-1.545.805s-.826.81-1.13 1.35c-.303.54-.508 1.174-.615 1.9l1.64.29c.42.067.744.04.97-.08.227-.12.41-.363.55-.73.12-.36.339-.661.655-.905.317-.243.705-.365 1.165-.365.567 0 .989.155 1.265.465.277.31.415.755.415 1.335 0 .354-.043.689-.13 1.005-.086.317-.216.634-.39.95-.173.317-.393.639-.66.965-.266.327-.58.67-.94 1.03l-4.2 4.23c-.2.18-.34.38-.42.6s-.12.427-.12.62v1h10.24v-1.8c0-.3-.096-.541-.29-.725-.193-.183-.456-.275-.79-.275zm-59.52.13c-.453 0-.858-.075-1.215-.225-.356-.15-.658-.366-.905-.65-.246-.283-.435-.626-.565-1.03-.13-.403-.195-.861-.195-1.375v-8.62h-3.38v8.63c0 .894.144 1.714.43 2.46.287.747.7 1.39 1.24 1.93s1.197.96 1.97 1.26c.774.3 1.647.45 2.62.45.967 0 1.837-.15 2.61-.45.774-.3 1.43-.72 1.97-1.26s.955-1.183 1.245-1.93c.29-.746.435-1.566.435-2.46v-8.63h-3.38v8.63c0 .514-.065.972-.195 1.375-.13.404-.318.745-.565 1.025-.246.28-.548.495-.905.645-.356.15-.761.225-1.215.225zm-47.604 11.195h-5.364v13.878c0 .42.012.867.036 1.341s.066.963.126 1.467l-12.474-15.75c-.168-.204-.318-.366-.45-.486s-.27-.213-.414-.279-.306-.111-.486-.135-.402-.036-.666-.036h-3.204v26.226h5.364v-14.058c0-.384-.009-.795-.027-1.233s-.051-.891-.099-1.359l12.366 15.642c.312.372.627.633.945.783s.711.225 1.179.225h3.168zm-68.779 61.104v-26.226h-6.12v26.226zm125.569-56.424h10.764v-4.68h-16.884v26.226h16.884v-4.68h-10.764v-6.246h8.244v-4.5h-8.244zm-83.268 8.424c0-1.884-.327-3.642-.981-5.274s-1.575-3.048-2.763-4.248-2.619-2.145-4.293-2.835-3.531-1.035-5.571-1.035-3.9.342-5.58 1.026-3.117 1.626-4.311 2.826-2.118 2.616-2.772 4.248-.981 3.396-.981 5.292.327 3.66.981 5.292 1.578 3.051 2.772 4.257 2.631 2.151 4.311 2.835 3.54 1.026 5.58 1.026 3.897-.342 5.571-1.026 3.105-1.629 4.293-2.835 2.109-2.625 2.763-4.257.981-3.396.981-5.292zm-6.228 0c0 1.308-.168 2.481-.504 3.519s-.819 1.917-1.449 2.637-1.401 1.269-2.313 1.647-1.95.567-3.114.567c-1.176 0-2.223-.189-3.141-.567s-1.692-.927-2.322-1.647-1.113-1.599-1.449-2.637-.504-2.211-.504-3.519c0-1.296.168-2.463.504-3.501s.819-1.917 1.449-2.637 1.404-1.272 2.322-1.656 1.965-.576 3.141-.576c1.164 0 2.202.192 3.114.576s1.683.936 2.313 1.656 1.113 1.599 1.449 2.637.504 2.205.504 3.501zm153.468 13.122-8.406-13.752 8.226-12.474h-5.832c-.276 0-.507.06-.693.18s-.363.312-.531.576l-4.572 7.848c-.096.156-.183.306-.261.45s-.147.294-.207.45l-5.22-8.838c-.144-.24-.309-.411-.495-.513s-.477-.153-.873-.153h-6.084l8.118 12.726-8.442 13.5h5.688c.36 0 .654-.102.882-.306s.426-.426.594-.666l4.896-8.496c.12-.192.228-.42.324-.684l5.256 9.18c.144.264.339.492.585.684s.567.288.963.288zm-38.52-4.806c-.816 0-1.545-.135-2.187-.405s-1.185-.66-1.629-1.17-.783-1.128-1.017-1.854-.351-1.551-.351-2.475v-15.516h-6.084v15.534c0 1.608.258 3.084.774 4.428s1.26 2.502 2.232 3.474 2.154 1.728 3.546 2.268 2.964.81 4.716.81c1.74 0 3.306-.27 4.698-.81s2.574-1.296 3.546-2.268 1.719-2.13 2.241-3.474.783-2.82.783-4.428v-15.534h-6.084v15.534c0 .924-.117 1.749-.351 2.475s-.573 1.341-1.017 1.845-.987.891-1.629 1.161-1.371.405-2.187.405zm-95.977 18.138h10.764v-4.68h-16.884v26.226h16.884v-4.68h-10.764v-6.246h8.244v-4.5h-8.244zm62.191-13.332-5.58-9.126c-.276-.42-.588-.783-.936-1.089s-.72-.561-1.116-.765c.852-.324 1.605-.738 2.259-1.242s1.203-1.077 1.647-1.719.78-1.341 1.008-2.097.342-1.56.342-2.412c0-1.116-.192-2.148-.576-3.096s-.999-1.77-1.845-2.466-1.938-1.239-3.276-1.629-2.955-.585-4.851-.585h-8.532v26.226h6.084v-9.702h1.548c.468 0 .828.075 1.08.225s.48.387.684.711l4.356 7.614c.444.768 1.176 1.152 2.196 1.152zm-12.924-13.896h-2.448v-7.776h2.448c1.572 0 2.733.324 3.483.972s1.125 1.548 1.125 2.7c0 .576-.084 1.113-.252 1.611s-.438.933-.81 1.305-.849.663-1.431.873-1.287.315-2.115.315zm5.222-20.855-5.64-14.57h-3.46l-5.64 14.57h2.64c.28 0 .515-.075.705-.225s.322-.318.395-.505l.86-2.54h5.54l.86 2.54c.094.214.23.389.41.525.18.137.417.205.71.205zm-5.37-5.57h-3.99l1.34-3.97c.1-.253.207-.553.32-.9.114-.346.22-.723.32-1.13.114.4.227.772.34 1.115.114.344.22.642.32.895zm-92.678 14.095h-4.644c-.264 0-.495.006-.693.018s-.375.048-.531.108-.297.153-.423.279-.249.303-.369.531l-6.732 13.248c-.252.456-.489.936-.711 1.44s-.435 1.02-.639 1.548c-.204-.516-.417-1.02-.639-1.512s-.453-.966-.693-1.422l-6.75-13.302c-.12-.228-.243-.405-.369-.531s-.267-.219-.423-.279-.333-.096-.531-.108-.429-.018-.693-.018h-4.644v26.226h5.364v-15.084c0-.348-.012-.729-.036-1.143s-.054-.837-.09-1.269l6.966 13.518c.216.42.507.738.873.954s.783.324 1.251.324h.828c.468 0 .885-.108 1.251-.324s.657-.534.873-.954l6.966-13.482c-.048.42-.081.834-.099 1.242s-.027.786-.027 1.134v15.084h5.364zm124.163 61.104-10.152-26.226h-6.228l-10.152 26.226h4.752c.504 0 .927-.135 1.269-.405s.579-.573.711-.909l1.548-4.572h9.972l1.548 4.572c.168.384.414.699.738.945s.75.369 1.278.369zm-9.666-10.026h-7.182l2.412-7.146c.18-.456.372-.996.576-1.62s.396-1.302.576-2.034c.204.72.408 1.389.612 2.007s.396 1.155.576 1.611zm-80.388-14.004v-2.196h-19.62v4.68h11.88l-12.348 17.64c-.168.228-.3.477-.396.747s-.144.543-.144.819v2.34h20.232v-4.68h-12.492l12.312-17.586c.18-.264.321-.546.423-.846s.153-.606.153-.918zm45.414 24.03-5.58-9.126c-.276-.42-.588-.783-.936-1.089s-.72-.561-1.116-.765c.852-.324 1.605-.738 2.259-1.242s1.203-1.077 1.647-1.719.78-1.341 1.008-2.097.342-1.56.342-2.412c0-1.116-.192-2.148-.576-3.096s-.999-1.77-1.845-2.466-1.938-1.239-3.276-1.629-2.955-.585-4.851-.585h-8.532v26.226h6.084v-9.702h1.548c.468 0 .828.075 1.08.225s.48.387.684.711l4.356 7.614c.444.768 1.176 1.152 2.196 1.152zm-12.924-13.896h-2.448v-7.776h2.448c1.572 0 2.733.324 3.483.972s1.125 1.548 1.125 2.7c0 .576-.084 1.113-.252 1.611s-.438.933-.81 1.305-.849.663-1.431.873-1.287.315-2.115.315zm-54.162-7.506v-4.824h-20.844v4.824h7.38v21.402h6.084v-21.402zm136.692-4.824h-5.364v13.878c0 .42.012.867.036 1.341s.066.963.126 1.467l-12.474-15.75c-.168-.204-.318-.366-.45-.486s-.27-.213-.414-.279-.306-.111-.486-.135-.402-.036-.666-.036h-3.204v26.226h5.364v-14.058c0-.384-.009-.795-.027-1.233s-.051-.891-.099-1.359l12.366 15.642c.312.372.627.633.945.783s.711.225 1.179.225h3.168zm62.759-196.818-23.152 23.153-23.153-23.153c-9.078-8.307-12.306-24.535-7.098-35.683 4.201-11.566 17.958-20.758 30.251-20.213 12.293-.545 26.05 8.647 30.25 20.213 5.208 11.148 1.981 27.376-7.098 35.683zm-11.576-34.729c-5.119-6.274-18.034-6.274-23.153 0-6.273 5.119-6.273 18.034 0 23.152 5.119 6.274 18.034 6.274 23.153 0 6.274-5.118 6.274-18.033 0-23.152zm-28.082 58.167c3.921-.709 3.218-.386 9.487-.79 2.231 2.356 3.66 3.863 3.66 3.863.501.501 1.086.866 1.71 1.097l-1.651 2.194-14.23.832-5.104.962-.639 1.221-.777.863-1.023-.216-2.635-.546-5.241.503-9.412-3.549-2.399.29-2.605.331-11.821-4.727-5.732-.056-10.079-2.557-12.429 1.104-3.983.347-10.948-1.075-5.005.388-22.126 4.152-7.601-.057-4.199-1.781-2.724 1.449-3.676 5.531-.59-2.226 2.104-4.31.216-.431-.53-1.035-6.843 3.218-2.784 2.513-1.061 3.935-.984 3.65-2.556 2.385-7.6 4.323-6.777 2.154-5.683.789-1.889 3.907-2.537.731-3.924 4.957-4.691-.217-.383-.561-1.328-.832-4.119-2.528-2.891-7.785-1.888-2.37-3.443-.876-7.325.775-7.052 3.476-5.889 5.316-2.242 5.817-5.409 7.54-1.985 5.944-.304.937-3.098 3.143-2.36 5.703-6.883 10.83-1.251 1.967-4.208 1.91-3.087 3.147-1.249 2.669-.778 8.689-2.696 6.162-.708 1.624-.569.733-1.494 1.895-2.823 3.591-.816.416-3.373 1.724-.757-1.021.226-.889.531-2.125-.304-2.413-1.003-7.929.846-7.51 2.055-4.855 3.01-2.442 1.336-3.031 1.339-13.227 7.07-10.846 1.797-3.304 3.865-13.961 3.62-6.145 4.259-5.215 2.91-2.427 2.902-4.425 2.241-1.68 5.614-1.969 3.295-1.738 3.766-7.914 1.574-5.3 3.411-1.738 3.315-5.515 9.391-9.896 4.72-3.462 4.426-.603 10.137 1.206 3.286.174 20.129-8.819 5.753-6.235 2.979-1.12 3.519-6.349 2.616-1.567 3.648-3.992 1.16-.289 7.247 3.978 2.123.245 6.226.258 5.939-2.815 5.505-.172 6.146.976 4.592 2.714 10.61 1.208 4.741-1.322 2.231.763 7.787 2.627 6.61 5.33 2.753 1.278 4.367.489 4.425-.461 6.706 5.101 4.917 2.225 2.803-.058.935-.013 3.323.832 10.797 2.715 1.318 1.311c.585.692 2.294 2.552 4.611 5.041-7.103.467-6.925.432-9.948-.017l-8.511-2.14-2.42-.605-2.76.057c-1.063.022-2.117-.194-3.085-.632l-4.917-2.226c-.488-.22-.949-.495-1.375-.82l-4.462-3.393-1.619.169c-.509.053-1.023.051-1.532-.006l-4.367-.49c-.763-.085-1.508-.294-2.204-.617l-2.754-1.277c-.527-.245-1.022-.553-1.474-.917l-5.619-4.532-6.582-2.221-.025-.008-.143-.049-2.614.728c-.884.247-1.807.32-2.719.216l-10.61-1.208c-.995-.113-1.956-.435-2.818-.945l-3.425-2.023-4.141-.658-3.345.104-4.596 2.178c-1.044.495-2.192.728-3.346.681l-6.225-.258c-.174-.007-.348-.021-.522-.041l-2.123-.244c-.917-.106-1.804-.389-2.613-.833l-2.934-1.61-.433.474c-.467.51-1.005.95-1.598 1.305l-.974.584-2.592 4.675c-.82 1.479-2.139 2.619-3.722 3.214l-1.397.526-4.607 4.992c-.667.723-1.476 1.3-2.377 1.694l-20.13 8.819c-1.017.446-2.125.648-3.235.589l-3.285-.174c-.155-.008-.31-.022-.465-.04l-9.235-1.098-1.733.236-2.746 2.014-8.414 8.868-2.914 4.846c-.687 1.144-1.682 2.071-2.87 2.677l-.688.35-.703 2.369c-.105.354-.238.7-.397 1.033l-3.767 7.915c-.66 1.387-1.75 2.523-3.109 3.24l-3.294 1.737c-.311.164-.634.305-.966.422l-4.578 1.605-.362.272-2.217 3.381c-.386.588-.856 1.115-1.396 1.565l-2.386 1.989-3.482 4.265-2.868 4.868-3.614 13.055c-.145.523-.349 1.028-.608 1.505l-1.798 3.303c-.09.166-.186.327-.289.485l-6.125 9.395-.657 6.498c.35-.243.723-.454 1.112-.631l2.279-1.035.113-.178 6.551-10.306 2.123-5.13c.351-.848.863-1.621 1.508-2.275l1.924-1.953 1.78-5.328c.226-.677.553-1.316.969-1.896l4.877-6.799 1.915-4.967c.402-1.043 1.044-1.977 1.873-2.726l5.89-5.316c.487-.441 1.034-.812 1.624-1.102l7.052-3.476c.752-.371 1.565-.606 2.399-.694l7.325-.776c.84-.089 1.689-.028 2.507.181l3.442.875c1.507.384 2.848 1.25 3.817 2.467l1.888 2.37c.469.59.843 1.251 1.105 1.958l2.035 5.479 1.802 1.106 1.235-1.561c.806-1.018 1.872-1.793 3.081-2.247l.517-1.071c1.037-2.144 3.076-3.628 5.435-3.955l5.082-.705 5.485-1.744 6.223-3.54.457-.426.454-1.683 1.061-3.936c.357-1.323 1.087-2.515 2.105-3.434l2.783-2.512c.52-.47 1.107-.86 1.742-1.159l6.843-3.218c2.306-1.085 4.908-.827 6.909.469 1.366-.258 2.795-.114 4.105.441l2.891 1.227 5.491.041 21.448-4.025c.252-.047.507-.081.763-.101l5.006-.387c.415-.033.832-.028 1.246.012l10.291 1.01 3.321-.289 12.422-1.103c.798-.071 1.603-.006 2.381.191l9.252 2.346 4.879.049c.882.008 1.755.181 2.574.508l10.108 4.042.775-.099c.015-.002.03-.003.044-.005l2.399-.29c1.139-.138 2.295.002 3.368.407l7.864 2.965 3.594-.345c.516-.049 1.035-.042 1.549.02.846-.619 1.829-1.051 2.886-1.251l5.104-.962c.299-.056.6-.093.904-.111z" fill="#c80929"/></g></svg>