<?xml version="1.0" encoding="UTF-8" standalone="no"?>
<!DOCTYPE svg PUBLIC "-//W3C//DTD SVG 1.1//EN" "http://www.w3.org/Graphics/SVG/1.1/DTD/svg11.dtd">
<svg width="100%" height="100%" viewBox="0 0 1926 1821" version="1.1" xmlns="http://www.w3.org/2000/svg" xmlns:xlink="http://www.w3.org/1999/xlink" xml:space="preserve" xmlns:serif="http://www.serif.com/" style="fill-rule:evenodd;clip-rule:evenodd;stroke-linejoin:round;stroke-miterlimit:2;">
    <g transform="matrix(1,0,0,1,-17307.4,-12816.7)">
        <g id="Artboard10" transform="matrix(1.03147,0,0,0.82627,-92.7337,-273.847)">
            <rect x="16869.2" y="15843" width="1867.23" height="2203.52" style="fill:none;"/>
            <clipPath id="_clip1">
                <rect x="16869.2" y="15843" width="1867.23" height="2203.52"/>
            </clipPath>
            <g clip-path="url(#_clip1)">
                <g transform="matrix(21.77,0,0,13.1637,5703.34,11777.3)">
                    <path d="M578.162,413.862C578.812,413.679 579.463,413.503 580.114,413.332C580.45,413.254 580.789,412.841 580.985,412.273C581.189,411.716 581.277,410.924 581.212,410.239L580.188,398.516C580.369,395.056 580.588,391.535 580.844,387.954C580.897,388.103 580.955,388.245 581.019,388.379C581.331,389.039 581.748,389.458 582.158,389.566C582.55,389.695 583.015,389.524 583.409,389.053C583.804,388.58 584.107,387.828 584.256,387.014C584.625,385.11 584.827,383.2 584.862,381.284C586.093,383.317 586.988,386.572 587.603,390.947C587.706,391.777 587.968,392.592 588.335,393.151C588.691,393.693 589.13,393.968 589.54,393.944C589.901,393.945 590.301,393.684 590.636,393.196L593.872,430.217C594.005,431.618 593.815,433.246 593.386,434.367C592.975,435.515 592.264,436.322 591.574,436.423C569.181,440.381 546.782,453.514 526.724,474.445C526.004,475.244 524.986,475.183 524.29,474.299L514.182,462.226C513.424,461.385 512.876,459.426 512.903,457.65L512.903,345.921C512.86,343.924 513.59,341.687 514.503,341.021C521.099,335.502 527.822,330.591 534.632,326.317C535.441,325.753 536.496,326.248 537.107,327.477L546.577,345.392C546.835,345.865 546.997,346.629 546.992,347.342L546.992,366.608C546.981,366.858 547.109,367.141 547.231,367.136C547.351,367.175 547.496,366.93 547.502,366.68L548.875,345.908C550.124,345.267 551.045,345.002 551.878,344.954C550.695,347.627 549.722,350.837 548.963,354.592C548.778,355.422 548.746,356.504 548.905,357.489C549.061,358.448 549.389,359.254 549.78,359.711C550.137,360.17 550.644,360.375 551.13,360.186C551.397,360.082 551.648,359.864 551.865,359.565L547.666,423.068C547.601,423.897 547.778,424.875 548.09,425.412C548.389,425.983 548.881,426.218 549.271,425.977C551.558,424.693 553.854,423.483 556.16,422.348C555.792,381.936 556.931,357.178 559.577,348.075C558.326,349.621 557.049,352.697 555.744,357.303C555.644,357.725 555.326,357.957 555.119,357.757C554.901,357.623 554.738,357.012 554.8,356.56C555.174,352.735 555.969,349.321 557.183,346.319C555.52,347.812 553.864,350.466 552.215,354.28C551.866,355.087 551.494,355.938 551.169,356.857C551.03,357.252 550.698,357.388 550.508,357.114C550.299,356.905 550.198,356.225 550.294,355.797C550.989,352.698 551.706,349.979 552.651,347.682C553.483,345.66 554.438,343.955 555.517,342.565C554.553,342.336 553.779,342.112 553.027,342.003C551.868,341.835 550.76,341.94 549.086,342.72C548.746,342.879 548.382,343.065 547.989,343.283C547.788,343.422 547.508,343.184 547.413,342.792C547.296,342.426 547.335,341.807 547.494,341.515C548.061,340.473 548.673,339.524 549.35,338.732C550.485,337.402 551.803,336.514 553.399,336.371C554.731,336.252 556.255,336.652 558.029,337.747C557.846,334.694 557.115,331.758 555.838,328.939C555.684,328.638 555.654,328.019 555.776,327.661C555.876,327.276 556.157,327.054 556.357,327.202C559.321,329.005 561.032,332.693 561.49,338.265C563.164,335.992 564.903,335.906 566.709,338.005C566.894,338.193 567.012,338.734 566.959,339.145C566.927,339.566 566.713,339.961 566.507,339.979C565.279,340.224 564.376,340.834 563.799,341.811C568.401,346.529 569.973,352.613 568.517,360.061C568.453,360.43 568.245,360.728 568.056,360.722C567.867,360.75 567.651,360.476 567.578,360.115C566.434,355.096 564.704,351.746 562.386,350.065C563.412,353.426 562.07,357.918 561.657,358.77C561.511,359.072 561.282,359.35 561.086,359.21C560.884,359.115 560.708,358.639 560.716,358.211C560.685,354.498 560.808,353.281 560.116,350.56C558.237,357.147 557.768,380.668 558.71,421.124C559.01,420.984 559.31,420.845 559.611,420.707C560.116,420.534 560.588,419.428 560.608,418.371L561.264,403.78C561.283,402.713 561.765,401.597 562.277,401.437L566.407,399.734C566.73,399.597 567.102,399.759 567.371,400.152C567.645,400.53 567.852,401.19 567.906,401.861L568.982,414.169C569.032,415.466 569.851,416.651 570.458,416.306C572.145,415.709 573.835,415.152 575.528,414.635C576.213,403.103 577.238,391.696 578.605,380.413C578.804,378.771 579.01,377.131 579.223,375.494C578.931,375.912 578.625,376.412 578.306,376.994C577.69,378.119 577.026,379.552 576.313,381.293C576.175,381.697 575.809,381.793 575.626,381.473C575.419,381.223 575.342,380.479 575.48,380.075C575.966,378.329 576.613,376.536 577.421,374.695C575.134,374.941 572.587,376.566 569.781,379.571C569.594,379.804 569.285,379.679 569.155,379.318C569.003,378.995 568.993,378.344 569.134,378.001C570.978,372.882 573.785,369.685 577.556,368.41C576.675,365.662 574.842,363.271 572.059,361.235C571.834,361.111 571.662,360.477 571.729,360.016C571.76,359.538 572.043,359.106 572.273,359.184C573.86,359.458 575.445,360.519 577.028,362.367C578.137,363.662 579.246,365.345 580.353,367.414C582.567,362.823 585.125,361.469 588.026,363.349C588.383,363.581 588.745,363.861 589.113,364.19C589.314,364.341 589.461,364.896 589.414,365.328C589.393,365.769 589.169,366.201 588.954,366.213C588.728,366.255 588.507,366.304 588.29,366.359C585.922,366.963 584.079,368.358 582.76,370.544C586.016,372.225 588.217,374.914 589.361,378.611C590.181,381.262 590.458,384.431 590.192,388.119C590.144,388.776 590.069,389.448 589.998,390.138C589.953,390.57 589.723,390.962 589.511,390.944C589.299,390.979 589.061,390.608 589.008,390.18C588.025,382.245 585.916,377.607 583.048,376.219C583.578,379.482 583.475,382.712 582.898,385.941C582.824,386.361 582.565,386.68 582.354,386.593C582.14,386.561 581.932,386.107 581.914,385.664C581.765,381.901 581.17,378.822 580.299,376.418C579.929,380.573 579.604,384.653 579.326,388.658C578.717,397.417 578.329,405.818 578.162,413.862ZM534.627,395.583C534.258,395.868 533.78,395.727 533.464,395.241C533.138,394.785 532.916,393.899 532.925,393.086L532.923,339.363C532.934,338.556 532.719,337.674 532.398,337.213C532.087,336.722 531.614,336.567 531.245,336.835C526.667,339.919 522.132,343.296 517.655,346.958C517.194,347.285 516.823,348.411 516.846,349.416L516.846,445.729C516.835,446.572 517.076,447.495 517.423,447.939C517.759,448.42 518.265,448.51 518.635,448.155C526.434,441.176 534.436,435.095 542.565,429.971C543.016,429.728 543.416,428.758 543.46,427.801L545.819,392.132C545.885,391.294 545.703,390.303 545.383,389.768C545.079,389.197 544.576,388.976 544.185,389.24C540.977,391.209 537.79,393.324 534.627,395.583ZM549.591,335.091L550.636,319.275C550.68,318.257 551.137,317.229 551.624,317.054C559.086,313.589 566.638,310.866 574.227,308.904C575.019,308.658 575.945,309.377 576.461,310.641L584.717,329.844C585.025,330.554 585.242,331.476 585.322,332.415L587.739,360.059C585.003,358.67 582.535,359.803 580.331,363.427C579.125,361.411 577.914,359.821 576.702,358.646L573.297,319.695C573.245,318.426 572.463,317.255 571.862,317.546C566.243,319.143 560.647,321.165 555.098,323.603C554.605,323.767 554.139,324.804 554.096,325.831L553.601,333.325C552.061,333.377 550.746,334.035 549.591,335.091ZM562.451,384.78C562.375,384.816 562.284,384.766 562.228,384.657C562.169,384.553 562.135,384.372 562.143,384.214L563.403,356.192C563.405,355.952 563.531,355.704 563.647,355.712C563.762,355.683 563.898,355.908 563.91,356.147L566.23,382.689C566.265,382.939 566.152,383.279 566.026,383.302L562.451,384.78ZM568.552,476.245C568.564,471.877 568.574,467.508 568.583,463.139C567.905,466.65 567.235,470.168 566.571,473.691C566.138,473.71 565.704,473.729 565.27,473.749C564.68,470.692 564.072,467.651 563.444,464.626C563.44,468.499 563.435,472.372 563.43,476.245L560.959,476.245L560.959,451.621C561.71,451.25 562.456,450.892 563.209,450.543C564.173,454.778 565.096,459.05 565.982,463.356C566.947,458.256 567.927,453.17 568.921,448.095C569.814,447.742 570.702,447.405 571.597,447.076C571.563,456.8 571.52,466.523 571.465,476.245L568.552,476.245ZM580.383,470.386C578.998,470.463 577.613,470.543 576.229,470.628C575.978,472.5 575.729,474.372 575.481,476.245L571.998,476.245C573.504,465.909 575.08,455.617 576.667,445.332C577.866,444.944 579.053,444.575 580.254,444.212C581.972,454.852 583.598,465.553 585.238,476.245L581.119,476.245C580.876,474.291 580.63,472.338 580.383,470.386ZM579.387,462.575C579.051,460.003 578.71,457.432 578.365,454.865C577.999,457.529 577.634,460.194 577.27,462.86C577.976,462.762 578.681,462.668 579.387,462.575ZM591.123,467.038C590.742,467.067 590.36,467.095 589.979,467.124C590.036,470.165 590.098,473.205 590.164,476.245L585.902,476.245C585.838,465.029 585.798,453.811 585.766,442.594C587.585,442.067 589.404,441.538 591.219,440.958C592.133,440.667 593.097,440.791 593.933,441.659C594.769,442.528 595.4,444.055 595.836,445.741C596.395,447.905 596.678,450.345 596.809,452.769C596.935,455.077 596.928,457.464 596.61,459.709C596.342,461.594 595.837,463.343 595.102,464.604C596.243,468.548 597.431,472.433 598.673,476.245L593.638,476.245C592.78,473.198 591.944,470.128 591.123,467.038ZM592.835,453.629C592.806,452.601 592.697,451.49 592.354,450.7C592.046,449.993 591.575,449.808 591.135,449.907C590.658,450.014 590.182,450.119 589.705,450.222C589.742,452.891 589.782,455.559 589.824,458.227C590.317,458.155 590.809,458.082 591.302,458.007C591.769,457.937 592.239,457.557 592.512,456.736C592.812,455.835 592.865,454.692 592.835,453.629ZM543.488,470.248C543.714,469.61 543.935,468.959 544.112,468.256C544.217,467.837 544.298,467.373 544.297,466.895C544.297,466.563 544.257,466.207 544.133,465.977C544.017,465.765 543.856,465.755 543.715,465.848C543.273,466.142 543.027,467.123 542.836,467.919C542.546,467.697 542.254,467.498 541.958,467.322C542.166,466.506 542.408,465.722 542.71,465.039C542.997,464.388 543.362,463.89 543.757,463.565C544.122,463.265 544.548,463.221 544.885,463.692C545.283,464.249 545.375,465.329 545.376,466.255C545.377,466.948 545.307,467.638 545.184,468.281C545.005,469.21 544.741,470.058 544.467,470.877C544.177,471.742 543.881,472.599 543.578,473.443C544.23,473.333 544.882,473.225 545.535,473.119L545.538,475.962C544.373,475.972 543.208,475.983 542.043,475.994L542.042,474.09C542.545,472.844 543.026,471.56 543.488,470.248ZM548.368,476.128C547.683,476.128 547.129,475.19 546.828,473.973C546.424,472.338 546.314,470.475 546.313,468.661C546.311,466.768 546.443,464.855 546.824,463.119C547.135,461.706 547.668,460.455 548.387,459.915C549.016,459.442 549.635,459.872 549.95,461.112C550.417,462.95 550.455,465.117 550.448,467.146C550.44,469.353 550.342,471.618 549.914,473.664C549.637,474.986 549.108,476.128 548.368,476.128ZM547.642,464.582C547.453,465.764 547.405,467.018 547.405,468.256C547.405,469.454 547.442,470.679 547.639,471.817C547.754,472.479 547.992,473.183 548.371,473.134C548.778,473.081 548.997,472.246 549.107,471.531C549.306,470.246 549.348,468.884 549.351,467.543C549.354,466.282 549.334,464.979 549.123,463.78C549.005,463.115 548.746,462.55 548.383,462.771C547.986,463.013 547.764,463.82 547.642,464.582ZM552.729,467.108C552.966,466.164 553.197,465.21 553.376,464.212C553.494,463.559 553.573,462.869 553.578,462.17C553.581,461.655 553.553,461.11 553.422,460.66C553.333,460.353 553.179,460.152 553.003,460.247C552.441,460.548 552.249,462.219 552.092,463.162C551.801,462.671 551.504,462.196 551.201,461.735C551.406,460.553 551.646,459.382 551.991,458.341C552.253,457.549 552.623,456.89 553.07,456.591C553.51,456.297 553.934,456.73 554.2,457.471C554.623,458.648 554.67,460.221 554.661,461.632C554.655,462.639 554.584,463.645 554.448,464.613C554.267,465.902 553.993,467.126 553.704,468.325C553.403,469.574 553.097,470.818 552.787,472.058C553.44,471.974 554.094,471.892 554.747,471.814C554.739,473.173 554.731,474.533 554.723,475.892C553.558,475.899 552.392,475.907 551.227,475.916C551.231,474.904 551.235,473.893 551.239,472.881C551.747,470.969 552.244,469.046 552.729,467.108ZM555.733,459.268C555.74,457.956 555.748,456.643 555.755,455.331C556.74,454.729 557.699,454.162 558.687,453.589L558.685,457.064C558.37,458.922 558.043,460.752 557.7,462.588C558.159,462.77 558.435,463.664 558.59,464.504C558.83,465.797 558.906,467.194 558.906,468.57C558.906,470.456 558.822,472.436 558.38,474.124C558.104,475.18 557.641,476.128 557.026,476.128C556.3,476.128 555.76,474.786 555.374,473.682C555.533,472.445 555.691,471.208 555.848,469.971C556.129,470.767 556.535,471.969 557.086,471.914C557.326,471.89 557.515,471.551 557.634,471.144C557.817,470.52 557.852,469.761 557.854,469.048C557.856,468.335 557.817,467.568 557.616,466.963C557.464,466.502 557.209,466.281 556.942,466.349C556.691,466.412 556.479,466.776 556.286,467.078L556.304,463.673C556.634,461.962 556.951,460.26 557.26,458.532C556.75,458.774 556.241,459.019 555.733,459.268Z" style="fill:rgb(27,177,255);"/>
                </g>
            </g>
        </g>
    </g>
</svg>
