<?xml version="1.0" encoding="UTF-8" standalone="no"?><!DOCTYPE svg PUBLIC "-//W3C//DTD SVG 1.1//EN" "http://www.w3.org/Graphics/SVG/1.1/DTD/svg11.dtd"><svg width="100%" height="100%" viewBox="0 0 383 470" version="1.1" xmlns="http://www.w3.org/2000/svg" xmlns:xlink="http://www.w3.org/1999/xlink" xml:space="preserve" xmlns:serif="http://www.serif.com/" style="fill-rule:evenodd;clip-rule:evenodd;stroke-linejoin:round;stroke-miterlimit:2;"><rect id="Artboard9" x="0.189" y="0.178" width="382.536" height="469.152" style="fill:none;"/><g id="Artboard91" serif:id="Artboard9"><path d="M93.442,469.306l-57.299,-0c-8.385,0.222 -18.471,-3.583 -25.417,-10.528c-6.945,-6.946 -10.751,-17.033 -10.528,-25.417l0,-310.616c-0.223,-8.384 3.583,-18.471 10.528,-25.416c6.946,-6.946 17.032,-10.751 25.417,-10.528l19.519,-0c0.321,1.072 0.692,2.126 1.113,3.155l10.415,25.6l-22.557,0c-8.654,0 -15.679,6.901 -15.679,15.4l-0,246.47c-0,8.499 7.025,15.399 15.679,15.399l56.598,0l-7.789,76.481Zm-19.564,-35.793l7.392,-12.642l-4.2,-0c-0.196,-0 -0.375,0.03 -0.539,0.091c-0.163,0.061 -0.308,0.14 -0.434,0.238c-0.126,0.098 -0.235,0.208 -0.329,0.329c-0.093,0.121 -0.172,0.243 -0.238,0.364l-2.856,5.936c-0.242,0.457 -0.455,0.889 -0.637,1.295c-0.182,0.406 -0.343,0.81 -0.483,1.211c-0.149,-0.392 -0.322,-0.791 -0.518,-1.197c-0.196,-0.406 -0.415,-0.842 -0.658,-1.309l-2.884,-5.936c-0.158,-0.299 -0.357,-0.544 -0.595,-0.735c-0.238,-0.191 -0.562,-0.287 -0.973,-0.287l-4.172,-0l7.392,12.642l0,7.756l4.732,-0l0,-7.756Zm-9.156,7.756l-7.896,-20.398l-4.844,-0l-7.896,20.398l3.696,-0c0.392,-0 0.721,-0.105 0.987,-0.315c0.266,-0.21 0.451,-0.446 0.553,-0.707l1.204,-3.556l7.756,-0l1.204,3.556c0.131,0.299 0.322,0.544 0.574,0.735c0.252,0.191 0.584,0.287 0.994,0.287l3.668,-0Zm-7.518,-7.798l-5.586,-0l1.876,-5.558c0.14,-0.355 0.29,-0.775 0.448,-1.26c0.159,-0.485 0.308,-1.013 0.448,-1.582c0.159,0.56 0.318,1.08 0.476,1.561c0.159,0.481 0.308,0.898 0.448,1.253l1.89,5.586Zm-14.728,-12.6l-3.612,-0c-0.205,-0 -0.385,0.005 -0.539,0.014c-0.154,0.009 -0.291,0.037 -0.413,0.084c-0.121,0.047 -0.231,0.119 -0.329,0.217c-0.098,0.098 -0.193,0.236 -0.287,0.413l-5.236,10.304c-0.196,0.355 -0.38,0.728 -0.553,1.12c-0.172,0.392 -0.338,0.793 -0.497,1.204c-0.158,-0.401 -0.324,-0.793 -0.497,-1.176c-0.172,-0.383 -0.352,-0.751 -0.539,-1.106l-5.25,-10.346c-0.093,-0.177 -0.189,-0.315 -0.287,-0.413c-0.098,-0.098 -0.207,-0.17 -0.329,-0.217c-0.121,-0.047 -0.259,-0.075 -0.413,-0.084c-0.154,-0.009 -0.333,-0.014 -0.539,-0.014l-3.612,-0l0,20.398l4.172,-0l0,-11.732c0,-0.271 -0.009,-0.567 -0.028,-0.889c-0.018,-0.322 -0.042,-0.651 -0.07,-0.987l5.418,10.514c0.168,0.327 0.395,0.574 0.679,0.742c0.285,0.168 0.609,0.252 0.973,0.252l0.644,-0c0.364,-0 0.689,-0.084 0.973,-0.252c0.285,-0.168 0.511,-0.415 0.679,-0.742l5.418,-10.486c-0.037,0.327 -0.063,0.649 -0.077,0.966c-0.014,0.317 -0.021,0.611 -0.021,0.882l0,11.732l4.172,-0l0,-20.398Zm228.489,-334.07l75.794,-0c8.384,-0.223 18.47,3.582 25.416,10.528c6.946,6.945 10.751,17.032 10.528,25.416l0,310.616c0.223,8.384 -3.582,18.471 -10.528,25.417c-6.946,6.945 -17.032,10.75 -25.416,10.528l-57.313,-0l-7.818,-76.481l56.641,0c8.653,0 15.679,-6.9 15.679,-15.399l-0,-246.47c-0,-8.499 -7.026,-15.4 -15.679,-15.4l-79.685,0l2.435,-1.243c3.816,-1.876 7.589,-5.467 9.712,-10.012c1.974,-4.224 2.445,-9.015 1.579,-13.265c-0.011,-0.055 -0.022,-0.109 -0.034,-0.163c-0.009,-0.041 -0.017,-0.082 -0.026,-0.122c-0.005,-0.024 -0.01,-0.048 -0.015,-0.072c-0.288,-1.307 -0.714,-2.611 -1.27,-3.878Zm43.515,350.548l-3.808,-0c-0.429,-0 -0.896,0.042 -1.4,0.126c-0.504,0.084 -1.012,0.205 -1.526,0.364l3.99,-4.088c0.542,-0.551 1.053,-1.094 1.533,-1.631c0.481,-0.537 0.903,-1.092 1.267,-1.666c0.364,-0.574 0.651,-1.178 0.861,-1.813c0.21,-0.635 0.315,-1.325 0.315,-2.072c0,-0.868 -0.151,-1.664 -0.455,-2.387c-0.303,-0.723 -0.739,-1.346 -1.309,-1.869c-0.569,-0.523 -1.257,-0.931 -2.065,-1.225c-0.807,-0.294 -1.715,-0.441 -2.723,-0.441c-0.933,-0 -1.806,0.124 -2.618,0.371c-0.812,0.247 -1.533,0.623 -2.163,1.127c-0.63,0.504 -1.157,1.134 -1.582,1.89c-0.424,0.756 -0.711,1.643 -0.861,2.66l2.296,0.406c0.588,0.093 1.041,0.056 1.358,-0.112c0.318,-0.168 0.574,-0.509 0.77,-1.022c0.168,-0.504 0.474,-0.926 0.917,-1.267c0.444,-0.341 0.987,-0.511 1.631,-0.511c0.794,-0 1.384,0.217 1.771,0.651c0.388,0.434 0.581,1.057 0.581,1.869c0,0.495 -0.06,0.964 -0.182,1.407c-0.121,0.443 -0.303,0.887 -0.546,1.33c-0.242,0.443 -0.55,0.894 -0.924,1.351c-0.373,0.457 -0.812,0.938 -1.316,1.442l-5.88,5.922c-0.28,0.252 -0.476,0.532 -0.588,0.84c-0.112,0.308 -0.168,0.597 -0.168,0.868l0,1.4l14.336,-0l0,-2.52c0,-0.42 -0.135,-0.758 -0.406,-1.015c-0.27,-0.257 -0.639,-0.385 -1.106,-0.385Zm36.288,-10.654l2.296,0.406c0.588,0.093 1.041,0.056 1.358,-0.112c0.318,-0.168 0.574,-0.509 0.77,-1.022c0.168,-0.504 0.474,-0.926 0.917,-1.267c0.444,-0.341 0.987,-0.511 1.631,-0.511c0.794,-0 1.384,0.217 1.771,0.651c0.388,0.434 0.581,1.052 0.581,1.855c0,0.392 -0.046,0.751 -0.14,1.078c-0.093,0.327 -0.282,0.604 -0.567,0.833c-0.284,0.229 -0.688,0.408 -1.211,0.539c-0.522,0.131 -1.208,0.196 -2.058,0.196l0,2.996c1.008,-0 1.795,0.068 2.359,0.203c0.565,0.135 0.987,0.329 1.267,0.581c0.28,0.252 0.451,0.553 0.511,0.903c0.061,0.35 0.091,0.744 0.091,1.183c0,0.336 -0.06,0.667 -0.182,0.994c-0.121,0.327 -0.301,0.618 -0.539,0.875c-0.238,0.257 -0.536,0.467 -0.896,0.63c-0.359,0.163 -0.781,0.245 -1.267,0.245c-0.634,-0 -1.187,-0.175 -1.659,-0.525c-0.471,-0.35 -0.917,-0.912 -1.337,-1.687c-0.186,-0.336 -0.494,-0.551 -0.924,-0.644c-0.429,-0.093 -0.896,-0.042 -1.4,0.154l-1.932,0.784c0.327,0.952 0.712,1.773 1.155,2.464c0.444,0.691 0.959,1.258 1.547,1.701c0.588,0.443 1.26,0.77 2.016,0.98c0.756,0.21 1.62,0.315 2.59,0.315c0.943,-0 1.848,-0.133 2.716,-0.399c0.868,-0.266 1.631,-0.665 2.289,-1.197c0.658,-0.532 1.183,-1.199 1.575,-2.002c0.392,-0.803 0.588,-1.745 0.588,-2.828c0,-2.287 -1.129,-3.827 -3.388,-4.62c0.486,-0.168 0.917,-0.376 1.295,-0.623c0.378,-0.247 0.696,-0.551 0.952,-0.91c0.257,-0.359 0.451,-0.784 0.581,-1.274c0.131,-0.49 0.196,-1.057 0.196,-1.701c0,-0.709 -0.14,-1.384 -0.42,-2.023c-0.28,-0.639 -0.69,-1.202 -1.232,-1.687c-0.541,-0.485 -1.204,-0.87 -1.988,-1.155c-0.784,-0.285 -1.68,-0.427 -2.688,-0.427c-0.933,-0 -1.806,0.124 -2.618,0.371c-0.812,0.247 -1.533,0.623 -2.163,1.127c-0.63,0.504 -1.157,1.134 -1.582,1.89c-0.424,0.756 -0.711,1.643 -0.861,2.66Zm-3.808,10.654l-3.808,-0c-0.429,-0 -0.896,0.042 -1.4,0.126c-0.504,0.084 -1.012,0.205 -1.526,0.364l3.99,-4.088c0.542,-0.551 1.053,-1.094 1.533,-1.631c0.481,-0.537 0.903,-1.092 1.267,-1.666c0.364,-0.574 0.651,-1.178 0.861,-1.813c0.21,-0.635 0.315,-1.325 0.315,-2.072c0,-0.868 -0.151,-1.664 -0.455,-2.387c-0.303,-0.723 -0.739,-1.346 -1.309,-1.869c-0.569,-0.523 -1.257,-0.931 -2.065,-1.225c-0.807,-0.294 -1.715,-0.441 -2.723,-0.441c-0.933,-0 -1.806,0.124 -2.618,0.371c-0.812,0.247 -1.533,0.623 -2.163,1.127c-0.63,0.504 -1.157,1.134 -1.582,1.89c-0.424,0.756 -0.711,1.643 -0.861,2.66l2.296,0.406c0.588,0.093 1.041,0.056 1.358,-0.112c0.318,-0.168 0.574,-0.509 0.77,-1.022c0.168,-0.504 0.474,-0.926 0.917,-1.267c0.444,-0.341 0.987,-0.511 1.631,-0.511c0.794,-0 1.384,0.217 1.771,0.651c0.388,0.434 0.581,1.057 0.581,1.869c0,0.495 -0.06,0.964 -0.182,1.407c-0.121,0.443 -0.303,0.887 -0.546,1.33c-0.242,0.443 -0.55,0.894 -0.924,1.351c-0.373,0.457 -0.812,0.938 -1.316,1.442l-5.88,5.922c-0.28,0.252 -0.476,0.532 -0.588,0.84c-0.112,0.308 -0.168,0.597 -0.168,0.868l0,1.4l14.336,-0l0,-2.52c0,-0.42 -0.135,-0.758 -0.406,-1.015c-0.27,-0.257 -0.639,-0.385 -1.106,-0.385Zm-14.224,-6.286c0,-1.783 -0.191,-3.327 -0.574,-4.634c-0.382,-1.307 -0.912,-2.389 -1.589,-3.248c-0.676,-0.859 -1.479,-1.496 -2.408,-1.911c-0.928,-0.415 -1.934,-0.623 -3.017,-0.623c-1.082,-0 -2.083,0.208 -3.003,0.623c-0.919,0.415 -1.715,1.052 -2.387,1.911c-0.672,0.859 -1.197,1.941 -1.575,3.248c-0.378,1.307 -0.567,2.851 -0.567,4.634c0,1.783 0.189,3.327 0.567,4.634c0.378,1.307 0.903,2.389 1.575,3.248c0.672,0.859 1.468,1.498 2.387,1.918c0.92,0.42 1.921,0.63 3.003,0.63c1.083,-0 2.089,-0.21 3.017,-0.63c0.929,-0.42 1.732,-1.059 2.408,-1.918c0.677,-0.859 1.207,-1.941 1.589,-3.248c0.383,-1.307 0.574,-2.851 0.574,-4.634Zm-4.48,-0c0,1.419 -0.088,2.576 -0.266,3.472c-0.177,0.896 -0.413,1.603 -0.707,2.121c-0.294,0.518 -0.627,0.873 -1.001,1.064c-0.373,0.191 -0.751,0.287 -1.134,0.287c-0.382,-0 -0.758,-0.096 -1.127,-0.287c-0.368,-0.191 -0.695,-0.546 -0.98,-1.064c-0.284,-0.518 -0.513,-1.225 -0.686,-2.121c-0.172,-0.896 -0.259,-2.053 -0.259,-3.472c0,-1.409 0.087,-2.564 0.259,-3.465c0.173,-0.901 0.402,-1.608 0.686,-2.121c0.285,-0.513 0.612,-0.866 0.98,-1.057c0.369,-0.191 0.745,-0.287 1.127,-0.287c0.383,-0 0.761,0.096 1.134,0.287c0.374,0.191 0.707,0.544 1.001,1.057c0.294,0.513 0.53,1.22 0.707,2.121c0.178,0.901 0.266,2.056 0.266,3.465Zm-216.313,38.207l-0.007,0.001l14.501,-142.406c-0.639,-0.07 -1.255,-0.292 -1.723,-0.648c-0.998,-0.713 -1.624,-2.118 -1.484,-3.334c-0,-0 7.997,-78.536 7.997,-78.529c0.107,-1.295 1.122,-2.624 2.334,-3.066c0.555,-0.214 1.107,-0.43 1.657,-0.647l1.014,-9.96c-13.856,-6.706 -24.304,-14.758 -31.385,-24.106c-0.641,-0.727 -1.247,-1.569 -1.806,-2.52c-0.092,-0.136 -0.184,-0.273 -0.276,-0.411l0.03,-0.019c-1.227,-2.218 -2.199,-4.983 -2.754,-8.216c-1.321,-7.703 -0.27,-18.189 2.239,-26.533c1.17,-4.262 2.967,-8.843 5.147,-13.124c-3.951,-11.539 -8.209,-25.158 -12.769,-40.859l-0.556,1.369c-0.501,1.301 -2.042,2.332 -3.383,2.295c-1.383,0.012 -2.898,-1.017 -3.383,-2.296l-13.534,-33.265c-0.804,-1.967 -1.227,-4.13 -1.223,-6.251l-0,-7.573c-1.722,-1.388 -4.39,-3.538 -4.39,-3.538c-3.784,-2.943 -6.263,-8.119 -6.187,-12.868c-0.037,-0.916 0.356,-1.902 1.073,-2.619c0.73,-0.73 1.74,-1.125 2.638,-1.072l9.973,0.002c-9.028,-8.767 -8.441,-18.327 -5.196,-24.464c1.391,-2.632 3.318,-4.655 5.409,-7.032c2.786,-3.166 5.857,-7.071 7.968,-14.678c0.182,-0.756 0.669,-1.487 1.345,-1.993c0.67,-0.502 1.501,-0.762 2.229,-0.729c0.765,-0.002 1.575,0.285 2.222,0.802c0.66,0.529 1.123,1.278 1.282,2.051c0.98,4.048 1.939,6.919 2.897,8.77c0.29,0.56 0.731,1.123 0.989,1.432c0.236,-0.283 0.62,-0.772 0.857,-1.218c0.257,-0.482 0.507,-1.035 0.752,-1.651c0.423,-1.095 1.539,-2.022 2.694,-2.238c1.149,-0.23 2.528,0.209 3.33,1.064c5.305,5.532 9.618,12.368 10.265,20.18c0.496,5.995 -1.128,12.621 -6.264,19.708l9.771,-0l2.277,0.95l0.914,2.256l0.007,0.409c0.087,4.801 -2.395,9.989 -6.186,12.938l-2.784,2.244c4.112,2.707 6.468,6.034 7.132,10.488c0.606,4.062 -0.344,9.196 -0.914,12.973c-0.505,3.343 -0.586,5.483 1.479,12.705c2.157,7.539 6.587,20.34 17.551,34.777c4.28,2.83 9.307,9.242 15.345,15.105c2.291,2.225 4.735,4.376 7.364,6.166c1.817,-3.234 3.215,-5.741 4.272,-7.673c-0.355,0.153 -0.714,0.294 -1.076,0.422c-1.889,0.665 -3.837,0.921 -5.561,0.476c-2.255,-0.581 -4.206,-2.364 -5.298,-4.629c-1.079,-2.239 -1.299,-4.9 -0.333,-7.15c0.722,-1.681 2.141,-3.161 3.849,-4.383c1.873,-1.34 4.085,-2.383 5.702,-3.166c-0.342,-0.223 -0.721,-0.462 -1.113,-0.693c-1.671,-0.983 -3.931,-2.281 -5.477,-3.826c-1.402,-1.4 -2.245,-3.021 -2.226,-4.739c0.013,-1.195 0.42,-2.485 1.508,-3.821c1.082,-1.329 2.974,-2.8 6.038,-4.32c0.309,-1.188 0.712,-2.361 1.2,-3.513c-6.965,-3.557 -29.72,-15.179 -29.697,-15.168c-0.573,-0.269 -1.082,-0.771 -1.373,-1.394c-0.281,-0.601 -0.345,-1.287 -0.204,-1.886c0.007,-0.026 0.013,-0.053 0.02,-0.079c0.145,-0.573 0.491,-1.13 0.982,-1.531c0.532,-0.435 1.207,-0.666 1.812,-0.661l24.334,-0.569c-6.361,-8.371 -14.72,-19.37 -14.707,-19.354c-0.4,-0.492 -0.642,-1.166 -0.634,-1.854c0.008,-0.664 0.248,-1.31 0.635,-1.788c0.38,-0.483 0.956,-0.861 1.602,-1.016c0.667,-0.161 1.375,-0.077 1.919,0.191l22.171,10.045c-2.016,-9.891 -4.858,-23.838 -4.852,-23.814c-0.149,-0.618 -0.074,-1.332 0.232,-1.949c0.296,-0.595 0.792,-1.073 1.348,-1.335c0.025,-0.012 0.05,-0.023 0.075,-0.035c0.538,-0.244 1.188,-0.321 1.809,-0.187c0.671,0.145 1.273,0.529 1.646,1.005l15.617,18.67c2.337,-9.24 5.967,-23.586 5.962,-23.563c0.134,-0.621 0.511,-1.23 1.054,-1.653c0.525,-0.408 1.179,-0.623 1.793,-0.618c0.028,-0 0.055,0 0.082,0.001c0.591,0.014 1.211,0.227 1.712,0.617c0.541,0.421 0.917,1.028 1.047,1.619l5.97,23.597c6.066,-7.252 15.61,-18.662 15.597,-18.645c0.39,-0.499 0.993,-0.885 1.666,-1.03c0.649,-0.14 1.332,-0.05 1.884,0.222c0.025,0.012 0.049,0.024 0.073,0.036c0.526,0.269 0.992,0.73 1.274,1.299c0.305,0.614 0.38,1.324 0.241,1.912l-4.86,23.851c9.022,-4.088 22.161,-10.04 22.141,-10.031c0.569,-0.281 1.28,-0.366 1.949,-0.205c0.645,0.155 1.222,0.533 1.601,1.016c0.387,0.478 0.627,1.124 0.635,1.788c0.008,0.686 -0.232,1.359 -0.613,1.828l-14.727,19.38c10.357,0.242 24.322,0.569 24.301,0.569c0.634,-0.006 1.311,0.225 1.844,0.661c0.515,0.42 0.87,1.01 1.002,1.611c0.006,0.026 0.011,0.053 0.017,0.079c0.118,0.579 0.048,1.231 -0.221,1.806c-0.29,0.622 -0.798,1.124 -1.345,1.381l-29.725,15.181c0.488,1.152 0.891,2.325 1.201,3.513c3.064,1.52 4.955,2.991 6.038,4.32c1.087,1.336 1.494,2.626 1.507,3.821c0.019,1.718 -0.824,3.339 -2.225,4.739c-1.547,1.545 -3.806,2.843 -5.478,3.826c-0.392,0.231 -0.771,0.47 -1.113,0.693c1.617,0.783 3.83,1.826 5.702,3.166c1.708,1.222 3.128,2.702 3.85,4.383c0.965,2.25 0.746,4.911 -0.334,7.15c-1.091,2.265 -3.043,4.048 -5.298,4.629c-1.724,0.445 -3.672,0.189 -5.561,-0.476c-0.361,-0.128 -0.721,-0.269 -1.075,-0.421c1.014,1.854 2.344,4.24 4.057,7.289l2.542,0.066l0.052,0.004c3.664,0.271 7.266,1.222 10.678,2.598c3.322,1.34 6.463,3.079 9.412,5.11c1.034,0.691 1.702,2.112 1.575,3.349c-0.065,0.735 -0.131,1.466 -0.199,2.193c4.923,3.993 9.287,8.837 13.053,13.881c2.326,3.115 4.428,6.3 6.87,10.991c0.782,-1.777 1.219,-2.768 1.218,-2.766c0.328,-0.867 1.093,-1.626 2.049,-1.998c0.951,-0.369 2.021,-0.329 2.846,0.082l0.004,0.002c0.006,0.003 0.014,0.007 0.025,0.012c1.149,0.505 35.511,15.626 35.497,15.621c0.866,0.328 1.625,1.093 1.997,2.049c0.374,0.962 0.328,2.046 -0.082,2.846c-0,0 -39.805,90.448 -39.799,90.434c-0.329,0.866 -1.093,1.625 -2.049,1.997c-0.963,0.374 -2.046,0.328 -2.847,-0.082c0,0 -6.212,-2.734 -13.441,-5.915l17.265,168.899l-0.005,0.001l0.029,0.232l-159.019,-0l0.006,-0.045Zm105.907,-300.503c-3.029,0.96 -6.104,2.628 -9.185,5.187c-5.348,5.05 -13.766,7.608 -20.982,6.392c-6.913,-0.907 -13.831,-5.373 -17.627,-11.285c-8.609,-0.674 -15.891,-5.977 -22.068,-11.974c-2.266,-2.202 -4.374,-4.495 -6.345,-6.632c0.054,0.272 0.105,0.547 0.153,0.826c1.322,7.703 0.27,18.189 -2.239,26.533c-2.299,8.373 -7.015,17.979 -12.311,24.12c-3.361,3.898 -6.977,6.435 -10.207,7.607c-1.069,0.388 -2.105,0.63 -3.091,0.735c6.341,6.278 14.555,11.818 24.612,16.638c1.325,0.581 2.288,2.29 2.106,3.709l-0.829,8.136c37.921,-15.94 63.952,-39.243 78.013,-69.992Zm-54.25,-53.096c-0.074,0.201 -0.144,0.403 -0.212,0.606c1.463,0.119 2.957,0.103 4.458,-0.038l-0.001,-0.036l1.946,-0.265c0.703,-0.095 1.406,-0.222 2.106,-0.378c2.741,-0.658 5.428,-1.706 7.91,-3.079c3.919,-2.217 7.373,-5.308 9.782,-8.913l0.028,-0.042l1.834,-2.899l1.833,2.899l0.028,0.042c2.41,3.606 5.865,6.698 9.786,8.915c2.478,1.37 5.161,2.417 7.898,3.075c0.703,0.157 1.408,0.284 2.114,0.38l1.946,0.265l-0,0.036c1.5,0.141 2.994,0.157 4.457,0.038c-0.067,-0.203 -0.138,-0.406 -0.212,-0.607l-1.822,-3.573c-0.649,-1.271 -1.428,-2.494 -2.316,-3.657c-2.238,-2.812 -5.036,-5.293 -8.128,-7.238c-4.734,-2.901 -10.234,-4.58 -15.453,-4.421l-0.059,0.002l-0.072,0.004l-0.073,-0.004l-0.059,-0.002c-5.22,-0.159 -10.721,1.521 -15.456,4.423c-3.088,1.943 -5.884,4.421 -8.12,7.23c-0.891,1.165 -1.671,2.39 -2.32,3.663l-1.823,3.574Zm42.04,-20.157c4.316,2.015 8.288,4.897 11.418,8.354c-0.929,-5.793 -3.651,-11.42 -7.262,-15.781c-3.277,-3.959 -7.291,-6.893 -11.422,-7.813l-0.122,-0.027l-0.117,-0.041c-5.703,-1.965 -13.322,-1.108 -19.383,2.832c-6.181,4.019 -10.76,11.229 -12.212,17.982l-0.006,0.026c-0.205,0.852 -0.38,1.731 -0.521,2.633c3.112,-3.384 7.034,-6.206 11.284,-8.185c4.549,-2.193 9.444,-3.37 14.138,-3.117c4.715,-0.257 9.636,0.928 14.205,3.137Zm-35.504,314.181l-8.94,-0l-0,23.13c-0,0.7 0.02,1.445 0.06,2.235c0.04,0.79 0.11,1.605 0.21,2.445l-20.79,-26.25c-0.28,-0.34 -0.53,-0.61 -0.75,-0.81c-0.22,-0.2 -0.45,-0.355 -0.69,-0.465c-0.24,-0.11 -0.51,-0.185 -0.81,-0.225c-0.3,-0.04 -0.67,-0.06 -1.11,-0.06l-5.34,-0l-0,43.71l8.94,-0l-0,-23.43c-0,-0.64 -0.015,-1.325 -0.045,-2.055c-0.03,-0.73 -0.085,-1.485 -0.165,-2.265l20.61,26.07c0.52,0.62 1.045,1.055 1.575,1.305c0.53,0.25 1.185,0.375 1.965,0.375l5.28,-0l-0,-43.71Zm-103.716,-356.215c0.172,3.281 1.917,6.697 4.505,8.701l4.633,3.735l15.161,-0l15.16,-0l4.633,-3.735l0.017,-0.013c2.571,-1.992 4.315,-5.403 4.488,-8.682l-24.298,-0l-24.299,-0.006Zm144.763,26.777l4.333,-21.262l-13.922,16.645l0.278,1.099c2.528,0.958 4.999,2.478 7.291,4.433l2.02,-0.915Zm-11.647,356.528l15.84,-27.09l-9,-0c-0.42,-0 -0.805,0.065 -1.155,0.195c-0.35,0.13 -0.66,0.3 -0.93,0.51c-0.27,0.21 -0.505,0.445 -0.705,0.705c-0.2,0.26 -0.37,0.52 -0.51,0.78l-6.12,12.72c-0.52,0.98 -0.975,1.905 -1.365,2.775c-0.39,0.87 -0.735,1.735 -1.035,2.595c-0.32,-0.84 -0.69,-1.695 -1.11,-2.565c-0.42,-0.87 -0.89,-1.805 -1.41,-2.805l-6.18,-12.72c-0.34,-0.64 -0.765,-1.165 -1.275,-1.575c-0.51,-0.41 -1.205,-0.615 -2.085,-0.615l-8.94,-0l15.84,27.09l-0,16.62l10.14,-0l-0,-16.62Zm21.23,-336.632c0.72,2.824 1.091,5.721 1.035,8.588l23.724,-12.116l-21.693,-0.507l-3.066,4.035Zm13.214,186.553l34.266,15.08l39.245,-89.175l-34.267,-15.08l-39.244,89.175Zm-37.747,-211.522l0.539,-0.645l-5.321,-21.037l-5.322,21.037l0.602,0.719c3.255,-0.589 6.513,-0.604 9.502,-0.074Zm49.263,366.911c-0.3,-0 -0.59,0.065 -0.87,0.195c-0.28,0.13 -0.54,0.295 -0.78,0.495c-0.6,0.54 -1.19,0.985 -1.77,1.335c-0.58,0.35 -1.2,0.63 -1.86,0.84c-0.66,0.21 -1.37,0.36 -2.13,0.45c-0.76,0.09 -1.6,0.135 -2.52,0.135c-1.6,-0 -3.1,-0.31 -4.5,-0.93c-1.4,-0.62 -2.625,-1.525 -3.675,-2.715c-1.05,-1.19 -1.88,-2.655 -2.49,-4.395c-0.61,-1.74 -0.915,-3.73 -0.915,-5.97c-0,-2.22 0.275,-4.195 0.825,-5.925c0.55,-1.73 1.33,-3.19 2.34,-4.38c1.01,-1.19 2.21,-2.095 3.6,-2.715c1.39,-0.62 2.925,-0.93 4.605,-0.93c1.06,-0 1.985,0.08 2.775,0.24c0.79,0.16 1.48,0.355 2.07,0.585c0.59,0.23 1.1,0.48 1.53,0.75c0.43,0.27 0.825,0.52 1.185,0.75c0.36,0.23 0.7,0.425 1.02,0.585c0.32,0.16 0.66,0.24 1.02,0.24c0.54,-0 0.96,-0.115 1.26,-0.345c0.3,-0.23 0.56,-0.485 0.78,-0.765l3.42,-4.59c-0.82,-0.84 -1.76,-1.62 -2.82,-2.34c-1.06,-0.72 -2.22,-1.335 -3.48,-1.845c-1.26,-0.51 -2.615,-0.91 -4.065,-1.2c-1.45,-0.29 -2.995,-0.435 -4.635,-0.435c-3.22,-0 -6.17,0.55 -8.85,1.65c-2.68,1.1 -4.98,2.64 -6.9,4.62c-1.92,1.98 -3.41,4.335 -4.47,7.065c-1.06,2.73 -1.59,5.725 -1.59,8.985c-0,3.2 0.49,6.165 1.47,8.895c0.98,2.73 2.385,5.09 4.215,7.08c1.83,1.99 4.06,3.55 6.69,4.68c2.63,1.13 5.605,1.695 8.925,1.695c3.62,-0 6.755,-0.585 9.405,-1.755c2.65,-1.17 4.855,-2.905 6.615,-5.205l-4.02,-4.23c-0.22,-0.22 -0.45,-0.375 -0.69,-0.465c-0.24,-0.09 -0.48,-0.135 -0.72,-0.135Zm-117.752,-120.066c44.802,-20.125 72.077,-37.016 89.04,-59.314c17.006,-22.353 23.579,-50.107 27.316,-91.84c-2.581,-1.745 -5.319,-3.247 -8.209,-4.412c-2.976,-1.2 -6.112,-2.045 -9.306,-2.287l-1.98,-0.051c-14.346,36.534 -43.978,63.605 -89.04,81.111l-7.821,76.793Zm-2.381,-124.77c-4.518,-6.7 -9.812,-18.557 -15.867,-35.577c-1.217,2.818 -2.235,5.685 -2.982,8.412l-0.008,0.026c-2.324,7.716 -3.346,17.417 -2.123,24.544c0.474,2.763 1.283,5.118 2.333,6.963c0.491,0.723 1.002,1.437 1.533,2.144c0.953,1.047 2.001,1.746 3.117,1.941l0.122,0.022l0.119,0.035c1.126,0.331 2.471,0.16 3.93,-0.369c2.666,-0.967 5.599,-3.127 8.373,-6.343c0.49,-0.569 0.975,-1.169 1.453,-1.798Zm-28.028,-88.944c12.542,43.933 22.753,72.276 30.713,85.001c3.144,-5.111 5.763,-11.2 7.276,-16.72l0.008,-0.026c2.324,-7.716 3.345,-17.416 2.122,-24.544c-0.679,-3.961 -2.048,-7.084 -3.827,-9.064c-0.342,-0.381 -0.697,-0.717 -1.063,-1l0.003,-0.017c0.014,-0.092 0.031,-0.182 0.049,-0.273l-0.171,0.13c-11.597,-15.168 -16.257,-28.638 -18.519,-36.547c-2.368,-8.278 -2.178,-10.741 -1.6,-14.573c0.513,-3.399 1.458,-8.011 0.913,-11.666c-0.43,-2.886 -1.922,-5.063 -4.38,-6.888l0,4.613c0.003,2.125 -0.42,4.288 -1.222,6.252l-10.302,25.322Zm83.947,65.298c2.208,1.223 4.612,2.056 7.022,2.372l0.042,0.007c4.365,0.744 9.248,-0.183 13.277,-2.362l-3.279,-16.237c-2.352,1.338 -4.716,1.977 -6.879,1.903c-2.174,0.076 -4.548,-0.563 -6.907,-1.905l-3.276,16.222Zm39.34,-11.398c-3.242,-5.77 -5.165,-9.253 -6.196,-11.285c-0.843,-1.663 -1.15,-2.604 -1.205,-3.037c-0.113,-0.889 0.182,-1.446 0.443,-1.797c0.272,-0.367 0.62,-0.627 1.043,-0.785c0.349,-0.132 0.788,-0.206 1.315,-0.102c0.337,0.067 0.93,0.329 1.596,0.75c1.196,0.753 3.116,2.018 5.129,2.727c1.022,0.359 2.065,0.606 2.998,0.366c1.067,-0.275 1.913,-1.205 2.43,-2.277c0.529,-1.097 0.727,-2.396 0.254,-3.499c-0.43,-1 -1.35,-1.812 -2.366,-2.539c-1.94,-1.389 -4.298,-2.399 -5.772,-3.133c-1.02,-0.508 -1.727,-0.97 -2.127,-1.381c-0.442,-0.453 -0.682,-0.93 -0.795,-1.398c-0.181,-0.749 -0.107,-1.577 0.565,-2.47c0.493,-0.658 1.694,-1.575 3.871,-2.856c1.189,-0.699 2.742,-1.561 3.989,-2.595c0.781,-0.648 1.552,-1.28 1.542,-2.125c-0.005,-0.502 -0.359,-0.98 -0.95,-1.555c-0.921,-0.896 -2.35,-1.821 -4.401,-2.813c-2.291,0.368 -4.672,0.427 -7.068,0.211c-0.546,9.259 -3.07,19.356 -6.972,26.41c-1.684,3.047 -3.635,5.534 -5.694,7.454l3.302,16.348c0.039,-0.037 0.078,-0.074 0.117,-0.111l0.051,-0.048l0.055,-0.046c4.81,-4.012 9.607,-6.171 14.277,-6.982c0.192,-0.475 0.382,-0.953 0.569,-1.432Zm-58.405,0.113c2.845,1.409 5.895,2.307 9.179,2.394l1.248,0.033l0.613,1.088c1.036,1.842 2.443,3.535 4.091,4.994l3.302,-16.352c-2.059,-1.919 -4.01,-4.407 -5.694,-7.453c-3.901,-7.054 -6.426,-17.151 -6.972,-26.41c-2.396,0.216 -4.776,0.157 -7.068,-0.211c-2.051,0.992 -3.479,1.917 -4.4,2.813c-0.592,0.575 -0.946,1.053 -0.951,1.555c-0.009,0.845 0.761,1.477 1.543,2.125c1.246,1.034 2.8,1.896 3.989,2.595c2.177,1.281 3.377,2.198 3.871,2.856c0.671,0.893 0.746,1.721 0.565,2.47c-0.114,0.468 -0.354,0.945 -0.795,1.398c-0.401,0.411 -1.108,0.873 -2.128,1.381c-1.474,0.734 -3.832,1.744 -5.772,3.133c-1.016,0.727 -1.936,1.539 -2.366,2.539c-0.473,1.103 -0.275,2.402 0.254,3.5c0.517,1.071 1.363,2.001 2.43,2.276c0.933,0.24 1.976,-0.007 2.998,-0.366c2.013,-0.709 3.933,-1.974 5.129,-2.727c0.955,-0.602 1.833,-0.817 2.226,-0.794c0.82,0.049 1.406,0.428 1.809,1.046c0.223,0.343 0.466,0.871 0.363,1.682c-0.055,0.433 -0.363,1.374 -1.206,3.037c-1.037,2.045 -2.979,5.56 -6.258,11.398Zm-0.019,-62.092l-3.128,-4.118l-21.693,0.507l23.819,12.165c0.014,-3.003 0.379,-5.894 1.002,-8.554Zm52.852,-16.895l-0.697,3.419c1.119,1.501 2.142,3.112 3.05,4.802l4.283,0.1l13.129,-17.277l-19.765,8.956Zm-26.027,27.772c-1.306,1.248 -2.739,2.397 -4.266,3.434c-3.758,2.615 -8.042,4.516 -12.398,5.418c0.453,8.708 2.773,18.283 6.452,24.935c3.585,6.484 8.369,10.173 12.544,9.992l0.096,-0.005l0.095,0.005c4.175,0.181 8.959,-3.508 12.545,-9.992c3.679,-6.652 5.999,-16.227 6.452,-24.935c-4.352,-0.901 -8.632,-2.799 -12.387,-5.41c-2.548,-1.728 -4.833,-3.769 -6.705,-6.057c-0.739,0.902 -1.541,1.765 -2.398,2.586c0.121,0.23 0.238,0.451 0.351,0.665c-0.123,-0.205 -0.251,-0.417 -0.381,-0.636Zm-106.435,-62.034l8.131,0.002l10.151,-0c5.929,-7.013 7.954,-13.482 7.469,-19.344c-0.53,-6.4 -3.996,-11.99 -8.269,-16.657c-0.681,1.483 -1.408,2.605 -2.128,3.334c-0.97,0.983 -2.014,1.41 -3.028,1.432c-1.106,0.024 -2.316,-0.422 -3.465,-1.718c-1.307,-1.474 -2.737,-4.505 -4.12,-9.487c-2.301,6.861 -5.339,10.686 -8.123,13.85c-1.848,2.1 -3.593,3.855 -4.822,6.181c-3.002,5.678 -2.602,14.607 8.204,22.407Zm98.393,27.85l0.326,-1.289l-13.922,-16.645l4.333,21.262l2.097,0.95c0.816,-0.67 1.662,-1.294 2.536,-1.862c1.477,-0.96 3.032,-1.764 4.63,-2.416Zm77.772,315.896l-9.638,-94.645c-8.807,-3.876 -17.539,-7.719 -17.532,-7.717c-0.866,-0.328 -1.625,-1.093 -1.997,-2.049c-0.374,-0.962 -0.328,-2.046 0.082,-2.846l14.75,-33.516l-3.298,-32.381c-4.478,18.055 -10.976,32.758 -20.83,45.711c-17.12,22.504 -44.437,39.757 -89.274,60.005l-6.868,67.438l134.605,0Zm-154.299,-316.142l-0,-6.362l-27.47,-0l-0,6.426c-0.003,1.557 0.307,3.142 0.897,4.584l12.837,31.557l9.673,-23.776l4.063,-12.429Zm143.354,101.685c-1.017,9.968 -2.239,19.123 -3.773,27.593l3.895,38.109c6.831,-15.521 13.921,-31.631 18.021,-40.947c-3.006,-6.209 -5.39,-9.946 -8.102,-13.577c-2.965,-3.971 -6.315,-7.825 -10.041,-11.178Zm-79.268,-91.647l-0.689,-3.38l-19.765,-8.956l13.13,17.277l4.209,-0.099c0.9,-1.677 1.945,-3.307 3.115,-4.842Z" style="fill:#139f16;"/></g></svg>