<?xml version="1.0" encoding="UTF-8" standalone="no"?><!DOCTYPE svg PUBLIC "-//W3C//DTD SVG 1.1//EN" "http://www.w3.org/Graphics/SVG/1.1/DTD/svg11.dtd"><svg width="100%" height="100%" viewBox="0 0 439 396" version="1.1" xmlns="http://www.w3.org/2000/svg" xmlns:xlink="http://www.w3.org/1999/xlink" xml:space="preserve" xmlns:serif="http://www.serif.com/" style="fill-rule:evenodd;clip-rule:evenodd;stroke-linejoin:round;stroke-miterlimit:2;"><rect id="Artboard4" x="0.233" y="0.178" width="437.976" height="394.848" style="fill:none;"/><clipPath id="_clip1"><rect id="Artboard41" serif:id="Artboard4" x="0.233" y="0.178" width="437.976" height="394.848"/></clipPath><g clip-path="url(#_clip1)"><path d="M370.505,56.65c-1.526,0.147 -3.049,0.152 -4.556,-0c1.507,-0.153 3.03,-0.148 4.556,-0Zm31.577,-31.577c-0.148,-1.526 -0.152,-3.05 0,-4.557c0.153,1.507 0.148,3.031 0,4.557Zm31.577,31.577c1.526,-0.148 3.05,-0.153 4.556,-0c-1.506,0.152 -3.03,0.147 -4.556,-0Zm-31.577,31.576c0.148,1.526 0.153,3.05 0,4.557c-0.152,-1.507 -0.148,-3.031 0,-4.557Zm-31.577,-31.576c14.956,-1.449 30.128,-16.621 31.577,-31.577c1.449,14.956 16.621,30.128 31.577,31.577c-14.956,1.448 -30.128,16.62 -31.577,31.576c-1.449,-14.956 -16.621,-30.128 -31.577,-31.576Zm-22.222,-36.257c-0.854,0.083 -1.706,0.085 -2.549,-0c0.843,-0.085 1.695,-0.083 2.549,-0Zm17.666,-17.666c-0.083,-0.853 -0.086,-1.706 -0,-2.549c0.085,0.843 0.083,1.696 -0,2.549Zm17.666,17.666c0.853,-0.083 1.706,-0.085 2.549,-0c-0.843,0.085 -1.696,0.083 -2.549,-0Zm-17.666,17.666c0.083,0.853 0.085,1.706 -0,2.549c-0.086,-0.843 -0.083,-1.696 -0,-2.549Zm-17.666,-17.666c8.367,-0.81 16.855,-9.299 17.666,-17.666c0.81,8.367 9.299,16.856 17.666,17.666c-8.367,0.81 -16.856,9.299 -17.666,17.666c-0.811,-8.367 -9.299,-16.856 -17.666,-17.666Zm-130.855,179.232c-0.192,-1.427 -0.357,-2.861 -0.495,-4.3l11.228,0c11.295,43.004 41.105,76.706 89.428,101.107l-36.261,98.605l-194.426,0l-36.261,-98.605c48.324,-24.401 78.134,-58.103 89.429,-101.107l11.227,0c-0.138,1.439 -0.303,2.872 -0.495,4.3l66.626,-0Zm-97.038,150.078l5.858,-0l0,-92.844c-1.852,2.429 -3.805,4.837 -5.858,7.223l-0,85.621Zm-9.571,-20.978l5.859,15.931l-0,-76.404c-1.878,2.042 -3.831,4.066 -5.859,6.075l0,54.398Zm127.452,-76.957c-3.454,-4.962 -6.499,-10.011 -9.135,-15.15l0.001,113.085l9.134,-0l-0,-97.935Zm-76.274,-20.943l-0,-15.348l-8.848,-0l0,23.491c2.509,-3.151 5.504,-5.937 8.848,-8.143Zm-32.037,118.878l9.135,-0l-0,-113.085c-2.636,5.138 -5.681,10.188 -9.135,15.149l0,97.936Zm49.732,-124.788l4.423,-0.196l4.424,0.196l0,-9.438l-8.847,-0l-0,9.438Zm35.389,14.053l0,-23.491l-8.847,-0l-0,15.348c3.344,2.206 6.339,4.992 8.847,8.143Zm-107.974,38.938c-3.565,3.348 -7.342,6.65 -11.333,9.906l11.333,30.818l0,-40.724Zm85.856,-52.373l8.847,2.816l0,-12.872l-8.847,-0l-0,10.056Zm-40.638,124.17l63.581,-0l0,-66.01c0,-32.09 -10.597,-48.135 -31.791,-48.135c-21.193,0 -31.79,16.045 -31.79,48.135l-0,66.01Zm99.228,-5.047l5.859,-15.932l-0,-54.397c-2.028,-2.008 -3.981,-4.033 -5.859,-6.074l0,76.403Zm9.571,-26.026l11.333,-30.818c-3.991,-3.256 -7.769,-6.558 -11.333,-9.905l-0,40.723Zm-19.141,31.073l5.858,-0l0,-85.621c-2.053,-2.386 -4.006,-4.793 -5.858,-7.223l-0,92.844Zm-66.715,-124.17l-0,-10.056l-8.848,-0l0,12.872l8.848,-2.816Zm-90.81,31.506c-10.867,9.403 -23.775,17.997 -38.84,25.732l-45.385,-123.416l48.301,-0l-26.507,-72.08l324.176,-0l-26.506,72.08l48.301,-0l-45.385,123.416c-15.065,-7.735 -27.973,-16.329 -38.84,-25.732l26.077,-70.91l-251.469,-0l26.077,70.91Zm5.545,-124.396l-0,-26.226l-6.12,-0l-0,26.226l6.12,-0Zm27.522,-21.402l-0,-4.824l-20.844,-0l-0,4.824l7.38,-0l-0,21.402l6.084,-0l-0,-21.402l7.38,-0Zm117.021,51.101l-5.565,-0c-0.42,-0 -0.863,0.037 -1.328,0.112c-0.465,0.075 -0.932,0.183 -1.402,0.323l4.89,-4.995c0.58,-0.6 1.135,-1.19 1.665,-1.77c0.53,-0.58 0.992,-1.18 1.387,-1.8c0.395,-0.62 0.71,-1.27 0.945,-1.95c0.235,-0.68 0.353,-1.42 0.353,-2.22c-0,-0.93 -0.165,-1.775 -0.495,-2.535c-0.33,-0.76 -0.79,-1.41 -1.38,-1.95c-0.59,-0.54 -1.3,-0.958 -2.13,-1.253c-0.83,-0.295 -1.745,-0.442 -2.745,-0.442c-0.96,-0 -1.858,0.132 -2.693,0.397c-0.835,0.265 -1.575,0.66 -2.22,1.185c-0.645,0.525 -1.182,1.18 -1.612,1.965c-0.43,0.785 -0.72,1.698 -0.87,2.738l1.95,0.345c0.51,0.08 0.9,0.045 1.17,-0.105c0.27,-0.15 0.49,-0.455 0.66,-0.915c0.1,-0.36 0.25,-0.69 0.45,-0.99c0.2,-0.3 0.445,-0.563 0.735,-0.788c0.29,-0.225 0.622,-0.4 0.997,-0.525c0.375,-0.125 0.783,-0.187 1.223,-0.187c0.48,-0 0.912,0.067 1.297,0.202c0.385,0.135 0.715,0.338 0.99,0.608c0.275,0.27 0.488,0.602 0.638,0.997c0.15,0.395 0.225,0.853 0.225,1.373c-0,0.57 -0.078,1.112 -0.233,1.627c-0.155,0.515 -0.377,1.023 -0.667,1.523c-0.29,0.5 -0.653,1.005 -1.088,1.515c-0.435,0.51 -0.927,1.045 -1.477,1.605l-6.585,6.6c-0.23,0.22 -0.398,0.467 -0.503,0.742c-0.105,0.275 -0.157,0.538 -0.157,0.788l-0,1.23l14.88,-0l-0,-2.22c-0,-0.37 -0.118,-0.668 -0.353,-0.893c-0.235,-0.225 -0.552,-0.337 -0.952,-0.337Zm4.305,-12.195l1.95,0.345c0.5,0.08 0.887,0.045 1.162,-0.105c0.275,-0.15 0.498,-0.455 0.668,-0.915c0.1,-0.36 0.25,-0.69 0.45,-0.99c0.2,-0.3 0.447,-0.563 0.742,-0.788c0.295,-0.225 0.628,-0.4 0.998,-0.525c0.37,-0.125 0.775,-0.187 1.215,-0.187c0.95,-0 1.71,0.265 2.28,0.795c0.57,0.53 0.855,1.305 0.855,2.325c-0,0.48 -0.07,0.92 -0.21,1.32c-0.14,0.4 -0.388,0.742 -0.743,1.027c-0.355,0.285 -0.832,0.508 -1.432,0.668c-0.6,0.16 -1.355,0.245 -2.265,0.255l-0,2.64c1.1,-0 1.977,0.085 2.632,0.255c0.655,0.17 1.158,0.405 1.508,0.705c0.35,0.3 0.58,0.662 0.69,1.087c0.11,0.425 0.165,0.898 0.165,1.418c-0,0.41 -0.078,0.817 -0.233,1.222c-0.155,0.405 -0.39,0.773 -0.705,1.103c-0.315,0.33 -0.707,0.597 -1.177,0.802c-0.47,0.205 -1.02,0.308 -1.65,0.308c-0.56,-0 -1.043,-0.083 -1.448,-0.248c-0.405,-0.165 -0.757,-0.38 -1.057,-0.645c-0.3,-0.265 -0.558,-0.567 -0.773,-0.907c-0.215,-0.34 -0.412,-0.685 -0.592,-1.035c-0.17,-0.32 -0.443,-0.523 -0.818,-0.608c-0.375,-0.085 -0.777,-0.037 -1.207,0.143l-1.635,0.675c0.3,0.93 0.66,1.75 1.08,2.46c0.42,0.71 0.93,1.31 1.53,1.8c0.6,0.49 1.305,0.86 2.115,1.11c0.81,0.25 1.76,0.375 2.85,0.375c1,-0 1.947,-0.145 2.842,-0.435c0.895,-0.29 1.683,-0.718 2.363,-1.283c0.68,-0.565 1.22,-1.262 1.62,-2.092c0.4,-0.83 0.6,-1.785 0.6,-2.865c-0,-1.27 -0.32,-2.325 -0.96,-3.165c-0.64,-0.84 -1.61,-1.465 -2.91,-1.875c0.54,-0.18 1.025,-0.405 1.455,-0.675c0.43,-0.27 0.79,-0.6 1.08,-0.99c0.29,-0.39 0.512,-0.848 0.667,-1.373c0.155,-0.525 0.233,-1.132 0.233,-1.822c-0,-0.79 -0.153,-1.525 -0.458,-2.205c-0.305,-0.68 -0.742,-1.273 -1.312,-1.778c-0.57,-0.505 -1.258,-0.9 -2.063,-1.185c-0.805,-0.285 -1.707,-0.427 -2.707,-0.427c-0.96,-0 -1.858,0.132 -2.693,0.397c-0.835,0.265 -1.575,0.66 -2.22,1.185c-0.645,0.525 -1.182,1.18 -1.612,1.965c-0.43,0.785 -0.72,1.698 -0.87,2.738Zm-67.59,7.245l7.905,-13.29l-3.57,-0c-0.34,-0 -0.62,0.095 -0.84,0.285c-0.22,0.19 -0.385,0.395 -0.495,0.615l-3.945,7.245c-0.22,0.43 -0.415,0.835 -0.585,1.215c-0.17,0.38 -0.32,0.76 -0.45,1.14c-0.14,-0.38 -0.298,-0.76 -0.473,-1.14c-0.175,-0.38 -0.377,-0.785 -0.607,-1.215l-3.96,-7.245c-0.14,-0.26 -0.313,-0.475 -0.518,-0.645c-0.205,-0.17 -0.482,-0.255 -0.832,-0.255l-3.555,-0l7.905,13.29l-0,8.4l4.02,-0l-0,-8.4Zm28.485,4.95l-5.565,-0c-0.42,-0 -0.863,0.037 -1.328,0.112c-0.465,0.075 -0.932,0.183 -1.402,0.323l4.89,-4.995c0.58,-0.6 1.135,-1.19 1.665,-1.77c0.53,-0.58 0.992,-1.18 1.387,-1.8c0.395,-0.62 0.71,-1.27 0.945,-1.95c0.235,-0.68 0.353,-1.42 0.353,-2.22c-0,-0.93 -0.165,-1.775 -0.495,-2.535c-0.33,-0.76 -0.79,-1.41 -1.38,-1.95c-0.59,-0.54 -1.3,-0.958 -2.13,-1.253c-0.83,-0.295 -1.745,-0.442 -2.745,-0.442c-0.96,-0 -1.858,0.132 -2.693,0.397c-0.835,0.265 -1.575,0.66 -2.22,1.185c-0.645,0.525 -1.182,1.18 -1.612,1.965c-0.43,0.785 -0.72,1.698 -0.87,2.738l1.95,0.345c0.51,0.08 0.9,0.045 1.17,-0.105c0.27,-0.15 0.49,-0.455 0.66,-0.915c0.1,-0.36 0.25,-0.69 0.45,-0.99c0.2,-0.3 0.445,-0.563 0.735,-0.788c0.29,-0.225 0.622,-0.4 0.997,-0.525c0.375,-0.125 0.783,-0.187 1.223,-0.187c0.48,-0 0.912,0.067 1.297,0.202c0.385,0.135 0.715,0.338 0.99,0.608c0.275,0.27 0.488,0.602 0.638,0.997c0.15,0.395 0.225,0.853 0.225,1.373c-0,0.57 -0.078,1.112 -0.233,1.627c-0.155,0.515 -0.377,1.023 -0.667,1.523c-0.29,0.5 -0.653,1.005 -1.088,1.515c-0.435,0.51 -0.927,1.045 -1.477,1.605l-6.585,6.6c-0.23,0.22 -0.398,0.467 -0.503,0.742c-0.105,0.275 -0.157,0.538 -0.157,0.788l-0,1.23l14.88,-0l-0,-2.22c-0,-0.37 -0.118,-0.668 -0.353,-0.893c-0.235,-0.225 -0.552,-0.337 -0.952,-0.337Zm19.335,-7.395c-0,-1.9 -0.203,-3.545 -0.608,-4.935c-0.405,-1.39 -0.965,-2.54 -1.68,-3.45c-0.715,-0.91 -1.56,-1.588 -2.535,-2.033c-0.975,-0.445 -2.027,-0.667 -3.157,-0.667c-1.13,-0 -2.178,0.222 -3.143,0.667c-0.965,0.445 -1.802,1.123 -2.512,2.033c-0.71,0.91 -1.265,2.06 -1.665,3.45c-0.4,1.39 -0.6,3.035 -0.6,4.935c-0,1.89 0.2,3.532 0.6,4.927c0.4,1.395 0.955,2.548 1.665,3.458c0.71,0.91 1.547,1.587 2.512,2.032c0.965,0.445 2.013,0.668 3.143,0.668c1.13,-0 2.182,-0.223 3.157,-0.668c0.975,-0.445 1.82,-1.122 2.535,-2.032c0.715,-0.91 1.275,-2.063 1.68,-3.458c0.405,-1.395 0.608,-3.037 0.608,-4.927Zm-3.825,-0c-0,1.57 -0.115,2.87 -0.345,3.9c-0.23,1.03 -0.538,1.85 -0.923,2.46c-0.385,0.61 -0.827,1.037 -1.327,1.282c-0.5,0.245 -1.02,0.368 -1.56,0.368c-0.53,-0 -1.043,-0.123 -1.538,-0.368c-0.495,-0.245 -0.932,-0.672 -1.312,-1.282c-0.38,-0.61 -0.683,-1.43 -0.908,-2.46c-0.225,-1.03 -0.337,-2.33 -0.337,-3.9c-0,-1.57 0.112,-2.87 0.337,-3.9c0.225,-1.03 0.528,-1.85 0.908,-2.46c0.38,-0.61 0.817,-1.038 1.312,-1.283c0.495,-0.245 1.008,-0.367 1.538,-0.367c0.54,-0 1.06,0.122 1.56,0.367c0.5,0.245 0.942,0.673 1.327,1.283c0.385,0.61 0.693,1.43 0.923,2.46c0.23,1.03 0.345,2.33 0.345,3.9Zm-32.337,-48.53l-9.648,-0l-0,26.226l10.476,-0c1.572,-0 2.97,-0.201 4.194,-0.603c1.224,-0.402 2.253,-0.96 3.087,-1.674c0.834,-0.714 1.467,-1.551 1.899,-2.511c0.432,-0.96 0.648,-1.998 0.648,-3.114c-0,-1.488 -0.414,-2.7 -1.242,-3.636c-0.828,-0.936 -2.106,-1.614 -3.834,-2.034c0.792,-0.288 1.47,-0.63 2.034,-1.026c0.564,-0.396 1.026,-0.831 1.386,-1.305c0.36,-0.474 0.624,-0.984 0.792,-1.53c0.168,-0.546 0.252,-1.113 0.252,-1.701c-0,-1.08 -0.183,-2.058 -0.549,-2.934c-0.366,-0.876 -0.951,-1.62 -1.755,-2.232c-0.804,-0.612 -1.842,-1.086 -3.114,-1.422c-1.272,-0.336 -2.814,-0.504 -4.626,-0.504Zm0.72,21.636l-4.284,-0l-0,-6.534l4.248,-0c0.768,-0 1.404,0.072 1.908,0.216c0.504,0.144 0.909,0.348 1.215,0.612c0.306,0.264 0.522,0.588 0.648,0.972c0.126,0.384 0.189,0.816 0.189,1.296c-0,0.42 -0.054,0.834 -0.162,1.242c-0.108,0.408 -0.306,0.774 -0.594,1.098c-0.288,0.324 -0.687,0.588 -1.197,0.792c-0.51,0.204 -1.167,0.306 -1.971,0.306Zm-4.284,-17.082l3.564,-0c0.684,-0 1.275,0.054 1.773,0.162c0.498,0.108 0.909,0.288 1.233,0.54c0.324,0.252 0.564,0.585 0.72,0.999c0.156,0.414 0.234,0.933 0.234,1.557c-0,0.636 -0.099,1.164 -0.297,1.584c-0.198,0.42 -0.486,0.75 -0.864,0.99c-0.378,0.24 -0.837,0.408 -1.377,0.504c-0.54,0.096 -1.146,0.144 -1.818,0.144l-3.168,-0l-0,-6.48Zm32.562,16.866c-0.816,-0 -1.545,-0.135 -2.187,-0.405c-0.642,-0.27 -1.185,-0.66 -1.629,-1.17c-0.444,-0.51 -0.783,-1.128 -1.017,-1.854c-0.234,-0.726 -0.351,-1.551 -0.351,-2.475l-0,-15.516l-6.084,-0l-0,15.534c-0,1.608 0.258,3.084 0.774,4.428c0.516,1.344 1.26,2.502 2.232,3.474c0.972,0.972 2.154,1.728 3.546,2.268c1.392,0.54 2.964,0.81 4.716,0.81c1.74,-0 3.306,-0.27 4.698,-0.81c1.392,-0.54 2.574,-1.296 3.546,-2.268c0.972,-0.972 1.719,-2.13 2.241,-3.474c0.522,-1.344 0.783,-2.82 0.783,-4.428l-0,-15.534l-6.084,-0l-0,15.534c-0,0.924 -0.117,1.749 -0.351,2.475c-0.234,0.726 -0.573,1.341 -1.017,1.845c-0.444,0.504 -0.987,0.891 -1.629,1.161c-0.642,0.27 -1.371,0.405 -2.187,0.405Zm41.076,4.806l-5.58,-9.126c-0.276,-0.42 -0.588,-0.783 -0.936,-1.089c-0.348,-0.306 -0.72,-0.561 -1.116,-0.765c0.852,-0.324 1.605,-0.738 2.259,-1.242c0.654,-0.504 1.203,-1.077 1.647,-1.719c0.444,-0.642 0.78,-1.341 1.008,-2.097c0.228,-0.756 0.342,-1.56 0.342,-2.412c-0,-1.116 -0.192,-2.148 -0.576,-3.096c-0.384,-0.948 -0.999,-1.77 -1.845,-2.466c-0.846,-0.696 -1.938,-1.239 -3.276,-1.629c-1.338,-0.39 -2.955,-0.585 -4.851,-0.585l-8.532,-0l-0,26.226l6.084,-0l-0,-9.702l1.548,-0c0.468,-0 0.828,0.075 1.08,0.225c0.252,0.15 0.48,0.387 0.684,0.711l4.356,7.614c0.444,0.768 1.176,1.152 2.196,1.152l5.508,-0Zm-12.924,-13.896l-2.448,-0l-0,-7.776l2.448,-0c1.572,-0 2.733,0.324 3.483,0.972c0.75,0.648 1.125,1.548 1.125,2.7c-0,0.576 -0.084,1.113 -0.252,1.611c-0.168,0.498 -0.438,0.933 -0.81,1.305c-0.372,0.372 -0.849,0.663 -1.431,0.873c-0.582,0.21 -1.287,0.315 -2.115,0.315Zm30.87,0.306l-0,3.348c-0,0.312 0.108,0.57 0.324,0.774c0.216,0.204 0.516,0.306 0.9,0.306l2.592,-0l-0,3.978c-0.564,0.24 -1.143,0.432 -1.737,0.576c-0.594,0.144 -1.257,0.216 -1.989,0.216c-1.188,-0 -2.271,-0.195 -3.249,-0.585c-0.978,-0.39 -1.818,-0.957 -2.52,-1.701c-0.702,-0.744 -1.245,-1.656 -1.629,-2.736c-0.384,-1.08 -0.576,-2.316 -0.576,-3.708c-0,-1.26 0.174,-2.403 0.522,-3.429c0.348,-1.026 0.843,-1.905 1.485,-2.637c0.642,-0.732 1.419,-1.299 2.331,-1.701c0.912,-0.402 1.938,-0.603 3.078,-0.603c0.612,-0 1.164,0.03 1.656,0.09c0.492,0.06 0.96,0.156 1.404,0.288c0.444,0.132 0.879,0.303 1.305,0.513c0.426,0.21 0.879,0.459 1.359,0.747c0.504,0.312 0.975,0.42 1.413,0.324c0.438,-0.096 0.795,-0.354 1.071,-0.774l1.764,-2.682c-0.528,-0.504 -1.128,-0.972 -1.8,-1.404c-0.672,-0.432 -1.413,-0.804 -2.223,-1.116c-0.81,-0.312 -1.695,-0.558 -2.655,-0.738c-0.96,-0.18 -1.986,-0.27 -3.078,-0.27c-2.112,-0 -4.023,0.33 -5.733,0.99c-1.71,0.66 -3.168,1.584 -4.374,2.772c-1.206,1.188 -2.133,2.601 -2.781,4.239c-0.648,1.638 -0.972,3.435 -0.972,5.391c-0,1.92 0.342,3.699 1.026,5.337c0.684,1.638 1.656,3.054 2.916,4.248c1.26,1.194 2.775,2.13 4.545,2.808c1.77,0.678 3.735,1.017 5.895,1.017c1.656,-0 3.243,-0.222 4.761,-0.666c1.518,-0.444 2.949,-1.158 4.293,-2.142l-0,-11.07l-9.324,-0Zm39.906,-12.636l-6.12,-0l-0,10.962l-10.656,-0l-0,-10.962l-6.12,-0l-0,26.226l6.12,-0l-0,-11.088l10.656,-0l-0,11.088l6.12,-0l-0,-26.226Zm-172.314,37.685l-3.045,-0c-0.18,-0 -0.335,0.005 -0.465,0.015c-0.13,0.01 -0.248,0.035 -0.353,0.075c-0.105,0.04 -0.202,0.105 -0.292,0.195c-0.09,0.09 -0.175,0.21 -0.255,0.36l-6.405,12.015c-0.17,0.32 -0.33,0.652 -0.48,0.997c-0.15,0.345 -0.295,0.703 -0.435,1.073c-0.14,-0.36 -0.283,-0.71 -0.428,-1.05c-0.145,-0.34 -0.302,-0.67 -0.472,-0.99l-6.495,-12.045c-0.08,-0.15 -0.163,-0.27 -0.248,-0.36c-0.085,-0.09 -0.18,-0.155 -0.285,-0.195c-0.105,-0.04 -0.222,-0.065 -0.352,-0.075c-0.13,-0.01 -0.285,-0.015 -0.465,-0.015l-3.045,-0l-0,21.69l3.555,-0l-0,-14.01c-0,-0.27 -0.01,-0.565 -0.03,-0.885c-0.02,-0.32 -0.045,-0.645 -0.075,-0.975l6.63,12.36c0.31,0.59 0.785,0.885 1.425,0.885l0.57,-0c0.64,-0 1.115,-0.295 1.425,-0.885l6.555,-12.315c-0.06,0.65 -0.09,1.255 -0.09,1.815l-0,14.01l3.555,-0l-0,-21.69Zm23.415,21.69l-8.52,-21.69l-4.11,-0l-8.535,21.69l3.15,-0c0.34,-0 0.625,-0.095 0.855,-0.285c0.23,-0.19 0.385,-0.4 0.465,-0.63l1.62,-4.425l8.985,-0l1.62,4.425c0.11,0.26 0.275,0.477 0.495,0.652c0.22,0.175 0.505,0.263 0.855,0.263l3.12,-0Zm-7.125,-8.19l-6.9,-0l2.625,-7.185c0.13,-0.33 0.265,-0.718 0.405,-1.163c0.14,-0.445 0.275,-0.922 0.405,-1.432c0.14,0.51 0.28,0.985 0.42,1.425c0.14,0.44 0.275,0.82 0.405,1.14l2.64,7.215Zm-11.772,-46.361l-0,-4.824l-20.844,-0l-0,4.824l7.38,-0l-0,21.402l6.084,-0l-0,-21.402l7.38,-0Zm21.168,0.504l1.512,-2.826c-0.468,-0.432 -0.999,-0.819 -1.593,-1.161c-0.594,-0.342 -1.233,-0.636 -1.917,-0.882c-0.684,-0.246 -1.407,-0.432 -2.169,-0.558c-0.762,-0.126 -1.545,-0.189 -2.349,-0.189c-1.44,-0 -2.718,0.219 -3.834,0.657c-1.116,0.438 -2.058,1.023 -2.826,1.755c-0.768,0.732 -1.35,1.566 -1.746,2.502c-0.396,0.936 -0.594,1.896 -0.594,2.88c-0,1.224 0.168,2.253 0.504,3.087c0.336,0.834 0.777,1.53 1.323,2.088c0.546,0.558 1.167,1.008 1.863,1.35c0.696,0.342 1.41,0.63 2.142,0.864c0.732,0.234 1.446,0.447 2.142,0.639c0.696,0.192 1.317,0.414 1.863,0.666c0.546,0.252 0.987,0.57 1.323,0.954c0.336,0.384 0.504,0.882 0.504,1.494c-0,1.056 -0.306,1.827 -0.918,2.313c-0.612,0.486 -1.47,0.729 -2.574,0.729c-0.816,-0 -1.524,-0.114 -2.124,-0.342c-0.6,-0.228 -1.131,-0.48 -1.593,-0.756c-0.462,-0.276 -0.876,-0.528 -1.242,-0.756c-0.366,-0.228 -0.729,-0.342 -1.089,-0.342c-0.276,-0 -0.531,0.069 -0.765,0.207c-0.234,0.138 -0.423,0.309 -0.567,0.513l-1.8,2.844c0.516,0.516 1.122,0.984 1.818,1.404c0.696,0.42 1.44,0.783 2.232,1.089c0.792,0.306 1.611,0.543 2.457,0.711c0.846,0.168 1.677,0.252 2.493,0.252c1.488,-0 2.817,-0.225 3.987,-0.675c1.17,-0.45 2.154,-1.068 2.952,-1.854c0.798,-0.786 1.407,-1.707 1.827,-2.763c0.42,-1.056 0.63,-2.19 0.63,-3.402c-0,-1.092 -0.168,-2.025 -0.504,-2.799c-0.336,-0.774 -0.777,-1.431 -1.323,-1.971c-0.546,-0.54 -1.17,-0.984 -1.872,-1.332c-0.702,-0.348 -1.419,-0.651 -2.151,-0.909c-0.732,-0.258 -1.449,-0.492 -2.151,-0.702c-0.702,-0.21 -1.326,-0.441 -1.872,-0.693c-0.546,-0.252 -0.987,-0.552 -1.323,-0.9c-0.336,-0.348 -0.504,-0.786 -0.504,-1.314c-0,-0.828 0.279,-1.485 0.837,-1.971c0.558,-0.486 1.407,-0.729 2.547,-0.729c0.66,-0 1.248,0.087 1.764,0.261c0.516,0.174 0.975,0.369 1.377,0.585c0.402,0.216 0.762,0.411 1.08,0.585c0.318,0.174 0.615,0.261 0.891,0.261c0.312,-0 0.567,-0.072 0.765,-0.216c0.198,-0.144 0.387,-0.36 0.567,-0.648Zm-56.413,43.202c0,-0.804 -0.652,-1.456 -1.455,-1.456l-42.369,0c-0.804,0 -1.456,0.652 -1.456,1.456c-0,0.803 0.652,1.456 1.456,1.456l42.369,-0c0.803,-0 1.455,-0.653 1.455,-1.456Zm197.882,-0c-0,-0.804 -0.652,-1.456 -1.456,-1.456l-42.369,0c-0.803,0 -1.456,0.652 -1.456,1.456c0,0.803 0.653,1.456 1.456,1.456l42.369,-0c0.804,-0 1.456,-0.653 1.456,-1.456Zm-239.047,-48.53l-9.252,-0l-0,26.226l6.084,-0l-0,-8.766l3.168,-0c1.812,-0 3.381,-0.219 4.707,-0.657c1.326,-0.438 2.421,-1.047 3.285,-1.827c0.864,-0.78 1.506,-1.716 1.926,-2.808c0.42,-1.092 0.63,-2.292 0.63,-3.6c-0,-1.212 -0.204,-2.34 -0.612,-3.384c-0.408,-1.044 -1.041,-1.95 -1.899,-2.718c-0.858,-0.768 -1.95,-1.371 -3.276,-1.809c-1.326,-0.438 -2.913,-0.657 -4.761,-0.657Zm-0,12.87l-3.168,-0l-0,-8.316l3.168,-0c0.768,-0 1.431,0.096 1.989,0.288c0.558,0.192 1.02,0.465 1.386,0.819c0.366,0.354 0.639,0.777 0.819,1.269c0.18,0.492 0.27,1.038 0.27,1.638c-0,1.356 -0.348,2.412 -1.044,3.168c-0.696,0.756 -1.836,1.134 -3.42,1.134Z" style="fill:#ffc100;"/></g></svg>