<?xml version="1.0" encoding="UTF-8" standalone="no"?><!DOCTYPE svg PUBLIC "-//W3C//DTD SVG 1.1//EN" "http://www.w3.org/Graphics/SVG/1.1/DTD/svg11.dtd"><svg width="100%" height="100%" viewBox="0 0 356 524" version="1.1" xmlns="http://www.w3.org/2000/svg" xmlns:xlink="http://www.w3.org/1999/xlink" xml:space="preserve" xmlns:serif="http://www.serif.com/" style="fill-rule:evenodd;clip-rule:evenodd;stroke-linejoin:round;stroke-miterlimit:2;"><rect id="Artboard5" x="0.133" y="0.178" width="355.608" height="522.936" style="fill:none;"/><clipPath id="_clip1"><rect id="Artboard51" serif:id="Artboard5" x="0.133" y="0.178" width="355.608" height="522.936"/></clipPath><g clip-path="url(#_clip1)"><path d="M334.304,369.795c-1.436,2.682 -4.778,3.693 -7.459,2.257c-2.681,-1.435 -3.693,-4.778 -2.257,-7.459c13.663,-25.519 20.755,-53.727 20.092,-78.689l-0.004,-0.146l0.004,-0.146c0.947,-35.654 -13.882,-77.927 -41.19,-109.525c-1.989,-2.301 -1.735,-5.784 0.566,-7.772c2.301,-1.989 5.784,-1.736 7.773,0.566c29.129,33.706 44.84,78.83 43.87,116.827c0.689,26.673 -6.8,56.827 -21.395,84.087Zm-277.288,-214.317c2.235,-2.062 5.724,-1.921 7.786,0.315c2.062,2.236 1.921,5.725 -0.314,7.787c-1.513,1.395 -2.998,2.82 -4.453,4.275c-32.186,32.187 -49.872,78.905 -48.839,117.757l0.004,0.146l-0.004,0.147c-0.665,25.026 6.465,53.316 20.198,78.887c1.439,2.679 0.432,6.023 -2.247,7.462c-2.679,1.439 -6.023,0.432 -7.462,-2.248c-14.661,-27.298 -22.19,-57.517 -21.507,-84.14c-1.091,-41.497 17.691,-91.43 52.064,-125.804c1.56,-1.56 3.152,-3.088 4.774,-4.584Zm56.108,319.93c-16.447,17.809 -51.113,21.152 -70.661,6.817c-21.2,-11.755 -32.669,-44.64 -23.377,-67.029c18.217,-63.705 92.681,-116.904 158.852,-113.489c66.171,-3.415 140.634,49.784 158.852,113.489c9.292,22.389 -2.177,55.274 -23.378,67.029c-19.547,14.335 -54.213,10.992 -70.66,-6.817c-30.001,-34.857 -102.855,-33.707 -131.741,2.08l2.113,-2.08Zm12.941,-133.472c-0.834,9.27 30.09,18.988 55.437,17.422c25.703,0.301 52.65,-10.852 48.309,-19.992c0.834,-9.269 -30.09,-18.987 -55.437,-17.422c-25.703,-0.3 -52.651,10.851 -48.309,19.992Zm62.743,-54.982l8.993,-76.359c0.008,-0.081 0.018,-0.161 0.029,-0.242c3.066,-26.031 5.762,-48.93 7.459,-63.337c1.181,-10.027 1.877,-15.941 1.877,-15.936c0.111,-1.897 1.142,-3.841 2.739,-5.2c1.244,-1.059 2.783,-1.721 4.284,-1.872c0.069,-1.584 0.135,-3.087 0.135,-3.077c-0.04,-1.989 0.935,-4.096 2.562,-5.588c1.631,-1.494 3.821,-2.282 5.77,-2.067l6.958,0.304l2.458,-56.315c0.088,-2.025 1.805,-3.598 3.83,-3.51c2.026,0.089 3.599,1.805 3.51,3.831l-2.458,56.314l13.33,0.582l13.329,0.582l2.459,-56.314c0.089,-2.026 1.805,-3.599 3.831,-3.51c2.025,0.088 3.598,1.804 3.51,3.83l-2.46,56.315c3.984,0.174 6.944,0.303 6.937,0.303c1.989,-0.04 4.096,0.935 5.588,2.562c1.494,1.631 2.281,3.821 2.067,5.77l-0.135,3.1c1.49,0.283 2.961,1.076 4.105,2.236c1.471,1.491 2.328,3.516 2.275,5.387l0.483,16.102c0.001,0.038 0.002,0.077 0.003,0.115l5.443,181.557c-2.459,-2.104 -4.972,-4.151 -7.535,-6.139l-0.606,-20.235l-14.953,9.286c-2.319,-1.475 -4.666,-2.902 -7.038,-4.278l13.434,-8.343l-32.586,-1.423c-7.499,-3.315 -15.155,-6.119 -22.883,-8.353l58.004,2.533l-39.507,-38.283l-38.512,31.295c-5.586,-0.868 -11.173,-1.416 -16.729,-1.623Zm28.733,-155.502l-2.536,-0.111c-0.034,-0.002 -0.069,-0.004 -0.103,-0.006l-0.412,0.353c-0.003,0.034 -0.007,0.067 -0.011,0.1l-1.443,12.252l71.776,3.134l-0.37,-12.331c-0.001,-0.034 -0.001,-0.069 -0.001,-0.103l-0.383,-0.386c-0.033,-0.001 -0.067,-0.002 -0.1,-0.003l-2.536,-0.11l-31.94,-1.395l-31.941,-1.394Zm-5.755,23.204l-5.727,48.631l35.296,-24.257l-29.569,-24.374Zm21.177,-33.575l-10.764,-0.47c-0.034,-0.002 -0.068,-0.004 -0.102,-0.006l-0.423,0.386c-0.001,0.034 -0.002,0.069 -0.003,0.104l-0.139,3.176l28.27,1.235c0,-0 18.417,0.804 28.27,1.234l0.139,-3.177c0.001,-0.034 0.003,-0.069 0.006,-0.104l-0.388,-0.421c-0.035,-0.001 -0.069,-0.002 -0.103,-0.003l-10.763,-0.47l-17,-0.743l-17,-0.741Zm-21.998,93.914l33.512,32.472l36.215,-29.428l-69.727,-3.044Zm75.635,-8.192l-1.468,-48.944l-31.58,21.703l33.048,27.241Zm-39.347,-22.912l-34.66,23.821l67.112,2.93l-32.452,-26.751Zm-43.011,34.82l-8.003,67.955l42.496,-34.533l-34.493,-33.422Zm84.873,72.009l-2.05,-68.393l-37.274,30.289l39.324,38.104Zm-69.38,-139.034l27.919,23.014l29.819,-20.493l-57.738,-2.521Zm-171.473,189.89l-0.956,-21.905c-0.33,-7.557 -0.66,-15.125 -0.984,-22.552c-0.337,-7.726 -0.668,-15.3 -0.985,-22.551c-0.348,-7.984 -0.68,-15.577 -0.984,-22.552c-0.375,-8.599 -0.71,-16.259 -0.984,-22.552c-0.494,-11.322 -0.792,-18.222 -0.792,-18.218c-0.213,-1.978 0.574,-4.163 2.065,-5.79c1.495,-1.631 3.608,-2.606 5.568,-2.562l27.089,-1.183l-1.809,-41.433l-0.985,-22.551c-0.384,-8.8 -0.719,-16.457 -0.985,-22.551c-0.427,-9.79 -0.678,-15.549 -0.677,-15.546c-0.214,-1.977 0.573,-4.162 2.065,-5.79c1.494,-1.631 3.608,-2.606 5.568,-2.562l3.125,-0.137l-3.697,-84.706c-0.089,-2.026 1.484,-3.742 3.509,-3.831c2.026,-0.088 3.742,1.485 3.831,3.51l3.698,84.707c13.023,-0.569 35.13,-1.534 48.144,-2.102l-3.699,-84.707c-0.088,-2.025 1.485,-3.742 3.51,-3.83c2.026,-0.089 3.742,1.484 3.831,3.51l3.698,84.707c1.976,-0.086 3.108,-0.135 3.106,-0.135c1.978,-0.214 4.162,0.573 5.79,2.065c1.631,1.494 2.606,3.607 2.562,5.567l1.664,38.117l0.985,22.553l2.954,67.654l0.985,22.552l1.755,40.215c-2.439,0.105 -4.884,0.275 -7.332,0.509l-0.619,-14.182l-70.363,3.072l0.664,15.211l59.03,-2.577c-10.536,1.83 -21.055,4.788 -31.348,8.723l-27.361,1.195l0.505,11.565c-6.286,3.595 -12.4,7.544 -18.286,11.805l-16.309,0.712l0.522,11.961c-2.414,2.145 -4.771,4.345 -7.068,6.595Zm32.759,-223.051l0.664,15.211l70.363,-3.072l-0.664,-15.211l-70.363,3.072Zm0.984,22.552l0.665,15.211l70.362,-3.072l-0.664,-15.212l-70.363,3.073Zm-4.386,67.974l-27.225,1.189c-0.034,0.002 -0.069,0.003 -0.104,0.003l-0.386,0.423c0.002,0.035 0.004,0.069 0.006,0.103l0.641,14.705l27.732,-1.211l-0.664,-15.212Zm79.352,34.371l-0.664,-15.211l-70.363,3.072l0.664,15.211l70.363,-3.072Zm-69.379,-145.1l-6.932,0.302c-0.035,0.002 -0.069,0.003 -0.103,0.003l-0.388,0.422c0.002,0.035 0.004,0.069 0.006,0.104l0.525,12.032l70.363,-3.073l-0.525,-12.032c-0.002,-0.034 -0.003,-0.069 -0.003,-0.103l-0.423,-0.387c-0.034,0.003 -0.069,0.005 -0.103,0.006l-6.932,0.303l-55.485,2.423Zm68.394,122.548l-0.664,-15.211l-70.363,3.072l0.665,15.211l70.362,-3.072Zm-72.011,-34.69l0.664,15.211l70.363,-3.072l-0.665,-15.211l-70.362,3.072Zm73.98,79.794l-0.664,-15.211l-70.362,3.071l0.664,15.212l70.362,-3.072Zm-74.965,-102.346l0.664,15.211l70.363,-3.072l-0.664,-15.211l-70.363,3.072Zm-31.134,91.738l0.663,15.211l27.734,-1.211l-0.665,-15.211l-27.732,1.211Zm-0.984,-22.552l0.663,15.211l27.733,-1.211l-0.664,-15.211l-27.732,1.211Zm3.616,82.866l27.734,-1.211l-0.664,-15.211l-27.734,1.211l0.664,15.211Zm-1.648,-37.762l0.664,15.211l27.733,-1.211l-0.664,-15.211l-27.733,1.211Zm97.385,191.907l0,21.69l-3.555,-0l0,-14.01c0,-0.56 0.03,-1.165 0.09,-1.815l-6.555,12.315c-0.31,0.59 -0.785,0.885 -1.425,0.885l-0.57,-0c-0.64,-0 -1.115,-0.295 -1.425,-0.885l-6.63,-12.36c0.03,0.33 0.055,0.655 0.075,0.975c0.02,0.32 0.03,0.615 0.03,0.885l0,14.01l-3.555,-0l0,-21.69l3.045,-0c0.18,-0 0.335,0.005 0.465,0.015c0.13,0.01 0.248,0.035 0.353,0.075c0.105,0.04 0.2,0.105 0.285,0.195c0.085,0.09 0.167,0.21 0.247,0.36l6.495,12.045c0.17,0.32 0.328,0.65 0.473,0.99c0.145,0.34 0.287,0.69 0.427,1.05c0.14,-0.37 0.285,-0.728 0.435,-1.073c0.15,-0.345 0.31,-0.677 0.48,-0.997l6.405,-12.015c0.08,-0.15 0.165,-0.27 0.255,-0.36c0.09,-0.09 0.188,-0.155 0.293,-0.195c0.105,-0.04 0.222,-0.065 0.352,-0.075c0.13,-0.01 0.285,-0.015 0.465,-0.015l3.045,-0Zm21.645,21.69l-3.12,-0c-0.35,-0 -0.635,-0.088 -0.855,-0.263c-0.22,-0.175 -0.385,-0.392 -0.495,-0.652l-1.62,-4.425l-8.985,-0l-1.62,4.425c-0.08,0.23 -0.235,0.44 -0.465,0.63c-0.23,0.19 -0.515,0.285 -0.855,0.285l-3.15,-0l8.535,-21.69l4.11,-0l8.52,21.69Zm-7.125,-8.19l-2.64,-7.215c-0.13,-0.32 -0.265,-0.7 -0.405,-1.14c-0.14,-0.44 -0.28,-0.915 -0.42,-1.425c-0.13,0.51 -0.265,0.987 -0.405,1.432c-0.14,0.445 -0.275,0.833 -0.405,1.163l-2.625,7.185l6.9,-0Zm24.54,8.19l-3.645,-0c-0.69,-0 -1.19,-0.27 -1.5,-0.81l-4.56,-6.945c-0.17,-0.26 -0.357,-0.445 -0.562,-0.555c-0.205,-0.11 -0.508,-0.165 -0.908,-0.165l-1.725,-0l0,8.475l-4.035,-0l0,-21.69l6.615,-0c1.47,-0 2.733,0.152 3.788,0.457c1.055,0.305 1.92,0.733 2.595,1.283c0.675,0.55 1.172,1.207 1.492,1.972c0.32,0.765 0.48,1.608 0.48,2.528c0,0.73 -0.107,1.42 -0.322,2.07c-0.215,0.65 -0.525,1.24 -0.93,1.77c-0.405,0.53 -0.905,0.995 -1.5,1.395c-0.595,0.4 -1.273,0.715 -2.033,0.945c0.26,0.15 0.5,0.327 0.72,0.532c0.22,0.205 0.42,0.448 0.6,0.728l5.43,8.01Zm-10.38,-11.37c0.76,-0 1.423,-0.095 1.988,-0.285c0.565,-0.19 1.03,-0.453 1.395,-0.788c0.365,-0.335 0.637,-0.732 0.817,-1.192c0.18,-0.46 0.27,-0.965 0.27,-1.515c0,-1.1 -0.362,-1.945 -1.087,-2.535c-0.725,-0.59 -1.833,-0.885 -3.323,-0.885l-2.58,-0l0,7.2l2.52,-0Zm18.855,-10.32l0,4.32l-0.33,2.34c-0.08,0.44 -0.21,0.777 -0.39,1.012c-0.18,0.235 -0.48,0.353 -0.9,0.353c-0.37,-0 -0.655,-0.118 -0.855,-0.353c-0.2,-0.235 -0.34,-0.572 -0.42,-1.012l-0.33,-2.34l0,-4.32l3.225,-0Zm14.505,18.24c0.4,-0 0.718,0.112 0.953,0.337c0.235,0.225 0.352,0.523 0.352,0.893l0,2.22l-14.88,-0l0,-1.23c0,-0.25 0.053,-0.513 0.158,-0.788c0.105,-0.275 0.272,-0.522 0.502,-0.742l6.585,-6.6c0.55,-0.56 1.043,-1.095 1.478,-1.605c0.435,-0.51 0.797,-1.015 1.087,-1.515c0.29,-0.5 0.513,-1.008 0.668,-1.523c0.155,-0.515 0.232,-1.057 0.232,-1.627c0,-0.52 -0.075,-0.978 -0.225,-1.373c-0.15,-0.395 -0.362,-0.727 -0.637,-0.997c-0.275,-0.27 -0.605,-0.473 -0.99,-0.608c-0.385,-0.135 -0.818,-0.202 -1.298,-0.202c-0.44,-0 -0.847,0.062 -1.222,0.187c-0.375,0.125 -0.708,0.3 -0.998,0.525c-0.29,0.225 -0.535,0.488 -0.735,0.788c-0.2,0.3 -0.35,0.63 -0.45,0.99c-0.17,0.46 -0.39,0.765 -0.66,0.915c-0.27,0.15 -0.66,0.185 -1.17,0.105l-1.95,-0.345c0.15,-1.04 0.44,-1.953 0.87,-2.738c0.43,-0.785 0.968,-1.44 1.613,-1.965c0.645,-0.525 1.385,-0.92 2.22,-1.185c0.835,-0.265 1.732,-0.397 2.692,-0.397c1,-0 1.915,0.147 2.745,0.442c0.83,0.295 1.54,0.713 2.13,1.253c0.59,0.54 1.05,1.19 1.38,1.95c0.33,0.76 0.495,1.605 0.495,2.535c0,0.8 -0.117,1.54 -0.352,2.22c-0.235,0.68 -0.55,1.33 -0.945,1.95c-0.395,0.62 -0.858,1.22 -1.388,1.8c-0.53,0.58 -1.085,1.17 -1.665,1.77l-4.89,4.995c0.47,-0.14 0.938,-0.248 1.403,-0.323c0.465,-0.075 0.907,-0.112 1.327,-0.112l5.565,-0Zm2.535,-12.195c0.15,-1.04 0.44,-1.953 0.87,-2.738c0.43,-0.785 0.968,-1.44 1.613,-1.965c0.645,-0.525 1.385,-0.92 2.22,-1.185c0.835,-0.265 1.732,-0.397 2.692,-0.397c1,-0 1.903,0.142 2.708,0.427c0.805,0.285 1.492,0.68 2.062,1.185c0.57,0.505 1.008,1.098 1.313,1.778c0.305,0.68 0.457,1.415 0.457,2.205c0,0.69 -0.077,1.297 -0.232,1.822c-0.155,0.525 -0.378,0.983 -0.668,1.373c-0.29,0.39 -0.65,0.72 -1.08,0.99c-0.43,0.27 -0.915,0.495 -1.455,0.675c1.3,0.41 2.27,1.035 2.91,1.875c0.64,0.84 0.96,1.895 0.96,3.165c0,1.08 -0.2,2.035 -0.6,2.865c-0.4,0.83 -0.94,1.527 -1.62,2.092c-0.68,0.565 -1.467,0.993 -2.362,1.283c-0.895,0.29 -1.843,0.435 -2.843,0.435c-1.09,-0 -2.04,-0.125 -2.85,-0.375c-0.81,-0.25 -1.515,-0.62 -2.115,-1.11c-0.6,-0.49 -1.11,-1.09 -1.53,-1.8c-0.42,-0.71 -0.78,-1.53 -1.08,-2.46l1.635,-0.675c0.43,-0.18 0.833,-0.228 1.208,-0.143c0.375,0.085 0.647,0.288 0.817,0.608c0.18,0.35 0.378,0.695 0.593,1.035c0.215,0.34 0.472,0.642 0.772,0.907c0.3,0.265 0.653,0.48 1.058,0.645c0.405,0.165 0.887,0.248 1.447,0.248c0.63,-0 1.18,-0.103 1.65,-0.308c0.47,-0.205 0.863,-0.472 1.178,-0.802c0.315,-0.33 0.55,-0.698 0.705,-1.103c0.155,-0.405 0.232,-0.812 0.232,-1.222c0,-0.52 -0.055,-0.993 -0.165,-1.418c-0.11,-0.425 -0.34,-0.787 -0.69,-1.087c-0.35,-0.3 -0.852,-0.535 -1.507,-0.705c-0.655,-0.17 -1.533,-0.255 -2.633,-0.255l0,-2.64c0.91,-0.01 1.665,-0.095 2.265,-0.255c0.6,-0.16 1.078,-0.383 1.433,-0.668c0.355,-0.285 0.602,-0.627 0.742,-1.027c0.14,-0.4 0.21,-0.84 0.21,-1.32c0,-1.02 -0.285,-1.795 -0.855,-2.325c-0.57,-0.53 -1.33,-0.795 -2.28,-0.795c-0.44,-0 -0.845,0.062 -1.215,0.187c-0.37,0.125 -0.702,0.3 -0.997,0.525c-0.295,0.225 -0.543,0.488 -0.743,0.788c-0.2,0.3 -0.35,0.63 -0.45,0.99c-0.17,0.46 -0.392,0.765 -0.667,0.915c-0.275,0.15 -0.663,0.185 -1.163,0.105l-1.95,-0.345Zm-105.433,40.196c0.144,0 0.288,0.027 0.432,0.081c0.144,0.054 0.282,0.147 0.414,0.279l2.412,2.538c-1.056,1.38 -2.379,2.421 -3.969,3.123c-1.59,0.702 -3.471,1.053 -5.643,1.053c-1.992,0 -3.777,-0.339 -5.355,-1.017c-1.578,-0.678 -2.916,-1.614 -4.014,-2.808c-1.098,-1.194 -1.941,-2.61 -2.529,-4.248c-0.588,-1.638 -0.882,-3.417 -0.882,-5.337c-0,-1.956 0.318,-3.753 0.954,-5.391c0.636,-1.638 1.53,-3.051 2.682,-4.239c1.152,-1.188 2.532,-2.112 4.14,-2.772c1.608,-0.66 3.378,-0.99 5.31,-0.99c0.984,0 1.911,0.087 2.781,0.261c0.87,0.174 1.683,0.414 2.439,0.72c0.756,0.306 1.452,0.675 2.088,1.107c0.636,0.432 1.2,0.9 1.692,1.404l-2.052,2.754c-0.132,0.168 -0.288,0.321 -0.468,0.459c-0.18,0.138 -0.432,0.207 -0.756,0.207c-0.216,0 -0.42,-0.048 -0.612,-0.144c-0.192,-0.096 -0.396,-0.213 -0.612,-0.351c-0.216,-0.138 -0.453,-0.288 -0.711,-0.45c-0.258,-0.162 -0.564,-0.312 -0.918,-0.45c-0.354,-0.138 -0.768,-0.255 -1.242,-0.351c-0.474,-0.096 -1.029,-0.144 -1.665,-0.144c-1.008,0 -1.929,0.186 -2.763,0.558c-0.834,0.372 -1.554,0.915 -2.16,1.629c-0.606,0.714 -1.074,1.59 -1.404,2.628c-0.33,1.038 -0.495,2.223 -0.495,3.555c-0,1.344 0.183,2.538 0.549,3.582c0.366,1.044 0.864,1.923 1.494,2.637c0.63,0.714 1.365,1.257 2.205,1.629c0.84,0.372 1.74,0.558 2.7,0.558c0.552,0 1.056,-0.027 1.512,-0.081c0.456,-0.054 0.882,-0.144 1.278,-0.27c0.396,-0.126 0.768,-0.294 1.116,-0.504c0.348,-0.21 0.702,-0.477 1.062,-0.801c0.144,-0.12 0.3,-0.219 0.468,-0.297c0.168,-0.078 0.342,-0.117 0.522,-0.117Zm28.818,-19.44l-0,26.226l-6.12,0l-0,-11.088l-10.656,0l-0,11.088l-6.12,0l-0,-26.226l6.12,0l-0,10.962l10.656,0l-0,-10.962l6.12,0Zm11.196,26.226l-6.12,0l-0,-26.226l6.12,0l-0,26.226Zm23.922,-21.402l-7.38,0l-0,21.402l-6.084,0l-0,-21.402l-7.38,0l-0,-4.824l20.844,0l-0,4.824Zm28.206,8.28c-0,1.896 -0.327,3.66 -0.981,5.292c-0.654,1.632 -1.575,3.051 -2.763,4.257c-1.188,1.206 -2.619,2.151 -4.293,2.835c-1.674,0.684 -3.531,1.026 -5.571,1.026c-2.04,0 -3.9,-0.342 -5.58,-1.026c-1.68,-0.684 -3.117,-1.629 -4.311,-2.835c-1.194,-1.206 -2.118,-2.625 -2.772,-4.257c-0.654,-1.632 -0.981,-3.396 -0.981,-5.292c-0,-1.896 0.327,-3.66 0.981,-5.292c0.654,-1.632 1.578,-3.048 2.772,-4.248c1.194,-1.2 2.631,-2.142 4.311,-2.826c1.68,-0.684 3.54,-1.026 5.58,-1.026c2.04,0 3.897,0.345 5.571,1.035c1.674,0.69 3.105,1.635 4.293,2.835c1.188,1.2 2.109,2.616 2.763,4.248c0.654,1.632 0.981,3.39 0.981,5.274Zm-6.228,0c-0,-1.296 -0.168,-2.463 -0.504,-3.501c-0.336,-1.038 -0.819,-1.917 -1.449,-2.637c-0.63,-0.72 -1.401,-1.272 -2.313,-1.656c-0.912,-0.384 -1.95,-0.576 -3.114,-0.576c-1.176,0 -2.223,0.192 -3.141,0.576c-0.918,0.384 -1.692,0.936 -2.322,1.656c-0.63,0.72 -1.113,1.599 -1.449,2.637c-0.336,1.038 -0.504,2.205 -0.504,3.501c-0,1.308 0.168,2.481 0.504,3.519c0.336,1.038 0.819,1.917 1.449,2.637c0.63,0.72 1.404,1.269 2.322,1.647c0.918,0.378 1.965,0.567 3.141,0.567c1.164,0 2.202,-0.189 3.114,-0.567c0.912,-0.378 1.683,-0.927 2.313,-1.647c0.63,-0.72 1.113,-1.599 1.449,-2.637c0.336,-1.038 0.504,-2.211 0.504,-3.519Zm44.856,-13.104l-8.1,26.226l-5.508,0l-4.932,-16.254c-0.096,-0.252 -0.186,-0.531 -0.27,-0.837c-0.084,-0.306 -0.168,-0.627 -0.252,-0.963c-0.084,0.336 -0.168,0.657 -0.252,0.963c-0.084,0.306 -0.174,0.585 -0.27,0.837l-5.004,16.254l-5.508,0l-8.1,-26.226l5.112,0c0.528,0 0.969,0.12 1.323,0.36c0.354,0.24 0.585,0.558 0.693,0.954l3.6,13.68c0.108,0.432 0.216,0.903 0.324,1.413c0.108,0.51 0.216,1.041 0.324,1.593c0.216,-1.128 0.48,-2.13 0.792,-3.006l4.248,-13.68c0.108,-0.336 0.339,-0.639 0.693,-0.909c0.354,-0.27 0.783,-0.405 1.287,-0.405l1.8,0c0.528,0 0.954,0.123 1.278,0.369c0.324,0.246 0.57,0.561 0.738,0.945l4.212,13.68c0.312,0.84 0.576,1.794 0.792,2.862c0.096,-0.54 0.195,-1.047 0.297,-1.521c0.102,-0.474 0.207,-0.921 0.315,-1.341l3.6,-13.68c0.096,-0.348 0.324,-0.654 0.684,-0.918c0.36,-0.264 0.792,-0.396 1.296,-0.396l4.788,0Zm25.506,0l-0,26.226l-3.168,0c-0.468,0 -0.861,-0.075 -1.179,-0.225c-0.318,-0.15 -0.633,-0.411 -0.945,-0.783l-12.366,-15.642c0.048,0.468 0.081,0.921 0.099,1.359c0.018,0.438 0.027,0.849 0.027,1.233l-0,14.058l-5.364,0l-0,-26.226l3.204,0c0.264,0 0.486,0.012 0.666,0.036c0.18,0.024 0.342,0.069 0.486,0.135c0.144,0.066 0.282,0.159 0.414,0.279c0.132,0.12 0.282,0.282 0.45,0.486l12.474,15.75c-0.06,-0.504 -0.102,-0.993 -0.126,-1.467c-0.024,-0.474 -0.036,-0.921 -0.036,-1.341l-0,-13.878l5.364,0Z" style="fill:#47c800;"/></g></svg>