<?xml version="1.0" encoding="UTF-8" standalone="no"?><!DOCTYPE svg PUBLIC "-//W3C//DTD SVG 1.1//EN" "http://www.w3.org/Graphics/SVG/1.1/DTD/svg11.dtd"><svg width="100%" height="100%" viewBox="0 0 426 441" version="1.1" xmlns="http://www.w3.org/2000/svg" xmlns:xlink="http://www.w3.org/1999/xlink" xml:space="preserve" xmlns:serif="http://www.serif.com/" style="fill-rule:evenodd;clip-rule:evenodd;stroke-linejoin:round;stroke-miterlimit:2;"><rect id="Artboard10" x="0.012" y="0.178" width="425.664" height="439.776" style="fill:none;"/><clipPath id="_clip1"><rect id="Artboard101" serif:id="Artboard10" x="0.012" y="0.178" width="425.664" height="439.776"/></clipPath><g clip-path="url(#_clip1)"><path d="M236.146,76.164l-4.192,0c-0.469,0 -0.848,-0.109 -1.136,-0.328c-0.288,-0.218 -0.507,-0.498 -0.656,-0.84l-1.376,-4.064l-8.864,0l-1.376,4.064c-0.117,0.299 -0.328,0.568 -0.632,0.808c-0.304,0.24 -0.68,0.36 -1.128,0.36l-4.224,0l9.024,-23.312l5.536,0l9.024,23.312Zm-8.592,-8.912l-2.16,-6.384c-0.16,-0.405 -0.331,-0.882 -0.512,-1.432c-0.181,-0.549 -0.363,-1.144 -0.544,-1.784c-0.16,0.651 -0.331,1.254 -0.512,1.808c-0.181,0.555 -0.352,1.035 -0.512,1.44l-2.144,6.352l6.384,0Zm19.552,4.64c0.725,0 1.373,-0.12 1.944,-0.36c0.571,-0.24 1.053,-0.584 1.448,-1.032c0.395,-0.448 0.696,-0.994 0.904,-1.64c0.208,-0.645 0.312,-1.378 0.312,-2.2l0,-13.808l5.408,0l0,13.808c0,1.43 -0.232,2.742 -0.696,3.936c-0.464,1.195 -1.128,2.224 -1.992,3.088c-0.864,0.864 -1.915,1.536 -3.152,2.016c-1.237,0.48 -2.629,0.72 -4.176,0.72c-1.557,0 -2.955,-0.24 -4.192,-0.72c-1.237,-0.48 -2.288,-1.152 -3.152,-2.016c-0.864,-0.864 -1.525,-1.893 -1.984,-3.088c-0.459,-1.194 -0.688,-2.506 -0.688,-3.936l0,-13.808l5.408,0l0,13.792c0,0.822 0.104,1.555 0.312,2.2c0.208,0.646 0.509,1.195 0.904,1.648c0.395,0.454 0.877,0.8 1.448,1.04c0.571,0.24 1.219,0.36 1.944,0.36Zm25.44,-7.808l8.288,0l0,9.84c-1.195,0.875 -2.467,1.51 -3.816,1.904c-1.349,0.395 -2.76,0.592 -4.232,0.592c-1.92,0 -3.667,-0.301 -5.24,-0.904c-1.573,-0.602 -2.92,-1.434 -4.04,-2.496c-1.12,-1.061 -1.984,-2.32 -2.592,-3.776c-0.608,-1.456 -0.912,-3.037 -0.912,-4.744c0,-1.738 0.288,-3.336 0.864,-4.792c0.576,-1.456 1.4,-2.712 2.472,-3.768c1.072,-1.056 2.368,-1.877 3.888,-2.464c1.52,-0.586 3.219,-0.88 5.096,-0.88c0.971,0 1.883,0.08 2.736,0.24c0.853,0.16 1.64,0.379 2.36,0.656c0.72,0.278 1.379,0.608 1.976,0.992c0.597,0.384 1.131,0.8 1.6,1.248l-1.568,2.384c-0.245,0.374 -0.563,0.603 -0.952,0.688c-0.389,0.086 -0.808,-0.01 -1.256,-0.288c-0.427,-0.256 -0.829,-0.477 -1.208,-0.664c-0.379,-0.186 -0.765,-0.338 -1.16,-0.456c-0.395,-0.117 -0.811,-0.202 -1.248,-0.256c-0.437,-0.053 -0.928,-0.08 -1.472,-0.08c-1.013,0 -1.925,0.179 -2.736,0.536c-0.811,0.358 -1.501,0.862 -2.072,1.512c-0.571,0.651 -1.011,1.432 -1.32,2.344c-0.309,0.912 -0.464,1.928 -0.464,3.048c0,1.238 0.171,2.336 0.512,3.296c0.341,0.96 0.824,1.771 1.448,2.432c0.624,0.662 1.371,1.166 2.24,1.512c0.869,0.347 1.832,0.52 2.888,0.52c0.651,0 1.24,-0.064 1.768,-0.192c0.528,-0.128 1.043,-0.298 1.544,-0.512l0,-3.536l-2.304,0c-0.341,0 -0.608,-0.09 -0.8,-0.272c-0.192,-0.181 -0.288,-0.41 -0.288,-0.688l0,-2.976Zm-6.49,35.585c0.533,0 0.955,0.147 1.264,0.44c0.309,0.294 0.464,0.68 0.464,1.16l-0,2.88l-16.384,0l-0,-1.6c-0,-0.309 0.064,-0.64 0.192,-0.992c0.128,-0.352 0.352,-0.672 0.672,-0.96l6.72,-6.768c0.576,-0.576 1.077,-1.125 1.504,-1.648c0.427,-0.522 0.779,-1.037 1.056,-1.544c0.277,-0.506 0.485,-1.013 0.624,-1.52c0.139,-0.506 0.208,-1.042 0.208,-1.608c-0,-0.928 -0.221,-1.64 -0.664,-2.136c-0.443,-0.496 -1.117,-0.744 -2.024,-0.744c-0.736,0 -1.357,0.195 -1.864,0.584c-0.507,0.39 -0.856,0.872 -1.048,1.448c-0.224,0.587 -0.517,0.976 -0.88,1.168c-0.363,0.192 -0.88,0.235 -1.552,0.128l-2.624,-0.464c0.171,-1.162 0.499,-2.176 0.984,-3.04c0.485,-0.864 1.088,-1.584 1.808,-2.16c0.72,-0.576 1.544,-1.005 2.472,-1.288c0.928,-0.282 1.925,-0.424 2.992,-0.424c1.152,0 2.189,0.168 3.112,0.504c0.923,0.336 1.709,0.803 2.36,1.4c0.651,0.598 1.149,1.31 1.496,2.136c0.347,0.827 0.52,1.736 0.52,2.728c-0,0.854 -0.12,1.643 -0.36,2.368c-0.24,0.726 -0.568,1.416 -0.984,2.072c-0.416,0.656 -0.899,1.291 -1.448,1.904c-0.549,0.614 -1.133,1.235 -1.752,1.864l-4.56,4.672c0.587,-0.181 1.168,-0.32 1.744,-0.416c0.576,-0.096 1.109,-0.144 1.6,-0.144l4.352,0Zm20.864,-7.184c-0,2.038 -0.219,3.803 -0.656,5.296c-0.437,1.494 -1.043,2.731 -1.816,3.712c-0.773,0.982 -1.691,1.712 -2.752,2.192c-1.061,0.48 -2.211,0.72 -3.448,0.72c-1.237,0 -2.381,-0.24 -3.432,-0.72c-1.051,-0.48 -1.96,-1.21 -2.728,-2.192c-0.768,-0.981 -1.368,-2.218 -1.8,-3.712c-0.432,-1.493 -0.648,-3.258 -0.648,-5.296c-0,-2.037 0.216,-3.802 0.648,-5.296c0.432,-1.493 1.032,-2.73 1.8,-3.712c0.768,-0.981 1.677,-1.709 2.728,-2.184c1.051,-0.474 2.195,-0.712 3.432,-0.712c1.237,0 2.387,0.238 3.448,0.712c1.061,0.475 1.979,1.203 2.752,2.184c0.773,0.982 1.379,2.219 1.816,3.712c0.437,1.494 0.656,3.259 0.656,5.296Zm-5.12,0c-0,-1.61 -0.101,-2.93 -0.304,-3.96c-0.203,-1.029 -0.472,-1.837 -0.808,-2.424c-0.336,-0.586 -0.717,-0.989 -1.144,-1.208c-0.427,-0.218 -0.859,-0.328 -1.296,-0.328c-0.437,0 -0.867,0.11 -1.288,0.328c-0.421,0.219 -0.795,0.622 -1.12,1.208c-0.325,0.587 -0.587,1.395 -0.784,2.424c-0.197,1.03 -0.296,2.35 -0.296,3.96c-0,1.622 0.099,2.944 0.296,3.968c0.197,1.024 0.459,1.832 0.784,2.424c0.325,0.592 0.699,0.998 1.12,1.216c0.421,0.219 0.851,0.328 1.288,0.328c0.437,0 0.869,-0.109 1.296,-0.328c0.427,-0.218 0.808,-0.624 1.144,-1.216c0.336,-0.592 0.605,-1.4 0.808,-2.424c0.203,-1.024 0.304,-2.346 0.304,-3.968Zm21.376,7.184c0.533,0 0.955,0.147 1.264,0.44c0.309,0.294 0.464,0.68 0.464,1.16l-0,2.88l-16.384,0l-0,-1.6c-0,-0.309 0.064,-0.64 0.192,-0.992c0.128,-0.352 0.352,-0.672 0.672,-0.96l6.72,-6.768c0.576,-0.576 1.077,-1.125 1.504,-1.648c0.427,-0.522 0.779,-1.037 1.056,-1.544c0.277,-0.506 0.485,-1.013 0.624,-1.52c0.139,-0.506 0.208,-1.042 0.208,-1.608c-0,-0.928 -0.221,-1.64 -0.664,-2.136c-0.443,-0.496 -1.117,-0.744 -2.024,-0.744c-0.736,0 -1.357,0.195 -1.864,0.584c-0.507,0.39 -0.856,0.872 -1.048,1.448c-0.224,0.587 -0.517,0.976 -0.88,1.168c-0.363,0.192 -0.88,0.235 -1.552,0.128l-2.624,-0.464c0.171,-1.162 0.499,-2.176 0.984,-3.04c0.485,-0.864 1.088,-1.584 1.808,-2.16c0.72,-0.576 1.544,-1.005 2.472,-1.288c0.928,-0.282 1.925,-0.424 2.992,-0.424c1.152,0 2.189,0.168 3.112,0.504c0.923,0.336 1.709,0.803 2.36,1.4c0.651,0.598 1.149,1.31 1.496,2.136c0.347,0.827 0.52,1.736 0.52,2.728c-0,0.854 -0.12,1.643 -0.36,2.368c-0.24,0.726 -0.568,1.416 -0.984,2.072c-0.416,0.656 -0.899,1.291 -1.448,1.904c-0.549,0.614 -1.133,1.235 -1.752,1.864l-4.56,4.672c0.587,-0.181 1.168,-0.32 1.744,-0.416c0.576,-0.096 1.109,-0.144 1.6,-0.144l4.352,0Zm4.352,-12.176c0.171,-1.162 0.499,-2.176 0.984,-3.04c0.485,-0.864 1.088,-1.584 1.808,-2.16c0.72,-0.576 1.544,-1.005 2.472,-1.288c0.928,-0.282 1.925,-0.424 2.992,-0.424c1.152,0 2.176,0.163 3.072,0.488c0.896,0.326 1.653,0.766 2.272,1.32c0.619,0.555 1.088,1.198 1.408,1.928c0.32,0.731 0.48,1.502 0.48,2.312c-0,0.736 -0.075,1.384 -0.224,1.944c-0.149,0.56 -0.371,1.046 -0.664,1.456c-0.293,0.411 -0.656,0.758 -1.088,1.04c-0.432,0.283 -0.925,0.52 -1.48,0.712c2.581,0.907 3.872,2.667 3.872,5.28c-0,1.238 -0.224,2.315 -0.672,3.232c-0.448,0.918 -1.048,1.68 -1.8,2.288c-0.752,0.608 -1.624,1.064 -2.616,1.368c-0.992,0.304 -2.027,0.456 -3.104,0.456c-1.109,0 -2.096,-0.12 -2.96,-0.36c-0.864,-0.24 -1.632,-0.613 -2.304,-1.12c-0.672,-0.506 -1.261,-1.154 -1.768,-1.944c-0.507,-0.789 -0.947,-1.728 -1.32,-2.816l2.208,-0.896c0.576,-0.224 1.109,-0.282 1.6,-0.176c0.491,0.107 0.843,0.352 1.056,0.736c0.48,0.886 0.989,1.528 1.528,1.928c0.539,0.4 1.171,0.6 1.896,0.6c0.555,0 1.037,-0.093 1.448,-0.28c0.411,-0.186 0.752,-0.426 1.024,-0.72c0.272,-0.293 0.477,-0.626 0.616,-1c0.139,-0.373 0.208,-0.752 0.208,-1.136c-0,-0.501 -0.035,-0.952 -0.104,-1.352c-0.069,-0.4 -0.264,-0.744 -0.584,-1.032c-0.32,-0.288 -0.803,-0.509 -1.448,-0.664c-0.645,-0.154 -1.544,-0.232 -2.696,-0.232l-0,-3.424c0.971,0 1.755,-0.074 2.352,-0.224c0.597,-0.149 1.059,-0.354 1.384,-0.616c0.325,-0.261 0.541,-0.578 0.648,-0.952c0.107,-0.373 0.16,-0.784 0.16,-1.232c-0,-0.917 -0.221,-1.624 -0.664,-2.12c-0.443,-0.496 -1.117,-0.744 -2.024,-0.744c-0.736,0 -1.357,0.195 -1.864,0.584c-0.507,0.39 -0.856,0.872 -1.048,1.448c-0.224,0.587 -0.517,0.976 -0.88,1.168c-0.363,0.192 -0.88,0.235 -1.552,0.128l-2.624,-0.464Zm-201.97,266.484c-0.19,0.304 -0.389,0.532 -0.598,0.684c-0.209,0.152 -0.479,0.228 -0.808,0.228c-0.291,0 -0.605,-0.092 -0.94,-0.275c-0.336,-0.184 -0.716,-0.39 -1.14,-0.618c-0.425,-0.228 -0.909,-0.434 -1.454,-0.617c-0.545,-0.184 -1.165,-0.276 -1.862,-0.276c-1.203,0 -2.099,0.257 -2.688,0.77c-0.589,0.513 -0.884,1.206 -0.884,2.08c0,0.558 0.177,1.02 0.532,1.387c0.355,0.368 0.82,0.684 1.397,0.95c0.576,0.266 1.235,0.51 1.976,0.732c0.741,0.221 1.497,0.468 2.27,0.741c0.773,0.272 1.53,0.592 2.271,0.959c0.741,0.368 1.399,0.836 1.976,1.406c0.576,0.57 1.041,1.264 1.396,2.081c0.355,0.817 0.532,1.802 0.532,2.954c0,1.28 -0.222,2.477 -0.665,3.591c-0.443,1.115 -1.086,2.087 -1.928,2.917c-0.843,0.829 -1.881,1.482 -3.116,1.957c-1.235,0.475 -2.638,0.712 -4.209,0.712c-0.861,0 -1.738,-0.088 -2.631,-0.266c-0.893,-0.177 -1.758,-0.427 -2.594,-0.75c-0.836,-0.323 -1.621,-0.706 -2.356,-1.15c-0.735,-0.443 -1.374,-0.937 -1.919,-1.482l1.9,-3.002c0.152,-0.215 0.352,-0.396 0.599,-0.541c0.247,-0.146 0.516,-0.219 0.807,-0.219c0.38,0 0.763,0.121 1.15,0.361c0.386,0.241 0.823,0.507 1.311,0.798c0.487,0.292 1.048,0.558 1.681,0.798c0.633,0.241 1.381,0.361 2.242,0.361c1.165,0 2.071,-0.256 2.717,-0.769c0.646,-0.513 0.969,-1.327 0.969,-2.442c0,-0.646 -0.177,-1.171 -0.532,-1.577c-0.355,-0.405 -0.82,-0.741 -1.396,-1.007c-0.577,-0.266 -1.232,-0.5 -1.967,-0.703c-0.735,-0.202 -1.488,-0.427 -2.261,-0.674c-0.773,-0.247 -1.526,-0.551 -2.261,-0.912c-0.735,-0.361 -1.39,-0.836 -1.966,-1.425c-0.577,-0.589 -1.042,-1.324 -1.397,-2.204c-0.355,-0.881 -0.532,-1.967 -0.532,-3.259c0,-1.038 0.209,-2.052 0.627,-3.04c0.418,-0.988 1.032,-1.868 1.843,-2.641c0.811,-0.772 1.805,-1.39 2.983,-1.852c1.178,-0.463 2.527,-0.694 4.047,-0.694c0.849,0 1.675,0.067 2.48,0.2c0.804,0.133 1.567,0.329 2.289,0.589c0.722,0.259 1.397,0.57 2.024,0.931c0.627,0.361 1.187,0.769 1.681,1.225l-1.596,2.983Zm24.415,14.896c0.152,0 0.304,0.029 0.456,0.086c0.152,0.057 0.298,0.155 0.437,0.294l2.546,2.679c-1.115,1.457 -2.511,2.556 -4.189,3.297c-1.679,0.741 -3.664,1.111 -5.957,1.111c-2.103,0 -3.987,-0.358 -5.652,-1.073c-1.666,-0.716 -3.078,-1.704 -4.237,-2.964c-1.159,-1.261 -2.049,-2.755 -2.67,-4.484c-0.621,-1.729 -0.931,-3.607 -0.931,-5.634c0,-2.064 0.336,-3.961 1.007,-5.69c0.671,-1.729 1.615,-3.221 2.831,-4.475c1.216,-1.254 2.673,-2.229 4.37,-2.926c1.697,-0.696 3.566,-1.045 5.605,-1.045c1.039,0 2.017,0.092 2.936,0.276c0.918,0.183 1.776,0.437 2.574,0.76c0.798,0.323 1.533,0.712 2.204,1.168c0.671,0.456 1.267,0.95 1.786,1.482l-2.166,2.907c-0.139,0.178 -0.304,0.339 -0.494,0.485c-0.19,0.145 -0.456,0.218 -0.798,0.218c-0.228,0 -0.443,-0.05 -0.646,-0.152c-0.203,-0.101 -0.418,-0.225 -0.646,-0.37c-0.228,-0.146 -0.478,-0.304 -0.75,-0.475c-0.273,-0.171 -0.596,-0.33 -0.969,-0.475c-0.374,-0.146 -0.811,-0.269 -1.311,-0.371c-0.501,-0.101 -1.087,-0.152 -1.758,-0.152c-1.064,0 -2.036,0.197 -2.916,0.589c-0.881,0.393 -1.641,0.966 -2.28,1.72c-0.64,0.753 -1.134,1.678 -1.482,2.774c-0.349,1.095 -0.523,2.346 -0.523,3.752c0,1.419 0.193,2.679 0.58,3.781c0.386,1.102 0.912,2.03 1.577,2.784c0.665,0.753 1.44,1.327 2.327,1.719c0.887,0.393 1.837,0.589 2.85,0.589c0.583,0 1.115,-0.028 1.596,-0.085c0.481,-0.057 0.931,-0.152 1.349,-0.285c0.418,-0.133 0.811,-0.311 1.178,-0.532c0.367,-0.222 0.741,-0.504 1.121,-0.846c0.152,-0.126 0.317,-0.231 0.494,-0.313c0.177,-0.083 0.361,-0.124 0.551,-0.124Zm30.419,-20.52l0,27.683l-6.46,0l0,-11.704l-11.248,0l0,11.704l-6.46,0l0,-27.683l6.46,0l0,11.571l11.248,0l0,-11.571l6.46,0Zm43.073,0l-8.55,27.683l-5.814,0l-5.206,-17.157c-0.101,-0.266 -0.196,-0.56 -0.285,-0.883c-0.089,-0.323 -0.177,-0.662 -0.266,-1.017c-0.089,0.355 -0.177,0.694 -0.266,1.017c-0.089,0.323 -0.184,0.617 -0.285,0.883l-5.282,17.157l-5.814,0l-8.55,-27.683l5.396,0c0.557,0 1.023,0.127 1.397,0.38c0.373,0.254 0.617,0.589 0.731,1.007l3.8,14.44c0.114,0.456 0.228,0.953 0.342,1.492c0.114,0.538 0.228,1.099 0.342,1.681c0.228,-1.19 0.507,-2.248 0.836,-3.173l4.484,-14.44c0.114,-0.354 0.358,-0.674 0.732,-0.959c0.373,-0.285 0.826,-0.428 1.358,-0.428l1.9,0c0.557,0 1.007,0.13 1.349,0.39c0.342,0.259 0.602,0.592 0.779,0.997l4.446,14.44c0.329,0.887 0.608,1.894 0.836,3.021c0.101,-0.57 0.206,-1.105 0.314,-1.605c0.107,-0.501 0.218,-0.972 0.332,-1.416l3.8,-14.44c0.101,-0.367 0.342,-0.69 0.722,-0.969c0.38,-0.278 0.836,-0.418 1.368,-0.418l5.054,0Zm25.612,27.683l-4.978,0c-0.557,0 -1.007,-0.13 -1.349,-0.389c-0.342,-0.26 -0.602,-0.592 -0.779,-0.998l-1.634,-4.826l-10.526,0l-1.634,4.826c-0.139,0.355 -0.389,0.675 -0.75,0.96c-0.361,0.285 -0.808,0.427 -1.34,0.427l-5.016,0l10.716,-27.683l6.574,0l10.716,27.683Zm-10.203,-10.583l-2.565,-7.581c-0.19,-0.481 -0.393,-1.048 -0.608,-1.7c-0.215,-0.653 -0.431,-1.359 -0.646,-2.119c-0.19,0.773 -0.393,1.489 -0.608,2.147c-0.215,0.659 -0.418,1.229 -0.608,1.71l-2.546,7.543l7.581,0Zm36.556,-17.1l0,27.683l-3.344,0c-0.494,0 -0.909,-0.079 -1.244,-0.237c-0.336,-0.159 -0.669,-0.434 -0.998,-0.827l-13.053,-16.511c0.051,0.494 0.086,0.972 0.105,1.435c0.019,0.462 0.028,0.896 0.028,1.301l0,14.839l-5.662,0l0,-27.683l3.382,0c0.279,0 0.513,0.013 0.703,0.038c0.19,0.026 0.361,0.073 0.513,0.143c0.152,0.069 0.298,0.168 0.437,0.294c0.139,0.127 0.298,0.298 0.475,0.513l13.167,16.625c-0.063,-0.532 -0.108,-1.048 -0.133,-1.548c-0.025,-0.501 -0.038,-0.972 -0.038,-1.416l0,-14.649l5.662,0Zm18.658,13.338l9.842,0l0,11.685c-1.419,1.039 -2.929,1.793 -4.531,2.261c-1.603,0.469 -3.278,0.703 -5.026,0.703c-2.28,0 -4.354,-0.358 -6.222,-1.073c-1.869,-0.716 -3.468,-1.704 -4.798,-2.964c-1.33,-1.261 -2.356,-2.755 -3.078,-4.484c-0.722,-1.729 -1.083,-3.607 -1.083,-5.634c0,-2.064 0.342,-3.961 1.026,-5.69c0.684,-1.729 1.663,-3.221 2.936,-4.475c1.273,-1.254 2.812,-2.229 4.617,-2.926c1.805,-0.696 3.822,-1.045 6.051,-1.045c1.153,0 2.236,0.095 3.249,0.285c1.013,0.19 1.948,0.45 2.803,0.779c0.855,0.33 1.637,0.722 2.346,1.178c0.709,0.456 1.343,0.95 1.9,1.482l-1.862,2.831c-0.291,0.444 -0.668,0.716 -1.13,0.817c-0.463,0.102 -0.96,-0.012 -1.492,-0.342c-0.507,-0.304 -0.985,-0.567 -1.434,-0.788c-0.45,-0.222 -0.909,-0.402 -1.378,-0.542c-0.469,-0.139 -0.963,-0.24 -1.482,-0.304c-0.519,-0.063 -1.102,-0.095 -1.748,-0.095c-1.203,0 -2.286,0.212 -3.249,0.637c-0.963,0.424 -1.783,1.023 -2.46,1.795c-0.678,0.773 -1.201,1.701 -1.568,2.784c-0.367,1.083 -0.551,2.289 -0.551,3.619c0,1.47 0.203,2.774 0.608,3.914c0.405,1.14 0.979,2.103 1.72,2.888c0.741,0.786 1.627,1.384 2.66,1.796c1.032,0.411 2.175,0.617 3.429,0.617c0.773,0 1.473,-0.076 2.1,-0.228c0.627,-0.152 1.238,-0.354 1.833,-0.608l0,-4.199l-2.736,0c-0.405,0 -0.722,-0.107 -0.95,-0.323c-0.228,-0.215 -0.342,-0.487 -0.342,-0.817l0,-3.534Zm38.57,14.345l-4.978,0c-0.557,0 -1.007,-0.13 -1.349,-0.389c-0.342,-0.26 -0.602,-0.592 -0.779,-0.998l-1.634,-4.826l-10.526,0l-1.634,4.826c-0.139,0.355 -0.389,0.675 -0.75,0.96c-0.361,0.285 -0.808,0.427 -1.34,0.427l-5.016,0l10.716,-27.683l6.574,0l10.716,27.683Zm-10.203,-10.583l-2.565,-7.581c-0.19,-0.481 -0.393,-1.048 -0.608,-1.7c-0.215,-0.653 -0.431,-1.359 -0.646,-2.119c-0.19,0.773 -0.393,1.489 -0.608,2.147c-0.215,0.659 -0.418,1.229 -0.608,1.71l-2.546,7.543l7.581,0Zm23.218,5.51c0.861,0 1.631,-0.142 2.309,-0.427c0.677,-0.285 1.25,-0.694 1.719,-1.226c0.469,-0.532 0.827,-1.181 1.074,-1.947c0.247,-0.767 0.37,-1.637 0.37,-2.613l0,-16.397l6.422,0l0,16.397c0,1.698 -0.275,3.256 -0.826,4.674c-0.551,1.419 -1.34,2.641 -2.366,3.667c-1.026,1.026 -2.274,1.824 -3.743,2.394c-1.469,0.57 -3.122,0.855 -4.959,0.855c-1.849,0 -3.509,-0.285 -4.978,-0.855c-1.469,-0.57 -2.717,-1.368 -3.743,-2.394c-1.026,-1.026 -1.811,-2.248 -2.356,-3.667c-0.545,-1.418 -0.817,-2.976 -0.817,-4.674l0,-16.397l6.422,0l0,16.378c0,0.976 0.124,1.846 0.371,2.613c0.247,0.766 0.604,1.418 1.073,1.957c0.469,0.538 1.042,0.95 1.72,1.235c0.677,0.285 1.447,0.427 2.308,0.427Zm-166.703,21.117l5.698,-0l0,6.765c-0.821,0.601 -1.696,1.038 -2.623,1.309c-0.928,0.271 -1.898,0.407 -2.91,0.407c-1.32,-0 -2.521,-0.207 -3.602,-0.622c-1.082,-0.414 -2.008,-0.986 -2.778,-1.716c-0.77,-0.729 -1.364,-1.595 -1.782,-2.596c-0.418,-1.001 -0.627,-2.088 -0.627,-3.261c0,-1.195 0.198,-2.294 0.594,-3.295c0.396,-1.001 0.963,-1.864 1.7,-2.59c0.737,-0.726 1.628,-1.291 2.673,-1.694c1.045,-0.403 2.212,-0.605 3.503,-0.605c0.667,-0 1.294,0.055 1.881,0.165c0.587,0.11 1.128,0.26 1.623,0.451c0.495,0.191 0.947,0.418 1.358,0.682c0.411,0.264 0.777,0.55 1.1,0.858l-1.078,1.639c-0.169,0.257 -0.387,0.414 -0.654,0.473c-0.268,0.059 -0.556,-0.007 -0.864,-0.198c-0.293,-0.176 -0.57,-0.328 -0.83,-0.457c-0.261,-0.128 -0.527,-0.232 -0.798,-0.313c-0.271,-0.081 -0.557,-0.139 -0.858,-0.176c-0.301,-0.037 -0.638,-0.055 -1.012,-0.055c-0.697,-0 -1.324,0.123 -1.881,0.368c-0.557,0.246 -1.032,0.593 -1.424,1.04c-0.393,0.447 -0.695,0.984 -0.908,1.611c-0.213,0.627 -0.319,1.326 -0.319,2.096c0,0.851 0.117,1.606 0.352,2.266c0.235,0.66 0.567,1.217 0.996,1.672c0.429,0.455 0.942,0.801 1.54,1.039c0.597,0.239 1.259,0.358 1.985,0.358c0.447,-0 0.853,-0.044 1.216,-0.132c0.363,-0.088 0.716,-0.205 1.061,-0.352l0,-2.431l-1.584,-0c-0.235,-0 -0.418,-0.062 -0.55,-0.187c-0.132,-0.125 -0.198,-0.282 -0.198,-0.473l0,-2.046Zm14.135,-4.862l0,3.74l5.038,-0l0,2.75l-5.038,-0l0,3.817l6.578,-0l0,2.86l-10.318,-0l0,-16.027l10.318,-0l0,2.86l-6.578,-0Zm24.178,13.167l-3.366,-0c-0.623,-0 -1.071,-0.235 -1.342,-0.704l-2.662,-4.653c-0.125,-0.198 -0.264,-0.343 -0.418,-0.435c-0.154,-0.091 -0.374,-0.137 -0.66,-0.137l-0.946,-0l0,5.929l-3.718,-0l0,-16.027l5.214,-0c1.159,-0 2.147,0.119 2.965,0.357c0.817,0.239 1.485,0.571 2.002,0.996c0.517,0.425 0.892,0.928 1.127,1.507c0.235,0.579 0.352,1.21 0.352,1.892c0,0.521 -0.07,1.012 -0.209,1.474c-0.139,0.462 -0.345,0.889 -0.616,1.281c-0.271,0.393 -0.607,0.743 -1.006,1.051c-0.4,0.308 -0.86,0.561 -1.381,0.759c0.242,0.125 0.469,0.28 0.682,0.467c0.213,0.187 0.403,0.409 0.572,0.666l3.41,5.577Zm-7.898,-8.492c0.506,-0 0.937,-0.064 1.293,-0.193c0.355,-0.128 0.647,-0.306 0.874,-0.533c0.227,-0.227 0.392,-0.493 0.495,-0.798c0.103,-0.304 0.154,-0.632 0.154,-0.984c0,-0.704 -0.229,-1.254 -0.687,-1.65c-0.459,-0.396 -1.168,-0.594 -2.129,-0.594l-1.496,-0l0,4.752l1.496,-0Zm29.469,-7.535l0,16.027l-3.278,-0l0,-9.218c0,-0.213 0.006,-0.444 0.017,-0.693c0.011,-0.249 0.031,-0.502 0.06,-0.759l-4.257,8.239c-0.132,0.257 -0.31,0.451 -0.533,0.583c-0.224,0.132 -0.479,0.198 -0.765,0.198l-0.506,-0c-0.286,-0 -0.541,-0.066 -0.764,-0.198c-0.224,-0.132 -0.402,-0.326 -0.534,-0.583l-4.257,-8.261c0.022,0.264 0.04,0.522 0.055,0.775c0.015,0.253 0.022,0.486 0.022,0.699l0,9.218l-3.278,-0l0,-16.027l2.838,-0c0.161,-0 0.303,0.004 0.424,0.011c0.121,0.007 0.229,0.029 0.324,0.066c0.095,0.037 0.182,0.093 0.259,0.17c0.077,0.077 0.152,0.186 0.225,0.325l4.125,8.129c0.147,0.279 0.288,0.568 0.424,0.869c0.135,0.301 0.265,0.609 0.39,0.924c0.125,-0.323 0.255,-0.638 0.391,-0.946c0.135,-0.308 0.28,-0.601 0.434,-0.88l4.114,-8.096c0.073,-0.139 0.149,-0.248 0.226,-0.325c0.077,-0.077 0.163,-0.133 0.258,-0.17c0.095,-0.037 0.204,-0.059 0.325,-0.066c0.121,-0.007 0.262,-0.011 0.423,-0.011l2.838,-0Zm19.679,16.027l-2.882,-0c-0.323,-0 -0.583,-0.075 -0.781,-0.226c-0.198,-0.15 -0.348,-0.342 -0.451,-0.577l-0.946,-2.794l-6.094,-0l-0.946,2.794c-0.081,0.205 -0.225,0.39 -0.434,0.555c-0.209,0.165 -0.468,0.248 -0.776,0.248l-2.904,-0l6.204,-16.027l3.806,-0l6.204,16.027Zm-5.907,-6.127l-1.485,-4.389c-0.11,-0.279 -0.227,-0.607 -0.352,-0.985c-0.125,-0.377 -0.249,-0.786 -0.374,-1.226c-0.11,0.447 -0.227,0.862 -0.352,1.243c-0.125,0.381 -0.242,0.711 -0.352,0.99l-1.474,4.367l4.389,-0Zm23.364,-9.9l0,16.027l-1.936,-0c-0.286,-0 -0.526,-0.046 -0.72,-0.138c-0.195,-0.091 -0.387,-0.251 -0.578,-0.478l-7.557,-9.559c0.029,0.286 0.05,0.563 0.061,0.83c0.011,0.268 0.016,0.519 0.016,0.754l0,8.591l-3.278,-0l0,-16.027l1.958,-0c0.161,-0 0.297,0.007 0.407,0.022c0.11,0.015 0.209,0.042 0.297,0.082c0.088,0.041 0.172,0.098 0.253,0.171c0.081,0.073 0.172,0.172 0.275,0.297l7.623,9.625c-0.037,-0.308 -0.062,-0.607 -0.077,-0.897c-0.015,-0.289 -0.022,-0.562 -0.022,-0.819l0,-8.481l3.278,-0Zm12.98,9.933l0,6.094l-3.718,-0l0,-6.094l-5.808,-9.933l3.278,-0c0.323,-0 0.578,0.075 0.765,0.225c0.187,0.151 0.342,0.343 0.467,0.578l2.266,4.664c0.191,0.367 0.363,0.709 0.517,1.028c0.154,0.319 0.29,0.633 0.407,0.941c0.11,-0.315 0.237,-0.633 0.38,-0.952c0.143,-0.319 0.309,-0.658 0.5,-1.017l2.244,-4.664c0.051,-0.095 0.114,-0.191 0.187,-0.286c0.073,-0.095 0.16,-0.182 0.259,-0.259c0.099,-0.077 0.212,-0.139 0.341,-0.187c0.128,-0.047 0.269,-0.071 0.423,-0.071l3.3,-0l-5.808,9.933Zm-187.354,-334.69c1.286,-1.003 3.144,-0.774 4.148,0.512c1.003,1.286 0.773,3.144 -0.512,4.147c-6.558,5.117 -12.828,10.64 -18.725,16.536c-20.164,20.164 -35.96,44.696 -46.078,70.152c-10.118,25.452 -14.558,51.828 -14.527,76.162l0,0.004c-0.027,21.006 3.28,43.536 10.694,65.679c0.518,1.547 -0.318,3.223 -1.864,3.74c-1.547,0.518 -3.223,-0.317 -3.74,-1.863c-7.626,-22.777 -11.027,-45.95 -11,-67.556c-0.032,-25.031 4.537,-52.165 14.945,-78.349c10.407,-26.18 26.653,-51.41 47.391,-72.148c6.068,-6.068 12.52,-11.751 19.268,-17.016Zm-47.373,283.147c-0.886,-1.369 -0.494,-3.2 0.875,-4.086c1.369,-0.886 3.2,-0.494 4.086,0.875c7.85,12.13 17.016,23.58 27.323,33.888c20.164,20.164 44.697,35.959 70.152,46.078c25.452,10.118 51.83,14.558 76.164,14.527c24.331,0.031 50.709,-4.409 76.161,-14.527c25.455,-10.119 49.988,-25.914 70.152,-46.078c11.524,-11.524 21.62,-24.476 30.046,-38.21c0.853,-1.39 2.674,-1.826 4.064,-0.973c1.39,0.852 1.827,2.673 0.974,4.064c-8.667,14.126 -19.053,27.445 -30.905,39.297c-20.738,20.738 -45.968,36.985 -72.148,47.392c-26.183,10.408 -53.316,14.976 -78.345,14.945c-25.03,0.031 -52.163,-4.537 -78.346,-14.945c-26.18,-10.407 -51.41,-26.654 -72.148,-47.392c-10.602,-10.602 -20.031,-22.378 -28.105,-34.855Zm383.804,-59.154c-0.433,1.572 -2.06,2.498 -3.633,2.066c-1.572,-0.433 -2.498,-2.06 -2.066,-3.633c5.124,-18.635 7.436,-37.295 7.413,-54.917l0,-0.003c0.031,-24.331 -4.409,-50.707 -14.527,-76.159c-10.118,-25.456 -25.914,-49.988 -46.078,-70.152c-20.164,-20.164 -44.697,-35.96 -70.152,-46.079c-25.452,-10.117 -51.83,-14.557 -76.164,-14.526c-13.928,-0.018 -28.528,1.43 -43.238,4.568c-1.595,0.341 -3.167,-0.678 -3.507,-2.273c-0.34,-1.595 0.678,-3.166 2.273,-3.506c15.132,-3.229 30.147,-4.717 44.473,-4.699c25.03,-0.032 52.163,4.537 78.346,14.945c26.18,10.406 51.409,26.653 72.148,47.391c20.738,20.738 36.985,45.968 47.391,72.148c10.408,26.183 14.977,53.317 14.945,78.347c0.023,18.121 -2.354,37.315 -7.624,56.482Zm-45.71,-27.804c1.772,-2.95 3.032,-6.152 3.777,-9.606c0.077,-0.421 0.326,-0.836 0.688,-1.128c0.355,-0.287 0.802,-0.443 1.222,-0.437c0.019,0.001 0.039,0.001 0.058,0.001c0.405,0.006 0.832,0.161 1.172,0.436c0.364,0.294 0.615,0.712 0.69,1.136l0.006,0.028c2.018,9.307 7.776,16.773 17.228,22.435c0.364,0.204 0.671,0.562 0.834,0.985c0.162,0.421 0.175,0.89 0.048,1.272c-0.114,0.396 -0.385,0.773 -0.751,1.028c-0.374,0.262 -0.833,0.387 -1.247,0.351c-4.126,-0.225 -7.597,-0.903 -10.416,-2.012c4.554,6.078 10.285,11.421 17.189,16.035c0.362,0.227 0.656,0.61 0.795,1.053c0.136,0.434 0.117,0.907 -0.042,1.295c-0.007,0.017 -0.014,0.035 -0.021,0.052c-0.154,0.375 -0.453,0.716 -0.833,0.932c-0.406,0.232 -0.887,0.312 -1.301,0.23c-5.418,-0.877 -10.028,-2.119 -13.835,-3.714c6.837,7.229 15.431,13.769 25.775,19.627c0.387,0.202 0.715,0.576 0.883,1.022c0.165,0.438 0.169,0.925 0.021,1.329c-0.134,0.409 -0.439,0.79 -0.84,1.032c-0.412,0.247 -0.904,0.338 -1.316,0.257c-8.83,-1.36 -16.134,-3.392 -21.917,-6.079c8.461,10.849 18.505,19.986 30.13,27.415c0.55,0.351 0.711,1.083 0.36,1.632c-0.352,0.55 -1.083,0.711 -1.633,0.36c-12.344,-7.888 -22.94,-17.668 -31.786,-29.338c-0.267,-0.33 -0.419,-0.785 -0.408,-1.246c0.012,-0.451 0.179,-0.888 0.45,-1.203c0.012,-0.014 0.024,-0.028 0.036,-0.043c0.263,-0.304 0.65,-0.532 1.076,-0.619c0.453,-0.092 0.93,-0.021 1.323,0.196c5.357,2.726 12.203,4.799 20.532,6.232c-10.407,-6.106 -19,-12.924 -25.786,-20.447c-0.301,-0.312 -0.493,-0.766 -0.514,-1.239c-0.021,-0.463 0.124,-0.924 0.386,-1.26c0.013,-0.017 0.026,-0.034 0.039,-0.05c0.252,-0.322 0.635,-0.569 1.064,-0.673c0.462,-0.112 0.954,-0.053 1.354,0.158c3.545,1.711 7.933,3.042 13.159,4.003c-6.913,-4.847 -12.627,-10.442 -17.143,-16.78c-0.252,-0.332 -0.391,-0.782 -0.372,-1.233c0.019,-0.448 0.191,-0.881 0.458,-1.181c0.259,-0.317 0.654,-0.555 1.088,-0.647c0.443,-0.094 0.909,-0.032 1.294,0.17c2.453,1.182 5.539,1.928 9.253,2.258c-8.717,-5.589 -14.217,-12.76 -16.536,-21.487c-2.318,8.727 -7.819,15.898 -16.536,21.487c3.725,-0.331 6.818,-1.08 9.275,-2.269c0.368,-0.191 0.832,-0.252 1.273,-0.159c0.439,0.093 0.837,0.335 1.088,0.648c0.27,0.308 0.439,0.737 0.457,1.18c0.019,0.453 -0.12,0.904 -0.371,1.233c-4.439,6.229 -10.033,11.74 -16.786,16.529c1.441,1.72 2.983,3.354 4.624,4.902c0.352,0.312 0.604,0.778 0.685,1.282c0.08,0.5 -0.012,1.019 -0.238,1.412c-0.215,0.411 -0.596,0.766 -1.054,0.97c-0.469,0.208 -1.001,0.249 -1.452,0.124c-2.691,-0.657 -5.081,-1.504 -7.171,-2.533c5.055,7.157 11.462,13.58 19.216,19.275c0.598,0.439 0.727,1.282 0.288,1.88c-0.44,0.598 -1.282,0.727 -1.881,0.288c-8.58,-6.301 -15.555,-13.473 -20.933,-21.51c-0.281,-0.393 -0.423,-0.921 -0.379,-1.444c0.043,-0.512 0.262,-0.998 0.592,-1.337c0.015,-0.015 0.03,-0.03 0.045,-0.046c0.319,-0.329 0.775,-0.561 1.265,-0.63c0.522,-0.073 1.059,0.04 1.49,0.313c1.838,1.078 3.976,1.969 6.411,2.678c-4.275,-4.272 -7.858,-9.14 -10.749,-14.606c-0.439,-0.794 -0.248,-2.025 0.398,-2.636c0.639,-0.641 1.868,-0.807 2.65,-0.355l0.042,0.023c1.179,0.636 2.55,1.089 4.11,1.367c-5.078,-4.68 -8.502,-10.482 -10.266,-17.412c-1.764,6.93 -5.188,12.732 -10.266,17.412c1.583,-0.282 2.972,-0.744 4.163,-1.396c0.783,-0.445 2.003,-0.278 2.639,0.36c0.018,0.018 0.035,0.036 0.053,0.054c0.607,0.644 0.77,1.826 0.345,2.583c-2.891,5.466 -6.474,10.334 -10.749,14.606c2.448,-0.713 4.596,-1.609 6.441,-2.695c0.407,-0.257 0.941,-0.369 1.46,-0.296c0.508,0.072 0.981,0.318 1.301,0.667c0.015,0.016 0.029,0.031 0.043,0.047c0.31,0.337 0.516,0.806 0.558,1.299c0.044,0.525 -0.1,1.056 -0.365,1.422c-3.718,5.562 -8.203,10.71 -13.454,15.443c0.682,0.724 1.387,1.429 2.114,2.114c0.309,0.275 0.53,0.684 0.601,1.126c0.071,0.439 -0.011,0.895 -0.209,1.241c-0.189,0.361 -0.524,0.673 -0.927,0.852c-0.412,0.183 -0.879,0.219 -1.275,0.109c-2.365,-0.578 -4.464,-1.321 -6.301,-2.225c4.441,6.288 10.071,11.933 16.885,16.936c0.525,0.386 0.639,1.127 0.253,1.652c-0.386,0.526 -1.127,0.64 -1.653,0.253c-7.539,-5.536 -13.669,-11.838 -18.394,-18.901c-0.246,-0.345 -0.371,-0.809 -0.333,-1.268c0.038,-0.45 0.231,-0.877 0.521,-1.176c0.013,-0.013 0.026,-0.026 0.039,-0.04c0.281,-0.288 0.682,-0.492 1.112,-0.553c0.458,-0.065 0.93,0.035 1.309,0.275c1.615,0.948 3.493,1.73 5.633,2.353c-3.756,-3.754 -6.904,-8.031 -9.445,-12.833c-0.386,-0.698 -0.218,-1.782 0.35,-2.318c0.561,-0.563 1.641,-0.709 2.328,-0.311l0.037,0.02c1.036,0.559 2.241,0.956 3.612,1.201c-4.462,-4.112 -7.471,-9.211 -9.021,-15.3c-1.551,6.09 -4.56,11.189 -9.022,15.301c1.379,-0.244 2.591,-0.639 3.629,-1.192c0.691,-0.4 1.778,-0.256 2.327,0.301c0.578,0.553 0.743,1.639 0.356,2.326c-2.538,4.792 -5.682,9.06 -9.431,12.808c2.109,-0.61 3.972,-1.365 5.585,-2.27c0.353,-0.225 0.813,-0.327 1.263,-0.272c0.453,0.056 0.876,0.27 1.164,0.577c0.013,0.014 0.026,0.028 0.039,0.042c0.277,0.295 0.462,0.709 0.501,1.145c0.041,0.467 -0.086,0.939 -0.323,1.263c-3.512,5.234 -7.797,10.049 -12.856,14.445c2.854,2.88 6.017,5.593 9.485,8.14c0.526,0.387 0.64,1.127 0.253,1.653c-0.386,0.526 -1.126,0.639 -1.652,0.253c-7.539,-5.537 -13.669,-11.839 -18.394,-18.901c-0.247,-0.346 -0.372,-0.809 -0.333,-1.269c0.038,-0.45 0.231,-0.877 0.521,-1.175c0.012,-0.013 0.025,-0.026 0.038,-0.04c0.281,-0.289 0.682,-0.493 1.112,-0.553c0.459,-0.065 0.931,0.035 1.309,0.275c1.616,0.947 3.494,1.73 5.633,2.353c-3.755,-3.754 -6.904,-8.032 -9.444,-12.834c-0.384,-0.693 -0.221,-1.766 0.349,-2.318c0.016,-0.015 0.033,-0.03 0.049,-0.046c0.573,-0.524 1.612,-0.652 2.279,-0.265l0.038,0.02c1.036,0.559 2.241,0.957 3.611,1.202c-4.462,-4.113 -7.471,-9.212 -9.021,-15.301c-1.55,6.089 -4.558,11.188 -9.02,15.301c1.391,-0.249 2.611,-0.655 3.658,-1.228c0.687,-0.39 1.759,-0.244 2.318,0.317c0.016,0.016 0.031,0.032 0.047,0.048c0.534,0.565 0.677,1.604 0.303,2.27c-2.54,4.802 -5.689,9.08 -9.445,12.834c2.151,-0.627 4.038,-1.415 5.66,-2.369c0.358,-0.226 0.827,-0.324 1.282,-0.259c0.447,0.063 0.862,0.279 1.144,0.585c0.012,0.014 0.025,0.027 0.037,0.041c0.273,0.296 0.454,0.708 0.491,1.142c0.039,0.462 -0.088,0.928 -0.32,1.249c-2.626,3.928 -5.686,7.62 -9.181,11.076c2.282,2.451 4.697,4.815 7.243,7.092c0.541,0.485 0.588,1.318 0.103,1.86c-0.484,0.542 -1.318,0.588 -1.859,0.104c-9.665,-8.643 -17.473,-18.511 -23.427,-29.603c-0.214,-0.371 -0.324,-0.87 -0.283,-1.36c0.042,-0.504 0.241,-0.979 0.504,-1.286c0.665,-0.85 2.032,-0.986 2.826,-0.32l0.03,0.022c2.426,1.87 5.365,3.351 8.811,4.454c-5.31,-6.175 -9.692,-13.327 -13.141,-21.457c-0.171,-0.376 -0.238,-0.855 -0.172,-1.314c0.068,-0.476 0.278,-0.915 0.552,-1.215c0.008,-0.01 0.017,-0.019 0.025,-0.028c0.678,-0.753 1.938,-0.856 2.703,-0.244l0.028,0.02c1.647,1.217 3.668,2 6.054,2.373c-6.236,-6.531 -10.358,-14.814 -12.342,-24.861c-1.984,10.047 -6.106,18.33 -12.341,24.861c2.406,-0.377 4.44,-1.17 6.095,-2.403c0.777,-0.609 2.051,-0.492 2.717,0.284c0.015,0.018 0.03,0.035 0.045,0.053c0.25,0.297 0.44,0.712 0.505,1.16c0.066,0.46 -0.001,0.941 -0.172,1.314c-3.449,8.13 -7.831,15.282 -13.142,21.457c3.466,-1.109 6.418,-2.6 8.849,-4.483c0.801,-0.662 2.174,-0.518 2.819,0.327c0.269,0.323 0.463,0.79 0.504,1.286c0.041,0.493 -0.071,0.995 -0.283,1.36c-5.954,11.092 -13.763,20.96 -23.427,29.603c-0.542,0.484 -1.375,0.438 -1.86,-0.104c-0.484,-0.542 -0.438,-1.375 0.104,-1.86c8.958,-8.011 16.283,-17.1 21.975,-27.267c-2.675,1.734 -5.829,3.111 -9.466,4.121c-0.864,0.255 -2.035,-0.264 -2.432,-1.223c-0.008,-0.019 -0.016,-0.038 -0.024,-0.058c-0.15,-0.365 -0.207,-0.813 -0.145,-1.245c0.07,-0.492 0.29,-0.943 0.593,-1.264c2.024,-2.275 3.914,-4.692 5.668,-7.251c-4.137,-3.281 -7.183,-6.527 -9.039,-9.79c-0.517,-0.909 -0.205,-1.775 -0.205,-1.775l0.87,-1.351l0.878,-0.407l0.633,-0.148l2.251,-0.016c-4.67,-4.154 -8.056,-9.425 -10.145,-15.82c-2.494,7.631 -6.83,13.661 -12.995,18.102c-0.511,0.368 -1.201,0.368 -1.713,-0c-6.164,-4.441 -10.501,-10.471 -12.994,-18.102c-2.493,7.631 -6.83,13.661 -12.994,18.102c-0.425,0.306 -0.982,0.362 -1.459,0.147c-7.352,-3.316 -12.352,-7.841 -14.741,-13.637c-0.365,-0.885 0.023,-1.739 0.023,-1.739l0.982,-1.216l0.887,-0.318l0.702,-0.084l5.484,0.685c-7.195,-5.446 -12.252,-11.393 -15.204,-17.813c-2.952,6.42 -8.01,12.367 -15.204,17.813l5.483,-0.685c1.011,-0.119 1.547,0.235 1.547,0.235c0.523,0.187 0.977,1.034 1.025,1.383l0.127,0.934c0.045,0.329 -0.009,0.597 -0.118,0.813l0.013,-0.008c-2.498,5.75 -7.389,10.321 -14.74,13.637c-0.383,0.172 -0.822,0.172 -1.205,-0c-4.863,-2.194 -8.449,-5.062 -9.995,-8.904c-0.208,-0.517 -0.14,-0.811 -0.14,-0.811l0.094,-0.95l0.958,-1.261l0.891,-0.341l0.749,-0.094l1.567,0.214c-4.007,-3.247 -6.949,-6.744 -8.844,-10.475c-1.895,3.731 -4.836,7.228 -8.844,10.475l1.567,-0.214c1.186,-0.155 1.741,0.279 1.741,0.279c0.536,0.205 0.823,1.06 0.858,1.417l0.093,0.95c0.033,0.336 -0.033,0.604 -0.152,0.818l0.013,-0.007c-1.82,3.72 -5.132,6.71 -9.995,8.904c-0.383,0.172 -0.822,0.172 -1.205,-0c-7.352,-3.316 -12.615,-7.739 -14.741,-13.637c-0.142,-0.395 -0.105,-0.805 -0.105,-0.805l0.128,-0.934l0.982,-1.216l0.887,-0.318l0.703,-0.084l5.483,0.685c-7.195,-5.446 -12.252,-11.393 -15.204,-17.813c-2.952,6.42 -8.009,12.367 -15.204,17.813l5.483,-0.685c1.666,-0.162 2.524,1.269 2.572,1.618l0.127,0.934c0.045,0.329 -0.009,0.597 -0.118,0.813l0.013,-0.008c-2.288,5.267 -6.584,9.544 -12.939,12.774c2.035,1.861 4.243,3.613 6.624,5.258c0.402,0.26 0.726,0.696 0.875,1.196c0.145,0.49 0.117,1.02 -0.068,1.453c-0.008,0.02 -0.017,0.04 -0.025,0.06c-0.178,0.418 -0.519,0.795 -0.949,1.033c-0.46,0.254 -1.001,0.338 -1.443,0.243c-3.489,-0.614 -6.563,-1.417 -9.224,-2.401c5.295,5.371 11.773,10.276 19.431,14.721c0.433,0.233 0.797,0.657 0.981,1.161c0.183,0.501 0.179,1.058 0.009,1.494c-0.155,0.459 -0.503,0.883 -0.957,1.15c-0.466,0.274 -1.021,0.37 -1.497,0.272c-6.281,-1.043 -11.61,-2.506 -15.988,-4.379c6.892,8.615 15.004,15.908 24.335,21.881c0.617,0.395 0.798,1.217 0.402,1.835c-0.395,0.618 -1.217,0.798 -1.835,0.403c-10.112,-6.474 -18.829,-14.458 -26.15,-23.953c-0.3,-0.366 -0.476,-0.872 -0.47,-1.387c0.006,-0.512 0.19,-1.01 0.485,-1.357c0.288,-0.368 0.733,-0.647 1.226,-0.759c0.504,-0.113 1.039,-0.046 1.487,0.188c3.931,1.882 8.76,3.368 14.485,4.468c-7.669,-4.672 -14.116,-9.824 -19.346,-15.452c-0.34,-0.344 -0.563,-0.846 -0.598,-1.372c-0.033,-0.515 0.115,-1.031 0.397,-1.414c0.013,-0.018 0.027,-0.036 0.04,-0.054c0.272,-0.369 0.692,-0.659 1.169,-0.79c0.51,-0.141 1.061,-0.093 1.524,0.13c2.409,1.058 5.241,1.924 8.495,2.603c-5.023,-3.7 -9.256,-7.894 -12.701,-12.579c-0.553,-0.723 -0.531,-1.986 0.036,-2.674c0.556,-0.72 1.776,-1.027 2.63,-0.641c1.583,0.665 3.451,1.133 5.602,1.412c-6.355,-4.376 -10.522,-9.831 -12.531,-16.342c-2.009,6.509 -6.174,11.962 -12.526,16.338c2.166,-0.281 4.046,-0.753 5.636,-1.425c0.833,-0.37 2.055,-0.055 2.591,0.657c0.569,0.709 0.585,1.967 0.035,2.674c-3.444,4.686 -7.677,8.88 -12.701,12.58c3.269,-0.682 6.113,-1.554 8.529,-2.618c0.436,-0.209 0.983,-0.255 1.49,-0.115c0.498,0.137 0.937,0.447 1.206,0.84c0.013,0.018 0.025,0.036 0.038,0.054c0.258,0.378 0.394,0.871 0.362,1.364c-0.035,0.53 -0.26,1.034 -0.586,1.358c-5.231,5.634 -11.683,10.791 -19.358,15.466c5.742,-1.103 10.582,-2.594 14.519,-4.485c0.42,-0.218 0.952,-0.284 1.453,-0.171c0.491,0.111 0.934,0.389 1.221,0.754c0.013,0.016 0.026,0.032 0.039,0.048c0.278,0.354 0.445,0.828 0.451,1.314c0.006,0.517 -0.171,1.026 -0.47,1.387c-7.321,9.495 -16.038,17.479 -26.15,23.953c-0.617,0.395 -1.44,0.215 -1.835,-0.403c-0.395,-0.618 -0.215,-1.44 0.403,-1.835c9.33,-5.973 17.443,-13.266 24.335,-21.881c-4.379,1.873 -9.707,3.336 -15.989,4.379c-0.482,0.097 -1.034,0.001 -1.498,-0.272c-0.459,-0.271 -0.81,-0.703 -0.955,-1.149c-0.171,-0.452 -0.173,-1 0.008,-1.495c0.185,-0.507 0.553,-0.934 1.005,-1.175c7.647,-4.441 14.118,-9.341 19.407,-14.707c-2.656,0.982 -5.722,1.783 -9.201,2.397c-0.471,0.098 -1.009,0.014 -1.466,-0.239c-0.448,-0.247 -0.799,-0.646 -0.971,-1.085c-0.008,-0.02 -0.015,-0.04 -0.023,-0.059c-0.166,-0.424 -0.187,-0.931 -0.048,-1.402c0.15,-0.503 0.477,-0.942 0.909,-1.219c5.04,-3.486 9.304,-7.455 12.79,-11.911c-1.947,0.637 -4.214,1.059 -6.806,1.256c-0.468,0.05 -0.985,-0.079 -1.41,-0.364c-0.422,-0.281 -0.738,-0.704 -0.868,-1.138c-0.152,-0.438 -0.147,-0.959 0.023,-1.432c0.175,-0.482 0.515,-0.894 0.923,-1.131l0.034,-0.022c7.1,-4.467 11.554,-10.228 13.318,-17.316c0.1,-0.458 0.383,-0.905 0.784,-1.219c0.399,-0.313 0.899,-0.481 1.351,-0.47c0.463,-0.007 0.957,0.16 1.352,0.47c0.403,0.315 0.687,0.766 0.786,1.227l0.011,0.042c1.776,7.082 6.242,12.836 13.353,17.296c0.405,0.238 0.742,0.648 0.916,1.127c0.172,0.477 0.176,1.005 0.024,1.431c-0.137,0.443 -0.45,0.86 -0.867,1.139c-0.427,0.287 -0.947,0.416 -1.385,0.367c-2.605,-0.198 -4.884,-0.622 -6.839,-1.261c1.224,1.563 2.543,3.067 3.957,4.51c5.814,-2.765 9.868,-6.398 12.111,-10.954l-6.686,0.835c-0.024,0.003 -0.048,0.005 -0.072,0.007c-0.99,0.074 -2.121,-0.704 -2.428,-1.654c-0.008,-0.026 -0.016,-0.051 -0.024,-0.077c-0.269,-0.919 0.147,-2.136 0.934,-2.671l0.032,-0.024c3.465,-2.486 6.452,-5.081 8.956,-7.785l-0,-144.341l46.742,0l0,-44.319l0,-0.007c0.019,-1.593 -0.648,-3.285 -1.754,-4.441c0,0 -2.998,-3.209 -2.989,-3.2c-1.51,-1.582 -2.426,-3.905 -2.4,-6.079l0,-17.63l-2.034,-0c-0.498,0.013 -1.044,-0.286 -1.3,-0.713c-0.28,-0.412 -0.322,-1.034 -0.099,-1.48l19.3,-41.584c0.215,-0.518 0.839,-0.916 1.4,-0.894c0.56,-0.022 1.184,0.376 1.399,0.894l19.3,41.584c0.223,0.446 0.181,1.068 -0.098,1.48c-0.257,0.427 -0.803,0.726 -1.301,0.713l-2.034,-0c-0,-0 -0,17.52 -0,17.506c0.024,2.163 -0.867,4.455 -2.337,6.023l-3.097,3.383l-0.004,0.005c-1.075,1.148 -1.723,2.816 -1.705,4.396l-0,44.363l18.767,0l-0,-5.873l-3.402,0c-0.482,0.012 -1.009,-0.265 -1.272,-0.669c-0.283,-0.391 -0.353,-0.983 -0.168,-1.428l16.134,-41.915c0.187,-0.561 0.85,-1.016 1.441,-0.989c0.591,-0.027 1.253,0.428 1.44,0.989l16.134,41.915c0.185,0.445 0.115,1.037 -0.168,1.428c-0.262,0.404 -0.789,0.681 -1.272,0.669l-3.401,0l-0,5.873l54.203,0l0,80.174l21.116,0l-0,-6.989l-4.86,0c-0.482,0.012 -1.009,-0.265 -1.272,-0.669c-0.283,-0.391 -0.352,-0.983 -0.168,-1.428l16.135,-41.915c0.186,-0.561 0.849,-1.016 1.44,-0.989c0.591,-0.027 1.254,0.428 1.44,0.989l16.135,41.915c0.184,0.445 0.114,1.037 -0.168,1.428c-0.263,0.404 -0.79,0.681 -1.273,0.669l-4.859,0l-0,6.989l52.175,0l0,-10.87l0,-0.007c0.019,-1.591 -0.646,-3.279 -1.748,-4.435c-0,0 -3.741,-4.016 -3.732,-4.006c-1.508,-1.582 -2.422,-3.902 -2.397,-6.075l0,-11.099l12.453,-0l-0,-17.167l-3.323,0c-0.498,0.014 -1.045,-0.286 -1.301,-0.713c-0.279,-0.412 -0.321,-1.034 -0.099,-1.48l19.3,-41.584c0.216,-0.517 0.84,-0.916 1.4,-0.893c0.56,-0.023 1.184,0.376 1.4,0.893l19.3,41.584c0.222,0.446 0.18,1.068 -0.099,1.48c-0.256,0.427 -0.803,0.727 -1.301,0.713l-3.323,0l0,17.167l12.453,-0c-0,-0 -0,11.094 -0,11.08c0.025,2.185 -0.887,4.504 -2.385,6.076l-3.719,3.998l-0.005,0.005c-1.094,1.147 -1.757,2.826 -1.744,4.416l-0.014,66.007Zm-300.018,6.309c2.062,-2.63 3.691,-5.361 4.883,-8.194c0.34,-0.845 1.34,-1.509 2.238,-1.495c0.908,-0.008 1.903,0.656 2.248,1.52c2.884,6.836 8.311,13.074 16.235,18.753c0.807,0.557 1.221,1.834 0.899,2.741c-0.306,0.95 -1.437,1.728 -2.428,1.654c-0.023,-0.002 -0.047,-0.004 -0.071,-0.007l-6.687,-0.835c2.264,4.597 6.371,8.254 12.272,11.029c3.447,-1.655 5.959,-3.766 7.5,-6.376l-2.563,0.349l-0.009,0.002c-1.004,0.13 -2.2,-0.622 -2.528,-1.561c-0.355,-0.926 0.035,-2.231 0.842,-2.804l0.033,-0.024c4.669,-3.496 8.037,-7.263 9.844,-11.433c0.47,-1.084 2.332,-1.613 3.848,-0.638c0.327,0.21 0.561,0.638 0.561,0.638c1.888,4.149 5.195,7.96 9.886,11.464c0.806,0.581 1.191,1.892 0.833,2.796c-0.345,0.95 -1.531,1.691 -2.528,1.562l-0.009,-0.002l-2.563,-0.349c1.54,2.61 4.053,4.721 7.503,6.376c5.897,-2.775 10.005,-6.432 12.268,-11.029l-6.686,0.835c-0.024,0.003 -0.048,0.005 -0.072,0.007c-0.99,0.074 -2.122,-0.704 -2.428,-1.654c-0.008,-0.026 -0.016,-0.051 -0.024,-0.077c-0.269,-0.919 0.147,-2.136 0.934,-2.671l0.032,-0.024c7.911,-5.677 13.327,-11.913 16.203,-18.747c0.339,-0.845 1.34,-1.509 2.237,-1.495c0.228,-0.002 0.462,0.038 0.689,0.113l-0,-27.449l-83.392,-0l-0,37.025Zm40.682,-21.31c0.009,0.705 -0.302,1.457 -0.807,1.948c-0.492,0.506 -1.244,0.817 -1.949,0.807c-0.705,0.01 -1.457,-0.301 -1.948,-0.807c-0.506,-0.491 -0.817,-1.243 -0.808,-1.948l0,-5.459c-0.137,-1.355 1.4,-2.893 2.756,-2.755c1.356,-0.138 2.893,1.4 2.756,2.755l-0,5.459Zm25.079,-0c0.009,0.705 -0.302,1.457 -0.807,1.948c-0.492,0.506 -1.244,0.817 -1.949,0.807c-0.705,0.01 -1.456,-0.301 -1.948,-0.807c-0.505,-0.491 -0.817,-1.243 -0.807,-1.948l-0,-5.459c-0.138,-1.355 1.399,-2.893 2.755,-2.755c1.356,-0.138 2.894,1.4 2.756,2.755l-0,5.459Zm-32.672,-0c0.01,0.705 -0.302,1.457 -0.807,1.948c-0.491,0.506 -1.243,0.817 -1.948,0.807c-0.705,0.01 -1.457,-0.301 -1.949,-0.807c-0.505,-0.491 -0.816,-1.243 -0.807,-1.948l-0,-5.459c-0.138,-1.355 1.4,-2.893 2.756,-2.755c1.356,-0.138 2.893,1.4 2.755,2.755l0,5.459Zm25.08,-0c0.009,0.705 -0.302,1.457 -0.808,1.948c-0.491,0.506 -1.243,0.817 -1.948,0.807c-0.705,0.01 -1.457,-0.301 -1.949,-0.807c-0.505,-0.491 -0.816,-1.243 -0.807,-1.948l0,-5.459c-0.137,-1.355 1.4,-2.893 2.756,-2.755c1.356,-0.138 2.893,1.4 2.756,2.755l-0,5.459Zm148.558,49.861c0.691,-1.73 1.233,-3.561 1.626,-5.494c0.073,-0.425 0.321,-0.846 0.684,-1.143c0.357,-0.291 0.809,-0.45 1.233,-0.443c0.021,0 0.042,0.001 0.062,0.001c0.407,0.007 0.835,0.164 1.175,0.442c0.366,0.299 0.615,0.724 0.686,1.151l0.006,0.029c1.384,6.765 4.594,12.289 9.64,16.567c0.608,0.498 0.858,1.54 0.543,2.262c-0.009,0.02 -0.018,0.039 -0.027,0.059c-0.328,0.7 -1.23,1.214 -1.984,1.118c-1.779,-0.183 -3.351,-0.564 -4.717,-1.135c2.565,4.587 5.73,8.656 9.497,12.206c0.308,0.275 0.53,0.684 0.601,1.126c0.07,0.44 -0.011,0.896 -0.21,1.241c-0.188,0.362 -0.523,0.674 -0.926,0.852c-0.412,0.183 -0.88,0.219 -1.275,0.109c-2.365,-0.577 -4.465,-1.321 -6.302,-2.225c1.739,2.461 3.659,4.824 5.761,7.088c4.496,-3.894 8.364,-8.128 11.602,-12.703c-1.834,0.875 -3.921,1.6 -6.263,2.172c-0.4,0.11 -0.865,0.073 -1.276,-0.109c-0.407,-0.18 -0.744,-0.496 -0.926,-0.852c-0.201,-0.355 -0.28,-0.806 -0.21,-1.241c0.072,-0.444 0.295,-0.855 0.622,-1.145c3.754,-3.542 6.909,-7.6 9.468,-12.173c-1.367,0.562 -2.935,0.938 -4.709,1.12c-0.782,0.096 -1.709,-0.449 -2.011,-1.176c-0.008,-0.021 -0.016,-0.041 -0.024,-0.061c-0.277,-0.721 -0.022,-1.726 0.575,-2.208l0.03,-0.026c5.033,-4.281 8.233,-9.807 9.61,-16.571c0.072,-0.425 0.32,-0.846 0.684,-1.143c0.357,-0.292 0.808,-0.451 1.232,-0.444c0.02,0.001 0.04,0.001 0.06,0.001c0.407,0.007 0.836,0.164 1.178,0.443c0.365,0.299 0.614,0.724 0.691,1.18c1.384,6.764 4.595,12.288 9.641,16.566c0.608,0.498 0.857,1.541 0.543,2.262c-0.009,0.02 -0.018,0.039 -0.027,0.059c-0.327,0.701 -1.23,1.215 -1.984,1.118c-1.78,-0.182 -3.351,-0.564 -4.718,-1.135c1.623,2.903 3.487,5.598 5.591,8.086c4.575,-4.123 8.55,-8.572 11.922,-13.347c-2.09,1.029 -4.48,1.876 -7.171,2.533c-0.454,0.125 -0.984,0.083 -1.451,-0.124c-0.464,-0.206 -0.848,-0.566 -1.055,-0.97c-0.227,-0.404 -0.317,-0.917 -0.238,-1.412c0.081,-0.506 0.336,-0.974 0.69,-1.287l0.027,-0.025c4.272,-4.034 7.863,-8.654 10.775,-13.861c-1.555,0.649 -3.344,1.084 -5.369,1.292c-0.889,0.108 -1.945,-0.512 -2.288,-1.34c-0.01,-0.023 -0.019,-0.046 -0.028,-0.069c-0.315,-0.82 -0.025,-1.964 0.655,-2.513l0.034,-0.029c0.074,-0.063 0.147,-0.126 0.22,-0.189l0,-37.421l-52.175,0l-0,52.931Zm-123.335,-111.992l-83.392,-0l-0,44.052l83.392,-0l-0,-44.052Zm-50.303,28.337l0,5.458c0.138,1.356 -1.399,2.893 -2.755,2.756c-1.356,0.137 -2.894,-1.4 -2.756,-2.756l-0,-5.458c-0.009,-0.705 0.302,-1.457 0.807,-1.949c0.492,-0.505 1.244,-0.816 1.949,-0.807c0.705,-0.009 1.457,0.302 1.948,0.807c0.505,0.492 0.817,1.244 0.807,1.949Zm32.672,-0l-0,5.458c0.138,1.356 -1.4,2.893 -2.756,2.756c-1.356,0.137 -2.893,-1.4 -2.755,-2.756l-0,-5.458c-0.01,-0.705 0.302,-1.457 0.807,-1.949c0.492,-0.505 1.243,-0.816 1.948,-0.807c0.705,-0.009 1.457,0.302 1.949,0.807c0.505,0.492 0.816,1.244 0.807,1.949Zm-7.592,-0l-0,5.458c0.137,1.356 -1.4,2.893 -2.756,2.756c-1.356,0.137 -2.893,-1.4 -2.756,-2.756l0,-5.458c-0.009,-0.705 0.302,-1.457 0.807,-1.949c0.492,-0.505 1.244,-0.816 1.949,-0.807c0.705,-0.009 1.457,0.302 1.948,0.807c0.506,0.492 0.817,1.244 0.808,1.949Zm-17.487,-0l-0,5.458c0.137,1.356 -1.4,2.893 -2.756,2.756c-1.356,0.137 -2.893,-1.4 -2.756,-2.756l0,-5.458c-0.009,-0.705 0.302,-1.457 0.808,-1.949c0.491,-0.505 1.243,-0.816 1.948,-0.807c0.705,-0.009 1.457,0.302 1.949,0.807c0.505,0.492 0.816,1.244 0.807,1.949Zm68.176,15.715l11.127,-0l-0,-28.497l31.621,-0l-0,28.497l9.092,-0l-0,-44.052l-51.84,-0l-0,44.052Zm54.203,60.186c5.116,-6.398 8.366,-14.335 9.774,-23.798c0.068,-0.587 0.408,-1.158 0.855,-1.505c0.368,-0.287 0.797,-0.425 1.202,-0.42c0.022,0.001 0.043,0.001 0.065,0.001c0.392,0.006 0.802,0.143 1.156,0.419c0.447,0.348 0.788,0.921 0.857,1.525c1.158,7.764 3.556,14.499 7.207,20.2l-0,-41.599l-21.116,0l0,45.177Zm-77.305,-27.209c3.035,6.152 8.191,11.807 15.431,16.996c0.806,0.557 1.22,1.834 0.899,2.741c-0.306,0.95 -1.438,1.728 -2.428,1.654c-0.024,-0.002 -0.047,-0.004 -0.071,-0.007l-6.687,-0.835c2.242,4.553 6.292,8.184 12.101,10.949c0.512,-0.389 1.01,-0.791 1.493,-1.206l-0,-152.934c-0.913,-0.128 -1.921,0.096 -2.641,0.623c-0.016,0.011 -0.032,0.022 -0.048,0.033c-0.922,0.608 -1.562,1.793 -1.58,2.904c0,0.04 0,0.079 0.001,0.119c-0,0.01 -0,0.019 -0,0.029l-0,4.872l-2.364,-0l-0,-4.861l-0,-0.011l-0.001,-0.016c0,-0.036 0,-0.072 0,-0.109c-0.019,-0.914 -0.431,-1.872 -1.083,-2.507c-0.007,-0.007 -0.015,-0.015 -0.022,-0.022c-0.66,-0.678 -1.669,-1.096 -2.615,-1.083c-0.011,-0 -0.022,-0 -0.032,-0c-0.947,-0.013 -1.956,0.405 -2.616,1.083c-0.007,0.008 -0.015,0.015 -0.022,0.022c-0.652,0.635 -1.063,1.593 -1.083,2.507c-0,0.036 -0,0.073 -0,0.109l-0,0.016l-0.001,0.011l0,4.861l-2.364,-0l0.001,-4.856l-0.001,-0.016c0,-0.01 0,-0.019 0,-0.029c0.001,-0.037 0.001,-0.073 0.001,-0.11c-0.014,-1.113 -0.655,-2.303 -1.58,-2.913c-0.016,-0.011 -0.032,-0.022 -0.048,-0.033c-0.719,-0.527 -1.727,-0.751 -2.64,-0.623l-0,122.642Zm13.124,-88.047l0,5.458c0.138,1.356 -1.4,2.893 -2.755,2.756c-1.356,0.137 -2.893,-1.4 -2.756,-2.756l-0,-5.458c-0.01,-0.705 0.302,-1.457 0.807,-1.948c0.492,-0.506 1.244,-0.817 1.949,-0.808c0.704,-0.009 1.456,0.302 1.948,0.808c0.505,0.491 0.817,1.243 0.807,1.948Zm0,31.668l0,5.458c0.138,1.356 -1.4,2.893 -2.755,2.756c-1.356,0.137 -2.893,-1.4 -2.756,-2.756l-0,-5.458c-0.01,-0.705 0.302,-1.457 0.807,-1.948c0.492,-0.506 1.244,-0.817 1.949,-0.808c0.704,-0.009 1.456,0.302 1.948,0.808c0.505,0.491 0.817,1.243 0.807,1.948Zm0,32.367l0,5.458c0.138,1.356 -1.4,2.893 -2.755,2.756c-1.356,0.137 -2.893,-1.4 -2.756,-2.756l-0,-5.458c-0.01,-0.705 0.302,-1.457 0.807,-1.948c0.492,-0.506 1.244,-0.817 1.949,-0.808c0.704,-0.009 1.456,0.302 1.948,0.808c0.505,0.491 0.817,1.243 0.807,1.948Zm166.962,-67.467l27.226,-0l0,-17.167l-27.226,0l-0,17.167Zm16.369,-11.53l-0,5.458c0.137,1.356 -1.4,2.893 -2.756,2.756c-1.356,0.137 -2.893,-1.4 -2.756,-2.756l0,-5.458c-0.009,-0.705 0.303,-1.457 0.807,-1.949c0.492,-0.505 1.244,-0.816 1.949,-0.807c0.705,-0.009 1.457,0.302 1.949,0.807c0.505,0.492 0.816,1.244 0.807,1.949Zm-151.869,132.205c0.8,0.762 1.644,1.485 2.533,2.17c1.924,-1.483 3.641,-3.147 5.15,-4.991c-1.18,-2.134 -2.172,-4.432 -2.976,-6.893c-1.171,3.584 -2.74,6.821 -4.707,9.714Zm-68.081,-164.357l-0,-44.343c-0.025,-2.162 0.866,-4.454 2.334,-6.022l3.097,-3.383l0.005,-0.005c1.076,-1.148 1.725,-2.817 1.707,-4.397l0,-17.526l-29.805,-0l0,17.637l-0,0.007c-0.019,1.592 0.647,3.281 1.751,4.437c-0,0 2.997,3.209 2.988,3.199c1.513,1.583 2.43,3.908 2.404,6.084l0,44.312l15.519,0Zm-5.004,-68.11l0,5.458c0.138,1.356 -1.399,2.893 -2.755,2.756c-1.357,0.137 -2.894,-1.4 -2.756,-2.756l-0,-5.458c-0.01,-0.705 0.302,-1.457 0.807,-1.949c0.492,-0.505 1.244,-0.816 1.949,-0.807c0.704,-0.009 1.456,0.302 1.948,0.807c0.505,0.492 0.817,1.244 0.807,1.949Zm129.284,230.228c1.017,1.292 2.108,2.522 3.276,3.69c0.545,0.537 0.817,1.652 0.551,2.419c-0.297,0.954 -1.347,1.59 -2.166,1.489c-2.773,-0.265 -5.161,-0.976 -7.17,-2.115c3.43,7.751 7.755,14.56 12.979,20.425c0.283,0.302 0.501,0.75 0.57,1.238c0.066,0.467 -0.005,0.954 -0.171,1.307c-0.401,0.963 -1.583,1.481 -2.43,1.218c-3.637,-1.009 -6.791,-2.386 -9.466,-4.12c3.692,6.596 8.072,12.738 13.139,18.426c2.936,-2.91 5.553,-5.993 7.852,-9.248c-1.836,0.904 -3.936,1.648 -6.301,2.225c-0.399,0.11 -0.865,0.073 -1.275,-0.109c-0.407,-0.18 -0.745,-0.497 -0.927,-0.852c-0.2,-0.354 -0.279,-0.805 -0.209,-1.241c0.071,-0.444 0.295,-0.855 0.622,-1.145c3.757,-3.546 6.916,-7.609 9.476,-12.187c-1.367,0.571 -2.938,0.952 -4.718,1.135c-0.787,0.095 -1.72,-0.456 -2.01,-1.177c-0.316,-0.725 -0.063,-1.773 0.55,-2.269l0.031,-0.026c2.234,-1.9 4.106,-4.045 5.619,-6.435l-0,-101.581l-17.822,0l-0,88.933Zm11.667,-37.217l-0,5.458c0.137,1.356 -1.4,2.893 -2.756,2.756c-1.356,0.137 -2.893,-1.4 -2.756,-2.756l0,-5.458c-0.009,-0.705 0.302,-1.457 0.807,-1.949c0.492,-0.505 1.244,-0.817 1.949,-0.807c0.705,-0.01 1.457,0.302 1.948,0.807c0.505,0.492 0.817,1.244 0.808,1.949Zm-0,-25.642l-0,5.459c0.137,1.356 -1.4,2.893 -2.756,2.755c-1.356,0.138 -2.893,-1.399 -2.756,-2.755l0,-5.459c-0.009,-0.705 0.302,-1.457 0.807,-1.948c0.492,-0.506 1.244,-0.817 1.949,-0.807c0.705,-0.01 1.457,0.301 1.948,0.807c0.505,0.491 0.817,1.243 0.808,1.948Zm-89.35,63.943c3.626,-3.835 6.235,-8.554 7.833,-14.151c0.257,-0.964 1.357,-1.793 2.333,-1.772c0.996,-0.009 2.088,0.822 2.337,1.785l0.011,0.036c1.453,5.067 3.735,9.412 6.853,13.032c1.912,-2.935 3.392,-6.246 4.444,-9.929c0.262,-0.984 1.385,-1.829 2.379,-1.808c1.017,-0.009 2.131,0.838 2.385,1.821l0.012,0.041c0.674,2.35 1.524,4.548 2.548,6.594c1.895,-2.895 3.361,-6.162 4.399,-9.8c0.258,-0.964 1.358,-1.793 2.333,-1.772c0.996,-0.009 2.088,0.822 2.347,1.818c1.998,6.966 5.561,12.57 10.711,16.799c0.024,0.02 0.048,0.041 0.071,0.063c0.05,-0.065 0.104,-0.125 0.16,-0.179c0.231,-0.231 0.459,-0.465 0.684,-0.701l-0,-60.531l-9.092,-0l-0,28.497l-31.621,-0l-0,-28.497l-11.127,-0l-0,58.654Zm13.491,-87.151l-0,54.63l26.893,-0l-0,-54.63l-26.893,-0Zm19.998,44.212c0.009,0.705 -0.302,1.457 -0.807,1.948c-0.492,0.506 -1.244,0.817 -1.949,0.807c-0.705,0.01 -1.456,-0.301 -1.948,-0.807c-0.505,-0.491 -0.817,-1.243 -0.807,-1.948l-0,-5.459c-0.138,-1.355 1.399,-2.893 2.755,-2.755c1.356,-0.138 2.894,1.4 2.756,2.755l0,5.459Zm-7.592,-0c0.009,0.705 -0.302,1.457 -0.807,1.948c-0.492,0.506 -1.244,0.817 -1.949,0.807c-0.705,0.01 -1.457,-0.301 -1.949,-0.807c-0.505,-0.491 -0.816,-1.243 -0.807,-1.948l0,-5.459c-0.137,-1.355 1.4,-2.893 2.756,-2.755c1.356,-0.138 2.893,1.4 2.756,2.755l-0,5.459Zm7.592,-33.794l0,5.458c0.138,1.356 -1.4,2.893 -2.756,2.756c-1.356,0.137 -2.893,-1.4 -2.755,-2.756l-0,-5.458c-0.01,-0.705 0.302,-1.457 0.807,-1.949c0.492,-0.505 1.243,-0.816 1.948,-0.807c0.705,-0.009 1.457,0.302 1.949,0.807c0.505,0.492 0.816,1.244 0.807,1.949Zm-7.592,-0l-0,5.458c0.137,1.356 -1.4,2.893 -2.756,2.756c-1.356,0.137 -2.893,-1.4 -2.756,-2.756l0,-5.458c-0.009,-0.705 0.302,-1.457 0.807,-1.949c0.492,-0.505 1.244,-0.816 1.949,-0.807c0.705,-0.009 1.457,0.302 1.949,0.807c0.505,0.492 0.816,1.244 0.807,1.949Zm25.325,82.713l-0.762,0.642c-0.501,0.421 -0.95,0.361 -0.963,0.36l-2.914,0.019c1.78,2.653 4.345,5.33 7.687,8.043c2.093,-3.326 3.974,-6.874 5.642,-10.645c-2.008,1.139 -4.396,1.85 -7.169,2.115c-0.503,0.054 -1.079,-0.153 -1.521,-0.534Zm101.186,-16.821c4.254,-4.474 7.036,-9.948 8.352,-16.416c0.083,-0.484 0.365,-0.963 0.779,-1.301c0.406,-0.332 0.92,-0.513 1.403,-0.505c0.484,-0.009 1,0.172 1.407,0.505c0.416,0.34 0.7,0.823 0.78,1.309l0.007,0.034c1.576,7.698 5.229,13.984 10.972,18.853c0.691,0.567 0.975,1.753 0.617,2.574c-0.01,0.023 -0.02,0.045 -0.03,0.068c-0.373,0.797 -1.401,1.381 -2.258,1.272c-2.025,-0.208 -3.814,-0.643 -5.368,-1.292c1.407,2.518 2.974,4.898 4.7,7.142c6.139,-4.338 11.295,-9.287 15.464,-14.851c-2.819,1.109 -6.289,1.787 -10.416,2.012c-0.417,0.035 -0.874,-0.09 -1.247,-0.35c-0.37,-0.259 -0.642,-0.641 -0.751,-1.029c-0.127,-0.392 -0.112,-0.855 0.048,-1.272c0.164,-0.425 0.474,-0.785 0.858,-0.999c4.548,-2.727 8.24,-5.874 11.07,-9.442l0.015,-69.401c-0.018,-2.178 0.894,-4.486 2.387,-6.052l3.719,-3.997l0.005,-0.005c1.097,-1.152 1.76,-2.839 1.742,-4.435l0,-8.737l-52.132,-0l0,8.742l0,0.007c-0.018,1.591 0.646,3.279 1.749,4.435c-0,-0 3.741,4.016 3.732,4.006c1.508,1.582 2.422,3.902 2.396,6.075l0,83.05Zm20.945,-45.996l-0,5.459c0.137,1.355 -1.4,2.893 -2.756,2.755c-1.356,0.138 -2.893,-1.4 -2.756,-2.755l0,-5.459c-0.009,-0.705 0.303,-1.457 0.807,-1.948c0.492,-0.506 1.244,-0.817 1.949,-0.807c0.705,-0.01 1.457,0.301 1.949,0.807c0.505,0.491 0.816,1.243 0.807,1.948Zm-0,-25.166l-0,5.458c0.137,1.356 -1.4,2.893 -2.756,2.755c-1.356,0.138 -2.893,-1.399 -2.756,-2.755l0,-5.458c-0.009,-0.705 0.303,-1.457 0.807,-1.949c0.492,-0.505 1.244,-0.817 1.949,-0.807c0.705,-0.01 1.457,0.302 1.949,0.807c0.505,0.492 0.816,1.244 0.807,1.949Zm-175.717,-87.072l-20.738,0l-0,16.025c1.411,-0.108 2.91,0.268 4.01,1.063c0.546,0.364 1.033,0.85 1.434,1.408c0.186,-0.255 0.39,-0.494 0.61,-0.71c1.093,-1.115 2.754,-1.803 4.315,-1.787c1.56,-0.017 3.222,0.672 4.314,1.787c0.22,0.216 0.424,0.454 0.61,0.71c0.399,-0.556 0.883,-1.04 1.427,-1.403c1.103,-0.799 2.605,-1.175 4.018,-1.068l-0,-16.025Zm-7.614,5.341l0,5.458c0.138,1.357 -1.4,2.894 -2.755,2.756c-1.356,0.138 -2.893,-1.399 -2.756,-2.756l-0,-5.458c-0.01,-0.705 0.302,-1.457 0.807,-1.949c0.492,-0.504 1.244,-0.816 1.949,-0.807c0.704,-0.009 1.456,0.303 1.948,0.807c0.505,0.492 0.817,1.244 0.807,1.949Z" style="fill:#8c0eff;"/></g></svg>