<?xml version="1.0" encoding="UTF-8" standalone="no"?><!DOCTYPE svg PUBLIC "-//W3C//DTD SVG 1.1//EN" "http://www.w3.org/Graphics/SVG/1.1/DTD/svg11.dtd"><svg width="100%" height="100%" viewBox="0 0 496 426" version="1.1" xmlns="http://www.w3.org/2000/svg" xmlns:xlink="http://www.w3.org/1999/xlink" xml:space="preserve" xmlns:serif="http://www.serif.com/" style="fill-rule:evenodd;clip-rule:evenodd;stroke-linejoin:round;stroke-miterlimit:2;"><rect id="Artboard8" x="0.07" y="0.178" width="495.504" height="424.872" style="fill:none;"/><clipPath id="_clip1"><rect id="Artboard81" serif:id="Artboard8" x="0.07" y="0.178" width="495.504" height="424.872"/></clipPath><g clip-path="url(#_clip1)"><path d="M93.037,222.831c0.1,-2.338 0.591,-4.646 1.473,-6.691c0.843,-1.954 2.042,-3.667 3.598,-4.936l95.354,-95.354c-45.987,-22.59 -108.54,-47.57 -187.627,-75.001c-1.932,-0.613 -3.736,-2.072 -4.776,-4.035c-1.04,-1.962 -1.235,-4.271 -0.703,-6.06c0.497,-1.929 1.807,-3.782 3.655,-4.938c1.899,-1.188 4.213,-1.543 6.123,-1.107c58.985,11.394 116.891,29.393 173.718,54.002c-35.343,-21.049 -73.584,-41.927 -114.717,-62.637c-1.83,-0.86 -3.424,-2.539 -4.197,-4.617c-0.773,-2.075 -0.668,-4.384 0.087,-6.084c0.739,-1.846 2.272,-3.513 4.247,-4.422c2.015,-0.929 4.33,-0.995 6.181,-0.333c55.127,17.633 108.809,42.892 158.973,74.268l47.364,-47.364c5.538,-6.787 19.509,-6.787 25.046,-0l183.682,183.682c6.787,5.537 6.787,19.508 -0,25.046l-183.682,183.681c-5.537,6.787 -19.508,6.787 -25.046,0l-42.723,-42.723c24.65,-20.251 36.026,-36.406 44.699,-50.508c11.089,-18.03 17.759,-32.705 26.306,-39.125c7.32,-5.499 16.017,-4.942 25.619,-2.678c-14.443,-17.106 -24.57,-32.849 -30.407,-47.209c-7.608,-18.718 -7.986,-35.17 -1.329,-49.349c0.366,-0.78 1.154,-1.274 2.016,-1.264c0.861,0.011 1.637,0.523 1.985,1.312c-0,-0 8.566,19.439 8.566,19.436c0.138,-10.614 1.426,-19.149 3.821,-25.608c2.263,-6.104 5.529,-10.431 9.691,-13.06c1.026,-0.648 2.384,-0.341 3.032,0.684c0.648,1.026 0.341,2.384 -0.684,3.032c-4.356,2.751 -7.366,7.838 -9.238,15.134c-2,7.795 -2.651,18.019 -1.998,30.67c0.055,1.059 -0.655,2.006 -1.686,2.252c-1.032,0.245 -2.092,-0.282 -2.519,-1.252c-0,-0 -10.906,-24.747 -10.905,-24.749c-4.069,12.06 -2.918,25.761 3.32,41.107c6.243,15.358 17.54,32.304 33.856,50.861c10.818,3.103 22.384,7.188 32.061,10.311c2.884,0.931 5.6,1.776 8.146,2.523c-19.24,-24.313 -32.76,-50.431 -40.57,-78.346c-0.327,-1.168 0.356,-2.382 1.524,-2.709c1.168,-0.327 2.382,0.356 2.709,1.524c8.161,29.171 22.694,56.332 43.584,81.491c3.538,0.857 6.63,1.424 9.266,1.645c4.095,0.345 7.09,-0.142 19.367,-13.09c1.577,-1.389 1.596,-4.648 0.035,-6.055c-4.342,-4.687 -6.942,-8.489 -7.8,-11.405c5.064,2.269 10.59,3.885 16.829,4.642c1.373,0.202 2.974,-0.41 3.862,-1.476l1.156,-1.32c1.333,-1.338 1.455,-4.066 0.248,-5.517c-53.49,-74.64 -124.293,-139.832 -203.983,-189.446c-49.367,-30.734 -102.143,-55.49 -156.328,-72.809c-0.767,-0.329 -1.938,0.211 -2.187,1.007c-0.386,0.741 0.064,1.95 0.84,2.258c53.43,26.896 101.991,54.075 145.683,81.536c20.442,12.85 39.819,25.761 58.13,38.734c0.368,0.213 0.494,0.864 0.233,1.199c-0.195,0.378 -0.84,0.536 -1.187,0.29c-21.119,-12.15 -42.395,-23.341 -63.828,-33.571c-65.924,-31.467 -133.333,-53.85 -202.225,-67.148c-0.804,-0.231 -1.901,0.455 -2.046,1.28c-0.288,0.785 0.318,1.929 1.13,2.132c80.54,27.932 144.04,53.39 190.501,76.376c26.861,13.289 48.026,25.752 63.496,37.388c0.555,0.379 0.85,1.241 0.644,1.881c-0.148,0.657 -0.84,1.249 -1.511,1.294c-18.766,2.111 -40.133,3.228 -64.101,3.351c-0.682,-0.029 -1.446,0.505 -1.652,1.157c-0.267,0.629 -0.035,1.531 0.502,1.953c11.413,9.88 26.892,16.232 46.437,19.055c0.683,0.065 1.369,0.705 1.479,1.382c0.176,0.664 -0.187,1.528 -0.784,1.867c-39.164,24.807 -89.109,38.992 -149.835,42.553Zm205.946,163.929c-1.036,-1.036 -2.175,-1.815 -3.415,-2.336c-1.241,-0.522 -2.508,-0.776 -3.802,-0.762c-1.293,0.013 -2.582,0.298 -3.865,0.856c-1.284,0.558 -2.487,1.397 -3.609,2.519l-5.603,5.603l14.424,14.424l5.603,-5.603c1.122,-1.122 1.963,-2.323 2.524,-3.604c0.561,-1.28 0.847,-2.569 0.856,-3.865c0.01,-1.297 -0.245,-2.566 -0.767,-3.807c-0.521,-1.24 -1.303,-2.382 -2.346,-3.425Zm-3.425,3.425c0.719,0.72 1.274,1.459 1.663,2.218c0.389,0.759 0.61,1.511 0.663,2.257c0.053,0.746 -0.064,1.477 -0.351,2.193c-0.287,0.716 -0.751,1.394 -1.391,2.034l-2.237,2.237l-9.276,-9.276l2.237,-2.237c0.64,-0.64 1.318,-1.104 2.034,-1.391c0.716,-0.287 1.447,-0.404 2.193,-0.351c0.746,0.053 1.498,0.274 2.257,0.663c0.759,0.389 1.495,0.941 2.208,1.653Zm29.659,-22.689c-0.099,0.099 -0.174,0.216 -0.223,0.351c-0.05,0.135 -0.081,0.276 -0.094,0.421c-0.02,0.376 -0.068,0.718 -0.144,1.024c-0.076,0.307 -0.188,0.604 -0.336,0.891c-0.149,0.287 -0.333,0.571 -0.555,0.852c-0.221,0.28 -0.483,0.572 -0.787,0.876c-0.528,0.528 -1.125,0.92 -1.791,1.178c-0.667,0.257 -1.37,0.363 -2.109,0.317c-0.739,-0.047 -1.496,-0.256 -2.272,-0.629c-0.775,-0.373 -1.533,-0.929 -2.272,-1.668c-0.732,-0.733 -1.293,-1.475 -1.683,-2.227c-0.389,-0.753 -0.614,-1.492 -0.673,-2.218c-0.059,-0.726 0.038,-1.42 0.292,-2.084c0.254,-0.663 0.658,-1.272 1.213,-1.826c0.35,-0.35 0.681,-0.629 0.995,-0.837c0.313,-0.208 0.605,-0.371 0.876,-0.49c0.27,-0.119 0.521,-0.204 0.752,-0.257c0.231,-0.053 0.444,-0.101 0.639,-0.144c0.194,-0.043 0.371,-0.09 0.529,-0.143c0.159,-0.053 0.297,-0.139 0.416,-0.258c0.178,-0.178 0.279,-0.354 0.302,-0.529c0.023,-0.175 0.025,-0.345 0.005,-0.51l-0.386,-2.643c-0.548,-0.007 -1.115,0.046 -1.703,0.158c-0.587,0.112 -1.173,0.292 -1.757,0.54c-0.584,0.247 -1.163,0.562 -1.737,0.945c-0.575,0.383 -1.132,0.845 -1.673,1.386c-1.063,1.063 -1.855,2.218 -2.376,3.465c-0.522,1.247 -0.772,2.514 -0.753,3.801c0.02,1.287 0.306,2.556 0.857,3.807c0.551,1.25 1.364,2.413 2.44,3.489c1.056,1.056 2.196,1.873 3.42,2.45c1.224,0.578 2.467,0.893 3.727,0.946c1.261,0.053 2.512,-0.169 3.752,-0.664c1.241,-0.495 2.409,-1.29 3.505,-2.385c1.194,-1.195 2.036,-2.422 2.524,-3.683c0.488,-1.26 0.644,-2.561 0.465,-3.9l-2.722,-0.07c-0.145,0 -0.272,0.025 -0.381,0.075c-0.109,0.049 -0.203,0.113 -0.282,0.193Zm21.373,-19.453l-2.693,2.693c-0.304,0.303 -0.604,0.663 -0.901,1.079c-0.297,0.416 -0.571,0.861 -0.821,1.336l-0.07,-5.712c-0.006,-0.772 -0.029,-1.518 -0.069,-2.237c-0.04,-0.719 -0.134,-1.411 -0.282,-2.074c-0.149,-0.663 -0.373,-1.293 -0.673,-1.891c-0.301,-0.597 -0.715,-1.16 -1.243,-1.688c-0.614,-0.613 -1.283,-1.069 -2.009,-1.366c-0.726,-0.297 -1.475,-0.429 -2.248,-0.396c-0.772,0.033 -1.547,0.231 -2.326,0.594c-0.779,0.363 -1.524,0.901 -2.237,1.614c-0.66,0.66 -1.19,1.364 -1.589,2.113c-0.399,0.749 -0.644,1.525 -0.733,2.327c-0.089,0.802 -0.016,1.62 0.218,2.455c0.234,0.835 0.658,1.665 1.272,2.49l1.911,-1.337c0.482,-0.35 0.775,-0.696 0.881,-1.039c0.105,-0.343 0.046,-0.766 -0.178,-1.267c-0.238,-0.476 -0.32,-0.99 -0.248,-1.545c0.073,-0.554 0.337,-1.059 0.792,-1.514c0.561,-0.561 1.132,-0.825 1.713,-0.792c0.581,0.033 1.158,0.336 1.732,0.91c0.35,0.35 0.639,0.725 0.866,1.124c0.228,0.399 0.413,0.841 0.555,1.327c0.142,0.485 0.242,1.021 0.302,1.608c0.059,0.588 0.089,1.238 0.089,1.95l0.03,8.346c-0.02,0.376 0.039,0.712 0.178,1.009c0.138,0.297 0.303,0.542 0.495,0.733l0.99,0.99l10.137,-10.137l-1.782,-1.782c-0.297,-0.297 -0.632,-0.441 -1.005,-0.431c-0.373,0.01 -0.724,0.18 -1.054,0.51Zm98.63,-101.461l15.155,-34.297l-5.872,-5.872l-34.297,15.155l4.48,4.48c0.475,0.475 1.001,0.746 1.578,0.814c0.577,0.068 1.086,0.006 1.528,-0.186l5.77,-2.851l9.401,9.401l-2.851,5.77c-0.203,0.521 -0.268,1.05 -0.195,1.587c0.074,0.537 0.359,1.055 0.857,1.553l4.446,4.446Zm0.34,-18.566l-6.771,-6.771l9.011,-4.463c0.6,-0.26 1.29,-0.588 2.07,-0.984c0.781,-0.396 1.601,-0.855 2.461,-1.375c-0.486,0.871 -0.925,1.694 -1.315,2.469c-0.39,0.775 -0.716,1.462 -0.976,2.062l-4.48,9.062Zm-103.811,109.801l1.91,-1.336c0.482,-0.35 0.776,-0.697 0.882,-1.04c0.105,-0.343 0.046,-0.765 -0.179,-1.267c-0.237,-0.475 -0.32,-0.99 -0.247,-1.544c0.072,-0.555 0.336,-1.06 0.792,-1.515c0.561,-0.561 1.132,-0.825 1.712,-0.792c0.581,0.033 1.155,0.333 1.723,0.901c0.277,0.277 0.498,0.564 0.663,0.861c0.165,0.297 0.228,0.627 0.188,0.99c-0.039,0.363 -0.198,0.776 -0.475,1.238c-0.277,0.462 -0.716,0.993 -1.317,1.593l2.119,2.119c0.713,-0.713 1.317,-1.221 1.812,-1.525c0.495,-0.303 0.93,-0.465 1.306,-0.485c0.376,-0.02 0.71,0.073 1,0.277c0.291,0.205 0.591,0.462 0.901,0.773c0.238,0.237 0.429,0.514 0.574,0.831c0.145,0.317 0.225,0.65 0.238,1c0.013,0.35 -0.05,0.709 -0.188,1.079c-0.139,0.37 -0.38,0.726 -0.723,1.069c-0.449,0.449 -0.964,0.716 -1.544,0.802c-0.581,0.086 -1.294,0.003 -2.139,-0.247c-0.369,-0.106 -0.739,-0.04 -1.108,0.198c-0.37,0.237 -0.664,0.603 -0.881,1.098l-0.812,1.921c0.904,0.442 1.757,0.751 2.559,0.926c0.802,0.174 1.567,0.211 2.297,0.108c0.729,-0.102 1.435,-0.346 2.118,-0.732c0.683,-0.386 1.368,-0.922 2.054,-1.609c0.667,-0.666 1.213,-1.401 1.639,-2.202c0.425,-0.802 0.683,-1.624 0.772,-2.465c0.089,-0.842 -0.012,-1.685 -0.302,-2.53c-0.291,-0.845 -0.819,-1.65 -1.584,-2.415c-1.617,-1.617 -3.505,-1.908 -5.663,-0.871c0.225,-0.462 0.383,-0.914 0.476,-1.357c0.092,-0.442 0.102,-0.881 0.029,-1.316c-0.072,-0.436 -0.236,-0.873 -0.49,-1.312c-0.254,-0.439 -0.609,-0.886 -1.064,-1.341c-0.502,-0.502 -1.077,-0.88 -1.727,-1.134c-0.651,-0.254 -1.339,-0.361 -2.065,-0.322c-0.725,0.04 -1.466,0.236 -2.222,0.589c-0.756,0.354 -1.49,0.886 -2.203,1.599c-0.66,0.66 -1.189,1.365 -1.588,2.114c-0.4,0.749 -0.644,1.524 -0.733,2.326c-0.089,0.802 -0.017,1.62 0.218,2.455c0.234,0.835 0.658,1.665 1.272,2.49Zm-17.295,9.058l-2.672,2.673l2.831,2.831l1.841,1.287c0.429,0.284 0.82,0.437 1.173,0.46c0.353,0.023 0.678,-0.113 0.975,-0.41c0.35,-0.35 0.507,-0.695 0.471,-1.035c-0.037,-0.34 -0.203,-0.718 -0.5,-1.133l-1.287,-1.842l-2.832,-2.831Zm-24.758,29.906l5.92,-5.92l-2.574,-2.573l-9.286,9.285l14.424,14.424l9.285,-9.286l-2.573,-2.574l-5.92,5.92l-3.435,-3.435l4.533,-4.534l-2.474,-2.475l-4.534,4.534l-3.366,-3.366Zm58.448,-242.018c1.777,-1.776 3.126,-3.742 4.048,-5.897c0.922,-2.155 1.389,-4.359 1.4,-6.61c0.011,-2.252 -0.447,-4.492 -1.375,-6.721c-0.927,-2.228 -2.353,-4.304 -4.276,-6.228c-1.924,-1.923 -4,-3.354 -6.228,-4.293c-2.229,-0.939 -4.472,-1.406 -6.729,-1.4c-2.257,0.005 -4.463,0.469 -6.619,1.391c-2.155,0.922 -4.126,2.277 -5.914,4.065c-1.788,1.787 -3.142,3.759 -4.064,5.914c-0.922,2.155 -1.389,4.364 -1.4,6.627c-0.012,2.263 0.452,4.508 1.391,6.737c0.939,2.229 2.37,4.305 4.294,6.228c1.923,1.924 3.996,3.352 6.219,4.285c2.224,0.934 4.464,1.392 6.721,1.375c2.257,-0.017 4.463,-0.486 6.618,-1.408c2.155,-0.923 4.127,-2.277 5.914,-4.065Zm-5.871,-5.872c-1.234,1.233 -2.498,2.181 -3.793,2.843c-1.296,0.662 -2.58,1.035 -3.853,1.12c-1.272,0.085 -2.517,-0.125 -3.733,-0.628c-1.216,-0.503 -2.373,-1.304 -3.471,-2.401c-1.108,-1.109 -1.917,-2.274 -2.426,-3.496c-0.51,-1.222 -0.722,-2.469 -0.637,-3.742c0.085,-1.273 0.458,-2.557 1.12,-3.853c0.662,-1.295 1.61,-2.559 2.843,-3.793c1.222,-1.221 2.48,-2.163 3.776,-2.825c1.295,-0.662 2.579,-1.035 3.852,-1.12c1.273,-0.085 2.523,0.124 3.751,0.628c1.227,0.503 2.395,1.309 3.504,2.418c1.097,1.097 1.895,2.257 2.393,3.479c0.498,1.222 0.704,2.469 0.619,3.742c-0.085,1.273 -0.458,2.557 -1.12,3.852c-0.662,1.296 -1.603,2.554 -2.825,3.776Zm-45.549,-45.549c1.776,-1.776 3.111,-3.728 4.005,-5.855c0.893,-2.127 1.329,-4.299 1.306,-6.516c-0.022,-2.218 -0.512,-4.427 -1.468,-6.627c-0.956,-2.201 -2.395,-4.263 -4.319,-6.186l-9.605,-9.605l-24.726,24.726l9.605,9.605c1.924,1.923 3.983,3.366 6.178,4.328c2.195,0.961 4.404,1.451 6.627,1.468c2.223,0.017 4.398,-0.422 6.525,-1.316c2.127,-0.893 4.084,-2.234 5.872,-4.022Zm-5.872,-5.872c-1.233,1.234 -2.5,2.184 -3.802,2.852c-1.301,0.667 -2.59,1.046 -3.869,1.137c-1.278,0.09 -2.531,-0.111 -3.759,-0.603c-1.227,-0.492 -2.39,-1.287 -3.487,-2.384l-3.836,-3.836l15.902,-15.901l3.835,3.835c1.098,1.098 1.892,2.26 2.384,3.488c0.493,1.227 0.693,2.48 0.603,3.759c-0.091,1.278 -0.47,2.568 -1.137,3.869c-0.668,1.301 -1.612,2.563 -2.834,3.784Zm118.37,93.661l-5.77,-5.77l-10.336,10.335l-10.046,-10.046l10.335,-10.336l-5.77,-5.77l-24.726,24.727l5.77,5.77l10.454,-10.454l10.046,10.046l-10.454,10.454l5.77,5.77l24.727,-24.726Zm-65.657,38.784c-2.459,3.505 -11.75,0.618 -16.657,-5.176c-5.512,-5.196 -8.031,-14.767 -4.516,-17.158c2.458,-3.504 11.749,-0.617 16.656,5.176c5.512,5.196 8.031,14.767 4.517,17.158Z" style="fill:#940024;"/></g></svg>