<?xml version="1.0" encoding="UTF-8" standalone="no"?><!DOCTYPE svg PUBLIC "-//W3C//DTD SVG 1.1//EN" "http://www.w3.org/Graphics/SVG/1.1/DTD/svg11.dtd"><svg width="100%" height="100%" viewBox="0 0 717 199" version="1.1" xmlns="http://www.w3.org/2000/svg" xmlns:xlink="http://www.w3.org/1999/xlink" xml:space="preserve" xmlns:serif="http://www.serif.com/" style="fill-rule:evenodd;clip-rule:evenodd;stroke-linejoin:round;stroke-miterlimit:2;"><rect id="Artboard6" x="0.021" y="0.178" width="715.968" height="198.648" style="fill:none;"/><clipPath id="_clip1"><rect id="Artboard61" serif:id="Artboard6" x="0.021" y="0.178" width="715.968" height="198.648"/></clipPath><g clip-path="url(#_clip1)"><path d="M169.885,138.376l23.698,-54.195c1.769,-5.76 0.691,-12.827 -2.715,-17.797c-3.228,-5.088 -9.3,-8.861 -15.291,-9.502c-5.965,-0.853 -12.779,1.31 -17.16,5.447c-4.524,3.979 -7.308,10.564 -7.01,16.582l21.502,-0.682l-41.254,94.344l-8.564,19.584c-36.446,-12.193 -65.764,-55.695 -63.386,-94.053l21.355,0c-0.987,24.014 12.082,50.447 31.763,64.242l30.892,-70.647l-139.622,-0c-1.997,0.202 -4.262,-2.062 -4.059,-4.059c-0.203,-1.997 2.062,-4.261 4.059,-4.059l125.973,-3.993c-0.607,-12.119 5.083,-25.397 14.275,-33.316c8.896,-8.251 22.726,-12.422 34.7,-10.467c12.038,1.516 24.121,9.433 30.317,19.865c6.573,10.198 8.269,24.544 4.256,35.994l-24.422,55.85c-2.756,6.099 -2.079,14.32 1.64,19.885c3.44,5.741 10.581,9.87 17.273,9.986l413.89,-0c17.584,-0.841 37.794,-9.795 51.653,-24.667c13.859,-14.871 21.369,-35.661 20.97,-53.26c0.399,-17.601 -7.111,-38.39 -20.97,-53.261c-13.859,-14.872 -34.069,-23.826 -51.653,-24.667l-468.324,-0c-29.313,0.77 -60.472,24.89 -68.564,53.074l-22.437,0.711c7.572,-39.198 50.372,-74.814 90.294,-75.137l469.738,0c22.491,0.886 48.469,12.198 66.293,31.171c17.825,18.973 27.494,45.606 26.975,68.109c0.519,22.502 -9.15,49.136 -26.975,68.109c-17.824,18.972 -43.802,30.284 -66.293,31.17l-412.42,-0c-13.918,0.808 -29.473,-7.204 -36.897,-19.005c-1.747,-2.457 -3.186,-5.199 -4.306,-8.114c-2.022,-5.184 -3.001,-10.948 -2.903,-16.65c0.087,-5.842 1.303,-11.602 3.709,-16.592Zm115.676,-44.861c0.32,-0 0.64,0.06 0.96,0.18c0.32,0.12 0.626,0.327 0.92,0.62l5.36,5.64c-2.347,3.067 -5.287,5.38 -8.82,6.94c-3.534,1.56 -7.714,2.34 -12.54,2.34c-4.427,-0 -8.394,-0.753 -11.9,-2.26c-3.507,-1.507 -6.48,-3.587 -8.92,-6.24c-2.44,-2.653 -4.314,-5.8 -5.62,-9.44c-1.307,-3.64 -1.96,-7.593 -1.96,-11.86c-0,-4.347 0.706,-8.34 2.12,-11.98c1.413,-3.64 3.4,-6.78 5.96,-9.42c2.56,-2.64 5.626,-4.693 9.2,-6.16c3.573,-1.467 7.506,-2.2 11.8,-2.2c2.186,-0 4.246,0.193 6.18,0.58c1.933,0.387 3.74,0.92 5.42,1.6c1.68,0.68 3.226,1.5 4.64,2.46c1.413,0.96 2.666,2 3.76,3.12l-4.56,6.12c-0.294,0.373 -0.64,0.713 -1.04,1.02c-0.4,0.307 -0.96,0.46 -1.68,0.46c-0.48,-0 -0.934,-0.107 -1.36,-0.32c-0.427,-0.213 -0.88,-0.473 -1.36,-0.78c-0.48,-0.307 -1.007,-0.64 -1.58,-1c-0.574,-0.36 -1.254,-0.693 -2.04,-1c-0.787,-0.307 -1.707,-0.567 -2.76,-0.78c-1.054,-0.213 -2.287,-0.32 -3.7,-0.32c-2.24,-0 -4.287,0.413 -6.14,1.24c-1.854,0.827 -3.454,2.033 -4.8,3.62c-1.347,1.587 -2.387,3.533 -3.12,5.84c-0.734,2.307 -1.1,4.94 -1.1,7.9c-0,2.987 0.406,5.64 1.22,7.96c0.813,2.32 1.92,4.273 3.32,5.86c1.4,1.587 3.033,2.793 4.9,3.62c1.866,0.827 3.866,1.24 6,1.24c1.226,-0 2.346,-0.06 3.36,-0.18c1.013,-0.12 1.96,-0.32 2.84,-0.6c0.88,-0.28 1.706,-0.653 2.48,-1.12c0.773,-0.467 1.56,-1.06 2.36,-1.78c0.32,-0.267 0.666,-0.487 1.04,-0.66c0.373,-0.173 0.76,-0.26 1.16,-0.26Zm81,-14.08c-0,4.213 -0.727,8.133 -2.18,11.76c-1.454,3.627 -3.5,6.78 -6.14,9.46c-2.64,2.68 -5.82,4.78 -9.54,6.3c-3.72,1.52 -7.847,2.28 -12.38,2.28c-4.534,-0 -8.667,-0.76 -12.4,-2.28c-3.734,-1.52 -6.927,-3.62 -9.58,-6.3c-2.654,-2.68 -4.707,-5.833 -6.16,-9.46c-1.454,-3.627 -2.18,-7.547 -2.18,-11.76c-0,-4.213 0.726,-8.133 2.18,-11.76c1.453,-3.627 3.506,-6.773 6.16,-9.44c2.653,-2.667 5.846,-4.76 9.58,-6.28c3.733,-1.52 7.866,-2.28 12.4,-2.28c4.533,-0 8.66,0.767 12.38,2.3c3.72,1.533 6.9,3.633 9.54,6.3c2.64,2.667 4.686,5.813 6.14,9.44c1.453,3.627 2.18,7.533 2.18,11.72Zm-13.84,-0c-0,-2.88 -0.374,-5.473 -1.12,-7.78c-0.747,-2.307 -1.82,-4.26 -3.22,-5.86c-1.4,-1.6 -3.114,-2.827 -5.14,-3.68c-2.027,-0.853 -4.334,-1.28 -6.92,-1.28c-2.614,-0 -4.94,0.427 -6.98,1.28c-2.04,0.853 -3.76,2.08 -5.16,3.68c-1.4,1.6 -2.474,3.553 -3.22,5.86c-0.747,2.307 -1.12,4.9 -1.12,7.78c-0,2.907 0.373,5.513 1.12,7.82c0.746,2.307 1.82,4.26 3.22,5.86c1.4,1.6 3.12,2.82 5.16,3.66c2.04,0.84 4.366,1.26 6.98,1.26c2.586,-0 4.893,-0.42 6.92,-1.26c2.026,-0.84 3.74,-2.06 5.14,-3.66c1.4,-1.6 2.473,-3.553 3.22,-5.86c0.746,-2.307 1.12,-4.913 1.12,-7.82Zm68.92,18.36l-0,10.8l-35.12,-0l-0,-58.28l13.52,-0l-0,47.48l21.6,-0Zm84.4,-47.48l-0,58.28l-11.92,-0l-0,-33.52c-0,-0.773 0.02,-1.613 0.06,-2.52c0.04,-0.907 0.113,-1.827 0.22,-2.76l-15.48,29.96c-0.48,0.933 -1.127,1.64 -1.94,2.12c-0.814,0.48 -1.74,0.72 -2.78,0.72l-1.84,-0c-1.04,-0 -1.967,-0.24 -2.78,-0.72c-0.814,-0.48 -1.46,-1.187 -1.94,-2.12l-15.48,-30.04c0.08,0.96 0.146,1.9 0.2,2.82c0.053,0.92 0.08,1.767 0.08,2.54l-0,33.52l-11.92,-0l-0,-58.28l10.32,-0c0.586,-0 1.1,0.013 1.54,0.04c0.44,0.027 0.833,0.107 1.18,0.24c0.346,0.133 0.66,0.34 0.94,0.62c0.28,0.28 0.553,0.673 0.82,1.18l15,29.56c0.533,1.013 1.046,2.067 1.54,3.16c0.493,1.093 0.966,2.213 1.42,3.36c0.453,-1.173 0.926,-2.32 1.42,-3.44c0.493,-1.12 1.02,-2.187 1.58,-3.2l14.96,-29.44c0.266,-0.507 0.54,-0.9 0.82,-1.18c0.28,-0.28 0.593,-0.487 0.94,-0.62c0.346,-0.133 0.74,-0.213 1.18,-0.24c0.44,-0.027 0.953,-0.04 1.54,-0.04l10.32,-0Zm75.56,58.28l-10.48,-0c-1.174,-0 -2.12,-0.273 -2.84,-0.82c-0.72,-0.547 -1.267,-1.247 -1.64,-2.1l-3.44,-10.16l-22.16,-0l-3.44,10.16c-0.294,0.747 -0.82,1.42 -1.58,2.02c-0.76,0.6 -1.7,0.9 -2.82,0.9l-10.56,-0l22.56,-58.28l13.84,-0l22.56,58.28Zm-21.48,-22.28l-5.4,-15.96c-0.4,-1.013 -0.827,-2.207 -1.28,-3.58c-0.454,-1.373 -0.907,-2.86 -1.36,-4.46c-0.4,1.627 -0.827,3.133 -1.28,4.52c-0.454,1.387 -0.88,2.587 -1.28,3.6l-5.36,15.88l15.96,-0Zm85.76,22.28l-12.24,-0c-2.267,-0 -3.894,-0.853 -4.88,-2.56l-9.68,-16.92c-0.454,-0.72 -0.96,-1.247 -1.52,-1.58c-0.56,-0.333 -1.36,-0.5 -2.4,-0.5l-3.44,-0l-0,21.56l-13.52,-0l-0,-58.28l18.96,-0c4.213,-0 7.806,0.433 10.78,1.3c2.973,0.867 5.4,2.073 7.28,3.62c1.88,1.547 3.246,3.373 4.1,5.48c0.853,2.107 1.28,4.4 1.28,6.88c-0,1.893 -0.254,3.68 -0.76,5.36c-0.507,1.68 -1.254,3.233 -2.24,4.66c-0.987,1.427 -2.207,2.7 -3.66,3.82c-1.454,1.12 -3.127,2.04 -5.02,2.76c0.88,0.453 1.706,1.02 2.48,1.7c0.773,0.68 1.466,1.487 2.08,2.42l12.4,20.28Zm-28.72,-30.88c1.84,-0 3.406,-0.233 4.7,-0.7c1.293,-0.467 2.353,-1.113 3.18,-1.94c0.826,-0.827 1.426,-1.793 1.8,-2.9c0.373,-1.107 0.56,-2.3 0.56,-3.58c-0,-2.56 -0.834,-4.56 -2.5,-6c-1.667,-1.44 -4.247,-2.16 -7.74,-2.16l-5.44,-0l-0,17.28l5.44,-0Zm-344.64,71.261l-5.24,-0c-0.587,-0 -1.06,-0.137 -1.42,-0.41c-0.36,-0.273 -0.634,-0.623 -0.82,-1.05l-1.72,-5.08l-11.08,-0l-1.72,5.08c-0.147,0.373 -0.41,0.71 -0.79,1.01c-0.38,0.3 -0.85,0.45 -1.41,0.45l-5.28,-0l11.28,-29.14l6.92,-0l11.28,29.14Zm-10.74,-11.14l-2.7,-7.98c-0.2,-0.507 -0.414,-1.103 -0.64,-1.79c-0.227,-0.687 -0.454,-1.43 -0.68,-2.23c-0.2,0.813 -0.414,1.567 -0.64,2.26c-0.227,0.693 -0.44,1.293 -0.64,1.8l-2.68,7.94l7.98,-0Zm24.44,5.8c0.906,-0 1.716,-0.15 2.43,-0.45c0.713,-0.3 1.316,-0.73 1.81,-1.29c0.493,-0.56 0.87,-1.243 1.13,-2.05c0.26,-0.807 0.39,-1.723 0.39,-2.75l-0,-17.26l6.76,-0l-0,17.26c-0,1.787 -0.29,3.427 -0.87,4.92c-0.58,1.493 -1.41,2.78 -2.49,3.86c-1.08,1.08 -2.394,1.92 -3.94,2.52c-1.547,0.6 -3.287,0.9 -5.22,0.9c-1.947,-0 -3.694,-0.3 -5.24,-0.9c-1.547,-0.6 -2.86,-1.44 -3.94,-2.52c-1.08,-1.08 -1.907,-2.367 -2.48,-3.86c-0.574,-1.493 -0.86,-3.133 -0.86,-4.92l-0,-17.26l6.76,-0l-0,17.24c-0,1.027 0.13,1.943 0.39,2.75c0.26,0.807 0.636,1.493 1.13,2.06c0.493,0.567 1.096,1 1.81,1.3c0.713,0.3 1.523,0.45 2.43,0.45Zm31.8,-9.76l10.36,-0l-0,12.3c-1.494,1.093 -3.084,1.887 -4.77,2.38c-1.687,0.493 -3.45,0.74 -5.29,0.74c-2.4,-0 -4.584,-0.377 -6.55,-1.13c-1.967,-0.753 -3.65,-1.793 -5.05,-3.12c-1.4,-1.327 -2.48,-2.9 -3.24,-4.72c-0.76,-1.82 -1.14,-3.797 -1.14,-5.93c-0,-2.173 0.36,-4.17 1.08,-5.99c0.72,-1.82 1.75,-3.39 3.09,-4.71c1.34,-1.32 2.96,-2.347 4.86,-3.08c1.9,-0.733 4.023,-1.1 6.37,-1.1c1.213,-0 2.353,0.1 3.42,0.3c1.066,0.2 2.05,0.473 2.95,0.82c0.9,0.347 1.723,0.76 2.47,1.24c0.746,0.48 1.413,1 2,1.56l-1.96,2.98c-0.307,0.467 -0.704,0.753 -1.19,0.86c-0.487,0.107 -1.01,-0.013 -1.57,-0.36c-0.534,-0.32 -1.037,-0.597 -1.51,-0.83c-0.474,-0.233 -0.957,-0.423 -1.45,-0.57c-0.494,-0.147 -1.014,-0.253 -1.56,-0.32c-0.547,-0.067 -1.16,-0.1 -1.84,-0.1c-1.267,-0 -2.407,0.223 -3.42,0.67c-1.014,0.447 -1.877,1.077 -2.59,1.89c-0.714,0.813 -1.264,1.79 -1.65,2.93c-0.387,1.14 -0.58,2.41 -0.58,3.81c-0,1.547 0.213,2.92 0.64,4.12c0.426,1.2 1.03,2.213 1.81,3.04c0.78,0.827 1.713,1.457 2.8,1.89c1.086,0.433 2.29,0.65 3.61,0.65c0.813,-0 1.55,-0.08 2.21,-0.24c0.66,-0.16 1.303,-0.373 1.93,-0.64l-0,-4.42l-2.88,-0c-0.427,-0 -0.76,-0.113 -1,-0.34c-0.24,-0.227 -0.36,-0.513 -0.36,-0.86l-0,-3.72Zm40.84,9.5c0.666,-0 1.193,0.183 1.58,0.55c0.386,0.367 0.58,0.85 0.58,1.45l-0,3.6l-20.48,-0l-0,-2c-0,-0.387 0.08,-0.8 0.24,-1.24c0.16,-0.44 0.44,-0.84 0.84,-1.2l8.4,-8.46c0.72,-0.72 1.346,-1.407 1.88,-2.06c0.533,-0.653 0.973,-1.297 1.32,-1.93c0.346,-0.633 0.606,-1.267 0.78,-1.9c0.173,-0.633 0.26,-1.303 0.26,-2.01c-0,-1.16 -0.277,-2.05 -0.83,-2.67c-0.554,-0.62 -1.397,-0.93 -2.53,-0.93c-0.92,-0 -1.697,0.243 -2.33,0.73c-0.634,0.487 -1.07,1.09 -1.31,1.81c-0.28,0.733 -0.647,1.22 -1.1,1.46c-0.454,0.24 -1.1,0.293 -1.94,0.16l-3.28,-0.58c0.213,-1.453 0.623,-2.72 1.23,-3.8c0.606,-1.08 1.36,-1.98 2.26,-2.7c0.9,-0.72 1.93,-1.257 3.09,-1.61c1.16,-0.353 2.406,-0.53 3.74,-0.53c1.44,-0 2.736,0.21 3.89,0.63c1.153,0.42 2.136,1.003 2.95,1.75c0.813,0.747 1.436,1.637 1.87,2.67c0.433,1.033 0.65,2.17 0.65,3.41c-0,1.067 -0.15,2.053 -0.45,2.96c-0.3,0.907 -0.71,1.77 -1.23,2.59c-0.52,0.82 -1.124,1.613 -1.81,2.38c-0.687,0.767 -1.417,1.543 -2.19,2.33l-5.7,5.84c0.733,-0.227 1.46,-0.4 2.18,-0.52c0.72,-0.12 1.386,-0.18 2,-0.18l5.44,-0Zm26.08,-8.98c-0,2.547 -0.274,4.753 -0.82,6.62c-0.547,1.867 -1.304,3.413 -2.27,4.64c-0.967,1.227 -2.114,2.14 -3.44,2.74c-1.327,0.6 -2.764,0.9 -4.31,0.9c-1.547,-0 -2.977,-0.3 -4.29,-0.9c-1.314,-0.6 -2.45,-1.513 -3.41,-2.74c-0.96,-1.227 -1.71,-2.773 -2.25,-4.64c-0.54,-1.867 -0.81,-4.073 -0.81,-6.62c-0,-2.547 0.27,-4.753 0.81,-6.62c0.54,-1.867 1.29,-3.413 2.25,-4.64c0.96,-1.227 2.096,-2.137 3.41,-2.73c1.313,-0.593 2.743,-0.89 4.29,-0.89c1.546,-0 2.983,0.297 4.31,0.89c1.326,0.593 2.473,1.503 3.44,2.73c0.966,1.227 1.723,2.773 2.27,4.64c0.546,1.867 0.82,4.073 0.82,6.62Zm-6.4,-0c-0,-2.013 -0.127,-3.663 -0.38,-4.95c-0.254,-1.287 -0.59,-2.297 -1.01,-3.03c-0.42,-0.733 -0.897,-1.237 -1.43,-1.51c-0.534,-0.273 -1.074,-0.41 -1.62,-0.41c-0.547,-0 -1.084,0.137 -1.61,0.41c-0.527,0.273 -0.994,0.777 -1.4,1.51c-0.407,0.733 -0.734,1.743 -0.98,3.03c-0.247,1.287 -0.37,2.937 -0.37,4.95c-0,2.027 0.123,3.68 0.37,4.96c0.246,1.28 0.573,2.29 0.98,3.03c0.406,0.74 0.873,1.247 1.4,1.52c0.526,0.273 1.063,0.41 1.61,0.41c0.546,-0 1.086,-0.137 1.62,-0.41c0.533,-0.273 1.01,-0.78 1.43,-1.52c0.42,-0.74 0.756,-1.75 1.01,-3.03c0.253,-1.28 0.38,-2.933 0.38,-4.96Zm26.72,8.98c0.666,-0 1.193,0.183 1.58,0.55c0.386,0.367 0.58,0.85 0.58,1.45l-0,3.6l-20.48,-0l-0,-2c-0,-0.387 0.08,-0.8 0.24,-1.24c0.16,-0.44 0.44,-0.84 0.84,-1.2l8.4,-8.46c0.72,-0.72 1.346,-1.407 1.88,-2.06c0.533,-0.653 0.973,-1.297 1.32,-1.93c0.346,-0.633 0.606,-1.267 0.78,-1.9c0.173,-0.633 0.26,-1.303 0.26,-2.01c-0,-1.16 -0.277,-2.05 -0.83,-2.67c-0.554,-0.62 -1.397,-0.93 -2.53,-0.93c-0.92,-0 -1.697,0.243 -2.33,0.73c-0.634,0.487 -1.07,1.09 -1.31,1.81c-0.28,0.733 -0.647,1.22 -1.1,1.46c-0.454,0.24 -1.1,0.293 -1.94,0.16l-3.28,-0.58c0.213,-1.453 0.623,-2.72 1.23,-3.8c0.606,-1.08 1.36,-1.98 2.26,-2.7c0.9,-0.72 1.93,-1.257 3.09,-1.61c1.16,-0.353 2.406,-0.53 3.74,-0.53c1.44,-0 2.736,0.21 3.89,0.63c1.153,0.42 2.136,1.003 2.95,1.75c0.813,0.747 1.436,1.637 1.87,2.67c0.433,1.033 0.65,2.17 0.65,3.41c-0,1.067 -0.15,2.053 -0.45,2.96c-0.3,0.907 -0.71,1.77 -1.23,2.59c-0.52,0.82 -1.124,1.613 -1.81,2.38c-0.687,0.767 -1.417,1.543 -2.19,2.33l-5.7,5.84c0.733,-0.227 1.46,-0.4 2.18,-0.52c0.72,-0.12 1.386,-0.18 2,-0.18l5.44,-0Zm5.44,-15.22c0.213,-1.453 0.623,-2.72 1.23,-3.8c0.606,-1.08 1.36,-1.98 2.26,-2.7c0.9,-0.72 1.93,-1.257 3.09,-1.61c1.16,-0.353 2.406,-0.53 3.74,-0.53c1.44,-0 2.72,0.203 3.84,0.61c1.12,0.407 2.066,0.957 2.84,1.65c0.773,0.693 1.36,1.497 1.76,2.41c0.4,0.913 0.6,1.877 0.6,2.89c-0,0.92 -0.094,1.73 -0.28,2.43c-0.187,0.7 -0.464,1.307 -0.83,1.82c-0.367,0.513 -0.82,0.947 -1.36,1.3c-0.54,0.353 -1.157,0.65 -1.85,0.89c3.226,1.133 4.84,3.333 4.84,6.6c-0,1.547 -0.28,2.893 -0.84,4.04c-0.56,1.147 -1.31,2.1 -2.25,2.86c-0.94,0.76 -2.03,1.33 -3.27,1.71c-1.24,0.38 -2.534,0.57 -3.88,0.57c-1.387,-0 -2.62,-0.15 -3.7,-0.45c-1.08,-0.3 -2.04,-0.767 -2.88,-1.4c-0.84,-0.633 -1.577,-1.443 -2.21,-2.43c-0.634,-0.987 -1.184,-2.16 -1.65,-3.52l2.76,-1.12c0.72,-0.28 1.386,-0.353 2,-0.22c0.613,0.133 1.053,0.44 1.32,0.92c0.6,1.107 1.236,1.91 1.91,2.41c0.673,0.5 1.463,0.75 2.37,0.75c0.693,-0 1.296,-0.117 1.81,-0.35c0.513,-0.233 0.94,-0.533 1.28,-0.9c0.34,-0.367 0.596,-0.783 0.77,-1.25c0.173,-0.467 0.26,-0.94 0.26,-1.42c-0,-0.627 -0.044,-1.19 -0.13,-1.69c-0.087,-0.5 -0.33,-0.93 -0.73,-1.29c-0.4,-0.36 -1.004,-0.637 -1.81,-0.83c-0.807,-0.193 -1.93,-0.29 -3.37,-0.29l-0,-4.28c1.213,-0 2.193,-0.093 2.94,-0.28c0.746,-0.187 1.323,-0.443 1.73,-0.77c0.406,-0.327 0.676,-0.723 0.81,-1.19c0.133,-0.467 0.2,-0.98 0.2,-1.54c-0,-1.147 -0.277,-2.03 -0.83,-2.65c-0.554,-0.62 -1.397,-0.93 -2.53,-0.93c-0.92,-0 -1.697,0.243 -2.33,0.73c-0.634,0.487 -1.07,1.09 -1.31,1.81c-0.28,0.733 -0.647,1.22 -1.1,1.46c-0.454,0.24 -1.1,0.293 -1.94,0.16l-3.28,-0.58Zm50.857,-3.442c5.349,-0 9.692,4.343 9.692,9.692c0,5.349 -4.343,9.692 -9.692,9.692c-5.349,0 -9.692,-4.343 -9.692,-9.692c-0,-5.349 4.343,-9.692 9.692,-9.692Zm81.763,24.262l-10.52,-0c-1.134,-0 -1.947,-0.427 -2.44,-1.28l-4.84,-8.46c-0.227,-0.36 -0.48,-0.623 -0.76,-0.79c-0.28,-0.167 -0.68,-0.25 -1.2,-0.25l-1.72,-0l-0,10.78l-6.76,-0l-0,-29.14l9.48,-0c2.106,-0 3.903,0.217 5.39,0.65c1.486,0.433 2.7,1.037 3.64,1.81c0.94,0.773 1.623,1.687 2.05,2.74c0.426,1.053 0.64,2.2 0.64,3.44c-0,0.947 -0.127,1.84 -0.38,2.68c-0.254,0.84 -0.627,1.617 -1.12,2.33c-0.494,0.713 -1.104,1.35 -1.83,1.91c-0.727,0.56 -1.564,1.02 -2.51,1.38c0.44,0.227 0.853,0.51 1.24,0.85c0.386,0.34 0.733,0.743 1.04,1.21l5.661,9.259l10.939,-28.259l6.92,-0l11.28,29.14l-5.24,-0c-0.587,-0 -1.06,-0.137 -1.42,-0.41c-0.36,-0.273 -0.634,-0.623 -0.82,-1.05l-1.72,-5.08l-11.08,-0l-1.72,5.08c-0.147,0.373 -0.41,0.71 -0.79,1.01c-0.38,0.3 -0.85,0.45 -1.41,0.45Zm13.46,-11.14l-2.7,-7.98c-0.2,-0.507 -0.414,-1.103 -0.64,-1.79c-0.227,-0.687 -0.454,-1.43 -0.68,-2.23c-0.2,0.813 -0.414,1.567 -0.64,2.26c-0.227,0.693 -0.44,1.293 -0.64,1.8l-2.68,7.94l7.98,-0Zm-32.22,-4.3c0.92,-0 1.703,-0.117 2.35,-0.35c0.646,-0.233 1.176,-0.557 1.59,-0.97c0.413,-0.413 0.713,-0.897 0.9,-1.45c0.186,-0.553 0.28,-1.15 0.28,-1.79c-0,-1.28 -0.417,-2.28 -1.25,-3c-0.834,-0.72 -2.124,-1.08 -3.87,-1.08l-2.72,-0l-0,8.64l2.72,-0Zm-25.34,-8.5l-0,7.38l9.96,-0l-0,5.22l-9.96,-0l-0,11.34l-6.8,-0l-0,-29.14l18.76,-0l-0,5.2l-11.96,-0Zm96.04,-5.2l-0,29.14l-3.52,-0c-0.52,-0 -0.957,-0.083 -1.31,-0.25c-0.354,-0.167 -0.704,-0.457 -1.05,-0.87l-13.74,-17.38c0.053,0.52 0.09,1.023 0.11,1.51c0.02,0.487 0.03,0.943 0.03,1.37l-0,15.62l-5.96,-0l-0,-29.14l3.56,-0c0.293,-0 0.54,0.013 0.74,0.04c0.2,0.027 0.38,0.077 0.54,0.15c0.16,0.073 0.313,0.177 0.46,0.31c0.146,0.133 0.313,0.313 0.5,0.54l13.86,17.5c-0.067,-0.56 -0.114,-1.103 -0.14,-1.63c-0.027,-0.527 -0.04,-1.023 -0.04,-1.49l-0,-15.42l5.96,-0Zm25.28,21.6c0.16,-0 0.32,0.03 0.48,0.09c0.16,0.06 0.313,0.163 0.46,0.31l2.68,2.82c-1.174,1.533 -2.644,2.69 -4.41,3.47c-1.767,0.78 -3.857,1.17 -6.27,1.17c-2.214,-0 -4.197,-0.377 -5.95,-1.13c-1.754,-0.753 -3.24,-1.793 -4.46,-3.12c-1.22,-1.327 -2.157,-2.9 -2.81,-4.72c-0.654,-1.82 -0.98,-3.797 -0.98,-5.93c-0,-2.173 0.353,-4.17 1.06,-5.99c0.706,-1.82 1.7,-3.39 2.98,-4.71c1.28,-1.32 2.813,-2.347 4.6,-3.08c1.786,-0.733 3.753,-1.1 5.9,-1.1c1.093,-0 2.123,0.097 3.09,0.29c0.966,0.193 1.87,0.46 2.71,0.8c0.84,0.34 1.613,0.75 2.32,1.23c0.706,0.48 1.333,1 1.88,1.56l-2.28,3.06c-0.147,0.187 -0.32,0.357 -0.52,0.51c-0.2,0.153 -0.48,0.23 -0.84,0.23c-0.24,-0 -0.467,-0.053 -0.68,-0.16c-0.214,-0.107 -0.44,-0.237 -0.68,-0.39c-0.24,-0.153 -0.504,-0.32 -0.79,-0.5c-0.287,-0.18 -0.627,-0.347 -1.02,-0.5c-0.394,-0.153 -0.854,-0.283 -1.38,-0.39c-0.527,-0.107 -1.144,-0.16 -1.85,-0.16c-1.12,-0 -2.144,0.207 -3.07,0.62c-0.927,0.413 -1.727,1.017 -2.4,1.81c-0.674,0.793 -1.194,1.767 -1.56,2.92c-0.367,1.153 -0.55,2.47 -0.55,3.95c-0,1.493 0.203,2.82 0.61,3.98c0.406,1.16 0.96,2.137 1.66,2.93c0.7,0.793 1.516,1.397 2.45,1.81c0.933,0.413 1.933,0.62 3,0.62c0.613,-0 1.173,-0.03 1.68,-0.09c0.506,-0.06 0.98,-0.16 1.42,-0.3c0.44,-0.14 0.853,-0.327 1.24,-0.56c0.386,-0.233 0.78,-0.53 1.18,-0.89c0.16,-0.133 0.333,-0.243 0.52,-0.33c0.186,-0.087 0.38,-0.13 0.58,-0.13Zm13.38,-16.4l-0,6.8l9.16,-0l-0,5l-9.16,-0l-0,6.94l11.96,-0l-0,5.2l-18.76,-0l-0,-29.14l18.76,-0l-0,5.2l-11.96,-0Z" style="fill:#dd00cb;"/></g></svg>