<?xml version="1.0" encoding="UTF-8" standalone="no"?><!DOCTYPE svg PUBLIC "-//W3C//DTD SVG 1.1//EN" "http://www.w3.org/Graphics/SVG/1.1/DTD/svg11.dtd"><svg width="100%" height="100%" viewBox="0 0 328 293" version="1.1" xmlns="http://www.w3.org/2000/svg" xmlns:xlink="http://www.w3.org/1999/xlink" xml:space="preserve" xmlns:serif="http://www.serif.com/" style="fill-rule:evenodd;clip-rule:evenodd;stroke-linejoin:round;stroke-miterlimit:2;"><rect id="Artboard3" x="0.169" y="0.178" width="327.384" height="292.104" style="fill:none;"/><clipPath id="_clip1"><rect id="Artboard31" serif:id="Artboard3" x="0.169" y="0.178" width="327.384" height="292.104"/></clipPath><g clip-path="url(#_clip1)"><path d="M18.852,189.385c1.818,0.675 3.893,0.603 5.726,-0.335l3.372,-1.724c-1.004,0.513 0.014,-0.011 0.783,-0.399c0.919,-0.464 1.738,-1.127 2.391,-1.957l2.82,-3.587l1.491,-1.892c0.015,-0.019 0.03,-0.038 0.044,-0.057l0.541,-0.695c0.365,-0.467 0.675,-0.983 0.919,-1.542l0.707,-1.621l2.694,-6.159c0.308,-0.704 0.5,-1.454 0.569,-2.22l0.666,-7.44l0.202,-0.432l1.305,-1.33l2.999,-1.362c1.259,-0.571 2.324,-1.497 3.066,-2.664l1.251,-1.968l6.884,-10.83c0.221,-0.348 0.412,-0.715 0.569,-1.097l1.829,-4.417l1.545,-1.568c0.914,-0.724 1.765,-1.807 2.285,-3.407l0.278,-0.857l0.01,-0.032l1.634,-4.892l4.782,-6.665c0.353,-0.492 0.641,-1.026 0.859,-1.591l1.63,-4.23l3.891,-3.513l5.026,-2.477l4.53,-0.479l2.326,6.264c0.555,1.494 1.594,2.759 2.953,3.592l4.091,2.511l1.299,0.814c0.957,0.599 2.039,0.961 3.158,1.06l1.008,0.589c-0.11,-0 -0.219,-0.003 -0.329,-0.008l4.692,0.216c2.29,0.106 4.491,-0.897 5.914,-2.694l2.506,-3.166l0.342,-0.099c1.945,-0.561 3.56,-1.922 4.441,-3.744l0.23,-0.476l1.907,-0.264c0.4,-0.056 0.795,-0.145 1.18,-0.267l6.776,-2.155c0.474,-0.151 0.931,-0.351 1.364,-0.597l7.6,-4.323c0.483,-0.274 0.932,-0.604 1.338,-0.983l2.556,-2.385c0.973,-0.908 1.673,-2.07 2.019,-3.355l0.238,-0.883c0.674,0.36 1.413,0.615 2.193,0.744c2.766,0.457 5.543,-0.75 7.095,-3.085l1.754,-2.64l0.131,0.056c0.863,0.366 1.79,0.558 2.728,0.565l7.601,0.057c0.458,0.003 0.916,-0.038 1.367,-0.122l21.747,-4.081l3.997,-0.309l10.325,1.013c0.437,0.042 0.876,0.045 1.313,0.007l3.984,-0.347l0.012,-0.001l11.222,-0.996l8.905,2.258c0.55,0.14 1.114,0.213 1.681,0.218l4.397,0.044l10.581,4.231c1.124,0.449 2.343,0.604 3.543,0.452l2.583,-0.328l0.644,-0.078l7.777,2.933c1.018,0.384 2.111,0.53 3.195,0.426l4.169,-0.401l1.58,0.328c0.269,0.055 0.54,0.095 0.813,0.12l1.656,0.244c-0,0 2.796,0.414 5.309,-2.374l0.345,-0.383l1.737,-0.327l13.775,-0.806c0.971,-0.056 1.907,-0.31 2.758,-0.734l0,200.036l-294.498,0c-0.276,-33.593 6.087,-69.132 18.674,-102.928Zm254.352,9.717l1.64,0.29c0.42,0.067 0.744,0.04 0.97,-0.08c0.227,-0.12 0.41,-0.363 0.55,-0.73c0.12,-0.36 0.339,-0.661 0.655,-0.905c0.317,-0.243 0.705,-0.365 1.165,-0.365c0.567,0 0.989,0.155 1.265,0.465c0.277,0.31 0.415,0.752 0.415,1.325c0,0.28 -0.033,0.537 -0.1,0.77c-0.066,0.234 -0.201,0.432 -0.405,0.595c-0.203,0.164 -0.491,0.292 -0.865,0.385c-0.373,0.094 -0.863,0.14 -1.47,0.14l0,2.14c0.72,0 1.282,0.049 1.685,0.145c0.404,0.097 0.705,0.235 0.905,0.415c0.2,0.18 0.322,0.395 0.365,0.645c0.044,0.25 0.065,0.532 0.065,0.845c0,0.24 -0.043,0.477 -0.13,0.71c-0.086,0.234 -0.215,0.442 -0.385,0.625c-0.17,0.184 -0.383,0.334 -0.64,0.45c-0.256,0.117 -0.558,0.175 -0.905,0.175c-0.453,0 -0.848,-0.125 -1.185,-0.375c-0.336,-0.25 -0.655,-0.651 -0.955,-1.205c-0.133,-0.24 -0.353,-0.393 -0.66,-0.46c-0.306,-0.066 -0.64,-0.03 -1,0.11l-1.38,0.56c0.234,0.68 0.509,1.267 0.825,1.76c0.317,0.494 0.685,0.899 1.105,1.215c0.42,0.317 0.9,0.55 1.44,0.7c0.54,0.15 1.157,0.225 1.85,0.225c0.674,0 1.32,-0.095 1.94,-0.285c0.62,-0.19 1.165,-0.475 1.635,-0.855c0.47,-0.38 0.845,-0.856 1.125,-1.43c0.28,-0.573 0.42,-1.246 0.42,-2.02c0,-1.633 -0.806,-2.733 -2.42,-3.3c0.347,-0.12 0.655,-0.268 0.925,-0.445c0.27,-0.176 0.497,-0.393 0.68,-0.65c0.184,-0.256 0.322,-0.56 0.415,-0.91c0.094,-0.35 0.14,-0.755 0.14,-1.215c0,-0.506 -0.1,-0.988 -0.3,-1.445c-0.2,-0.456 -0.493,-0.858 -0.88,-1.205c-0.386,-0.346 -0.86,-0.621 -1.42,-0.825c-0.56,-0.203 -1.2,-0.305 -1.92,-0.305c-0.666,0 -1.29,0.089 -1.87,0.265c-0.58,0.177 -1.095,0.445 -1.545,0.805c-0.45,0.36 -0.826,0.81 -1.13,1.35c-0.303,0.54 -0.508,1.174 -0.615,1.9Zm-69.597,75.179l-9.72,0l0,-21.366l-6.084,0l0,26.226l15.804,0l0,-4.86Zm80.46,-8.262c0,-1.884 -0.327,-3.627 -0.981,-5.229c-0.654,-1.602 -1.575,-2.985 -2.763,-4.149c-1.188,-1.164 -2.619,-2.076 -4.293,-2.736c-1.674,-0.66 -3.531,-0.99 -5.571,-0.99l-10.188,0l0,26.226l10.188,0c2.04,0 3.897,-0.327 5.571,-0.981c1.674,-0.654 3.105,-1.566 4.293,-2.736c1.188,-1.17 2.109,-2.556 2.763,-4.158c0.654,-1.602 0.981,-3.351 0.981,-5.247Zm-6.228,0c0,1.308 -0.168,2.484 -0.504,3.528c-0.336,1.044 -0.819,1.929 -1.449,2.655c-0.63,0.726 -1.401,1.284 -2.313,1.674c-0.912,0.39 -1.95,0.585 -3.114,0.585l-4.068,0l0,-16.866l4.068,0c1.164,0 2.202,0.195 3.114,0.585c0.912,0.39 1.683,0.948 2.313,1.674c0.63,0.726 1.113,1.611 1.449,2.655c0.336,1.044 0.504,2.214 0.504,3.51Zm-191.988,-13.104l-4.788,0c-0.504,0 -0.936,0.132 -1.296,0.396c-0.36,0.264 -0.588,0.57 -0.684,0.918l-3.6,13.68c-0.108,0.42 -0.213,0.867 -0.315,1.341c-0.102,0.474 -0.201,0.981 -0.297,1.521c-0.216,-1.068 -0.48,-2.022 -0.792,-2.862l-4.212,-13.68c-0.168,-0.384 -0.414,-0.699 -0.738,-0.945c-0.324,-0.246 -0.75,-0.369 -1.278,-0.369l-1.8,0c-0.504,0 -0.933,0.135 -1.287,0.405c-0.354,0.27 -0.585,0.573 -0.693,0.909l-4.248,13.68c-0.312,0.876 -0.576,1.878 -0.792,3.006c-0.108,-0.552 -0.216,-1.083 -0.324,-1.593c-0.108,-0.51 -0.216,-0.981 -0.324,-1.413l-3.6,-13.68c-0.108,-0.396 -0.339,-0.714 -0.693,-0.954c-0.354,-0.24 -0.795,-0.36 -1.323,-0.36l-5.112,0l8.1,26.226l5.508,0l5.004,-16.254c0.096,-0.252 0.186,-0.531 0.27,-0.837c0.084,-0.306 0.168,-0.627 0.252,-0.963c0.084,0.336 0.168,0.657 0.252,0.963c0.084,0.306 0.174,0.585 0.27,0.837l4.932,16.254l5.508,0l8.1,-26.226Zm101.431,-30.054l0,-4.824l-20.844,-0l0,4.824l7.38,-0l0,21.402l6.084,-0l0,-21.402l7.38,-0Zm-142.399,35.382l1.512,-2.826c-0.468,-0.432 -0.999,-0.819 -1.593,-1.161c-0.594,-0.342 -1.233,-0.636 -1.917,-0.882c-0.684,-0.246 -1.407,-0.432 -2.169,-0.558c-0.762,-0.126 -1.545,-0.189 -2.349,-0.189c-1.44,0 -2.718,0.219 -3.834,0.657c-1.116,0.438 -2.058,1.023 -2.826,1.755c-0.768,0.732 -1.35,1.566 -1.746,2.502c-0.396,0.936 -0.594,1.896 -0.594,2.88c0,1.224 0.168,2.253 0.504,3.087c0.336,0.834 0.777,1.53 1.323,2.088c0.546,0.558 1.167,1.008 1.863,1.35c0.696,0.342 1.41,0.63 2.142,0.864c0.732,0.234 1.446,0.447 2.142,0.639c0.696,0.192 1.317,0.414 1.863,0.666c0.546,0.252 0.987,0.57 1.323,0.954c0.336,0.384 0.504,0.882 0.504,1.494c0,1.056 -0.306,1.827 -0.918,2.313c-0.612,0.486 -1.47,0.729 -2.574,0.729c-0.816,0 -1.524,-0.114 -2.124,-0.342c-0.6,-0.228 -1.131,-0.48 -1.593,-0.756c-0.462,-0.276 -0.876,-0.528 -1.242,-0.756c-0.366,-0.228 -0.729,-0.342 -1.089,-0.342c-0.276,0 -0.531,0.069 -0.765,0.207c-0.234,0.138 -0.423,0.309 -0.567,0.513l-1.8,2.844c0.516,0.516 1.122,0.984 1.818,1.404c0.696,0.42 1.44,0.783 2.232,1.089c0.792,0.306 1.611,0.543 2.457,0.711c0.846,0.168 1.677,0.252 2.493,0.252c1.488,0 2.817,-0.225 3.987,-0.675c1.17,-0.45 2.154,-1.068 2.952,-1.854c0.798,-0.786 1.407,-1.707 1.827,-2.763c0.42,-1.056 0.63,-2.19 0.63,-3.402c0,-1.092 -0.168,-2.025 -0.504,-2.799c-0.336,-0.774 -0.777,-1.431 -1.323,-1.971c-0.546,-0.54 -1.17,-0.984 -1.872,-1.332c-0.702,-0.348 -1.419,-0.651 -2.151,-0.909c-0.732,-0.258 -1.449,-0.492 -2.151,-0.702c-0.702,-0.21 -1.326,-0.441 -1.872,-0.693c-0.546,-0.252 -0.987,-0.552 -1.323,-0.9c-0.336,-0.348 -0.504,-0.786 -0.504,-1.314c0,-0.828 0.279,-1.485 0.837,-1.971c0.558,-0.486 1.407,-0.729 2.547,-0.729c0.66,0 1.248,0.087 1.764,0.261c0.516,0.174 0.975,0.369 1.377,0.585c0.402,0.216 0.762,0.411 1.08,0.585c0.318,0.174 0.615,0.261 0.891,0.261c0.312,0 0.567,-0.072 0.765,-0.216c0.198,-0.144 0.387,-0.36 0.567,-0.648Zm215.441,-56.021c0,-1.273 -0.136,-2.376 -0.41,-3.31c-0.273,-0.933 -0.651,-1.706 -1.135,-2.32c-0.483,-0.613 -1.056,-1.068 -1.72,-1.365c-0.663,-0.296 -1.381,-0.445 -2.155,-0.445c-0.773,0 -1.488,0.149 -2.145,0.445c-0.656,0.297 -1.225,0.752 -1.705,1.365c-0.48,0.614 -0.855,1.387 -1.125,2.32c-0.27,0.934 -0.405,2.037 -0.405,3.31c0,1.274 0.135,2.377 0.405,3.31c0.27,0.934 0.645,1.707 1.125,2.32c0.48,0.614 1.049,1.07 1.705,1.37c0.657,0.3 1.372,0.45 2.145,0.45c0.774,0 1.492,-0.15 2.155,-0.45c0.664,-0.3 1.237,-0.756 1.72,-1.37c0.484,-0.613 0.862,-1.386 1.135,-2.32c0.274,-0.933 0.41,-2.036 0.41,-3.31Zm-3.2,0c0,1.014 -0.063,1.84 -0.19,2.48c-0.126,0.64 -0.295,1.145 -0.505,1.515c-0.21,0.37 -0.448,0.624 -0.715,0.76c-0.266,0.137 -0.536,0.205 -0.81,0.205c-0.273,0 -0.541,-0.068 -0.805,-0.205c-0.263,-0.136 -0.496,-0.39 -0.7,-0.76c-0.203,-0.37 -0.366,-0.875 -0.49,-1.515c-0.123,-0.64 -0.185,-1.466 -0.185,-2.48c0,-1.006 0.062,-1.831 0.185,-2.475c0.124,-0.643 0.287,-1.148 0.49,-1.515c0.204,-0.366 0.437,-0.618 0.7,-0.755c0.264,-0.136 0.532,-0.205 0.805,-0.205c0.274,0 0.544,0.069 0.81,0.205c0.267,0.137 0.505,0.389 0.715,0.755c0.21,0.367 0.379,0.872 0.505,1.515c0.127,0.644 0.19,1.469 0.19,2.475Zm-30.26,-0.26l0,1.86c0,0.174 0.06,0.317 0.18,0.43c0.12,0.114 0.287,0.17 0.5,0.17l1.44,0l0,2.21c-0.313,0.134 -0.635,0.24 -0.965,0.32c-0.33,0.08 -0.698,0.12 -1.105,0.12c-0.66,0 -1.261,-0.108 -1.805,-0.325c-0.543,-0.216 -1.01,-0.531 -1.4,-0.945c-0.39,-0.413 -0.691,-0.92 -0.905,-1.52c-0.213,-0.6 -0.32,-1.286 -0.32,-2.06c0,-0.7 0.097,-1.335 0.29,-1.905c0.194,-0.57 0.469,-1.058 0.825,-1.465c0.357,-0.406 0.789,-0.721 1.295,-0.945c0.507,-0.223 1.077,-0.335 1.71,-0.335c0.34,0 0.647,0.017 0.92,0.05c0.274,0.034 0.534,0.087 0.78,0.16c0.247,0.074 0.489,0.169 0.725,0.285c0.237,0.117 0.489,0.255 0.755,0.415c0.28,0.174 0.542,0.234 0.785,0.18c0.244,-0.053 0.442,-0.196 0.595,-0.43l0.98,-1.49c-0.293,-0.28 -0.626,-0.54 -1,-0.78c-0.373,-0.24 -0.785,-0.446 -1.235,-0.62c-0.45,-0.173 -0.941,-0.31 -1.475,-0.41c-0.533,-0.1 -1.103,-0.15 -1.71,-0.15c-1.173,0 -2.235,0.184 -3.185,0.55c-0.95,0.367 -1.76,0.88 -2.43,1.54c-0.67,0.66 -1.185,1.445 -1.545,2.355c-0.36,0.91 -0.54,1.909 -0.54,2.995c0,1.067 0.19,2.055 0.57,2.965c0.38,0.91 0.92,1.697 1.62,2.36c0.7,0.664 1.542,1.184 2.525,1.56c0.984,0.377 2.075,0.565 3.275,0.565c0.92,0 1.802,-0.123 2.645,-0.37c0.844,-0.246 1.639,-0.643 2.385,-1.19l0,-6.15l-5.18,0Zm20.42,4.75l-2.72,0c-0.306,0 -0.64,0.03 -1,0.09c-0.36,0.06 -0.723,0.147 -1.09,0.26l2.85,-2.92c0.387,-0.393 0.752,-0.781 1.095,-1.165c0.344,-0.383 0.645,-0.78 0.905,-1.19c0.26,-0.41 0.465,-0.841 0.615,-1.295c0.15,-0.453 0.225,-0.946 0.225,-1.48c0,-0.62 -0.108,-1.188 -0.325,-1.705c-0.216,-0.516 -0.528,-0.961 -0.935,-1.335c-0.406,-0.373 -0.898,-0.665 -1.475,-0.875c-0.576,-0.21 -1.225,-0.315 -1.945,-0.315c-0.666,0 -1.29,0.089 -1.87,0.265c-0.58,0.177 -1.095,0.445 -1.545,0.805c-0.45,0.36 -0.826,0.81 -1.13,1.35c-0.303,0.54 -0.508,1.174 -0.615,1.9l1.64,0.29c0.42,0.067 0.744,0.04 0.97,-0.08c0.227,-0.12 0.41,-0.363 0.55,-0.73c0.12,-0.36 0.339,-0.661 0.655,-0.905c0.317,-0.243 0.705,-0.365 1.165,-0.365c0.567,0 0.989,0.155 1.265,0.465c0.277,0.31 0.415,0.755 0.415,1.335c0,0.354 -0.043,0.689 -0.13,1.005c-0.086,0.317 -0.216,0.634 -0.39,0.95c-0.173,0.317 -0.393,0.639 -0.66,0.965c-0.266,0.327 -0.58,0.67 -0.94,1.03l-4.2,4.23c-0.2,0.18 -0.34,0.38 -0.42,0.6c-0.08,0.22 -0.12,0.427 -0.12,0.62l0,1l10.24,0l0,-1.8c0,-0.3 -0.096,-0.541 -0.29,-0.725c-0.193,-0.183 -0.456,-0.275 -0.79,-0.275Zm23.2,0l-2.72,0c-0.306,0 -0.64,0.03 -1,0.09c-0.36,0.06 -0.723,0.147 -1.09,0.26l2.85,-2.92c0.387,-0.393 0.752,-0.781 1.095,-1.165c0.344,-0.383 0.645,-0.78 0.905,-1.19c0.26,-0.41 0.465,-0.841 0.615,-1.295c0.15,-0.453 0.225,-0.946 0.225,-1.48c0,-0.62 -0.108,-1.188 -0.325,-1.705c-0.216,-0.516 -0.528,-0.961 -0.935,-1.335c-0.406,-0.373 -0.898,-0.665 -1.475,-0.875c-0.576,-0.21 -1.225,-0.315 -1.945,-0.315c-0.666,0 -1.29,0.089 -1.87,0.265c-0.58,0.177 -1.095,0.445 -1.545,0.805c-0.45,0.36 -0.826,0.81 -1.13,1.35c-0.303,0.54 -0.508,1.174 -0.615,1.9l1.64,0.29c0.42,0.067 0.744,0.04 0.97,-0.08c0.227,-0.12 0.41,-0.363 0.55,-0.73c0.12,-0.36 0.339,-0.661 0.655,-0.905c0.317,-0.243 0.705,-0.365 1.165,-0.365c0.567,0 0.989,0.155 1.265,0.465c0.277,0.31 0.415,0.755 0.415,1.335c0,0.354 -0.043,0.689 -0.13,1.005c-0.086,0.317 -0.216,0.634 -0.39,0.95c-0.173,0.317 -0.393,0.639 -0.66,0.965c-0.266,0.327 -0.58,0.67 -0.94,1.03l-4.2,4.23c-0.2,0.18 -0.34,0.38 -0.42,0.6c-0.08,0.22 -0.12,0.427 -0.12,0.62l0,1l10.24,0l0,-1.8c0,-0.3 -0.096,-0.541 -0.29,-0.725c-0.193,-0.183 -0.456,-0.275 -0.79,-0.275Zm-59.52,0.13c-0.453,0 -0.858,-0.075 -1.215,-0.225c-0.356,-0.15 -0.658,-0.366 -0.905,-0.65c-0.246,-0.283 -0.435,-0.626 -0.565,-1.03c-0.13,-0.403 -0.195,-0.861 -0.195,-1.375l0,-8.62l-3.38,0l0,8.63c0,0.894 0.144,1.714 0.43,2.46c0.287,0.747 0.7,1.39 1.24,1.93c0.54,0.54 1.197,0.96 1.97,1.26c0.774,0.3 1.647,0.45 2.62,0.45c0.967,0 1.837,-0.15 2.61,-0.45c0.774,-0.3 1.43,-0.72 1.97,-1.26c0.54,-0.54 0.955,-1.183 1.245,-1.93c0.29,-0.746 0.435,-1.566 0.435,-2.46l0,-8.63l-3.38,0l0,8.63c0,0.514 -0.065,0.972 -0.195,1.375c-0.13,0.404 -0.318,0.745 -0.565,1.025c-0.246,0.28 -0.548,0.495 -0.905,0.645c-0.356,0.15 -0.761,0.225 -1.215,0.225Zm-47.604,11.195l-5.364,-0l0,13.878c0,0.42 0.012,0.867 0.036,1.341c0.024,0.474 0.066,0.963 0.126,1.467l-12.474,-15.75c-0.168,-0.204 -0.318,-0.366 -0.45,-0.486c-0.132,-0.12 -0.27,-0.213 -0.414,-0.279c-0.144,-0.066 -0.306,-0.111 -0.486,-0.135c-0.18,-0.024 -0.402,-0.036 -0.666,-0.036l-3.204,-0l0,26.226l5.364,-0l0,-14.058c0,-0.384 -0.009,-0.795 -0.027,-1.233c-0.018,-0.438 -0.051,-0.891 -0.099,-1.359l12.366,15.642c0.312,0.372 0.627,0.633 0.945,0.783c0.318,0.15 0.711,0.225 1.179,0.225l3.168,-0l0,-26.226Zm-68.779,61.104l0,-26.226l-6.12,0l0,26.226l6.12,0Zm125.569,-56.424l10.764,-0l0,-4.68l-16.884,-0l0,26.226l16.884,-0l0,-4.68l-10.764,-0l0,-6.246l8.244,-0l0,-4.5l-8.244,-0l0,-6.12Zm-83.268,8.424c0,-1.884 -0.327,-3.642 -0.981,-5.274c-0.654,-1.632 -1.575,-3.048 -2.763,-4.248c-1.188,-1.2 -2.619,-2.145 -4.293,-2.835c-1.674,-0.69 -3.531,-1.035 -5.571,-1.035c-2.04,-0 -3.9,0.342 -5.58,1.026c-1.68,0.684 -3.117,1.626 -4.311,2.826c-1.194,1.2 -2.118,2.616 -2.772,4.248c-0.654,1.632 -0.981,3.396 -0.981,5.292c0,1.896 0.327,3.66 0.981,5.292c0.654,1.632 1.578,3.051 2.772,4.257c1.194,1.206 2.631,2.151 4.311,2.835c1.68,0.684 3.54,1.026 5.58,1.026c2.04,-0 3.897,-0.342 5.571,-1.026c1.674,-0.684 3.105,-1.629 4.293,-2.835c1.188,-1.206 2.109,-2.625 2.763,-4.257c0.654,-1.632 0.981,-3.396 0.981,-5.292Zm-6.228,-0c0,1.308 -0.168,2.481 -0.504,3.519c-0.336,1.038 -0.819,1.917 -1.449,2.637c-0.63,0.72 -1.401,1.269 -2.313,1.647c-0.912,0.378 -1.95,0.567 -3.114,0.567c-1.176,-0 -2.223,-0.189 -3.141,-0.567c-0.918,-0.378 -1.692,-0.927 -2.322,-1.647c-0.63,-0.72 -1.113,-1.599 -1.449,-2.637c-0.336,-1.038 -0.504,-2.211 -0.504,-3.519c0,-1.296 0.168,-2.463 0.504,-3.501c0.336,-1.038 0.819,-1.917 1.449,-2.637c0.63,-0.72 1.404,-1.272 2.322,-1.656c0.918,-0.384 1.965,-0.576 3.141,-0.576c1.164,-0 2.202,0.192 3.114,0.576c0.912,0.384 1.683,0.936 2.313,1.656c0.63,0.72 1.113,1.599 1.449,2.637c0.336,1.038 0.504,2.205 0.504,3.501Zm153.468,13.122l-8.406,-13.752l8.226,-12.474l-5.832,-0c-0.276,-0 -0.507,0.06 -0.693,0.18c-0.186,0.12 -0.363,0.312 -0.531,0.576l-4.572,7.848c-0.096,0.156 -0.183,0.306 -0.261,0.45c-0.078,0.144 -0.147,0.294 -0.207,0.45l-5.22,-8.838c-0.144,-0.24 -0.309,-0.411 -0.495,-0.513c-0.186,-0.102 -0.477,-0.153 -0.873,-0.153l-6.084,-0l8.118,12.726l-8.442,13.5l5.688,-0c0.36,-0 0.654,-0.102 0.882,-0.306c0.228,-0.204 0.426,-0.426 0.594,-0.666l4.896,-8.496c0.12,-0.192 0.228,-0.42 0.324,-0.684l5.256,9.18c0.144,0.264 0.339,0.492 0.585,0.684c0.246,0.192 0.567,0.288 0.963,0.288l6.084,-0Zm-38.52,-4.806c-0.816,-0 -1.545,-0.135 -2.187,-0.405c-0.642,-0.27 -1.185,-0.66 -1.629,-1.17c-0.444,-0.51 -0.783,-1.128 -1.017,-1.854c-0.234,-0.726 -0.351,-1.551 -0.351,-2.475l0,-15.516l-6.084,-0l0,15.534c0,1.608 0.258,3.084 0.774,4.428c0.516,1.344 1.26,2.502 2.232,3.474c0.972,0.972 2.154,1.728 3.546,2.268c1.392,0.54 2.964,0.81 4.716,0.81c1.74,-0 3.306,-0.27 4.698,-0.81c1.392,-0.54 2.574,-1.296 3.546,-2.268c0.972,-0.972 1.719,-2.13 2.241,-3.474c0.522,-1.344 0.783,-2.82 0.783,-4.428l0,-15.534l-6.084,-0l0,15.534c0,0.924 -0.117,1.749 -0.351,2.475c-0.234,0.726 -0.573,1.341 -1.017,1.845c-0.444,0.504 -0.987,0.891 -1.629,1.161c-0.642,0.27 -1.371,0.405 -2.187,0.405Zm-95.977,18.138l10.764,0l0,-4.68l-16.884,0l0,26.226l16.884,0l0,-4.68l-10.764,0l0,-6.246l8.244,0l0,-4.5l-8.244,0l0,-6.12Zm62.191,-13.332l-5.58,-9.126c-0.276,-0.42 -0.588,-0.783 -0.936,-1.089c-0.348,-0.306 -0.72,-0.561 -1.116,-0.765c0.852,-0.324 1.605,-0.738 2.259,-1.242c0.654,-0.504 1.203,-1.077 1.647,-1.719c0.444,-0.642 0.78,-1.341 1.008,-2.097c0.228,-0.756 0.342,-1.56 0.342,-2.412c0,-1.116 -0.192,-2.148 -0.576,-3.096c-0.384,-0.948 -0.999,-1.77 -1.845,-2.466c-0.846,-0.696 -1.938,-1.239 -3.276,-1.629c-1.338,-0.39 -2.955,-0.585 -4.851,-0.585l-8.532,-0l0,26.226l6.084,-0l0,-9.702l1.548,-0c0.468,-0 0.828,0.075 1.08,0.225c0.252,0.15 0.48,0.387 0.684,0.711l4.356,7.614c0.444,0.768 1.176,1.152 2.196,1.152l5.508,-0Zm-12.924,-13.896l-2.448,-0l0,-7.776l2.448,-0c1.572,-0 2.733,0.324 3.483,0.972c0.75,0.648 1.125,1.548 1.125,2.7c0,0.576 -0.084,1.113 -0.252,1.611c-0.168,0.498 -0.438,0.933 -0.81,1.305c-0.372,0.372 -0.849,0.663 -1.431,0.873c-0.582,0.21 -1.287,0.315 -2.115,0.315Zm5.222,-20.855l-5.64,-14.57l-3.46,0l-5.64,14.57l2.64,0c0.28,0 0.515,-0.075 0.705,-0.225c0.19,-0.15 0.322,-0.318 0.395,-0.505l0.86,-2.54l5.54,0l0.86,2.54c0.094,0.214 0.23,0.389 0.41,0.525c0.18,0.137 0.417,0.205 0.71,0.205l2.62,0Zm-5.37,-5.57l-3.99,0l1.34,-3.97c0.1,-0.253 0.207,-0.553 0.32,-0.9c0.114,-0.346 0.22,-0.723 0.32,-1.13c0.114,0.4 0.227,0.772 0.34,1.115c0.114,0.344 0.22,0.642 0.32,0.895l1.35,3.99Zm-92.678,14.095l-4.644,-0c-0.264,-0 -0.495,0.006 -0.693,0.018c-0.198,0.012 -0.375,0.048 -0.531,0.108c-0.156,0.06 -0.297,0.153 -0.423,0.279c-0.126,0.126 -0.249,0.303 -0.369,0.531l-6.732,13.248c-0.252,0.456 -0.489,0.936 -0.711,1.44c-0.222,0.504 -0.435,1.02 -0.639,1.548c-0.204,-0.516 -0.417,-1.02 -0.639,-1.512c-0.222,-0.492 -0.453,-0.966 -0.693,-1.422l-6.75,-13.302c-0.12,-0.228 -0.243,-0.405 -0.369,-0.531c-0.126,-0.126 -0.267,-0.219 -0.423,-0.279c-0.156,-0.06 -0.333,-0.096 -0.531,-0.108c-0.198,-0.012 -0.429,-0.018 -0.693,-0.018l-4.644,-0l0,26.226l5.364,-0l0,-15.084c0,-0.348 -0.012,-0.729 -0.036,-1.143c-0.024,-0.414 -0.054,-0.837 -0.09,-1.269l6.966,13.518c0.216,0.42 0.507,0.738 0.873,0.954c0.366,0.216 0.783,0.324 1.251,0.324l0.828,-0c0.468,-0 0.885,-0.108 1.251,-0.324c0.366,-0.216 0.657,-0.534 0.873,-0.954l6.966,-13.482c-0.048,0.42 -0.081,0.834 -0.099,1.242c-0.018,0.408 -0.027,0.786 -0.027,1.134l0,15.084l5.364,-0l0,-26.226Zm124.163,61.104l-10.152,-26.226l-6.228,0l-10.152,26.226l4.752,0c0.504,0 0.927,-0.135 1.269,-0.405c0.342,-0.27 0.579,-0.573 0.711,-0.909l1.548,-4.572l9.972,0l1.548,4.572c0.168,0.384 0.414,0.699 0.738,0.945c0.324,0.246 0.75,0.369 1.278,0.369l4.716,0Zm-9.666,-10.026l-7.182,0l2.412,-7.146c0.18,-0.456 0.372,-0.996 0.576,-1.62c0.204,-0.624 0.396,-1.302 0.576,-2.034c0.204,0.72 0.408,1.389 0.612,2.007c0.204,0.618 0.396,1.155 0.576,1.611l2.43,7.182Zm-80.388,-14.004l0,-2.196l-19.62,0l0,4.68l11.88,0l-12.348,17.64c-0.168,0.228 -0.3,0.477 -0.396,0.747c-0.096,0.27 -0.144,0.543 -0.144,0.819l0,2.34l20.232,0l0,-4.68l-12.492,0l12.312,-17.586c0.18,-0.264 0.321,-0.546 0.423,-0.846c0.102,-0.3 0.153,-0.606 0.153,-0.918Zm45.414,24.03l-5.58,-9.126c-0.276,-0.42 -0.588,-0.783 -0.936,-1.089c-0.348,-0.306 -0.72,-0.561 -1.116,-0.765c0.852,-0.324 1.605,-0.738 2.259,-1.242c0.654,-0.504 1.203,-1.077 1.647,-1.719c0.444,-0.642 0.78,-1.341 1.008,-2.097c0.228,-0.756 0.342,-1.56 0.342,-2.412c0,-1.116 -0.192,-2.148 -0.576,-3.096c-0.384,-0.948 -0.999,-1.77 -1.845,-2.466c-0.846,-0.696 -1.938,-1.239 -3.276,-1.629c-1.338,-0.39 -2.955,-0.585 -4.851,-0.585l-8.532,0l0,26.226l6.084,0l0,-9.702l1.548,0c0.468,0 0.828,0.075 1.08,0.225c0.252,0.15 0.48,0.387 0.684,0.711l4.356,7.614c0.444,0.768 1.176,1.152 2.196,1.152l5.508,0Zm-12.924,-13.896l-2.448,0l0,-7.776l2.448,0c1.572,0 2.733,0.324 3.483,0.972c0.75,0.648 1.125,1.548 1.125,2.7c0,0.576 -0.084,1.113 -0.252,1.611c-0.168,0.498 -0.438,0.933 -0.81,1.305c-0.372,0.372 -0.849,0.663 -1.431,0.873c-0.582,0.21 -1.287,0.315 -2.115,0.315Zm-54.162,-7.506l0,-4.824l-20.844,0l0,4.824l7.38,0l0,21.402l6.084,0l0,-21.402l7.38,0Zm136.692,-4.824l-5.364,0l0,13.878c0,0.42 0.012,0.867 0.036,1.341c0.024,0.474 0.066,0.963 0.126,1.467l-12.474,-15.75c-0.168,-0.204 -0.318,-0.366 -0.45,-0.486c-0.132,-0.12 -0.27,-0.213 -0.414,-0.279c-0.144,-0.066 -0.306,-0.111 -0.486,-0.135c-0.18,-0.024 -0.402,-0.036 -0.666,-0.036l-3.204,0l0,26.226l5.364,0l0,-14.058c0,-0.384 -0.009,-0.795 -0.027,-1.233c-0.018,-0.438 -0.051,-0.891 -0.099,-1.359l12.366,15.642c0.312,0.372 0.627,0.633 0.945,0.783c0.318,0.15 0.711,0.225 1.179,0.225l3.168,0l0,-26.226Zm62.759,-196.818l-23.152,23.153l-23.153,-23.153c-9.078,-8.307 -12.306,-24.535 -7.098,-35.683c4.201,-11.566 17.958,-20.758 30.251,-20.213c12.293,-0.545 26.05,8.647 30.25,20.213c5.208,11.148 1.981,27.376 -7.098,35.683Zm-11.576,-34.729c-5.119,-6.274 -18.034,-6.274 -23.153,-0c-6.273,5.119 -6.273,18.034 0,23.152c5.119,6.274 18.034,6.274 23.153,0c6.274,-5.118 6.274,-18.033 0,-23.152Zm-28.082,58.167c3.921,-0.709 3.218,-0.386 9.487,-0.79c2.231,2.356 3.66,3.863 3.66,3.863c0.501,0.501 1.086,0.866 1.71,1.097l-1.651,2.194l-14.23,0.832l-5.104,0.962l-0.639,1.221l-0.777,0.863l-1.023,-0.216l-2.635,-0.546l-5.241,0.503l-9.412,-3.549l-2.399,0.29l-2.605,0.331l-11.821,-4.727l-5.732,-0.056l-10.079,-2.557l-12.429,1.104l-3.983,0.347l-10.948,-1.075l-5.005,0.388l-22.126,4.152l-7.601,-0.057l-4.199,-1.781l-2.724,1.449l-3.676,5.531l-0.59,-2.226l2.104,-4.31l0.216,-0.431l-0.53,-1.035l-6.843,3.218l-2.784,2.513l-1.061,3.935l-0.984,3.65l-2.556,2.385l-7.6,4.323l-6.777,2.154l-5.683,0.789l-1.889,3.907l-2.537,0.731l-3.924,4.957l-4.691,-0.217l-0.383,-0.561l-1.328,-0.832l-4.119,-2.528l-2.891,-7.785l-1.888,-2.37l-3.443,-0.876l-7.325,0.775l-7.052,3.476l-5.889,5.316l-2.242,5.817l-5.409,7.54l-1.985,5.944l-0.304,0.937l-3.098,3.143l-2.36,5.703l-6.883,10.83l-1.251,1.967l-4.208,1.91l-3.087,3.147l-1.249,2.669l-0.778,8.689l-2.696,6.162l-0.708,1.624l-0.569,0.733l-1.494,1.895l-2.823,3.591l-0.816,0.416l-3.373,1.724l-0.757,-1.021l0.226,-0.889l0.531,-2.125l-0.304,-2.413l-1.003,-7.929l0.846,-7.51l2.055,-4.855l3.01,-2.442l1.336,-3.031l1.339,-13.227l7.07,-10.846l1.797,-3.304l3.865,-13.961l3.62,-6.145l4.259,-5.215l2.91,-2.427l2.902,-4.425l2.241,-1.68l5.614,-1.969l3.295,-1.738l3.766,-7.914l1.574,-5.3l3.411,-1.738l3.315,-5.515l9.391,-9.896l4.72,-3.462l4.426,-0.603l10.137,1.206l3.286,0.174l20.129,-8.819l5.753,-6.235l2.979,-1.12l3.519,-6.349l2.616,-1.567l3.648,-3.992l1.16,-0.289l7.247,3.978l2.123,0.245l6.226,0.258l5.939,-2.815l5.505,-0.172l6.146,0.976l4.592,2.714l10.61,1.208l4.741,-1.322l2.231,0.763l7.787,2.627l6.61,5.33l2.753,1.278l4.367,0.489l4.425,-0.461l6.706,5.101l4.917,2.225l2.803,-0.058l0.935,-0.013l3.323,0.832l10.797,2.715l1.318,1.311c0.585,0.692 2.294,2.552 4.611,5.041c-7.103,0.467 -6.925,0.432 -9.948,-0.017l-8.511,-2.14l-2.42,-0.605l-2.76,0.057c-1.063,0.022 -2.117,-0.194 -3.085,-0.632l-4.917,-2.226c-0.488,-0.22 -0.949,-0.495 -1.375,-0.82l-4.462,-3.393l-1.619,0.169c-0.509,0.053 -1.023,0.051 -1.532,-0.006l-4.367,-0.49c-0.763,-0.085 -1.508,-0.294 -2.204,-0.617l-2.754,-1.277c-0.527,-0.245 -1.022,-0.553 -1.474,-0.917l-5.619,-4.532l-6.582,-2.221l-0.025,-0.008l-0.143,-0.049l-2.614,0.728c-0.884,0.247 -1.807,0.32 -2.719,0.216l-10.61,-1.208c-0.995,-0.113 -1.956,-0.435 -2.818,-0.945l-3.425,-2.023l-4.141,-0.658l-3.345,0.104l-4.596,2.178c-1.044,0.495 -2.192,0.728 -3.346,0.681l-6.225,-0.258c-0.174,-0.007 -0.348,-0.021 -0.522,-0.041l-2.123,-0.244c-0.917,-0.106 -1.804,-0.389 -2.613,-0.833l-2.934,-1.61l-0.433,0.474c-0.467,0.51 -1.005,0.95 -1.598,1.305l-0.974,0.584l-2.592,4.675c-0.82,1.479 -2.139,2.619 -3.722,3.214l-1.397,0.526l-4.607,4.992c-0.667,0.723 -1.476,1.3 -2.377,1.694l-20.13,8.819c-1.017,0.446 -2.125,0.648 -3.235,0.589l-3.285,-0.174c-0.155,-0.008 -0.31,-0.022 -0.465,-0.04l-9.235,-1.098l-1.733,0.236l-2.746,2.014l-8.414,8.868l-2.914,4.846c-0.687,1.144 -1.682,2.071 -2.87,2.677l-0.688,0.35l-0.703,2.369c-0.105,0.354 -0.238,0.7 -0.397,1.033l-3.767,7.915c-0.66,1.387 -1.75,2.523 -3.109,3.24l-3.294,1.737c-0.311,0.164 -0.634,0.305 -0.966,0.422l-4.578,1.605l-0.362,0.272l-2.217,3.381c-0.386,0.588 -0.856,1.115 -1.396,1.565l-2.386,1.989l-3.482,4.265l-2.868,4.868l-3.614,13.055c-0.145,0.523 -0.349,1.028 -0.608,1.505l-1.798,3.303c-0.09,0.166 -0.186,0.327 -0.289,0.485l-6.125,9.395l-0.657,6.498c0.35,-0.243 0.723,-0.454 1.112,-0.631l2.279,-1.035l0.113,-0.178l6.551,-10.306l2.123,-5.13c0.351,-0.848 0.863,-1.621 1.508,-2.275l1.924,-1.953l1.78,-5.328c0.226,-0.677 0.553,-1.316 0.969,-1.896l4.877,-6.799l1.915,-4.967c0.402,-1.043 1.044,-1.977 1.873,-2.726l5.89,-5.316c0.487,-0.441 1.034,-0.812 1.624,-1.102l7.052,-3.476c0.752,-0.371 1.565,-0.606 2.399,-0.694l7.325,-0.776c0.84,-0.089 1.689,-0.028 2.507,0.181l3.442,0.875c1.507,0.384 2.848,1.25 3.817,2.467l1.888,2.37c0.469,0.59 0.843,1.251 1.105,1.958l2.035,5.479l1.802,1.106l1.235,-1.561c0.806,-1.018 1.872,-1.793 3.081,-2.247l0.517,-1.071c1.037,-2.144 3.076,-3.628 5.435,-3.955l5.082,-0.705l5.485,-1.744l6.223,-3.54l0.457,-0.426l0.454,-1.683l1.061,-3.936c0.357,-1.323 1.087,-2.515 2.105,-3.434l2.783,-2.512c0.52,-0.47 1.107,-0.86 1.742,-1.159l6.843,-3.218c2.306,-1.085 4.908,-0.827 6.909,0.469c1.366,-0.258 2.795,-0.114 4.105,0.441l2.891,1.227l5.491,0.041l21.448,-4.025c0.252,-0.047 0.507,-0.081 0.763,-0.101l5.006,-0.387c0.415,-0.033 0.832,-0.028 1.246,0.012l10.291,1.01l3.321,-0.289l12.422,-1.103c0.798,-0.071 1.603,-0.006 2.381,0.191l9.252,2.346l4.879,0.049c0.882,0.008 1.755,0.181 2.574,0.508l10.108,4.042l0.775,-0.099c0.015,-0.002 0.03,-0.003 0.044,-0.005l2.399,-0.29c1.139,-0.138 2.295,0.002 3.368,0.407l7.864,2.965l3.594,-0.345c0.516,-0.049 1.035,-0.042 1.549,0.02c0.846,-0.619 1.829,-1.051 2.886,-1.251l5.104,-0.962c0.299,-0.056 0.6,-0.093 0.904,-0.111l1.44,-0.084Z" style="fill:#c80929;"/></g></svg>