<?xml version="1.0" encoding="UTF-8" standalone="no"?><!DOCTYPE svg PUBLIC "-//W3C//DTD SVG 1.1//EN" "http://www.w3.org/Graphics/SVG/1.1/DTD/svg11.dtd"><svg width="100%" height="100%" viewBox="0 0 304 484" version="1.1" xmlns="http://www.w3.org/2000/svg" xmlns:xlink="http://www.w3.org/1999/xlink" xml:space="preserve" xmlns:serif="http://www.serif.com/" style="fill-rule:evenodd;clip-rule:evenodd;stroke-linejoin:round;stroke-miterlimit:2;"><rect id="Artboard7" x="0.071" y="0.178" width="302.976" height="483.048" style="fill:none;"/><clipPath id="_clip1"><rect id="Artboard71" serif:id="Artboard7" x="0.071" y="0.178" width="302.976" height="483.048"/></clipPath><g clip-path="url(#_clip1)"><path d="M296.055,403.277l-0,-179.501c-0,-0.019 0,-0.038 0,-0.058c0.509,-30.363 -11.087,-65.171 -32.824,-91.644c-21.736,-26.473 -53.621,-44.623 -83.503,-50.034c-1.886,-0.341 -3.14,-2.15 -2.798,-4.036c0.341,-1.886 2.15,-3.14 4.036,-2.799c31.352,5.678 64.827,24.685 87.634,52.461c22.798,27.767 34.926,64.286 34.401,96.137l-0,229.818c-0,1.918 -1.555,3.473 -3.473,3.473l-295.967,0c-1.918,0 -3.473,-1.555 -3.473,-3.473c-0,0 -0,-229.818 -0,-229.818c-0.525,-31.851 11.603,-68.37 34.401,-96.137c22.806,-27.776 56.281,-46.783 87.634,-52.461c1.886,-0.341 3.695,0.913 4.036,2.799c0.342,1.886 -0.912,3.695 -2.799,4.036c-29.881,5.411 -61.766,23.561 -83.503,50.034c-21.736,26.474 -33.332,61.281 -32.824,91.644c0.001,0.02 0.001,0.039 0.001,0.058l-0,179.501l97.373,-0l0,-160.196l-4.718,-45.988c-0.101,-0.977 0.218,-1.952 0.877,-2.681c0.658,-0.73 1.595,-1.146 2.578,-1.146l10.265,-0l34.719,-190.238c0.301,-1.651 1.739,-2.85 3.417,-2.85c1.677,0 3.115,1.199 3.416,2.85l34.719,190.238l10.265,-0c0.983,-0 1.92,0.416 2.578,1.146c0.659,0.729 0.977,1.704 0.877,2.681l-4.718,45.988l-0,160.196l97.373,-0Zm-148.397,-358.988l-27.928,153.029c-0.005,0.032 -0.011,0.063 -0.017,0.095l-6.051,33.153c3.057,-3.064 5.792,-5.127 8.259,-6.541c6.94,-3.979 11.864,-2.893 16.349,-3.684c5.866,-1.036 9.801,-6.946 9.801,-21.36l6.947,-0c-0,14.414 3.935,20.324 9.8,21.36c4.486,0.791 9.41,-0.295 16.35,3.684c2.466,1.414 5.202,3.478 8.259,6.542l-6.047,-33.134c-0.009,-0.045 -0.017,-0.09 -0.025,-0.135l-30.413,-166.645l-7.696,135.198c-0.07,1.239 -1.134,2.189 -2.374,2.118c-1.24,-0.07 -2.189,-1.134 -2.118,-2.374l6.904,-121.306Zm-69.167,399.112l-5.498,-8.992c-0.272,-0.413 -0.58,-0.771 -0.923,-1.073c-0.342,-0.301 -0.709,-0.552 -1.099,-0.753c0.839,-0.32 1.581,-0.727 2.226,-1.224c0.644,-0.497 1.185,-1.061 1.622,-1.694c0.438,-0.632 0.769,-1.321 0.994,-2.066c0.224,-0.745 0.337,-1.537 0.337,-2.376c-0,-1.1 -0.19,-2.117 -0.568,-3.051c-0.378,-0.934 -0.984,-1.744 -1.818,-2.429c-0.833,-0.686 -1.909,-1.221 -3.228,-1.606c-1.318,-0.384 -2.911,-0.576 -4.779,-0.576l-8.407,0l0,25.84l5.995,0l-0,-9.559l1.525,-0c0.461,-0 0.816,0.074 1.064,0.222c0.248,0.147 0.473,0.381 0.674,0.7l4.292,7.502c0.437,0.757 1.159,1.135 2.164,1.135l5.427,0Zm-12.734,-13.691l-2.412,-0l-0,-7.662l2.412,0c1.549,0 2.693,0.319 3.432,0.958c0.738,0.638 1.108,1.525 1.108,2.66c-0,0.568 -0.083,1.097 -0.248,1.587c-0.166,0.491 -0.432,0.92 -0.798,1.286c-0.367,0.367 -0.837,0.653 -1.41,0.86c-0.574,0.207 -1.268,0.311 -2.084,0.311Zm45.596,-26.433l80.383,-0l-0,-159.239c-5.629,-7.628 -10.154,-11.769 -14.023,-13.988c-3.28,-1.88 -6.003,-2.264 -8.416,-2.417c-2.035,-0.129 -3.898,-0.136 -5.686,-0.452c-4.652,-0.821 -9.124,-3.523 -12.067,-9.482c-2.942,5.959 -7.415,8.661 -12.066,9.482c-1.789,0.316 -3.651,0.323 -5.687,0.452c-2.413,0.153 -5.135,0.537 -8.415,2.417c-3.869,2.219 -8.394,6.36 -14.023,13.988l0,159.239Zm21.05,-50.026l-0,-0.017c-0.3,-3.428 0.976,-8.003 3.365,-12.484c3.464,-6.496 9.179,-12.767 14.367,-15.07c0.898,-0.399 1.922,-0.399 2.819,-0c5.188,2.303 10.902,8.574 14.366,15.07c2.393,4.486 3.669,9.068 3.366,12.484l0,31.021c0,1.918 -1.555,3.473 -3.473,3.473l-31.337,-0c-1.919,-0 -3.473,-1.555 -3.473,-3.473l0,-31.004Zm6.946,-0.183c-0,0 -0,27.714 -0,27.714c-0,-0 24.391,-0 24.391,-0l0,-27.714c0,-0.124 0.007,-0.247 0.02,-0.37c0.255,-2.379 -0.888,-5.527 -2.569,-8.68c-2.401,-4.502 -6.027,-9.011 -9.648,-11.24c-3.619,2.229 -7.245,6.738 -9.645,11.24c-1.682,3.153 -2.824,6.301 -2.569,8.68c0.013,0.123 0.02,0.246 0.02,0.37Zm-20.755,-81.291l-0,-0.023c-0.68,-8.105 3.374,-16.765 9.775,-23.167c6.406,-6.406 15.074,-10.461 23.16,-9.774c8.112,-0.69 16.783,3.366 23.19,9.774c6.406,6.406 10.462,15.073 9.774,23.16c0.69,8.112 -3.366,16.782 -9.774,23.19c-6.406,6.406 -15.073,10.461 -23.159,9.774c-8.112,0.69 -16.783,-3.366 -23.191,-9.774c-6.399,-6.4 -10.452,-15.056 -9.775,-23.16Zm6.943,0.335c-0.638,6.291 2.765,12.935 7.744,17.913c4.979,4.979 11.623,8.382 17.913,7.744c0.233,-0.023 0.468,-0.023 0.701,0c6.29,0.638 12.934,-2.765 17.913,-7.744c4.978,-4.978 8.381,-11.622 7.744,-17.913c-0.024,-0.233 -0.024,-0.467 -0,-0.7c0.637,-6.291 -2.766,-12.935 -7.744,-17.913c-4.979,-4.979 -11.623,-8.382 -17.913,-7.744c-0.233,0.023 -0.468,0.023 -0.701,-0c-6.29,-0.638 -12.934,2.765 -17.913,7.744c-4.979,4.978 -8.382,11.622 -7.744,17.913c0.024,0.233 0.024,0.467 0,0.7Zm22.534,-20.888c0,-1.917 1.557,-3.473 3.474,-3.473c1.916,0 3.473,1.556 3.473,3.473l-0,17.065l17.064,0c1.917,0 3.473,1.556 3.473,3.473c0,1.917 -1.556,3.473 -3.473,3.473l-20.537,0c-1.919,0 -3.474,-1.555 -3.474,-3.473l0,-20.538Zm-35.93,-51.012l-5.15,-0l1.853,18.063l3.297,-18.063Zm82.103,18.063l1.853,-18.063l-5.149,-0l3.296,18.063Zm-56.731,199.286l-6.03,0l-0,10.801l-10.499,-0l-0,-10.801l-6.03,0l-0,25.84l6.03,0l-0,-10.925l10.499,0l-0,10.925l6.03,0l-0,-25.84Zm-28.394,19.154c-0.177,-0 -0.349,0.038 -0.514,0.115c-0.166,0.077 -0.32,0.175 -0.461,0.293c-0.355,0.319 -0.704,0.582 -1.047,0.789c-0.343,0.207 -0.709,0.373 -1.099,0.497c-0.39,0.124 -0.81,0.213 -1.26,0.266c-0.449,0.053 -0.945,0.08 -1.489,0.08c-0.946,-0 -1.833,-0.184 -2.661,-0.55c-0.827,-0.367 -1.551,-0.902 -2.172,-1.605c-0.621,-0.704 -1.111,-1.57 -1.472,-2.598c-0.361,-1.029 -0.541,-2.206 -0.541,-3.53c0,-1.312 0.163,-2.48 0.488,-3.502c0.325,-1.023 0.786,-1.886 1.383,-2.59c0.597,-0.703 1.307,-1.238 2.128,-1.605c0.822,-0.366 1.729,-0.55 2.723,-0.55c0.626,0 1.173,0.048 1.64,0.142c0.467,0.095 0.875,0.21 1.224,0.346c0.349,0.136 0.65,0.284 0.904,0.444c0.254,0.159 0.488,0.307 0.701,0.443c0.213,0.136 0.414,0.251 0.603,0.346c0.189,0.094 0.39,0.142 0.603,0.142c0.319,-0 0.567,-0.068 0.745,-0.204c0.177,-0.136 0.331,-0.287 0.461,-0.453l2.022,-2.713c-0.485,-0.497 -1.041,-0.958 -1.667,-1.383c-0.627,-0.426 -1.313,-0.79 -2.058,-1.091c-0.745,-0.302 -1.546,-0.538 -2.403,-0.709c-0.857,-0.172 -1.77,-0.258 -2.74,-0.258c-1.904,0 -3.647,0.325 -5.232,0.976c-1.584,0.65 -2.944,1.56 -4.079,2.731c-1.135,1.17 -2.016,2.563 -2.642,4.177c-0.627,1.613 -0.94,3.384 -0.94,5.311c-0,1.892 0.289,3.645 0.869,5.259c0.579,1.614 1.41,3.009 2.491,4.185c1.082,1.177 2.401,2.099 3.955,2.767c1.555,0.668 3.314,1.002 5.277,1.002c2.14,-0 3.993,-0.346 5.56,-1.038c1.566,-0.691 2.87,-1.717 3.91,-3.077l-2.376,-2.5c-0.13,-0.13 -0.266,-0.222 -0.408,-0.275c-0.142,-0.053 -0.284,-0.08 -0.426,-0.08Zm-22.417,6.686l-0,-25.84l-6.03,0l-0,25.84l6.03,0Zm-45.136,-4.735c-0.804,-0 -1.522,-0.133 -2.155,-0.399c-0.632,-0.266 -1.167,-0.65 -1.605,-1.153c-0.437,-0.502 -0.771,-1.111 -1.002,-1.827c-0.23,-0.715 -0.346,-1.528 -0.346,-2.438l0,-15.288l-5.994,0l0,15.305c0,1.585 0.254,3.039 0.763,4.363c0.508,1.325 1.241,2.465 2.199,3.423c0.957,0.958 2.122,1.703 3.494,2.235c1.371,0.532 2.92,0.798 4.646,0.798c1.715,-0 3.257,-0.266 4.629,-0.798c1.372,-0.532 2.536,-1.277 3.494,-2.235c0.958,-0.958 1.694,-2.098 2.208,-3.423c0.514,-1.324 0.771,-2.778 0.771,-4.363l0,-15.305l-5.994,0l-0,15.305c-0,0.911 -0.115,1.724 -0.346,2.439c-0.231,0.715 -0.565,1.321 -1.002,1.818c-0.437,0.496 -0.972,0.878 -1.605,1.144c-0.633,0.266 -1.351,0.399 -2.155,0.399Zm154.739,4.735l-10.003,-25.84l-6.136,0l-10.003,25.84l4.683,0c0.496,0 0.913,-0.133 1.25,-0.399c0.337,-0.266 0.57,-0.564 0.7,-0.896l1.526,-4.504l9.825,-0l1.525,4.504c0.166,0.379 0.408,0.689 0.727,0.932c0.319,0.242 0.739,0.363 1.259,0.363l4.647,0Zm-9.524,-9.878l-7.076,-0l2.376,-7.041c0.178,-0.449 0.367,-0.981 0.568,-1.596c0.201,-0.615 0.39,-1.283 0.567,-2.004c0.201,0.709 0.402,1.368 0.603,1.977c0.201,0.609 0.391,1.138 0.568,1.587l2.394,7.077Zm49.871,-3.512l0,3.299c0,0.307 0.107,0.561 0.319,0.762c0.213,0.201 0.509,0.302 0.887,0.302l2.554,-0l0,3.919c-0.556,0.237 -1.126,0.426 -1.711,0.568c-0.586,0.142 -1.239,0.213 -1.96,0.213c-1.171,-0 -2.238,-0.192 -3.201,-0.577c-0.964,-0.384 -1.791,-0.943 -2.483,-1.676c-0.692,-0.733 -1.227,-1.631 -1.605,-2.695c-0.379,-1.064 -0.568,-2.282 -0.568,-3.654c0,-1.241 0.172,-2.367 0.515,-3.378c0.342,-1.011 0.83,-1.877 1.463,-2.598c0.632,-0.722 1.398,-1.28 2.296,-1.676c0.899,-0.397 1.91,-0.595 3.033,-0.595c0.603,0 1.147,0.03 1.632,0.089c0.485,0.059 0.946,0.154 1.383,0.284c0.438,0.13 0.866,0.298 1.286,0.505c0.42,0.207 0.866,0.453 1.339,0.736c0.496,0.308 0.961,0.414 1.392,0.32c0.432,-0.095 0.783,-0.349 1.055,-0.763l1.738,-2.643c-0.52,-0.496 -1.111,-0.957 -1.773,-1.383c-0.662,-0.426 -1.392,-0.792 -2.19,-1.099c-0.798,-0.308 -1.67,-0.55 -2.616,-0.728c-0.946,-0.177 -1.957,-0.266 -3.033,-0.266c-2.081,0 -3.964,0.325 -5.649,0.976c-1.684,0.65 -3.121,1.56 -4.309,2.731c-1.189,1.17 -2.102,2.563 -2.74,4.177c-0.639,1.613 -0.958,3.384 -0.958,5.311c-0,1.892 0.337,3.645 1.011,5.259c0.674,1.614 1.631,3.009 2.873,4.185c1.241,1.177 2.734,2.099 4.478,2.767c1.744,0.668 3.68,1.002 5.808,1.002c1.632,-0 3.196,-0.219 4.691,-0.656c1.496,-0.438 2.906,-1.141 4.23,-2.111l0,-10.907l-9.187,0Zm-28.199,8.655c-0.803,-0 -1.522,-0.133 -2.154,-0.399c-0.633,-0.266 -1.168,-0.65 -1.605,-1.153c-0.438,-0.502 -0.772,-1.111 -1.002,-1.827c-0.231,-0.715 -0.346,-1.528 -0.346,-2.438l-0,-15.288l-5.995,0l0,15.305c0,1.585 0.255,3.039 0.763,4.363c0.508,1.325 1.241,2.465 2.199,3.423c0.958,0.958 2.122,1.703 3.494,2.235c1.371,0.532 2.92,0.798 4.646,0.798c1.715,-0 3.258,-0.266 4.629,-0.798c1.372,-0.532 2.536,-1.277 3.494,-2.235c0.958,-0.958 1.694,-2.098 2.208,-3.423c0.514,-1.324 0.772,-2.778 0.772,-4.363l-0,-15.305l-5.995,0l0,15.305c0,0.911 -0.115,1.724 -0.346,2.439c-0.23,0.715 -0.564,1.321 -1.002,1.818c-0.437,0.496 -0.972,0.878 -1.605,1.144c-0.632,0.266 -1.351,0.399 -2.155,0.399Zm69.238,-13.727l2.909,0.514c0.745,0.118 1.318,0.071 1.72,-0.142c0.402,-0.212 0.727,-0.644 0.976,-1.294c0.212,-0.639 0.6,-1.174 1.161,-1.605c0.562,-0.432 1.25,-0.648 2.066,-0.648c1.005,0 1.753,0.275 2.244,0.825c0.49,0.55 0.736,1.333 0.736,2.35c-0,0.496 -0.059,0.952 -0.178,1.365c-0.118,0.414 -0.357,0.766 -0.718,1.056c-0.36,0.289 -0.872,0.517 -1.534,0.683c-0.662,0.165 -1.531,0.248 -2.607,0.248l0,3.795c1.277,0 2.273,0.086 2.988,0.257c0.716,0.172 1.251,0.417 1.605,0.736c0.355,0.32 0.571,0.701 0.648,1.144c0.077,0.444 0.115,0.943 0.115,1.499c0,0.425 -0.077,0.845 -0.231,1.259c-0.153,0.414 -0.381,0.783 -0.682,1.108c-0.302,0.326 -0.68,0.592 -1.135,0.799c-0.456,0.206 -0.991,0.31 -1.605,0.31c-0.804,-0 -1.505,-0.222 -2.102,-0.665c-0.597,-0.444 -1.162,-1.156 -1.694,-2.137c-0.236,-0.426 -0.626,-0.698 -1.17,-0.816c-0.544,-0.118 -1.135,-0.053 -1.774,0.195l-2.447,0.993c0.414,1.206 0.901,2.247 1.463,3.122c0.562,0.874 1.215,1.593 1.96,2.154c0.745,0.562 1.596,0.976 2.554,1.242c0.957,0.266 2.051,0.399 3.281,0.399c1.194,-0 2.341,-0.169 3.44,-0.506c1.1,-0.337 2.066,-0.842 2.9,-1.516c0.833,-0.674 1.498,-1.519 1.995,-2.536c0.497,-1.017 0.745,-2.211 0.745,-3.583c-0,-2.896 -1.431,-4.847 -4.292,-5.852c0.615,-0.213 1.162,-0.476 1.64,-0.789c0.479,-0.314 0.881,-0.698 1.206,-1.153c0.326,-0.455 0.571,-0.993 0.736,-1.614c0.166,-0.621 0.249,-1.339 0.249,-2.155c-0,-0.898 -0.178,-1.753 -0.532,-2.563c-0.355,-0.809 -0.875,-1.522 -1.561,-2.137c-0.686,-0.614 -1.525,-1.102 -2.518,-1.463c-0.994,-0.36 -2.129,-0.541 -3.405,-0.541c-1.183,0 -2.288,0.157 -3.317,0.47c-1.029,0.314 -1.942,0.79 -2.74,1.428c-0.798,0.638 -1.466,1.437 -2.004,2.394c-0.538,0.958 -0.902,2.081 -1.091,3.37Zm-250.189,-5.214l0,-2.164l-19.331,0l0,4.611l11.705,0l-12.166,17.381c-0.166,0.224 -0.296,0.47 -0.39,0.736c-0.095,0.266 -0.142,0.535 -0.142,0.807l-0,2.305l19.934,0l0,-4.611l-12.308,-0l12.131,-17.327c0.177,-0.26 0.316,-0.538 0.416,-0.834c0.101,-0.295 0.151,-0.597 0.151,-0.904Zm245.365,18.71l-4.824,0c-0.544,0 -1.135,0.053 -1.773,0.16c-0.639,0.106 -1.283,0.26 -1.933,0.461l5.054,-5.179c0.686,-0.697 1.333,-1.386 1.942,-2.066c0.609,-0.68 1.144,-1.383 1.605,-2.11c0.461,-0.727 0.825,-1.493 1.091,-2.297c0.266,-0.804 0.399,-1.679 0.399,-2.625c-0,-1.099 -0.192,-2.107 -0.576,-3.024c-0.385,-0.916 -0.937,-1.705 -1.659,-2.367c-0.721,-0.662 -1.593,-1.18 -2.616,-1.552c-1.022,-0.372 -2.172,-0.559 -3.449,-0.559c-1.182,0 -2.288,0.157 -3.317,0.47c-1.028,0.314 -1.941,0.79 -2.74,1.428c-0.798,0.638 -1.466,1.437 -2.004,2.394c-0.538,0.958 -0.901,2.081 -1.09,3.37l2.908,0.514c0.745,0.118 1.319,0.071 1.721,-0.142c0.402,-0.212 0.727,-0.644 0.975,-1.294c0.213,-0.639 0.6,-1.174 1.162,-1.605c0.561,-0.432 1.25,-0.648 2.066,-0.648c1.005,0 1.753,0.275 2.243,0.825c0.491,0.55 0.736,1.339 0.736,2.368c0,0.626 -0.077,1.22 -0.23,1.782c-0.154,0.562 -0.385,1.123 -0.692,1.685c-0.307,0.561 -0.698,1.132 -1.171,1.711c-0.472,0.58 -1.028,1.189 -1.667,1.827l-7.448,7.502c-0.355,0.319 -0.603,0.674 -0.745,1.064c-0.142,0.39 -0.213,0.757 -0.213,1.1l-0,1.773l18.161,0l-0,-3.192c-0,-0.532 -0.172,-0.961 -0.515,-1.286c-0.343,-0.325 -0.81,-0.488 -1.401,-0.488Zm-254.691,30.403c-0.096,0.168 -0.198,0.29 -0.306,0.366c-0.108,0.076 -0.242,0.114 -0.402,0.114c-0.168,0 -0.35,-0.062 -0.546,-0.186c-0.196,-0.124 -0.43,-0.262 -0.702,-0.414c-0.272,-0.152 -0.59,-0.29 -0.954,-0.414c-0.364,-0.124 -0.794,-0.186 -1.29,-0.186c-0.448,0 -0.84,0.054 -1.176,0.162c-0.336,0.108 -0.618,0.258 -0.846,0.45c-0.228,0.192 -0.398,0.422 -0.51,0.69c-0.112,0.268 -0.168,0.562 -0.168,0.882c0,0.408 0.114,0.748 0.342,1.02c0.228,0.272 0.53,0.504 0.906,0.696c0.376,0.192 0.804,0.364 1.284,0.516c0.48,0.152 0.972,0.314 1.476,0.486c0.504,0.172 0.996,0.372 1.476,0.6c0.48,0.228 0.908,0.516 1.284,0.864c0.376,0.348 0.678,0.774 0.906,1.278c0.228,0.504 0.342,1.116 0.342,1.836c0,0.784 -0.134,1.518 -0.402,2.202c-0.268,0.684 -0.66,1.28 -1.176,1.788c-0.516,0.508 -1.146,0.908 -1.89,1.2c-0.744,0.292 -1.596,0.438 -2.556,0.438c-0.552,0 -1.096,-0.054 -1.632,-0.162c-0.536,-0.108 -1.05,-0.262 -1.542,-0.462c-0.492,-0.2 -0.954,-0.44 -1.386,-0.72c-0.432,-0.28 -0.816,-0.592 -1.152,-0.936l0.948,-1.548c0.08,-0.112 0.184,-0.206 0.312,-0.282c0.128,-0.076 0.264,-0.114 0.408,-0.114c0.2,0 0.416,0.082 0.648,0.246c0.232,0.164 0.508,0.346 0.828,0.546c0.32,0.2 0.694,0.382 1.122,0.546c0.428,0.164 0.942,0.246 1.542,0.246c0.92,0 1.632,-0.218 2.136,-0.654c0.504,-0.436 0.756,-1.062 0.756,-1.878c0,-0.456 -0.114,-0.828 -0.342,-1.116c-0.228,-0.288 -0.53,-0.53 -0.906,-0.726c-0.376,-0.196 -0.804,-0.362 -1.284,-0.498c-0.48,-0.136 -0.968,-0.284 -1.464,-0.444c-0.496,-0.16 -0.984,-0.352 -1.464,-0.576c-0.48,-0.224 -0.908,-0.516 -1.284,-0.876c-0.376,-0.36 -0.678,-0.81 -0.906,-1.35c-0.228,-0.54 -0.342,-1.206 -0.342,-1.998c0,-0.632 0.126,-1.248 0.378,-1.848c0.252,-0.6 0.618,-1.132 1.098,-1.596c0.48,-0.464 1.072,-0.836 1.776,-1.116c0.704,-0.28 1.512,-0.42 2.424,-0.42c1.024,0 1.968,0.16 2.832,0.48c0.864,0.32 1.6,0.768 2.208,1.344l-0.804,1.524Zm38.904,-3.156l-5.388,17.352l-2.916,0l-3.792,-11.856c-0.104,-0.288 -0.2,-0.64 -0.288,-1.056c-0.048,0.2 -0.096,0.388 -0.144,0.564c-0.048,0.176 -0.1,0.34 -0.156,0.492l-3.828,11.856l-2.928,0l-5.376,-17.352l2.7,0c0.28,0 0.514,0.066 0.702,0.198c0.188,0.132 0.314,0.31 0.378,0.534l2.952,10.38c0.064,0.256 0.126,0.534 0.186,0.834c0.06,0.3 0.122,0.614 0.186,0.942c0.064,-0.336 0.134,-0.652 0.21,-0.948c0.076,-0.296 0.158,-0.572 0.246,-0.828l3.408,-10.38c0.064,-0.184 0.19,-0.352 0.378,-0.504c0.188,-0.152 0.418,-0.228 0.69,-0.228l0.948,0c0.28,0 0.508,0.068 0.684,0.204c0.176,0.136 0.308,0.312 0.396,0.528l3.396,10.38c0.168,0.496 0.32,1.068 0.456,1.716c0.104,-0.632 0.22,-1.204 0.348,-1.716l2.952,-10.38c0.048,-0.2 0.17,-0.372 0.366,-0.516c0.196,-0.144 0.43,-0.216 0.702,-0.216l2.532,0Zm17.376,17.352l-3.24,0l0,-17.352l3.24,0l0,17.352Zm27.996,-14.7l-5.232,0l0,14.7l-3.228,0l0,-14.7l-5.232,0l0,-2.652l13.692,0l0,2.652Zm26.232,-1.464c0,0.368 -0.104,0.704 -0.312,1.008l-8.904,12.576l9.012,0l0,2.58l-13.2,0l0,-1.272c0,-0.16 0.028,-0.314 0.084,-0.462c0.056,-0.148 0.128,-0.286 0.216,-0.414l8.928,-12.636l-8.664,0l0,-2.568l12.84,0l0,1.188Zm17.82,1.38l0,4.812l6.072,0l0,2.484l-6.072,0l0,4.908l7.704,0l0,2.58l-10.944,0l0,-17.352l10.944,0l0,2.568l-7.704,0Zm36.108,14.784l-2.916,0c-0.552,0 -0.952,-0.216 -1.2,-0.648l-3.648,-5.556c-0.136,-0.208 -0.286,-0.356 -0.45,-0.444c-0.164,-0.088 -0.406,-0.132 -0.726,-0.132l-1.38,0l0,6.78l-3.228,0l0,-17.352l5.292,0c1.176,0 2.186,0.122 3.03,0.366c0.844,0.244 1.536,0.586 2.076,1.026c0.54,0.44 0.938,0.966 1.194,1.578c0.256,0.612 0.384,1.286 0.384,2.022c0,0.584 -0.086,1.136 -0.258,1.656c-0.172,0.52 -0.42,0.992 -0.744,1.416c-0.324,0.424 -0.724,0.796 -1.2,1.116c-0.476,0.32 -1.018,0.572 -1.626,0.756c0.208,0.12 0.4,0.262 0.576,0.426c0.176,0.164 0.336,0.358 0.48,0.582l4.344,6.408Zm-8.304,-9.096c0.608,0 1.138,-0.076 1.59,-0.228c0.452,-0.152 0.824,-0.362 1.116,-0.63c0.292,-0.268 0.51,-0.586 0.654,-0.954c0.144,-0.368 0.216,-0.772 0.216,-1.212c0,-0.88 -0.29,-1.556 -0.87,-2.028c-0.58,-0.472 -1.466,-0.708 -2.658,-0.708l-2.064,0l0,5.76l2.016,0Zm32.352,6.432l0,2.664l-10.164,0l0,-17.352l3.228,0l0,14.688l6.936,0Zm29.172,2.664l-2.496,0c-0.28,0 -0.508,-0.07 -0.684,-0.21c-0.176,-0.14 -0.308,-0.314 -0.396,-0.522l-1.296,-3.54l-7.188,0l-1.296,3.54c-0.064,0.184 -0.188,0.352 -0.372,0.504c-0.184,0.152 -0.412,0.228 -0.684,0.228l-2.52,0l6.828,-17.352l3.288,0l6.816,17.352Zm-5.7,-6.552l-2.112,-5.772c-0.104,-0.256 -0.212,-0.56 -0.324,-0.912c-0.112,-0.352 -0.224,-0.732 -0.336,-1.14c-0.104,0.408 -0.212,0.79 -0.324,1.146c-0.112,0.356 -0.22,0.666 -0.324,0.93l-2.1,5.748l5.52,0Zm34.128,-10.8l0,17.352l-1.656,0c-0.256,0 -0.47,-0.042 -0.642,-0.126c-0.172,-0.084 -0.338,-0.226 -0.498,-0.426l-9.06,-11.568c0.048,0.528 0.072,1.016 0.072,1.464l0,10.656l-2.844,0l0,-17.352l1.692,0c0.136,0 0.254,0.006 0.354,0.018c0.1,0.012 0.188,0.036 0.264,0.072c0.076,0.036 0.15,0.088 0.222,0.156c0.072,0.068 0.152,0.158 0.24,0.27l9.096,11.616c-0.024,-0.28 -0.044,-0.556 -0.06,-0.828c-0.016,-0.272 -0.024,-0.524 -0.024,-0.756l0,-10.548l2.844,0Zm31.272,8.676c0,1.272 -0.212,2.44 -0.636,3.504c-0.424,1.064 -1.02,1.98 -1.788,2.748c-0.768,0.768 -1.692,1.364 -2.772,1.788c-1.08,0.424 -2.28,0.636 -3.6,0.636l-6.612,0l0,-17.352l6.612,0c1.32,0 2.52,0.214 3.6,0.642c1.08,0.428 2.004,1.024 2.772,1.788c0.768,0.764 1.364,1.678 1.788,2.742c0.424,1.064 0.636,2.232 0.636,3.504Zm-3.312,0c0,-0.952 -0.126,-1.806 -0.378,-2.562c-0.252,-0.756 -0.616,-1.396 -1.092,-1.92c-0.476,-0.524 -1.052,-0.926 -1.728,-1.206c-0.676,-0.28 -1.438,-0.42 -2.286,-0.42l-3.372,0l0,12.216l3.372,0c0.848,0 1.61,-0.14 2.286,-0.42c0.676,-0.28 1.252,-0.682 1.728,-1.206c0.476,-0.524 0.84,-1.164 1.092,-1.92c0.252,-0.756 0.378,-1.61 0.378,-2.562Z" style="fill:#ff7a00;"/></g></svg>