<?xml version="1.0" encoding="UTF-8" standalone="no"?><!DOCTYPE svg PUBLIC "-//W3C//DTD SVG 1.1//EN" "http://www.w3.org/Graphics/SVG/1.1/DTD/svg11.dtd"><svg width="100%" height="100%" viewBox="0 0 386 357" version="1.1" xmlns="http://www.w3.org/2000/svg" xmlns:xlink="http://www.w3.org/1999/xlink" xml:space="preserve" xmlns:serif="http://www.serif.com/" style="fill-rule:evenodd;clip-rule:evenodd;stroke-linejoin:round;stroke-miterlimit:2;"><rect id="Artboard2" x="0" y="0.178" width="385.2" height="356.616" style="fill:none;"/><clipPath id="_clip1"><rect id="Artboard21" serif:id="Artboard2" x="0" y="0.178" width="385.2" height="356.616"/></clipPath><g clip-path="url(#_clip1)"><path d="M82.841,300.553l-4.665,-2.693l-78.176,-45.136l0,-103.832l135.928,-78.478l42.425,0l-0,-2.73l-10.255,-10.254c-0.469,-0.469 -0.733,-1.105 -0.733,-1.768l0,-2.884c0,-1.38 1.12,-2.5 2.5,-2.5l8.488,0c-0,0 -0,-35.709 0,-35.703c-0.308,-3.542 1.418,-7.348 4.216,-10.146c2.767,-2.767 6.519,-4.485 10.019,-4.225c3.508,-0.26 7.261,1.458 10.028,4.225c2.798,2.799 4.524,6.605 4.216,10.14l-0,35.709l8.487,0c1.381,0 2.5,1.12 2.5,2.5l-0,2.884c-0,0.663 -0.263,1.299 -0.732,1.768l-10.255,10.254l-0,2.73l42.424,0l135.929,78.478l-0,103.832l-78.176,45.136l-4.665,2.693c-0.213,-0.368 -0.335,-0.795 -0.335,-1.25l-0,-72.472c-6.874,-0.577 -13.749,-1.099 -20.623,-1.566c-0.025,-0.002 -0.049,-0.004 -0.074,-0.005c-59.148,-4.021 -118.296,-4.021 -177.444,-0c-0.022,0.002 -0.044,0.003 -0.065,0.004c-6.876,0.468 -13.752,0.99 -20.627,1.567l-0,9.449c46.101,-3.892 92.203,-5.325 138.305,-4.297c1.379,0.031 2.474,1.175 2.443,2.555c-0.03,1.379 -1.175,2.474 -2.555,2.444c-46.064,-1.027 -92.129,0.411 -138.193,4.316l-0,58.005c-0,0.455 -0.122,0.882 -0.335,1.25Zm-13.505,-99.765c-0,-4.186 -0.727,-8.06 -2.18,-11.62c-1.453,-3.56 -3.5,-6.633 -6.14,-9.22c-2.64,-2.586 -5.82,-4.613 -9.54,-6.08c-3.72,-1.466 -7.847,-2.2 -12.38,-2.2l-22.64,0l-0,58.28l22.64,0c4.533,0 8.66,-0.726 12.38,-2.18c3.72,-1.453 6.9,-3.48 9.54,-6.08c2.64,-2.6 4.687,-5.68 6.14,-9.24c1.453,-3.56 2.18,-7.446 2.18,-11.66Zm-13.84,0c-0,2.907 -0.373,5.52 -1.12,7.84c-0.747,2.32 -1.82,4.287 -3.22,5.9c-1.4,1.614 -3.113,2.854 -5.14,3.72c-2.027,0.867 -4.333,1.3 -6.92,1.3l-9.04,0l-0,-37.48l9.04,0c2.587,0 4.893,0.434 6.92,1.3c2.027,0.867 3.74,2.107 5.14,3.72c1.4,1.614 2.473,3.58 3.22,5.9c0.747,2.32 1.12,4.92 1.12,7.8Zm307.433,14.08c-0.4,0 -0.787,0.087 -1.16,0.26c-0.374,0.174 -0.72,0.394 -1.04,0.66c-0.8,0.72 -1.587,1.314 -2.36,1.78c-0.774,0.467 -1.6,0.84 -2.48,1.12c-0.88,0.28 -1.827,0.48 -2.84,0.6c-1.014,0.12 -2.134,0.18 -3.36,0.18c-2.134,0 -4.134,-0.413 -6,-1.24c-1.867,-0.826 -3.5,-2.033 -4.9,-3.62c-1.4,-1.586 -2.507,-3.54 -3.32,-5.86c-0.814,-2.32 -1.22,-4.973 -1.22,-7.96c-0,-2.96 0.366,-5.593 1.1,-7.9c0.733,-2.306 1.773,-4.253 3.12,-5.84c1.346,-1.586 2.946,-2.793 4.8,-3.62c1.853,-0.826 3.9,-1.24 6.14,-1.24c1.413,0 2.646,0.107 3.7,0.32c1.053,0.214 1.973,0.474 2.76,0.78c0.786,0.307 1.466,0.64 2.04,1c0.573,0.36 1.1,0.694 1.58,1c0.48,0.307 0.933,0.567 1.36,0.78c0.426,0.214 0.88,0.32 1.36,0.32c0.72,0 1.28,-0.153 1.68,-0.46c0.4,-0.306 0.746,-0.646 1.04,-1.02l4.56,-6.12c-1.094,-1.12 -2.347,-2.16 -3.76,-3.12c-1.414,-0.96 -2.96,-1.78 -4.64,-2.46c-1.68,-0.68 -3.487,-1.213 -5.42,-1.6c-1.934,-0.386 -3.994,-0.58 -6.18,-0.58c-4.294,0 -8.227,0.734 -11.8,2.2c-3.574,1.467 -6.64,3.52 -9.2,6.16c-2.56,2.64 -4.547,5.78 -5.96,9.42c-1.414,3.64 -2.12,7.634 -2.12,11.98c-0,4.267 0.653,8.22 1.96,11.86c1.306,3.64 3.18,6.787 5.62,9.44c2.44,2.654 5.413,4.734 8.92,6.24c3.506,1.507 7.473,2.26 11.9,2.26c4.826,0 9.006,-0.78 12.54,-2.34c3.533,-1.56 6.473,-3.873 8.82,-6.94l-5.36,-5.64c-0.294,-0.293 -0.6,-0.5 -0.92,-0.62c-0.32,-0.12 -0.64,-0.18 -0.96,-0.18Zm-161.097,-148.219c-0,-0.663 0.263,-1.299 0.732,-1.768l9.603,-9.603l-7.835,0c-1.381,0 -2.5,-1.119 -2.5,-2.5l-0,-29.628c-2.31,2.47 -5.596,4.014 -9.24,4.014c-3.644,-0 -6.93,-1.545 -9.239,-4.014l-0,29.628c-0,1.381 -1.12,2.5 -2.5,2.5l-7.835,0l9.603,9.603c0.468,0.469 0.732,1.105 0.732,1.768l-0,36.658c-0,1.368 -1.099,2.482 -2.467,2.5l-8.961,0.119l-0,15.974c-0,1.075 -0.688,2.03 -1.708,2.371c-20.123,6.725 -37.511,27.055 -41.068,47.982c-0.01,0.063 -0.021,0.126 -0.031,0.189c-0.003,0.018 -0.007,0.036 -0.01,0.053c-0.235,1.065 -1.154,1.889 -2.296,1.955l-20.649,1.203l0,44.442c57.62,-3.801 115.239,-3.801 172.858,-0l-0,-44.461c-6.861,-0.446 -13.722,-0.84 -20.583,-1.18c-0.03,-0.001 -0.061,-0.003 -0.091,-0.005c-31.511,-1.561 -63.022,-2 -94.533,-1.316c-1.38,0.029 -2.524,-1.066 -2.554,-2.446c-0.03,-1.379 1.066,-2.523 2.445,-2.553c30.579,-0.663 61.157,-0.273 91.736,1.169c-4.602,-19.86 -21.297,-38.621 -40.474,-45.032c-1.019,-0.341 -1.707,-1.296 -1.707,-2.371l0,-15.974l-8.962,-0.119c-1.367,-0.018 -2.466,-1.132 -2.466,-2.5l-0,-36.658Zm28.75,136.84l-8.733,-0.221c-0.271,-0.007 -0.487,-0.229 -0.487,-0.5l0,-10.348c-0.015,-1.246 0.534,-2.573 1.425,-3.443c0.87,-0.891 2.197,-1.44 3.441,-1.426c1.245,-0.014 2.571,0.535 3.441,1.426c0.891,0.87 1.441,2.197 1.426,3.443l-0,10.57c-0,0.134 -0.055,0.263 -0.151,0.358c-0.097,0.094 -0.227,0.145 -0.362,0.141Zm-110.128,0.892l-0,-10.668c-0.015,-1.246 0.534,-2.573 1.425,-3.443c0.87,-0.891 2.196,-1.44 3.441,-1.426c1.245,-0.014 2.571,0.535 3.441,1.426c0.891,0.87 1.441,2.197 1.425,3.443l0,10.225c0,0.266 -0.208,0.486 -0.474,0.499l-8.733,0.444c-0.137,0.006 -0.27,-0.043 -0.37,-0.137c-0.099,-0.095 -0.155,-0.226 -0.155,-0.363Zm33.636,-1.391l-0,-10.57c-0.015,-1.246 0.534,-2.573 1.425,-3.443c0.87,-0.891 2.197,-1.44 3.441,-1.426c1.245,-0.014 2.571,0.535 3.441,1.426c0.891,0.87 1.441,2.197 1.425,3.443l0,10.348c0,0.271 -0.216,0.493 -0.487,0.5l-8.732,0.221c-0.135,0.004 -0.266,-0.047 -0.362,-0.141c-0.097,-0.095 -0.151,-0.224 -0.151,-0.358Zm110.631,-8.975l0,10.366c0,0.137 -0.056,0.268 -0.155,0.362c-0.099,0.094 -0.233,0.144 -0.37,0.137l-8.723,-0.443c-0.266,-0.013 -0.475,-0.233 -0.475,-0.499l0,-10.225c-0.017,-1.27 0.558,-2.627 1.482,-3.499c0.901,-0.895 2.275,-1.425 3.543,-1.367c1.27,0.025 2.606,0.644 3.447,1.595c0.861,0.927 1.346,2.311 1.251,3.573Zm-67.762,8.937l-8.733,-0c-0.276,-0 -0.5,-0.224 -0.5,-0.5l0,-10.463c-0.015,-1.246 0.534,-2.573 1.425,-3.443c0.87,-0.891 2.196,-1.44 3.441,-1.426c1.245,-0.014 2.572,0.535 3.441,1.426c0.891,0.87 1.441,2.197 1.426,3.443l-0,10.463c-0,0.276 -0.224,0.5 -0.5,0.5Zm-21.886,-73.084c-7.617,6.12 -13.784,14.201 -17.104,22.951c-0.49,1.29 -1.935,1.94 -3.225,1.45c-1.29,-0.489 -1.939,-1.934 -1.45,-3.224c6.239,-16.442 21.679,-30.723 38.556,-35.664c1.133,-0.332 2.348,0.177 2.906,1.218c0.082,0.152 0.147,0.313 0.196,0.479c0.332,1.133 -0.178,2.348 -1.218,2.906c-11.771,6.31 -21.063,19.208 -23.321,32.371c-0.234,1.359 -1.527,2.274 -2.887,2.041c-1.36,-0.234 -2.275,-1.527 -2.041,-2.887c1.308,-7.627 4.744,-15.173 9.588,-21.641Zm96.886,188.227l-19.213,11.093c0,-29.349 0,-71.49 0.001,-71.488c-0.192,-2.4 0.947,-4.985 2.84,-6.879c1.866,-1.866 4.402,-2.998 6.763,-2.849c2.369,-0.148 4.903,0.984 6.768,2.849c1.895,1.896 3.034,4.484 2.841,6.875l0,60.399Zm-34.88,13.108l-19.213,-0c0,-29.367 0,-74.932 0,-74.93c-0.191,-2.4 0.947,-4.985 2.841,-6.879c1.866,-1.865 4.402,-2.998 6.763,-2.849c2.368,-0.148 4.903,0.985 6.768,2.849c1.895,1.896 3.034,4.484 2.841,6.876l-0,74.933Zm-34.88,-0l-19.213,-0c-0,-29.348 -0,-75.408 -0,-75.405c-0.191,-2.401 0.947,-4.986 2.841,-6.879c1.866,-1.866 4.402,-2.998 6.763,-2.849c2.368,-0.148 4.903,0.984 6.767,2.849c1.896,1.895 3.035,4.483 2.842,6.875l-0,75.409Zm-34.881,-0l-19.212,-0c-0,-29.396 -0,-75.033 -0,-75.033c-0.026,-2.46 1.057,-5.08 2.803,-6.793c1.722,-1.76 4.341,-2.847 6.789,-2.824c2.461,-0.027 5.082,1.057 6.797,2.804c1.762,1.724 2.85,4.348 2.823,6.813l0,75.033Zm-34.88,-2.015l-19.213,-11.093c0,-27.817 0,-60.397 0.001,-60.395c-0.192,-2.4 0.947,-4.985 2.841,-6.879c1.865,-1.866 4.402,-2.998 6.762,-2.849c2.369,-0.148 4.904,0.984 6.768,2.849c1.896,1.896 3.034,4.484 2.841,6.875l0,71.492Zm12.191,20.539c-0,1.057 -0.132,2.019 -0.397,2.886c-0.264,0.866 -0.663,1.609 -1.196,2.229c-0.533,0.62 -1.202,1.101 -2.008,1.443c-0.806,0.342 -1.755,0.514 -2.847,0.514c-0.494,-0 -0.982,-0.026 -1.463,-0.078c-0.481,-0.052 -0.981,-0.139 -1.501,-0.26l0.234,-2.561c0.026,-0.226 0.117,-0.408 0.273,-0.546c0.156,-0.139 0.377,-0.208 0.663,-0.208c0.147,-0 0.329,0.023 0.546,0.071c0.216,0.048 0.476,0.072 0.78,0.072c0.424,-0 0.795,-0.059 1.111,-0.176c0.317,-0.117 0.579,-0.312 0.787,-0.585c0.208,-0.273 0.364,-0.63 0.468,-1.072c0.104,-0.442 0.156,-0.988 0.156,-1.638l-0,-12.168l4.394,-0l-0,12.077Zm20.163,6.864l-3.406,-0c-0.382,-0 -0.689,-0.089 -0.923,-0.267c-0.234,-0.178 -0.412,-0.405 -0.533,-0.682l-1.118,-3.302l-7.202,-0l-1.118,3.302c-0.096,0.242 -0.267,0.461 -0.514,0.656c-0.247,0.195 -0.552,0.293 -0.916,0.293l-3.432,-0l7.332,-18.941l4.498,-0l7.332,18.941Zm-6.981,-7.241l-1.755,-5.187c-0.13,-0.33 -0.269,-0.718 -0.416,-1.164c-0.148,-0.446 -0.295,-0.929 -0.442,-1.449c-0.13,0.528 -0.269,1.018 -0.416,1.469c-0.148,0.45 -0.286,0.84 -0.416,1.17l-1.742,5.161l5.187,-0Zm25.012,-11.7l-0,18.941l-2.288,-0c-0.338,-0 -0.622,-0.055 -0.852,-0.163c-0.229,-0.108 -0.457,-0.297 -0.682,-0.565l-8.931,-11.297c0.034,0.338 0.058,0.665 0.071,0.981c0.013,0.316 0.02,0.613 0.02,0.891l-0,10.153l-3.874,-0l-0,-18.941l2.314,-0c0.19,-0 0.351,0.008 0.481,0.026c0.13,0.017 0.247,0.049 0.351,0.097c0.104,0.048 0.203,0.115 0.299,0.202c0.095,0.086 0.203,0.203 0.325,0.351l9.009,11.375c-0.044,-0.364 -0.074,-0.718 -0.091,-1.06c-0.018,-0.342 -0.026,-0.665 -0.026,-0.968l-0,-10.023l3.874,-0Zm20.527,15.301c0.433,-0 0.775,0.119 1.027,0.357c0.251,0.238 0.377,0.553 0.377,0.943l-0,2.34l-13.312,-0l-0,-1.3c-0,-0.252 0.052,-0.52 0.156,-0.806c0.104,-0.286 0.286,-0.546 0.546,-0.78l5.46,-5.499c0.468,-0.468 0.875,-0.915 1.222,-1.339c0.346,-0.425 0.632,-0.843 0.858,-1.255c0.225,-0.412 0.394,-0.823 0.507,-1.235c0.112,-0.412 0.169,-0.847 0.169,-1.306c-0,-0.754 -0.18,-1.333 -0.54,-1.736c-0.359,-0.403 -0.908,-0.604 -1.644,-0.604c-0.598,-0 -1.103,0.158 -1.515,0.474c-0.411,0.316 -0.695,0.709 -0.851,1.177c-0.182,0.476 -0.421,0.793 -0.715,0.949c-0.295,0.156 -0.715,0.19 -1.261,0.104l-2.132,-0.377c0.138,-0.945 0.405,-1.768 0.799,-2.47c0.395,-0.702 0.884,-1.287 1.469,-1.755c0.585,-0.468 1.255,-0.817 2.009,-1.047c0.754,-0.23 1.564,-0.344 2.431,-0.344c0.936,-0 1.779,0.136 2.528,0.409c0.75,0.273 1.389,0.652 1.918,1.138c0.528,0.485 0.934,1.063 1.215,1.735c0.282,0.672 0.423,1.411 0.423,2.217c-0,0.693 -0.098,1.334 -0.293,1.924c-0.195,0.589 -0.461,1.15 -0.799,1.683c-0.338,0.533 -0.73,1.049 -1.177,1.547c-0.446,0.498 -0.921,1.003 -1.423,1.515l-3.705,3.796c0.476,-0.148 0.949,-0.26 1.417,-0.338c0.468,-0.078 0.901,-0.117 1.3,-0.117l3.536,-0Zm16.952,-5.837c-0,1.655 -0.178,3.089 -0.533,4.303c-0.356,1.213 -0.847,2.218 -1.476,3.016c-0.628,0.797 -1.373,1.391 -2.236,1.781c-0.862,0.39 -1.796,0.585 -2.801,0.585c-1.006,-0 -1.935,-0.195 -2.789,-0.585c-0.853,-0.39 -1.592,-0.984 -2.216,-1.781c-0.624,-0.798 -1.112,-1.803 -1.463,-3.016c-0.351,-1.214 -0.526,-2.648 -0.526,-4.303c-0,-1.656 0.175,-3.09 0.526,-4.303c0.351,-1.214 0.839,-2.219 1.463,-3.016c0.624,-0.798 1.363,-1.389 2.216,-1.775c0.854,-0.386 1.783,-0.578 2.789,-0.578c1.005,-0 1.939,0.192 2.801,0.578c0.863,0.386 1.608,0.977 2.236,1.775c0.629,0.797 1.12,1.802 1.476,3.016c0.355,1.213 0.533,2.647 0.533,4.303Zm-4.16,-0c-0,-1.309 -0.083,-2.382 -0.247,-3.218c-0.165,-0.836 -0.384,-1.493 -0.657,-1.969c-0.273,-0.477 -0.583,-0.804 -0.929,-0.982c-0.347,-0.178 -0.698,-0.266 -1.053,-0.266c-0.356,-0 -0.704,0.088 -1.047,0.266c-0.342,0.178 -0.645,0.505 -0.91,0.982c-0.264,0.476 -0.476,1.133 -0.637,1.969c-0.16,0.836 -0.24,1.909 -0.24,3.218c-0,1.317 0.08,2.392 0.24,3.224c0.161,0.832 0.373,1.488 0.637,1.969c0.265,0.481 0.568,0.81 0.91,0.988c0.343,0.178 0.691,0.267 1.047,0.267c0.355,-0 0.706,-0.089 1.053,-0.267c0.346,-0.178 0.656,-0.507 0.929,-0.988c0.273,-0.481 0.492,-1.137 0.657,-1.969c0.164,-0.832 0.247,-1.907 0.247,-3.224Zm17.368,5.837c0.433,-0 0.775,0.119 1.027,0.357c0.251,0.238 0.377,0.553 0.377,0.943l-0,2.34l-13.312,-0l-0,-1.3c-0,-0.252 0.052,-0.52 0.156,-0.806c0.104,-0.286 0.286,-0.546 0.546,-0.78l5.46,-5.499c0.468,-0.468 0.875,-0.915 1.222,-1.339c0.346,-0.425 0.632,-0.843 0.858,-1.255c0.225,-0.412 0.394,-0.823 0.507,-1.235c0.112,-0.412 0.169,-0.847 0.169,-1.306c-0,-0.754 -0.18,-1.333 -0.54,-1.736c-0.359,-0.403 -0.908,-0.604 -1.644,-0.604c-0.598,-0 -1.103,0.158 -1.515,0.474c-0.411,0.316 -0.695,0.709 -0.851,1.177c-0.182,0.476 -0.421,0.793 -0.715,0.949c-0.295,0.156 -0.715,0.19 -1.261,0.104l-2.132,-0.377c0.138,-0.945 0.405,-1.768 0.799,-2.47c0.395,-0.702 0.884,-1.287 1.469,-1.755c0.585,-0.468 1.255,-0.817 2.009,-1.047c0.754,-0.23 1.564,-0.344 2.431,-0.344c0.936,-0 1.779,0.136 2.528,0.409c0.75,0.273 1.389,0.652 1.918,1.138c0.528,0.485 0.934,1.063 1.215,1.735c0.282,0.672 0.423,1.411 0.423,2.217c-0,0.693 -0.098,1.334 -0.293,1.924c-0.195,0.589 -0.461,1.15 -0.799,1.683c-0.338,0.533 -0.73,1.049 -1.177,1.547c-0.446,0.498 -0.921,1.003 -1.423,1.515l-3.705,3.796c0.476,-0.148 0.949,-0.26 1.417,-0.338c0.468,-0.078 0.901,-0.117 1.3,-0.117l3.536,-0Zm3.536,-9.893c0.138,-0.945 0.405,-1.768 0.799,-2.47c0.395,-0.702 0.884,-1.287 1.469,-1.755c0.585,-0.468 1.255,-0.817 2.009,-1.047c0.754,-0.23 1.564,-0.344 2.431,-0.344c0.936,-0 1.768,0.132 2.496,0.396c0.728,0.264 1.343,0.622 1.846,1.073c0.502,0.45 0.884,0.972 1.144,1.566c0.26,0.594 0.39,1.22 0.39,1.879c-0,0.598 -0.061,1.124 -0.182,1.579c-0.122,0.455 -0.301,0.849 -0.54,1.183c-0.238,0.334 -0.533,0.615 -0.884,0.845c-0.351,0.23 -0.752,0.423 -1.202,0.579c2.097,0.736 3.146,2.166 3.146,4.29c-0,1.005 -0.182,1.88 -0.546,2.626c-0.364,0.745 -0.852,1.365 -1.463,1.859c-0.611,0.494 -1.319,0.864 -2.125,1.111c-0.806,0.247 -1.647,0.371 -2.522,0.371c-0.902,-0 -1.703,-0.098 -2.405,-0.293c-0.702,-0.195 -1.326,-0.498 -1.872,-0.91c-0.546,-0.412 -1.025,-0.938 -1.437,-1.579c-0.411,-0.642 -0.769,-1.404 -1.072,-2.288l1.794,-0.728c0.468,-0.182 0.901,-0.23 1.3,-0.143c0.398,0.086 0.684,0.286 0.858,0.598c0.39,0.719 0.804,1.241 1.241,1.566c0.438,0.325 0.951,0.488 1.541,0.488c0.45,-0 0.843,-0.076 1.176,-0.228c0.334,-0.152 0.611,-0.347 0.832,-0.585c0.221,-0.238 0.388,-0.509 0.501,-0.812c0.112,-0.304 0.169,-0.611 0.169,-0.923c-0,-0.408 -0.028,-0.774 -0.085,-1.099c-0.056,-0.325 -0.214,-0.604 -0.474,-0.838c-0.26,-0.234 -0.652,-0.414 -1.177,-0.54c-0.524,-0.126 -1.254,-0.188 -2.19,-0.188l-0,-2.782c0.788,-0 1.425,-0.061 1.911,-0.182c0.485,-0.122 0.86,-0.289 1.124,-0.501c0.265,-0.212 0.44,-0.47 0.527,-0.773c0.086,-0.304 0.13,-0.637 0.13,-1.001c-0,-0.746 -0.18,-1.32 -0.54,-1.723c-0.359,-0.403 -0.908,-0.604 -1.644,-0.604c-0.598,-0 -1.103,0.158 -1.515,0.474c-0.411,0.316 -0.695,0.709 -0.851,1.177c-0.182,0.476 -0.421,0.793 -0.715,0.949c-0.295,0.156 -0.715,0.19 -1.261,0.104l-2.132,-0.377Z" style="fill:#1f65d8;"/></g></svg>