<?xml version="1.0" encoding="UTF-8"?>
<svg width="687px" height="926px" viewBox="0 0 687 926" version="1.1" xmlns="http://www.w3.org/2000/svg" xmlns:xlink="http://www.w3.org/1999/xlink">
    <title>balloon-bundle</title>
    <g id="balloon-bundle" stroke="none" stroke-width="1" fill="none" fill-rule="evenodd">
        <path d="M366.315929,395.830608 C216.085145,641.04292 138.278788,814.995758 132.896857,917.689122" id="Path-15-Copy-10" stroke="#1F2937" stroke-width="5" stroke-linecap="round" transform="translate(249.6064, 656.7599) scale(-1, 1) rotate(-3) translate(-249.6064, -656.7599)"></path>
        <path d="M523.339483,414.468017 C407.614695,618.922483 346.296499,787.090349 339.384895,918.971615" id="Path-15-Copy-11" stroke="#1F2937" stroke-width="5" stroke-linecap="round" transform="translate(431.3622, 666.7198) rotate(-3) translate(-431.3622, -666.7198)"></path>
        <path d="M416.222635,398.081911 C370.692399,633.087764 344.936791,807.65265 338.955809,921.776568" id="Path-15-Copy-12" stroke="#1F2937" stroke-width="5" stroke-linecap="round" transform="translate(377.5892, 659.9292) rotate(-3) translate(-377.5892, -659.9292)"></path>
        <path d="M340.15966,396.208573 C297.060915,626.143863 278.727581,802.477197 285.15966,925.208573" id="Path-15-Copy-13" stroke="#1F2937" stroke-width="5" stroke-linecap="round" transform="translate(312.0332, 660.7086) scale(-1, 1) rotate(3) translate(-312.0332, -660.7086)"></path>
        <path d="M141.557156,52.2697969 C169.171393,52.2697969 191.557156,74.6555594 191.557156,102.269797 C191.557156,127.878042 172.305617,148.98985 147.485781,151.921981 L151.407274,156.788332 C152.793132,158.508707 152.521952,161.026807 150.801576,162.412665 C150.090635,162.985368 149.20518,163.29765 148.292258,163.29765 L136.009524,163.29765 C133.800385,163.29765 132.009524,161.506789 132.009524,159.29765 C132.009524,158.384728 132.321806,157.499273 132.894508,156.788332 L136.720577,152.038876 C111.375682,149.606154 91.5571555,128.252408 91.5571555,102.269797 C91.5571555,74.6555594 113.942918,52.2697969 141.557156,52.2697969 Z" id="Combined-Shape-Copy-68" fill="#FA0098" transform="translate(141.5572, 107.7837) rotate(-19) translate(-141.5572, -107.7837)"></path>
        <path d="M281.557156,0.269796869 C309.171393,0.269796869 331.557156,22.6555594 331.557156,50.2697969 C331.557156,75.8780425 312.305617,96.9898505 287.485781,99.9219808 L291.407274,104.788332 C292.793132,106.508707 292.521952,109.026807 290.801576,110.412665 C290.090635,110.985368 289.20518,111.29765 288.292258,111.29765 L276.009524,111.29765 C273.800385,111.29765 272.009524,109.506789 272.009524,107.29765 C272.009524,106.384728 272.321806,105.499273 272.894508,104.788332 L276.720577,100.038876 C251.375682,97.6061541 231.557156,76.2524079 231.557156,50.2697969 C231.557156,22.6555594 253.942918,0.269796869 281.557156,0.269796869 Z" id="Combined-Shape-Copy-69" fill="#F7B500" transform="translate(281.5572, 55.7837) rotate(5) translate(-281.5572, -55.7837)"></path>
        <path d="M429.557156,4.26979687 C457.171393,4.26979687 479.557156,26.6555594 479.557156,54.2697969 C479.557156,79.8780425 460.305617,100.98985 435.485781,103.921981 L439.407274,108.788332 C440.793132,110.508707 440.521952,113.026807 438.801576,114.412665 C438.090635,114.985368 437.20518,115.29765 436.292258,115.29765 L424.009524,115.29765 C421.800385,115.29765 420.009524,113.506789 420.009524,111.29765 C420.009524,110.384728 420.321806,109.499273 420.894508,108.788332 L424.720577,104.038876 C399.375682,101.606154 379.557156,80.2524079 379.557156,54.2697969 C379.557156,26.6555594 401.942918,4.26979687 429.557156,4.26979687 Z" id="Combined-Shape-Copy-70" fill="#B620E0" transform="translate(429.5572, 59.7837) rotate(5) translate(-429.5572, -59.7837)"></path>
        <path d="M223.877419,16.7128571 C261.432782,16.7128571 291.877419,47.1574941 291.877419,84.7128571 C291.877419,119.50635 265.746003,148.196525 232.038376,152.228175 L238.681642,160.403631 C240.074709,162.118174 239.8141,164.63739 238.099557,166.030457 C237.386554,166.609772 236.495869,166.926001 235.577186,166.926001 L213.38495,166.926001 C211.175811,166.926001 209.38495,165.13514 209.38495,162.926001 C209.38495,162.007318 209.701179,161.116634 210.280494,160.403631 L216.824721,152.351541 C182.583343,148.823128 155.877419,119.886744 155.877419,84.7128571 C155.877419,47.1574941 186.322056,16.7128571 223.877419,16.7128571 Z" id="Combined-Shape-Copy-71" fill="#0091FF" transform="translate(223.8774, 91.8194) rotate(-7) translate(-223.8774, -91.8194)"></path>
        <path d="M355.877419,3.71285709 C393.432782,3.71285709 423.877419,34.1574941 423.877419,71.7128571 C423.877419,106.50635 397.746003,135.196525 364.038376,139.228175 L370.681642,147.403631 C372.074709,149.118174 371.8141,151.63739 370.099557,153.030457 C369.386554,153.609772 368.495869,153.926001 367.577186,153.926001 L345.38495,153.926001 C343.175811,153.926001 341.38495,152.13514 341.38495,149.926001 C341.38495,149.007318 341.701179,148.116634 342.280494,147.403631 L348.824721,139.351541 C314.583343,135.823128 287.877419,106.886744 287.877419,71.7128571 C287.877419,34.1574941 318.322056,3.71285709 355.877419,3.71285709 Z" id="Combined-Shape-Copy-72" fill="#FA6400" transform="translate(355.8774, 78.8194) rotate(9) translate(-355.8774, -78.8194)"></path>
        <path d="M484.877419,35.7128571 C522.432782,35.7128571 552.877419,66.1574941 552.877419,103.712857 C552.877419,138.50635 526.746003,167.196525 493.038376,171.228175 L499.681642,179.403631 C501.074709,181.118174 500.8141,183.63739 499.099557,185.030457 C498.386554,185.609772 497.495869,185.926001 496.577186,185.926001 L474.38495,185.926001 C472.175811,185.926001 470.38495,184.13514 470.38495,181.926001 C470.38495,181.007318 470.701179,180.116634 471.280494,179.403631 L477.824721,171.351541 C443.583343,167.823128 416.877419,138.886744 416.877419,103.712857 C416.877419,66.1574941 447.322056,35.7128571 484.877419,35.7128571 Z" id="Combined-Shape-Copy-73" fill="#0091FF" transform="translate(484.8774, 110.8194) rotate(9) translate(-484.8774, -110.8194)"></path>
        <path d="M590.986541,123.878205 C622.466772,123.878205 647.986541,149.397974 647.986541,180.878205 C647.986541,210.137254 625.940971,234.247284 597.554195,237.50393 L602.21794,243.156416 C603.623798,244.860486 603.382049,247.381582 601.677979,248.787441 C600.961403,249.378615 600.061407,249.701947 599.132447,249.701947 L583.10356,249.701947 C580.894422,249.701947 579.10356,247.911086 579.10356,245.701947 C579.10356,244.772987 579.426893,243.872991 580.018067,243.156416 L584.659597,237.531028 C556.156835,234.383453 533.986541,210.219904 533.986541,180.878205 C533.986541,149.397974 559.50631,123.878205 590.986541,123.878205 Z" id="Combined-Shape-Copy-74" fill="#FA0098" transform="translate(590.9865, 186.7901) rotate(28) translate(-590.9865, -186.7901)"></path>
        <path d="M110.877419,99.7128571 C148.432782,99.7128571 178.877419,130.157494 178.877419,167.712857 C178.877419,202.50635 152.746003,231.196525 119.038376,235.228175 L125.681642,243.403631 C127.074709,245.118174 126.8141,247.63739 125.099557,249.030457 C124.386554,249.609772 123.495869,249.926001 122.577186,249.926001 L100.38495,249.926001 C98.1758113,249.926001 96.3849503,248.13514 96.3849503,245.926001 C96.3849503,245.007318 96.7011795,244.116634 97.2804943,243.403631 L103.824721,235.351541 C69.5833426,231.823128 42.8774191,202.886744 42.8774191,167.712857 C42.8774191,130.157494 73.3220562,99.7128571 110.877419,99.7128571 Z" id="Combined-Shape-Copy-75" fill="#F7B500" transform="translate(110.8774, 174.8194) rotate(-24) translate(-110.8774, -174.8194)"></path>
        <path d="M190.877419,89.7128571 C228.432782,89.7128571 258.877419,120.157494 258.877419,157.712857 C258.877419,192.50635 232.746003,221.196525 199.038376,225.228175 L205.681642,233.403631 C207.074709,235.118174 206.8141,237.63739 205.099557,239.030457 C204.386554,239.609772 203.495869,239.926001 202.577186,239.926001 L180.38495,239.926001 C178.175811,239.926001 176.38495,238.13514 176.38495,235.926001 C176.38495,235.007318 176.701179,234.116634 177.280494,233.403631 L183.824721,225.351541 C149.583343,221.823128 122.877419,192.886744 122.877419,157.712857 C122.877419,120.157494 153.322056,89.7128571 190.877419,89.7128571 Z" id="Combined-Shape-Copy-76" fill="#FA6400" transform="translate(190.8774, 164.8194) rotate(-7) translate(-190.8774, -164.8194)"></path>
        <path d="M124.305534,155.793224 C148.053778,155.793224 167.305534,175.04498 167.305534,198.793224 C167.305534,220.481558 151.248706,238.41962 130.374142,241.368318 L132.304367,243.682078 C133.718623,245.379186 133.489327,247.901444 131.792219,249.315701 C131.073359,249.914751 130.167228,250.242816 129.231482,250.242816 L121.311814,250.242816 C119.102675,250.242816 117.311814,248.451955 117.311814,246.242816 C117.311814,245.30707 117.639879,244.400938 118.238929,243.682078 L119.991408,241.579505 C98.2688918,239.415549 81.3055337,221.085389 81.3055337,198.793224 C81.3055337,175.04498 100.557289,155.793224 124.305534,155.793224 Z" id="Combined-Shape-Copy-77" fill="#44D7B6" transform="translate(124.3055, 203.018) rotate(-18) translate(-124.3055, -203.018)"></path>
        <path d="M69.6463269,178.830098 C107.20169,178.830098 137.646327,209.274735 137.646327,246.830098 C137.646327,281.623591 111.514911,310.313766 77.8072839,314.345416 L84.45055,322.520872 C85.8436168,324.235415 85.5830082,326.754632 83.8684645,328.147698 C83.1554617,328.727013 82.2647771,329.043242 81.346094,329.043242 L59.1538581,329.043242 C56.9447191,329.043242 55.1538581,327.252381 55.1538581,325.043242 C55.1538581,324.124559 55.4700873,323.233875 56.0494021,322.520872 L62.5936283,314.468782 C28.3522504,310.940369 1.64632693,282.003985 1.64632693,246.830098 C1.64632693,209.274735 32.0909639,178.830098 69.6463269,178.830098 Z" id="Combined-Shape-Copy-78" fill="#B620E0" transform="translate(69.6463, 253.9367) rotate(-7) translate(-69.6463, -253.9367)"></path>
        <path d="M435.246703,52.4383058 C472.802066,52.4383058 503.246703,82.8829428 503.246703,120.438306 C503.246703,155.231799 477.115287,183.921973 443.40766,187.953623 L450.050926,196.129079 C451.443992,197.843623 451.183384,200.362839 449.46884,201.755906 C448.755837,202.335221 447.865153,202.65145 446.94647,202.65145 L424.754234,202.65145 C422.545095,202.65145 420.754234,200.860589 420.754234,198.65145 C420.754234,197.732767 421.070463,196.842082 421.649778,196.129079 L428.194004,188.07699 C393.952626,184.548577 367.246703,155.612193 367.246703,120.438306 C367.246703,82.8829428 397.69134,52.4383058 435.246703,52.4383058 Z" id="Combined-Shape-Copy-79" fill="#6236FF" transform="translate(435.2467, 127.5449) rotate(-7) translate(-435.2467, -127.5449)"></path>
        <path d="M314.393342,52.0382531 C351.948705,52.0382531 382.393342,82.4828901 382.393342,120.038253 C382.393342,154.831746 356.261926,183.521921 322.554299,187.553571 L329.197565,195.729027 C330.590632,197.44357 330.330024,199.962786 328.61548,201.355853 C327.902477,201.935168 327.011793,202.251397 326.093109,202.251397 L303.900874,202.251397 C301.691735,202.251397 299.900874,200.460536 299.900874,198.251397 C299.900874,197.332714 300.217103,196.44203 300.796418,195.729027 L307.340644,187.676937 C273.099266,184.148524 246.393342,155.21214 246.393342,120.038253 C246.393342,82.4828901 276.837979,52.0382531 314.393342,52.0382531 Z" id="Combined-Shape-Copy-80" fill="#6DD400" transform="translate(314.3933, 127.1448) rotate(-7) translate(-314.3933, -127.1448)"></path>
        <g id="Group-4-Copy-11" transform="translate(121.9852, 322.1519) rotate(-19) translate(-121.9852, -322.1519)translate(41.9852, 233.6519)">
            <path d="M80,-9.09494702e-13 C124.18278,-9.17610947e-13 160,35.81722 160,80 C160,121.114665 128.984463,154.985263 89.0741346,159.491048 L98.0465099,170.468671 C99.4445243,172.179183 99.1911952,174.699141 97.4806834,176.097156 C96.7662856,176.681038 95.8720043,177 94.9493542,177 L66.0506458,177 C63.8415068,177 62.0506458,175.209139 62.0506458,173 C62.0506458,172.07735 62.3696074,171.183069 62.9534901,170.468671 L71.845753,159.589533 C31.4931352,155.504406 1.22807153e-11,121.430011 1.22781785e-11,80 C1.22727676e-11,35.81722 35.81722,-9.04083872e-13 80,-9.09494702e-13 Z" id="Combined-Shape" fill="#E02020"></path>
            <text id="Mentoring" font-family="Lato-Bold, Lato" font-size="24" font-weight="bold" line-spacing="41" fill="#FFFFFF">
                <tspan x="19.5" y="83.8043478">UX Writing</tspan>
            </text>
        </g>
        <path d="M322.640901,162.434429 C360.196264,162.434429 390.640901,192.879066 390.640901,230.434429 C390.640901,265.227923 364.509485,293.918097 330.801858,297.949747 L337.445124,306.125203 C338.838191,307.839747 338.577582,310.358963 336.863039,311.752029 C336.150036,312.331344 335.259351,312.647573 334.340668,312.647573 L312.148432,312.647573 C309.939293,312.647573 308.148432,310.856712 308.148432,308.647573 C308.148432,307.72889 308.464661,306.838206 309.043976,306.125203 L315.588202,298.073113 C281.346824,294.544701 254.640901,265.608316 254.640901,230.434429 C254.640901,192.879066 285.085538,162.434429 322.640901,162.434429 Z" id="Combined-Shape-Copy-81" fill="#1DB0D8" transform="translate(322.6409, 237.541) rotate(-7) translate(-322.6409, -237.541)"></path>
        <g id="Group-4-Copy-12" transform="translate(206.7081, 215.4408) rotate(-17) translate(-206.7081, -215.4408)translate(126.7081, 126.9408)">
            <path d="M80,-2.00373051e-12 C124.18278,-2.01184676e-12 160,35.81722 160,80 C160,121.114665 128.984463,154.985263 89.0741346,159.491048 L98.0465099,170.468671 C99.4445243,172.179183 99.1911952,174.699141 97.4806834,176.097156 C96.7662856,176.681038 95.8720043,177 94.9493542,177 L66.0506458,177 C63.8415068,177 62.0506458,175.209139 62.0506458,173 C62.0506458,172.07735 62.3696074,171.183069 62.9534901,170.468671 L71.845753,159.589533 C31.4931352,155.504406 -8.19712631e-12,121.430011 -8.19966317e-12,80 C-8.205074e-12,35.81722 35.81722,-1.99831968e-12 80,-2.00373051e-12 Z" id="Combined-Shape" fill="#6236FF"></path>
            <text id="Mentoring" font-family="Lato-Bold, Lato" font-size="24" font-weight="bold" line-spacing="41" fill="#FFFFFF">
                <tspan x="19.5" y="83.8043478">UX Writing</tspan>
            </text>
        </g>
        <g id="Group-4-Copy-17" transform="translate(262.9852, 326.1519) rotate(-5) translate(-262.9852, -326.1519)translate(182.9852, 237.6519)">
            <path d="M80,-2.30215846e-12 C124.18278,-2.31027471e-12 160,35.81722 160,80 C160,121.114665 128.984463,154.985263 89.0741346,159.491048 L98.0465099,170.468671 C99.4445243,172.179183 99.1911952,174.699141 97.4806834,176.097156 C96.7662856,176.681038 95.8720043,177 94.9493542,177 L66.0506458,177 C63.8415068,177 62.0506458,175.209139 62.0506458,173 C62.0506458,172.07735 62.3696074,171.183069 62.9534901,170.468671 L71.845753,159.589533 C31.4931352,155.504406 -2.30048369e-11,121.430011 -2.30073738e-11,80 C-2.30127846e-11,35.81722 35.81722,-2.29674763e-12 80,-2.30215846e-12 Z" id="Combined-Shape" fill="#FA6400"></path>
            <text id="Mentoring" font-family="Lato-Bold, Lato" font-size="24" font-weight="bold" line-spacing="41" fill="#FFFFFF">
                <tspan x="19.5" y="83.8043478">UX Writing</tspan>
            </text>
        </g>
        <path d="M535.45244,89.6720156 C573.007803,89.6720156 603.45244,120.116653 603.45244,157.672016 C603.45244,192.465509 577.321024,221.155683 543.613397,225.187333 L550.256663,233.362789 C551.64973,235.077333 551.389121,237.596549 549.674578,238.989616 C548.961575,239.568931 548.07089,239.88516 547.152207,239.88516 L524.959971,239.88516 C522.750832,239.88516 520.959971,238.094299 520.959971,235.88516 C520.959971,234.966477 521.2762,234.075792 521.855515,233.362789 L528.399741,225.3107 C494.158363,221.782287 467.45244,192.845903 467.45244,157.672016 C467.45244,120.116653 497.897077,89.6720156 535.45244,89.6720156 Z" id="Combined-Shape-Copy-82" fill="#6DD400" transform="translate(535.4524, 164.7786) rotate(20) translate(-535.4524, -164.7786)"></path>
        <path d="M407.305534,104.793224 C431.053778,104.793224 450.305534,124.04498 450.305534,147.793224 C450.305534,169.481558 434.248706,187.41962 413.374142,190.368318 L415.304367,192.682078 C416.718623,194.379186 416.489327,196.901444 414.792219,198.315701 C414.073359,198.914751 413.167228,199.242816 412.231482,199.242816 L404.311814,199.242816 C402.102675,199.242816 400.311814,197.451955 400.311814,195.242816 C400.311814,194.30707 400.639879,193.400938 401.238929,192.682078 L402.991408,190.579505 C381.268892,188.415549 364.305534,170.085389 364.305534,147.793224 C364.305534,124.04498 383.557289,104.793224 407.305534,104.793224 Z" id="Combined-Shape-Copy-83" fill="#E02020" transform="translate(407.3055, 152.018) rotate(7) translate(-407.3055, -152.018)"></path>
        <path d="M482.393342,179.038253 C519.948705,179.038253 550.393342,209.48289 550.393342,247.038253 C550.393342,281.831746 524.261926,310.521921 490.554299,314.553571 L497.197565,322.729027 C498.590632,324.44357 498.330024,326.962786 496.61548,328.355853 C495.902477,328.935168 495.011793,329.251397 494.093109,329.251397 L471.900874,329.251397 C469.691735,329.251397 467.900874,327.460536 467.900874,325.251397 C467.900874,324.332714 468.217103,323.44203 468.796418,322.729027 L475.340644,314.676937 C441.099266,311.148524 414.393342,282.21214 414.393342,247.038253 C414.393342,209.48289 444.837979,179.038253 482.393342,179.038253 Z" id="Combined-Shape-Copy-84" fill="#FFD600" transform="translate(482.3933, 254.1448) rotate(24) translate(-482.3933, -254.1448)"></path>
        <g id="Group-12-Copy-19" transform="translate(601.9916, 263.7349) rotate(25) translate(-601.9916, -263.7349)translate(521.4916, 175.2349)">
            <path d="M81,-6.65068001e-12 C125.18278,-6.65879625e-12 161,35.81722 161,80 C161,121.430011 129.506865,155.504406 89.154247,159.589533 L98.0465099,170.468671 C99.4445243,172.179183 99.1911952,174.699141 97.4806834,176.097156 C96.7662856,176.681038 95.8720043,177 94.9493542,177 L66.0506458,177 C63.8415068,177 62.0506458,175.209139 62.0506458,173 C62.0506458,172.07735 62.3696074,171.183069 62.9534901,170.468671 L71.845753,159.589533 C31.4931352,155.504406 1.50234103e-11,121.430011 1.50208734e-11,80 C1.50154626e-11,35.81722 35.81722,-6.64526918e-12 80,-6.65068001e-12 L81,-6.65068001e-12 Z" id="Combined-Shape" fill="#44D7B6"></path>
            <text id="Mentoring" font-family="Lato-Bold, Lato" font-size="24" font-weight="bold" line-spacing="41" fill="#FFFFFF">
                <tspan x="24.316" y="83.8043478">Mentoring</tspan>
            </text>
        </g>
        <g id="Group-12-Copy-20" transform="translate(471.5584, 221.8164) rotate(11) translate(-471.5584, -221.8164)translate(391.0584, 133.3164)">
            <path d="M81,8.52651283e-14 C125.18278,7.71488833e-14 161,35.81722 161,80 C161,121.430011 129.506865,155.504406 89.154247,159.589533 L98.0465099,170.468671 C99.4445243,172.179183 99.1911952,174.699141 97.4806834,176.097156 C96.7662856,176.681038 95.8720043,177 94.9493542,177 L66.0506458,177 C63.8415068,177 62.0506458,175.209139 62.0506458,173 C62.0506458,172.07735 62.3696074,171.183069 62.9534901,170.468671 L71.845753,159.589533 C31.4931352,155.504406 1.04048825e-11,121.430011 1.04023457e-11,80 C1.03969348e-11,35.81722 35.81722,9.06759583e-14 80,8.52651283e-14 L81,8.52651283e-14 Z" id="Combined-Shape" fill="#32C5FF"></path>
            <text id="Mentoring" font-family="Lato-Bold, Lato" font-size="24" font-weight="bold" line-spacing="41" fill="#FFFFFF">
                <tspan x="24.316" y="83.8043478">Mentoring</tspan>
            </text>
        </g>
        <g id="Group-12-Copy-21" transform="translate(344.5584, 212.8164) rotate(-2) translate(-344.5584, -212.8164)translate(264.0584, 124.3164)">
            <path d="M81,2.92743607e-12 C125.18278,2.91931983e-12 161,35.81722 161,80 C161,121.430011 129.506865,155.504406 89.154247,159.589533 L98.0465099,170.468671 C99.4445243,172.179183 99.1911952,174.699141 97.4806834,176.097156 C96.7662856,176.681038 95.8720043,177 94.9493542,177 L66.0506458,177 C63.8415068,177 62.0506458,175.209139 62.0506458,173 C62.0506458,172.07735 62.3696074,171.183069 62.9534901,170.468671 L71.845753,159.589533 C31.4931352,155.504406 -2.18111251e-11,121.430011 -2.1813662e-11,80 C-2.18190728e-11,35.81722 35.81722,2.9328469e-12 80,2.92743607e-12 L81,2.92743607e-12 Z" id="Combined-Shape" fill="#0091FF"></path>
            <text id="Mentoring" font-family="Lato-Bold, Lato" font-size="24" font-weight="bold" line-spacing="41" fill="#FFFFFF">
                <tspan x="24.316" y="83.8043478">Mentoring</tspan>
            </text>
        </g>
        <g id="Group-13-Copy-17" transform="translate(537.3647, 347.5498) rotate(24) translate(-537.3647, -347.5498)translate(456.8647, 259.0498)">
            <path d="M81,-1.95541361e-11 C125.18278,-1.95622523e-11 161,35.81722 161,80 C161,121.430011 129.506865,155.504406 89.154247,159.589533 L98.0465099,170.468671 C99.4445243,172.179183 99.1911952,174.699141 97.4806834,176.097156 C96.7662856,176.681038 95.8720043,177 94.9493542,177 L66.0506458,177 C63.8415068,177 62.0506458,175.209139 62.0506458,173 C62.0506458,172.07735 62.3696074,171.183069 62.9534901,170.468671 L71.845753,159.589533 C31.4931352,155.504406 2.28910985e-10,121.430011 2.28908448e-10,80 C2.28903037e-10,35.81722 35.81722,-1.95487253e-11 80,-1.95541361e-11 L81,-1.95541361e-11 Z" id="Combined-Shape" fill="#6DD400"></path>
            <text id="Product-Management" font-family="Lato-Bold, Lato" font-size="24" font-weight="bold" fill="#FFFFFF">
                <tspan x="38.146" y="74.8043478">Product </tspan>
                <tspan x="10.126" y="103.804348">Management</tspan>
            </text>
        </g>
        <g id="Group-13-Copy-18" transform="translate(406.3647, 326.5498) rotate(3) translate(-406.3647, -326.5498)translate(325.8647, 238.0498)">
            <path d="M81,4.97379915e-13 C125.18278,4.8926367e-13 161,35.81722 161,80 C161,121.430011 129.506865,155.504406 89.154247,159.589533 L98.0465099,170.468671 C99.4445243,172.179183 99.1911952,174.699141 97.4806834,176.097156 C96.7662856,176.681038 95.8720043,177 94.9493542,177 L66.0506458,177 C63.8415068,177 62.0506458,175.209139 62.0506458,173 C62.0506458,172.07735 62.3696074,171.183069 62.9534901,170.468671 L71.845753,159.589533 C31.4931352,155.504406 4.27720842e-10,121.430011 4.27718305e-10,80 C4.27712894e-10,35.81722 35.81722,5.02790745e-13 80,4.97379915e-13 L81,4.97379915e-13 Z" id="Combined-Shape" fill="#F7B500"></path>
            <text id="Product-Management" font-family="Lato-Bold, Lato" font-size="24" font-weight="bold" fill="#FFFFFF">
                <tspan x="38.146" y="74.8043478">Product </tspan>
                <tspan x="10.126" y="103.804348">Management</tspan>
            </text>
        </g>
    </g>
</svg>