<?xml version="1.0" encoding="UTF-8"?><svg id="Layer_2" xmlns="http://www.w3.org/2000/svg" viewBox="0 0 250 180"><defs><style>.cls-1{fill:#fff;}.cls-2{fill:rgba(255,255,255,.82);}.cls-3{fill:rgba(255,255,255,.49);}.cls-4{fill:rgba(255,255,255,.44);}.cls-5{fill:rgba(255,255,255,.32);}</style></defs><polygon id="Path" class="cls-4" points="134.24 32.6 138 50.96 93.53 56.5 89.5 19 134.24 32.6"/><polygon id="Path-2" class="cls-5" points="250 18 235.55 136.5 217.66 133.89 221.24 59.25 134.26 32.81 133 26.73 250 18"/><path class="cls-4" d="M217.44,133.9l-.9,18.6-43.05-7.37v-.13s.01,0,.01,0l-.16-1.36-.19-1.93h-.03l-.74-6.28c6.84-.39,12.85-2.39,16.98-6.19l28.08,4.66Z"/><path class="cls-3" d="M173.49,145.13h-.04s-.02-.14-.02-.14l-61.73-10.64h-11.33v-3.99l-6.88-73.36L0,68.78l53.57,93.22,119.93-16.76v-.11Zm-80.78-14.7c-6.34,3.8-12.91,5.07-19.83,5.07-21.44,0-35.39-14.52-35.39-35.39s14.52-35.39,35.39-35.39c6.92,0,13.14,1.39,18.68,4.61v15.68c-4.38-4.38-10.84-7.14-18.68-7.14-12.33,0-20.41,9.1-20.41,22.24s8.77,22.25,20.99,22.25c7.84,0,13.49-2.3,19.25-7.03v15.1Z"/><path class="cls-2" d="M221.4,59.34l-3.58,74.62-.38-.06-28.08-4.66c.66-.6,1.27-1.25,1.82-1.94,2.54-3.16,4.01-7.28,4.01-12.43,0-11.53-5.3-17.64-19.02-21.56-7.95-2.19-11.87-4.15-11.87-8.99,0-4.26,3.22-7.15,9.11-7.15,6.8,0,12.33,2.65,17.75,7.03v-14.41c-4.85-3.11-10.49-5.07-18.22-5.07-10.59,0-19.42,5.08-22.03,14.34-.52,1.82-.79,3.81-.79,5.95,0,9.24,3.62,14.78,12.13,18.57,2.1,.94,4.51,1.78,7.23,2.53,7.15,2.07,11.42,4.03,11.42,9.22s-4.55,7.44-9.96,7.7c-.24,.01-.48,.01-.73,.01l-.21-.04v.05s-.17,0-.17,0c-7.52,0-13.24-3.04-18.38-6.9l-7.67-37.48h.28v-12.79h-2.9l-2.89-14.13h0s-3.85-18.84-3.85-18.84l86.98,26.43Z"/><g><path class="cls-1" d="M111.7,134.35l61.73,10.64-.52-3.31-.97-6.23c-.69,.03-1.4,.05-2.11,.05-7.49,0-14.18-2.07-18.56-4.95v-14.53c.06,.05,.12,.09,.18,.13l-7.67-37.48h-29v14.99h26.86v12.56h-26.86v15.33h29.97v12.8h-33.05Z"/><polygon class="cls-1" points="138.27 51.75 138.27 51.74 137.93 51 93.5 56.57 100.37 129.78 100.37 65.88 141.16 65.88 138.27 51.75"/></g></svg>