<?xml version="1.0" encoding="UTF-8"?><svg id="Layer_1" xmlns="http://www.w3.org/2000/svg" viewBox="0 0 205.42 180"><defs><style>.cls-1{fill:#fff;}</style></defs><g id="chicagocamps-logo"><path id="Combined-Shape-Copy-2" class="cls-1" d="M100.65,151.94c5.36,0,9.21,4.02,9.21,8.94v.09c0,5.01-3.93,9.03-9.3,9.03s-9.21-4.02-9.21-8.94v-.09c0-4.92,3.93-9.03,9.3-9.03Zm-91.53,0c3.31,0,5.27,1.07,6.88,2.68l-2.41,2.77c-1.34-1.25-2.68-1.97-4.47-1.97-2.95,0-5.01,2.41-5.01,5.45v.09c0,2.95,2.06,5.45,5.01,5.45,1.97,0,3.22-.8,4.56-2.06l2.41,2.5c-1.79,1.97-3.84,3.13-7.15,3.13-5.09,0-8.94-3.93-8.94-8.94v-.09c0-4.92,3.75-9.03,9.12-9.03Zm40.22,0c3.31,0,5.27,1.07,6.88,2.68l-2.41,2.77c-1.34-1.25-2.68-1.97-4.47-1.97-2.95,0-5.01,2.41-5.01,5.45v.09c0,2.95,2.06,5.45,5.01,5.45,1.97,0,3.22-.8,4.56-2.06l2.41,2.5c-1.79,1.97-3.84,3.13-7.15,3.13-5.09,0-8.94-3.93-8.94-8.94v-.09c0-4.92,3.75-9.03,9.12-9.03Zm82.68,0c3.31,0,5.27,1.07,6.88,2.68l-2.41,2.77c-1.34-1.25-2.68-1.97-4.47-1.97-2.95,0-5.01,2.41-5.01,5.45v.09c0,2.95,2.06,5.45,5.01,5.45,1.97,0,3.22-.8,4.56-2.06l2.41,2.5c-1.79,1.97-3.75,3.13-7.15,3.13-5.09,0-8.94-3.93-8.94-8.94v-.09c0-4.92,3.75-9.03,9.12-9.03Zm-49.34,0c3.13,0,5.01,.8,6.88,2.41l-2.41,2.95c-1.34-1.16-2.5-1.79-4.56-1.79-2.77,0-5.01,2.5-5.01,5.45v.09c0,3.22,2.15,5.54,5.27,5.54,1.43,0,2.59-.36,3.58-1.07v-2.5h-3.84v-3.31h7.6v7.6c-1.88,1.43-4.29,2.68-7.51,2.68-5.45,0-9.12-3.84-9.12-8.94v-.09c0-4.92,3.84-9.03,9.12-9.03Zm115.75,0c2.5,0,4.74,.8,6.44,2.23l-1.97,2.86c-1.52-1.07-3.04-1.7-4.56-1.7-1.43,0-2.23,.72-2.23,1.52v.09c0,1.16,.72,1.52,3.75,2.32,3.58,.89,5.54,2.15,5.54,5.18v.09c.18,3.49-2.41,5.36-6.26,5.36-2.68,0-5.27-.89-7.42-2.77l2.23-2.68c1.61,1.25,3.22,2.15,5.18,2.15,1.61,0,2.5-.63,2.5-1.61v-.09c0-.98-.63-1.43-3.49-2.23-3.49-.89-5.81-1.88-5.81-5.36v-.09c0-3.13,2.5-5.27,6.08-5.27Zm-160,.36v17.43h-3.84v-17.43h3.84Zm111.28-.09l7.42,17.52h-3.93l-1.61-3.93h-7.33l-1.61,3.93h-3.93l7.42-17.52h3.58Zm-82.77,0l7.42,17.52h-3.93l-1.61-3.93h-7.33l-1.61,3.93h-3.93l7.42-17.52h3.58Zm-45.94,.09v6.88h7.06v-6.88h3.84v17.43h-3.84v-6.97h-7.06v6.97h-3.84v-17.43h3.84Zm141.14-.09l4.56,7.33,4.56-7.33h4.11v17.43h-3.75v-11.26l-4.92,7.42h-.09l-4.83-7.42v11.26h-3.75v-17.43h4.11Zm23.06,0c4.11,0,6.7,2.5,6.7,5.99v.09c-.09,4.11-3.22,6.17-7.06,6.17h-2.95v5.18h-3.84v-17.43h7.15Zm-84.65,3.31c-3.13,0-5.18,2.41-5.18,5.45v.09c0,2.95,2.15,5.45,5.27,5.45,3.04-.09,5.18-2.5,5.18-5.54s-2.15-5.45-5.27-5.45Zm15.82,2.15l.63,2.77,2.68-.8-2.06,1.88,2.06,1.97-2.68-.8-.63,2.68-.63-2.68-2.68,.8,2.06-1.97-2.06-1.88,2.68,.8,.63-2.77Zm31.55-.89l-2.32,5.63h4.65l-2.32-5.63Zm-82.77,0l-2.32,5.63h4.65l-2.32-5.63Zm119.69-.98h-2.95v5.36h3.04c1.88-.09,3.04-1.25,3.04-2.77,0-1.7-1.16-2.59-3.13-2.59ZM69.36,52.01l9.83,9.83c-7.87,6.7-12.78,16.63-12.78,27.71,0,20.2,16.36,36.56,36.56,36.56s36.56-16.45,36.56-36.56c0-9.83-3.88-18.71-10.19-25.29l-.35-.36,9.83-9.83c9.03,9.12,14.66,21.63,14.66,35.49,0,27.89-22.61,50.5-50.5,50.5s-50.5-22.7-50.5-50.5c0-14.93,6.53-28.34,16.89-37.54Zm11.17,11.17l10.19,10.28c-4.92,3.75-8.04,9.56-8.04,16.18,0,11.17,9.12,20.29,20.29,20.29s20.29-9.12,20.29-20.29c0-5.39-2.11-10.27-5.52-13.9l-.29-.31,10.19-10.19c6.17,6.26,10.01,14.84,10.01,24.31,0,19.13-15.55,34.68-34.68,34.68s-34.68-15.55-34.68-34.68c0-10.55,4.74-19.93,12.25-26.37Zm22.17,15.37l1.97,8.04,7.96-2.32-6.08,5.63,6.08,5.72-7.96-2.41-1.97,8.13-1.88-8.13-7.96,2.41,6.08-5.72-6.08-5.63,7.96,2.32,1.88-8.04Zm.54-64.98c8.94,3.75,13.23,14.21,9.39,23.24,0,0-.98,2.23-2.41,4.92,2.23,2.06,4.29,4.47,5.99,7.06,1.61,3.04,2.77,6.35,2.86,9.56,0,8.4-6.79,15.2-15.2,15.2s-15.2-6.79-15.2-15.2c0-2.75,.96-5.35,2.21-7.56-.81-.29-1.45-1-1.64-1.82l-.03-.18-.07-.22c-.66-2.51,1.82-6.13,2.92-7.69l.09-.13-.05,.08c-.7,1.08-1.71,3.34,.84,5.4l.2,.15,.15,.12c.13,.11,.25,.24,.35,.39,1.11-1.26,2.99-3.21,5.13-5.42-2.77-4.38-4.65-8.58-4.29-10.91,.89-5.81,4.74-7.33,4.74-7.33,0,0-2.59,5.27,.45,8.94,.89,1.16,2.32,2.41,4.02,3.84,2.5-2.77,4.65-5.45,5.63-7.42,2.59-5.45-.27-12.51-6.08-15.02Zm1.16,36.38c-2.77,3.84-5.01,8.85-.72,13.23,4.47-4.47,3.58-8.58,.72-13.23Zm13.94-17.07c1.04,1.48,3.69,5.23,3.1,7.82l-.06,.23c-.18,1.16-1.25,2.15-2.5,2.15-1.43,0-2.5-1.16-2.5-2.5,0-.83,.3-1.5,.84-1.95l.14-.11c2.86-2.15,1.7-4.56,.98-5.63Zm-19.4-22.88c-.7,1.05-1.82,3.37,.79,5.48l.2,.15,.13,.12c.56,.52,.94,1.19,.85,1.94,0,1.34-1.16,2.5-2.5,2.5-1.19,0-2.23-.9-2.47-1.99l-.03-.16-.06-.23c-.59-2.59,2.06-6.34,3.1-7.82Z"/></g></svg>