<?xml version="1.0" encoding="UTF-8"?>
<svg width="266px" height="192px" viewBox="0 0 266 192" version="1.1" xmlns="http://www.w3.org/2000/svg" xmlns:xlink="http://www.w3.org/1999/xlink">
    <title>Group 45 Copy</title>
    <g id="Page-1" stroke="none" stroke-width="1" fill="none" fill-rule="evenodd">
        <g id="Group-45-Copy" transform="translate(0.546129, 0.414601)">
            <path d="M31.9047451,5.5863221 C13.1757731,18.7339471 -18.9290543,47.1971366 21.4201107,64.1653889 C61.7692757,81.1336412 65.1128131,68.6039543 70.4217809,43.209704 C75.7307487,17.8154537 50.6337171,-7.56130292 31.9047451,5.5863221 Z" id="Path-11" fill="#994813" transform="translate(36.571820, 36.969758) rotate(-3.000000) translate(-36.571820, -36.969758) "></path>
            <path d="M30.268659,5.87358785 C34.9483607,2.20836962 40.1932213,1.11662098 45.3242181,1.95804666 C43.5902802,2.63646568 41.8953266,3.59955543 40.268659,4.87358785 C22.253448,18.9833932 -8.31773269,49.0878117 32.8641849,63.9210975 C43.2592062,67.6652728 51.2013048,69.6559775 57.3303781,70.1275511 C50.6668889,72.5265301 40.1614684,71.1513938 22.8641849,64.9210975 C-18.3177327,50.0878117 12.253448,19.9833932 30.268659,5.87358785 Z" id="Combined-Shape" fill="#6F3A1A"></path>
            <path d="M229.557196,65.8950999 C205.445833,74.2831044 214.89014,107.989027 236.810251,109.134875 C258.730361,110.280723 258.744425,106.264138 262.907024,77.2868204 C267.069623,48.3095031 253.668559,57.5070954 229.557196,65.8950999 Z" id="Path-11-Copy-2" fill="#994813" transform="translate(239.513831, 83.435737) rotate(-3.000000) translate(-239.513831, -83.435737) "></path>
            <path d="M228.652835,66.4402287 C250.950178,57.3489911 263.694096,48.0371609 262.853443,71.4758358 C262.072566,53.1941596 249.563931,61.9142023 228.652835,70.4402287 C220.184129,73.8931521 216.186131,80.365551 215.551698,87.2507072 C214.813341,78.967581 218.554944,70.5574155 228.652835,66.4402287 Z" id="Combined-Shape" fill="#6F3A1A"></path>
            <path d="M180.619769,104.091119 C161.890858,117.238693 98.609962,159.007561 138.959148,175.975966 C179.308334,192.94437 195.063982,174.89122 203.076919,153.882544 C211.089856,132.873867 199.348679,90.943546 180.619769,104.091119 Z" id="Path-11-Copy" fill="#994813" transform="translate(165.695865, 142.142795) rotate(168.000000) translate(-165.695865, -142.142795) "></path>
            <path d="M126.690846,138.431546 C129.852508,118.189345 139.812129,99.0107912 174.081976,101.972961 C150.159003,104.396639 142.410284,121.020638 139.690846,138.431546 C137.293837,153.778137 146.193467,176.930605 157.06418,184.2576 C141.800771,196.073131 123.363748,159.732931 126.690846,138.431546 Z" id="Combined-Shape" fill="#6F3A1A"></path>
            <path d="M181.082167,116.985273 C185.007652,116.985273 188.189887,120.192232 188.189887,124.148216 C188.189887,128.104201 185.007652,131.31116 181.082167,131.31116 C180.949999,131.31116 180.818674,131.307525 180.688284,131.300348 C181.717361,133.011915 182.309531,135.019865 182.309531,137.167026 C182.309531,143.437465 177.259283,148.520661 171.029487,148.520661 C164.79969,148.520661 159.749443,143.437465 159.749443,137.167026 C159.749443,135.028168 160.337041,133.027447 161.35862,131.319482 C161.176798,131.334853 160.991668,131.342116 160.804853,131.342116 C156.879368,131.342116 153.697133,128.135157 153.697133,124.179172 C153.697133,120.223187 156.879368,117.016228 160.804853,117.016228 C164.730339,117.016228 167.912573,120.223187 167.912573,124.179172 C167.912573,124.938223 167.795417,125.669697 167.578334,126.356234 C168.665119,126.003324 169.825266,125.813391 171.029487,125.813391 C172.167566,125.813391 173.26628,125.983033 174.302031,126.298565 C174.088663,125.620264 173.974447,124.897682 173.974447,124.148216 C173.974447,120.192232 177.156682,116.985273 181.082167,116.985273 Z" id="Mask-Copy-14" fill="#6F3A1A" transform="translate(170.943510, 132.752967) rotate(-50.000000) translate(-170.943510, -132.752967) "></path>
        </g>
    </g>
</svg>