<?xml version="1.0" encoding="UTF-8"?><svg id="Layer_1" xmlns="http://www.w3.org/2000/svg" viewBox="0 0 538.15 180"><defs><style>.cls-1,.cls-2{fill:#fff;}.cls-2{fill-rule:evenodd;}</style></defs><g id="_42nDud"><g><path class="cls-1" d="M89.39,58.18c-4.77,1.34-9.53,2.71-14.32,3.98-.28,.08-.9-.42-1.1-.79-1.88-3.55-4.24-6.71-7.23-9.4-11.14-10.04-28.02-9.32-38.68-.89-7.24,5.72-11.09,13.33-11.98,22.45-.89,9.04,1.23,17.29,7.01,24.39,6.31,7.75,14.63,11.45,24.58,11.3,11.95-.17,20.59-5.79,26.09-16.34,.13-.25,.28-.49,.47-.82,5.03,1.35,10.04,2.7,15.42,4.15-1.79,3.04-3.29,6.04-5.21,8.75-7.25,10.22-17.02,16.8-29.45,18.72-16.89,2.61-31.49-2.35-42.88-15.15-16.1-18.08-16.14-44.48-.21-62.71,10.46-11.96,23.93-17.46,39.78-15.87,17.93,1.81,30.12,11.86,37.71,27.9,.02,.04,0,.08,0,.32Z"/><path class="cls-1" d="M186.28,62.44v-9.02h15.13V123.5h-15.16v-8.89c-.11-.07-.23-.14-.34-.22-.2,.3-.36,.63-.6,.89-6.77,7.45-15.32,10.14-25.11,9.17-16.02-1.58-29.18-14.69-31.2-31.55-2.06-17.25,7.74-33.7,23.95-38.95,10.72-3.47,20.84-2.25,29.77,5.16,1.19,1,2.29,2.14,3.56,3.32Zm-43.39,26.08c.06,12.38,10.03,22.43,22.18,22.37,12.08-.06,22.25-10.33,22.22-22.45-.02-12.28-10.16-22.5-22.28-22.48-12.24,.01-22.18,10.14-22.12,22.56Z"/><path class="cls-1" d="M353.55,53.35h2.85c4.06,0,8.11,.03,12.17-.02,.94-.01,1.35,.29,1.7,1.17,6.56,16.47,13.16,32.93,19.76,49.38,.15,.37,.32,.75,.56,1.31,.26-.61,.46-1.03,.63-1.46,6.24-16.33,12.5-32.66,18.71-48.99,.39-1.04,.85-1.44,2.02-1.42,4.84,.08,9.68,.04,14.74,.04-.18,.54-.29,.96-.45,1.35-12.81,31.91-25.61,63.83-38.45,95.73-.16,.4-.66,.96-1,.96-5.01,.06-10.02,.04-15.22,.04,.18-.51,.31-.91,.47-1.31,3.41-8.56,6.83-17.13,10.27-25.67,.35-.87,.35-1.59-.02-2.46-9.41-22.36-18.79-44.74-28.17-67.11-.17-.46-.33-.91-.57-1.54Z"/><path class="cls-1" d="M345.25,108.39v14.83c-2.74,.5-5.48,1.1-8.25,1.49-4.38,.61-8.77,.5-13.06-.7-8.55-2.39-13.51-8.13-15.14-16.76-.43-2.26-.55-4.6-.56-6.91-.05-10.68-.02-21.37-.02-32.05v-1.61h-13.18v-13.3h13.18v-4.51c0-3.77-.02-7.54,.02-11.3,0-.4,.26-1.06,.54-1.14,4.74-1.44,9.5-2.82,14.4-4.26v21.18h21.51v13.26h-21.44c-.04,.48-.08,.79-.08,1.11,0,10.93,0,21.86,0,32.79,0,4.11,1.44,7.45,5.48,9,1.66,.64,3.53,.85,5.33,.95,3.34,.18,6.57-.64,9.75-1.6,.46-.14,.93-.29,1.52-.48Z"/><path class="cls-1" d="M231.19,123.53h-15.21V53.47h15.18v10.78c6.31-10.25,15.75-12.67,26.93-11.17v16.14c-1.86-.29-3.67-.69-5.51-.86-11.05-1-21.04,5.89-21.31,18.43-.25,11.67-.08,23.35-.09,35.03v1.72Z"/><path class="cls-1" d="M117.23,123.53h-15.13V30.93h15.13V123.53Z"/><path class="cls-1" d="M269.87,53.41h15.02V123.51h-15.02V53.41Z"/><path class="cls-1" d="M277.58,42.64c-4.18,0-7.37-3.08-7.33-7.07,.04-3.94,3.25-7.01,7.33-7.01,4.06,0,7.27,3.11,7.27,7.06,0,4-3.14,7.03-7.27,7.02Z"/></g></g><g><polygon class="cls-2" points="453.81 45.59 531.06 45.59 492.44 67.85 453.81 45.59"/><polygon class="cls-2" points="446.23 58.16 484.81 80.48 484.86 125.06 446.23 58.16"/><polygon class="cls-2" points="499.57 80.76 538.15 58.44 499.53 125.34 499.57 80.76"/></g></svg>