<svg viewBox="0 0 63 63" xmlns="http://www.w3.org/2000/svg"><path d="m31.918345 58.9795862c-15.4205227 0-27.918345-12.4978222-27.918345-27.9183449 0-15.4205228 12.4978223-27.91834505 27.918345-27.91834505s27.918345 12.49782225 27.918345 27.91834505c0 15.4205227-12.4978223 27.9183449-27.918345 27.9183449zm-2.6173448-27.9183449c0 .8724482.4362241 1.6903685 1.1668992 2.0829709l10.469381 6.9795862c1.1996164.8942575 2.8245507.5670894 3.5334149-.632527.8942575-1.1996164.5670894-2.8245506-.632527-3.6315646l-9.3024785-6.1943831v-13.4357032c0-1.450444-1.1669009-2.6173449-2.7154946-2.6173449-1.3522958 0-2.6173448 1.1669009-2.6173448 2.6173449z"/></svg>