<?xml version="1.0" encoding="UTF-8"?>
<svg width="376px" height="242px" viewBox="0 0 376 242" version="1.1" xmlns="http://www.w3.org/2000/svg" xmlns:xlink="http://www.w3.org/1999/xlink">
    <title>rect955</title>
    <defs>
        <linearGradient x1="100.303622%" y1="58.2714452%" x2="-0.0369313375%" y2="57.38216%" id="linearGradient-1">
            <stop stop-color="#ECF3FF" offset="0%"></stop>
            <stop stop-color="#EEFAFF" offset="100%"></stop>
        </linearGradient>
    </defs>
    <g id="Page-1" stroke="none" stroke-width="1" fill="none" fill-rule="evenodd">
        <g id="2023-copy-10" transform="translate(-927, -7931)" fill="url(#linearGradient-1)" fill-rule="nonzero">
            <g id="Group-4" transform="translate(34.5, 7805)">
                <path d="M1107.7648,126.856223 C1070.99393,126.930541 1037.12417,146.839067 1019.17278,178.930345 C1011.58392,175.234811 1003.25571,173.308639 994.814881,173.29678 C967.491958,173.368603 944.237749,193.210098 939.866429,220.181173 C911.292544,232.145525 892.692495,260.094205 892.692495,291.07182 C892.73355,333.505219 927.155029,367.876763 969.588444,367.856223 C972.813242,367.827091 976.033011,367.595032 979.228656,367.161413 L1192.88989,367.161413 C1194.01193,367.242359 1195.13572,367.296702 1196.26032,367.324397 C1197.33198,367.294256 1198.40283,367.239914 1199.47206,367.161413 L1204.58883,367.161413 L1204.58883,366.781118 C1240.5961,362.522625 1267.73971,331.872827 1267.76498,295.44441 L1267.76498,295.306473 C1267.68155,260.82759 1243.24356,231.264844 1209.52618,224.854733 C1207.50882,170.124786 1162.5319,126.811008 1107.7648,126.856223 Z" id="rect955"></path>
            </g>
        </g>
    </g>
</svg>