<?xml version="1.0" encoding="UTF-8"?><svg id="Layer_4" xmlns="http://www.w3.org/2000/svg" viewBox="0 0 1583.02 559.6"><path d="M1171.66,206.87c1.14-.16,2.31-.15,3.46-.25,2.88-.24,3.51-.82,3.1-3.68-.57-3.91-1.66-7.74-2.09-11.66-.59-5.25-.72-10.56-1.14-15.83-.25-3.12-.6-6.25-1.08-9.34-.16-1.04-.84-2.01-1.3-3.06-.52,.36-.94,.49-1.02,.74-.26,.77-.57,1.57-.57,2.37,.06,9.96-1.47,19.75-3,29.54-.36,2.28-.73,4.56-.96,6.85-.34,3.37,1.25,4.79,4.61,4.32Z"/><path d="M846.23,198.93c2.45-2.31,3.94-2.42,6.42-.1,1.68,1.57,3.1,3.44,4.56,5.23,1.57,1.92,2.93,4.04,4.62,5.83,2.11,2.23,2.2,2.1,4.5-.36,.4-.43,1.1-.63,1.69-.82,.85-.27,1.74-.44,2.61-.65-4.99-2.94-7.9-7.34-10.55-11.9-2.65-4.56-6.14-7.35-11.74-6.64-.78,.1-1.64-.21-2.42-.45-1.76-.54-2.71,.45-2.77,1.89-.14,3.39-.64,6.83,.49,10.84,1.12-1.25,1.78-2.13,2.57-2.87Z"/><path d="M843.5,227.49c2.22-.62,2.57-1.85,2.46-3.25-.11-1.5-.93-2.48-2.51-2.52-1.34-.03-2.72,1.45-2.22,2.64,.52,1.23,1.58,2.22,2.27,3.13Z"/><path d="M1102.51,425.9c-1.07,1.63-2.16,3.27-2.99,5.03-.4,.85-.19,1.97-.26,2.97,3.09-3.95,7-1.59,10.74-1.65-1.29-2.38-2.28-4.4-3.44-6.31-1.02-1.68-2.97-1.69-4.05-.05Z"/><path d="M1048.11,424.44c-.81-1.1-1.75-.45-2.25,.6-.91,1.88-1.25,4.12-3.4,5.23-.24,.12-.35,1.14-.15,1.31,.41,.34,1.12,.63,1.6,.51,2.97-.74,5.84-.93,8.79,1.18,.11-.91,.3-1.32,.17-1.53-1.55-2.46-3.04-4.96-4.76-7.3Z"/><path d="M1568.69,297.55c-.33,.02-.67,0-.99,.07-2.12,.39-2.74,1.31-2.37,3.52,.21,1.3,.64,2.59,.64,3.89,.01,2.57-.7,3.24-3.15,3.56-4.58,.6-9.16,1.21-13.74,1.83-1.61,.22-2.62-.5-2.89-2.02-.21-1.14-.15-2.33-.15-3.49-.01-16.17-.01-32.33,0-48.5,0-1.16-.03-2.35,.21-3.47,.1-.46,.83-.93,1.36-1.09,.29-.09,.96,.36,1.13,.73,.64,1.37,1.15,2.8,1.71,4.21,.41-2.47-.03-4.7-.31-6.96-.07-.57,.23-1.6,.6-1.72,.67-.23,1.82-.24,2.23,.19,.88,.91,1.48,2.12,2.08,3.26,2,3.81,3.88,7.68,5.99,11.43,.38,.68,1.76,1.36,2.42,1.16,.68-.2,1.56-1.54,1.47-2.26-.67-4.9,3.41-10.62-2.46-14.65-.32-.23-.35-.91-.5-1.38-.78-2.35-1.29-4.81-3.92-6.05-.37-.18-.5-2.05-.09-2.42,.91-.82,2.18-1.38,3.4-1.7,2.08-.53,4.25-.69,6.34-1.19,1.44-.36,1.32-1.47,.35-2.16-1.05-.75-2.31-1.32-3.56-1.65-1.91-.5-3.89-.89-5.86-1.04-1.89-.15-2.68-.92-2.57-2.81,.08-1.37-.33-1.98-2.05-1.87-2.89,.17-3.34-.71-1.88-2.96,1.35-2.09,2.87-4.06,4.19-6.17,.21-.33-.19-1.15-.5-1.63-.08-.13-1.03,.03-1.27,.31-2.49,2.87-4.89,5.83-7.38,8.7-.7,.8-1.63,1.39-2.45,2.07-.55-.76-1.49-1.48-1.57-2.29-.42-4.43-4.2-6.64-6.36-9.89-.38-.56-1.54-.61-2.45-.94,1.02,4.44,1.93,8.42,2.8,12.24-1.81,.45-3.16,.79-4.52,1.12-.6,.14-1.43,.6-1.77,.37-3.13-2.16-5.43-.23-7.54,1.6-2.09,1.82-4.14,3.82-5.68,6.1-1.32,1.96-.3,3.63,2,3.91,1.29,.16,2.64-.09,3.96-.23,1.15-.13,2.28-.53,3.42-.52,2.27,.03,3.48,1.47,2.83,3.6-.47,1.55-1.35,3.05-2.34,4.34-3.8,4.95-4.14,10.43-2.96,17.4,1.87-2.2,3.08-3.66,4.33-5.08,.96-1.1,1.91-2.97,2.99-3.07,3.35-.31,4.49-2.35,5.29-5.07,.47-1.58,.9-3.5,3.15-3.15,2.5,.4,1.64,2.56,1.65,4.05,.06,13.83,.07,27.66,.05,41.5,0,3.13,.45,6.33-1.35,9.25-.35,.57-.06,1.56-.01,2.35,.1,1.49,.34,2.97,.35,4.46,.04,4.52-.03,4.93-4.34,5.84-9.66,2.03-18.74,5.6-27.51,9.95-5.61,2.8-11.09,5.95-16.36,9.35-3.73,2.4-6.99,5.53-10.53,8.25-.57,.44-1.66,.75-2.21,.49-.53-.24-.96-1.31-.96-2.01-.07-5.84-.04-11.67-.01-17.5,.01-2.77,.02-5.53,.18-8.29,.15-2.47,.66-4.92,.73-7.39,.13-4.49,.02-8.99,.08-13.49,0-.85,.37-1.7,.56-2.55,1.11,1.02,1.26,2.14,1.79,3.03,.35,.59,1.58,1.36,1.82,1.19,.72-.49,1.48-1.36,1.59-2.18,.13-.9-.58-1.89-.67-2.86-.11-1.43-.47-3.03,1.32-4.05,2.32,4.42,4.56,8.8,6.94,13.09,.71,1.28,1.87,2.84,3.51,2.05,.96-.46,1.43-2.04,2-3.17,.21-.41,.1-.99,.11-1.48,.07-2.63-.39-5.33,1.62-7.61,.36-.4,.14-1.66-.23-2.29-2.14-3.69-4.38-7.34-6.66-10.95-.86-1.36-.42-2.42,.83-2.77,2.37-.66,4.87-.86,7.26-1.47,.79-.2,1.88-1,1.97-1.64,.11-.74-.56-1.96-1.24-2.34-1.11-.63-2.59-.56-3.76-1.11-3.21-1.55-7.69-1.12-9.05-5.7-.11-.36-1.08-.74-1.54-.64-1.32,.29-2.97,.95-3.42-.68-.26-.94,.85-2.31,1.45-3.43,.31-.57,1.12-.97,1.23-1.54,.35-1.77,3.94-3.12,1.51-4.93-1.63-1.22-2.99,1.54-4.01,2.79-1.99,2.42-3.52,5.21-5.28,7.82-1.05,1.57-2.13,1.51-2.92-.12-.28-.59-.58-1.23-.64-1.87-.38-4.17-3.62-6.59-5.87-9.6-.42-.58-1.61-.58-2.59-.89,1.08,4.22,2.06,8.02,3.02,11.78-1.82,.61-3.26,1.19-4.75,1.57-.74,.18-1.58,.06-2.35-.07-4.85-.75-10.51,1.68-13.23,5.74-1.18,1.75-3.46,3.77-1.65,5.65,1.39,1.44,4.14,1.66,6.34,2.2,.7,.17,1.58-.4,2.39-.57,.64-.13,1.31-.27,1.96-.25,1.67,.05,2.47,1.13,1.67,2.6-1.34,2.47-2.97,4.78-4.43,7.19-.59,.96-1.63,2.1-1.47,2.98,.51,2.95,1.01,5.77,.1,8.8-.24,.79,.98,2.47,1.94,3.07,1.34,.83,2.42-.19,3.23-1.45,.89-1.39,1.89-2.73,2.99-3.96,.75-.84,1.73-2.04,2.64-2.07,3.23-.09,4.09-2.4,5.14-4.69,.5-1.1,1.06-2.19,1.79-3.66,1.42,1.99,.97,3.69,.98,5.26,.03,17.67-.12,35.33,.11,53,.07,5.74-.26,10.95-5.32,14.72-.75,.55-1.04,1.68-1.67,2.45-1.29,1.58-2.75,2.62-5.03,2.74-4.17,.24-4.52,1.02-3.08,4.95,.22,.59,.38,1.2,.56,1.76-4.69,2.56-4.25,2.55-4.04,7.64,.14,3.58,.52,7.7-2.93,10.5-1.63,1.33-1.76,3.08-1.45,4.99,.2,1.28,.37,2.56,.45,3.84,.1,1.61,.11,3.21,.12,4.82,.05,8.48,.11,16.97,.09,25.46,0,.96-.63,1.9-.75,2.87-.17,1.42-.98,1.79-2.24,2.18-3.77,1.16-3.76,1.26-3.8,5.17-.04,3.5-.02,7-.03,10.5,0,1.98-.92,3.2-2.98,3.21-5.33,.04-10.67,.07-15.99-.08-.66-.02-1.51-1.06-1.87-1.81-.32-.69-.11-1.64-.11-2.47,0-36.66,0-73.33,.02-110,0-1.06,.29-2.12,.51-3.6,.77,.62,1.23,.82,1.45,1.18,1.67,2.74,2.38,6.24,6.76,6.47,1.16,.07,2.19,2.3,3.31,3.51,1.53,1.65,3.09,3.27,5.37,5.69,.7-2.72,1.32-4.37,1.51-6.06,.21-1.97-.03-3.99,.07-5.99,.1-1.92-.33-3.54-1.57-5.08-1.24-1.55-2.13-3.37-3.29-4.98-.83-1.15-1.55-2.25-.59-3.61,.87-1.24,1.98-.62,3.14-.41,1.62,.28,3.32,.37,4.96,.24,3.65-.29,4.88-2.48,3.42-5.79-1.1-2.48-2.74-4.42-4.89-6.16-3.02-2.43-6.03-4.53-10.1-4.5-.63,.01-1.27-.44-1.92-.48-2.14-.15-2.35-1.61-2.09-3.19,.16-.94,.9-1.76,1.14-2.69,.35-1.42,.71-2.89,.68-4.33-.03-1.67-1.47-2.28-2.81-1.19-1.4,1.14-2.75,2.45-3.81,3.92-2.04,2.85-3.86,5.86-5.74,8.75-2.04-2.73-3.87-5.74-6.28-8.19-1.35-1.38-2.97-3.51-5.45-2.72-1.47,.47-.83,3.35,1.24,6.16,1.04,1.41,1.99,2.89,2.98,4.33-2.44-.55-4.45-1.73-6.67-.19,2.03,4.61,2.03,4.63-2.81,6.49-.92,.35-1.91,.78-2.85,.74-3.97-.18-5,2.71-6.56,5.63,3.37,.55,6.3,.99,9.21,1.52,2.2,.4,2.52,.99,1.57,3.05-1.68,3.61-3.47,7.17-5.19,10.75-.28,.59-.71,1.24-.66,1.84,.27,3.62,.56,7.25,1.05,10.85,.31,2.27,2.21,3.03,4.01,1.68,2.17-1.62,3.76-3.66,4.48-6.4,.69-2.66,1.88-5.13,4.75-6.87,.27,1.03,.54,1.62,.57,2.23,.08,1.66-.01,3.34,.14,4.99,.05,.5,.68,1.33,1.04,1.33,.51,0,1.2-.53,1.47-1.03,.55-.99,.87-2.11,1.28-3.18,.88,.98,1.09,1.77,1.11,2.56,.35,19.12,.71,38.25,1.01,57.37,.1,6.33,0,12.67,.04,19,.01,1.48,.31,2.97,.35,4.45,.21,8.14,.39,16.28,.57,24.41,.01,.17-.05,.33-.09,.49-.35,1.27-1.83,1.77-2.71,.82-.53-.57-.99-1.39-1.07-2.15-.19-1.69-1.1-2.25-2.66-2.28-2.13-.03-4.15,.09-4.39,2.85-.16,1.76-1.21,2.17-2.71,2.17-8-.01-16-.01-24-.01-1.69,0-3.06-.61-3.19-2.44-.18-2.3-1.54-2.63-3.41-2.57-1.83,.05-3.44,.43-3.63,2.56-.18,1.95-1.2,2.53-2.97,2.47-2.17-.06-4.34,.08-6.5-.03-2.89-.15-3.55-.71-3.56-3.62-.04-8.5,.39-17.01-.01-25.48-.22-4.74,2.14-9.38,.17-14.17-.57-1.37,1.33-3.4,2.9-3.38,2.9,.03,5.83,.08,8.69,.53,5.25,.84,6.71-.62,5.74-5.86-.25-1.35-.19-2.96,.31-4.21,1.85-4.58,3.98-9.03,5.9-13.58,.29-.69,.3-1.75-.01-2.42-1.87-3.98-5.89-6.09-8.43-9.5-1.98,1.62-3.96,3.23-5.93,4.86-.38,.32-.72,.7-1.07,1.05-3,3-3.27,6.23-.86,9.78,.55,.8,1.37,1.67,1.4,2.53,.1,2.85,1.35,4.99,3.13,7.13,1.9,2.27,1.3,4.61-1.51,5.48-2.3,.71-4.87,.63-7.33,.66-.62,0-1.63-.82-1.8-1.44-.56-2.06-1.11-4.19-1.12-6.29,0-2.96,.4-5.93,.8-8.87,.26-1.94,.62-3.92,1.31-5.73,1.06-2.77,2.57-5.36,3.68-8.12,1.81-4.54,1.39-6.13-2.46-8.97-1.25-.93-2.13-1.81-2.77-3.3-1.07-2.51-2.71-2.62-4.62-.7-1.74,1.73-3.53,3.41-5.18,5.22-.76,.82-1.89,1.99-1.75,2.82,.43,2.54,.92,5.28,2.25,7.41,1.83,2.93,1.51,6.79,4.31,9.2,.16,.15,.14,.7,.01,.96-1.28,2.61-.5,5.12,.04,7.77,.45,2.24,.24,4.65,.1,6.97-.15,2.66-1.32,3.64-3.91,3.06-1.66-.37-3.13-.34-4.82-.17-3.12,.31-5.11-2.76-3.74-5.33,1.71-3.19,3.45-6.37,5.31-9.47,1.92-3.22,1.96-6.28-.47-9.2-1.88-2.25-3.84-4.46-5.87-6.58-1.19-1.24-2.54-1.07-3.09,.64-.62,1.93-1.79,3-3.38,4.03-1.23,.8-2.24,2-3.18,3.15-1.02,1.24-1.07,2.58,.44,4.53,1.05-4.07,5.95-2.12,6.92-5.79,.05-.19,1.02-.39,1.35-.21,1.89,1.02,3.82,2.02,5.5,3.33,.58,.45,.98,2.15,.62,2.6-1.32,1.64-3,2.98-4.54,4.43-1.81-1.6-5.67,1.53-6.38-2.77-.05-.32-1.13-.77-1.57-.63-.46,.14-.84,.88-1.03,1.44-.14,.43-.07,1.04,.14,1.46,1.23,2.47,2.58,4.88,3.77,7.37,.48,1.01,.84,2.15,.94,3.26,.15,1.65-.05,3.33,.03,4.99,.13,2.83,.42,3.09,3.24,3.16,3.25,.07,6.35-1.21,9.74-.6,2.91,.54,4.11,1.45,3.67,4.31-.23,1.45-.49,2.94-.42,4.39,.13,2.47,.69,4.92,.74,7.38,.11,6.33,.03,12.66,.03,19,0,2.33,.05,4.67,0,7-.09,3.92-.51,4.37-4.22,4.5-1.83,.07-3.67-.04-5.5,.03-1.9,.07-3.11-.38-3.44-2.6-.12-.87-1.28-1.97-2.19-2.26-2.75-.87-4.55,.46-4.61,3.42-.11,5.83,.01,11.67-.04,17.5-.01,1.2-.32,2.41-.53,3.88-2.42-.93-3.35-2.23-3.45-4.3-.28-5.96-.68-11.92-.96-17.88-.32-6.79-.03-13.56-.83-20.39-1.05-8.87-.87-17.89-1.19-26.85-.36-10.28-.69-20.57-1.03-30.86,0-.34,.02-.68-.05-1-1.89-7.9-.89-15.92-.79-23.87,.06-4.55,.92-9.4,6.2-11.59,.74-.31,1.3-1.4,1.63-2.25,.66-1.69,1.33-3.45,1.56-5.23,.17-1.35,.14-3.14-.6-4.13-2.33-3.11-2.13-6.72-1.67-9.98,.39-2.74-.49-5.22-.36-7.83,.05-.8-.69-2.03-1.41-2.41-2.34-1.23-4.79-2.32-7.31-3.14-1.69-.56-2.92,.5-3.06,2.3-.06,.63,.56,1.46,.32,1.9-.49,.91-1.35,1.61-2.06,2.4-.46-.77-1.17-1.5-1.33-2.33-.33-1.73,.59-4.02-1.37-5.01-2.66-1.34-2.85-3.46-2.64-5.87,.2-2.36-.91-5.1,1.97-6.73,1.32-.76,.85-1.91,.43-3.08-2.03-5.61-4.04-11.23-5.95-16.88-4.95-14.59-8.41-29.67-14.27-43.97-.18-.44-.14-.98-.17-1.48-.31-4.89-.6-9.77-.9-14.66-.1-1.63,.78-2.43,2.27-2.74,2.98-.63,4.75,1.14,6.16,3.29,1.46,2.21,2.47,4.75,4.05,6.86,1.77,2.36,3.81,4.6,6.04,6.53,1.73,1.51,2.88,.79,3.32-1.58,.47-2.43,1.04-4.84,1.51-7.27,.25-1.3,.43-2.61,.56-3.93,.14-1.41-.17-2.45-1.75-3.13-3.74-1.61-6.54-4.31-8.87-7.72-3.54-5.2-7.19-10.38-12.65-13.85-.51-.32-1.13-.46-1.7-.68-.23,.72-.69,1.44-.67,2.15,.09,2.31,.52,4.62,.51,6.93-.04,8.33,.59,16.73-1.87,24.89-.14,.44-.12,1.07,.1,1.47,1.05,1.89,.08,3.59-.45,5.29-3.89,12.34-7.82,24.67-11.8,36.98-.38,1.17-1.23,2.2-1.85,3.29-.87-.89-1.79-1.73-2.58-2.68-.41-.5-.61-1.18-.88-1.79-2.49-5.62-4.96-11.24-7.47-16.85-1.97-4.43-3.78-8.85-3.19-13.89,.16-1.35,.48-3.06-1.44-3.82-.65,.77-1.23,1.59-1.93,2.27-1.66,1.62-3.76,1.35-5.66,.87-2.04-.51-1.89-2.44-1.94-4.13-.05-1.41,.38-3.02-1.95-4.39-.02,4.05,.17,7.64-.12,11.19-.21,2.59-.55,5.39-1.71,7.64-3.72,7.21-6.39,14.85-10.76,21.83-4.16,6.66-6.39,14.51-9.52,21.82-.58,1.36-1.21,2.76-2.11,3.91-1.25,1.61-2.33,1.55-3.55-.17-2.59-3.64-5.01-7.41-7.62-11.03-1.65-2.28-3.51-4.41-5.31-6.58-1.05-1.28-2.3-2.42-3.24-3.77-4.83-6.94-9.82-13.79-14.28-20.97-2.56-4.12-5.08-7.01-10.54-6.22-2.71,.39-3.54-.99-2.73-3.78,.71-2.48,.45-4.46-1.14-6.51-.77-.99-1.09-2.41-1.36-3.69-.31-1.47-1.18-1.99-2.48-1.79-3.13,.48-6.57-.25-7.42,4.79-.43,2.56-2.49,4.72-1.33,7.84,.68,1.82-.62,3.18-2.76,3.21-7.99,.11-15.99,.06-23.99,.03-2.06,0-2.98-1.2-3-3.19-.01-.66-.02-1.33-.02-2-.01-25-.01-50-.04-75,0-2.36,.26-4.4,1.98-6.41,1.54-1.82,2.16-4.4,3.28-6.61,2.3-4.54,1.36-9.45,1.84-14.21,.37-3.58-1.44-5.16-4.14-6.44-.75-.36-1.58-.53-2.34-.84-2.37-.99-3.66-2.59-3.62-5.36,.12-6.83-.03-13.67,.09-20.5,.03-1.38,.64-2.83,1.24-4.12,1.73-3.73,5.03-7.07,2.14-11.73-.42-.66,.43-2.07,.63-3.15,.19-1.06,.8-2.56,.34-3.13-1.81-2.22-1.43-4.71-1.41-7.16,.03-4.16-.31-8.4,.4-12.45,.8-4.6-2.95-7.55-3.22-11.62-.07-.99-.12-2.01-.36-2.97-.28-1.12-.69-2.23-1.19-3.27-.17-.34-.84-.62-1.25-.59-.41,.04-1.03,.43-1.13,.78-.26,.96-.3,1.97-.4,2.96-.2,1.85-.7,3.52-2.87,5.04-3.29-6.52-3.93-13.55-6.2-20.03-2.34-6.66-1.36-13.89-3.95-20.56-.94,2.69-1.83,5.38-1.8,8.06,.05,4.26-.94,8.23-2.12,12.22-.66,2.22-1.39,4.43-2,6.67-2.05,7.52-3.95,15.09-6.15,22.56-.63,2.12-2.78,3.93-2.98,6-.2,2.1,1.35,4.32,1.74,6.56,.34,1.95-.73,3.54-2.51,4.46-.87,.46-1.87,.69-2.78,1.09-3.07,1.37-3.56,2.43-2.83,5.86,.21,.96,.72,2.14,.37,2.88-2.01,4.19,.81,7.3,2.16,10.74,.6,1.52,1.82,2.99,1.86,4.5,.21,7,.17,14,.07,21-.05,2.74-1.55,4.62-4.21,5.6-1.7,.62-3.45,1.29-4.91,2.32-.76,.53-1.28,1.89-1.29,2.88-.02,2.81,.52,5.63,.39,8.42-.19,4.35,.74,8.54,3.29,11.8,3.48,4.43,4.27,9.16,3.83,14.44-.14,1.65,.11,3.34-.04,4.99-.13,1.52,.95,3.88-1.3,4.17-.95,.13-2.2-2.02-3.31-3.15-.1-.11-.12-.31-.19-.46-3.16-6.92-6.24-13.88-9.5-20.76-2.85-6-5.83-11.92-4.59-18.91,.11-.64,.18-1.45-.11-1.96-.44-.78-1.18-1.86-1.86-1.91-.65-.05-1.65,.95-1.99,1.71-.37,.86-.18,1.96-.19,2.96-.01,2.33,.16,4.68-.03,6.99-.28,3.45-1.88,6.09-5.43,7.83,0-3.02,.29-5.62-.06-8.13-.71-5.19-.85-5.18-2.29-6.95-.35,2.8,.15,5.82-2.74,7.77-3.39-3.89-2.6-9.4-5.55-14.11-1.96,5.34-3.82,9.79-5.18,14.38-.57,1.94-.34,4.23-.02,6.29,.43,2.78,.03,4.92-2.64,6.32-2.35,1.22-3.4,3-2.44,5.75,.37,1.05,.57,2.41,.23,3.42-.97,2.86-.07,5.44,1.47,7.52,1.78,2.4,2.17,4.96,1.64,7.53-.65,3.15-1.08,6.12,0,9.27,.33,.95-.18,2.29-.57,3.36-.81,2.17-1.77,4.3-2.72,6.42-.77,1.74-.8,4.09-3.49,4.31-2.12,.17-4.28,.71-6.36,.51-1.81-.18-3.35-1.25-3.82-3.41-.87-4.04-2.11-8.01-2.82-12.08-.72-4.06-.98-8.2-1.44-12.3-.92,1.15-1.38,2.45-1.64,3.8-.25,1.3-.12,2.67-.43,3.95-2.49,10.48-5.1,20.93-7.55,31.42-.45,1.95-1.3,2.97-3.3,2.97-2.17,0-4.34,.12-6.5-.03-2.99-.21-3.83-1.61-2.26-4.24,1.2-2.01,1.37-3.64-.13-5.44-1.58-1.92-1.82-4.2-1.77-6.6,.06-3.3,.01-6.6,.01-9.9-1.12,.52-1.46,1.27-1.97,1.86-1.61,1.89-3.49,1.8-4.85-.21-.37-.55-.59-1.2-.87-1.8-2.47-5.23-5.05-10.41-7.35-15.71-2.44-5.62-4.62-11.35-6.9-17.04-.32-.81-.53-1.67-.79-2.5-3.05,10.3-8.82,19.08-12.9,28.6-4.19,9.78-9.29,19.06-16.36,27.71,5.04,3.84,5.48,9.25,4.81,14.83-.64,5.37-.95,10.72-1.15,16.13-.14,3.8,.53,6.61,2.76,9.52,1.13,1.47,1.99,3.56,2.02,5.39,.1,4.8-.45,9.6-.48,14.41,0,3.03-.96,5.42-3.05,7.61-2.98,3.11-5.85,6.35-8.53,9.72-1.1,1.39-2.24,1.75-3.82,1.74-5.33-.03-10.68,.2-15.99-.08-3.89-.21-6.25,1.36-7.98,4.66-1.77,3.38-3.78,6.64-5.72,9.93-5.61,9.54-11.4,18.99-16.76,28.68-1.21,2.19-2.41,2.82-4.58,2.8-5.16-.05-10.33,.01-15.5-.04-.91,0-1.83-.3-3.03-.51,.34-.94,.4-1.68,.8-2.11,4.39-4.69,4.56-10.42,4.15-16.32-.08-1.16-.12-2.35,.02-3.5,.12-.95,.25-2.1,.83-2.77,4.12-4.83,2.47-10.33,1.91-15.66-.15-1.42-1.22-2.41-2.91-1.39-.67,.4-1.35,.78-2.35,1.35-1.86-5.89-3.7-11.38-5.29-16.94-.43-1.54-.65-3.58,.01-4.91,2.07-4.17-1.79-7.16-1.8-10.86,0-.41-1.23-.97-1.97-1.14-.27-.07-1.13,1.1-1.1,1.13,2.2,2.35,.72,3.95-.77,5.94-.72,.96-.33,2.84-.26,4.29,.08,1.64,.82,3.38,.46,4.88-1.14,4.73-2.66,9.36-4.04,14.03-2.1-3.42-2.51-6.76-.73-9.96,1.42-2.56,1.16-4.56-.7-6.79-1.58-1.89-3.13-4.02-3.92-6.31-1.08-3.14-3.36-5.24-5.13-7.81-3.32-4.83-7.42-9.38-7.42-15.91,0-2.15-.98-4.3-1.64-6.95-2.68,2.33-2.97,4.86-3.27,7.48-.23,2.1-.32,4.45-1.34,6.2-4.74,8.17-9.84,16.14-14.67,24.27-.69,1.16-1.04,2.92-.73,4.21,1.05,4.33-.83,8.49-.38,12.77,.13,1.27-.81,1.85-2.39,1.66-2.59-.31-5.24-.35-7.84-.14-.88,.07-2.35,1.23-2.38,1.94-.17,3.83-1.96,7.86,1.01,11.44,.52,.63,.74,1.49,1.16,2.21,1.28,2.25,1.54,4.37,.93,7.09-1.04,4.58-.69,9.28,2.4,13.32,1.92,2.5,3.67,5.13,5.54,7.66,2.53,3.41,4.85,6.83,2.78,11.37-.19,.42-.04,.99-.05,1.49-.24,27.13,.43,54.25-.89,81.38-.64,13.13-.1,26.32-.14,39.49-.01,1.68,.63,3.67-1.39,4.9-.23-.44-.52-.73-.51-1.01,.04-2.09-1.36-3.29-2.7-4.56-1.37-1.31-2.74-.72-4.16-.14-.29,.12-.74,.19-.97,.05-1.25-.77-2.42-1.68-3.69-2.43-1.5-.89-2.46,2.09-4.49,.47-1.49-1.2-2.72-.31-2.97,1.63-.21,1.64-.09,3.32-.23,4.98-.03,.38-.58,1.07-.77,1.04-.57-.12-1.5-.45-1.56-.83-.31-1.78-.44-3.6-.53-5.41-.19-3.58-.54-4.21-4.05-5.22-1.39-.41-2.57-.77-2.83-2.34-.41-2.44-1.28-4.95-1.02-7.34,.56-5.05-1.48-8.98-4.29-12.81-1.37-1.86-2.57-3.88-3.65-5.93-.6-1.12-.94-2.43-1.14-3.69-.62-3.75-1-7.53-1.69-11.26-.38-2.07-.33-3.76,.93-5.64,2.12-3.16,1.82-4.02-.68-6.98-2.18-2.58-4.93-3.87-8.24-4.04-1.49-.08-3-.09-4.5-.02-2.2,.11-2.78-1-2.89-3.04-.32-6.22-1.13-7-7.4-9.32-1.82-.67-4.08-1.57-4.96-3.06-1.84-3.09-2.94-6.64-4.22-10.04-.26-.69-.19-1.68,.1-2.38,.8-1.91,.35-3.39-.7-5.13-1.41-2.34-1.18-3.52,1.21-4.94,3.28-1.93,3.23-4.58,2.7-7.74-.34-2.07-.42-4.26-.14-6.33,.54-3.95-1.49-6.73-5.52-7.03-1.12-.08-2.24-.16-4.09-.29,1.15-1.49,1.72-2.82,2.73-3.43,2.45-1.48,3.41-3.62,3.29-6.27-.11-2.31,1.19-3.16,3.04-3.93,1.31-.55,2.9-1.33,3.5-2.46,1.32-2.48,2.35-5.26,.31-7.98-2.03-2.72-4.14-5.22-8.13-4.71-1.59,.2-2.95,.46-3.68,2.05-1.81,3.93-5.04,1.11-7.53,1.34-1.75,.16-1.29-2.27-1.47-3.69-.43-3.59-2.05-4.89-5.68-4.61-2.67,.2-4.66,1.49-6.22,3.66-.59,.84-1.65,1.36-2.49,2.02-.59-.94-1.5-1.82-1.71-2.84-1.07-5.17-1.96-10.37-2.88-15.57-.26-1.46-.19-3-.63-4.39-2.01-6.31-4.44-12.5-6.13-18.88-1.28-4.81-3.88-8.11-8.48-9.5-3.39-1.03-5.08-3.48-6.88-6.1-1.02-1.49-1.04-2.76,.22-4.01,4.1-4.04,3.23-8.7,1.76-13.48-1.12-3.67-3.81-5.25-7.33-5.84-3.74-.63-5.47,2.6-8.07,4.17-.48,4.33-4.59,8.51-.4,13.06,1.05,1.15,1.38,2.93-.07,4.05-2.44,1.88-4.74,4.23-8.42,3.02-2.44-.79-4.83-.72-6.93,1.35-1.93,1.89-4.05,1.46-6.36,.19-3.23-1.78-4.34-4.62-4.16-7.87,.17-3.32-.86-5.76-3.35-7.85-.98-.84-1.5-2.19-2.4-3.15-.71-.76-1.68-1.29-2.68-2.02-.67,2.67-.94,5.01-1.85,7.08-1.07,2.45-1.1,4.4,.94,6.29,1.44,1.33,1.83,2.9,1.34,4.96-.63,2.64,.14,5.15,1.29,7.7,2.21,4.86,5.76,7.86,10.61,9.95,2.6,1.13,5.62,2.93,6.86,5.26,2.82,5.32,3.91,11.31,2.68,17.38-1.44,7.14-2.95,14.27-4.81,21.3-.66,2.5-.16,4.19,1.99,4.74,3.08,.78,3.39,2.72,3.25,5.24-.07,1.33-.02,2.67-.01,4,.02,4.5-.06,9,.11,13.49,.13,3.47,.84,6.92,.83,10.38-.03,5.71-2.37,11.29-1.1,17.11-2.09,4.47-.13,8.88,.44,13.22,.93,7.02-3.94,13.96-10.9,14.92-1.95,.27-3.91,.86-5.7,1.68-4,1.83-5.17,5.28-3.69,9.38,.6,1.67,1.03,3.55,.92,5.3-.19,3.12-.91,6.21-1.3,9.32-.65,5.24-2.45,9.99-6.47,13.52-2.49,2.2-3.29,4.66-3.23,7.9,.07,3.28-.36,6.62-.96,9.85-.6,3.24-1.51,3.62-4.74,3.22-1.47-.18-2.98-.16-4.47-.17-3.47-.04-6.93-.05-10.4-.06-1.85-.01-2.57-1.01-2.84-2.76-.56-3.68-1.02-4.19-4.58-4.18-4.08,0-8.16,.23-12.23,.58-3.78,.33-5.69-1.14-5.66-4.92,.02-3.1,.04-6.21,.37-9.28,.35-3.27,1.14-6.5,1.6-9.77,1.1-7.86,2.01-15.75,3.2-23.6,1.16-7.67,2.57-15.31,3.84-22.98,.56-3.42,.76-6.92,1.6-10.27,2.54-10.1,5.69-20.06,6.5-30.53,.05-.62,.74-1.19,1.69-2.62,.42,2.2,1.07,3.53,.82,4.66-.83,3.74,.38,7.17,1.29,10.63,.19,.74,1.19,1.27,1.82,1.89,.72-.79,2.02-1.54,2.07-2.37,.16-2.46-.18-4.94-.3-7.42-.14-2.64-.34-5.29-.28-7.93,.01-.61,.86-1.58,1.47-1.71,.54-.11,1.64,.55,1.88,1.12,1.55,3.63,3.07,7.28,4.31,11.02,.89,2.69,1.83,5.28,1.76,8.36-.1,3.78,3.06,6.49,5.32,9.32,1.01,1.26,2.45,.75,3.52-.28,1.77-1.71,2.39-3.82,2.55-6.28,.2-3.12,.16-6.58,1.54-9.2,1.46-2.75,1.21-4.55-.38-6.74-.47-.66-1.05-1.45-1.07-2.19-.15-4.58-2.84-8.39-3.73-12.73-.38-1.82-.97-3.47-3.17-4.07-.54-.15-1.19-1.69-.98-2.32,.21-.62,1.53-1.38,2.21-1.26,6.51,1.14,12.72-2.09,20.28-.46-1.89-2.14-3.19-3.22-3.97-4.59-1.17-2.06-2.8-2.83-5.04-3.48-4.12-1.18-8.06-2.99-12.04-4.63-1.84-.76-2.08-1.94-.73-3.37,.67-.71,1.63-1.14,2.36-1.8,.91-.84,1.72-1.79,2.72-2.86q-3.58-1.08-5.97-.02c-1.36,.6-2.69,1.32-4.11,1.77-.45,.14-1.24-.27-1.65-.66-.25-.23-.21-.99-.03-1.4,.25-.59,.71-1.11,1.14-1.6,2.4-2.76,4.88-5.44,7.19-8.27,.93-1.13,1.65-2.49,2.17-3.86,.25-.64,.08-1.82-.38-2.25-.35-.33-1.65-.14-2.18,.27-4.45,3.45-8.84,6.98-13.19,10.55-.61,.5-.84,1.43-1.35,2.07-1.14,1.45-1.05,4.64-3.53,3.95-1.11-.31-1.61-3.27-2.12-5.1-.54-1.91-.71-3.91-1.11-5.85-.13-.63-.4-1.28-.77-1.8-2.59-3.65-5.17-7.3-7.89-10.86-.48-.63-1.57-.8-2.37-1.18-.25,.74-.79,1.53-.71,2.24,.59,4.85,2.26,9.61,.95,14.62-.17,.65,.52,1.53,.78,2.31,.29,.85,.54,1.7,.81,2.55-1.97-.42-3.33-1.26-4.53-2.29-.81-.7-1.21-2.43-2.55-1.52-.49,.33,0,2.06-.02,3.15,0,.28-.25,.56-.44,.95-1.98,.4-3.27-1.09-4.88-1.81-1.41-.64-3.65-1.54-4.47-.92-2.16,1.63-4.06,3.33-7,3.25-.5-.02-1.04,.73-1.53,1.17-1.96,1.77-4.02,3.45-5.83,5.37-1.21,1.29-2.29,2.83-2.97,4.45-.35,.82-.05,2.62,.58,3.03,2.5,1.62,4.54,4.08,8.42,2.99,3.03-.86,6.63-1.01,9.41,1.73,1.16,1.14,1.44,2.38,.49,3.5-3.37,3.93-6.05,8.4-10.08,11.81-2.06,1.74-5.29,3.52-2.73,7.28,.26,.38-.2,1.23-.28,1.87-.45,3.44-1.02,6.88-1.24,10.33-.06,.93,.75,2.4,1.55,2.75,.76,.33,2.33-.16,3.01-.83,2.95-2.91,5.77-5.97,8.51-9.09,1.02-1.16,1.79-1.82,3.29-.73,.74,.53,2.4,1.1,2.6,.84,1.93-2.5,6.04-3.3,5.96-7.39-.09-4.33,2.67-6.02,6.92-7.35-.13,2.55,.17,4.75-.4,6.7-1.84,6.27-2.38,12.66-2.54,19.13-.04,1.66,.01,3.34-.18,4.99-.56,4.76-1.19,9.51-1.83,14.25-.57,4.26-1.26,8.5-1.77,12.75-.69,5.74-1.88,11.37-3.14,17.01-1.47,6.6-2.23,13.36-3.22,20.06-1.02,6.86-1.9,13.74-2.92,20.61-.24,1.62-.6,3.29-1.25,4.79-.67,1.53-1.64,2.65-3.86,2.24-2.7-.51-5.57-.78-8.27-.43-4.73,.6-9.39,.26-14.09-.06-1.31-.09-2.64,.18-3.96,.27-1.46,.09-2.91,.25-4.36,.23-3.75-.08-7.5-.27-11.24-.36-1.44-.03-2.88,.17-4.31,.14-3.58-.06-7.16-.21-10.74-.28-1.77-.03-3.55,0-5.32,.05-6.57,.15-13.15,.21-19.72,.53-2.77,.13-4.14-.23-5.26-2.61-1.75-3.74-3.83-7.39-5.03-11.31-1.84-5.99-3.8-11.9-6.34-17.63-.8-1.82-1.55-3.69-2.08-5.6-.97-3.48-.85-3.45,2.18-5.62,3.38-2.41,7.56-3.6,10.79-5.87,6.62-4.64,13.88-8.37,19.85-14.09,5.61-5.36,11.89-10.02,16.8-16.12,1.55-1.94,3-4,4.79-5.71,6.61-6.32,10.85-14.22,14.61-22.34,2.5-5.38,4.17-11.15,6.42-16.66,5.19-12.73,7.47-26.12,8.35-39.7,.67-10.43-.03-20.89-1.82-31.25-2.9-16.81-8.59-32.59-17.15-47.35-9.04-15.57-20.76-28.85-34.81-39.99-15.43-12.23-32.85-20.75-51.95-25.5-9.45-2.35-19.01-4.74-28.92-4.27-5.74,.28-11.47,.7-17.2,.84-10.89,.27-21.36,2.9-31.65,6.02-12.28,3.72-23.75,9.38-34.47,16.54-11.83,7.92-22.26,17.29-31.29,28.31-6.04,7.37-11.3,15.21-15.75,23.59-6.43,12.09-10.99,24.86-13.37,38.4-1.26,7.19-2.6,14.35-2.57,21.69,.03,7.47-.47,15.06,.35,22.5,.77,7.01,2.17,14.37,4.36,21.08,.36,1.09,1.03,1.96,1.43,3.03,.58,1.54,.9,3.22,1.4,4.79,1,3.18,2.19,6.35,3.93,9.21,.34,.56,.42,1.26,.66,1.88,2.32,6.03,4.6,12.07,9.1,16.95,.76,.82,1.06,2.05,1.66,3.05,.84,1.39,1.69,2.78,2.66,4.08,1.2,1.59,2.56,3.05,3.78,4.62,2.45,3.13,4.6,6.55,7.34,9.4,3.79,3.95,7.8,7.74,12.1,11.12,2.67,2.09,4.79,4.71,7.85,6.53,6.67,3.98,12.87,8.72,20.07,11.82,.87,.37,1.46,1.35,2.26,1.94,1.59,1.18,4.19,2.02,4.6,3.5,.47,1.69-.94,3.93-1.62,5.9-2.1,6.1-4.39,12.13-6.32,18.28-1.18,3.78-3.1,7.22-4.02,11.19-.94,4.05-3.15,8.22-5.96,11.29-2.1,2.3-2.62,4.29-2.58,6.98,.04,2.66,.13,5.35-.17,7.98-.1,.85-1.26,2.03-2.13,2.25-1.55,.38-2.4-.81-2.6-2.31-.09-.66,.05-1.36-.1-1.99-.42-1.75-.52-3.76-1.5-5.14-1.64-2.31-1.69-4.54-1.09-7.08,.34-1.43,.63-2.95,.54-4.4-.12-2.11-2.72-3.9-5.08-3.8-1.94,.08-2.85,1.11-2.83,3.86,.01,1.96,.46,3.92,.78,5.87,.52,3.21-2.61,7.94-5.75,8.17-6.54,.48-13.1,.84-19.66,1.03-3.63,.11-5.89-1.97-6.28-5.64-.19-1.77,.25-3.61,.43-5.42,.14-1.31,.51-2.63,.43-3.93-.13-2.19-1.87-3.88-3.76-3.97-2.11-.1-4.13,1.66-4.17,4.07-.02,1.6,.57,3.22,.92,4.82,.24,1.11,1.1,2.48,.71,3.26-1.07,2.2-2.32,4.56-4.15,6.08-1.14,.95-3.5,.84-5.21,.57-1.81-.28-3.46-.23-5.28-.11-4.43,.3-9.01,.32-13.36-.47-4.74-.87-6.26-4.24-5.29-9,.39-1.93,.78-3.99,.48-5.88-.53-3.29-3.46-4.07-5.87-1.88-1.81,1.63-2.56,3.42-1.38,5.76,.51,1.03,1.04,2.11,1.28,3.23,.52,2.52-1.55,6.29-3.74,6.15-2.87-.18-5.55,.34-8.24,.97-1.69,.39-2.52-.54-3.29-1.61-.94-1.3-.58-2.62,.57-3.56,1.12-.91,2.37-1.73,3.69-2.33,1.4-.63,2.94-.95,4.42-1.4-1.63-1.07-3.19-1.5-4.78-1.65-1.65-.15-3.34,.05-5-.06-3.09-.19-3.47-.85-2.75-5.06,1.54,.92,2.92,1.73,4.29,2.56,1.39,.83,2.62,.56,3.47-.74,.62-.96,1.21-2.06,1.39-3.16,.26-1.57,.79-2.65,2.15-3.67,2.45-1.84,2.57-3.92,.89-6.42-.92-1.37-1.8-2.77-2.73-4.13-1.19-1.75-2.1-3.86-3.68-5.12-2.45-1.94-5.31-3.39-8.12-4.81-.66-.34-2.08-.04-2.68,.5-3.6,3.21-6.98,6.62-9.23,11.02-2.24,4.38-1.53,8.72,.04,13,.33,.88,1.52,1.73,2.48,2.02,1.88,.57,3.9,.66,5.82,1.12,.66,.16,1.19,.82,1.78,1.24-.59,.52-1.13,1.39-1.79,1.49-1.63,.25-3.32,.11-4.98,.2-1.25,.07-2.73-.23-3.29,1.65,.55,.33,1.1,.67,1.67,1,1.43,.83,3.09,1.43,4.23,2.56,.81,.79,1.24,2.32,1.16,3.48-.03,.5-1.76,1.21-2.74,1.26-3.32,.15-6.66,.08-10,.04-3.69-.05-5.49-1.66-4.71-5.09,.58-2.57-.13-4.88-.07-7.28,.23-9.55-1.07-19.08-.16-28.62,.06-.65-.06-1.32-.12-1.99-.27-2.79-.59-5.58-.81-8.38-.35-4.45-.67-8.91-.93-13.37-.1-1.66-.06-3.34,.06-4.99,.23-3.13,.82-6.26,.79-9.38-.08-11.77,.41-23.53,.12-35.3-.03-1.16-.08-2.35,.14-3.48,.35-1.86,1.79-2.27,3.28-1.09,2.26,1.78,3.28,4.31,3.37,6.97,.11,3.59,2.92,5.02,4.92,7.13,.25,.26,1.29,.15,1.7-.16,2.29-1.7,3.54-.66,4.74,1.43,1.88,3.3,3.79,6.61,6.01,9.68,.86,1.2,2.55,2.43,3.91,2.48,1.88,.07,1.91-1.98,1.84-3.48-.14-3.47-.42-6.93-.59-10.4-.04-.77-.15-1.92,.28-2.27,1.53-1.23,.82-2.1,.04-3.34-1.9-3.05-4.62-5.53-5.16-9.5-.31-2.28-1.55-4.71-4.1-5.98-.67-.34-1.4-1.82-1.17-2.39,.36-.89,1.42-1.66,2.36-2.11,3.04-1.42,6.26-1.07,9.16,.12,3.38,1.39,5.59-1.56,8.49-1.68,.25-.01,.61-.8,.65-1.25,.23-2.34,.52-4.97-1.27-6.65-2.64-2.48-5.54-4.61-6.88-8.2-.22-.61-1.31-.9-2.01-1.34-.82-.51-2.03-.82-2.4-1.55-1.59-3.21-4.21-2.68-6.89-2.23-1,.18-2.03,.27-4.02,.52,1.17-1.58,1.81-2.29,2.27-3.11,.37-.65,.51-1.42,.76-2.13-.77-.05-1.66-.36-2.29-.08-1.19,.53-2.22,1.41-3.33,2.13-1.06,.67-2.14,1.31-3.48,2.14,0-1.57,.45-3.05-.08-3.67-1.39-1.61-.81-3.01-.31-4.6,.96-3,1.86-6.03,2.7-9.06,.15-.56-.12-1.24-.19-1.87-.72,.19-1.52,.22-2.13,.59-.69,.41-1.26,1.08-1.81,1.7-1.63,1.88-2.91,4.26-4.9,5.57-3.54,2.33-4.94,5.56-5.87,9.41-.51,2.15-1.41,4.32-3.85,6.21-.75-1.66-1.39-2.91-1.9-4.22-.41-1.06-.37-2.44-1.05-3.21-3.95-4.45-7.58-9.25-12.59-12.65-.36-.23-1.09-.44-1.3-.26-.45,.4-.98,1.08-.94,1.59,.08,.96,.37,2,.87,2.8,2.12,3.38,4.36,6.67,6.52,10.01,.52,.81,1.12,1.66,1.34,2.57,.37,1.62-.94,2.65-2.4,1.92-1.77-.89-3.41-2.08-5.22-2.89-1.07-.48-2.36-.47-3.55-.69-.17,.31-.33,.63-.49,.94,1.09,1.13,2.08,2.38,3.29,3.35,1.58,1.25,1.8,2.91,1.18,4.46-.24,.58-1.88,.62-2.9,.85-3.07,.69-6.11,1.66-9.22,1.96-4.28,.42-7.45,2.53-10.18,5.55-.55,.6-.76,1.49-1.28,2.55,2.02-.26,3.54-.81,4.92-.57,5.04,.89,10.05,2.02,15.05,3.14,.56,.13,1.44,.87,1.39,1.21-.09,.66-.66,1.34-1.19,1.83-1.06,1-2.71,1.65-3.28,2.85-1.94,4.04-6.49,6.72-6.26,11.93,.03,.66-.91,1.33-1.34,2.03-.96,1.55-1.93,3.1-2.77,4.71-.27,.52-.43,1.62-.16,1.82,2.9,2.12,1.38,5.01,1.6,7.65,.24,2.71,.92,5.44,1.86,8,.71,1.92,3.67,2.48,5.11,.93,1.88-2.03,3.98-4.28,4.74-6.81,.94-3.11,2.28-5.76,4.13-8.35,1.51-2.12,2.62-4.54,3.96-6.79,.67-1.12,1.38-2.24,2.26-3.2,.34-.36,1.32-.52,1.77-.29,.46,.23,.95,1.11,.86,1.61-.33,1.95-.98,3.84-1.33,5.8-.63,3.48-1.01,6.98,.63,10.46,1.78-3.2,3.14-6.48,4.47-9.78,.31-.76,.39-1.65,.81-2.34,.27-.44,.99-.6,1.5-.89,.2,.42,.53,.82,.58,1.25,.23,2.09,.12,4.26,.62,6.28,.9,3.61,1.27,7.17,.47,10.83-.14,.62-.1,1.29-.06,1.93,.49,7.87,1.12,15.73,1.44,23.61,.2,4.91-.16,9.82-.04,14.75,.32,14.16,.11,28.33,.11,42.5,0,1,.01,2-.02,3-.04,1.66-.61,3.11-2.5,3.07-1.87-.04-2.44-1.49-2.45-3.16-.03-3.33-.11-6.66,.01-9.99,.1-2.96-.38-5.61-2.6-7.78-1.97-1.94-1.74-4.18-.62-6.44,.44-.88,1.17-1.63,1.56-2.53,.24-.52,.28-1.32,.04-1.83-.86-1.8-4.42-3.41-5.92-2.79-2.4,.99-3.45,3.4-2.33,5.95,1.82,4.14,.67,7.8-1.59,11.29-.4,.61-1.29,1.22-1.99,1.26-2.92,.17-5.89-.14-8.78,.22-4.61,.57-9.13-1.54-13.78-.21-.74,.21-2.32-.74-2.77-1.56-1.93-3.57-4.73-7.04-1.74-11.5,1.16-1.73,.46-3.55-1.17-4.86-1.61-1.3-3.45-1.27-5.15-.37-1.8,.95-2.51,2.68-2.12,4.67,.19,.93,.8,1.78,1.21,2.67,2.17,4.84-1.6,10.99-6.84,11.1-3.34,.06-6.67,.01-10,0-2.17,0-4.27-.2-5.7,2.13-.81,1.31-2.38,1.22-3.46,.1-2.04-2.12-4.09-4.27-5.86-6.61-1.61-2.12-2.06-4.74-.57-7.05,2.27-3.51,.49-5.84-1.72-8.33-1.16-1.31-2.02-1.53-3.16-.09-.82,1.04-1.66,2.09-2.67,2.95-1.57,1.35-2.73,1.08-3.3-.88-.73-2.54-1.26-5.14-1.68-7.75-.81-5.06-1.7-10.13-2.13-15.22-.36-4.3-.08-8.66-1.54-12.81-.43-1.23-.63-2.51,.76-2.92,.91-.27,2.45,0,3.06,.63,1.35,1.41,2.51,3.1,3.33,4.86,1.32,2.84,2.41,5.6,6.46,4.26,.37-.12,1.61,.91,1.58,1.35-.24,3.29,2.14,4.94,3.89,7.13,1.34,1.67,2.79,3.4,4.76,2.73,2.37-.8,1.34-3.42,1.49-5.32,.02-.32,0-.69-.11-.99-.74-1.91-.94-3.71-.21-5.79,.66-1.86-.18-3.72-2.25-4.34-2.12-.64-3.3-1.86-4.04-3.94-.48-1.36-1.76-2.42-2.44-3.74-.64-1.25-.97-2.68-1.43-4.02,1.35-.44,2.67-1.12,4.05-1.25,1.45-.13,2.95,.24,4.43,.43,.98,.13,1.96,.51,2.93,.46,3.46-.18,4.57-2.75,2.92-5.79-1.8-3.33-5.2-4.53-7.93-6.61-2.69-2.04-5.57-2.86-8.64-.48-.43,.33-1.92,.15-1.99-.06-.69-2.43-2.15-1.91-3.9-1.37-.99,.3-2.38-.46-1.61-1.59,2.3-3.38,.65-7.61,2.67-11,.24-.4-.12-1.16-.21-1.76-.72,.22-1.75,.2-2.1,.68-2.59,3.53-6.99,5.93-7.04,11.08-.01,.48-.15,1.08-.46,1.4-.76,.8-1.67,1.47-2.52,2.19-.6-.73-1.39-1.36-1.76-2.19-2.47-5.5-7.03-8.79-11.99-11.8-.15,.99-.11,1.84,.3,2.42,1.92,2.71,3.98,5.31,5.9,8.02,.39,.56,.41,1.39,.6,2.09-.77,.19-1.62,.7-2.28,.52-1.68-.46-3.28-1.22-6.02-2.3,.98,1.55,1.27,2.05,1.6,2.52,2.3,3.34,1.78,4.53-2.2,5.03-2.62,.34-5.26,.62-7.85,1.13-1.74,.34-3.5,.93-4.46,3.5,3.8,.87,7.28,1.68,10.77,2.45,1.12,.25,2.32,.25,3.41,.61,1.81,.61,2.17,2,.62,2.79-2.47,1.26-3.41,3.34-4.42,5.7-1.1,2.56-2.82,4.86-4.23,7.3-.4,.69-1.03,1.53-.92,2.2,.6,3.92,1.25,7.84,2.17,11.69,.45,1.86,2.64,2.17,3.95,.68,.88-.99,1.89-2.09,2.2-3.3,1.28-4.87,5.25-8.39,6.4-13.31,.3-1.29,1.32-2.69,2.85-2.05,.68,.27,1.06,1.84,1.15,2.86,.19,2.37-.28,4.8,.64,7.82,2.4-3.29,1.84-6.85,3.21-9.89,2.18,.67,2.77,2.37,3.04,3.88,.59,3.25,.8,6.56,1.17,9.85,.26,2.3,.5,4.6,.81,6.89,.73,5.41,1.62,10.81,2.16,16.24,.19,1.91-.92,3.99-.59,5.84,.32,1.74,1.76,3.27,2.7,4.9,.08,.14,.1,.32,.14,.48,.93,4.2,1.96,8.37,2.76,12.59,.53,2.76,.91,5.57,.99,8.37,.08,2.59-1.25,3.51-3.68,3.4-5.4-.25-10.8-.43-16.21-.54-1.13-.02-2.29,.32-3.4,.61-1.85,.46-3.46,.34-5.24-.65-3.19-1.77-4.44-1.4-6.94,1.21-1.87,1.94-2.9,2.02-4.91,.36-.98-.82-1.89-2.25-2.95-2.38-2.82-.33-3.56-1.8-3.67-4.34-.06-1.45-.9-2.85-1.15-4.31-.53-3.08-1.62-6.3-1.14-9.24,.49-2.98-.2-4.83-2.31-6.49-2.14-1.7-2.67-3.53-1.26-6.06,1.84-3.31,1.3-6.24-1.58-8.97-1.21-1.15-2.57-3.43-2.2-4.72,.98-3.48-.06-6.07-1.91-8.78-.5-.72-.29-1.94-.35-2.93-.09-1.49,.22-3.11-.25-4.46-2.22-6.37-1.58-13.12-2.81-19.61-.13-.67-.46-1.31-.73-2.03-.55,.31-.76,.36-.8,.47-.17,.45-.42,.92-.42,1.39,.01,5.76-1.33,11.14-4.12,16.22-1.45,2.65-2.09,5.57-1.96,8.65,.12,2.83,.15,5.68-.02,8.5-.1,1.61-.38,3.35-1.09,4.77-2.92,5.79-3.69,11.95-3.88,18.31-.08,2.45-.47,4.95-1.12,7.32-.55,1.98-.82,3.71-.16,5.79,1.15,3.62,1.72,7.42,2.77,11.07,.56,1.94-.21,3.31-1.38,4.47-1.4,1.4-2.3-.33-3.41-.84-1.97-.93-3.48-3.31-6.28-1.75-.58,.33-2.14-.24-2.69-.88-1.75-2.03-3.46-3.44-6.28-1.93-.36,.19-1.15-.5-1.77-.72-.88-.3-1.79-.54-2.69-.81-.3,1.05-.86,2.1-.85,3.14,.03,2.41,1.12,5.11,.35,7.14-1.3,3.41-.48,6.58-.08,9.75,.58,4.7,.21,5.48-4.61,5.62-2.66,.07-5.34-.05-8,.06-2.94,.12-3.51,.7-3.71,3.51-.09,1.16-.02,2.33-.02,3.5,0,21.33,0,42.66,0,63.99H1583.02V296.6c-4.77,.32-9.55,.64-14.33,.95Zm-201.07,80.88c-.31-.37-.06-1.83,.37-2.13,1.89-1.3,3.9-2.46,5.98-3.44,.53-.25,1.55,.27,2.21,.67,.53,.32,.84,1,1.27,1.5,.93,1.11,4.58,.39,3.1,2.53-1.43,2.07-2.71,5.68-6.53,5.04-3.29,.31-4.72-2.2-6.4-4.17Zm-878.69,20.53c-2.5,1.58-5.23,2.77-7.88,4.11-.28,.14-.63,.17-1.31,.33-.51-.55-1.37-1.13-1.72-1.93-.97-2.27-1.62-4.69-2.59-6.96-2.38-5.6-4.83-11.17-7.33-16.71-.77-1.74-1.59-3.36,.23-4.94,1.82-1.58,3.84-2.71,6.32-2.06,.6,.16,1.08,1.09,1.44,1.76,2.33,4.31,4.51,8.71,6.92,12.97,1.85,3.27,3.03,6.96,5.96,9.59,1.3,1.17,1.51,2.86-.04,3.84Zm-43.9-12.39c.02-6.37,.77-7.24,5.78-7.88,6.37-.8,9.21,.62,10.67,7.31,1.35,6.21,3.69,11.99,5.73,17.91,1.01,2.94,.81,3.59-1.92,4.45-4.1,1.29-8.32,2.22-12.44,3.44-1.74,.51-2.41-.06-2.78-1.7-1.57-6.75-3.25-13.48-4.79-20.25-.32-1.43-.23-2.97-.25-3.28Zm-20.03,.42c.17-1.65,.81-3.05,2.86-3.41,3.22-.56,6.09-2.52,9.61-2.01,2.11,.3,3.26,.94,3.58,3.23,.45,3.26,1.31,6.45,1.94,9.69,.4,2.05,.71,3.99,.37,6.26-.42,2.79,.61,5.81,1.12,8.71,.56,3.14,.1,3.85-2.99,4.14-3.61,.33-7.21,.81-10.82,.96-1.38,.06-2.81,.29-3.31-1.23-.28-.83-.41-1.77-.48-2.62-.11-1.4-.56-2.63-.93-3.98-.3-1.12-.44-2.27-.55-3.42-.39-4.1-.43-8.23-.4-12.34,.01-1.24-.14-2.68,0-3.97Zm18.04-13.17c-1.32-7.14-2.66-14.28-4.01-21.41-.79-4.21-1.66-8.41-2.42-12.63-1.17-6.48-2.29-12.98-3.39-19.48-.11-.64-.12-1.38,.12-1.95,.23-.56,.78-1.22,1.3-1.35,.5-.12,1.41,.23,1.69,.67,.7,1.1,1.24,2.33,1.7,3.57,3.83,10.42,7.62,20.87,11.43,31.3,2.27,6.22,4.54,12.43,6.83,18.64,1.07,2.91,.44,4.17-2.52,4.35-2.63,.17-5.28,.04-7.92,.04-1.46,.4-2.51-.15-2.81-1.75Zm-12.14-134.29c.08,2.88-2.09,4.67-4.04,7.55-.47-1.46-.73-1.91-.75-2.38-1.2-20.59-.94-41.21-.94-61.82,0-.99-.04-2.1,.38-2.93,.68-1.31,1.58-2.45,3.55-1.86,2.35,.71,4.8,1.14,7.24,1.54,2.09,.36,2.86,1.68,2.65,3.54-.45,3.93-.98,7.86-1.63,11.77-1.41,8.46-2.89,16.92-4.4,25.36-1.15,6.37-2.22,12.72-2.06,19.23Zm.2,7.58c.67-3.55,1.79-7.01,2.43-10.56,1.28-7.15,2.29-14.35,3.53-21.51,1.08-6.18,2.35-12.32,3.47-18.49,.58-3.25,1.13-6.52,1.48-9.8,.44-4.1,1.53-5.19,6.63-5.08,.86,.19,2.68,.43,4.39,1,1.19,.39,2.46,1.04,3.29,1.94,1.27,1.38-.52,2.3-.93,3.45-.93,2.65-1.68,5.37-2.63,8.01-2.96,8.26-5.99,16.49-8.97,24.75-3.26,9.02-6.46,18.06-9.79,27.06-.33,.9-1.36,1.54-2.06,2.3-.3-1.03-1.01-2.13-.84-3.07Zm21.22,77.16c-1.66-2.86-3.56-5.58-5.39-8.34-.91-1.37-1.52-2.93,.02-3.95,1.39-.92,2.75-.14,3.86,1.21,8.7,10.65,17.44,21.28,26.22,31.86,2.65,3.19,5.52,6.2,8.23,9.33,.73,.84,1.27,1.83,2,2.91-.68,.8-1.09,1.58-1.74,1.98-2.4,1.48-4.88,2.83-7.33,4.23-1.79,1.03-3.07,.58-4.09-1.21-7.24-12.69-14.48-25.37-21.78-38.02Zm18.1,43.6c-.9,.41-1.76,.91-2.67,1.32-1.26,.56-2.17,.35-2.72-1.11-1.58-4.17-3.26-8.3-4.86-12.46-2.61-6.79-5.18-13.59-7.74-20.39-.1-.27,.04-.62,.06-.94,.3-.21,.59-.41,.88-.62,1.98,2.95,4.11,5.8,5.89,8.86,3.73,6.42,7.28,12.94,10.89,19.43,.49,.86,.92,1.76,1.35,2.66,.7,1.43,.46,2.54-1.08,3.25Zm8.45-26.57c-4.94-5.79-9.97-11.52-14.93-17.31-3.66-4.28-7.27-8.6-10.87-12.93-.41-.49-.84-1.13-.87-1.72-.04-.76,.08-1.84,.56-2.22,.45-.35,1.65-.21,2.22,.16,1.66,1.08,3.23,2.33,4.74,3.61,7.19,6.12,14.31,12.32,21.53,18.4,5.19,4.37,10.51,8.59,15.72,12.93,.85,.71,1.44,1.73,2.08,2.52-.24,.74-.27,1.3-.56,1.65-1.99,2.44-3.98,4.88-6.1,7.21-1,1.1-2.18,1.37-3.35-.07-3.35-4.11-6.73-8.19-10.17-12.23Zm-8.31-25.62c-2.78-2.35-5.76-4.46-8.55-6.78-1.53-1.28-3.04-2.65-4.19-4.24-.5-.69-.08-2.05-.07-3.1,.91,.09,1.97-.09,2.69,.32,8.2,4.7,16.33,9.51,24.5,14.25,6.43,3.74,12.9,7.42,19.34,11.14,1.44,.83,2.87,1.68,4.22,2.64,.63,.45,1.06,1.17,1.69,1.88-.47,.87-.76,1.65-1.24,2.26-1.54,1.94-3.14,3.84-4.75,5.73-1.8,2.12-2.89,2.2-4.96,.43-9.56-8.18-19.09-16.39-28.68-24.53Zm38.97,10.87c-9.14-5.42-18.25-10.89-27.43-16.24-6.16-3.59-12.42-7-18.61-10.54-.99-.57-1.95-1.28-2.72-2.11-.34-.36-.38-1.28-.17-1.78,.22-.5,.92-.79,1.3-1.08,1.07,.33,1.87,.55,2.65,.83,11.68,4.25,23.35,8.53,35.03,12.76,4.19,1.52,8.43,2.92,12.62,4.44,1.24,.45,2.54,.98,3.54,1.8,.6,.49,1.11,1.73,.92,2.43-.73,2.73-1.68,5.4-2.69,8.04-1.03,2.71-1.92,2.95-4.44,1.45Zm5.54-16.26c-8.07-2.98-16.2-5.82-24.3-8.74-8.27-2.98-16.53-5.97-24.78-8.98-.62-.22-1.29-.49-1.76-.92-.69-.62-1.22-1.4-1.81-2.12,.87-.55,1.75-1.11,2.28-1.45,6.15,1.07,11.68,2.07,17.22,2.99,11.25,1.89,22.51,3.72,33.76,5.6,1.3,.22,2.6,.54,3.84,.97,3.75,1.26,3.81,1.52,2.36,5.29-.76,2-1.19,4.16-2.14,6.06-1.17,2.36-1.96,2.3-4.67,1.3Zm5.53-15.96c-12.18-2.17-24.33-4.44-36.52-6.53-5.53-.94-11.12-1.52-16.67-2.29-.8-.11-1.66-.26-2.35-.65-1.3-.73-1.22-2.65,.2-3.09,1.87-.57,3.86-1.04,5.8-1.06,7.98-.12,15.97-.05,23.95-.05v-.03c8.15,0,16.3-.05,24.45,.01,4.12,.04,4.47,.45,4.54,4.66,.04,2.17,.12,4.34-.06,6.49-.18,2.19-1.22,2.91-3.34,2.54Zm3.4-20.28c0,1.14-.16,2.29-1.14,3-1.19,.87-2.83,.32-4.19,.21-3.43-.28-6.88-.39-10.32-.33-1.27,.02-2.41,.17-3.63,.5-1.14,.31-2.4,.15-3.59,.15-2.97,0-5.94-.02-8.92-.02-3.65,0-7.31,.03-10.96-.01-.93,0-1.86-.25-2.89-.4,2.03-3.9,6.75-7.07,10.25-7.58,5.53-.79,10.97-2.32,16.48-2.86,3.97-.39,7.75-1.75,11.67-2.43,1.67-.29,3.62-.64,5.3-.62,1.4,.02,1.84,1.2,1.9,2.43,.13,2.65,.05,5.31,.05,7.96Zm-2.88-13.67c-1.25,.43-2.54,.75-3.84,.95-7.32,1.12-14.66,2.15-21.97,3.31-1.78,.28-3.49,.99-5.25,1.41-2.22,.53-3.03-.34-2.43-2.63,.38-1.44,.72-2.94,1.44-4.22,.58-1.03,1.54-2.1,2.6-2.55,4.24-1.81,8.58-3.38,12.89-5.04,3.83-1.47,7.64-3,11.52-4.33,.72-.24,2.26,.06,2.51,.57,1.67,3.35,3.09,6.82,5.03,11.26-.76,.39-1.59,.96-2.5,1.27Zm-6.44-16.11c-2.6,1.1-5.21,2.19-7.84,3.19-4.62,1.75-9.28,3.36-13.87,5.18-3.2,1.26-4.61,1.18-5.68-.73-1.94-3.49-1.67-6.19,1.1-7.89,4.38-2.69,8.87-5.21,13.35-7.74,3.43-1.95,6.92-3.8,10.97-6.02,1.37,3.73,2.45,7,3.79,10.17,.9,2.15-.11,3.12-1.82,3.84Zm-5.25-16.92c-1.35,1.16-2.64,2.66-4.34,3.28-1.83,.67-3.43,1.57-5.18,2.45-.78,.39-1.59,.72-2.37,1.11-2,1-3.6,2.51-5.44,3.74-2.11,1.42-4.24,2.83-6.42,4.14-.65,.39-1.93,.16-2.72-.22-.86-.41-1.5-1.3-2.2-2.01-3.4-3.4-3.37-3.46,.37-6.29,1.32-1,2.43-2.28,3.77-3.24,2.51-1.8,5.3-2.87,7.48-5.16,2.34-2.47,4.06-6.31,7.27-7.79,1.04-.48,2.22-.21,3.07,.54,.47,.43,.94,.87,1.41,1.31,1.71,1.62,3.36,3.32,4.87,5.12,.58,.69,.86,2.64,.42,3.02Zm-11.64-12.08c-2.46,2.22-5,4.35-7.53,6.49-4.05,3.43-8.1,6.85-12.19,10.23-1.13,.93-2.41,1.69-3.69,2.58-2.03-1.07-4.1-1.82-5.71-3.13-1.21-.98-.41-2.41,.54-3.51,1.63-1.87,3.16-3.83,4.78-5.71,4.87-5.65,9.76-11.29,14.66-16.92,1.84-2.11,1.87-2.08,3.66-.14,1.81,1.95,3.64,3.88,5.5,5.79,1.45,1.47,1.49,2.97-.02,4.32Zm-11.88-12.11c-4.04,4.79-8.15,9.53-12.24,14.29-2.37,2.76-4.85,5.43-7.11,8.28-4.14,5.24-4.15,5.3-11.41,2.95,1.64-2.71,3.28-5.33,4.84-8.01,4.59-7.85,9.15-15.72,13.71-23.58,1.6-2.76,2.62-3.2,5.45-1.83,2.22,1.07,4.36,2.37,6.43,3.73,1.71,1.14,1.8,2.44,.33,4.17Zm-14.58-9.27c-1.51,2.28-2.09,5.1-3.89,7.2-2.11,2.45-3.63,5.71-4.99,8.65-1.5,3.24-3.39,6.13-5.17,9.21-2.04,3.53-4.1,7.04-6.26,10.5-1.9,3.03-5.28,4.22-8.79,6.39,.19-1.6,.13-2.57,.44-3.4,2.39-6.35,4.84-12.68,7.3-19.01,.66-1.7,1.15-3.58,2.23-4.97,1.63-2.09,2.85-4.2,2.92-6.86,.04-1.45,.65-3.06,.98-4.47,.16-.67,.31-1.34,.49-2.01,.22-.86,.46-1.72,.73-2.57,.86-2.7,2.43-5.19,3.65-7.74,3.38,1.98,6.32,3.79,9.34,5.44,1.73,.94,2.02,2.16,1.03,3.66Zm35.2,193.93c-3.36,2.41-6.8,4.71-10.29,6.91-1.44,.91-2.54-.16-3.23-1.34-1.43-2.43-2.69-4.96-4.11-7.4-2.4-4.12-4.73-8.6-7.78-12.28-1.16-1.4-2.11-2.75-2.61-4.51-.18-.63,.51-1.92,1.17-2.33,1.74-1.08,3.56-1.8,5.38-2.68,1.7-.82,3.16-1.68,5.09-1.92,1.04-.13,2.29,0,2.84,.9,.21,.35,.28,.76,.41,1.14,.29,.81,.72,1.06,1.35,1.51,.72,.51,1.37,1.34,1.78,2.11,2.74,5.01,6.53,9.15,10.46,13.21,2.91,3.01,2.83,4.3-.48,6.68Zm18.41-17.65c-2.76,3.08-5.43,6.23-8.27,9.23-2.82,2.97-2.9,2.72-5.52-.34-5.15-6-10.52-11.81-15.83-17.66-2.92-3.21-2.92-3.38-.12-6.49,1.43-1.6,2.65-3.38,4.09-4.97,.85-.94,1.95-1.67,3.01-2.55,.95,.54,1.71,.86,2.32,1.36,2.41,2.01,4.81,4.04,7.15,6.13,4.2,3.75,8.25,7.66,12.56,11.26,1.65,1.39,2.07,2.41,.61,4.03Zm14.37-19.24c-2.43,3.74-4.79,7.55-7.41,11.16-1.42,1.95-2.62,1.83-4.63,.25-6.63-5.21-13.26-10.42-19.9-15.61-2.97-2.32-3.01-2.78-.44-5.68,1.75-1.99,3.33-4.13,5.21-5.99,1.91-1.9,3.08-1.8,5.3-.49,4.1,2.44,8.28,4.74,12.38,7.18,1.26,.75,2.33,1.81,3.52,2.68,1.59,1.14,3.22,2.21,4.8,3.36,.63,.45,1.18,1.01,1.74,1.5-.24,.72-.31,1.24-.57,1.64Zm10.73-18.61c-1.71,3.38-3.73,6.61-5.84,9.75-.62,.92-2.01,1.31-2.93,1.87-1.68-.72-2.94-1.14-4.09-1.77-5.94-3.28-11.9-6.55-17.76-9.96-3.98-2.32-3.97-2.71-2.16-7.16,.74-1.84,1.2-3.79,1.98-5.61,1.05-2.44,2.45-2.94,5.16-2.14,2.26,.65,4.51,1.23,5.44,3.81,.57,1.58,2.03,1.36,3.35,1.52,4.75,.55,9.5,1.08,13.99,2.91,3.89,1.57,4.72,3.11,2.86,6.78Zm7.62-23.29c-1.04,3.45-2.37,8.07-3.84,12.64-.55,1.73-1.88,2.15-3.59,1.51-6.96-2.59-13.93-5.16-20.9-7.73-1.69-.62-3.47-1.04-5.1-1.8-2.28-1.07-2.44-1.96-1.39-4.34,1.06-2.4,1.86-4.93,3.03-7.26,1.63-3.23,1.89-3.21,5.38-2.54,7.29,1.41,14.58,2.75,21.87,4.14,.81,.16,1.58,.5,2.39,.65,2.04,.38,2.8,1.58,2.15,4.73Zm3.19-24.53c-.39,4.41-.96,8.82-1.75,13.18-.52,2.87-1.23,3.29-3.99,2.86-4.87-.77-9.71-1.75-14.57-2.62-2.75-.49-5.5-.99-8.27-1.37-4.11-.56-5.14-1.61-5.22-5.69-.04-2.15-.08-4.32,.01-6.47,.14-3.1,.68-3.65,3.93-3.72,4.32-.09,8.63-.03,12.94-.03s8.63-.06,12.94,.02c2.79,.05,4.21,1.29,3.98,3.84Zm-1.51-24.26c.26,.78,.51,1.59,.6,2.4,.36,3.45,.72,6.91,.97,10.37,.27,3.6-.48,4.46-4.1,4.53-4.33,.08-8.66,.02-12.98,.02h0c-4.33-.01-8.66,.07-12.98-.04-3.2-.08-3.66-.61-3.78-3.88-.09-2.33-.08-4.66,0-6.99,.1-3.14,1.23-4.37,4.42-4.92,7.97-1.36,15.94-2.7,23.91-4.02,2.49-.41,3.1,0,3.94,2.53Zm-5.23-22.62c1.36,4.24,2.51,8.54,3.69,12.83,.46,1.66,.06,2.92-1.91,3.31-3.54,.71-7.05,1.55-10.6,2.22-5.18,.98-10.37,1.87-16.43,2.95-.29-.15-1.63-.43-2.01-1.19-1.71-3.35-3.28-6.78-4.6-10.3-.56-1.47,.79-2.43,2.08-2.94,2.46-.97,4.95-1.87,7.43-2.77,5.89-2.13,11.76-4.3,17.68-6.34,3.23-1.12,3.65-.95,4.67,2.23Zm-8.49-20.79c1.53,2.95,2.99,5.93,4.41,8.92,.49,1.03,.77,2.16,.81,2.3,.36,2.88-.83,3.68-2.34,4.22-8.15,2.93-16.3,5.87-24.46,8.79-2.03,.73-3.57,.24-4.53-1.73-1.22-2.5-2.36-5.08-3.25-7.71-.62-1.83-.3-3.52,1.74-4.62,3.05-1.66,5.97-3.54,8.96-5.31,3.85-2.27,7.71-4.52,11.56-6.77,3.68-2.16,5.17-1.78,7.1,1.91Zm-13.39-20.81c2.39,3.16,4.79,6.33,7.11,9.56,.67,.92,1.08,2.03,1.77,3.36-.62,.67-1.13,1.52-1.87,1.96-4.56,2.7-9.18,5.28-13.75,7.94-2.73,1.58-5.46,3.16-8.12,4.87-2.01,1.29-3.74,1.11-5.34-.6-2.14-2.29-4.35-4.53-6.33-6.96-.43-.53-.36-2.06,.1-2.62,1.47-1.79,3.13-3.47,4.9-4.97,5.33-4.48,10.76-8.83,16.13-13.26,2.79-2.31,3.1-2.31,5.4,.72Zm-18.9-19.61c.89,.48,1.57,.68,2.01,1.11,3.57,3.5,7.15,6.98,10.58,10.6,1.56,1.64,1.33,2.73-.41,4.16-6.78,5.56-13.54,11.15-20.36,16.66-3.04,2.45-3.68,2.28-5.96-.65-1.53-1.96-3.14-3.85-4.73-5.75-1.76-2.11-1.8-2.68-.11-4.7,5.33-6.34,10.65-12.68,16.03-18.97,.82-.95,1.95-1.64,2.95-2.46Zm-18.1-13.52c4.85,3.14,9.53,6.55,14.23,9.91,.33,.23,.34,.9,.59,1.63-.63,.81-1.28,1.73-2.02,2.59-5.38,6.3-10.82,12.54-16.13,18.89-1.31,1.57-2.42,2.01-4.21,.87-2.37-1.51-4.82-2.89-7.29-4.23-2.54-1.39-2.86-2.05-1.47-4.65,1.86-3.51,3.83-6.95,5.8-10.4,2.47-4.3,5.05-8.54,7.44-12.89,.74-1.36,1.82-2.51,3.06-1.72Zm-24.2-7.46c.34-2.39,1.85-2.92,4.46-2.75,.58,.22,1.69,.55,2.72,1.04,2.84,1.37,5.67,2.77,8.47,4.22,3.87,2.01,4.09,2.55,1.88,6.51-2.73,4.92-5.66,9.72-8.49,14.59-1.41,2.42-2.96,4.78-4.08,7.34-.94,2.13-2.09,2.27-3.86,1.26-2.58-1.48-5.22-2.88-7.75-4.45-1.86-1.14-2.68-2.58-1.71-5,2.59-6.43,4.91-12.97,7.32-19.47,.4-1.08,.88-2.17,1.04-3.29Zm-18.01-9.7c4.83,1.15,9.57,2.69,14.31,4.17,1.28,.4,1.66,1.42,1.15,2.8-2.44,6.68-4.82,13.38-7.24,20.07-.38,1.07-.94,2.09-1.28,3.17-1.12,3.58-1.33,3.75-5.57,3.65-2.53-.34-5.32-.68-8.09-1.13-1.86-.31-2.38-1.76-2.19-3.36,.27-2.29,.74-4.57,1.18-6.84,1.24-6.47,2.54-12.93,3.76-19.41,.49-2.65,1.41-3.73,3.97-3.12Zm-27.88,.48c.05-2.76,.62-3.65,3.07-3.51,5.09,.31,10.17,1.01,15.25,1.62,2.28,.28,2.93,1.18,2.41,3.98-1.3,6.97-2.78,13.92-4.19,20.87-.2,.97-.68,1.95-.6,2.9,.43,5.18-1.31,4.51-5.41,4.49-1.94-.01-3.87-.1-5.81-.11-2.86-.02-4.55-1.76-4.67-5.29-.14-4.15-.03-8.31-.03-12.47h-.04c0-4.16-.06-8.32,.02-12.48Zm.31,214.19c-.08-5.71-.62-11.41-.32-17.12,.41-7.62,.62-15.26,.9-22.89,.05-1.42,.2-2.74,2.09-2.7,1.83,.03,2.66,1.04,2.8,2.81,.33,3.96,.54,7.94,1.12,11.87,.84,5.71,2.01,11.38,2.94,17.09,1.06,6.51,2,13.05,3.03,19.58,.28,1.79,.72,3.56,.99,4.87,.06,3.14-.24,3.61-3.14,3.65-2,.03-3.94,.53-5.67,1.54-1.51,.88-3.7,1.75-4.8-.34-.44-.83-.45-1.81-.45-2.74,0-2.94-.03-5.89-.02-8.83,0-1,.28-1.73,.45-2.68,.24-1.31,.1-2.77,.08-4.1Zm-22.53-215.58c.48-.45,1.14-.64,1.78-.81,5.37-1.4,11-1.79,16.51-1.14,.3,1.68,.59,3.37,.88,5.06,.29,1.7,.64,3.32,.67,5.04,.04,1.94-.04,3.89-.07,5.83-.01,1.1,.16,2.11,.28,3.19,.13,1.21,.08,2.49,.09,3.71,.03,2.5-.06,5.02-.46,7.5-.12,.74-.28,1.52-.78,2.09-.7,.77-1.83,.94-2.87,1.06-2.52,.28-5.04,.56-7.56,.85-.91,.1-1.89,.19-2.71-.22-1.35-.69-1.72-2.41-1.94-3.91-1.21-8.07-2.67-16.11-4.37-24.09-.3-1.44-.53-3.17,.55-4.16Zm-.86,250.6c.54,5.74-2.11,10.62-4.13,15.65-.28,.68-1.63,1.57-2.2,1.4-4.59-1.37-9.15-2.86-13.61-4.59-.74-.29-.94-1.94-1.31-2.77,.64-3.1,.74-6.06,1.87-8.56,2.31-5.1,3.43-10.56,5.47-15.72,1.11-2.82,2.65-3.7,5.42-2.84,2.38,.73,4.56,1.44,7.2,.82,2.36-.56,4.21,1.83,3.75,4.55-.46,2.75-1.31,5.43-1.92,8.15-.28,1.29-.66,2.63-.54,3.91Zm7.91-189.13c0,.66-.05,1.37,.17,1.98,2.62,7.55,2.48,15.64,4.54,23.33,.88,3.28,.27,6.92,2,10.14,.83,1.53,1.2,3.31,1.77,4.97-.16,.05-.31,.11-.47,.16,0,.5,.15,1.06-.03,1.49-.42,.99-1,1.92-1.52,2.88-.72-.79-1.79-1.45-2.12-2.37-1.87-5.27-3.46-10.63-5.36-15.89-2.01-5.55-4.32-11-6.38-16.55-1.37-3.69-2.41-7.5-3.81-11.18-2.21-5.85-4.51-11.67-6.95-17.43-1.35-3.17-.21-5.73,3.15-6.14,2.62-.32,5.25-.59,7.88-.75,1.83-.11,4,1.6,3.92,3.78-.28,7.43,3.17,14.24,3.21,21.58Zm12.92,132.74h.07c0,5.16,.08,10.33-.02,15.49-.08,4.08,.26,8.3-.41,12.19-.57,3.22-.67,6.08,.05,9.15,.22,.95,.39,1.97,.33,2.95-.15,2.2-1.19,2.72-3.34,2.07-2.83-.86-5.73-1.49-8.54-2.4-1.95-.63-1.87-2.31-2.07-4.01-.23-1.88,.33-4.61,1.24-6.28,.25-.46,.56-.89,.75-1.38,.16-.43,.22-.88,.28-1.34,.75-5.91,.5-12.14,2.25-17.88,.67-2.2,1.02-4.52,1.36-6.8,.83-5.73,1.54-11.47,2.37-17.19,.21-1.47,.51-2.99,1.15-4.3,.35-.73,1.67-1.63,2.23-1.45,.89,.28,1.76,1.3,2.16,2.21,.37,.84,.14,1.96,.14,2.96,.01,5.33,.01,10.67,.01,16Zm-28.66,36.37c-2.16-.42-3.17-2.16-2.62-4.27,.15-.56,.42-.86,.72-1.32,.39-.61,.63-1.35,.92-2.01,.63-1.4,1.26-2.8,1.9-4.2,.44-.97,1.08-1.99,1.25-3.02,.19-1.07,.42-2.02,.85-3.03,.17-.4,.33-.81,.49-1.22,2.7-6.88,4.66-14.05,7.01-21.05,1.47-4.39,3.01-8.76,4.63-13.1,.57-1.54,1.29-3.1,2.28-4.41,.46-.61,2.01-1.15,2.51-.84,.79,.5,1.69,1.83,1.56,2.66-.94,6.03-2.34,11.99-3.17,18.03-.4,2.93-.87,5.86-1.48,8.76-.62,2.95-1.09,5.82-1.55,8.8-.98,6.22-2.19,12.4-3.63,18.52-.06,.25-.12,.51-.24,.74-.51,.99-1.73,1.19-2.71,1.2-.36,0-4.29-.06-4.29-.05v-.13c-1.48,0-3.01,.23-4.44-.05Zm28.61-136.53c0,2.71-.63,5.41-1.1,9.18-3.24-5.3-4.17-10.03-4.63-14.96-.24-2.61-.88-5.19-1.27-7.79-.42-2.76-.67-5.56-1.18-8.3-1.76-9.56-3.6-19.1-5.42-28.65-.03-.16-.06-.33-.06-.49-.06-6.82-2.04-9.6,7.6-9.22,.17,.01,.34,0,.5-.01,1.59-.1,4.2-.81,4.56-.19,.91,1.55,1.07,3.7,1.07,5.61,.05,18.27,.04,36.55-.07,54.82Zm-28.25-38.51c.34,.88,.69,1.75,1.04,2.63,1.04,2.61,2.07,5.23,2.63,8,.14,.67,.25,1.34,.52,1.97,.26,.59,.64,1.12,.97,1.68,.54,.94,.91,1.97,1.27,2.99,.61,1.72,1.22,3.43,1.83,5.15,.56,1.56,1.11,3.14,1.36,4.79,.24,1.57,1.12,2.94,1.69,4.42,.35,.9,.83,1.81,.93,2.74,.16,1.42-1.04,2.23-2.26,1.49-1.7-1.03-3.55-2.04-4.81-3.51-2.97-3.47-6.21-6.86-6.84-11.76-.12-.95-.56-1.97-1.15-2.73-3.86-4.92-7.08-10.27-10.3-15.61-1.62-2.69-3.29-5.35-4.81-8.09-1.22-2.19-.63-3.55,1.57-4.82,2.41-1.39,4.78-2.88,7.09-4.44,1.24-.85,2.27-.62,3.03,.42,.78,1.06,1.4,2.27,1.89,3.5,1.49,3.71,2.92,7.45,4.35,11.18Zm-3.47,24.23c.49,.86,1.18,1.59,1.73,2.4,1.82,2.71,1.04,4.31-2.22,4.58-.33,.03-.66,.01-1.19,.01-1.99,.35-3.66-.5-5.08-2.12-2.82-3.25-5.76-6.41-8.52-9.7-4.46-5.32-8.81-10.74-13.23-16.09-2.01-2.43-1.84-4.08,.75-5.59,2.13-1.24,4.28-2.44,6.44-3.64,2-1.11,3.84-.69,4.99,1.32,5.47,9.6,10.88,19.23,16.33,28.83Zm-22.14-9.42c3.8,4.37,7.48,8.85,11.25,13.25,2.47,2.88,2.34,3.7-1.09,5.56-4.14,2.26-4.73,2.03-8.23-1.05-5.6-4.92-11.37-9.65-17.07-14.46-.76-.64-1.56-1.24-2.29-1.91-3.27-3.06-3.26-3.45-.18-6.8,1.01-1.09,1.87-2.31,2.84-3.44,.96-1.12,1.96-2.2,3.41-3.82,4.08,4.54,7.77,8.55,11.36,12.67Zm-10.24,10.75c3.56,2.95,7.11,5.92,10.6,8.95,.79,.69,1.32,1.71,1.74,2.26-.36,3.2-2.52,4.46-4.24,5.88-1.59,1.3-3.15-.08-4.55-.88-7.3-4.19-14.58-8.43-21.88-12.64-2.46-1.41-2.86-3.41-1.05-5.59,1.47-1.78,2.91-3.59,4.38-5.37,1.75-2.11,2.76-2.37,4.99-.7,3.42,2.58,6.7,5.36,10.01,8.09Zm.24,17.19c1,.58,2.01,1.16,2.94,1.85,2.5,1.85,2.56,2.17,1.25,4.88-2.42,4.98-3.47,5.26-8.55,2.85-2.98-1.42-6.04-2.69-9.16-3.78-3.72-1.3-7.53-2.33-11.3-3.49-2.19-.67-3.21-2.33-2.78-4.49,.8-4.03,1.92-6.5,4.97-10.9,7.75,4.48,15.19,8.77,22.63,13.08Zm-25.48,4.32c7.74,2.89,15.5,5.74,23.25,8.6,3.39,1.24,5.47,4.53,5.11,8.07-.2,1.91-1.46,2.45-3.33,2.47-.3-.02-.82,.02-1.29-.11-9.1-2.6-18.53-3.38-27.8-4.99-4.17-.72-5.02-2.67-3.23-6.64,.81-1.79,1.14-3.81,2.04-5.55,1.33-2.56,2.59-2.84,5.25-1.85Zm-5.8,16.02c1.87,.57,3.83,.82,5.75,1.21,.16,.03,.35-.03,.5,.02,9.17,2.96,19.03,1.96,28.19,4.98,.91,.3,1.9,.67,2.59,1.29,1.83,1.64,3.51,3.44,5.25,5.18-.13,.41-.27,.82-.4,1.23-1.61,.08-3.21,.22-4.81,.22-7.15,.03-14.31,.1-21.46-.05-2.26-.05-4.5-.83-6.77-1.1-1.24-.15-2.52-.03-3.77,.13-2.12,.27-4.21,.75-6.34,.98-1.66,.18-2.38-.81-2.37-2.43,.02-3.17-.13-6.33,.04-9.49,.14-2.58,1.09-2.95,3.6-2.17Zm-3.32,19.02c.51-2.46,4.24-2.26,6.22-2.48,2.46-.28,5-.46,7.44-.14,10.43,1.33,20.83,.83,31.27,.26,4.58-.26,9.22,.31,13.83,.56,1.62,.08,2.54,1.25,2.22,2.65-.19,.86-1.37,1.96-2.26,2.13-4.53,.86-9.14,1.36-13.68,2.17-10.4,1.85-20.77,3.84-31.16,5.71-3.74,.68-7.52,1.08-11.24,1.82-2.89,.57-2.67-1.88-2.9-3.93-.13-1.13-.21-2.27-.22-3.41-.03-1.79,.11-3.59,.48-5.34Zm5.13,14.25c1.79-.3,3.64-.25,5.43-.58,9.41-1.73,18.81-3.59,28.23-5.28,6.34-1.13,12.72-2.05,19.09-3.04,.65-.1,1.33-.15,1.99-.08,1.42,.14,2.37,1.89,1.45,2.93-.96,1.08-2.19,2.16-3.53,2.65-10.41,3.79-20.88,7.41-31.31,11.14-6.88,2.45-13.79,6.01-21.23,6.16-.2,0-.41,0-.6-.08-.29-.14-.45-.45-.58-.75-.29-.64-.58-1.29-.88-1.93-.66-1.46-1.33-2.93-1.77-4.48-.29-1.02-.78-2.33-.74-3.4,.09-2.23,2.63-2.95,4.45-3.25Zm8.15,16.84c.63-.2,1.36-.34,1.82-.75,4.18-3.79,9.46-4.83,14.61-6.49,7.86-2.52,15.46-5.85,23.19-8.8,2.47-.95,4.95-1.86,7.47-2.66,1.32-.43,2.63-.42,3.41,1.13,.87,1.73-.36,2.51-1.47,3.17-4.26,2.55-8.57,5.01-12.88,7.49-7.19,4.15-14.33,8.39-21.62,12.37-4.73,2.58-9.67,4.77-14.52,7.13-.15,.07-.31,.1-.77,.25-.35-.25-1.07-.51-1.33-1-.61-1.17-1-2.45-1.49-3.69-2.81-7.14-2.59-6.21,3.58-8.15Zm1.32,16.29c1.02-.52,2.17-.9,3.3-1.07,1.42-.21,2.37-.61,3.01-2.1,.4-.95,1.54-1.82,2.55-2.22,6.62-2.62,12.17-7.08,18.36-10.44,6.98-3.79,13.78-7.9,20.65-11.88,.43-.25,.79-.82,1.21-.85,1.05-.05,2.38-.25,3.11,.28,1.32,.97,.84,2.39-.16,3.47-1.02,1.1-2.08,2.17-3.23,3.11-8.58,7.03-17.21,13.99-25.77,21.05-2.28,1.88-4.3,3.9-7.06,5.31-2.5,1.27-4.26,3.98-6.4,5.98-.57,.53-1.37,.8-2.21,1.28-.88-.68-1.76-1.17-2.4-1.87-1.87-2.09-3.65-4.27-5.47-6.42-1.16-1.37-1.01-2.86,.51-3.63Zm10.64,14.86c.12-.23,.3-.47,.54-.71l2.37-2.39c1.05-1.05,2.09-2.11,3.27-3.02,1.43-1.1,3.05-1.98,4.28-3.3,.63-.67,1.16-1.46,1.9-2.01,.96-.7,1.8-1.18,2.62-2.03,1.04-1.07,2.33-1.99,3.45-2.97,2.25-1.97,4.47-3.97,6.75-5.9,3.41-2.88,6.92-5.63,10.34-8.5,2.28-1.91,4.47-3.93,6.7-5.89,.48-.42,.99-1.14,1.49-1.15,1.08-.03,2.4,.03,3.18,.62,.45,.35,.26,1.88-.02,2.75-.23,.73-1.02,1.27-1.55,1.9-5.13,6.06-10.05,12.32-15.45,18.12-3.24,3.49-5.7,7.67-9.84,10.41-1.82,1.21-3.01,3.45-4.33,5.34-1.8,2.57-3.41,5.26-5.19,7.85-.44,.64-1.21,1.06-1.96,1.69-.66-.39-1.3-.62-1.72-1.06-1.15-1.19-2.53-2.31-3.22-3.74-.85-1.75-4.81-3.72-3.62-6.01Zm12.73,10.45c.82-1.14,1.95-1.97,2.73-3.21,.76-1.21,1.42-2.49,2.39-3.55,.82-.89,1.83-1.59,2.74-2.39,1.46-1.28,2.65-2.83,3.68-4.48,.49-.8,.86-1.72,1.4-2.48,.44-.62,1.12-1.11,1.65-1.67,7.11-7.47,13.07-15.91,19.74-23.74,1.04-1.22,2.35-2.2,3.12-2.91,2.43-.03,3.58,1.84,2.73,3.63-1.07,2.24-2.41,4.36-3.68,6.5-3.61,6.08-7.21,12.17-10.9,18.2-.92,1.52-2.41,2.7-3.24,4.25-1.72,3.2-3.1,6.57-4.75,9.81-.89,1.76-2.08,3.36-3.07,5.08-.39,.68-.76,1.38-1.11,2.09-.31,.63-.39,1.3-.68,1.94-.56,1.22-1.63,2.21-2.92,2.62-.19,.06-.39,.11-.59,.12-.85,.05-1.47-.49-2.01-1.05-.65-.66-1.39-1.23-2.13-1.79-1.2-.92-2.42-1.81-3.61-2.74-.62-.48-1.87-.95-2.17-1.72-.29-.74,.16-1.82,.66-2.51Zm15.05,7.73c4.23-3.39,5.46-8.65,8-12.95,2.87-4.85,5.42-10.05,8.06-15.12,.3-.58,.62-1.2,1.08-1.64,.3-.28,1-.47,1.32-.3,.48,.24,.79,.83,1.1,1.18-.49,1.56-.82,2.85-1.3,4.08-1.37,3.53-2.81,7.03-4.24,10.54-1.08,2.67-2.39,5.27-3.39,8-.62,1.69-1.18,3.4-1.7,5.13-.45,1.5-.61,3.27-1.3,4.66-1.69,3.37-5.59,3.94-8.21,1.25-1.16-1.21-1.23-3.39,.58-4.83Zm25.23,46.63c.06-.56,.14-1.14,.2-1.71,.41-3.78,1.57-7.42,2.23-11.15,.36-2.01,.98-3.95,1.25-5.96,.3-2.31,.29-4.66,.75-6.95,.57-2.8,2.11-3.96,4.5-2.59,1.82,1.04,3.24,.81,5.08,.6,3.63-.41,6.31,2.39,6.3,6.02,0,4.3,.14,8.6-.03,12.89-.14,3.79-.6,7.58-.96,11.36-.15,1.55-1.08,2.44-2.61,2.5-2.15,.09-4.32,.02-6.48,.02-.01,.11-.02,.21-.03,.31-2.62-.27-5.33-.25-7.86-.89-2.43-.62-2.54-2.42-2.34-4.44Zm-21.63-259.84c5.21-1.65,10.43-3.24,15.72-4.61,.61-.16,2.13,1.1,2.38,1.94,1.09,3.8,1.92,7.68,2.75,11.55,.65,3.07,1.21,6.15,1.71,9.24,.3,1.8,.4,3.63,.47,4.27,0,1.85,.02,2.52,0,3.18-.13,3.77-.51,4.04-4.44,4.29-2.13,.13-4.24,.54-6.36,.88-2.72,.43-4.25-.71-5.12-3.43-1.29-4.06-2.79-8.04-4.21-12.05-1.42-4.04-2.79-8.11-4.3-12.12-.62-1.65-.03-2.69,1.4-3.14Zm-20.44,8.24c4.02-1.98,8.13-3.78,12.22-5.64,.59-.27,1.24-.41,2.23-.73,.7,.77,1.72,1.46,2.1,2.4,2.03,5.08,3.93,10.21,5.82,15.34,1.08,2.94,2.18,5.88,3.06,8.89,.89,3.01,.37,4.33-1.98,5.76-2.25,1.37-4.56,2.64-6.88,3.91-2.48,1.35-3.62,.88-5.06-1.71-2.17-3.91-4.43-7.76-6.71-11.61-2.1-3.56-4.3-7.04-6.39-10.61-1.72-2.95-1.34-4.55,1.59-6Zm-20.8,13.57c3.75-2.98,7.69-5.74,11.69-8.39,1.85-1.23,3.81-.54,4.99,1.45,4.54,7.68,9.03,15.38,13.52,23.08,.41,.71,.68,1.5,1.12,2.49-.57,.74-.99,1.79-1.73,2.13-3,1.38-5.93,2.72-8.12,5.39-1,1.22-2.95,.67-4.67-1.22-2.34-2.56-4.6-5.2-6.85-7.85-3.32-3.9-6.56-7.87-9.9-11.76-2.16-2.52-2.4-3.46-.05-5.32Zm-17.54,16.51c3.3-3.5,6.7-6.92,10.21-10.2,2.02-1.89,3.51-1.68,5.42,.57,3.51,4.16,6.86,8.46,10.37,12.61,1.93,2.28,4.07,4.37,6.07,6.58,.64,.7,1.16,1.51,1.79,2.34-.46,.89-.73,1.69-1.23,2.3-2.18,2.69-4.56,5.23-6.62,8.01-1.27,1.72-2.56,1.33-3.83,.47-1.49-1.02-2.78-2.32-4.16-3.49-5.79-4.91-11.58-9.84-17.39-14.73-1.98-1.67-2.3-2.7-.63-4.46Zm-14.38,19.13c3.1-4.48,6.28-8.9,9.55-13.27,.33-.44,1.69-.69,2.12-.39,1.42,1.02,2.85,2.04,4.18,3.19,.61,.53,1.17,1.18,1.83,1.62,.68,.46,1.32,.83,1.87,1.46,.35,.42,.66,.88,1.08,1.22,.33,.26,.72,.43,1.08,.64,.69,.41,1.28,.95,1.86,1.5,.78,.72,1.56,1.44,2.23,2.26,.39,.48,.74,.99,1.18,1.42,.95,.95,2.15,1.36,3.34,1.89,1.23,.56,2.24,1.73,3.22,2.66,.81,.77,1.74,1.6,2.11,2.59,.27,.71-.04,1.93-.54,2.57-1.83,2.32-3.84,4.49-5.78,6.73-2.04,2.34-3,2.59-5.48,1.15-7.56-4.4-15.07-8.9-22.67-13.23-1.91-1.08-2.32-2.35-1.18-4.01Zm-10.42,19.96c2.1-4.33,4.18-8.67,6.42-12.92,.9-1.72,2.42-1.91,4.2-.87,7.4,4.32,14.78,8.66,22.18,12.98,3.05,1.77,3.31,2.61,1.95,6.02-.86,2.13-1.65,4.3-2.39,6.47-1.1,3.24-2.49,3.72-5.85,2.43-5.38-2.07-10.84-3.95-16.28-5.88-2.79-1-5.58-2.05-8.42-2.9-1.83-.54-2.21-1.77-2.16-3.79,.05-.26,.07-.96,.35-1.54Zm-2.64,8.47c.62-1.76,2.24-1.48,3.79-.89,6.02,2.3,12.06,4.55,18.11,6.77,2.01,.74,4.08,1.32,6.11,2,4.18,1.4,4.61,2.46,2.76,6.3-.64,1.34-.91,2.85-1.53,4.2-.76,1.62-1.52,3.31-2.65,4.67-1.53,1.84-3.41,.29-5.11,.01-7.79-1.31-15.56-2.73-23.35-4.03-2.01-.34-2.9-1.4-3.16-3.48,1.66-5.19,3.21-10.42,5.03-15.55Zm-7.55,38.09c.32-4.77,.92-9.54,1.82-14.22,.51-2.69,2.17-3.65,4.32-2.44,4,2.26,8.45,1.39,12.59,2.5,4.12,1.1,8.43,1.5,12.64,2.25,1.82,.33,3.14,1.48,3.24,3.3,.18,3.31,.14,6.64,.02,9.96-.07,2.2-1.73,2.58-3.54,2.58h-13.97v.02c-4.33,0-8.65,.05-12.98-.01-3.62-.06-4.36-.55-4.14-3.94Zm-.09,11.28c.06-1.25,.2-2.76,1.11-3.72,.94-1,2.33-1.01,3.6-1.03,5.01-.09,10.01-.1,15.01,.14,3.8,.19,7.6,.51,11.4,.4,2.6-.08,3.54,.84,3.66,3.43,.13,2.65,.12,5.32,.01,7.97-.13,2.78-1.1,3.83-3.76,4.41-3.08,.67-5.92,1.66-9.07,1.85-3.31,.2-6.64,.16-9.92,.73-1.83,.32-3.62,.83-5.47,1.01-1.23,.12-2.69,.58-3.21-.91-1.62-4.63-3.64-9.17-3.36-14.28Zm7.64,37.73c-.71-1.8-1.32-3.63-1.91-5.46-.26-.8-.28-1.36-.35-2.15-.08-.84-.58-1.6-.96-2.33-.57-1.09-1-2.27-1.12-3.49s.09-2.5,.74-3.54c.71-1.14,1.38-1.02,2.53-.96,1.57,.07,3.35-.49,4.91-.75,.68-.11,1.36-.22,2.02-.41,.42-.12,.82-.27,1.24-.39,.41-.12,.84-.21,1.26-.3,1.92-.42,3.84-.83,5.77-1.24,2.51-.54,5.02-1.08,7.46-1.9,1.89-.63,4.9-2.22,5.64,.71,.69,2.71,1.53,5.38,2.43,8.02,.41,1.19,.9,2.7-.01,3.78-1.02,1.22-3.29,1.57-4.74,1.98-2.73,.75-5.28,1.99-7.73,3.39-1.17,.67-2.37,1.34-3.43,2.18-.94,.75-1.92,.71-3.04,1.1-2.49,.86-5.03,1.62-7.42,2.72-1.58,.72-2.75,.39-3.29-.96Zm11.35,22.71c-3.29-2.91-5.7-6.11-6.22-10.5-.12-1.1-.84-2.16-1.4-3.17-1.39-2.54-1.27-3.58,.93-4.7,6.59-3.36,13.15-6.85,20.75-7.46,1.12-.09,2.19-.72,3.27-1.13,2.97-1.12,5.01-.27,5.41,2.82,.27,2.13,1.12,3.65,2.34,5.3,1.7,2.32,1.16,4.41-1.51,5.65-4.49,2.08-8.28,5.31-13.12,6.93-3.77,1.27-7,4.13-10.45,6.26Zm10.43,17.94c-.78-2.39-2.42-3.87-3.91-5.64-1.8-2.14-3.44-4.45-4.92-6.83-.99-1.6-.8-3.18,1.27-4.05,2.27-.95,4.6-1.83,6.75-3.01,3.15-1.73,6.15-3.71,9.22-5.57,2.06-1.25,4.05-2.75,6.26-3.72,1.45-.64,3.07-1.02,4.64-.8,.22,.02,.46,.07,.62,.22,.19,.17,.29,.75,.42,1,.24,.45,.61,.88,.9,1.3,.6,.86,1.19,1.74,1.76,2.62,1.13,1.71,2.22,3.44,3.28,5.19,.28,.48-.08,1.8-.57,2.22-2.26,1.9-4.66,3.62-7.02,5.4-1.04,.79-2.12,1.54-3.14,2.36-2.19,1.75-4.43,3.45-6.5,5.34-1.57,1.43-2.9,3.13-4.34,4.71-2.03,2.23-3.78,2.11-4.72-.74Zm18.58,18.49c-.85-.45-1.84-.73-2.52-1.36-3.38-3.14-6.67-6.37-10.01-9.55-2.09-1.99-2.08-3.39,.25-5.15,3.02-2.29,6.23-4.34,9.14-6.75,2.52-2.09,4.67-4.61,7.08-6.83,1.7-1.57,3.57-2.95,5.34-4.45,1.58-1.35,2.72-.85,3.54,.83,.95,1.94,2.09,3.38,4.2,4.54,3.58,1.96,3.91,5.5,.58,8.72-2.53,2.45-4.55,5.16-6.38,8.03-2.57,4.02-7.32,6.25-8.9,11.07-.15,.47-1.41,.58-2.32,.9Zm20.87,12.22c-1.09,2.49-2.4,3.21-3.94,1.43-3.25-3.77-8.02-5.06-11.72-8.02-2.89-2.32-3.14-3.25-.61-5.94,2.15-2.28,4.53-4.34,6.71-6.6,1.01-1.04,1.79-2.31,2.67-3.48,2.29-3.04,4.4-6.22,6.9-9.07,2.06-2.34,3.02-2.28,5.58-.64,1.23,.79,2.29,1.8,3.51,2.6,1.21,.79,2.63,1.31,3.85,2.12,.62,.41,1.24,.88,1.96,1.05-.27,.98-.47,2.02-.84,2.94-.18,.46-.34,.99-.67,1.33-5.7,5.69-6.34,14.53-12.4,20.02-.56,.51-.66,1.5-1,2.26Zm9.96,8.57c-1.49-.95-3.27-1.48-4.93-2.15-3.23-1.32-4.22-3.64-2.04-6.08,3.39-3.78,5.45-8.2,7.58-12.68,.99-2.06,2.47-3.9,3.73-5.83,.53-.82,1.25-1.56,1.61-2.45,1.43-3.53,1.95-4.05,4.03-3.64,2.6,.53,4.82,2.97,4.98,5.51,.02,.33-.03,.66-.09,1.67-.72,2.02-1.65,4.66-2.61,7.28-2.05,5.57-4.06,11.16-6.19,16.69-1.53,3.96-2.38,4.07-6.07,1.68Zm117.56,46.69c-1,1.88-2.59,.69-3.86,.32-.61,0-1.12-.08-1.6,0-10.24,1.81-20.47-.86-30.72-.07-4.91,.38-5.14,.2-6.32,5.02-.34,1.39-.95,2.02-2.32,2.02-1.33,0-2.66,.03-3.99,.03-14.98,0-29.96-.07-44.93,.03-7.26,.05-14.52-.09-21.78-.03-1.16,.01-2.33,.06-3.49-.03-2.4-.19-2.79-.89-1.83-3.24,1.06-2.61,2.31-5.16,3.19-7.83,1.83-5.46,3.38-11.02,5.2-16.49,1.5-4.53,3.16-9.02,4.86-13.48,1.16-3.04,1.26-3.07,4.29-2.34,5.29,1.27,10.55,2.65,15.84,3.92,12.82,3.08,25.84,4.43,38.95,3.32,4.66-.4,9.66-.09,14.01-2.67,.97-.57,2.19-.85,3.32-1.01,4.92-.71,9.74-1.63,14.41-3.45,3.46-1.35,4.4-.97,5.78,2.47,2.03,5.06,3.57,10.32,5.45,15.44,1.58,4.34,3.2,8.68,5.11,12.87,.82,1.81,1.34,3.47,.43,5.19Zm200.06-59.03c-1.91,.13-3.41-1.45-3.14-3.41,.79-5.54,1.75-11.05,2.42-16.6,.31-2.62,.23-5.31,.13-7.96-.28-7.83,.94-15.46,2.66-23.05,.38-1.67,.73-3.35,1.09-5.02,.43,.08,.85,.17,1.28,.26,0,1.97-.14,3.95,.03,5.91,.53,6.06,1.37,12.11,1.74,18.18,.64,10.38,1.02,20.77,1.5,31.13-2.99,.22-5.35,.41-7.71,.56Zm38.13-68.97c.57-1.16,1.45-2.12,2.65-1.3,.75,.52,1.15,1.78,1.36,2.78,.1,.46-.59,1.11-.95,1.65-1.05,1.57-.86,3.01,.11,4.59,.99,1.61,1.71,3.39,2.63,5.26-5.84-2.04-8.33-7.88-5.8-12.98Zm10.3,63.31c-2.46,.3-4.17,1.81-5.97,3.35-1.04,.88-2.6,1.53-3.95,1.59-4.83,.18-9.66,.15-14.49,.04-2.86-.06-3.56-.71-3.53-3.63,.03-3.96,.42-7.92,.66-11.89,.04-.65,.27-1.33,.17-1.96-1.93-12.25-.7-24.57-.76-36.85-.03-6.07,.75-12.27,2.13-18.18,1.24-5.3,.3-10.18-.68-15.2-.62-3.23-.7-3.22,.2-6.95,.47,.77,.93,1.26,1.08,1.82,1.38,5.43,2.66,10.89,4.08,16.31,.63,2.39,1.53,4.71,2.28,7.08,1.3,4.09,2.56,8.19,3.86,12.28,.72,2.29,2.06,3.98,4.13,5.39,5.18,3.55,6,6.2,4.01,12.37-1.41,4.39-1.78,8.72-.49,13.2,.36,1.25,.28,2.64,.24,3.97-.07,2.22,.43,3.82,2.94,4.48,.93,.25,1.78,1.42,2.31,2.37,1.28,2.31,2.47,4.69,3.47,7.13,.62,1.52,.48,3.02-1.69,3.28Zm14.42,3.72c-.14,.29-1.72,.33-1.84,.08-1.88-3.85-3.7-7.73-5.33-11.69-.3-.73,.3-1.83,.48-2.76,1.02,.34,2.61,.37,2.98,1.05,1.77,3.32,3.21,6.81,4.54,9.73-.35,1.71-.4,2.75-.83,3.59Zm266.14-177.51c1.86,.16,2.36,1.48,2.39,3.12,.04,2.17-.91,3.57-2.48,3.56-1.44-.01-2.27-1.13-2.33-3.15-.07-2.25,.85-3.66,2.42-3.53Zm3.22,29.74c-2.13,2.91-.77,6.04-.79,9.07-.04,6.47,.01,12.95-.02,19.42-.02,5.39-.27,5.62-5.64,5.57-4.23-.04-4.33-.04-4.32-4.02,.02-8.12,.2-16.25,.18-24.37,0-1.18-.64-2.4-1.16-3.52-1.76-3.73,1.48-12.2,5.33-13.58,.49-.18,1.52,.02,1.74,.38,1.68,2.83,3.29,5.7,4.75,8.64,.33,.65,.33,1.86-.07,2.41Zm85.96,156.07c3.58,.07,4.28,.79,4.25,4.43-.02,3.45-.22,3.61-4.74,3.57-4.06-.03-4.24-.19-4.26-3.56,0-3.77,.79-4.51,4.75-4.44Zm-16.99-8.68c1.5-1.67,3.41-1.03,4.99-.18,1.33,.71,2.38,1.93,3.15,2.58,.06,2.69-1.46,3.83-3.4,3.6-2.47-.29-4.54-1.05-5.11-3.77-.15-.7-.07-1.75,.37-2.23Zm-.38,11.24c.72-1.51,1.79-2.89,3.89-1.97,.45,.19,.96,.21,1.43,.37,1.03,.34,2.76,.52,2.93,1.12,.42,1.52,.61,3.47-.04,4.78-.45,.9-2.47,1.02-2.84,1.15-5.17-.05-6.92-2.2-5.37-5.45Zm-9.23-13.52c3.21-.45,4.57,.48,4.83,3.3,.06,.66,.05,1.33,.01,1.99-.16,2.92-.36,3.05-3.49,3-.95-.01-1.91,.2-3.01,.32-.51-1.78-.98-3.02-1.21-4.3-.41-2.31,.8-4.03,2.87-4.31Zm-1.2,11.27c2.86-.36,5.9,1.32,6.06,3.35,.31,3.81,0,4.16-3.96,4.48-3.8,.31-3.84,.28-4.04-2.79-.21-3.28,.39-4.85,1.94-5.04Zm-14.16-6.44c.88-.91,1.96-1.82,3.12-2.21,1.09-.37,2.65-.43,3.53,.13,.58,.36,.67,2.2,.31,3.12-.33,.86-1.5,1.45-2.4,2-.35,.22-.96,.04-2.16,.04-.09-.02-.96-.01-1.66-.35-1.18-.57-1.8-1.61-.74-2.73Zm-.25,7.55c.48-.77,2.1-.82,3.01-1.14,1.64,.32,3.03,.25,3.98,.87,1.77,1.14,1.76,3.13,1.25,4.95-.49,1.75-2.07,1.93-3.64,1.89h-.99c-3.78,0-5.68-3.26-3.61-6.57Zm-13.36,1.55c.62-1.87,5.21-3.54,7.28-2.66,2.02,.87,3.16,3.74,2.33,5.87-.59,1.52-1.63,1.89-5.17,1.82-3.9-.07-5.49-1.87-4.44-5.03Zm73.82,59.14c0,1.16,.11,2.36-.12,3.48-.57,2.87-2.4,3.43-4.94,1.93-1.35-.79-2.98-1.33-4.53-1.48-2.24-.21-3.45-1.13-3.38-3.39,.22-6.46,.53-12.91,.73-19.37,.03-.92-.19-2.64-.44-2.67-1.72-.19-3.52-.21-5.21,.14-.45,.09-1,1.76-.81,2.54,1.28,5.34,2.05,10.73,1.68,16.23-.2,2.96-.35,5.98-1.04,8.85-1.3,5.42-.84,10.9-.94,16.36,0,.66,.01,1.33-.02,2-.16,3.73-.57,4.11-4.49,4.24-.34,0-.67,0-1,0-13.33,0-26.65,0-39.97-.01-5.33,0-5.47-.17-5.51-5.73-.01-1.5,.04-3-.01-4.5-.32-9.78-.72-19.56-.95-29.34-.07-3.09-.61-6.28,1.62-9.1,.85-1.06-.13-2.19-1.63-2.13-1.74,.07-3.47,.18-5.45,.28,2.59,8.08,1.1,16.4,1.37,24.63,.11,3.21-.63,3.85-3.78,3.89-8.62,.11-8.2,.42-8.16-7.57,.04-7.82,.26-15.66-.08-23.48-.27-6.4,.83-12.56,2.28-18.68,.56-2.37,1.93-4.59,3.18-6.73,.4-.69,1.65-1.34,2.4-1.25,.76,.1,1.67,1.05,2,1.83,.43,1.01,.36,2.23,.54,3.63,.69-.34,1.24-.42,1.42-.73,.72-1.22,1.04-3.26,2.02-3.61,2.26-.83,4.83-1.22,7.24-1.08,1.52,.09,3.02,1.36,2.64,3.55-.08,.47,.42,1.05,.66,1.57,.47-.36,1.13-.63,1.39-1.11,.68-1.25,.86-3.3,1.83-3.74,1.53-.69,3.55-.52,5.35-.38,2.53,.2,3.1,2.47,3.67,4.46,.58-.23,1.02-.27,1.12-.47,2.02-3.92,4.74-5.66,8.26-3.84,2.95,1.52,5.34,1.02,7.95,.17,2.22-.72,4.26-.62,6.23,.56,1.27,.76,2.39,.67,3.74,.06,1.32-.6,2.83-.98,4.28-1.06,4.95-.3,4.98-.21,6.08,4.8,.05,.25,.42,.42,1.06,1.03,.29-1.23,.5-2.23,.77-3.21,.74-2.74,3.19-3.63,5.26-1.73,1.05,.98,1.93,2.34,2.41,3.7,2,5.64,3.44,11.38,3.33,17.48-.17,9.65-.04,19.32-.05,28.98Zm231.29-93.9c0-1.81,4.01-5.31,5.96-5.18,2.25,.15,5.78,3.13,5.64,4.77-.22,2.52-3.72,6.19-5.78,6.04-3.08-.22-5.81-2.86-5.82-5.63Z"/></svg>