<?xml version="1.0" encoding="UTF-8" standalone="no"?>
<!DOCTYPE svg PUBLIC "-//W3C//DTD SVG 1.1//EN" "http://www.w3.org/Graphics/SVG/1.1/DTD/svg11.dtd">
<svg width="100%" height="100%" viewBox="0 0 212 168" version="1.1" xmlns="http://www.w3.org/2000/svg" xmlns:xlink="http://www.w3.org/1999/xlink" xml:space="preserve" xmlns:serif="http://www.serif.com/" style="fill-rule:evenodd;clip-rule:evenodd;stroke-linejoin:round;stroke-miterlimit:2;">
    <path d="M4.93,124.45C3.29,120.74 1.64,117.03 0,113.33L0,108.36C0.64,106.34 1.28,104.33 1.92,102.31C2.27,103.66 2.62,105 2.96,106.35C3.61,112.38 4.27,118.42 4.92,124.45L4.93,124.45Z" style="fill:rgb(95,37,67);fill-rule:nonzero;"/>
    <path d="M4.93,124.45C4.28,118.42 3.62,112.38 2.97,106.35C3.33,104.24 3.55,102.1 4.07,100.03C7.28,87.47 10.82,74.56 20.1,65.32C36.39,49.08 56.32,39.72 79.78,38.66C83.74,38.48 87.63,36.85 91.55,35.89C101.1,33.66 108.05,27.25 115.28,21.26C116.83,19.98 118.47,18.21 119.58,21.67C119.01,22.26 118.37,22.79 117.88,23.43C111.2,32.27 102.68,37.52 91.44,39.28C80.55,40.99 69.59,43.34 59.19,46.95C35.19,55.27 18.03,71.18 9.87,95.67C5.55,108.64 8.35,120.18 18.57,129.55C22.95,133.57 27.41,137.56 32.19,141.09C49.37,153.77 72.99,157.57 92.89,141.18C93.56,140.63 94.63,140.58 95.51,140.29C94.4,142.04 93.68,144.46 92.09,145.42C87.36,148.28 82.28,150.57 77.3,153.1C78.5,154.14 79.57,155.08 80.65,156.01C79.41,156.61 78.17,157.22 76.93,157.82C78.95,158.99 81.02,159.52 82.65,158.9C90.31,155.99 98.65,153.94 105.29,149.42C124.41,136.41 137.36,110.29 126.14,82.72C121.76,71.97 120.79,60.39 121.83,48.73C122.2,49.6 122.15,50.56 122.43,51.41C124.58,57.84 126.8,64.24 129,70.65C129.81,71.77 130.62,72.9 131.43,74.02C131.75,75.67 132.07,77.31 132.39,78.96C133.74,82.3 135.08,85.63 136.43,88.97L136.57,89C136.81,94.08 137.57,99.21 137.17,104.24C136.05,118.25 131.23,131.06 121.98,141.71C106.88,159.09 87.63,166.16 64.73,163.06C56.37,160.43 48,157.8 39.64,155.18L39.75,155.23C39.26,154.87 38.77,154.51 38.27,154.15C29.37,147.79 20.22,141.75 11.72,134.9C8.64,132.41 7.13,127.98 4.91,124.43L4.93,124.45ZM74.23,159.82C74.27,159.13 74.31,158.44 74.35,157.75C65.55,156.95 56.75,156.15 47.95,155.35C56.51,158.68 65.28,160.1 74.23,159.81L74.23,159.82Z" style="fill:rgb(123,57,93);fill-rule:nonzero;"/>
    <path d="M95.52,140.3C94.64,140.58 93.56,140.64 92.9,141.19C73,157.58 49.38,153.78 32.2,141.1C27.42,137.57 22.97,133.58 18.58,129.56C8.36,120.19 5.56,108.65 9.88,95.68C18.04,71.19 35.2,55.29 59.2,46.96C69.6,43.35 80.55,41 91.45,39.29C102.69,37.53 111.21,32.29 117.89,23.44C118.38,22.79 119.02,22.26 119.59,21.68C122.72,21.84 124.5,23.38 124.57,26.62C119.51,33.12 115.51,40 116.64,48.72C116.22,63.31 115.81,77.9 115.39,92.48C115.14,93.26 114.78,94.02 114.66,94.81C112.77,107.43 109.19,119.44 102.28,130.33C100.49,133.15 99.01,136.17 97.38,139.09C96.76,139.49 96.14,139.9 95.51,140.3L95.52,140.3ZM119.27,27.5C118.96,27.26 118.66,27.02 118.35,26.77C117.08,27.92 115.73,29.01 114.54,30.24C108.84,36.1 102.14,39.51 93.92,41.05C81.82,43.32 69.7,46.06 58.03,49.91C38.44,56.38 24.25,69.66 15.22,88.09C9.31,100.14 7.56,112.78 16.65,124.03C21.45,129.98 27.81,134.79 33.94,139.51C44.82,147.89 57.51,151.13 70.93,148.88C85.18,146.49 95.2,137.61 102.13,125.12C109.16,112.45 112,98.6 113.4,84.42C114.14,76.88 114.99,69.18 114.2,61.72C113.19,52.18 113.09,42.99 116.49,33.95C117.31,31.76 118.35,29.65 119.29,27.51L119.27,27.5Z" style="fill:rgb(237,194,166);fill-rule:nonzero;"/>
    <path d="M177.24,47.88C180.07,49.39 183.5,50.33 185.61,52.53C191.08,58.23 196.9,63.95 200.82,70.68C204.54,77.06 206.95,84.58 208.28,91.9C209.71,99.76 209.8,108 209.39,116.02C208.77,128.23 201.24,137.03 192.94,145.12C182.12,155.67 169.5,162.79 154.25,164.64C153.54,164.09 152.92,163.25 152.12,163.03C148.21,161.95 144.26,161.04 140.33,160.06C140.34,159.75 140.35,159.44 140.33,159.13C140.65,159.07 140.96,159.03 141.28,159.01C148.59,158.7 155.9,158.39 163.21,158.07C169.49,153.07 175.78,148.08 182.06,143.08C183.1,143.45 184.14,143.83 185.18,144.2C184.52,144.84 183.86,145.49 183.19,146.13C182.8,146.76 182.41,147.39 182.03,148.02L177.36,153.16C177.7,153.54 178.05,153.92 178.39,154.31C183.02,150.35 188,146.74 192.22,142.39C211.01,123 211.87,100.98 200.56,78.31C194.73,66.63 186.1,57.17 177.21,47.88L177.24,47.88Z" style="fill:rgb(110,50,81);fill-rule:nonzero;"/>
    <path d="M183.22,146.14C183.88,145.5 184.54,144.85 185.21,144.21C187.88,141.32 191.11,138.76 193.1,135.46C196.8,129.31 199.77,122.72 203.04,116.32C203.11,117.66 203.18,118.99 203.25,120.33L205.09,120.33L205.09,105.37C204.77,103.03 204.44,100.7 204.12,98.36C203.44,95.39 202.75,92.42 202.07,89.45C201.78,88.76 201.49,88.07 201.19,87.37C200.55,85.69 199.91,84.01 199.26,82.34C198.89,81.37 198.51,80.41 198.14,79.44C197.83,79.1 197.51,78.75 197.2,78.41C196.87,77.75 196.54,77.09 196.2,76.43C195.85,75.78 195.51,75.14 195.17,74.49C194.46,73.91 193.76,73.32 193.05,72.74L193.11,72.54C191.72,70.28 190.33,68.02 188.93,65.76C187.36,64.44 185.65,63.26 184.25,61.79C180.81,58.17 177.52,54.41 174.17,50.71C169.51,45.77 164.85,40.83 160.18,35.89C159.83,35.54 159.48,35.2 159.13,34.85L160.18,32.99C165.86,37.96 171.54,42.93 177.23,47.9C186.12,57.19 194.75,66.64 200.58,78.33C211.9,101.01 211.04,123.02 192.24,142.41C188.02,146.76 183.04,150.38 178.41,154.33C178.07,153.95 177.72,153.57 177.38,153.18C178.94,151.47 180.5,149.75 182.06,148.04C182.45,147.41 182.84,146.78 183.22,146.15L183.22,146.14ZM202.4,122.96C202.35,123.08 202.31,123.2 202.26,123.33C202.44,123.35 202.61,123.36 202.79,123.38C202.77,123.25 202.77,123.1 202.7,123C202.66,122.94 202.5,122.97 202.4,122.96Z" style="fill:rgb(81,32,56);fill-rule:nonzero;"/>
    <path d="M64.75,163.07C87.65,166.17 106.89,159.1 122,141.72C131.25,131.08 136.07,118.27 137.19,104.25C137.59,99.22 136.82,94.1 136.59,89.02C137.64,93.24 138.69,97.46 139.74,101.68C139.7,102.41 139.66,103.14 139.61,103.87C139.16,108.67 138.71,113.47 138.27,118.27C135.92,123.9 133.57,129.52 131.22,135.15C129.24,138.45 127.25,141.75 125.27,145.05C124.99,145.07 124.7,145.1 124.42,145.15C123.42,146.09 122.42,147.03 121.43,147.97C119.78,149.35 118.14,150.73 116.49,152.11C113.59,154.35 110.69,156.58 107.04,159.4C106.36,159.6 104.45,160.16 102.55,160.72C93.87,162.5 85.23,164.63 76.47,165.91C72.68,166.47 68.63,165.3 64.69,164.91C64.71,164.3 64.74,163.69 64.76,163.08L64.75,163.07Z" style="fill:rgb(81,32,56);fill-rule:nonzero;"/>
    <path d="M91.55,35.88C87.63,36.84 83.74,38.47 79.78,38.65C56.32,39.71 36.39,49.08 20.1,65.31C10.82,74.55 7.28,87.46 4.07,100.02C3.54,102.09 3.33,104.23 2.97,106.34C2.62,104.99 2.27,103.64 1.92,102.3C5.52,77.06 17.65,57.88 41.23,46.69C50.32,42.38 59.49,38.49 69.68,37.74C72.32,37.49 74.96,37.24 77.59,36.98C78.59,36.9 79.58,36.83 80.58,36.75C82.25,36.48 83.91,36.2 85.58,35.93C87.57,35.91 89.56,35.89 91.55,35.88Z" style="fill:rgb(81,32,56);fill-rule:nonzero;"/>
    <path d="M160.19,32.98C159.84,33.6 159.49,34.22 159.15,34.84C157.2,33.5 155.07,32.36 153.33,30.79C150.2,27.96 147.3,24.87 144.31,21.89C142.64,15.36 140.97,8.82 139.3,2.29C141.07,1.95 142.87,1.22 144.58,1.41C145.62,1.52 147.37,3.08 147.33,3.91C146.67,15.84 153.21,24.49 160.2,32.98L160.19,32.98Z" style="fill:rgb(110,50,81);fill-rule:nonzero;"/>
    <path d="M139.29,2.29C140.96,8.82 142.63,15.36 144.3,21.89C143.31,23.87 142.32,25.84 141.33,27.82C136.76,29.63 134.23,26.49 131.54,23.78C131.77,19.82 132.88,15.65 132.03,11.93C130.47,5.07 130.18,4.8 136.89,2.71C137.66,2.47 138.49,2.42 139.3,2.28L139.29,2.29ZM138.39,8.53C137.72,8.64 137.06,8.76 136.39,8.87C136.39,13.41 136.24,17.96 136.5,22.48C136.56,23.59 137.99,24.61 138.79,25.68C139.65,24.5 141.35,23.2 141.21,22.16C140.56,17.58 139.38,13.07 138.39,8.53Z" style="fill:rgb(130,65,106);fill-rule:nonzero;"/>
    <path d="M102.53,160.71C104.43,160.15 106.34,159.59 107.02,159.39C110.67,156.58 113.57,154.34 116.47,152.1C119.45,154.75 122.43,157.4 125.4,160.06C128.79,159.6 129.04,159.14 128.01,156.25C126.71,152.58 125.59,148.86 124.39,145.16C124.67,145.11 124.95,145.07 125.24,145.06C125.94,146.1 126.64,147.14 127.35,148.18C128.36,151.79 129.37,155.41 130.38,159.02C128.06,160.66 125.73,162.3 123.41,163.94C116.45,162.87 109.48,161.79 102.52,160.72L102.53,160.71Z" style="fill:rgb(110,50,81);fill-rule:nonzero;"/>
    <path d="M131.54,23.78C134.24,26.49 136.76,29.63 141.33,27.82C139.64,29.66 137.96,31.52 136.25,33.35C132.98,36.84 129.7,40.31 126.42,43.79C125.54,44.23 124.66,44.68 123.77,45.12C123.01,42.36 122.25,39.6 121.49,36.84C122.35,35.37 123.25,33.93 124.06,32.44C124.87,30.96 125.61,29.44 126.38,27.94C128.1,26.55 129.81,25.17 131.53,23.78L131.54,23.78Z" style="fill:rgb(110,50,81);fill-rule:nonzero;"/>
    <path d="M123.42,163.93C125.74,162.29 128.07,160.65 130.39,159.01C133.71,159.36 137.02,159.71 140.34,160.06C144.27,161.03 148.23,161.95 152.13,163.03C152.93,163.25 153.55,164.09 154.26,164.64C143.98,164.4 133.7,164.17 123.42,163.93Z" style="fill:rgb(95,37,67);fill-rule:nonzero;"/>
    <path d="M126.39,27.94C125.62,29.44 124.88,30.96 124.07,32.44C123.25,33.93 122.36,35.38 121.49,36.84C120.79,40.8 120.1,44.76 119.41,48.72C118.48,48.72 117.55,48.71 116.62,48.7C115.49,39.98 119.49,33.11 124.55,26.6C125.16,27.04 125.78,27.49 126.39,27.93L126.39,27.94Z" style="fill:rgb(123,57,93);fill-rule:nonzero;"/>
    <path d="M64.75,163.07C64.73,163.68 64.7,164.29 64.68,164.9C55.58,163.6 47.19,160.51 39.66,155.19C48.02,157.82 56.39,160.45 64.75,163.08L64.75,163.07Z" style="fill:rgb(110,50,81);fill-rule:nonzero;"/>
    <path d="M77.59,36.99C74.95,37.24 72.31,37.49 69.68,37.75C72.32,37.5 74.96,37.25 77.59,36.99Z" style="fill:rgb(95,37,67);fill-rule:nonzero;"/>
    <path d="M85.58,35.94C83.91,36.21 82.25,36.49 80.58,36.76C82.25,36.49 83.91,36.21 85.58,35.94Z" style="fill:rgb(95,37,67);fill-rule:nonzero;"/>
    <path d="M38.29,154.16C38.78,154.52 39.27,154.88 39.77,155.24C39.28,154.88 38.79,154.52 38.29,154.16Z" style="fill:rgb(110,50,81);fill-rule:nonzero;"/>
    <path d="M132.4,78.98C132.08,77.33 131.76,75.69 131.44,74.04C131.64,73.61 131.83,73.18 132.02,72.75C133.01,70.57 134.16,68.45 134.96,66.2C137.16,60.07 139.22,53.88 141.33,47.71C145.28,48.72 149.23,49.73 153.19,50.74C155.87,59.2 159.12,67.53 161.11,76.15C164.23,89.66 165.14,103.43 163.2,117.27C162.87,117.61 162.54,117.94 162.22,118.28C161.58,118.28 160.93,118.28 160.29,118.27C160.2,116.95 160.12,115.62 159.96,113.16C159.18,116.3 158.69,118.27 158.2,120.25C156.23,120.26 154.27,120.27 152.3,120.28C153.29,115.15 155.34,109.96 155.06,104.91C154.41,93.31 152.71,81.75 151.21,70.21C151.01,68.69 149.62,66.32 148.55,66.18C147.16,66 144.93,67.3 144.12,68.61C141.99,72.04 140.42,75.83 138.86,79.01C137.66,79.41 136.56,79.78 135.47,80.14C134.45,79.75 133.43,79.35 132.42,78.96L132.4,78.98Z" style="fill:rgb(157,92,133);fill-rule:nonzero;"/>
    <path d="M135.45,80.16C136.55,79.79 137.64,79.43 138.84,79.03C140.41,75.84 141.97,72.06 144.1,68.63C144.92,67.32 147.14,66.02 148.53,66.2C149.61,66.34 151,68.71 151.19,70.23C152.69,81.77 154.4,93.33 155.04,104.93C155.32,109.99 153.27,115.18 152.28,120.3C146.86,124.73 142.58,121.26 138.23,118.28C138.68,113.48 139.13,108.68 139.57,103.88C139.61,103.15 139.66,102.42 139.7,101.69C138.65,97.47 137.6,93.25 136.55,89.03L136.41,89C136.08,86.06 135.75,83.11 135.42,80.17L135.45,80.16Z" style="fill:rgb(169,107,150);fill-rule:nonzero;"/>
    <path d="M119.41,48.72C120.1,44.76 120.8,40.8 121.49,36.84C122.25,39.6 123.01,42.36 123.77,45.11C124.37,47.94 124.98,50.78 125.58,53.61C126.18,56.29 126.78,58.96 127.38,61.64C128.08,62.95 128.78,64.26 129.48,65.58C129.81,66.9 130.15,68.23 130.48,69.55C130.46,69.89 130.43,70.22 130.41,70.56C129.94,70.6 129.46,70.64 128.99,70.67C126.79,64.26 124.57,57.85 122.42,51.43C122.13,50.58 122.18,49.62 121.82,48.75C120.79,60.4 121.76,71.98 126.13,82.74C137.35,110.31 124.41,136.43 105.28,149.44C98.65,153.95 90.31,156 82.64,158.92C81.01,159.54 78.93,159.01 76.92,157.84C78.16,157.24 79.4,156.63 80.64,156.03L81.1,156.04L81.56,156.02C91.49,155.47 99.49,150.84 106.55,144.24C109.25,141.65 112.33,139.36 114.58,136.43C130.21,115.98 130.71,100.16 121.37,78.56C121.31,77.91 121.25,77.27 121.19,76.62C120.59,67.32 120,58.03 119.4,48.73L119.41,48.72Z" style="fill:rgb(95,37,67);fill-rule:nonzero;"/>
    <path d="M81.57,156.01L81.11,156.03L80.65,156.02C79.57,155.08 78.5,154.15 77.3,153.11C82.27,150.58 87.35,148.29 92.09,145.43C93.68,144.47 94.4,142.05 95.51,140.3C96.13,139.9 96.75,139.49 97.38,139.09C99.4,138.43 101.42,137.76 103.44,137.1C103.46,139.12 103.48,141.15 103.5,143.17C97.83,146.1 92.1,148.94 86.52,152.02C84.69,153.03 83.21,154.67 81.57,156.02L81.57,156.01Z" style="fill:rgb(137,76,116);fill-rule:nonzero;"/>
    <path d="M74.22,159.82C65.26,160.11 56.5,158.68 47.94,155.36C56.74,156.16 65.54,156.96 74.34,157.76C74.3,158.45 74.26,159.14 74.22,159.83L74.22,159.82Z" style="fill:rgb(95,37,67);fill-rule:nonzero;"/>
    <path d="M135.45,80.16C135.78,83.1 136.11,86.05 136.44,88.99C135.09,85.65 133.75,82.32 132.4,78.98C133.42,79.37 134.44,79.77 135.45,80.16Z" style="fill:rgb(81,32,56);fill-rule:nonzero;"/>
    <path d="M129.01,70.67C129.48,70.63 129.96,70.59 130.43,70.56C130.96,71.29 131.5,72.02 132.03,72.76C131.83,73.19 131.64,73.62 131.44,74.05C130.63,72.93 129.82,71.8 129.01,70.68L129.01,70.67Z" style="fill:rgb(81,32,56);fill-rule:nonzero;"/>
    <path d="M119.27,27.5C118.33,29.65 117.3,31.75 116.47,33.94C113.07,42.98 113.17,52.17 114.18,61.71C114.97,69.17 114.12,76.88 113.38,84.41C111.98,98.59 109.14,112.45 102.11,125.11C95.18,137.6 85.16,146.48 70.91,148.87C57.49,151.12 44.8,147.88 33.92,139.5C27.79,134.78 21.43,129.96 16.63,124.02C7.55,112.77 9.3,100.13 15.2,88.08C24.23,69.65 38.43,56.37 58.01,49.9C69.68,46.05 81.8,43.31 93.9,41.04C102.13,39.5 108.82,36.09 114.52,30.23C115.71,29 117.06,27.92 118.33,26.76C118.64,27 118.94,27.24 119.25,27.49L119.27,27.5ZM81.49,50.63L81.59,50.57C80.24,50.93 78.89,51.28 77.54,51.64C76.83,51.76 76.12,51.87 75.42,51.99C75.29,51.32 75.07,50.07 75.03,50.07C66.65,51.21 58.8,53.68 52.29,59.4C51.29,60.07 50.28,60.74 49.28,61.41C48.53,61.48 47.48,61.26 47.07,61.67C41.53,67.2 36.08,72.82 30.61,78.42C26.41,85.59 22.2,92.75 18.07,99.96C17.9,100.26 18.52,101 18.77,101.54C18.48,105.82 17.52,110.2 18.13,114.35C18.56,117.24 21.13,119.82 22.75,122.54C23.48,123.79 24.22,125.05 24.95,126.3C30.26,132.93 36.96,137.7 44.74,141.01C50.43,145.75 57.1,146.01 63.98,145.04C64.6,144.95 65.07,143.75 65.61,143.07C68.38,142.12 71.25,141.36 73.91,140.17C84.72,135.35 94.01,128.82 98.6,117.27C100.6,112.37 102.6,107.46 104.59,102.56C105.01,100.89 105.43,99.21 105.85,97.54C106.08,96.86 106.31,96.17 106.55,95.49C106.81,94.47 107.07,93.45 107.33,92.43C107.41,91.83 107.49,91.22 107.58,90.62C107.77,89.93 107.97,89.25 108.16,88.56C108.28,87.52 108.4,86.48 108.52,85.44C108.91,75.52 109.39,65.59 109.59,55.67C109.62,54.24 108.27,52.77 107.56,51.33C104.17,49.32 100.99,46.29 97.34,45.57C93.67,44.85 89.55,46.41 85.63,46.97C84.35,47.91 83.07,48.85 81.79,49.79C81.67,50.06 81.57,50.33 81.5,50.62L81.49,50.63Z" style="fill:rgb(241,221,200);fill-rule:nonzero;"/>
    <path d="M103.44,137.09C101.42,137.76 99.4,138.42 97.38,139.09C99,136.16 100.49,133.15 102.28,130.33C109.19,119.44 112.77,107.43 114.66,94.81C114.78,94.01 115.14,93.25 115.39,92.48L116.44,92.48C116.74,108.7 114.08,124.06 103.45,137.11L103.44,137.09Z" style="fill:rgb(123,57,93);fill-rule:nonzero;"/>
    <path d="M116.43,92.46L115.38,92.46C115.8,77.87 116.21,63.28 116.63,48.7C117.56,48.7 118.49,48.71 119.42,48.72C120.02,58.02 120.61,67.31 121.21,76.61C117.59,76.5 117.69,79.16 117.46,81.6C117.12,85.22 116.77,88.84 116.43,92.46Z" style="fill:rgb(130,65,106);fill-rule:nonzero;"/>
    <path d="M126.43,43.79C129.71,40.31 132.99,36.84 136.26,33.35C137.97,31.52 139.65,29.67 141.34,27.82C142.33,25.84 143.32,23.87 144.31,21.89C147.3,24.87 150.2,27.96 153.33,30.79C155.07,32.36 157.2,33.5 159.15,34.84C159.5,35.19 159.85,35.53 160.2,35.88C162.87,42.69 168.33,46.89 174.19,50.7C177.54,54.4 180.83,58.16 184.27,61.78C185.67,63.26 187.38,64.44 188.95,65.75C189.34,68.63 189.19,71.83 193.12,72.53L193.06,72.73C193.09,72.96 193.09,73.19 193.08,73.42C193.76,74.47 194.43,75.51 195.11,76.56L195.08,76.53C195.42,77.21 195.76,77.88 196.1,78.56L196.07,78.52C197.07,80.85 198.08,83.18 199.08,85.51L199.06,85.48C200.17,91.47 201.26,97.46 202.45,103.43C202.53,103.82 203.47,104.04 204,104.34C204,104.68 204.02,105.02 204.03,105.36C203.7,109.02 203.37,112.67 203.03,116.33C199.76,122.73 196.78,129.32 193.09,135.47C191.1,138.77 187.87,141.33 185.2,144.22C184.16,143.85 183.12,143.48 182.08,143.1C188.55,134.9 194.16,126.34 194.07,115.32C194.57,117.3 195.08,119.29 195.58,121.28C196.04,121.28 196.51,121.3 196.97,121.3L196.97,105.34C195.38,87.69 187.75,72.76 176.2,59.62C173.46,53.88 167.38,47.51 163.29,46.37C164.34,48.61 165.29,50.63 166.24,52.66C163.56,51.68 160.88,50.69 158.2,49.71C155.95,45.21 153.71,40.72 151.46,36.22C151.14,36.37 150.81,36.53 150.49,36.68C151.42,40.02 152.35,43.35 153.28,46.69C152.61,46.37 151.94,46.05 151.27,45.73C149.64,42.96 148.02,40.19 146.28,37.23C145.21,38.21 144.3,39.03 143.4,39.86C142.7,39.5 142,39.14 141.3,38.78C141.07,37.89 140.84,37 140.49,35.6C139.5,37.06 138.92,37.93 138.34,38.79C136.67,38.81 135,38.84 133.33,38.86C131.02,40.51 128.72,42.16 126.41,43.81L126.43,43.79Z" style="fill:rgb(123,57,93);fill-rule:nonzero;"/>
    <path d="M194.07,115.31C194.16,126.33 188.55,134.9 182.08,143.09C175.79,148.09 169.51,153.08 163.23,158.08C162.87,153.68 165.61,149.14 169.7,147.39C169.54,145.65 169.39,143.91 169.23,142.17C169.88,141.83 170.54,141.5 171.19,141.16C171.62,141.28 172.05,141.4 172.48,141.52C172.05,141.4 171.62,141.28 171.19,141.16C171.19,140.16 171.21,139.16 171.21,138.16C175.27,137.4 178.95,136.3 177.48,130.42C182.56,131.26 185.36,128.49 187.49,124.6C188.59,122.6 189.67,120.57 190.96,118.69C191.82,117.44 193.02,116.42 194.07,115.3L194.07,115.31Z" style="fill:rgb(144,71,115);fill-rule:nonzero;"/>
    <path d="M169.23,142.17C169.38,143.91 169.54,145.65 169.7,147.39C165.61,149.14 162.87,153.68 163.23,158.08C155.92,158.39 148.61,158.71 141.3,159.02C143.92,155.37 146.54,151.72 149.16,148.06C149.54,147.42 149.92,146.77 150.29,146.13C152.8,145.88 155.31,145.52 157.83,145.43C158.96,145.39 160.1,145.9 161.24,146.17C161.7,146.5 162.17,146.84 162.63,147.17L165.24,142.14C166.57,142.15 167.9,142.16 169.23,142.17Z" style="fill:rgb(123,57,93);fill-rule:nonzero;"/>
    <path d="M140.34,160.07C137.02,159.72 133.71,159.37 130.39,159.02C129.38,155.4 128.37,151.79 127.36,148.18C130.05,148.48 132.74,148.77 135.43,149.07C135.73,149.09 136.02,149.12 136.31,149.15C137.65,152.48 139,155.82 140.34,159.15L140.34,160.08L140.34,160.07Z" style="fill:rgb(123,57,93);fill-rule:nonzero;"/>
    <path d="M140.35,159.14C139.01,155.81 137.66,152.47 136.32,149.14C140.6,148.78 144.88,148.42 149.16,148.06C146.54,151.71 143.92,155.36 141.3,159.02C140.98,159.04 140.66,159.08 140.35,159.14Z" style="fill:rgb(144,71,115);fill-rule:nonzero;"/>
    <path d="M183.22,146.14C182.83,146.77 182.45,147.4 182.06,148.03C182.45,147.4 182.83,146.77 183.22,146.14Z" style="fill:rgb(123,57,93);fill-rule:nonzero;"/>
    <path d="M174.18,50.7C168.32,46.88 162.87,42.69 160.19,35.88C164.85,40.82 169.51,45.76 174.18,50.7Z" style="fill:rgb(110,50,81);fill-rule:nonzero;"/>
    <path d="M203.04,116.31C203.37,112.65 203.7,109 204.04,105.34C204.39,105.34 204.74,105.36 205.09,105.36L205.09,120.32L203.25,120.32C203.18,118.98 203.11,117.65 203.04,116.31Z" style="fill:rgb(110,50,81);fill-rule:nonzero;"/>
    <path d="M193.11,72.52C189.18,71.82 189.32,68.62 188.94,65.74C190.33,68 191.72,70.26 193.11,72.52Z" style="fill:rgb(95,37,67);fill-rule:nonzero;"/>
    <path d="M202.07,89.45C202.75,92.42 203.44,95.39 204.12,98.36L204.02,98.42C203.37,95.43 202.71,92.44 202.06,89.46L202.06,89.44L202.07,89.45Z" style="fill:rgb(122,68,103);fill-rule:nonzero;"/>
    <path d="M205.09,105.37C204.74,105.37 204.39,105.35 204.04,105.35C204.04,105.01 204.02,104.67 204.01,104.33C204.01,102.36 204.01,100.4 204.02,98.43L204.12,98.37C204.44,100.71 204.77,103.04 205.09,105.38L205.09,105.37Z" style="fill:rgb(122,68,103);fill-rule:nonzero;"/>
    <path d="M199.27,82.34C199.91,84.02 200.55,85.7 201.19,87.37L201.01,87.51C200.36,86.83 199.71,86.15 199.06,85.47L199.08,85.5C199.05,84.52 199.02,83.53 199,82.55L199.27,82.33L199.27,82.34Z" style="fill:rgb(122,68,103);fill-rule:nonzero;"/>
    <path d="M198.15,79.44C198.52,80.41 198.89,81.38 199.27,82.34L199,82.55C198.68,81.55 198.35,80.55 198.03,79.56L198.15,79.44Z" style="fill:rgb(122,68,103);fill-rule:nonzero;"/>
    <path d="M193.08,73.41C193.09,73.18 193.08,72.95 193.06,72.72C193.77,73.31 194.47,73.89 195.18,74.47L195.06,74.57C194.4,74.18 193.74,73.8 193.08,73.41Z" style="fill:rgb(122,68,103);fill-rule:nonzero;"/>
    <path d="M202.4,122.96C202.5,122.97 202.66,122.94 202.7,123C202.77,123.1 202.76,123.25 202.79,123.38C202.61,123.36 202.44,123.35 202.26,123.33C202.31,123.21 202.35,123.09 202.4,122.96Z" style="fill:rgb(110,50,81);fill-rule:nonzero;"/>
    <path d="M196.21,76.42C196.54,77.08 196.87,77.74 197.21,78.41L197.04,78.57C196.72,78.55 196.39,78.53 196.07,78.51L196.1,78.55C196.08,77.89 196.07,77.23 196.05,76.58L196.22,76.42L196.21,76.42Z" style="fill:rgb(122,68,103);fill-rule:nonzero;"/>
    <path d="M195.18,74.48C195.52,75.13 195.87,75.78 196.21,76.42L196.05,76.57C195.73,76.56 195.4,76.54 195.08,76.52L195.11,76.55C195.09,75.89 195.08,75.23 195.06,74.57L195.18,74.47L195.18,74.48Z" style="fill:rgb(122,68,103);fill-rule:nonzero;"/>
    <path d="M201.19,87.37C201.48,88.06 201.77,88.75 202.07,89.45L202.06,89.47C201.71,88.82 201.36,88.17 201.02,87.52L201.2,87.38L201.19,87.37Z" style="fill:rgb(122,68,103);fill-rule:nonzero;"/>
    <path d="M197.21,78.41C197.52,78.75 197.83,79.1 198.15,79.44L198.03,79.56C197.7,79.23 197.37,78.9 197.05,78.57L197.22,78.41L197.21,78.41Z" style="fill:rgb(122,68,103);fill-rule:nonzero;"/>
    <path d="M149.16,148.06C144.88,148.42 140.6,148.78 136.32,149.14C136.03,149.11 135.73,149.08 135.43,149.06C134.02,144.43 132.61,139.79 131.21,135.15C133.56,129.52 135.91,123.9 138.26,118.27C142.61,121.25 146.89,124.71 152.31,120.29C154.28,120.28 156.24,120.27 158.21,120.26C155.57,128.88 152.94,137.51 150.3,146.13C149.92,146.77 149.54,147.42 149.17,148.06L149.16,148.06Z" style="fill:rgb(152,82,125);fill-rule:nonzero;"/>
    <path d="M131.21,135.15C132.62,139.79 134.03,144.42 135.43,149.06C132.74,148.76 130.05,148.46 127.36,148.17C126.66,147.13 125.96,146.09 125.25,145.05C127.23,141.75 129.22,138.45 131.2,135.15L131.21,135.15Z" style="fill:rgb(130,65,106);fill-rule:nonzero;"/>
    <path d="M125.41,160.06C122.43,157.41 119.45,154.76 116.48,152.1C118.13,150.72 119.77,149.34 121.42,147.97C122.11,149.92 122.84,151.86 123.49,153.82C124.17,155.89 124.78,157.98 125.42,160.06L125.41,160.06Z" style="fill:rgb(144,71,115);fill-rule:nonzero;"/>
    <path d="M125.41,160.06C124.77,157.98 124.16,155.89 123.48,153.82C122.83,151.86 122.11,149.92 121.41,147.97C122.41,147.03 123.41,146.09 124.4,145.15C125.6,148.85 126.72,152.58 128.02,156.25C129.04,159.14 128.8,159.61 125.41,160.06Z" style="fill:rgb(123,57,93);fill-rule:nonzero;"/>
    <path d="M139.72,101.69C139.68,102.42 139.63,103.15 139.59,103.88C139.63,103.15 139.68,102.42 139.72,101.69Z" style="fill:rgb(95,37,67);fill-rule:nonzero;"/>
    <path d="M138.39,8.53C139.38,13.07 140.56,17.57 141.21,22.16C141.36,23.2 139.65,24.5 138.79,25.68C137.99,24.62 136.56,23.59 136.5,22.48C136.24,17.96 136.39,13.41 136.39,8.87C137.06,8.76 137.72,8.64 138.39,8.53Z" style="fill:rgb(152,82,125);fill-rule:nonzero;"/>
    <path d="M126.43,43.79C128.74,42.14 131.04,40.49 133.35,38.84C132.04,41.8 130.73,44.75 129.41,47.71C128.14,49.68 126.87,51.65 125.6,53.62C124.99,50.78 124.39,47.95 123.79,45.12C124.68,44.68 125.56,44.24 126.44,43.79L126.43,43.79Z" style="fill:rgb(152,82,125);fill-rule:nonzero;"/>
    <path d="M151.29,45.72C151.96,46.04 152.63,46.36 153.3,46.68C154.94,49.36 156.58,52.04 158.21,54.72C158.58,56.64 158.86,58.59 159.34,60.49C162.33,72.39 165.36,84.28 168.02,94.76C169.14,96.72 170.07,97.61 170.1,98.54C170.27,103.49 170.22,108.44 170.24,113.39C169.25,118.68 168.25,123.97 167.26,129.27C167.57,124.92 167.89,120.57 168.23,115.88C166.27,116.43 164.73,116.86 163.2,117.29C165.14,103.45 164.22,89.68 161.11,76.17C159.12,67.55 155.87,59.22 153.19,50.76C152.56,49.08 151.93,47.41 151.29,45.73L151.29,45.72Z" style="fill:rgb(137,76,116);fill-rule:nonzero;"/>
    <path d="M163.2,117.28C164.74,116.85 166.27,116.42 168.23,115.87C167.89,120.56 167.58,124.91 167.26,129.26L167.24,129.26C166.9,130.59 166.57,131.91 166.23,133.24C165.86,135.19 165.49,137.15 165.12,139.11C165.14,139.47 165.16,139.82 165.18,140.18L165.2,140.15C163.87,142.16 162.54,144.16 161.21,146.17C160.07,145.91 158.93,145.39 157.8,145.43C155.28,145.52 152.77,145.88 150.26,146.13C152.9,137.51 155.53,128.88 158.17,120.26C158.66,118.28 159.15,116.3 159.93,113.17C160.09,115.63 160.17,116.95 160.26,118.28C159.05,123.95 157.83,129.63 156.62,135.3C157.08,135.41 157.54,135.52 158,135.63C159.4,129.85 160.8,124.07 162.2,118.29C162.53,117.96 162.86,117.62 163.18,117.28L163.2,117.28ZM156,138.2C155.93,138.07 155.87,137.94 155.8,137.81C155.71,137.92 155.56,138.03 155.55,138.15C155.54,138.27 155.67,138.41 155.73,138.54C155.82,138.43 155.91,138.32 156,138.2Z" style="fill:rgb(130,65,106);fill-rule:nonzero;"/>
    <path d="M141.32,38.76C142.02,39.12 142.72,39.48 143.42,39.84C142.72,42.47 142.03,45.09 141.33,47.72C139.22,53.89 137.16,60.07 134.96,66.21C134.15,68.46 133,70.58 132.02,72.76C131.49,72.03 130.96,71.3 130.43,70.56C130.45,70.22 130.48,69.89 130.5,69.55C130.95,69.38 131.71,69.32 131.81,69.03C133.96,63.05 136.13,57.07 138,51C138.26,50.17 136.98,48.86 136.41,47.77C136.41,47.46 136.39,47.14 136.39,46.83C138.03,44.14 139.68,41.45 141.33,38.77L141.32,38.76Z" style="fill:rgb(130,65,106);fill-rule:nonzero;"/>
    <path d="M141.33,47.72C142.02,45.09 142.72,42.47 143.42,39.84C144.33,39.02 145.23,38.19 146.3,37.21C148.04,40.17 149.66,42.94 151.29,45.71C151.92,47.39 152.55,49.06 153.19,50.74C149.24,49.73 145.29,48.72 141.33,47.71L141.33,47.72Z" style="fill:rgb(152,82,125);fill-rule:nonzero;"/>
    <path d="M162.22,118.29C160.82,124.07 159.42,129.85 158.02,135.63C157.56,135.52 157.1,135.41 156.64,135.3C157.85,129.63 159.07,123.95 160.28,118.28C160.92,118.28 161.57,118.28 162.21,118.29L162.22,118.29Z" style="fill:rgb(152,82,125);fill-rule:nonzero;"/>
    <path d="M116.43,92.46C116.77,88.84 117.12,85.22 117.46,81.6C117.69,79.17 117.59,76.5 121.21,76.61C121.27,77.26 121.33,77.9 121.39,78.55C121.57,81.85 121.37,85.23 122,88.45C124.94,103.66 124.69,118.34 115.25,131.52C112.31,135.62 108.77,139.3 105.51,143.17L103.52,143.17C103.5,141.15 103.48,139.12 103.46,137.1C114.09,124.05 116.74,108.69 116.45,92.47L116.43,92.46Z" style="fill:rgb(144,71,115);fill-rule:nonzero;"/>
    <path d="M105.5,143.17C108.76,139.3 112.3,135.62 115.24,131.52C124.68,118.34 124.93,103.66 121.99,88.45C121.37,85.23 121.56,81.85 121.38,78.55C130.72,100.15 130.21,115.97 114.59,136.42C112.35,139.35 109.26,141.64 106.56,144.23C106.2,143.88 105.85,143.52 105.49,143.17L105.5,143.17Z" style="fill:rgb(130,65,106);fill-rule:nonzero;"/>
    <path d="M105.5,143.17C105.86,143.52 106.21,143.88 106.57,144.23C99.5,150.84 91.5,155.46 81.58,156.01C83.22,154.66 84.7,153.01 86.53,152.01C92.12,148.93 97.84,146.09 103.51,143.16L105.5,143.16L105.5,143.17Z" style="fill:rgb(123,57,93);fill-rule:nonzero;"/>
    <path d="M125.59,53.62C126.86,51.65 128.13,49.68 129.4,47.71C130.72,48.05 132.05,48.38 133.37,48.72C131.37,53.03 129.38,57.34 127.38,61.66C126.78,58.98 126.18,56.31 125.58,53.63L125.59,53.62Z" style="fill:rgb(137,76,116);fill-rule:nonzero;"/>
    <path d="M127.39,61.65C129.39,57.34 131.38,53.03 133.38,48.71C133.99,48.05 134.61,47.38 135.22,46.72C135.61,46.75 136,46.79 136.39,46.82C136.39,47.13 136.4,47.45 136.41,47.76C134.1,53.7 131.8,59.64 129.49,65.58C128.79,64.27 128.09,62.96 127.39,61.64L127.39,61.65Z" style="fill:rgb(122,68,103);fill-rule:nonzero;"/>
    <path d="M129.49,65.58C131.8,59.64 134.1,53.7 136.41,47.76C136.98,48.85 138.26,50.16 138,50.99C136.12,57.06 133.95,63.04 131.81,69.02C131.7,69.31 130.95,69.37 130.5,69.54C130.17,68.22 129.83,66.89 129.5,65.57L129.49,65.58Z" style="fill:rgb(137,76,116);fill-rule:nonzero;"/>
    <path d="M104.59,102.58C102.59,107.48 100.59,112.39 98.6,117.29C98.73,114.53 98.85,111.78 98.98,109.02L97.72,108.91C96.72,116.83 86.76,118.25 85.59,126.05C85.56,126.25 85.07,126.42 84.77,126.54C78.43,129.08 72.09,131.6 65.75,134.13C65.56,133.7 65.38,133.28 65.19,132.85C65.01,133.28 64.84,133.71 64.66,134.14C62.81,134 60.44,133.06 59.2,133.86C55.36,136.34 52.28,134.17 48.95,133.08C49.84,132.68 50.72,132.29 51.61,131.89C51.12,131.39 50.64,130.9 50.15,130.4C49.73,131.28 49.32,132.17 48.9,133.05C42.51,134.02 37.36,130.84 33.01,127.11C29.98,124.5 27.94,123.72 24.94,126.31C24.21,125.06 23.47,123.8 22.74,122.55C23.2,120.92 23.65,119.29 24.25,117.17C26.47,118.34 28.9,119.58 31.29,120.88C35.23,123.02 37.68,122.35 38.31,119.13C37.05,119.39 35.72,119.67 34.38,119.95C34.34,118.89 34.33,117.83 34.24,116.78C34.2,116.35 34.07,115.89 33.85,115.53C32.67,113.58 31.44,111.65 29.93,109.22C29.43,111.14 28.8,113.52 28.18,115.9C27.88,115.93 27.58,115.96 27.28,115.98C25.75,109.42 24.22,102.87 22.69,96.31L22.79,96.33C23.2,96.25 23.61,96.17 24.02,96.09C23.61,95.87 23.2,95.66 22.79,95.44C25.2,87.68 31.2,82.69 36.77,77.37L36.77,82.34C36.77,83.76 36.76,85.19 36.75,86.61C36.8,87.2 36.84,87.79 36.89,88.38C36.87,88.75 36.85,89.13 36.83,89.5C36.23,90.76 35.62,92.02 35.02,93.28C32.23,92.49 29.17,91.08 27.67,95.02C26.84,97.21 25.17,99.94 28.97,101.32L28.89,101.34C29.45,101.68 30.01,102.01 30.56,102.35C34.41,103.64 32.14,100.31 32.89,99.26L32.86,98.86C33.53,98.05 34.19,97.24 34.86,96.42L34.84,96.44C35.58,96.09 36.33,95.74 37.07,95.4C38.3,95.73 39.53,96.06 40.76,96.4C41.43,96.4 42.1,96.41 42.77,96.42C43.09,96.67 43.4,96.93 43.72,97.18C43.75,95.91 43.77,94.65 43.8,93.38C45.45,92.4 47.11,91.42 48.76,90.44C54.04,90 59.44,91.42 64.61,88.82C66.67,87.78 69.31,87.9 71.68,87.5C72.89,89.61 74.53,91.59 75.22,93.86C76.32,97.53 78.04,98.31 81.76,95.96C80.99,98.29 79.83,99.73 78.97,101.35C78.32,102.56 78.08,103.98 77.65,105.31C76.61,105.4 75.57,105.49 74.58,105.58C77.4,110.47 82.06,110.57 86.71,111.64C91.43,112.73 91.53,109.76 92.63,107.23C93.99,104.09 92.74,102.2 89.58,101.34C89.96,100.43 90.27,99.48 90.73,98.61C93.56,93.24 91.76,89.03 85.97,87.64C85.82,87.6 85.56,88 84.71,88.8C85.92,89.43 87.09,90.04 88.49,90.77C85.9,91.76 84.11,92.45 83.28,92.77C81.34,91.34 79.75,90.38 78.48,89.1C78.09,88.71 78.55,87.46 78.62,86.6C79.27,86.88 79.92,87.16 80.57,87.45C81.14,87.88 81.71,88.32 82.6,88.99L82.6,86.45C83.89,86.11 85.17,85.78 86.46,85.44L87.6,84.58C88.58,84.23 89.57,83.88 90.55,83.53C91.22,83.88 91.89,84.23 92.56,84.57C92.89,85.31 93.23,86.05 93.56,86.79C95.28,90.34 97,93.89 98.62,97.26C100.35,94.75 101.63,93.04 102.7,91.22C102.97,90.76 102.56,89.91 102.47,89.24C104.3,87.23 106.12,85.22 108.53,82.57L108.53,85.49C108.41,86.53 108.29,87.57 108.17,88.61C107.98,89.29 107.78,89.98 107.59,90.67C107.51,91.27 107.43,91.88 107.34,92.48C106.51,92.66 105.69,92.85 104.46,93.12C105.38,94.19 105.97,94.86 106.55,95.54C106.32,96.22 106.09,96.91 105.85,97.59C101.3,98.23 105.81,101.14 104.59,102.61L104.59,102.58ZM36.82,107.57C35.49,107.54 34.16,107.51 32.83,107.48C34.1,110.17 35.43,110.25 36.82,107.57ZM75.74,118.26C77.09,118.44 78.43,118.62 79.78,118.8C79.8,118.31 79.81,117.82 79.83,117.34L75.68,117.34C74.14,117.36 72.48,117.05 71.1,117.53C70.4,117.77 70.2,119.44 69.83,120.32C72.22,119.49 73.98,118.88 75.74,118.27L75.74,118.26ZM63.61,99.32C63.3,102.32 62.99,105.32 62.68,108.32C63.36,109.28 64.05,110.23 64.84,111.34C67.57,107.08 67.47,106.69 63.77,105.38C65.54,104.49 67.3,103.61 69.07,102.72C68.24,101.57 66.91,101.65 65.74,101.26C64.97,101.01 64.42,100.08 63.77,99.46C64.42,98.1 65.08,96.75 65.73,95.39C65.27,95.25 64.8,95.12 64.34,94.98C64.1,96.43 63.86,97.87 63.61,99.32ZM95.95,101.23C96.48,101 97.02,100.78 97.55,100.55C97.12,99.71 96.69,98.88 96.26,98.04C95.86,98.25 95.1,98.53 95.12,98.65C95.31,99.53 95.65,100.37 95.95,101.23ZM67.09,113.13C66.77,113.5 66.45,113.87 66.14,114.24C67.05,114.86 67.96,115.48 68.87,116.11L69.58,115.11C68.75,114.45 67.92,113.79 67.1,113.14L67.09,113.13ZM62.74,132C62.68,131.75 62.61,131.5 62.55,131.24C61.59,131.32 60.64,131.4 59.68,131.48C59.68,131.65 59.7,131.82 59.71,131.99L62.74,131.99L62.74,132ZM71.88,114.81L72.46,114.37C72.1,113.89 71.73,113.41 71.37,112.93C71.18,113.08 70.98,113.22 70.79,113.37C71.16,113.85 71.52,114.33 71.89,114.81L71.88,114.81ZM102.06,99.23C101.81,98.97 101.56,98.7 101.31,98.44C100.91,98.89 100.51,99.35 100.11,99.8C100.28,99.97 100.46,100.14 100.63,100.31C101.11,99.95 101.58,99.59 102.06,99.23ZM57.96,111.05L57.96,110.65L56.47,110.65L56.47,111.05L57.96,111.05ZM52.19,114.78C52.03,114.51 51.92,114.16 51.69,114.01C51.55,113.92 51.21,114.15 50.96,114.24C51.09,114.51 51.15,114.92 51.36,115.02C51.55,115.11 51.9,114.88 52.2,114.78L52.19,114.78Z" style="fill:rgb(235,107,73);fill-rule:nonzero;"/>
    <path d="M36.76,82.34L36.76,77.37C37.51,76.44 38.25,75.5 39,74.57C41.25,72.56 43.5,70.54 45.75,68.53C50.01,65.84 54.28,63.14 58.54,60.45C64.16,57.63 69.78,54.82 75.41,52C76.12,51.88 76.83,51.77 77.53,51.65C78.5,51.74 79.47,51.82 80.44,51.91C80.48,52.13 80.53,52.34 80.59,52.55C79.93,53.27 79.27,53.98 78.61,54.7L78.4,54.87C78.15,55.47 77.9,56.06 77.65,56.66C76.7,57.95 75.74,59.23 74.83,60.46C75.94,62.17 76.93,63.68 77.81,65.03C80.38,63.71 83.05,62.34 86.09,60.78C86.14,60.44 86.33,59.18 86.34,59.12C88.78,58.9 90.17,58.78 91.57,58.65C91.82,59.09 92.06,59.54 92.31,59.98C92.5,59.79 92.7,59.59 92.89,59.4C92.45,59.15 92,58.91 91.56,58.66L91.56,55.7C91.91,55.66 92.26,55.63 92.61,55.59C93.46,56.05 94.26,56.71 95.17,56.94C101.6,58.54 106.72,66.02 104.64,72.07C103.47,75.46 100.62,78.28 98.53,81.35C95.87,82.07 93.2,82.8 90.54,83.52C89.56,83.87 88.57,84.22 87.59,84.57C87.21,84.86 86.83,85.14 86.45,85.43C85.16,85.77 83.88,86.1 82.59,86.44C81.91,86.77 81.24,87.1 80.56,87.43C79.91,87.15 79.26,86.87 78.61,86.58C76.27,86.68 73.45,83.18 71.68,87.51C69.31,87.92 66.67,87.8 64.61,88.83C59.44,91.43 54.04,90 48.76,90.45L48.74,90.43C46.77,89.13 44.8,87.83 42.68,86.44L42.68,89.68C42.12,89.64 41.55,89.6 40.99,89.55C40.26,89.51 39.53,89.47 38.8,89.42L36.89,88.39C36.84,87.8 36.8,87.21 36.75,86.62C37.13,86.23 37.5,85.85 37.88,85.46C38.89,85.4 39.91,85.35 42.41,85.21C40.01,84.28 39.01,83.9 38.01,83.51C37.6,83.12 37.19,82.73 36.78,82.35L36.76,82.34ZM90.57,80.52C90.06,80.91 89.55,81.29 89.04,81.68C89.15,81.79 89.25,81.9 89.36,82C89.77,81.51 90.17,81.02 90.58,80.52C90.69,80.46 90.82,80.43 90.91,80.35C90.96,80.3 90.96,80.18 90.98,80.1L90.57,80.52ZM57.67,67.75C55.45,68.95 53.29,70.12 51.12,71.29C51.31,71.69 51.49,72.08 51.68,72.48C53.8,71.95 55.92,71.42 57.99,70.91C60.91,77.07 62.39,80.76 69.09,75.38C61.03,78.83 61.45,70.61 57.67,67.75ZM83.47,73.55C88.62,72.44 93.4,71.41 98.18,70.38L97.69,68.57C96.39,69.03 95.12,69.7 93.78,69.91C91.12,70.33 88.38,70.31 85.74,70.82C84.3,71.1 81.97,71.97 81.84,72.84C81.48,75.3 82.2,77.75 86.05,77.4C85.09,75.97 84.35,74.87 83.47,73.55ZM96.02,76.16L95.14,76.16L95.14,78.94L96.02,78.94L96.02,76.16ZM49.93,82.06C49.66,81.92 49.42,81.75 49.16,81.67C49.04,81.63 48.87,81.76 48.72,81.81C48.83,82 48.95,82.34 49.06,82.34C49.35,82.34 49.63,82.17 49.93,82.06Z" style="fill:rgb(239,144,119);fill-rule:nonzero;"/>
    <path d="M48.94,133.08C52.27,134.17 55.35,136.34 59.19,133.87C60.43,133.07 62.8,134.01 64.65,134.15C65.01,134.15 65.37,134.15 65.73,134.14C72.07,131.61 78.41,129.09 84.75,126.55C85.05,126.43 85.54,126.26 85.57,126.06C86.75,118.25 96.7,116.83 97.7,108.92L98.96,109.03C98.83,111.79 98.71,114.54 98.58,117.3C93.99,128.84 84.7,135.37 73.89,140.2C71.22,141.39 68.36,142.14 65.59,143.1C58.63,142.41 51.68,141.72 44.72,141.04C36.94,137.73 30.24,132.95 24.93,126.33C27.93,123.74 29.96,124.52 33,127.13C37.35,130.86 42.5,134.04 48.89,133.07L48.93,133.1L48.94,133.08Z" style="fill:rgb(171,72,57);fill-rule:nonzero;"/>
    <path d="M98.52,81.34C100.61,78.26 103.46,75.45 104.63,72.06C106.71,66.02 101.6,58.54 95.16,56.93C94.25,56.7 93.45,56.04 92.6,55.58C92.86,54.46 93.12,53.34 93.38,52.23C92.1,53.02 90.83,53.81 89.55,54.6C88.56,54.6 87.58,54.59 86.59,54.58C86.26,52.05 85.93,49.51 85.6,46.98C89.52,46.42 93.64,44.85 97.31,45.58C100.95,46.3 104.14,49.32 107.53,51.34C107.41,54.93 107.24,58.51 107.18,62.1C107.1,66.66 107.23,71.23 107.02,75.79C106.92,78.01 106.67,80.4 105.73,82.34C105.25,83.33 102.94,84.17 101.75,83.88C100.69,83.62 97.33,84.87 98.5,81.35L98.52,81.34Z" style="fill:rgb(235,107,73);fill-rule:nonzero;"/>
    <path d="M22.68,96.3C24.21,102.86 25.74,109.41 27.27,115.97C27.57,115.94 27.87,115.91 28.17,115.89C28.79,113.51 29.42,111.13 29.92,109.21C31.44,111.64 32.66,113.57 33.84,115.52C34.06,115.88 34.19,116.34 34.23,116.77C34.32,117.82 34.33,118.88 34.37,119.94C35.71,119.66 37.04,119.38 38.3,119.12C37.67,122.34 35.22,123.01 31.28,120.87C28.88,119.57 26.46,118.33 24.24,117.16C23.65,119.28 23.19,120.91 22.73,122.54C21.11,119.82 18.54,117.25 18.11,114.35C17.5,110.2 18.46,105.82 18.75,101.54C20.06,99.79 21.36,98.04 22.67,96.29L22.68,96.3Z" style="fill:rgb(233,113,77);fill-rule:nonzero;"/>
    <path d="M98.52,81.34C97.35,84.87 100.71,83.61 101.77,83.87C102.96,84.16 105.27,83.32 105.75,82.33C106.69,80.38 106.95,78 107.04,75.78C107.24,71.22 107.12,66.66 107.2,62.09C107.26,58.5 107.43,54.92 107.55,51.33C108.26,52.78 109.61,54.24 109.58,55.67C109.39,65.6 108.9,75.52 108.51,85.44L108.51,82.52C106.1,85.17 104.28,87.18 102.45,89.19C100.14,87.63 97.83,86.06 95.52,84.5C94.53,84.51 93.53,84.52 92.54,84.53C91.87,84.18 91.2,83.83 90.53,83.49C93.19,82.77 95.86,82.04 98.52,81.32L98.52,81.34Z" style="fill:rgb(209,92,59);fill-rule:nonzero;"/>
    <path d="M75.42,52C69.8,54.82 64.18,57.63 58.55,60.45C56.47,60.1 54.38,59.75 52.3,59.41C58.8,53.69 66.65,51.23 75.03,50.08C75.07,50.08 75.28,51.33 75.42,52Z" style="fill:rgb(233,113,77);fill-rule:nonzero;"/>
    <path d="M45.76,68.52C43.51,70.53 41.26,72.55 39.01,74.56C37.67,74.96 36.26,75.21 35.01,75.8C33.47,76.53 32.06,77.53 30.6,78.42C36.07,72.82 41.52,67.2 47.06,61.67C47.47,61.26 48.52,61.48 49.28,61.4C48.11,63.77 46.94,66.14 45.76,68.52Z" style="fill:rgb(233,113,77);fill-rule:nonzero;"/>
    <path d="M30.6,78.43C32.06,77.54 33.47,76.54 35.01,75.81C36.26,75.22 37.67,74.97 39.01,74.57C38.26,75.5 37.52,76.44 36.77,77.37C31.19,82.68 25.19,87.67 22.79,95.43C22.72,95.72 22.72,96.02 22.79,96.31L22.69,96.29C21.38,98.04 20.08,99.79 18.77,101.54C18.52,101 17.9,100.26 18.07,99.96C22.2,92.75 26.41,85.59 30.61,78.42L30.6,78.43Z" style="fill:rgb(171,72,57);fill-rule:nonzero;"/>
    <path d="M44.74,141.02C51.7,141.71 58.65,142.4 65.61,143.08C65.07,143.76 64.6,144.96 63.98,145.05C57.11,146.01 50.44,145.76 44.74,141.02Z" style="fill:rgb(233,113,77);fill-rule:nonzero;"/>
    <path d="M45.76,68.52C46.93,66.15 48.11,63.77 49.28,61.4C50.28,60.74 51.28,60.07 52.3,59.4C54.39,59.75 56.47,60.1 58.55,60.44C54.29,63.13 50.02,65.82 45.76,68.52Z" style="fill:rgb(171,72,57);fill-rule:nonzero;"/>
    <path d="M85.62,46.99C85.95,49.52 86.28,52.06 86.61,54.59C84.67,54.59 82.74,54.61 80.8,54.61C80.74,53.92 80.67,53.23 80.61,52.54C80.55,52.33 80.5,52.11 80.46,51.9C80.84,51.46 81.22,51.01 81.6,50.57L81.5,50.63C81.97,50.55 82.44,50.48 82.92,50.4L81.79,49.8C83.07,48.86 84.35,47.92 85.63,46.98L85.62,46.99Z" style="fill:rgb(233,113,77);fill-rule:nonzero;"/>
    <path d="M106.55,95.5C105.96,94.82 105.38,94.15 104.46,93.08C105.69,92.81 106.51,92.62 107.34,92.44C107.08,93.46 106.82,94.48 106.56,95.5L106.55,95.5Z" style="fill:rgb(233,113,77);fill-rule:nonzero;"/>
    <path d="M104.59,102.58C105.81,101.11 101.3,98.2 105.85,97.56C105.43,99.23 105.01,100.91 104.59,102.58Z" style="fill:rgb(233,113,77);fill-rule:nonzero;"/>
    <path d="M81.59,50.57C81.21,51.01 80.83,51.45 80.45,51.9C79.48,51.82 78.51,51.73 77.54,51.64C78.89,51.28 80.24,50.93 81.59,50.57Z" style="fill:rgb(171,72,57);fill-rule:nonzero;"/>
    <path d="M107.58,90.63C107.77,89.94 107.97,89.26 108.16,88.57C107.97,89.26 107.77,89.94 107.58,90.63Z" style="fill:rgb(233,113,77);fill-rule:nonzero;"/>
    <path d="M81.78,49.8L82.91,50.4C82.44,50.48 81.97,50.55 81.49,50.63C81.56,50.34 81.66,50.07 81.78,49.8Z" style="fill:rgb(171,72,57);fill-rule:nonzero;"/>
    <path d="M194.07,115.31C193.02,116.43 191.82,117.45 190.96,118.7C189.67,120.58 188.59,122.61 187.49,124.61C185.36,128.5 182.55,131.27 177.48,130.43C178.95,136.31 175.27,137.41 171.21,138.17C173.2,128.56 175.19,118.95 177.18,109.34C177.5,108.35 177.83,107.37 178.15,106.38C184.94,100.83 183.69,93.61 181.19,86.39C181.17,85.1 181.15,83.8 181.13,82.51L181.13,82.53C180.84,80.45 180.9,78.22 180.16,76.31C177.98,70.69 175.48,65.2 173.11,59.66C174.15,59.65 175.18,59.64 176.22,59.63C187.77,72.77 195.4,87.69 196.99,105.35C196.03,106.58 194.56,107.69 194.22,109.08C193.74,111.05 194.09,113.23 194.09,115.32L194.07,115.31Z" style="fill:rgb(152,82,125);fill-rule:nonzero;"/>
    <path d="M158.22,49.7C160.9,50.68 163.58,51.67 166.26,52.65C168.55,53.43 171.11,54.05 168.78,57.35C168.73,57.41 169.7,58.19 170.2,58.64C170.2,59.63 170.21,60.62 170.22,61.62C167.22,59.64 164.23,57.65 161.23,55.67C160.59,55.34 159.95,55.01 159.32,54.69C158.96,53.03 158.59,51.36 158.23,49.7L158.22,49.7Z" style="fill:rgb(130,65,106);fill-rule:nonzero;"/>
    <path d="M170.19,58.64C169.7,58.2 168.73,57.42 168.77,57.35C171.1,54.05 168.54,53.43 166.25,52.65C165.3,50.63 164.35,48.6 163.3,46.36C167.38,47.5 173.47,53.88 176.21,59.61C175.17,59.62 174.14,59.63 173.1,59.64C172.13,59.3 171.16,58.97 170.19,58.63L170.19,58.64Z" style="fill:rgb(144,71,115);fill-rule:nonzero;"/>
    <path d="M135.22,46.72C134.61,47.38 133.99,48.05 133.38,48.71C132.06,48.37 130.73,48.04 129.41,47.7C130.72,44.74 132.04,41.79 133.35,38.83C135.02,38.81 136.69,38.78 138.36,38.76C137.32,41.41 136.27,44.06 135.23,46.71L135.22,46.72Z" style="fill:rgb(130,65,106);fill-rule:nonzero;"/>
    <path d="M158.22,49.7C158.58,51.36 158.95,53.03 159.31,54.69C158.95,54.7 158.58,54.71 158.22,54.73C156.58,52.05 154.94,49.37 153.31,46.69C152.38,43.35 151.45,40.02 150.52,36.68C150.84,36.53 151.17,36.37 151.49,36.22C153.74,40.72 155.98,45.21 158.23,49.71L158.22,49.7Z" style="fill:rgb(110,50,81);fill-rule:nonzero;"/>
    <path d="M194.08,115.3C194.08,113.21 193.73,111.04 194.21,109.06C194.55,107.68 196.01,106.56 196.98,105.33L196.98,121.29C196.52,121.29 196.05,121.27 195.59,121.27C195.09,119.28 194.58,117.29 194.08,115.3Z" style="fill:rgb(144,71,115);fill-rule:nonzero;"/>
    <path d="M201.01,87.51C201.36,88.16 201.71,88.81 202.05,89.46C202.7,92.45 203.36,95.44 204.01,98.42C204.01,100.39 204.01,102.36 204,104.32C203.46,104.02 202.52,103.8 202.45,103.41C201.25,97.44 200.17,91.45 199.06,85.46C199.71,86.14 200.36,86.82 201.01,87.5L201.01,87.51Z" style="fill:rgb(95,37,67);fill-rule:nonzero;"/>
    <path d="M135.22,46.72C136.26,44.07 137.31,41.42 138.35,38.77C138.93,37.91 139.52,37.05 140.5,35.58C140.86,36.98 141.08,37.87 141.31,38.76C139.66,41.45 138.02,44.13 136.37,46.82C135.98,46.79 135.59,46.75 135.2,46.72L135.22,46.72Z" style="fill:rgb(110,50,81);fill-rule:nonzero;"/>
    <path d="M197.04,78.57C197.37,78.9 197.7,79.23 198.02,79.56C198.34,80.56 198.67,81.56 198.99,82.55C199.02,83.53 199.05,84.52 199.07,85.5C198.07,83.17 197.06,80.84 196.06,78.51C196.38,78.53 196.71,78.55 197.03,78.57L197.04,78.57Z" style="fill:rgb(95,37,67);fill-rule:nonzero;"/>
    <path d="M195.05,74.58C195.07,75.24 195.08,75.9 195.1,76.56C194.43,75.51 193.75,74.47 193.07,73.42C193.73,73.81 194.39,74.19 195.05,74.58Z" style="fill:rgb(95,37,67);fill-rule:nonzero;"/>
    <path d="M195.07,76.52C195.39,76.54 195.72,76.56 196.04,76.57C196.06,77.23 196.07,77.89 196.09,78.54C195.75,77.87 195.41,77.19 195.07,76.51L195.07,76.52Z" style="fill:rgb(95,37,67);fill-rule:nonzero;"/>
    <path d="M177.18,109.33C175.19,118.94 173.2,128.55 171.21,138.16C171.21,139.16 171.2,140.16 171.19,141.16C170.54,141.5 169.88,141.83 169.23,142.17C167.9,142.16 166.57,142.15 165.24,142.14C165.24,141.48 165.23,140.82 165.22,140.15L165.2,140.18C166.38,138.12 168.17,136.18 168.63,133.97C170.07,127.16 171.01,120.24 172.15,113.36C172.16,112.68 172.18,112 172.19,111.32L177.17,109.33L177.18,109.33Z" style="fill:rgb(130,65,106);fill-rule:nonzero;"/>
    <path d="M171.19,141.16C171.62,141.28 172.05,141.4 172.48,141.52C172.05,141.4 171.62,141.28 171.19,141.16Z" style="fill:rgb(130,65,106);fill-rule:nonzero;"/>
    <path d="M165.23,140.15C165.23,140.81 165.24,141.48 165.25,142.14C164.38,143.82 163.51,145.5 162.64,147.17C162.18,146.84 161.71,146.5 161.25,146.17C162.58,144.16 163.91,142.16 165.24,140.15L165.23,140.15Z" style="fill:rgb(110,50,81);fill-rule:nonzero;"/>
    <path d="M172.2,111.32C172.19,112 172.17,112.68 172.16,113.36C171.52,113.36 170.89,113.38 170.25,113.38C170.23,108.43 170.28,103.48 170.11,98.53C170.08,97.61 169.15,96.72 168.03,94.75C165.37,84.27 162.34,72.38 159.35,60.48C158.87,58.58 158.59,56.63 158.22,54.71C158.58,54.7 158.95,54.69 159.31,54.67C159.95,55 160.59,55.33 161.23,55.65C163.55,63.36 166.55,70.93 168.02,78.8C170.03,89.52 170.87,100.46 172.21,111.31L172.2,111.32Z" style="fill:rgb(122,68,103);fill-rule:nonzero;"/>
    <path d="M170.26,113.38C170.9,113.38 171.53,113.36 172.17,113.36C171.03,120.24 170.09,127.16 168.65,133.97C168.18,136.18 166.4,138.12 165.22,140.18C165.2,139.82 165.18,139.47 165.16,139.11C165.53,137.15 165.9,135.19 166.27,133.22L166.27,133.23C166.6,131.9 166.94,130.58 167.28,129.25L167.3,129.25C168.3,123.96 169.29,118.67 170.28,113.37L170.26,113.38Z" style="fill:rgb(110,50,81);fill-rule:nonzero;"/>
    <path d="M166.26,133.22C165.89,135.18 165.52,137.14 165.15,139.11C165.52,137.15 165.89,135.19 166.26,133.22Z" style="fill:rgb(137,76,116);fill-rule:nonzero;"/>
    <path d="M167.25,129.25C166.91,130.58 166.58,131.9 166.24,133.23C166.58,131.9 166.91,130.58 167.25,129.25Z" style="fill:rgb(137,76,116);fill-rule:nonzero;"/>
    <path d="M156.01,138.21C155.92,138.32 155.83,138.43 155.74,138.55C155.67,138.42 155.55,138.29 155.56,138.16C155.57,138.04 155.72,137.93 155.81,137.82C155.88,137.95 155.94,138.08 156.01,138.21Z" style="fill:rgb(152,82,125);fill-rule:nonzero;"/>
    <path d="M71.67,87.5C73.44,83.18 76.26,86.67 78.6,86.57C78.53,87.43 78.06,88.68 78.46,89.07C79.74,90.35 81.33,91.31 83.26,92.74C84.09,92.42 85.87,91.74 88.47,90.74C87.07,90.01 85.9,89.4 84.69,88.77C85.54,87.97 85.8,87.57 85.95,87.61C91.74,89 93.54,93.21 90.71,98.58C90.25,99.45 89.94,100.4 89.56,101.31C88.86,101.07 88.16,100.83 87.46,100.59C87.5,101.56 88.11,101.84 88.3,102.3C89.04,104.03 89.64,105.82 90.3,107.59C88.63,107.85 86.84,108.62 85.32,108.26C82.67,107.64 80.18,106.32 77.63,105.3C78.06,103.97 78.3,102.55 78.95,101.34C79.81,99.73 80.98,98.28 81.74,95.95C78.02,98.3 76.3,97.53 75.2,93.85C74.52,91.58 72.88,89.6 71.66,87.49L71.67,87.5ZM89.06,95.16C88.81,94.62 88.56,94.08 88.31,93.54C86.8,94.4 85.3,95.27 83.79,96.13L84.71,97.77C86.16,96.9 87.6,96.03 89.05,95.16L89.06,95.16Z" style="fill:rgb(233,113,77);fill-rule:nonzero;"/>
    <path d="M77.64,105.3C80.19,106.33 82.68,107.64 85.33,108.26C86.85,108.62 88.64,107.85 90.31,107.59C89.65,105.82 89.05,104.03 88.31,102.3C88.11,101.84 87.51,101.56 87.47,100.59C88.17,100.83 88.87,101.07 89.57,101.31C92.73,102.17 93.98,104.07 92.62,107.2C91.52,109.73 91.43,112.7 86.7,111.61C82.05,110.54 77.39,110.45 74.57,105.55C75.55,105.46 76.6,105.37 77.64,105.28L77.64,105.3Z" style="fill:rgb(209,92,59);fill-rule:nonzero;"/>
    <path d="M95.52,84.52C97.83,86.08 100.14,87.65 102.45,89.21C102.55,89.88 102.95,90.73 102.68,91.19C101.61,93.02 100.33,94.72 98.6,97.23C96.97,93.86 95.25,90.31 93.54,86.76C94.2,86.01 94.86,85.26 95.52,84.51L95.52,84.52Z" style="fill:rgb(233,113,77);fill-rule:nonzero;"/>
    <path d="M28.96,101.33C25.15,99.94 26.82,97.22 27.65,95.03C29.15,91.08 32.21,92.5 35,93.29C35.62,92.36 36.25,91.44 36.87,90.51C37.43,90.51 38,90.53 38.56,90.54C39.31,91.89 40.05,93.23 40.8,94.58C40.78,95.19 40.77,95.8 40.75,96.41C39.52,96.08 38.29,95.75 37.05,95.41C36.34,95.13 35.63,94.86 34.93,94.58C33.43,94.34 31.92,94.1 30.21,93.83C29.75,95.53 29.34,97.02 28.93,98.51C28.93,99.45 28.95,100.39 28.95,101.33L28.96,101.33Z" style="fill:rgb(209,92,59);fill-rule:nonzero;"/>
    <path d="M62.68,108.32C62.99,105.32 63.3,102.32 63.61,99.32L63.78,99.46C64.43,100.08 64.98,101.01 65.75,101.26C66.93,101.64 68.25,101.56 69.08,102.72C67.31,103.61 65.55,104.49 63.78,105.38C63.42,106.36 63.05,107.34 62.69,108.32L62.68,108.32Z" style="fill:rgb(209,92,59);fill-rule:nonzero;"/>
    <path d="M62.68,108.32C63.04,107.34 63.41,106.36 63.77,105.38C67.47,106.69 67.57,107.09 64.84,111.34C64.05,110.23 63.36,109.28 62.68,108.32Z" style="fill:rgb(233,113,77);fill-rule:nonzero;"/>
    <path d="M28.94,98.51C29.35,97.02 29.75,95.53 30.22,93.83C31.93,94.1 33.44,94.34 34.94,94.58C34.9,95.2 34.87,95.83 34.83,96.45L34.85,96.43C33.97,96.26 33.1,96.09 32.22,95.92C32.43,96.9 32.64,97.88 32.85,98.86L32.88,99.26C31.56,99.01 30.25,98.76 28.93,98.5L28.94,98.51Z" style="fill:rgb(233,113,77);fill-rule:nonzero;"/>
    <path d="M75.74,118.26C73.98,118.87 72.21,119.48 69.83,120.31C70.2,119.43 70.4,117.76 71.1,117.52C72.48,117.04 74.14,117.35 75.68,117.33C75.68,117.64 75.7,117.95 75.74,118.25L75.74,118.26Z" style="fill:rgb(233,113,77);fill-rule:nonzero;"/>
    <path d="M28.94,98.51C30.26,98.76 31.57,99.02 32.89,99.27C32.14,100.32 34.41,103.64 30.56,102.36C30,102.02 29.44,101.69 28.88,101.35L28.96,101.33C28.96,100.39 28.94,99.45 28.94,98.51Z" style="fill:rgb(245,165,104);fill-rule:nonzero;"/>
    <path d="M36.76,82.34C37.17,82.73 37.58,83.12 37.99,83.5C37.95,84.15 37.91,84.8 37.87,85.45C37.49,85.84 37.12,86.22 36.74,86.61C36.74,85.19 36.75,83.76 36.76,82.34Z" style="fill:rgb(237,194,166);fill-rule:nonzero;"/>
    <path d="M40.75,96.4C40.77,95.79 40.78,95.18 40.8,94.57C40.86,92.89 40.92,91.22 40.98,89.55C41.54,89.59 42.11,89.63 42.67,89.68C42.75,89.93 42.8,90.19 42.82,90.45C42.49,91.12 42.15,91.79 41.82,92.46C42.13,93.78 42.45,95.11 42.76,96.43C42.09,96.43 41.42,96.42 40.75,96.41L40.75,96.4Z" style="fill:rgb(233,113,77);fill-rule:nonzero;"/>
    <path d="M95.94,101.23C95.64,100.38 95.3,99.53 95.11,98.65C95.08,98.53 95.85,98.25 96.25,98.04C96.68,98.88 97.11,99.71 97.54,100.55C97.01,100.78 96.47,101 95.94,101.23Z" style="fill:rgb(233,113,77);fill-rule:nonzero;"/>
    <path d="M48.76,90.44C47.11,91.42 45.45,92.4 43.8,93.38C43.74,93.1 43.69,92.82 43.66,92.54C44.04,92.17 44.42,91.8 44.8,91.42C45.85,91.1 46.9,90.79 47.94,90.47C48.21,90.47 48.48,90.45 48.75,90.41L48.77,90.43L48.76,90.44Z" style="fill:rgb(245,165,104);fill-rule:nonzero;"/>
    <path d="M48.9,133.05C49.32,132.17 49.73,131.28 50.15,130.4C50.64,130.9 51.12,131.39 51.61,131.89C50.72,132.29 49.83,132.69 48.95,133.08L48.91,133.05L48.9,133.05Z" style="fill:rgb(245,165,104);fill-rule:nonzero;"/>
    <path d="M36.82,107.57C35.43,110.25 34.1,110.17 32.83,107.48C34.16,107.51 35.49,107.54 36.82,107.57Z" style="fill:rgb(245,165,104);fill-rule:nonzero;"/>
    <path d="M43.65,92.55C43.68,92.83 43.73,93.11 43.8,93.39C43.77,94.66 43.74,95.92 43.72,97.19C43.4,96.94 43.09,96.68 42.77,96.43C42.46,95.11 42.14,93.78 41.83,92.46C42.44,92.49 43.05,92.53 43.66,92.56L43.65,92.55Z" style="fill:rgb(209,92,59);fill-rule:nonzero;"/>
    <path d="M32.86,98.86C32.65,97.88 32.44,96.9 32.23,95.92C33.11,96.09 33.98,96.26 34.86,96.43C34.19,97.24 33.53,98.05 32.86,98.87L32.86,98.86Z" style="fill:rgb(245,165,104);fill-rule:nonzero;"/>
    <path d="M75.74,118.26C75.7,117.95 75.68,117.64 75.68,117.34L79.83,117.34C79.81,117.83 79.8,118.32 79.78,118.8C78.43,118.62 77.09,118.44 75.74,118.26Z" style="fill:rgb(209,92,59);fill-rule:nonzero;"/>
    <path d="M67.09,113.13C67.92,113.79 68.75,114.45 69.57,115.1L68.86,116.1C67.95,115.48 67.04,114.86 66.13,114.23C66.45,113.86 66.77,113.49 67.08,113.12L67.09,113.13Z" style="fill:rgb(233,113,77);fill-rule:nonzero;"/>
    <path d="M63.61,99.32C63.85,97.87 64.09,96.43 64.34,94.98C64.8,95.12 65.27,95.25 65.73,95.39C65.08,96.75 64.42,98.1 63.77,99.46L63.61,99.32Z" style="fill:rgb(209,92,59);fill-rule:nonzero;"/>
    <path d="M36.87,90.5C36.25,91.43 35.62,92.35 35,93.28C35.61,92.02 36.21,90.76 36.82,89.5C36.84,89.83 36.86,90.17 36.87,90.5Z" style="fill:rgb(245,165,104);fill-rule:nonzero;"/>
    <path d="M62.74,132L59.71,132C59.71,131.83 59.69,131.66 59.68,131.49C60.64,131.41 61.59,131.33 62.55,131.25C62.61,131.5 62.68,131.75 62.74,132.01L62.74,132Z" style="fill:rgb(233,113,77);fill-rule:nonzero;"/>
    <path d="M95.52,84.52C94.86,85.27 94.2,86.02 93.54,86.77C93.21,86.03 92.87,85.29 92.54,84.56C93.53,84.56 94.53,84.54 95.52,84.53L95.52,84.52Z" style="fill:rgb(245,165,104);fill-rule:nonzero;"/>
    <path d="M36.82,107.57C35.49,107.54 34.16,107.51 32.83,107.48C34.16,107.51 35.49,107.54 36.82,107.57Z" style="fill:rgb(209,92,59);fill-rule:nonzero;"/>
    <path d="M71.88,114.81C71.51,114.33 71.15,113.85 70.78,113.37C70.97,113.22 71.17,113.08 71.36,112.93C71.72,113.41 72.09,113.89 72.45,114.37L71.87,114.81L71.88,114.81Z" style="fill:rgb(233,113,77);fill-rule:nonzero;"/>
    <path d="M102.06,99.23C101.58,99.59 101.11,99.95 100.63,100.31C100.46,100.14 100.28,99.97 100.11,99.8C100.51,99.35 100.91,98.89 101.31,98.44C101.56,98.7 101.81,98.97 102.06,99.23Z" style="fill:rgb(233,113,77);fill-rule:nonzero;"/>
    <path d="M36.87,90.5C36.85,90.17 36.83,89.83 36.82,89.5C36.84,89.13 36.86,88.75 36.88,88.38C37.52,88.72 38.16,89.07 38.79,89.41C38.71,89.78 38.64,90.15 38.56,90.53C38,90.53 37.43,90.51 36.87,90.5Z" style="fill:rgb(233,113,77);fill-rule:nonzero;"/>
    <path d="M80.55,87.42C81.23,87.09 81.9,86.76 82.58,86.43L82.58,88.97C81.69,88.29 81.12,87.86 80.55,87.43L80.55,87.42Z" style="fill:rgb(233,113,77);fill-rule:nonzero;"/>
    <path d="M34.83,96.44C34.87,95.82 34.9,95.19 34.94,94.57C35.65,94.85 36.35,95.12 37.06,95.4C36.32,95.75 35.57,96.1 34.83,96.44Z" style="fill:rgb(245,165,104);fill-rule:nonzero;"/>
    <rect x="56.47" y="110.65" width="1.49" height="0.4" style="fill:rgb(209,92,59);fill-rule:nonzero;"/>
    <path d="M52.18,114.78C51.88,114.88 51.53,115.11 51.34,115.02C51.13,114.92 51.07,114.51 50.94,114.24C51.19,114.15 51.53,113.93 51.67,114.01C51.9,114.16 52.01,114.51 52.17,114.78L52.18,114.78Z" style="fill:rgb(245,165,104);fill-rule:nonzero;"/>
    <path d="M65.74,134.13C65.38,134.13 65.02,134.13 64.66,134.14C64.83,133.71 65.01,133.28 65.18,132.85C65.37,133.28 65.55,133.7 65.74,134.13Z" style="fill:rgb(209,92,59);fill-rule:nonzero;"/>
    <path d="M22.79,96.32C22.72,96.03 22.73,95.73 22.79,95.44C23.2,95.66 23.61,95.87 24.02,96.09C23.61,96.17 23.2,96.25 22.79,96.33L22.79,96.32Z" style="fill:rgb(233,113,77);fill-rule:nonzero;"/>
    <path d="M28.88,101.34C29.44,101.68 30,102.01 30.56,102.35C30,102.01 29.44,101.68 28.88,101.34Z" style="fill:rgb(209,92,59);fill-rule:nonzero;"/>
    <path d="M86.44,85.42C86.82,85.13 87.2,84.85 87.58,84.56C87.2,84.85 86.82,85.13 86.44,85.42Z" style="fill:rgb(233,113,77);fill-rule:nonzero;"/>
    <path d="M80.79,54.61C82.73,54.61 84.66,54.6 86.6,54.59C87.59,54.59 88.57,54.6 89.56,54.61C90.23,54.97 90.89,55.34 91.56,55.7L91.56,58.66C90.17,58.78 88.77,58.9 86.33,59.12C86.33,59.18 86.13,60.44 86.08,60.78C83.05,62.34 80.38,63.71 77.8,65.03C76.92,63.67 75.93,62.17 74.82,60.46C75.73,59.23 76.69,57.94 77.64,56.66C77.89,56.06 78.14,55.47 78.39,54.87L78.6,54.7C79.32,54.67 80.05,54.65 80.77,54.62L80.79,54.61Z" style="fill:rgb(216,135,111);fill-rule:nonzero;"/>
    <path d="M57.67,67.75C61.45,70.6 61.03,78.83 69.09,75.38C62.39,80.76 60.91,77.07 57.99,70.91C55.93,71.42 53.8,71.95 51.68,72.48C51.49,72.08 51.31,71.69 51.12,71.29C53.29,70.12 55.45,68.95 57.67,67.75Z" style="fill:rgb(216,135,111);fill-rule:nonzero;"/>
    <path d="M83.47,73.55C84.35,74.87 85.09,75.97 86.05,77.4C82.21,77.75 81.48,75.31 81.84,72.84C81.97,71.97 84.3,71.11 85.74,70.82C88.38,70.3 91.12,70.32 93.78,69.91C95.12,69.7 96.39,69.03 97.69,68.57L98.18,70.38C93.4,71.41 88.62,72.44 83.47,73.55Z" style="fill:rgb(216,135,111);fill-rule:nonzero;"/>
    <path d="M91.56,55.7C90.89,55.34 90.23,54.97 89.56,54.61C90.84,53.82 92.11,53.03 93.39,52.24C93.13,53.36 92.87,54.48 92.61,55.59C92.26,55.63 91.91,55.66 91.56,55.7Z" style="fill:rgb(233,113,77);fill-rule:nonzero;"/>
    <path d="M48.74,90.43C48.47,90.47 48.2,90.49 47.93,90.49L44.79,90.49C44.13,90.47 43.48,90.46 42.82,90.44C42.8,90.18 42.75,89.92 42.67,89.67L42.67,86.44C44.79,87.84 46.76,89.14 48.73,90.43L48.74,90.43Z" style="fill:rgb(216,135,111);fill-rule:nonzero;"/>
    <path d="M38.56,90.53C38.64,90.16 38.71,89.79 38.79,89.41C39.52,89.45 40.25,89.49 40.98,89.54C40.92,91.21 40.86,92.89 40.8,94.56C40.05,93.22 39.31,91.87 38.56,90.53Z" style="fill:rgb(245,165,104);fill-rule:nonzero;"/>
    <rect x="95.14" y="76.16" width="0.88" height="2.78" style="fill:rgb(237,194,166);fill-rule:nonzero;"/>
    <path d="M37.87,85.45C37.91,84.8 37.95,84.15 37.99,83.5C38.99,83.89 40,84.27 42.39,85.2C39.89,85.34 38.88,85.39 37.86,85.45L37.87,85.45Z" style="fill:rgb(216,135,111);fill-rule:nonzero;"/>
    <path d="M80.79,54.61C80.07,54.64 79.34,54.66 78.62,54.69C79.28,53.98 79.94,53.26 80.6,52.54C80.66,53.23 80.73,53.92 80.79,54.61Z" style="fill:rgb(245,165,104);fill-rule:nonzero;"/>
    <path d="M90.58,80.52C90.17,81.01 89.77,81.5 89.36,82C89.25,81.89 89.15,81.78 89.04,81.68C89.55,81.29 90.06,80.91 90.57,80.52L90.58,80.52Z" style="fill:rgb(237,194,166);fill-rule:nonzero;"/>
    <path d="M78.41,54.86C78.16,55.46 77.91,56.05 77.66,56.65C77.91,56.05 78.16,55.46 78.41,54.86Z" style="fill:rgb(237,194,166);fill-rule:nonzero;"/>
    <path d="M49.94,82.06C49.64,82.17 49.36,82.33 49.07,82.34C48.96,82.34 48.84,82 48.73,81.81C48.88,81.76 49.05,81.64 49.17,81.67C49.43,81.75 49.67,81.92 49.94,82.06Z" style="fill:rgb(237,194,166);fill-rule:nonzero;"/>
    <path d="M91.56,58.66C92,58.91 92.45,59.15 92.89,59.4C92.7,59.59 92.5,59.79 92.31,59.98C92.06,59.54 91.82,59.09 91.57,58.65L91.56,58.66Z" style="fill:rgb(216,135,111);fill-rule:nonzero;"/>
    <path d="M90.57,80.52L90.98,80.1C90.96,80.19 90.97,80.3 90.91,80.35C90.82,80.43 90.69,80.47 90.58,80.52L90.57,80.52Z" style="fill:rgb(237,194,166);fill-rule:nonzero;"/>
    <path d="M172.2,111.32C170.86,100.47 170.02,89.53 168.01,78.81C166.54,70.95 163.54,63.37 161.22,55.66C164.22,57.64 167.21,59.63 170.21,61.61C170.88,62.6 171.55,63.59 172.22,64.57C171.98,64.97 171.43,65.5 171.54,65.75C177.24,78.72 177.89,92.51 178.16,106.36C177.84,107.35 177.51,108.33 177.19,109.32C175.53,109.98 173.87,110.65 172.21,111.31L172.2,111.32Z" style="fill:rgb(137,76,116);fill-rule:nonzero;"/>
    <path d="M178.15,106.37C177.88,92.52 177.24,78.73 171.53,65.76C171.42,65.51 171.97,64.98 172.21,64.58C173.51,66.37 175.14,68.02 176.05,70C177.94,74.08 179.46,78.34 181.13,82.53L181.12,82.51C181.14,83.8 181.16,85.1 181.18,86.39C183.69,93.61 184.93,100.82 178.14,106.38L178.15,106.37Z" style="fill:rgb(157,92,133);fill-rule:nonzero;"/>
    <path d="M181.14,82.53C179.47,78.34 177.95,74.09 176.06,70C175.14,68.03 173.52,66.38 172.22,64.58C171.55,63.59 170.88,62.6 170.21,61.62C170.21,60.63 170.2,59.64 170.19,58.64C171.16,58.98 172.13,59.31 173.1,59.65C175.47,65.19 177.97,70.69 180.15,76.3C180.89,78.21 180.83,80.44 181.14,82.52L181.14,82.53Z" style="fill:rgb(122,68,103);fill-rule:nonzero;"/>
    <path d="M181.19,86.39C181.17,85.1 181.15,83.8 181.13,82.51C181.15,83.8 181.17,85.1 181.19,86.39Z" style="fill:rgb(122,68,103);fill-rule:nonzero;"/>
    <path d="M89.06,95.16C87.61,96.03 86.17,96.9 84.72,97.77L83.8,96.13C85.31,95.27 86.81,94.4 88.32,93.54C88.57,94.08 88.82,94.62 89.07,95.16L89.06,95.16Z" style="fill:rgb(235,107,73);fill-rule:nonzero;"/>
    <path d="M42.82,90.43C43.48,90.45 44.13,90.46 44.79,90.48L44.79,91.43C44.41,91.8 44.03,92.17 43.65,92.55C43.04,92.52 42.43,92.48 41.82,92.45C42.15,91.78 42.49,91.11 42.82,90.44L42.82,90.43Z" style="fill:rgb(235,107,73);fill-rule:nonzero;"/>
    <path d="M44.78,91.43L44.78,90.48L47.92,90.48C46.87,90.8 45.83,91.11 44.78,91.43Z" style="fill:rgb(233,113,77);fill-rule:nonzero;"/>
</svg>
