<svg viewBox="0 0 63 63" xmlns="http://www.w3.org/2000/svg"><path d="m42.3877244 31.0612413c0 2.4210453-.1308686 4.7548437-.3598836 6.9795862h-20.2189899c-.2290184-2.2247425-.458035-4.5585409-.458035-6.9795862 0-2.4210437.2290166-4.7548438.458035-6.9795863h20.2189899c.229015 2.2247425.3598836 4.5585426.3598836 6.9795863zm16.565611-6.9795863c.577999 2.2356487.8833546 4.5694472.8833546 6.9795863 0 2.410139-.3053556 4.7439375-.8833546 6.9795862h-13.4247985c.2290183-2.246555.3489806-4.6785032.3489806-6.9795862 0-2.3992328-.1199623-4.7330313-.3489806-6.9795863zm-1.1450883-3.4897931h-12.7268373c-1.0905604-6.9643168-3.2498719-12.80099796-6.0308008-16.52831612 8.5499925 2.25179013 15.485957 8.45162642 18.7576381 16.52831612zm-16.2602555 0h-19.2592948c.6652424-3.969639 1.6903685-7.4834246 2.9445129-10.3221531 1.1450884-2.57481471 2.4210437-4.44294512 3.6533772-5.62074897 1.2214273-1.15948252 2.2356487-1.50606358 3.0317581-1.50606358.7961077 0 1.8103308.34658106 3.0317564 1.50606358 1.2323352 1.17780385 2.5082889 3.04593426 3.6533772 5.62074897 1.2541444 2.8387285 2.2792738 6.3525141 2.944513 10.3221531zm-35.51846038 0c3.26949946-8.0766897 10.20655388-14.27652599 18.75654808-16.52831612-2.7809289 3.72731816-4.9402387 9.56399932-6.0307991 16.52831612zm12.27861858 3.4897931c-.2290167 2.246555-.4471304 4.5803535-.4471304 6.9795863 0 2.301083.2181137 4.7330312.4471304 6.9795862h-13.42861427c-.57417996-2.2356487-.87953719-4.5694472-.87953719-6.9795862 0-2.4101391.30535723-4.7439376.87953719-6.9795863zm6.9250582 27.7656672c-1.2541444-2.8354569-2.2792704-6.3470626-2.9445129-10.3167016h19.2592948c-.6652391 3.969639-1.6903685 7.4812447-2.9445129 10.3167016-1.1450884 2.5846261-2.421042 4.4494849-3.6533772 5.6272921-1.2214256 1.1559913-2.2356487 1.5049719-3.1299062 1.5049719-.6979597 0-1.7121811-.3489806-2.9336084-1.5049719-1.2323335-1.1778072-2.5082888-3.042666-3.6533772-5.6272921zm-.4471287 6.216194c-8.5499942-2.2574612-15.48704862-8.4518427-18.75654808-16.5328956h12.72574898c1.0905604 6.96868 3.2498702 12.8031779 6.0307991 16.5328956zm14.2645281 0c2.7809289-3.7297177 4.9402404-9.5642156 6.0308007-16.5328956h12.7268373c-3.271681 8.0810529-10.2076455 14.2754344-18.757638 16.5328956z"/></svg>