<?xml version="1.0" encoding="UTF-8"?><svg id="Layer_1" xmlns="http://www.w3.org/2000/svg" viewBox="0 0 359.48 180"><defs><style>.cls-1{fill:#fff;}.cls-1,.cls-2{fill-rule:evenodd;}.cls-2{fill:rgba(255,255,255,.5);}</style></defs><g id="ixda-logo"><g id="ixda-campinas-seeklogo.com-copy-2"><polygon id="Fill-9" class="cls-1" points="0 147.19 17.04 147.19 17.04 34.84 0 34.84 0 147.19"/><path id="Fill-10" class="cls-1" d="M188.99,131.1h20.35c9.62,0,16.41-3.31,20.83-9.78,3.79-5.68,4.26-8.84,4.26-29.67s-.47-25.09-5.05-31.24c-5.21-7.11-10.89-9.47-20.04-9.47h-20.35v80.16Zm-17.04-96.25h39.29c14.82,0,26.98,6.63,34.23,18.94,5.52,9.47,5.99,13.73,5.99,37.24,0,25.25-1.26,29.67-6.31,37.56-6.62,10.41-18.3,18.61-35.03,18.61h-38.19V34.84h0Z"/><path id="Fill-11" class="cls-1" d="M327.92,106.95l-16.24-49.08h-.32l-16.26,49.08h32.82Zm4.89,15.15h-42.61l-8.68,25.08h-17.99l40.87-112.34h14.2l40.87,112.34h-17.99l-8.68-25.08h0Z"/><path id="Fill-12" class="cls-2" d="M96.42,57.31c-.97,.97-2.56,.97-3.53,0l-10.12-10.13c-.97-.97-.97-2.56,0-3.53l10.12-10.12c.97-.97,2.56-.97,3.53,0l10.13,10.12c.97,.97,.97,2.56,0,3.53l-10.13,10.13"/><path id="Fill-13" class="cls-1" d="M44.95,62.24c0,.2,0,.41,0,.6v-.6"/><path id="Fill-14" class="cls-1" d="M59.02,147.2c.39,0,.75,0,1.09,0h-1.09"/><path id="Fill-15" class="cls-1" d="M127.58,48.2s.08-.06,.12-.08c-.04,.02-.08,.06-.12,.08"/><path id="Fill-17" class="cls-1" d="M61.09,147.06c-.16,.04-.32,.09-.49,.1,.17-.02,.33-.06,.49-.1"/><path id="Fill-18" class="cls-1" d="M45.01,63.57c0,.06,.02,.11,.03,.16,0-.05-.03-.1-.03-.16"/><path id="Fill-19" class="cls-1" d="M44.95,131.94c0,.34,0,.69,0,1.09v-1.09"/><path id="Fill-20" class="cls-1" d="M127.99,147.02c.26,.09,.53,.15,.82,.17-.29,0-.56-.06-.82-.17"/><path id="Fill-21" class="cls-1" d="M62.16,146.49c-.19,.19-.42,.33-.67,.45,.23-.1,.45-.26,.67-.45"/><path id="Fill-22" class="cls-1" d="M144.36,131.78v1.34c0-.5,.01-.93,0-1.34"/><path id="Fill-23" class="cls-1" d="M130.29,147.2h-1.25c.38,0,.78,0,1.25,0"/><path id="Fill-24" class="cls-2" d="M126.41,144.74v-13.05c0-1.35,1.1-2.45,2.46-2.45h13.04c1.01,0,1.88,.62,2.26,1.5-.12-.29-.28-.57-.57-.86l-30.62-30.62c-.97-.97-.97-2.56,0-3.53l30.38-30.4c.08-.08,.11-.16,.18-.24-.44,.4-1,.65-1.63,.65h-13.05c-1.35,0-2.46-1.11-2.46-2.45v-13.05c0-.65,.26-1.23,.68-1.67-.05,.04-.1,.06-.15,.11l-30.53,30.48c-.97,.97-2.56,.97-3.53,0l-30.54-30.46s-.06-.04-.08-.06c.38,.44,.63,.99,.64,1.61v13.05c0,1.35-1.1,2.45-2.45,2.45h-13.05c-.64,0-1.21-.26-1.65-.66,.02,.02,.03,.04,.05,.06l30.52,30.58c.97,.97,.97,2.56,0,3.53l-30.58,30.59c-.29,.28-.45,.57-.58,.86,.38-.86,1.24-1.46,2.24-1.46h13.04c1.35,0,2.45,1.11,2.46,2.45v13.05c0,.67-.27,1.29-.71,1.73,.04-.04,.09-.05,.13-.09l30.57-30.55c.97-.97,2.56-.97,3.53,0l30.6,30.59c.29,.29,.58,.46,.87,.58-.87-.38-1.48-1.25-1.48-2.25"/><path id="Fill-25" class="cls-1" d="M144.17,130.74c.12,.28,.19,.6,.19,.92-.02-.32-.07-.63-.19-.92"/><path id="Fill-26" class="cls-1" d="M45.11,130.89c-.07,.23-.13,.47-.14,.72,0-.25,.06-.49,.14-.72"/><path id="Fill-27" class="cls-1" d="M60.45,47.79h-13.04c-1.35,0-2.46,1.11-2.46,2.45v13.05c0,1.35,1.11,2.45,2.46,2.45h13.05c1.35,0,2.45-1.11,2.45-2.45v-13.05c0-1.35-1.11-2.45-2.46-2.45"/><path id="Fill-28" class="cls-1" d="M141.91,47.79h-13.04c-1.35,0-2.46,1.11-2.46,2.45v13.05c0,1.35,1.1,2.45,2.46,2.45h13.05c1.35,0,2.45-1.11,2.45-2.45v-13.05c0-1.35-1.11-2.45-2.45-2.45"/><path id="Fill-29" class="cls-1" d="M60.45,129.24h-13.04c-1.35,0-2.46,1.11-2.46,2.45v13.05c0,1.35,1.11,2.45,2.46,2.45h13.05c1.35,0,2.45-1.11,2.45-2.45v-13.05c0-1.35-1.11-2.45-2.46-2.45"/><path id="Fill-30" class="cls-1" d="M141.91,129.24h-13.04c-1.35,0-2.46,1.11-2.46,2.45v13.05c0,1.35,1.1,2.45,2.46,2.45h13.05c1.35,0,2.45-1.11,2.45-2.45v-13.05c0-1.35-1.11-2.45-2.45-2.45"/></g></g></svg>