<?xml version="1.0" encoding="UTF-8"?><svg id="Layer_1" xmlns="http://www.w3.org/2000/svg" viewBox="0 0 150.42 180"><defs><style>.cls-1{fill:#fff;fill-rule:evenodd;}</style></defs><g id="leadership-design-logo"><path id="Chicago-Camps" class="cls-1" d="M74.84,34.01l21.62,18.3c.41-5.72,.74-10.39,1.13-15.83h22.22v36.05c10.54,9.41,20.58,18.36,30.61,27.31l-1.57,3.15-16.55,1.68v65.29H17.87V104.79c-6.53-.79-11.88-1.44-17.23-2.09-.21-1.19-.43-2.38-.64-3.57L74.84,34.01Zm-13.81,114.91h-2.38v6.92h2.38v-.5h-1.77v-5.91h1.77v-.5Zm30.03,0h-2.38v.5h1.78v5.91h-1.78v.5h2.38v-6.92Zm-8.3,1.8c-.46-.02-.91,.15-1.25,.48-.33,.32-.52,.77-.52,1.23,0,.99,.76,1.7,1.78,1.71,.45,0,.9-.13,1.27-.39l.15-.12v-1.48h-1.5v.67h.65v.4c-.16,.1-.34,.14-.52,.14-.24,0-.47-.09-.64-.26-.14-.14-.23-.33-.24-.53v-.12c-.01-.24,.07-.47,.23-.64s.38-.27,.61-.27c.25,0,.5,.08,.7,.23l.1,.08,.53-.64c-.37-.32-.84-.5-1.33-.48Zm-5.09,0c-.79,0-1.27,.44-1.27,1.05,0,.67,.54,.87,1.24,1.03,.4,.09,.53,.16,.55,.27v.04c0,.15-.13,.23-.37,.23-.33,0-.66-.11-.93-.29l-.13-.1-.51,.6c.43,.36,.97,.56,1.54,.54,.75,0,1.26-.35,1.32-.95v-.12s0,0,0,0c0-.61-.47-.86-1.22-1.02-.45-.1-.56-.17-.56-.32,0-.12,.11-.21,.33-.21,.28,.01,.54,.09,.78,.23l.14,.09,.45-.64c-.38-.3-.86-.45-1.35-.44Zm-6.68,.05h-1.26v3.29h1.24c1.12,0,1.8-.64,1.87-1.51v-.14s0-.02,0-.02c0-.95-.68-1.62-1.85-1.62Zm-5.21,0h-1.04l1.25,2.05v1.23h.91v-1.24l1.24-2.04h-1.02l-.68,1.2-.67-1.2Zm14.73,0h-.91v3.28h.91v-3.28Zm5.11,0h-.85v3.28h.9v-1.8l1.4,1.8h.8v-3.28h-.9v1.73l-1.35-1.73Zm-9.67,0h-2.63v3.27h2.65v-.77h-1.76v-.52h1.57v-.72h-1.57v-.49h1.74v-.77Zm-12.29,0h-.14s-1.68,0-1.68,0v3.27s1.69,0,1.69,0c.78,0,1.24-.34,1.24-.9,0-.45-.25-.67-.65-.8,.28-.1,.47-.34,.5-.62v-.11c.01-.21-.07-.4-.21-.54-.18-.15-.39-.25-.62-.29h-.14Zm-.24,1.95c.3,0,.45,.12,.45,.3s-.12,.27-.34,.3h-.1s-.7,.01-.7,.01v-.61h.69Zm7.59-1.15c.54,0,.9,.3,.9,.83,0,.49-.31,.78-.78,.82h-.12s-.38,.01-.38,.01v-1.67h.38Zm-7.69-.08c.24,0,.37,.08,.41,.22v.06s0,0,0,0c0,.17-.12,.26-.33,.28h-.1s-.57,0-.57,0v-.58h.59Zm-12.99-26.24c-2.99,0-4.85,1.62-4.95,3.89v.2s0,.04,0,.04c0,2.63,2.1,3.4,4.83,4.02,1.66,.38,2.12,.67,2.15,1.16v.07s0,.04,0,.04c0,.55-.51,.88-1.46,.88-1.38,0-2.7-.46-3.9-1.34l-.25-.19-1.97,2.36c1.57,1.41,3.73,2.12,5.99,2.12,3.02,0,5.06-1.47,5.17-3.95v-.22s0-.04,0-.04c0-2.4-1.83-3.34-4.77-3.99-1.7-.38-2.17-.64-2.21-1.17v-.07s0-.04,0-.04c0-.46,.42-.82,1.28-.82,1.05,0,2.22,.37,3.31,1.08l.27,.18,1.77-2.5c-1.39-1.11-3.09-1.7-5.26-1.7Zm30.39,.22h-3.56v12.79h3.56v-12.79Zm10.58,0h-5.48v12.79h3.55v-3.65h1.75c3.1,0,5.38-1.52,5.5-4.38v-.23s0-.04,0-.04c0-2.83-2.08-4.5-5.32-4.5Zm-27.36,0h-3.55v12.79h3.55v-4.86h4.55v4.86h3.54v-12.79h-3.53v4.79h-4.55v-4.79Zm27.08,2.98c1.22,0,1.97,.53,2.04,1.53v.15s0,.04,0,.04c0,.96-.7,1.6-1.85,1.66h-.18s-1.68,0-1.68,0v-3.38h1.66Zm-23.52-20.74h-6.05v12.79h3.55v-3.87h1.55l2.58,3.87h4.09l-3.05-4.46c1.52-.65,2.54-1.87,2.63-3.69v-.24s0-.04,0-.04c0-1.26-.38-2.25-1.13-2.98-.86-.88-2.21-1.39-4.17-1.39Zm-10.89,0h-10.29v12.78h10.39v-3.01h-6.87v-2.03h6.14v-2.8h-6.14v-1.94h6.77v-3.01Zm34.78,5.96c-.37,0-.68,.29-.89,.56,.06-.34-.1-.56-.39-.56-.3,0-.62,.26-.82,.51l-.07,.09,.12-.45c-.02-.16-.5-.21-.59-.08-.1,.39-.2,.74-.29,1.07-.04-.01-.07-.01-.09,.01-.24,.57-.57,.71-.85,.68,.47-.79,.45-1.84-.56-1.83-.67,.01-1.27,.52-1.43,1.3-.17,.86,.28,1.16,.82,1.16,.35,0,.69-.14,.94-.39,.32,.07,.69,.03,1.01-.38-.05,.19-.1,.39-.16,.59-.02,.2,.58,.19,.63,.06,.1-.44,.19-.82,.32-1.26,.19-.33,.48-.61,.64-.62,.16,0,.15,.18,.11,.33-.15,.58-.26,1.05-.38,1.52,.02,.16,.56,.15,.62,.02,.08-.32,.2-.86,.3-1.24,.12-.3,.47-.65,.65-.65s.15,.2,.11,.36c-.02,.09-.05,.19-.07,.29l-.08,.32c-.04,.16-.07,.3-.09,.4-.07,.38,.06,.64,.48,.62,.41-.01,.75-.4,.99-.8,.06,.44,.4,.79,1.04,.81,.54,.02,1.21-.17,1.67-1.19,.03-.07-.17-.18-.2-.11-.33,.74-.93,.94-1.32,.9-.39-.04-.6-.27-.56-.63,.65,.15,1.19-.05,1.4-.47,.21-.41,.03-.93-.6-.95-.65,0-1.21,.43-1.38,1.04l-.02,.08-.02,.02c-.2,.48-.55,.9-.77,.9-.29,0,.09-.91,.19-1.32,.11-.46-.01-.74-.44-.74Zm6.04-1.66c-.01,.21,.02,.42,.1,.62-.29,.42-.19,1.14,.34,1.34-.6,.03-1.08,.48-1.15,1.08-.1,.73,.55,1.09,1.18,1.09,.69,0,1.3-.33,1.68-1.18,.03-.07-.16-.19-.2-.11-.21,.55-.75,.9-1.33,.89-.37-.01-.76-.21-.69-.68,.07-.62,.75-.8,1.2-.75,.12-.02,.19-.31,.08-.38-.51-.06-.78-.45-.72-.8,.19,.19,.45,.31,.72,.32,.51,.02,.81-.24,.83-.61,.03-.73-1.16-.89-1.72-.42-.05-.13-.07-.26-.07-.4-.01-.14-.26-.1-.26,0Zm4.47,.23c-.14,.37-.37,1.07-.49,1.49-.54-.1-1.1,.12-1.44,.55-.58,.71-.64,1.86,.2,1.84,.45,0,.73-.37,.9-.71-.06,.42,.13,.68,.43,.68,.33,0,.63-.24,.87-.57l.09-.13v.03c-.11,.43,0,.72,.46,.71,.45,0,.81-.41,1.06-.82,0,.48,.16,.83,.7,.82,.42,0,.75-.26,1.02-.69-.09,.42,.01,.7,.46,.68,.42,0,.76-.35,1-.73,.03,.54,.41,.74,.86,.74,.35,0,.69-.14,.94-.39,.31,.06,.66,.03,.98-.35-.05,.18-.1,.37-.15,.57,.01,.19,.57,.17,.63,.05,.12-.5,.18-.79,.34-1.32,.21-.28,.51-.55,.71-.55,.19,0,.16,.18,.12,.35-.05,.23-.21,.85-.24,1.04-.07,.37,.06,.61,.49,.6,.55,0,.97-.69,1.2-1.18,.04-.07-.16-.18-.19-.11-.21,.49-.54,.9-.77,.9-.14,0-.11-.21-.07-.42,.05-.27,.18-.59,.24-.85,.11-.46,0-.78-.44-.8-.37,0-.76,.36-.96,.6,.05-.16,.07-.25,.12-.44-.06-.17-.5-.2-.59-.08-.1,.39-.2,.73-.29,1.07-.03,0-.06,0-.07,.02-.24,.57-.57,.71-.85,.68,.48-.79,.45-1.84-.55-1.83-.58,0-1.11,.39-1.34,.99l-.05,.14-.02,.02c-.19,.46-.56,.9-.82,.9-.12,0-.11-.15-.07-.38,.09-.38,.2-.75,.42-1.53-.04-.14-.5-.2-.59-.07-.12,.42-.22,.75-.3,1.07-.04-.01-.07-.02-.09,.01-.24,.53-.64,.9-.96,.9-.28,0-.28-.39-.16-.91,.04-.18,.1-.39,.16-.61l.06-.22h.53c.07-.03,.14-.23,.08-.34l-.03-.04h-.47c.12-.42,.25-.83,.38-1.17,0-.16-.52-.23-.6-.11-.1,.25-.24,.67-.37,1.08l-.06,.21h-.23c-.08,.03-.14,.25-.08,.34l.03,.03h.17c-.07,.27-.14,.55-.19,.82-.03,0-.05,0-.06,.02-.19,.46-.56,.9-.82,.9-.12,0-.11-.15-.07-.38,.08-.38,.2-.75,.42-1.53-.04-.14-.5-.2-.59-.07-.02,.08-.05,.16-.07,.24l-.12,.43c-.04,.14-.07,.26-.11,.39-.04-.01-.07-.01-.09,.01-.19,.45-.52,.88-.74,.88-.45,.01,.43-2.52,.72-3.35,0-.16-.52-.22-.6-.12Zm-18.58-.01c-.52,.53-.96,.08-1.68,.25-.36,.05-.67,.21-.75,.56-.05,.21,0,.44,.14,.61,.15,.16,.36,.25,.58,.25s.43-.09,.58-.25c.06-.11-.08-.29-.17-.26-.27,.2-.56,.05-.55-.17,.01-.23,.19-.3,.41-.34,.08-.02,.15-.02,.24-.02h.12s.25,.03,.25,.03c.25,.02,.49,.01,.7-.19-.16,.47-.29,.94-.5,1.61-.86-.06-1.47,.39-1.59,.94-.08,.41,.05,.89,.78,.89,.8,0,1.05-.5,1.32-1.4,.16,.02,.33,.06,.51,.08l.27,.03-.12,.41c-.08,.27-.15,.52-.21,.71,.03,.17,.54,.17,.64,.03,.08-.31,.21-.75,.32-1.13,.37-.03,.72-.17,1-.42,.12-.12,0-.32-.12-.24-.22,.19-.5,.31-.8,.33,.16-.7,.37-1.39,.62-2.07-.05-.15-.51-.21-.59-.11-.27,.6-.47,1.44-.66,2.14-.27-.02-.53-.09-.75-.12,.29-.99,.45-1.54,.62-2.07-.03-.14-.49-.21-.62-.07Zm25.23,1.85c.42-.02,.36,.61,.14,1.13-.08,0-.16,.03-.21,.11-.04,.07-.04,.16,0,.23-.09,.11-.23,.18-.38,.19-.35,0-.33-.4-.27-.75,.08-.42,.37-.89,.7-.9Zm-21.66,0c.42-.02,.36,.61,.14,1.13-.08,0-.16,.04-.2,.11-.04,.07-.04,.16,.01,.23-.09,.11-.23,.18-.38,.19-.35,0-.33-.4-.27-.75,.08-.42,.37-.89,.69-.9Zm-4.29,.64c-.16,.61-.33,1.02-.65,1.02-.24,0-.28-.24-.21-.46,.08-.31,.37-.58,.87-.56Zm18.62-.6h.08c-.07,.3-.16,.59-.28,.87-.23,.56-.56,.84-.75,.7-.2-.13-.08-.65,.09-.98l.05-.08c.2-.33,.48-.48,.72-.5h.09Zm-7.46-.02c.21,0,.22,.21,.13,.39-.1,.22-.33,.36-.68,.35h-.13c.1-.42,.42-.77,.68-.74Zm-26.43-3.31c1.13,0,1.84,.46,1.91,1.36v.15s0,.04,0,.04c0,.88-.62,1.45-1.71,1.51h-.19s-2.34,0-2.34,0v-3.07h2.32Zm36.15,1.88c-.2,0-.38,.14-.4,.34-.02,.09,0,.18,.06,.24,.06,.07,.14,.1,.23,.1,.1,0,.2-.02,.27-.09,.08-.06,.12-.16,.13-.26,.02-.09,0-.18-.06-.24-.06-.07-.15-.1-.24-.09Zm3.26,0c-.2,0-.38,.14-.4,.34-.02,.09,0,.18,.06,.24,.06,.07,.14,.1,.23,.1,.1,0,.2-.02,.27-.09,.08-.06,.12-.16,.13-.26,.02-.09,0-.18-.06-.24-.06-.07-.15-.1-.24-.09Zm-7.79,.16c0,.14-.12,.24-.31,.23-.21,0-.41-.1-.55-.26,.24-.33,.86-.29,.86,.03Zm-15.39-22.96h-3.42l-5.45,12.89h3.73l.91-2.29h4.93l.94,2.28h3.8l-5.45-12.88Zm-32.95,.09h-3.54v12.8h9.74v-3.11h-6.2v-9.69Zm47.13,0h-4.94v12.79h4.86c4.51,0,7.18-2.63,7.29-6.2v-.23s0-.04,0-.04c0-3.69-2.65-6.32-7.22-6.32Zm-26.72,0h-10.29v12.78h10.38v-3.01h-6.87v-2.03h6.14v-2.8h-6.14v-1.94h6.78v-3.01Zm26.79,3.14c2.05,0,3.43,1.11,3.52,3.03v.2s0,.04,0,.04c0,2-1.32,3.15-3.32,3.23h-.21s-1.44,0-1.44,0v-6.51h1.44Zm-15.98,.97l1.43,3.64h-2.87l1.44-3.64Zm-8.08-18.45c-.79,0-1.42,.64-1.42,1.42s.64,1.42,1.42,1.42,1.42-.64,1.42-1.42-.64-1.42-1.42-1.42Zm-2.97,.04h-.14c-.37,0-.73,.13-1,.4-.26,.26-.41,.62-.41,.99-.01,.38,.13,.74,.4,1s.63,.4,1.01,.39c.37,0,.72-.11,1.02-.33l.12-.1v-1.16h-1.16v.51h.59v.38c-.16,.11-.36,.17-.55,.16-.22,0-.44-.09-.59-.25s-.23-.38-.22-.6c-.02-.44,.33-.82,.77-.83,.22,0,.43,.06,.6,.19l.1,.08,.38-.45c-.22-.19-.48-.32-.76-.36h-.14Zm10.13-.01c-.37,0-.73,.13-.99,.39s-.41,.62-.4,.99c0,.37,.14,.72,.4,.98,.26,.26,.61,.4,.98,.4,.37,.02,.73-.12,1-.38l.1-.1-.38-.38c-.18,.2-.44,.31-.7,.31-.22,0-.42-.1-.57-.26-.15-.16-.22-.37-.21-.59-.01-.21,.07-.42,.21-.58s.35-.25,.57-.25c.22,0,.42,.08,.59,.22l.1,.09,.38-.43c-.28-.28-.66-.43-1.06-.41Zm-23.28,0h-.15c-.37,0-.73,.13-.99,.39-.26,.26-.41,.62-.4,.99,0,.37,.14,.72,.39,.98,.26,.26,.61,.4,.98,.4,.37,.02,.74-.12,1-.38l.1-.1-.38-.38c-.18,.2-.44,.31-.71,.31-.22,0-.42-.1-.57-.26-.15-.16-.22-.37-.21-.59-.01-.21,.07-.42,.21-.58s.35-.25,.57-.25c.22,0,.42,.08,.59,.22l.1,.09,.38-.43c-.21-.21-.48-.35-.76-.4l-.15-.02Zm7.28,0h-.15c-.37,0-.73,.13-.99,.39s-.41,.62-.4,.99c0,.37,.14,.72,.4,.98,.26,.26,.61,.4,.98,.4,.37,.02,.73-.12,1-.38l.1-.1-.38-.38c-.18,.2-.44,.31-.71,.31-.22,0-.42-.1-.57-.26-.15-.16-.22-.37-.21-.59-.01-.21,.07-.42,.21-.58s.35-.25,.57-.25c.22,0,.42,.08,.59,.22l.09,.09,.38-.43c-.21-.21-.48-.35-.76-.4l-.15-.02Zm27.7,.01c-.55,0-.94,.32-.94,.81,0,.53,.35,.68,.89,.82,.45,.11,.54,.19,.54,.34,0,.16-.14,.25-.39,.25-.25,0-.49-.09-.69-.23l-.11-.09-.35,.42c.32,.27,.72,.41,1.14,.41,.58,0,.98-.3,.98-.83,0-.47-.31-.66-.85-.8-.46-.12-.58-.18-.58-.35,0-.13,.12-.23,.35-.23,.2,.01,.4,.07,.57,.18l.12,.09,.31-.42c-.28-.23-.63-.35-.99-.34Zm-24.76,.01h-.54l-1.14,2.7h.6l.24-.6h1.13l.24,.6h.62l-1.15-2.7Zm16.15,0h-.54l-1.15,2.7h.6l.24-.6h1.13l.24,.6h.62l-1.15-2.7Zm2.27,.01h-.63v2.68s.57,0,.57,0v-1.74l.75,1.13h.02l.75-1.15v1.75h.58v-2.68h-.64l-.7,1.13-.71-1.13Zm-23.55,0h-.59v2.68h.59v-2.68Zm-3.04,0h-.59v2.68h.59v-1.08h1.09v1.08h.59v-2.68h-.59v1.06h-1.09v-1.06Zm30.5,0h-1.09v2.67h.59v-.8h.45c.6,0,1.08-.32,1.08-.94,0-.55-.39-.93-1.02-.93Zm-12.84,.11l-.2,.83-.82-.25,.62,.59-.62,.59,.82-.25,.2,.83,.2-.83,.82,.25-.63-.59,.63-.59-.82,.25-.2-.83Zm-3.6,.39c.22,0,.43,.09,.58,.25,.15,.16,.23,.37,.23,.59,0,.22-.07,.43-.22,.59-.15,.16-.36,.25-.58,.25-.22,0-.43-.09-.58-.25-.15-.16-.24-.37-.23-.59,0-.22,.07-.43,.22-.59,.15-.16,.36-.25,.58-.25Zm9.97,.19l.36,.87h-.71l.36-.87Zm-16.15,0l.36,.87h-.71l.36-.87Zm22.56-.16c.29,0,.48,.14,.48,.4,0,.12-.05,.23-.14,.31-.07,.06-.15,.09-.24,.1h-.09s-.47,0-.47,0v-.82h.45ZM48.25,31.14c1.81,.85,2.86,1.62,3.47,2.57,.48,.19,1.1,.08,1.85-.32,.17-.39,.44-.52,.83-.39,0,0,.55-.35,.56-.25,.08,.06-.41,.33-.41,.33-.12,.35-.48,.57-.84,.5-.57,.39-.91,.79-1.04,1.2,.03,.54,1.53,.4,2.12,3.9-1.35-1.38-2.98-1.86-3.45-2.45l-.06-.08-1.04-.58-.55,.47c-.2-.08-.36-.23-.44-.42l-.04-.1,.8-.38c-.13-.26-.17-.55-.12-.84-1.53-1.01-1.25-2.22-1.65-3.15Zm10.35-5.49c2.42,1.13,3.83,2.17,4.64,3.44,.64,.25,1.46,.11,2.48-.43,.22-.52,.59-.69,1.11-.53,0,0,.74-.46,.77-.34,.1,.08-.56,.45-.56,.45-.23,.52-.61,.74-1.13,.66-.76,.52-1.22,1.05-1.39,1.6,.05,.71,2.05,.54,2.84,5.22-1.81-1.85-4.02-2.5-4.64-3.29l-.06-.09-1.4-.78-.73,.63c-.33-.17-.53-.37-.62-.6l-.03-.1,1.07-.51c-.17-.35-.23-.74-.16-1.13-2.05-1.34-1.68-2.97-2.2-4.21Zm16.69-5.83c3.26,1.52,5.15,2.92,6.25,4.63,.86,.34,1.97,.15,3.33-.58,.3-.69,.8-.93,1.5-.71,0,0,1-.62,1.03-.45,.14,.11-.75,.59-.75,.59-.31,.7-.82,1-1.52,.89-1.02,.7-1.65,1.42-1.88,2.15,.06,.97,2.76,.73,3.82,7.03-2.45-2.52-5.44-3.38-6.25-4.46l-.07-.1-1.88-1.05-.98,.85c-.45-.23-.73-.51-.83-.82l-.03-.12,1.44-.68c-.22-.47-.3-.99-.22-1.5-2.76-1.81-2.26-3.99-2.96-5.66Zm37.98,6.66v3.81h-8.52v-3.81h8.52Zm-4.29-11.58l.92,3.72,3.84-1.19-2.92,2.81,2.92,2.81-3.84-1.19-.92,3.72-.92-3.72-3.84,1.19,2.93-2.81-2.93-2.81,3.84,1.19,.92-3.72Zm4.26-4.85v3.81h-8.52v-3.81h8.52Z"/></g></svg>