<svg viewBox="0 0 56 56" xmlns="http://www.w3.org/2000/svg"><path d="m49.3673123 4h-41.88842378c-1.91938688 0-3.47888852 1.58131251-3.47888852 3.5225086v41.8120865c0 1.9411961 1.55950164 3.5225087 3.47888852 3.5225087h41.88842378c1.9193869 0 3.4897931-1.5813126 3.4897931-3.5225087v-41.8120865c0-1.94119609-1.5704062-3.5225086-3.4897931-3.5225086zm-30.6011241 41.8775175h-7.2413201v-23.3161806h7.2522263v23.3161806zm-3.6206601-26.5006165c-2.3228939 0-4.1986573-1.8866681-4.1986573-4.1986574s1.8757651-4.1986574 4.198659-4.1986574c2.3119876 0 4.1986573 1.8866681 4.1986573 4.1986574 0 2.3228922-1.8757634 4.1986574-4.1986573 4.1986574zm30.7647065 26.5006165h-7.24132v-11.3418277c0-2.7045883-.054528-6.1834768-3.7624332-6.1834768-3.7733395 0-4.3513352 2.9445113-4.3513352 5.9871773v11.5381272h-7.24132v-23.3161806h6.9468691v3.1844358h.0981497c.9705981-1.8321417 3.3371137-3.7624332 6.8596256-3.7624332 7.3285636 0 8.691764 4.8311827 8.691764 11.1128093z"/></svg>