<?xml version="1.0" encoding="UTF-8"?>
<svg width="924px" height="903px" viewBox="0 0 924 903" version="1.1" xmlns="http://www.w3.org/2000/svg" xmlns:xlink="http://www.w3.org/1999/xlink">
    <title>Mask</title>
    <defs>
        <path d="M784.954144,51.9972684 C891.268959,51.9972684 977.454144,138.854027 977.454144,245.997268 C977.454144,353.14051 891.268959,439.997268 784.954144,439.997268 C781.376164,439.997268 777.820983,439.898892 774.291119,439.704676 L774.297261,439.695266 C802.159794,486.068831 818.195113,540.447818 818.195113,598.596574 C818.195113,768.424134 681.418104,906.096574 512.695113,906.096574 C343.972122,906.096574 207.195113,768.424134 207.195113,598.596574 C207.195113,540.679592 223.102858,486.502386 250.76036,440.250165 C245.8199,440.640227 240.822116,440.835664 235.779038,440.835664 C129.464224,440.835664 43.2790381,353.978906 43.2790381,246.835664 C43.2790381,139.692423 129.464224,52.8356645 235.779038,52.8356645 C342.093852,52.8356645 428.279038,139.692423 428.279038,246.835664 C428.279038,267.380132 425.110253,287.178722 419.238375,305.762115 L419.232274,305.753398 C448.689955,296.235862 480.096265,291.096574 512.695113,291.096574 C543.501731,291.096574 573.243333,295.686297 601.281805,304.223451 C595.54461,285.847808 592.454144,266.286259 592.454144,245.997268 C592.454144,138.854027 678.63933,51.9972684 784.954144,51.9972684 Z" id="path-1"></path>
    </defs>
    <g id="Page-1" stroke="none" stroke-width="1" fill="none" fill-rule="evenodd">
        <mask id="mask-2" fill="white">
            <use xlink:href="#path-1"></use>
        </mask>
        <use id="Mask" fill="#B7C0C5" transform="translate(510.366591, 479.046921) rotate(-12.000000) translate(-510.366591, -479.046921) " xlink:href="#path-1"></use>
    </g>
</svg>