<svg height="855" viewBox="0 0 935 855" width="935" xmlns="http://www.w3.org/2000/svg"><path d="m741.954144-.00273163c106.314815 0 192.5 86.85675853 192.5 193.99999963 0 107.143242-86.185185 194-192.5 194-3.57798 0-7.133161-.098376-10.663025-.292592l.006142-.00941c27.862533 46.373565 43.897852 100.752552 43.897852 158.901308 0 169.82756-136.777009 307.5-305.5 307.5s-305.5-137.67244-305.5-307.5c0-57.916982 15.907745-112.094188 43.565247-158.346409-4.94046.390062-9.938244.585499-14.981322.585499-106.3148142 0-192.49999986-86.856758-192.49999986-194 0-107.143241 86.18518566-193.99999952 192.49999986-193.99999952 106.314814 0 192.5 86.85675852 192.5 193.99999952 0 20.544468-3.168785 40.343058-9.040663 58.926451l-.006101-.008717c29.457681-9.517536 60.863991-14.656824 93.462839-14.656824 30.806618 0 60.54822 4.589723 88.586692 13.126877-5.737195-18.375643-8.827661-37.937192-8.827661-58.226183 0-107.1432411 86.185186-193.99999963 192.5-193.99999963z" fill="#1f2937" fill-rule="evenodd"/></svg>