<?xml version="1.0" encoding="UTF-8"?>
<svg width="102px" height="72px" viewBox="0 0 102 72" version="1.1" xmlns="http://www.w3.org/2000/svg" xmlns:xlink="http://www.w3.org/1999/xlink">
    <title>Group 35</title>
    <g id="Page-1" stroke="none" stroke-width="1" fill="none" fill-rule="evenodd">
        <g id="Miles-Driven-Copy" transform="translate(-284.000000, -381.000000)">
            <g id="Group-35" transform="translate(284.000000, 381.000000)">
                <ellipse id="Oval" stroke="#FFFFFF" stroke-width="3" fill="#077EF8" cx="51" cy="36" rx="49.5" ry="34.5"></ellipse>
                <path d="M35.3082932,26.0432182 L69.4420731,18.5173612 C70.5207357,18.2795363 71.5879597,18.96117 71.8257846,20.0398327 C71.8883292,20.3235061 71.8883292,20.6173992 71.8257846,20.9010727 L64.2999275,55.0348526 C64.0621027,56.1135152 62.9948787,56.795149 61.916216,56.5573241 C61.3889239,56.4410661 60.9310427,56.1165428 60.6466737,55.6575361 L50.9630449,40.0269596 C50.8002952,39.7642614 50.5788843,39.5428505 50.3161861,39.3801008 L34.6856097,29.696472 C33.746636,29.1147486 33.4570274,27.88198 34.0387509,26.9430063 C34.3231198,26.4839996 34.7810011,26.1594762 35.3082932,26.0432182 Z" id="Rectangle" fill="#FFFFFF" transform="translate(51.500000, 38.843146) rotate(-45.000000) translate(-51.500000, -38.843146) "></path>
            </g>
        </g>
    </g>
</svg>