<?xml version="1.0" encoding="UTF-8"?><svg id="Layer_1" xmlns="http://www.w3.org/2000/svg" viewBox="0 0 543.91 180"><defs><style>.cls-1,.cls-2{fill:#fff;}.cls-3,.cls-2{opacity:.5;}</style></defs><path class="cls-1" d="M0,89.75c.27-1.78,.48-3.58,.81-5.35,2.91-15.54,17.39-27.1,33.25-26.58,16.76,.56,30.26,12.59,32.36,28.83,2.14,16.56-8.2,32.07-24.21,36.32-16.21,4.3-33.12-3.71-39.4-19.02-1.51-3.67-1.9-7.8-2.81-11.72,0-.83,0-1.65,0-2.48Zm33.56,20.05c10.36-.05,18.82-8.54,18.81-18.86-.01-10.44-8.54-18.81-19.12-18.77-10.41,.04-18.79,8.45-18.78,18.83,.02,10.47,8.53,18.85,19.09,18.8Z"/><path class="cls-1" d="M241.87,103.2h-34.2c-.49,5.09,3.75,9.77,9.39,10.3,4.52,.43,8.59-.62,11.55-4.43,.36-.46,1.01-.98,1.53-.99,3.73-.09,7.46-.05,11.21-.05-1.15,10.22-13.1,17.35-26.32,15.89-13.26-1.46-22.31-13.4-20.74-27.36,1.63-14.43,12.96-23.33,27.52-21.6,13.48,1.6,21.78,13.09,20.06,28.24Zm-34.16-8.98c6.83,0,13.47,0,20.11,0,.4,0,.79-.1,1.18-.15-.11-4.76-4.21-8.4-9.75-8.75-5.83-.37-10.77,3.33-11.54,8.91Z"/><path class="cls-1" d="M70.4,76.08h13.33c.05,.9,.14,1.76,.14,2.63,.01,8.02-.04,16.05,.03,24.07,.04,4.89,2.43,7.94,6.38,8.43,4.46,.56,8.08-1.91,9.03-6.29,.3-1.36,.39-2.79,.39-4.18,.04-7.28,.02-14.56,.02-21.84,0-.88,0-1.76,0-2.77h13.58v46.65h-12.77c-.09-1.53-.19-3.11-.29-4.82-.45,.16-.74,.17-.86,.31-5.14,6.25-11.76,7.1-18.93,4.7-7-2.34-10.13-7.88-10.28-14.91-.23-10.33-.06-20.68-.05-31.02,0-.23,.13-.46,.28-.97Z"/><path class="cls-1" d="M138.35,63.42v12.53h12.23v10.64h-12.04c-.08,.97-.18,1.68-.19,2.39-.01,5.54-.04,11.08,0,16.62,.04,4.09,1.85,5.91,5.92,6.04,1.99,.06,3.98,.01,6.17,.01v11.29c-5.75-.19-11.64,.93-17.28-1.46-5.27-2.24-8.02-6.47-8.33-11.96-.37-6.51-.18-13.05-.23-19.58,0-.97,0-1.95,0-3.2h-7.51v-10.53c.87-.05,1.67-.13,2.48-.14,4.87-.06,5.72-.91,5.72-5.87,0-2.21,0-4.42,0-6.78h13.07Z"/><path class="cls-1" d="M173.5,111.31v11.3c-8.43,1.97-16.27-1.61-18.48-8.54-.59-1.86-.84-3.9-.85-5.85-.07-16.71-.04-33.42-.04-50.14,0-.49,.08-.98,.13-1.67h13.61c0,1.1,0,2.08,0,3.06,0,14.97,0,29.95,0,44.92,0,5.43,.33,5.84,5.62,6.91Z"/><path class="cls-1" d="M259.45,122.87h-13.71v-46.72h12.71v6.72c.18,.16,.35,.31,.53,.47,3.86-6.58,9.67-8.48,16.88-7.43v12.64c-1.23,0-2.56,0-3.89,0-8.01,.03-12.35,4.18-12.48,12.16-.11,6.44-.03,12.89-.03,19.33,0,.89,0,1.77,0,2.83Z"/><path class="cls-1" d="M190.56,122.84h-13.37v-46.69h13.37v46.69Z"/><path class="cls-1" d="M183.98,56.46c4.15,.03,7.36,3.33,7.33,7.5-.04,4.07-3.5,7.43-7.55,7.34-4.07-.1-7.42-3.54-7.36-7.57,.06-4.09,3.41-7.3,7.59-7.27Z"/><g><g><path class="cls-1" d="M543.92,85.79c0-.42,.01-.86-.13-1.24-.09-.26-.41-.57-.67-.61-.88-.15-1.11,.08-1.22,.98-.04,.37-.05,.74-.05,1.11,0,2.47-.01,4.93-.02,7.4,0,.16-.03,.32-.06,.64-1.7-2.94-3.31-5.74-4.94-8.53-.27-.46-.51-.98-.91-1.31-.29-.24-.82-.3-1.21-.23-.22,.04-.45,.48-.53,.78-.11,.42-.12,.87-.13,1.32-.03,3.51-.04,7.02-.05,10.53,0,.37,.04,.74,.09,1.11,.07,.47,.32,.74,.84,.74,.51,0,.89-.17,.99-.68,.11-.54,.17-1.1,.17-1.66,.02-2.28,.02-4.56,.02-6.84,0-.22,0-.44,0-.86,.18,.27,.26,.37,.33,.48,1.57,2.69,3.14,5.38,4.72,8.07,.23,.4,.46,.86,.82,1.11,.34,.24,.87,.36,1.27,.29,.22-.04,.45-.55,.51-.88,.11-.59,.13-1.2,.14-1.8,.01-3.3,0-6.61,0-9.91Z"/><path class="cls-1" d="M417.4,74.34c.08,.89,.23,.98,1.09,.98,.75,0,1.49,0,2.24,0,2.76,0,4.75-1.29,6.06-3.65,.99-1.77,1.18-3.71,.95-5.69-.38-3.25-2.14-5.51-4.99-6.08-1.51-.3-3.1-.2-4.65-.22-.22,0-.53,.29-.63,.53-.14,.33-.17,.72-.17,1.09-.01,2.05,0,4.09,0,6.14,0,0-.01,0-.02,0,0,1.28-.01,2.56,0,3.84,.01,1.02,.03,2.05,.12,3.06Zm2.78-12.68c2.57-.24,4.64,1.19,5.24,3.7,.45,1.87,.37,3.71-.57,5.42-.94,1.72-2.42,2.59-4.4,2.54-.87-.02-1.01-.18-1.02-1.03,0-1.63,0-3.25,0-4.88h-.03c0-1.63,.02-3.26-.01-4.88-.01-.61,.23-.81,.8-.87Z"/><path class="cls-1" d="M525.87,83.89c-2.66-.1-4.75,.96-6.03,3.37-.65,1.22-.84,2.55-.9,3.92,.09,.71,.12,1.44,.27,2.14,.63,3.03,2.88,4.9,6.07,5.1,2.94,.18,5.53-1.48,6.46-4.22,.72-2.15,.68-4.32-.17-6.41-1.03-2.52-3-3.79-5.69-3.89Zm4.29,7.38c-.02,.35-.03,.7-.07,1.04-.36,3.15-3.15,4.9-6.16,3.85-1.33-.46-2.18-1.4-2.58-2.73-.47-1.55-.44-3.12,.1-4.66,.64-1.83,2.14-2.87,4.1-2.88,1.97-.02,3.51,.97,4.16,2.79,.29,.82,.38,1.71,.57,2.56-.03,0-.07,.02-.1,.03Z"/><path class="cls-1" d="M436.7,107c-3.26-.05-5.71,1.76-6.5,4.82-.36,1.39-.4,2.8-.17,4.22,.52,3.24,2.87,5.33,6.16,5.49,3.25,.15,5.85-1.72,6.63-4.82,.18-.72,.23-1.46,.35-2.23-.1-.79-.15-1.61-.32-2.4-.68-3.07-3.09-5.04-6.15-5.09Zm4.17,9.11c-.49,2.21-2.12,3.46-4.44,3.44-2.25-.02-3.93-1.29-4.29-3.51-.19-1.14-.17-2.38,.04-3.51,.43-2.27,2.19-3.57,4.45-3.5,2.24,.07,3.85,1.48,4.27,3.76,.1,.52,.13,1.06,.19,1.62-.07,.55-.1,1.14-.23,1.7Z"/><path class="cls-1" d="M428.51,107.66c-1.51-1.34-3.36-1.72-5.63-1.85-.49,.09-1.32,.16-2.08,.41-3.01,.97-3.7,3.85-1.5,6.12,1,1.03,2.28,1.56,3.61,2.04,1,.36,2.02,.76,2.87,1.37,1.3,.95,1.04,2.64-.4,3.34-.27,.13-.56,.24-.85,.3-2.09,.38-3.93-.19-5.48-1.59-.4-.36-.66-.34-1-.06-.22,.17-.42,.36-.61,.57-.31,.34-.32,.66,.03,1.03,2.04,2.16,6.4,2.9,9.03,1.5,1.58-.84,2.31-2.16,2.21-3.94-.08-1.4-.69-2.55-1.91-3.22-1.05-.57-2.23-.91-3.33-1.4-.93-.41-1.93-.74-2.72-1.34-1.08-.84-.8-2.45,.47-2.77,2.14-.53,4.21-.37,5.94,1.24,.13,.12,.37,.34,.42,.3,.46-.33,.96-.64,1.32-1.07,.35-.42-.09-.72-.37-.98Z"/><path class="cls-1" d="M442.3,90.63c-.7-.35-1.48-.53-2.21-.84-.76-.33-1.53-.66-2.24-1.08-.51-.3-.7-.85-.58-1.46,.11-.62,.51-1.02,1.09-1.15,1.72-.4,3.34-.2,4.7,1.04,.71,.65,.97,.66,1.66-.07,.53-.56,.53-.8,0-1.34-1.74-1.73-5.04-2.34-7.3-1.35-2.31,1.01-2.91,3.45-1.3,5.39,.86,1.04,2.01,1.62,3.27,2.03,.73,.24,1.46,.49,2.14,.82,.98,.48,1.33,1.17,1.2,2.06-.13,.88-.77,1.52-1.8,1.7-1.81,.32-3.35-.28-4.66-1.52-.51-.48-.8-.45-1.47,.21-.57,.56-.59,.82-.06,1.33,1.42,1.38,3.16,1.99,5.28,2.08,.35-.05,.86-.08,1.36-.2,1.93-.44,3.21-1.73,3.43-3.41,.24-1.84-.59-3.3-2.5-4.24Z"/><path class="cls-1" d="M505.55,96.12c-.92-2.31-1.86-4.61-2.77-6.92-.6-1.51-1.18-3.03-1.77-4.55-.17-.44-.43-.75-.97-.75-.54,0-.89,.21-1.1,.68-.13,.3-.28,.59-.39,.89-1.16,2.96-2.33,5.92-3.48,8.89-.38,1-.75,2-1.02,3.03-.08,.29,.1,.87,.33,.98,.42,.21,.97,.19,1.32-.28,.16-.22,.28-.48,.39-.74,.22-.54,.43-1.08,.61-1.63,.14-.42,.4-.6,.83-.6,1.58,0,3.17,0,4.75,0,.5,0,.81,.2,.97,.71,.21,.66,.48,1.31,.76,1.95,.2,.47,.57,.73,1.06,.67,.84,0,1.1-.32,.91-1.1-.11-.43-.26-.84-.43-1.25Zm-7.77-3.06c.73-1.85,1.42-3.59,2.18-5.54,.75,1.93,1.44,3.67,2.17,5.54h-4.35Z"/><path class="cls-1" d="M463.07,95.13s0,0,0,.01c.81,0,1.63,0,2.44,0,.44,0,.73,.19,.88,.64,.22,.66,.48,1.31,.77,1.94,.32,.69,.96,.96,1.61,.68,.71-.31,.45-.9,.28-1.38-.45-1.22-.96-2.42-1.43-3.63-1.13-2.88-2.25-5.76-3.38-8.63-.33-.82-.94-1.14-1.57-.77-.32,.19-.59,.6-.73,.97-1.52,3.85-3.02,7.7-4.5,11.56-.15,.39-.24,.8-.28,1.22-.05,.44,.19,.69,.65,.73,.6,.05,1.05-.14,1.28-.73,.25-.65,.52-1.29,.75-1.95,.16-.46,.43-.68,.93-.66,.77,.02,1.54,0,2.31,0Zm.07-7.61c.76,1.93,1.44,3.67,2.18,5.54h-4.36c.73-1.86,1.42-3.6,2.18-5.54Z"/><path class="cls-1" d="M429.3,75.27c.27-.09,.53-.39,.66-.65,.3-.63,.54-1.28,.77-1.94,.15-.42,.37-.68,.85-.67,1.61,.01,3.21,.01,4.82,.02,.47,0,.75,.2,.91,.68,.23,.7,.51,1.4,.84,2.06,.27,.54,1.02,.76,1.58,.5,.58-.28,.4-.77,.28-1.21-.14-.47-.31-.92-.5-1.38-.84-2.09-1.69-4.18-2.52-6.27-.64-1.62-1.27-3.25-1.9-4.87-.18-.47-.45-.82-1.01-.75-.81-.05-1.05,.54-1.27,1.1-1.17,2.96-2.34,5.92-3.49,8.89-.43,1.1-.86,2.21-1.2,3.34-.3,.99,.23,1.49,1.18,1.16Zm4.73-10.89c.75,1.91,1.44,3.67,2.17,5.54h-4.35c.73-1.85,1.42-3.61,2.18-5.54Z"/><path class="cls-1" d="M458.55,75.33c.86,0,1.12-.31,.93-1.09-.08-.34-.2-.67-.33-.99-.53-1.34-1.08-2.67-1.61-4.01-1.01-2.55-2-5.11-3.01-7.65-.31-.77-.94-1.1-1.52-.72-.36,.23-.63,.68-.79,1.09-.99,2.45-1.96,4.92-2.91,7.39-.6,1.56-1.22,3.12-1.74,4.7-.34,1.01,.14,1.51,1.11,1.23,.29-.08,.58-.39,.72-.67,.32-.64,.5-1.35,.81-2,.12-.25,.44-.56,.67-.56,1.72-.04,3.44-.02,5.16,.03,.22,0,.51,.29,.62,.52,.31,.65,.53,1.34,.81,2,.21,.49,.56,.8,1.08,.73Zm-7.27-5.41c.72-1.84,1.41-3.58,2.17-5.52,.75,1.91,1.44,3.66,2.17,5.52h-4.34Z"/><path class="cls-1" d="M429.72,82.93c-.31-.12-.77-.05-1.08,.11-.28,.14-.5,.49-.65,.79-.38,.74-.73,1.5-1.04,2.28-1.14,2.82-2.25,5.65-3.44,8.65-.18-.41-.28-.62-.36-.83-1.24-3.16-2.47-6.31-3.72-9.46-.18-.45-.41-.89-.67-1.29-.32-.49-.84-.47-1.32-.31-.52,.18-.48,.65-.38,1.06,.11,.47,.29,.93,.47,1.38,1.4,3.57,2.8,7.13,4.2,10.7,.25,.63,.48,1.26,.75,1.87,.26,.59,.82,.81,1.32,.56,.4-.2,.73-.69,.91-1.12,1.48-3.61,2.92-7.23,4.36-10.86,.34-.86,.66-1.74,.9-2.63,.07-.27-.06-.83-.24-.89Z"/><path class="cls-1" d="M455.43,83.93c-.62,0-.94,.26-.94,.85-.02,1.37,0,2.74,0,4.11-.02,0-.04,0-.06,0,0,.72,.05,1.45-.01,2.16-.09,1.13-.15,2.28-.41,3.38-.33,1.39-1.22,2.03-2.48,2.04-1.27,0-2.14-.6-2.5-2-.26-.98-.37-2.01-.4-3.02-.06-2.16-.01-4.32-.05-6.49-.02-.92-.21-1.03-1.09-1.02-.74,0-.83,.51-.84,1.03-.04,2.42-.14,4.84-.04,7.25,.05,1.18,.34,2.4,.76,3.51,.67,1.78,2.09,2.68,4,2.72,1.97,.04,3.41-.81,4.24-2.6,.24-.52,.45-1.08,.55-1.64,.54-3.14,.24-6.3,.23-9.46,0-.6-.34-.82-.96-.81Z"/><path class="cls-1" d="M468.95,107.14c-1.6-.06-3.21-.05-4.81-.09-1.88-.05-2.37-.46-2.39,2.36-.02,3.07,0,6.14,0,9.2,0,.65,.02,1.3,.09,1.95,.1,.92,.23,1.02,1.14,1.02,.93,0,1.86,0,2.79,0,0-.03,0-.06,0-.09,1.14,0,2.28,.03,3.42-.02,.24-.01,.66-.33,.66-.52,0-.34-.16-.77-.41-.99-.25-.22-.69-.28-1.05-.29-1.25-.06-2.51-.09-3.77-.1-.56,0-.8-.21-.77-.79,.03-.86,.04-1.72-.02-2.58-.04-.65,.22-.9,.82-.9,1.02,0,2.05-.03,3.07-.03,.5,0,.86-.17,.99-.68,.19-.71-.21-1.27-.94-1.29-1.09-.03-2.19-.02-3.28-.03-.41,0-.66-.14-.65-.61,.02-.98,.01-1.95,0-2.93,0-.43,.2-.64,.63-.65,.65,0,1.3,0,1.95-.02,.86-.03,1.72-.04,2.57-.18,.32-.05,.74-.37,.85-.66,.26-.69-.06-1.06-.9-1.09Z"/><path class="cls-1" d="M454.12,118.26c-1.36,1.28-2.97,1.59-4.73,1.06-1.69-.51-2.64-1.75-2.86-3.44-.14-1.04-.14-2.15,.04-3.18,.39-2.27,2.06-3.63,4.27-3.67,1.34-.02,2.43,.51,3.35,1.47,.18,.19,.59,.42,.73,.34,.4-.23,.83-.55,1.02-.94,.11-.23-.12-.76-.36-1.01-3.12-3.3-9.01-2.14-10.65,2.09-.6,1.53-.69,3.12-.5,4.74,.42,3.52,3.03,5.84,6.51,5.83,1.75,0,3.3-.54,4.58-1.75,.63-.59,.66-1.2,.11-1.74-.49-.48-.86-.42-1.52,.2Z"/><path class="cls-1" d="M491.76,96.64c-.76-.09-1.53-.15-2.29-.17-1.18-.03-2.36,0-3.54,0-.03-.08-.07-.16-.1-.24,.15-.25,.29-.51,.44-.76,1.9-3.09,3.81-6.17,5.68-9.27,.76-1.26,.23-2.22-1.24-2.27-1.35-.04-2.7,0-4.05,.02-.86,.02-1.72,.05-2.58,.11-.5,.04-.91,.25-.93,.84-.02,.61,.41,.82,.9,.86,.83,.08,1.67,.13,2.5,.15,1.05,.02,2.1,0,3.29,0-.19,.31-.27,.44-.35,.58-1.84,3.01-3.69,6.03-5.53,9.04-.16,.26-.31,.52-.43,.8-.55,1.31-.03,2.1,1.39,2.11,1.63,.01,3.26,.01,4.89,0,.77,0,1.54-.03,2.3-.13,.23-.03,.57-.31,.61-.52,.05-.27-.1-.62-.28-.86-.13-.17-.44-.27-.68-.3Z"/><path class="cls-1" d="M489.69,107.11c-.44,.27-.88,.62-1.16,1.04-.92,1.37-1.78,2.78-2.71,4.25-.37-.59-.67-1.11-1.01-1.61-.73-1.1-1.45-2.22-2.22-3.29-.35-.49-.92-.65-1.43-.33-.54,.34-.19,.86,.01,1.24,.7,1.28,1.37,2.6,2.22,3.79,1.12,1.57,1.58,3.23,1.42,5.15-.09,1.15,.04,2.32,.15,3.48,.07,.68,.5,.91,1.14,.78,.56-.12,.66-.56,.68-1.01,.06-1.86,.08-3.72,.15-5.58,.01-.35,.11-.74,.28-1.04,.78-1.35,1.61-2.67,2.39-4.02,.36-.62,.68-1.27,.96-1.93,.1-.24,.1-.67-.04-.82-.16-.16-.63-.22-.83-.1Z"/><path class="cls-1" d="M512.95,83.97c-2.14,0-4.28,0-6.42,0-.14,0-.3-.03-.41,.03-.27,.14-.69,.3-.72,.51-.05,.34,.06,.8,.28,1.05,.21,.24,.65,.32,1.01,.38,.39,.06,.79,.03,1.18,.02,.53,0,.78,.19,.77,.79-.04,1.69-.01,3.39-.01,5.08,.05,0,.1,0,.15,0,0,1.9-.01,3.81,0,5.71,0,.67,.36,.96,1.08,.96,.74,0,.84-.43,.88-.98,.03-.35,.04-.7,.04-1.04,0-3.21,.03-6.41-.02-9.61,0-.73,.27-.94,.93-.91,.44,.02,.89,.02,1.32-.03,.76-.08,1.18-.53,1.15-1.14-.03-.58-.33-.8-1.22-.81Z"/><path class="cls-1" d="M478.85,107.11c-1.12-.01-2.23,0-3.35,0,0,0,0,0,0,0-1.16,0-2.33-.04-3.49,.03-.32,.02-.77,.29-.89,.56-.21,.49,.04,.96,.56,1.19,.25,.11,.53,.16,.81,.18,.3,.03,.6,0,.91,0,.95,.01,.99,.06,1,.98,.01,2.51,.01,5.02,.04,7.53,.01,1.07,.06,2.13,.12,3.2,.04,.7,.49,.84,1.11,.83,.64,0,.78-.38,.82-.89,.02-.25,.05-.51,.05-.76,.01-3.37,.03-6.74,.01-10.1,0-.58,.19-.79,.75-.78,.6,0,1.21,0,1.8-.12,.59-.12,.91-.55,.83-1.18-.09-.62-.58-.66-1.06-.67Z"/><path class="cls-1" d="M440.36,62.74c.5,.08,1.02,.09,1.53,.08,.61-.01,.86,.2,.85,.86-.04,1.65-.01,3.3-.01,4.95h.13c0,1.9-.03,3.81,.02,5.71,.02,.88,.24,.96,1.08,1,.8,.03,.84-.49,.88-1.04,.03-.37,.03-.74,.03-1.11,0-3.18,.02-6.36-.01-9.55,0-.62,.21-.83,.8-.81,.56,.01,1.14,.05,1.66-.11,.36-.11,.78-.47,.9-.82,.25-.69-.18-1.05-1.18-1.06-2-.02-4,0-6,0-.32,0-.65,.02-.97,.07-.52,.07-.7,.42-.64,.9,.06,.57,.45,.87,.97,.95Z"/><path class="cls-1" d="M477.94,98.34c.25,0,.62-.32,.71-.57,.16-.42-.03-.85-.51-1-.42-.13-.86-.24-1.29-.26-1.16-.05-2.33-.06-3.49-.07-.51,0-.73-.19-.72-.75,.02-2.58-.02-5.16-.02-7.74,0-1.05,.04-2.09,.02-3.14,0-.47-.17-.88-.75-.91-.58-.03-1.09,.06-1.21,.75-.07,.39-.13,.78-.13,1.17-.01,1.81,0,3.62,0,5.44,0,0-.01,0-.02,0,0,1.14-.02,2.28,0,3.42,.02,1,.03,2,.15,2.99,.03,.28,.41,.73,.63,.74,2.21,.03,4.42,0,6.63-.07Z"/><path class="cls-1" d="M481.79,97.75c.05-.32,.11-.64,.11-.97,.03-3.71,.05-7.43,.06-11.14,0-.35-.05-.7-.1-1.04-.07-.44-.32-.69-.81-.7-.81-.03-1.11,.19-1.13,1.12-.04,2.02-.01,4.04-.01,6.06-.03,0-.06,0-.09,0,0,1.56-.02,3.11,0,4.67,.01,.67,.08,1.34,.17,2.01,.06,.48,.34,.72,.86,.72,.53,0,.85-.2,.93-.73Z"/><path class="cls-1" d="M516.24,83.91c-.71,.04-.81,.56-.81,1.08-.02,2.02,0,4.04,0,6.06-.03,0-.06,0-.09,0,0,1.56-.02,3.11,0,4.67,.01,.69,.09,1.39,.18,2.08,.06,.48,.38,.7,.88,.69,.5,0,.81-.19,.89-.69,.06-.34,.12-.69,.12-1.03,.04-3.48,.06-6.96,.08-10.45,0-.49-.04-.97-.09-1.46-.09-.8-.36-.99-1.15-.94Z"/><path class="cls-1" d="M433.17,87.92c-.01-1.04-.03-2.09-.08-3.13-.03-.6-.34-.92-.99-.89-.71,.03-.95,.23-.96,1.14-.06,3.57-.08,7.15-.09,10.72,0,.62,.06,1.25,.14,1.87,.06,.51,.3,.84,.91,.84,.59,0,.86-.28,.93-.81,.05-.34,.1-.69,.1-1.04,0-1.83,0-3.67,0-5.5,.02,0,.04,0,.06,0,0-1.07,.01-2.14,0-3.2Z"/><path class="cls-1" d="M459.64,114.19c0-2.04,.03-4.08-.01-6.13-.02-.81-.32-1.03-1.01-1.04-.71,0-.92,.41-.96,1.02-.02,.32-.07,.65-.07,.97-.02,3.2-.03,6.41-.03,9.61,0,.72,.07,1.44,.14,2.15,.05,.52,.31,.85,.9,.84,.58,0,.86-.27,.93-.82,.04-.37,.11-.74,.11-1.11,.01-1.83,0-3.67,0-5.5,0,0,0,0-.01,0Z"/></g><polygon class="cls-2" points="341.28 85.05 398.07 62.25 388.75 124.57 341.28 85.05"/><polygon class="cls-2" points="355.66 66.33 364.32 124.57 405.01 83.63 355.66 66.33"/><polygon class="cls-2" points="374.78 56.01 343.65 109.59 406.7 106.9 375.14 55.43 374.78 56.01"/></g><g class="cls-3"><path class="cls-1" d="M308.92,140.5c-.28,0-.5-.22-.5-.5V40c0-.28,.22-.5,.5-.5s.5,.22,.5,.5v100c0,.28-.22,.5-.5,.5Z"/></g></svg>