<svg viewBox="0 0 63 63" xmlns="http://www.w3.org/2000/svg"><path d="m52.5977244 25.081655c3.7297178 0 10.2185518 3.162625 10.2185518 6.9795863 0 3.9260172-6.488834 6.9795862-10.2185518 6.9795862h-12.715931l-10.9601315 19.1829559c-.6216208 1.0796541-1.7776154 1.7558028-3.0317598 1.7558028h-6.1289489c-1.1559929 0-1.9957257-1.1123728-1.6794622-2.2247424l5.3546503-18.7140163h-11.2218654l-4.71122035 6.2816283c-.32934969.4362241-.8462759.697958-1.39591925.697958h-4.57708192c-.84474829 0-1.53005604-.6870517-1.53005604-1.6249343 0-.0436218.01982564-.1853966.05886789-.3271681l3.43092523-12.0070701-3.43092523-12.0070702c-.03904225-.1417715-.05886789-.2835463-.05886789-.4253179 0-.8397328.68530775-1.5267844 1.53005604-1.5267844h4.57708192c.54964335 0 1.06656956.2617338 1.39591925.6979579l4.71122035 6.2816283h11.2218654l-5.3546503-18.7140163c-.3162635-1.11564111.5234693-2.22474245 1.6794622-2.22474245h6.1289489c1.2541444 0 2.410139.67102344 3.0317598 1.75798275l10.9601315 19.180776z"/></svg>