<?xml version="1.0" encoding="UTF-8"?>
<svg width="339px" height="386px" viewBox="0 0 339 386" version="1.1" xmlns="http://www.w3.org/2000/svg" xmlns:xlink="http://www.w3.org/1999/xlink">
    <title>Group 30</title>
    <g id="Page-1" stroke="none" stroke-width="1" fill="none" fill-rule="evenodd">
        <g id="Group-30">
            <path d="M88,386 L52.3170667,386 C49.7937452,386 47.6658628,384.119848 47.3551243,381.615733 L0.696862606,5.615733 C0.356802659,2.87532786 2.30266691,0.378117499 5.04307205,0.0380575509 C5.24733739,0.012710036 5.45297302,-1.15085087e-14 5.65880506,0 L56.0701063,0 L56.0701063,0 L88,386 Z" id="Fill-18" fill="#CE3838"></path>
            <polygon id="Fill-20" fill="#F2F2F2" points="129 386 88.3556651 386 56 0 112.817777 0"></polygon>
            <polygon id="Fill-24" fill="#F2F2F2" points="226 0 209.768387 386 169 386 169 0"></polygon>
            <polygon id="Fill-26" fill="#CE3838" points="283 0 250.644335 386 210 386 226.182223 0"></polygon>
            <path d="M338.303137,5.615733 L291.644876,381.615733 C291.334137,384.119848 289.206255,386 286.682933,386 L251,386 L251,386 L282.929894,0 L333.341195,0 C336.102619,-5.07265313e-16 338.341195,2.23857625 338.341195,5 C338.341195,5.20583203 338.328485,5.41146767 338.303137,5.615733 Z" id="Fill-28" fill="#F2F2F2"></path>
            <polygon id="Fill-22" fill="#CE3838" points="169 0 169 386 128.234121 386 112 0"></polygon>
        </g>
    </g>
</svg>