<?xml version="1.0" encoding="UTF-8"?><svg id="Layer_1" xmlns="http://www.w3.org/2000/svg" viewBox="0 0 563 180"><defs><style>.cls-1{fill:#fff;fill-rule:evenodd;}</style></defs><g id="Page-1"><path id="Combined-Shape-Copy-2" class="cls-1" d="M434.2,127.4c.16,.12,.34,.2,.67,.38,.97-.42,.15-3.17,2.63-1.9,.08,.28,.27,.63,.27,.99,.02,4.91,.17,9.83-.05,14.74-.2,4.62-2.91,7.42-7.32,8.16-5.4,.91-9.72-.85-11.83-4.97,1.44-.87,2.32-.19,3.06,.62,2.48,2.69,5.74,2.6,8.97,2.03,3.45-.62,4.81-2.82,4.5-6.8-.66,.32-1.26,.57-1.82,.89-4.62,2.62-10.19,1.85-13.42-1.87-3.04-3.5-2.63-8.48,.96-11.83,3.87-3.61,8.82-3.77,13.37-.43Zm-121.98-2.18c2.33,.52,4.36,1.56,5.88,3.38,3.08,3.68,2.96,8.76-.27,12.24-3.59,3.86-8.24,3.99-15.1,.19v8.9c-2.41,.4-2.39-.85-2.39-2.03-.01-5.11,0-10.23,0-15.34v-6.48h0c1.76-.78,2.12-.13,2.35,.71l.05,.19c.09,.35,.18,.72,.35,1.02,2.69-1.99,5.55-3.58,9.13-2.78Zm90.19-.13c.13,.6,.39,1.27,.39,1.95,.02,3.37,.08,6.75-.06,10.11-.2,4.67-2.8,7.53-6.88,7.83-4.12,.3-7.36-2.09-7.81-6.6-.43-4.33-.09-8.77-.09-13.24,2.02-.5,1.99,.79,2,1.97,.03,3.16-.04,6.32,.06,9.48,.1,3.5,2.09,5.79,4.98,5.93,3.13,.16,5.33-1.99,5.49-5.59,.15-3.26,.07-6.53,.13-9.8,.02-1.15-.04-2.49,1.79-2.05Zm-41.69,.88c.69,.44,1.26,1.1,1.88,1.66l-.11,.75h0c-.59,.1-1.23,.4-1.76,.25-.71-.19-1.3-.85-2-1.1-1.32-.47-2.48-.04-3.15,1.29-.62,1.22-.35,2.47,.66,3.3,.32,.27,.67,.49,1.03,.71l.72,.43c.48,.29,.94,.59,1.34,.98,1.22,1.19,2.64,2.46,3.22,4.03,.9,2.44-.38,4.88-2.57,6.13-2.06,1.18-5.45,.63-6.78-1.23-.32-.45-.2-1.26-.36-2.52,1.37,.75,2.08,1.17,2.82,1.53,1.86,.89,3.7,.42,4.51-1.11,.87-1.63,.3-3.27-1.63-4.56-1.04-.7-2.17-1.26-3.15-2.05-2.4-1.94-2.97-4.63-1.61-6.97,1.52-2.6,4.27-3.22,6.93-1.5Zm-33.57-.96c.95,5.77,.64,11.39,.63,17.01l-1.01,.49h0c-.47-.51-1.35-1.01-1.36-1.53-.11-4.86-.11-9.72,0-14.58,.01-.52,.87-1.03,1.74-1.39Zm19.38-5.61v.3c0,.07,0,.13,0,.2,.05,1.28,.01,2.56,.01,3.93,1.4,.38,2.55,.7,3.79,1.03-.33,2.12-2.55,.85-3.78,1.88v4.97h0c0,3.08,.04,6.16-.04,9.24-.04,1.48-.14,1.48-2.52,1.56v-15.47c-1.52-.61-2.59-1.04-3.66-1.47,.03-.21,.05-.42,.08-.63,1.03-.32,2.07-.64,3.37-1.05,.14-2.05,.28-4.17,.42-6.29,2.3-.43,2.33,.71,2.33,1.79Zm95.96-.45c.02,.78,.03,1.57,.03,2.35v2.35h0v.28h0v.58c0,.19,0,.39,0,.6v.98c0,.12,0,.23,0,.36v.77h0c1.13-.84,1.84-1.41,2.58-1.91,4.68-3.12,9.6-.48,9.96,5.41,.2,3.22,.3,6.45,.26,9.67-.02,1.7-.21,1.72-2.12,2.09-.08-1.06-.21-2.08-.23-3.11-.05-2.84-.03-5.68-.09-8.52-.04-1.91-.82-3.41-2.5-4.18-1.72-.79-3.37-.5-4.87,.68-1.88,1.48-2.89,3.48-2.95,5.99-.05,2.05-.02,4.11-.05,6.17-.02,.95-.11,1.9-.16,2.76-1.69,.71-1.99-.21-2-1.46-.02-2.64-.01-5.29-.02-7.93,0-4.01-.01-8.03,0-12.04,0-1.05,.1-2.1,.15-3.02,1.45-.68,1.96-.09,2,1.15Zm-108.52,.23v.21c0,.11,0,.21,0,.32v.21s0,.07,0,.1c.05,1.26,.01,2.52,.01,3.8,1.5,.4,2.63,.7,3.84,1.03-.54,1.89-2.31,1-3.59,2.09-.06,.62-.23,1.66-.24,2.7-.04,3.65,0,7.31-.04,10.96v.2c-.02,1.04-.16,2.09-2.41,1.57-.08-5.12-.16-10.37-.25-15.52-1.39-.5-2.4-.86-3.42-1.23l-.07-.63h0c1.06-.37,2.11-.75,3.41-1.21,.14-2.01,.28-4.12,.43-6.25,1.98-.18,2.24,.68,2.29,1.64Zm33.83-.02c.02,2.44,0,4.89,0,7.81,3.26-2.17,6.17-3.77,9.87-2.87,2.49,.6,4.35,1.99,5.84,3.84,2.82,3.49,2.31,8.42-1.13,11.69-4.02,3.83-8.45,3.87-14.16,.09-.23,.19-.33,.52-.41,.86l-.07,.31c-.17,.73-.42,1.38-1.78,.88-.36-1.01-.58-6.11-.62-11.39v-.93c0-.16,0-.31,0-.47v-.93c0-4.64,.16-8.97,.47-10.32,1.5-.58,1.97,.17,1.99,1.44Zm50.04,6.66c-.71,.47-1.18,1-1.78,1.15-4.04,.98-5.46,2.33-5.65,5.86-.14,2.6-.08,5.2-.14,7.8v.28c-.03,.94-.19,1.85-2.42,1.54v-17.23c1.32,.49,2.25,.84,3.44,1.29,1.72-.67,3.58-2.56,6.56-.69Zm-107.66,1.47c-4.18,.03-7.44,3.18-7.45,7.21-.01,4.03,3.18,7.15,7.4,7.23,4.21,.07,7.82-3.35,7.75-7.33-.07-3.89-3.58-7.13-7.7-7.1Zm117.89-.08c-4.2-.05-7.84,3.23-7.75,7.12,.1,4.03,3.47,6.85,7.43,6.54,4.66,.03,7.57-2.47,7.64-6.57,.07-3.9-3.17-7.04-7.33-7.09Zm-52.89-1.15c-4.3,.06-7.53,3.3-7.41,7.43,.11,4.08,3.33,6.94,7.67,6.82,4.16-.11,7.55-3.4,7.46-7.22-.1-3.79-3.71-7.08-7.72-7.03ZM67.18,45c2.45,.58,4.72,1.12,7.18,1.71-.2,1.75-.43,3.21-.52,4.68-.21,3.4,1.49,4.61,4.58,3.28,1.27-.55,2.54-1.11,4.18-1.83,1.29,2.11,2.51,4.11,3.88,6.36-1.45,1.13-2.77,2.14-4.06,3.17-2.12,1.69-1.81,3.95,.7,5.09,.73,.33,1.51,.53,2.25,.83,.72,.3,1.41,.66,2.47,1.15l-.1,.41,.05-.05c1.45-1.58,2.87-3.11,4.44-4.82,2.21,1.58,4.28,3.05,6.56,4.67,1.1-.81,2.18-1.6,3.33-2.44-.16-.57-.32-1.12-.48-1.68l-.48-1.66c-.4-1.39-.81-2.8-1.25-4.34l.83-.37h0l1.65-.73c1.38-.61,2.77-1.23,4.27-1.89l1.69,2.68c.84,1.32,1.67,2.64,2.53,4.01,1.28-.33,2.41-.62,3.61-.93,.39-2.47,.76-4.79,1.16-7.31h7.32c.37,2.15,.74,4.35,1.15,6.8,.81,.25,1.72,.53,2.87,.88,1.27-2.25,2.48-4.38,3.83-6.76,2.3,.94,4.47,1.83,6.83,2.8-.58,2.45-1.09,4.64-1.64,6.95,.91,.58,1.73,1.1,2.7,1.71,1.9-1.51,3.75-2.97,5.93-4.69,1.67,1.77,3.28,3.48,5.08,5.39-1.27,1.8-2.52,3.55-3.71,5.24,1.55,3.22,1.95,3.4,5.03,2.35,1.12-.38,2.24-.76,3.72-1.26,1.06,2.24,2.06,4.35,3.19,6.75-1.93,1.23-3.74,2.38-5.81,3.7,.21,.96,.43,1.97,.67,3.1,2.3,.34,4.44,.65,6.99,1.02,.19,2.4,.37,4.69,.56,7.15-2.33,.44-4.26,.81-6.7,1.27-.2,1.22-.43,2.59-.67,4.03,2.33,1.23,4.16,2.2,6.17,3.26-.83,2.3-1.59,4.41-2.44,6.77-1.27-.21-2.31-.38-3.35-.57-1.07-.2-2.13-.42-3.41-.68-.77,1.19-1.5,2.32-2.31,3.58,1.45,1.79,2.82,3.46,4.42,5.43-1.59,1.78-3.14,3.52-4.88,5.47-1.16-.75-2.15-1.36-3.11-2.02-.89-.62-1.74-1.29-2.75-2.05-1.26,.88-2.46,1.72-3.86,2.69l.2,.75h0l.41,1.49c.41,1.49,.82,3.01,1.28,4.68-2.22,.97-4.36,1.9-6.73,2.94-1.34-2.14-2.53-4.05-3.87-6.2-1.3,.25-2.62,.5-4.03,.76-.35,2.48-.67,4.8-1.02,7.28h-7.35c-.38-2.38-.76-4.78-1.17-7.34l-.38-.1h0l-.76-.2c-.51-.13-1.03-.27-1.63-.43-1.29,2.25-2.5,4.37-3.88,6.78-2.38-.91-4.56-1.75-6.99-2.69,.49-1.77,.91-3.27,1.33-4.76q.74-2.63-1.91-4.53c-1.65,1.39-3.36,2.83-5.47,4.61-1.75-1.67-3.49-3.34-5.41-5.17,1.47-1.99,2.81-3.8,4.22-5.7-.7-.99-1.32-1.86-2.05-2.88-2.26,.67-4.42,1.3-6.94,2.05-1.06-2.25-2.04-4.33-3.13-6.64,.94-.58,1.83-1.13,2.71-1.67l1.75-1.08c.58-.36,1.18-.72,1.78-1.1-.28-1.02-.53-1.93-.85-3.05-2.36-.2-4.62-.39-7.22-.6v-7.26c2.08-.41,4.29-.84,6.69-1.31,.25-1.06,.5-2.09,.82-3.45-2.2-1.18-4.34-2.34-6.83-3.68,.76-2.19,1.5-4.29,2.35-6.74,2.53,.5,4.92,.96,7.43,1.45,.58-.88,1.11-1.69,1.76-2.66-1.67-1.97-3.28-3.88-5.06-5.99-.44,1.76-.87,3.52-1.35,5.46-1.46-.12-2.73-.15-3.97-.34-2.88-.46-2.88-.48-4.64,2.28,.87,1.86,1.78,3.82,2.84,6.09-2.1,1.34-4.08,2.6-6.25,3.99-1.62-1.86-3.1-3.57-4.49-5.16-2.73-.36-4.13,.8-4.72,3.21-.28,1.13-.8,2.2-1.32,3.6-2.41-.6-4.59-1.14-7.11-1.77,.12-1.41,.08-2.68,.35-3.89,.5-2.25,.07-3.94-2.54-4.95-1.78,.78-3.77,1.66-6.21,2.73-1.25-2.09-2.48-4.17-3.83-6.44,1.94-1.5,3.65-2.83,5.28-4.09-.03-3.36-.06-3.39-2.95-4.45-1.2-.44-2.38-.93-3.73-1.46,.39-1.76,.7-3.31,1.09-4.83,.2-.75,.56-1.46,.91-2.36,2.15,.27,4.2,.52,6.54,.81,.58-.75,1.23-1.59,1.9-2.47-.97-2.07-1.9-4.03-2.93-6.21,2.14-1.38,4.11-2.66,6.34-4.09,.93,1.16,1.85,2.07,2.48,3.14,1.31,2.24,3.09,2.58,5.57,1.56,.73-1.87,1.53-3.88,2.45-6.22Zm132.53,34.43c5.54,5.2,7.16,14.14,4.08,21.19-2.16,4.93-5.68,8.34-10.9,9.83-5.18,1.48-9.66-.28-14.31-3.57v15.62h-8.24v-46.17h7.73c.24,.72,.51,1.55,.88,2.66,7.03-4.97,14.1-5.83,20.77,.44Zm349.67-3.94c3.88,.9,6.99,3,9.57,6.03,5.4,6.35,5.22,17.64-.83,23.9-2.32,2.4-4.99,4.11-8.2,4.93-3.19,.82-6.48,1.05-9.5-.29-2.88-1.28-5.51-3.14-8.67-5v17.43h-3.91v-46.26h3.8c.14,1.71,.26,3.19,.43,5.3,4.93-5.37,10.53-7.62,17.32-6.05ZM95.45,94.44c-.16,11.7,8.82,25.13,24.83,25.17,15.04,.03,24.82-11.92,24.98-24.42,.19-13.97-11.71-25.3-24.7-24.94-13.91-.47-24.94,11.5-25.12,24.19Zm-53.37-14.44c1.66,1.84,.33,5.24,3.91,5.41,1.08-.98,2.26-2.04,3.64-3.29,1.36,1.07,2.66,2.1,4.12,3.25-.65,1.11-1.19,1.98-1.69,2.86-1.2,2.13-.51,3.49,1.87,3.63,1.01,.06,2.04,0,3.4,0,.2,2.06,.35,3.63,.51,5.29-.33,.09-.65,.18-.96,.26l-.89,.24c-.57,.15-1.11,.3-1.64,.47-1.91,.62-2.34,1.91-1.01,3.35,.76,.82,1.78,1.4,2.92,2.26-1.4,1.8-2.41,3.1-3.6,4.63-1.08-.65-2-1.26-2.97-1.77-1.9-1-3.35-.2-3.55,1.93-.05,.56,.02,1.14-.01,1.71-.02,.47-.11,.93-.22,1.83-1.61,.14-3.23,.28-5.08,.44-.34-1.17-.63-2.14-.91-3.1-.66-2.27-2.19-2.71-3.99-1.11-.77,.68-1.48,1.42-2.36,2.27-1.44-1.15-2.73-2.19-4.14-3.32,.91-1.56,1.7-2.92,2.45-4.21-.53-2.11-1.92-2.14-3.36-2.16h-.32c-.8-.02-1.6-.09-2.27-.56-.2-1.39-.42-2.95-.62-4.3,.54-.78,1.41-1,2.29-1.18l.31-.06c1.34-.26,2.62-.54,2.7-2.7-.93-1.04-1.99-2.22-3.24-3.62,1.05-1.36,2.06-2.66,3.17-4.09,1.54,.85,2.84,1.58,4.08,2.26,3.82-.53,1.85-3.82,2.98-5.98,1.44-.21,3.06-.44,4.45-.65Zm86.06-4.08c7.05,5.45,11.98,14.75,8.62,23.92-1.67,4.57-4.59,8.4-8.62,11.59-1.89,1.49-2.72,1.46-5.3-.34,1.03-1.04,1.87-1.94,2.78-2.79,9.36-8.77,9.37-20.46,.01-29.23-.83-.78-1.61-1.6-2.4-2.37,2.09-2,3.07-2.2,4.9-.78Zm-10.56,5.03c5.5,4.13,9.49,11.41,7,18.69-1.26,3.69-3.62,6.8-6.85,9.41-.49,.4-1.1,.95-1.66,.95-1.04,0-2.09-.33-3.13-.53,.27-.77,.27-1.78,.85-2.28,2.57-2.21,4.45-4.77,5.53-7.73,2.18-5.99-.1-11.05-4.53-15.62-.58-.6-1.21-1.18-1.78-1.79-.13-.14-.12-.37-.18-.55,1.86-1.79,2.84-1.98,4.74-.55Zm124.9-5.95c10.09,.07,17.8,7.16,17.86,17.37,.05,9.84-7.04,17.29-17.6,17.63-9.42,.06-17.3-7.74-17.4-17.22-.1-9.65,7.62-17.85,17.14-17.78Zm182.86,7.8c-.84,.54-1.7,1.09-2.7,1.74-.82-.73-1.54-1.35-2.24-2-5.06-4.72-13.4-4.46-17.94-.99-4.91,3.75-6.16,8.77-4.93,14.54,1.13,5.31,6.17,9.44,11.43,9.88,4.42,.37,8.37-.73,11.72-3.86,.5-.46,1.04-.87,1.57-1.29,.07-.06,.18-.06,.56-.18,.7,.45,1.56,1.01,2.41,1.55-2.66,5.98-10.96,9.11-19.14,7.29-7.76-1.73-13.28-8.19-13.24-16.57,.05-9.46,5.95-15.56,13.25-17.33,8.07-1.96,16.56,1.26,19.25,7.23Zm-42.25-52.81c1.98,7.38,7.43,11.8,13.47,15.4,15.14,9,30.22,7.76,44.93-1.22,5.69-3.47,10.58-7.8,13.7-13.87h2.65c.2,.37,.45,.61,.46,.87,.13,2.65,.25,5.29,.31,7.93,.14,5.41,.28,10.82,.34,16.23,.07,6.99,.05,14,.07,20.99,0,.69,.01,1.38,.02,2.07,.02,1.31,.71,2.14,2.09,2.83,.16-1.68,.3-3.1,.45-4.76h3.76v32.18h-3.68c-.21-1.46-.39-2.78-.63-4.51-8.13,6.94-16.45,8.1-24.86,1.32-5.96-4.81-7.24-13.19-4.45-19.46,4.17-9.37,12-12.04,22.1-10.06h0v-9.66c-2.59-.78-64.25-.89-67.54-.17h0v9.66c.93,.15,1.7,.28,2.47,.39,.68,.1,1.36,.19,2.29,.31h0v6.12c-1.71,.25-3.17,.45-5.02,.71h0v25.37h-8.27c-.07-8.51-.13-16.91-.2-25.37-1.52-.3-2.67-.53-3.99-.79h0v-5.97c1.3-.26,2.44-.5,3.79-.77h0v-9.9h-67.22c.06,3.66-1.15,7.18,.75,10.66,.48,.88,.39,2.1,.43,3.16,.19,5.71,.11,11.43,.58,17.11,.37,4.58,5.28,6.84,9.16,4.52,2.1-1.25,2.85-3.23,2.87-5.52,.03-5.22,.02-10.44,.05-15.67,0-1.16,.11-2.32,.19-3.72h7.76c.16,.65,.45,1.29,.45,1.93,0,6.11,.11,12.22-.13,18.33-.22,5.4-2.59,9.83-7.93,11.92-7.91,3.09-18.22,.99-20.68-9.05-.49-2-.69-4.09-.74-6.14-.11-4.83-.1-9.66,0-14.48,.02-.98,.67-1.93,.97-2.91,.28-.9,.66-1.83,.67-2.75,.09-6.3,.05-12.61,.13-18.92,.1-7.38,.29-14.76,.45-22.14,0-.49,.13-.97,.25-1.84h2.87c3.71,9.49,11.23,14.7,20.08,18.22,15.17,6.02,28.97,2.37,41.66-6.7,2.79-2,5.14-4.65,7.47-7.19,1.09-1.2,1.65-2.87,2.68-4.73h2.93Zm-87.75,32.5v46.25h-7.27c-.24-.78-.48-1.57-.78-2.53-.54,.36-.95,.59-1.32,.88-7.88,6.37-19.36,1.73-22.23-9.04-1.9-7.13-.95-13.83,4.23-19.29,4.59-4.83,11.41-5.66,16.9-2.1,.78,.5,1.55,1.02,2.78,1.83v-15.99h7.68Zm73.19,15.95c1.35,.97,2.49,2.23,4.31,3.89-1.95,1.08-3.57,1.97-5.15,2.84l-.94,.52c-.31,.17-.63,.35-.95,.52-.78-.57-1.48-1.1-2.2-1.62-3.76-2.7-9.75-2.6-13.34,.2-3.41,2.67-4.71,6.68-3.47,10.68,1.25,4.02,4.49,6.48,9,6.79,3.73,.26,6.92-.99,9.92-3.71l1.82,1.24c1.52,1.03,3.05,2.08,4.66,3.18-4.34,5.49-9.97,7.18-16.27,6.99-9.32-.28-15.85-5.51-17.7-13.87-2.07-9.37,4.24-18.82,13.83-20.6,5.85-1.08,11.47-.62,16.46,2.93Zm123.76-2.79c3.31,.98,5.28,3.36,6.74,6.65,.74-.89,1.24-1.54,1.79-2.15,3.36-3.72,7.48-5.8,12.75-4.91,5.02,.84,8.76,4.37,9.03,9.43,.4,7.26,.16,14.55,.18,21.83,0,.26-.22,.52-.42,.98h-3.6c-.07-1.21-.18-2.24-.18-3.26-.02-4.98,0-9.96-.01-14.95,0-.96,.02-1.92-.05-2.87-.53-6.72-7.22-9.83-13.13-6.07-2.81,1.78-4.72,4.27-4.94,7.54-.34,5.25-.43,10.51-.63,15.76-.05,1.22-.11,2.43-.18,3.86h-3.8c-.09-1.02-.24-2.03-.24-3.03-.03-4.79,.02-9.58-.03-14.37-.02-1.53-.21-3.05-.38-4.57-.83-7.6-9.47-8.08-13.71-4.58-3.22,2.66-4.5,6.04-4.57,9.93-.08,4.41-.03,8.81-.04,13.22v.39h0v2.97h-4.03v-31.28c1.14-.08,2.27-.16,3.7-.26,.19,1.51,.36,2.79,.58,4.52,.93-.81,1.64-1.41,2.33-2.02,3.72-3.29,8.03-4.18,12.84-2.75Zm-266.95,.26c-.8,2.07-1.57,4.09-2.32,6.03-4.67-.02-6.16,1.07-6.83,5.45-.37,2.45-.26,4.96-.29,7.45-.04,4.1-.01,8.2-.01,12.65h-8.06v-31.37h6.5c.13,.36,.27,.71,.36,1.06,.1,.36,.16,.72,.31,1.38,2.96-2.66,5.91-4.89,10.33-2.66Zm319.78,3.25c-7.72-.04-13.37,5.8-13.37,13.82,0,8.04,5.62,13.83,13.4,13.82,7.37,0,13.29-6.1,13.33-13.72,.04-7.92-5.68-13.89-13.37-13.93Zm-96.82,.11c-7.64-.02-13.41,5.49-13.5,12.91-.1,7.61,5.65,13.65,13.06,13.72,7.79,.09,13.54-5.45,13.59-13.09,.05-7.7-5.6-13.52-13.15-13.55Zm-337.95,4.13c3.51,3.05,6.77,9.05,3.85,15.03-.98,2.01-2.48,3.85-4.05,5.5-1.51,1.57-2.48,1.39-4.82-.41,6.76-6.45,7.11-12.98,.4-19.4,1.54-1.88,3-2.13,4.62-.72Zm-68.82,4.4c-5,.02-8.48,3.59-8.44,8.64,.04,4.93,3.7,8.57,8.6,8.54,4.81-.03,8.5-3.81,8.49-8.71,0-4.89-3.68-8.49-8.65-8.47Zm146.15-4.86c-5.36,.01-9.61,4.42-9.58,10.1,.03,5.61,4.08,9.98,9.31,10.05,5.17,.07,9.27-4.33,9.3-9.94,.51-5.76-4.55-10.21-9.03-10.2Zm45.99,9.53c0,5.54,3.83,9.71,9.02,9.81,5.17,.1,8.96-3.97,8.99-9.65,.04-5.84-3.44-9.84-8.66-9.96-5.23-.11-9.36,4.22-9.36,9.8Zm45.68-10.2c-4.83,.04-8.6,4.42-8.59,9.97,.01,5.51,3.86,9.92,8.66,9.92,4.96,0,8.72-4.37,8.72-10.14,0-5.46-3.91-9.79-8.8-9.75ZM13.36,74.85c.99,1.53,2.2,1.68,3.41,.36,.61-.66,1.13-1.4,1.95-2.44,1.39,.78,2.49,1.4,3.36,1.89-.13,1.92-.78,3.78-.15,4.93,.42,.77,2.64,.53,4.66,.84,.28,.83,.75,2.2,1.25,3.67-.98,.51-1.69,.86-2.39,1.23-2.05,1.08-2.18,2.17-.43,3.63,.61,.51,1.26,.98,2.12,1.64-.63,1.3-1.23,2.54-1.9,3.91-.95-.28-1.7-.49-2.44-.71-2.28-.67-2.99-.1-2.78,2.27,.07,.8,.18,1.6,.3,2.6-1.39,.45-2.69,.88-4.08,1.34-.59-1.1-1.03-2.01-1.57-2.86-.94-1.47-1.94-1.58-3.16-.31-.69,.72-1.27,1.55-2.04,2.52-1.27-.72-2.46-1.39-3.53-1.99-.24-2.03,2.13-3.92-.37-5.61-1.2,.11-2.47,.24-3.94,.38-.46-1.4-.86-2.63-1.31-4.01,.7-.43,1.26-.82,1.86-1.13,2.73-1.4,2.8-2.31,.3-4.29-.47-.37-.91-.77-1.55-1.31,.7-1.29,1.37-2.5,1.94-3.56,1.96-.37,3.63,2,5.42-.19-.11-1.25-.23-2.63-.34-3.9q3.51-1.79,5.39,1.13Zm.82,3.76c-4.01-.05-7.39,3.25-7.45,7.27-.07,4.38,3.02,7.54,7.37,7.56,4.18,.02,7.2-3.06,7.22-7.35,.02-4.26-3.02-7.43-7.15-7.48Zm50.98-23.16c-6.46,.05-11.72,5.38-11.74,11.91-.02,6.78,5.09,11.93,11.86,11.97,6.74,.04,12.05-5.12,12.14-11.77,.09-6.52-5.62-12.16-12.26-12.11Zm352.87,5.96h-2.03c-15.86,.01-30.95,.23-32.37,.67,1.16,1.71,2.68,1.23,3.96,1.23,20.98,.03,41.97,.02,62.95,.02,.8,0,1.63,.06,2.39-.11,.42-.1,.74-.64,1.21-1.08-1.32-.47-18.85-.72-36.1-.73Zm-42.61,.03c-9.54-.03-19.07-.02-28.61-.02-11.34,0-22.69,0-34.03,.04-1.09,0-2.17,.27-3.25,.41,0,.32,0,.64-.01,.96,1.07,.16,2.15,.45,3.22,.45,8.13,.04,16.26,.02,24.4,.02,12.85,0,25.69,.01,38.55-.02,1.09,0,2.17-.28,3.26-.43,0-.32,0-.65,.01-.97-1.18-.16-2.36-.45-3.54-.45Zm20.93-14.65c-1.13,3.47-.92,11.34,.23,13.8,.57-.9,1.34-1.55,1.29-2.13-.37-3.9,1.31-8.11-1.52-11.67Zm-71.74,1.76c-.26,.14-.52,.27-.78,.41,.17,1.27,.12,2.56,.06,3.87l-.04,.79c-.1,2.24-.13,4.55,.93,6.97,.78-.73,1.18-.93,1.19-1.13,.08-3.13,.19-6.27,.1-9.39-.01-.51-.95-1-1.46-1.51Zm64.91-6.18c-1.01,4.31-.62,15.97,.92,18.21,.45-.99,.92-1.55,.93-2.11,.06-4.63,.05-9.26,.02-13.88,0-1.2-.57-2-1.88-2.22Zm-30.03,6.55c-.28,.51-.77,1-.79,1.52-.11,2.93-.15,5.87-.07,8.8,0,.34,.89,.66,1.84,1.32h0v-11.03c-.33-.2-.66-.4-.98-.6Zm-47.96-9.45c-.9,5.79-.47,18.93,.97,21.07,.45-.95,1.04-1.63,1.06-2.32,.08-5.49,.06-10.98,.02-16.47-.01-1.26-.56-2.19-2.05-2.28Zm42.26,11.77c-.6,.66-1.41,1.15-1.42,1.64-.06,2.42-.75,4.94,.74,7.66,1.75-2.1,1.97-5.98,.68-9.3Zm53.27,1.06c-.04-1.11-.73-1.57-2.36-.83,.14,2.59,.28,5.39,.52,8.18,.02,.22,.77,.38,1.87,.88,0-3.17,.06-5.71-.02-8.24Zm17.46-.05c-1.07,2.18-.46,4.58-.42,6.89,0,.33,.68,.66,1.48,1.39h0v-8.16c-.36-.04-.71-.09-1.06-.13Zm-10.89,2.37c.14-1.15-.19-2.2-2.2-1.93-.07,2.56-.63,5.02,.58,7.85,2.57-1.74,1.39-4.04,1.62-5.92Zm-20.49-9.66c-.28,.09-.57,.19-.85,.28-.3,4.54-.19,9.09-.02,13.63,.02,.44,.6,.86,1.12,1.54,.46-.73,.99-1.17,1-1.62,.07-4.02,.11-8.03,0-12.05-.01-.61-.81-1.2-1.24-1.8Zm45.36,2.53q-1.85,1.71-1.9,3.4-.23,7.74,1.47,9.52c.92-4.33,.36-8.34,.43-12.93Zm-120.26-3.14c-.99,5.68-.71,13.92,.62,16.06,.39-.61,.75-.92,.75-1.23,.05-4.14,.11-8.28,.03-12.41-.01-.64-.72-1.28-1.41-2.41Zm91.26,7.93c-1.72,2.08-1.64,6.12,.11,8.11,.91-2.91,.75-5.49-.11-8.11Zm22.68-1.87c-2.18,.34-2.02,1.7-2.06,2.92q-.21,5.77,2,7.01c.52-3.43,.51-6.57,.06-9.93Zm-3.79,.62c-.63,.86-1.28,1.34-1.28,1.81-.01,2.44-.59,4.96,.48,7.48,2.02-1.46,2.38-5.42,.8-9.3Zm-71.13-.51c-1.89,1.16-2.07,1.17-1.9,3.27,.05,.54,0,1.11-.05,1.69l-.04,.43c-.14,1.52-.2,3.08,1.26,4.41,1.3-1.96,1.54-5.71,.74-9.8Zm6.83-2.67c-2.07-.03-2.28,.99-2.28,2.13,0,2.84-.02,5.68,.03,8.51,.01,.53,.3,1.06,.45,1.58,.24,.08,.48,.15,.71,.23,.37-.49,1.04-.96,1.07-1.47,.22-3.66,.25-7.32,.02-10.99Zm-30.01,4.01c-1.15,2.75-.95,6.72,.61,8.43,1.4-3.41,1.04-7.46-.61-8.43Zm-24.81-15.26c-.48,7.71-.67,15.4,.4,23.68,1.35-3.33,1.13-21.55-.4-23.68Zm18.29,12.61c-1.27,5.49-.84,9.71,1.15,11.07,1.13-3.02,.51-6.03,.46-8.94,0-.54-.78-1.07-1.61-2.13Zm11.32,5.15c-.12-1.13-.28-2.17-2.11-1.81h0v7.73c2.2-1.07,2.51-2.2,2.11-5.92Zm-7.61-3.69c-1.17,1.81-1.73,6.43-1.1,8.29,.1,.28,.32,.52,.58,.75l.31,.28c.1,.09,.2,.19,.29,.28,.3-.13,.59-.26,.89-.4-.07-.95,.02-1.92,.1-2.89l.05-.59c.14-1.87,.13-3.78-1.1-5.72Zm12.43,2.09c-1.86,1.64-.87,3.95-.9,5.97,0,.51,.86,1.03,1.33,1.54,.19-.12,.38-.24,.57-.36h0v-6.94h0l-.99-.21Zm29.6-11.28c-2.04,.37-2.36,1.84-2.36,3.54h0v10.92c0,.99-.07,1.99,.12,2.95,.27,1.37,1.08,1.82,2.36,.92-.04-6.11-.07-12.22-.11-18.33Zm73.88,.3c-.47,.97-1.31,1.93-1.34,2.91-.14,4.52-.1,9.04-.01,13.57,.01,.67,.62,1.34,.94,2,.37-.07,.73-.14,1.1-.2,.6-5.95,.11-11.95,.3-17.91-.33-.12-.66-.25-.99-.37Zm-68.21-6.89c-.69,.9-1.04,1.36-1.4,1.82,.04,7.84,.07,15.7,.1,23.54,1.64,.12,1.68-.99,1.69-2.12,.02-7.13,.04-14.24,.04-21.37,0-.42-.19-.85-.43-1.87Zm-2.68,3.67c-.61,.75-1.22,1.49-1.83,2.24,.02,6.33,.04,12.66,.05,18.99,.57,.15,1.15,.3,1.73,.46,.02-7.23,.03-14.46,.05-21.68Zm74.44,.38c-.66,.81-1.29,1.22-1.3,1.64-.09,6.36-.1,12.73-.08,19.09,0,.18,.6,.37,.92,.56,1.08-1.85,1.44-16.17,.46-21.29Zm-110.16,14.04c-1.44,2.11-1.39,5.19,.28,7.24,1.71-2.53,1.51-5.95-.28-7.24Zm103.29-8.9c-.46,1.09-1.03,1.87-1.11,2.68-.64,6.52-.14,11.93,1.27,13.45,1.44-2.33,1.45-13.62-.16-16.13Zm-45.08,4.67c-.16,3.83-.21,7.53,.01,11.24,.42,.06,.84,.12,1.26,.18,1.22-1.81,1.16-3.81,1.01-5.82l-.07-.95c-.06-.84-.1-1.69-.03-2.51,.08-1.09-.34-2.11-2.18-2.13Zm-12.31-9.38c-.17,.4-.39,.64-.39,.88-.03,5.98-.07,11.96-.03,17.95,0,.66,.43,1.31,.66,1.97,.31-.01,.63-.02,.94-.04,.05-.13,.11-.26,.18-.39l.19-.39c.16-.33,.29-.66,.29-.98,.05-5.39,.04-10.79,.02-16.18,0-1.26-.59-2.19-1.87-2.81Zm67.26-4.48c-.55,1.51-1.31,2.64-1.33,3.79-.11,6.5-.07,13-.04,19.5,0,.66,.37,1.32,.57,1.97,.27-.02,.54-.05,.81-.08,.89-2.66,.43-5.48,.56-8.23,.13-2.75,.12-5.51,.34-8.25,.3-3.7,.14-6.65-.91-8.7Zm-87.16,10.81c-.77,.97-1.54,1.49-1.55,2.02-.1,4.06-.06,8.13-.06,12.42,2.24-.02,2.3-1.12,2.3-2.2,0-3.32-.03-6.64-.1-9.95,0-.54-.27-1.06-.59-2.29Zm-15.72,6.21c-.67,.49-1.42,.76-1.45,1.1-.24,2.35-.66,4.75,.33,7.11,2.08-1.05,2.48-3.91,1.12-8.22Zm19.13-7.76c-1.76,.21-2.01,1.25-2.04,2.42v.27h0v.14c0,3.73-.02,7.47,.02,11.21,0,.63,.27,1.26,.4,1.86,1.91,.41,2.01-.72,2.01-1.86,.01-4.22,0-8.45-.02-12.68,0-.44-.23-.87-.37-1.36Zm64.69,4.94c-1.72,1.78-1.64,3.75-1.49,5.7l.04,.51c.07,.84,.12,1.67,.01,2.47-.13,1-.1,2.23,1.47,2.34,1.12-2.19,1.16-8.36-.04-11.02Zm-119.39-6.64c-.94,3.32-.73,15.59,.33,17.65,.35-.38,.89-.7,.9-1.02,.03-5.1,.01-10.21-.08-15.31-.01-.41-.69-.81-1.15-1.32Zm6.45,4.46c-.23,.09-.45,.18-.68,.27h0v4.86c0,2.43,0,4.86,.05,7.28,0,.27,.69,.51,1.07,.78,.96-1.57,1.51-8.91,.8-11.24-.21-.71-.81-1.3-1.24-1.94Zm81,2.95c-.27,.1-.55,.2-.82,.3,.02,3.32-1,6.71,1.12,9.93,1.22-1.9,1.17-3.92,1.06-5.94l-.04-.61c-.04-.6-.07-1.21-.06-1.81,0-.63-.81-1.25-1.25-1.88Zm16.51,2.3c-.9,.93-1.67,1.36-1.68,1.8-.05,2.06-.81,4.25,1.13,6.11,1.57-2.35,1.22-4.75,.55-7.92Zm-34.95-16.15c-.15,.06-.3,.12-.45,.19h0v23.65h0l.81,.18c.22-.6,.61-1.2,.62-1.8,.05-6.49,.07-12.98-.01-19.47-.01-.92-.63-1.83-.97-2.75Zm30.93,16.68c-1.44,2.98-1.16,6.1,.52,7.32,1.5-2.3,1.35-5.56-.52-7.32Zm6.68,.15c-1.37,2.36-1.18,4.74-.04,7.14h0s.13-.27,.13-.27c1.01-2.2,1.11-4.4,.05-6.59l-.14-.27Zm-74.81,.01c-1.3,2.36-1.17,4.73-.55,7.1,.42,0,.83,0,1.24,0,.02-.19,.05-.38,.07-.57l.07-.57c.24-1.99,.36-3.99-.83-5.96Zm93.63-6.6c-.39,.71-.95,1.25-.95,1.8-.05,3.93-.3,7.88,.48,11.8,1.68-1.82,1.81-10.96,.47-13.6Z"/></g></svg>