<svg viewBox="0 0 56 56" xmlns="http://www.w3.org/2000/svg"><path d="m17.0781661 41.975715-3.3698325-3.4679806c-.9269763-.8288265-1.2541444-2.1811207-.9378809-3.4134559.3271681-.970598.7633922-2.2356487 1.385013-3.6860926h-11.53812887c-.94006249 0-1.80880324-.5016584-2.27425499-1.3195787-.46555991-.8179203-.45672706-1.8212338.02301067-2.6282495l5.72249811-9.6514607c1.41336695-2.3883265 3.98054698-3.9478265 6.75820428-3.9478265h8.9644058c.2617338-.3380744.5234693-.741583.7852031-1.1341821 8.9316903-13.1706995 22.2365266-13.61477469 30.1758046-12.15157072 1.2759569.23327168 2.2574613 1.21651994 2.4864796 2.48484216 1.4613469 7.94364116 1.0251227 21.24847746-12.148845 30.18016606-.3816961.2617372-.8942575.523471-1.2323319.6870551v9.0625571c0 2.7809289-1.4613502 5.3437458-3.8496767 6.7614742l-9.6514591 5.7145356c-.8070156.4798459-1.8103308.4907488-2.6282511.0327155-.8179203-.4689396-1.3195787-1.3413879-1.3195787-2.2792705v-11.6908083c-1.5376907.523471-2.8790786.9706014-3.8933001 1.2977695-1.2214273.3925991-2.5519122.054528-3.457076-.8506391zm24.799345-23.7524031c2.4101391 0 4.3622415-1.8539526 4.3622415-4.3622414 0-2.3119893-1.9521024-4.36224141-4.3622415-4.36224141-2.410139 0-4.3622414 2.05025211-4.3622414 4.36224141 0 2.5082888 1.9521024 4.3622414 4.3622414 4.3622414z" transform="translate(0 .1428)"/></svg>