<?xml version="1.0" encoding="UTF-8"?>
<svg width="209px" height="219px" viewBox="0 0 209 219" version="1.1" xmlns="http://www.w3.org/2000/svg" xmlns:xlink="http://www.w3.org/1999/xlink">
    <title>Group 53 Copy</title>
    <g id="Page-1" stroke="none" stroke-width="1" fill="none" fill-rule="evenodd">
        <g id="Group-53-Copy" transform="translate(0.896321, -0.003052)" fill-rule="nonzero">
            <path d="M104.103673,0 L103.562919,0.00657793816 C100.679929,0.0766852915 97.8177416,0.706275784 95.1854614,1.85132741 L94.9451127,1.96 L21.4111945,33.1361983 C9.16269892,38.335393 0.61395738,50.1814674 0.0237715592,63.5775071 L0,64.2562707 L0.00307672669,64.4778394 C0.350161079,89.4729155 6.11744043,117.306058 17.7959642,142.268066 C32.8023625,174.343168 56.4787665,199.79158 89.4735711,215.585437 C98.7454119,219.971631 109.461954,219.971631 118.692387,215.605138 C151.734988,199.783935 175.415887,174.315128 190.364211,142.256366 C202.042351,117.210971 207.729599,89.2560374 207.85464,64.3891208 L207.85464,63.9386731 C207.771856,50.4412475 199.217807,38.404097 186.797058,33.1365776 L113.243113,1.935 L113.468741,2.03394257 C110.519587,0.696285764 107.353537,0 104.103673,0 Z" id="Path" fill="#FFFFFF"></path>
            <path d="M114.416176,206.565557 C107.892746,209.651492 100.314618,209.651492 93.7911812,206.565557 C42.6207444,182.071441 21.1449762,135.236929 13.5467188,97.0034249 L194.502393,97.0034249 C187.053001,135.236929 165.571772,182.071441 114.416176,206.565557 Z" id="Path" fill="#2D39A7"></path>
            <path d="M104.103673,10 C105.939621,10 107.697434,10.3968001 109.338051,11.1409402 L182.892746,42.3428989 C191.486496,45.9874249 197.931809,54.456172 197.855072,64.3389917 C197.820635,71.0708592 197.320306,78.7451968 196.171596,87.0024032 L11.833886,87.0024032 C10.6449076,78.7451968 10.0955922,71.0708592 10.0021127,64.3389917 C10.3028957,54.456172 16.7286757,45.9874249 25.3146116,42.3428989 L98.9083592,11.1409402 C100.509924,10.3968001 102.306795,10 104.103673,10 Z" id="Path" fill="#DA4442"></path>
        </g>
    </g>
</svg>