<svg viewBox="0 0 56 56" xmlns="http://www.w3.org/2000/svg"><path d="m50.097072 16.3019101c.0354445.4959873.0354445.9920811.0354445 1.4880717 0 15.12825-11.5144642 32.55955-32.5595532 32.55955-6.483599 0-12.50654699-1.8778353-17.5729633-5.1371923.92119701.1062205 1.80684131.1416651 2.7634812.1416651 5.34974467 0 10.274496-1.8068397 14.2071661-4.8892003-5.0309734-.1063303-9.2470801-3.4012383-10.69970729-7.9362261.70864624.1062204 1.41718431.1771062 2.16127343.1771062 1.02741748 0 2.05494476-.1417715 3.01147486-.389657-5.24352422-1.0629702-9.17630257-5.6687322-9.17630257-11.2311358v-.1416634c1.52340478.8503096 3.29501954 1.3817398 5.17263678 1.4525174-3.08236061-2.0549415-5.10175102-5.5624036-5.10175102-9.530515 0-2.1257208.56676489-4.07433525 1.55884766-5.77495443 5.63328936 6.94414173 14.10094565 11.47901963 23.59590965 11.97511683-.1771062-.8503096-.2834365-1.7359539-.2834365-2.621708 0-6.3064928 5.1018608-11.443685 11.4436849-11.443685 3.2949114 0 6.2709417 1.3817381 8.3613244 3.61378912 2.5862634-.4959873 5.0663064-1.45262719 7.2630227-2.76347953-.8504194 2.65725906-2.657259 4.88931011-5.0309717 6.30638291 2.3029368-.2478855 4.5349878-.8857542 6.5898194-1.7713985-1.558628 2.2673858-3.5073523 4.2867762-5.7394 5.9166194z"/></svg>