<?xml version="1.0" encoding="UTF-8"?>
<svg width="251px" height="806px" viewBox="0 0 251 806" version="1.1" xmlns="http://www.w3.org/2000/svg" xmlns:xlink="http://www.w3.org/1999/xlink">
    <title>Mask Copy 9</title>
    <g id="Page-1" stroke="none" stroke-width="1" fill="none" fill-rule="evenodd">
        <path d="M27.4505609,0.188047379 L96.1610918,6.95581309 C107.303422,8.05329668 116.357381,16.425157 118.322462,27.4476091 L250.36405,768.090227 C252.78737,781.683021 243.732723,794.666647 230.139929,797.089967 C229.688818,797.170391 229.235582,797.238397 228.780733,797.293908 L159.773025,805.715844 C146.067598,807.388501 133.601197,797.634013 131.92854,783.928586 C131.709428,782.133224 131.685795,780.319385 131.858058,778.518924 L144.56271,645.731824 C146.161805,629.018329 143.526937,612.171233 136.901083,596.744111 L83.9790187,473.524496 C81.9958275,468.906988 79.6673873,464.445543 77.0134881,460.178079 L55.2267789,425.145101 C46.3878275,410.932087 41.2577021,394.727838 40.3066173,378.017594 L36.2805117,307.280253 C35.9115483,300.797689 36.1748332,294.294599 37.0666378,287.863079 L45.5325031,226.808911 C48.5630755,204.953015 44.27994,182.70844 33.3503411,163.540539 L11.9481805,126.00627 C4.11793436,112.273892 -2.64857951e-14,96.738609 0,80.930669 L0,25.0676525 C-1.69088438e-15,11.2605338 11.1928813,0.0676525089 25,0.0676525089 C25.8183318,0.0676525089 26.63617,0.107832507 27.4505609,0.188047379 Z" id="Mask-Copy-9" fill="#CFCFCF"></path>
    </g>
</svg>